<?xml version="1.0" encoding="UTF-8"?><svg xmlns="http://www.w3.org/2000/svg" xmlns:xlink="http://www.w3.org/1999/xlink" viewBox="0 0 336.52 305.5"><defs><style>.cls-1{fill:url(#_Áåçûìÿííûé_ãðàäèåíò_110-2);}.cls-1,.cls-2,.cls-3{mix-blend-mode:multiply;opacity:.6;}.cls-4{fill:url(#_Áåçûìÿííûé_ãðàäèåíò_115-4);}.cls-5{fill:url(#_Áåçûìÿííûé_ãðàäèåíò_114-4);}.cls-6{fill:url(#_Áåçûìÿííûé_ãðàäèåíò_116-3);}.cls-7{fill:url(#_Áåçûìÿííûé_ãðàäèåíò_115-7);}.cls-8{isolation:isolate;}.cls-9{fill:url(#_Áåçûìÿííûé_ãðàäèåíò_116);}.cls-10{fill:url(#_Áåçûìÿííûé_ãðàäèåíò_115-5);}.cls-11{fill:url(#_Áåçûìÿííûé_ãðàäèåíò_114-3);}.cls-12{fill:url(#_Áåçûìÿííûé_ãðàäèåíò_114-5);}.cls-2{fill:url(#_Áåçûìÿííûé_ãðàäèåíò_110-3);}.cls-13{fill:url(#_Áåçûìÿííûé_ãðàäèåíò_116-6);}.cls-14{fill:url(#_Áåçûìÿííûé_ãðàäèåíò_111);}.cls-15{fill:url(#_Áåçûìÿííûé_ãðàäèåíò_114-2);}.cls-16{fill:url(#_Áåçûìÿííûé_ãðàäèåíò_115-3);}.cls-17{fill:url(#_Áåçûìÿííûé_ãðàäèåíò_115-6);}.cls-18{fill:url(#_Áåçûìÿííûé_ãðàäèåíò_115-9);}.cls-19{fill:#6c4375;}.cls-20{fill:url(#_Áåçûìÿííûé_ãðàäèåíò_115-8);}.cls-21{fill:url(#_Áåçûìÿííûé_ãðàäèåíò_113);}.cls-22{fill:url(#_Áåçûìÿííûé_ãðàäèåíò_116-4);}.cls-23{fill:url(#_Áåçûìÿííûé_ãðàäèåíò_112);}.cls-3{fill:url(#_Áåçûìÿííûé_ãðàäèåíò_110);}.cls-24{fill:url(#_Áåçûìÿííûé_ãðàäèåíò_116-2);}.cls-25{fill:url(#_Áåçûìÿííûé_ãðàäèåíò_115-2);}.cls-26{fill:#67536b;}.cls-27{fill:url(#_Áåçûìÿííûé_ãðàäèåíò_114);}.cls-28{fill:url(#_Áåçûìÿííûé_ãðàäèåíò_115);}.cls-29{fill:url(#_Áåçûìÿííûé_ãðàäèåíò_116-5);}</style><linearGradient id="_Áåçûìÿííûé_ãðàäèåíò_116" x1="98.1" y1="312.68" x2="110.12" y2="134.55" gradientUnits="userSpaceOnUse"><stop offset="0" stop-color="#6b7bb0"/><stop offset="1" stop-color="#3d3c68"/></linearGradient><linearGradient id="_Áåçûìÿííûé_ãðàäèåíò_116-2" x1="237.7" y1="322.1" x2="249.71" y2="143.97" xlink:href="#_Áåçûìÿííûé_ãðàäèåíò_116"/><linearGradient id="_Áåçûìÿííûé_ãðàäèåíò_116-3" x1="171.32" y1="276.42" x2="171.37" y2="275.59" xlink:href="#_Áåçûìÿííûé_ãðàäèåíò_116"/><linearGradient id="_Áåçûìÿííûé_ãðàäèåíò_116-4" x1="164.75" y1="316.34" x2="176.7" y2="139.09" xlink:href="#_Áåçûìÿííûé_ãðàäèåíò_116"/><linearGradient id="_Áåçûìÿííûé_ãðàäèåíò_116-5" x1="192.31" y1="318.13" x2="204.26" y2="140.94" xlink:href="#_Áåçûìÿííûé_ãðàäèåíò_116"/><linearGradient id="_Áåçûìÿííûé_ãðàäèåíò_116-6" x1="220.84" y1="283.42" x2="220.9" y2="282.47" xlink:href="#_Áåçûìÿííûé_ãðàäèåíò_116"/><radialGradient id="_Áåçûìÿííûé_ãðàäèåíò_115" cx="171.25" cy="148.75" fx="171.25" fy="148.75" r="31.38" gradientTransform="translate(4 1.2) rotate(.04)" gradientUnits="userSpaceOnUse"><stop offset="0" stop-color="#6b7bb0"/><stop offset="1" stop-color="#3d3c68"/></radialGradient><radialGradient id="_Áåçûìÿííûé_ãðàäèåíò_115-2" cx="-1807" cy="8728.89" fx="-1807" fy="8728.89" r="9.77" gradientTransform="translate(-671.02 8973.89) rotate(173.74)" xlink:href="#_Áåçûìÿííûé_ãðàäèåíò_115"/><radialGradient id="_Áåçûìÿííûé_ãðàäèåíò_115-3" cx="173.84" cy="116.51" fx="173.84" fy="116.51" r="8.47" gradientTransform="matrix(1, 0, 0, 1, 0, 0)" xlink:href="#_Áåçûìÿííûé_ãðàäèåíò_115"/><radialGradient id="_Áåçûìÿííûé_ãðàäèåíò_115-4" cx="586.85" cy="8779.68" fx="586.85" fy="8779.68" r="8.81" gradientTransform="translate(390.03 8867.2) rotate(-5.25) scale(1 -1)" xlink:href="#_Áåçûìÿííûé_ãðàäèåíò_115"/><radialGradient id="_Áåçûìÿííûé_ãðàäèåíò_115-5" cx="171.92" cy="86.47" fx="171.92" fy="86.47" r="7.71" gradientTransform="matrix(1, 0, 0, 1, 0, 0)" xlink:href="#_Áåçûìÿííûé_ãðàäèåíò_115"/><radialGradient id="_Áåçûìÿííûé_ãðàäèåíò_115-6" cx="-1810.11" cy="8788.45" fx="-1810.11" fy="8788.45" r="9.77" gradientTransform="translate(-671.02 8973.89) rotate(173.74)" xlink:href="#_Áåçûìÿííûé_ãðàäèåíò_115"/><radialGradient id="_Áåçûìÿííûé_ãðàäèåíò_115-7" cx="170.44" cy="56.97" fx="170.44" fy="56.97" r="8.47" gradientTransform="matrix(1, 0, 0, 1, 0, 0)" xlink:href="#_Áåçûìÿííûé_ãðàäèåíò_115"/><radialGradient id="_Áåçûìÿííûé_ãðàäèåíò_115-8" cx="588.91" cy="8839.28" fx="588.91" fy="8839.28" r="8.81" gradientTransform="translate(390.03 8867.2) rotate(-5.25) scale(1 -1)" xlink:href="#_Áåçûìÿííûé_ãðàäèåíò_115"/><radialGradient id="_Áåçûìÿííûé_ãðàäèåíò_115-9" cx="168.51" cy="26.93" fx="168.51" fy="26.93" r="7.71" gradientTransform="matrix(1, 0, 0, 1, 0, 0)" xlink:href="#_Áåçûìÿííûé_ãðàäèåíò_115"/><linearGradient id="_Áåçûìÿííûé_ãðàäèåíò_114" x1="38.43" y1="222.51" x2="42.2" y2="305.6" gradientUnits="userSpaceOnUse"><stop offset=".16" stop-color="#b889ac"/><stop offset=".19" stop-color="#ad84aa"/><stop offset=".28" stop-color="#9679a7"/><stop offset=".38" stop-color="#8471a5"/><stop offset=".5" stop-color="#776ba4"/><stop offset=".65" stop-color="#7067a3"/><stop offset="1" stop-color="#6e67a3"/></linearGradient><linearGradient id="_Áåçûìÿííûé_ãðàäèåíò_114-2" x1="133.53" y1="218.19" x2="137.31" y2="301.27" xlink:href="#_Áåçûìÿííûé_ãðàäèåíò_114"/><linearGradient id="_Áåçûìÿííûé_ãðàäèåíò_114-3" x1="193.01" y1="215.49" x2="196.79" y2="298.57" xlink:href="#_Áåçûìÿííûé_ãðàäèåíò_114"/><linearGradient id="_Áåçûìÿííûé_ãðàäèåíò_114-4" x1="241.74" y1="213.27" x2="245.51" y2="296.35" xlink:href="#_Áåçûìÿííûé_ãðàäèåíò_114"/><linearGradient id="_Áåçûìÿííûé_ãðàäèåíò_114-5" x1="305.14" y1="210.39" x2="308.92" y2="293.47" xlink:href="#_Áåçûìÿííûé_ãðàäèåíò_114"/><linearGradient id="_Áåçûìÿííûé_ãðàäèåíò_113" x1="172.31" y1="260.55" x2="170.39" y2="263.59" gradientUnits="userSpaceOnUse"><stop offset=".02" stop-color="#bc4958"/><stop offset=".99" stop-color="#73287b"/></linearGradient><linearGradient id="_Áåçûìÿííûé_ãðàäèåíò_112" x1="109.44" y1="192.14" x2="190.22" y2="331.76" gradientUnits="userSpaceOnUse"><stop offset=".02" stop-color="#761b4f"/><stop offset=".99" stop-color="#1f0935"/></linearGradient><linearGradient id="_Áåçûìÿííûé_ãðàäèåíò_111" x1="126.81" y1="371.46" x2="158.54" y2="314.26" gradientUnits="userSpaceOnUse"><stop offset=".02" stop-color="#831f3f"/><stop offset=".99" stop-color="#320a42"/></linearGradient><linearGradient id="_Áåçûìÿííûé_ãðàäèåíò_110" x1="23.7" y1="310.9" x2="19.45" y2="251.86" gradientUnits="userSpaceOnUse"><stop offset="0" stop-color="#fff"/><stop offset=".98" stop-color="#72168c"/></linearGradient><linearGradient id="_Áåçûìÿííûé_ãðàäèåíò_110-2" x1="131.92" y1="321.36" x2="125.04" y2="225.86" xlink:href="#_Áåçûìÿííûé_ãðàäèåíò_110"/><linearGradient id="_Áåçûìÿííûé_ãðàäèåíò_110-3" x1="251.68" y1="351.23" x2="240.34" y2="193.85" xlink:href="#_Áåçûìÿííûé_ãðàäèåíò_110"/></defs><g class="cls-8"><g id="Calque_2"><g><path class="cls-9" d="m168.07,144.22l-.88,1.06-1.07,1.27-1,1.2-103.81,124.39-6.63,7.95-4.42,5.29-.59.71h-8.39c.07-.11.14-.21.21-.31,2.49-3.58,5.65-7.78,9.34-12.46.92-1.17,1.87-2.36,2.85-3.59,32.61-40.57,98.47-110.74,110.12-123.12,1.17-1.24,1.79-1.89,1.79-1.89l2.46-.49Z"/><path class="cls-24" d="m304.52,275.03c-1.78-.28-3.63-.6-4.72-.78-.6-.11-.97-.17-.97-.17,0,0-30.92-42.57-115.87-128.1-.56-.57-1.12-1.14-1.69-1.7-.02-.02-.04-.04-.05-.05l.07.03,2.24.96s.02.03.08.08c3.06,3.19,96.65,100.74,120.24,124.84,3.27,3.34,5.19,5.27,5.35,5.35.03.02.05.03.06.04.38.26-2.1-.08-4.74-.49Z"/><path class="cls-6" d="m171.25,275.63c.12.35.21.58.21.61-.02-.03-.07-.17-.18-.44-.02-.03-.02-.09-.03-.17Z"/><path class="cls-22" d="m175.45,148.97s-.04.96-.11,2.7c-.61,15.1-3.58,89.31-4.1,115.21,0,.59-.02,1.15-.03,1.69,0,.45-.02.89-.02,1.3-.05,3.08-.04,5.09.04,5.74-.53-1.47-1.82-4.96-1.82-4.96,0,0,0-.06,0-.19-.02-.18-.03-.48-.05-.89-.03-.58-.07-1.39-.12-2.4-.68-14.95-2.8-74.73,4.5-115.06.23-1.27.47-2.52.71-3.74l.99.62Z"/><path class="cls-29" d="m221.15,276.81s-.21,4.04-.27,5.71c-.2-1.17-1.91-6.84-4.55-15.23-10.17-32.3-34.12-104.98-38.15-117.23-.38-1.16-.58-1.77-.58-1.77l.8-.87c.3.61.61,1.22.9,1.84,18.3,37.64,33.86,95.62,39.55,118.14,1.5,5.93,2.31,9.41,2.31,9.41Z"/><path class="cls-13" d="m220.89,282.51c.02.08.02.15.02.18-.05.84-.05.58-.02-.18Z"/><path class="cls-28" d="m188.48,132.9c-1.2-4.43-6.18-12.12-12.28-15.44-.19-.11-.39-.21-.59-.31-1.01-.5-2.34-.5-3.84-.12-7.1,1.79-17.86,12.21-14.36,20.37,1.66,3.9,4,6.94,6.41,9.21.43.41.87.79,1.3,1.14,3.29,2.73,6.57,4.09,8.37,4.33.08,0,.16.02.25.02.42,0,.97-.15,1.6-.42.83-.34,1.8-.9,2.84-1.61.36-.25.74-.51,1.11-.8,1.22-.93,2.49-2.04,3.67-3.28.21-.23.44-.46.64-.69,3.37-3.71,5.95-8.35,4.86-12.4Zm-7.18,11.36s0,.02-.02.02c-2.61,2.8-5.95,3.97-7.09,3.82-2.15-.28-9.05-5.99-11.75-12.3-2.27-5.32,2.76-13.68,9.52-14.66,1.27-.18,2.59-.11,3.94.29.05.02.11.03.16.06,2.37.96,7.79,8.12,8.32,11.03.98,5.38-.75,9.21-3.08,11.74Z"/><g><path class="cls-25" d="m176.91,91.14c-.99-.68-2.03-1.23-3.07-1.64-1.4-.57-2.77-.89-3.92-.97-1.37-.08-2.41.18-2.82.78-1.01,1.5.84,19.39,2.55,20.92.44.4,1.13.75,1.93,1.06,1.41.54,3.18.91,4.6,1.04.95.08,1.75.07,2.19-.08,2.54-.84,2.52-18.38-1.46-21.12Zm-.22,18.09c-.17.05-.41.08-.71.08-1.24,0-3.38-.43-4.47-1.1-.14-.08-.26-.16-.36-.25-1.1-.97-2.34-12.48-1.69-13.46.14-.21.39-.35.72-.43.78-.19,2-.05,3.3.44.77.28,1.57.68,2.31,1.2,2.55,1.79,2.51,12.97.9,13.51Z"/><path class="cls-16" d="m176.2,117.45c-.03,1.39-.08,2.76-.14,4.04-.18,3.78-.43,6.75-.43,6.75,0,0-2.06-.33-2.96-1.27-.3-.31-.53-2.72-.71-5.84-.07-1.29-.14-2.69-.19-4.12-.08-1.96-.15-3.97-.19-5.73-.03-1.14-.05-2.19-.07-3.08-.05-1.69-.06-2.77-.06-2.77,0,0,1.16-1.79,3.51.43.5.47.82,1.73,1.01,3.44.1.9.17,1.93.21,3.02.06,1.61.05,3.37.02,5.12Z"/><path class="cls-4" d="m176,60.09c-.49-.6-1.73-.71-3.25-.36-1.28.28-2.77.89-4.19,1.79-.48.31-.96.65-1.42,1.03-3.41,2.8-2,18.67.39,19.23.45.11,1.3.04,2.28-.15,1.33-.26,2.91-.76,4.1-1.37.61-.31,1.12-.64,1.45-.99,1.45-1.53,1.68-17.9.63-19.18Zm-2.19,17.23c-.09.1-.21.19-.34.28-.87.62-2.52,1.13-3.66,1.28-.42.06-.77.08-.98.02-1.52-.36-2.47-10.49-.28-12.31.14-.11.28-.22.42-.33,1.18-.87,2.51-1.41,3.55-1.58.81-.13,1.46-.04,1.73.31.68.83.48,11.36-.45,12.33Z"/><path class="cls-10" d="m173.84,89.49c-.11,1.9-.25,3.67-.36,5.03-.15,1.61-.25,2.65-.25,2.65,0,0-1.89-.32-2.7-1.19-.14-.15-.25-.85-.35-1.9-.12-1.39-.21-3.39-.26-5.55-.06-2.3-.09-4.78-.11-6.9,0-1.01,0-1.95,0-2.74,0-1.54,0-2.53,0-2.53,0,0,1.1-1.6,3.22.45.17.17.31.44.44.8.22.64.37,1.56.45,2.65.21,2.55.11,6.07-.08,9.23Z"/></g><g><path class="cls-17" d="m173.51,31.6c-.99-.68-2.04-1.24-3.08-1.65-1.4-.57-2.77-.88-3.92-.96-1.36-.08-2.41.18-2.82.78-1.01,1.5.84,19.39,2.54,20.92.44.4,1.13.75,1.94,1.07,1.4.53,3.18.91,4.6,1.04.95.08,1.75.07,2.19-.08,2.55-.84,2.52-18.38-1.45-21.12Zm-.23,18.09c-.17.05-.41.08-.71.08-1.24,0-3.38-.43-4.47-1.1-.14-.08-.26-.16-.36-.25-1.09-.97-2.33-12.48-1.68-13.46.14-.21.38-.35.71-.43.78-.19,2-.05,3.31.44.78.28,1.57.68,2.32,1.2,2.55,1.79,2.5,12.98.89,13.51Z"/><path class="cls-7" d="m172.75,59.73c-.06,1.8-.15,3.51-.24,4.96-.14,2.39-.28,4.02-.28,4.02,0,0-2.06-.33-2.96-1.27-.11-.12-.21-.53-.31-1.17-.15-1.07-.29-2.77-.4-4.75-.18-3.04-.3-6.74-.38-9.76-.03-1.15-.06-2.2-.08-3.08-.04-1.69-.05-2.77-.05-2.77,0,0,1.16-1.79,3.51.43.5.48.82,1.73,1.01,3.44.1.9.17,1.93.21,3.02.08,2.17.05,4.63-.02,6.94Z"/><path class="cls-20" d="m172.59.56c-1.05-1.28-5.49-.31-8.85,2.46-3.41,2.8-2,18.67.39,19.23.46.11,1.3.04,2.28-.15,1.33-.26,2.92-.76,4.12-1.37.61-.31,1.11-.64,1.44-.99,1.44-1.53,1.68-17.9.62-19.18Zm-2.19,17.23c-.09.1-.21.19-.34.28-.87.62-2.53,1.13-3.67,1.28-.41.06-.76.08-.97.02-1.52-.36-2.47-10.49-.28-12.31,2.16-1.8,5.03-2.44,5.71-1.6.68.83.48,11.36-.45,12.33Z"/><path class="cls-18" d="m170.43,29.95c-.11,1.9-.25,3.67-.36,5.03-.15,1.61-.25,2.65-.25,2.65,0,0-1.88-.32-2.7-1.19-.15-.15-.25-.85-.35-1.9-.12-1.39-.2-3.38-.25-5.55-.06-2.29-.09-4.78-.11-6.9,0-1.01,0-1.95,0-2.74,0-1.54,0-2.53,0-2.53,0,0,1.1-1.6,3.22.45.17.17.31.44.44.8.22.64.37,1.56.46,2.65.2,2.55.09,6.06-.09,9.22Z"/></g><path class="cls-26" d="m300.48,209.13l-.71.8-.42-2.51-.88-5.24.84-.14s-.27.64-.04,2.89c.08.86.27,1.66.48,2.32.35,1.14.74,1.88.74,1.88Z"/><path class="cls-26" d="m250.85,225.45c-.27,1.13-.32,2.19-.31,2.99,0,.83.09,1.37.09,1.37l-.94.52.34-1.97.98-5.78.84.15s-.48.52-1,2.72Z"/><path class="cls-26" d="m133.75,227.44c.06,1.45-.52,3.11-.52,3.11l.15-3.11s.68-4.12.43-1.88c-.08.66-.08,1.3-.05,1.87Z"/><path class="cls-26" d="m196.1,248.43c.09,1.26.34,2.13.34,2.13l-.87.63.14-2.84.25-5.01.85.05s-.41.58-.66,2.82c-.09.8-.08,1.57-.04,2.22Z"/><path class="cls-26" d="m43.78,226.28l-.97.85-.12-2.39-.36-6.98,1.02-.05s-.41.73-.44,3.43c-.02,1.5.23,2.88.48,3.82.2.82.4,1.32.4,1.32Z"/><polygon class="cls-27" points="55.17 285.17 50.27 285.38 41.51 285.78 27.44 286.4 28.3 276.25 32.98 221.69 42.69 224.74 43.38 224.96 49.62 226.93 53.7 269.73 54.01 272.95 54.69 280.09 55.17 285.17"/><path class="cls-15" d="m151.01,274.08l-3.38-.07-26.51-.55c.2-.27.66-2.55,1.26-5.98,2.16-12.45,6.14-39.93,6.14-39.93l4.86-.1h.38s9.55-.21,9.55-.21l6.47,39.33,1.24,7.51Z"/><path class="cls-11" d="m211.1,281.47c-.31-.93-30.2-3.7-30.2-3.7-.37-.12-.29-5.26-.07-11.39.33-9.21,1-20.66,1-20.66l13.87,2.63.4.08,10.07,1.91s1.4,8.52,2.7,16.66c1.23,7.63,2.38,14.91,2.22,14.47Z"/><path class="cls-5" d="m256.4,229.39l-.24,40.34-.07,12.05-25.27-2.16c.42-2.53,1.3-6.65,2.39-11.49,3.7-16.33,9.94-40.9,9.94-40.9l6.87,1.12.51.08,5.86.95Z"/><polygon class="cls-12" points="318.03 283.93 305.4 281.47 304.52 275.03 304.5 274.87 303.85 270.14 295.54 209.05 299.34 207.42 299.74 207.25 304.16 205.35 316.74 276.62 318.03 283.93"/><g><path class="cls-21" d="m175.03,266.35l-.04,2.26-3.79,1.25-1.79.58-2.21.73-2.49.82-5.09-3.64s1.49-.14,6.15-.74c1-.13,2.16-.28,3.48-.46.63-.08,1.29-.18,1.99-.28,1.15-.16,2.41-.34,3.78-.53Z"/><path class="cls-23" d="m336.52,299.03v.1c-.18-.02-.35-.03-.55-.05-.21-.02-.43-.04-.67-.06-.11,0-.23-.02-.35-.03-.29-.02-.61-.05-.94-.08-.02,0-.04,0-.06,0-.06,0-.12-.02-.18-.02,0,0-.02,0-.02,0-.06,0-.13,0-.19-.02-.07,0-.15-.02-.22-.02,0,0-.02,0-.02,0-.07,0-.14,0-.21-.02-.38-.03-.77-.06-1.19-.1-.07,0-.14-.02-.22-.02-.21-.02-.44-.03-.68-.05-.05,0-.1,0-.15-.02h-.04c-.08,0-.16-.02-.25-.02h-.05s-.07,0-.11,0c-.05,0-.09,0-.14-.02-.36-.03-.74-.06-1.12-.09-.21-.02-.42-.03-.64-.05-.19-.02-.38-.03-.58-.05-.02,0-.02,0-.04,0l-.32-.02c-.09,0-.18-.02-.28-.02-.06,0-.12,0-.18-.02-.15,0-.31-.02-.48-.03-.02,0-.03,0-.05,0-.21-.02-.41-.03-.63-.05-.02,0-.03,0-.05,0-.21-.02-.43-.03-.65-.05-.19-.02-.39-.03-.59-.05-.05,0-.11,0-.17-.02-.12,0-.22,0-.34-.02-.11,0-.23-.02-.35-.02-.02,0-.03,0-.05,0-.11,0-.21-.02-.32-.02-.38-.02-.76-.05-1.14-.08-.51-.04-1.04-.08-1.58-.12-.55-.05-1.12-.09-1.7-.13-.13,0-.27-.02-.4-.02-.13,0-.27-.02-.41-.03-.02,0-.03,0-.05,0-.08,0-.15,0-.24-.02-.03,0-.05,0-.08,0-.34-.02-.69-.05-1.04-.08-.35-.02-.71-.05-1.07-.07-.84-.05-1.7-.11-2.59-.18-.45-.03-.9-.06-1.36-.09-4.25-.29-8.96-.6-14.09-.91-.64-.04-1.3-.08-1.96-.12-.91-.05-1.82-.1-2.75-.16-.82-.05-1.65-.09-2.49-.15-1.53-.08-3.09-.17-4.7-.26-.45-.03-.91-.05-1.37-.08-.14,0-.27-.02-.4-.02-.88-.05-1.78-.1-2.69-.15-1.6-.08-3.22-.16-4.87-.25-1.6-.08-3.24-.16-4.9-.24h-.05c-1.64-.08-3.31-.16-4.99-.24-.29-.02-.59-.02-.89-.04-.56-.03-1.12-.05-1.69-.08-.87-.04-1.74-.08-2.62-.11-.28,0-.55-.02-.83-.03-.31-.02-.63-.02-.94-.04-.29-.02-.58-.02-.87-.04-1.77-.08-3.58-.15-5.39-.22-.78-.02-1.57-.05-2.36-.09-.54-.02-1.07-.04-1.61-.06-.15,0-.31,0-.46-.02-1.75-.06-3.51-.13-5.3-.19-1.47-.05-2.95-.1-4.43-.15-1.32-.04-2.65-.08-3.98-.12-.8-.02-1.6-.05-2.39-.08-.2,0-.4-.02-.61-.02-.31,0-.63-.02-.95-.02-.41,0-.81-.02-1.2-.04-.47-.02-.94-.02-1.41-.04-.25,0-.51-.02-.76-.02-.73-.02-1.47-.04-2.19-.06-.21,0-.44,0-.65-.02-.31,0-.63-.02-.94-.02-.62-.02-1.24-.03-1.86-.05-.92-.02-1.84-.05-2.77-.07-1.2-.03-2.4-.05-3.61-.08-1.3-.03-2.59-.05-3.9-.08-.66-.02-1.32-.02-1.98-.04-.48,0-.95-.02-1.43-.02-1.24-.02-2.47-.05-3.71-.07-1.49-.02-2.98-.05-4.5-.07-2.26-.04-4.54-.07-6.83-.09-2.19-.03-4.4-.05-6.63-.07-.83,0-1.66-.02-2.49-.02-2.09-.02-4.2-.03-6.31-.04-3.3-.02-6.62-.02-9.97-.02-7.83,0-15.87.06-24.09.16-11.14.14-22.62.37-34.38.71-31.38.91-66.43,2.38-101.27,5.15-2.13.17-4.24.35-6.37.52-.36.03-.73.06-1.09.09-.18.02-.26.02-.26.02-.2.02-.39.03-.59.05H0l.32-2.64,1.99-16.12c5.72-.98,11.42-1.9,17.08-2.76,1.11-.17,2.22-.34,3.34-.51,1.86-.28,3.71-.55,5.57-.81,7.58-1.08,15.1-2.06,22.54-2.94,1.06-.12,2.11-.25,3.16-.37,2.45-.28,4.89-.54,7.31-.81,15.61-1.68,30.87-2.94,45.67-3.84,5.19-.31,10.32-.59,15.39-.82,9.11-.43,18.01-.72,26.72-.9.23,0,.46,0,.68-.02,5.23-.11,10.38-.18,15.45-.2h-.04s.24.56.59,1.25c.51,1,1.25,2.27,1.83,2.55.04.02.08.03.12.04.02,0,.06,0,.11,0,.02,0,.05,0,.08-.02.07-.02.15-.04.25-.08.06-.02.12-.05.19-.08.15-.06.32-.14.52-.23.11-.06.25-.12.38-.18.04-.02.08-.04.12-.06.03-.02.06-.03.09-.05.15-.07.29-.15.44-.23.4-.21.84-.45,1.31-.71.07-.04.15-.08.21-.12.18-.11.38-.21.56-.32.96-.55,1.99-1.15,3.04-1.77,1.95,0,3.88.02,5.8.04,1.21,0,2.42.02,3.62.04,1.14.02,2.28.03,3.41.05,5.88.09,11.64.23,17.25.41.92.02,1.83.05,2.74.08.35.02.68.03,1.03.04,2.52.09,5,.18,7.46.28.84.04,1.68.08,2.51.11,1.27.05,2.54.12,3.8.18,2.26.11,4.51.22,6.72.35,1.3.07,2.58.14,3.85.21,8.06.47,15.72,1.01,22.95,1.6,2.68.21,5.3.43,7.86.66.64.05,1.29.11,1.93.17.92.08,1.83.17,2.74.25.76.07,1.51.15,2.26.21.68.06,1.35.13,2.02.19,1.24.12,2.45.25,3.64.37.21.02.41.04.62.06,1.07.11,2.13.22,3.17.33.41.05.82.08,1.24.13,2.26.25,4.44.48,6.57.73.4.05.79.09,1.18.14,1.17.13,2.32.27,3.46.41.51.06,1.01.12,1.5.18,1.88.23,3.71.45,5.46.68.41.05.81.1,1.2.15.4.05.79.11,1.18.15.39.05.78.1,1.17.15.34.05.67.09,1,.14.05,0,.09,0,.15.02,1.66.22,3.25.44,4.76.66,1.14.15,2.24.31,3.3.47.44.07.88.13,1.31.2.08,0,.18.02.26.04.43.06.85.12,1.26.18.46.07.91.14,1.35.21.83.12,1.63.25,2.39.37,1.03.15,2,.31,2.92.46,1.28.21,2.45.4,3.5.58.39.06.77.12,1.12.19.45.08.86.15,1.24.21.26.04.51.08.74.13.24.04.47.08.68.12.11.02.21.04.31.05.11.02.21.04.3.05.4.08.75.14,1.05.2l-.02.25,5.53,19.79Z"/><path class="cls-19" d="m335.97,299.08c-20.75,1.97-169.48,13.44-335.36-.04,165.67-14.12,314.64-1.84,335.36.04Z"/><path class="cls-14" d="m61.68,297.61c105.6,12.23,212.48-.51,212.48-.51,0,0-167.95-4.54-212.48.51Z"/><path class="cls-3" d="m24.36,293.6l-4.96-16.04c1.11-.17,2.22-.34,3.34-.51l1.63,16.54Z"/><path class="cls-1" d="m149.09,266.58l-1.47,7.43-3.33,16.91-.31,1.53-.02.09v.04s-34.36.86-34.36.86l-.02-.19-.02-.18-.11-1.04-2.48-23.73c5.19-.31,10.32-.59,15.39-.82,9.11-.43,18.01-.72,26.72-.9Z"/><path class="cls-2" d="m336.52,299.03v.1c-.18-.02-.35-.03-.55-.05-.21-.02-.43-.04-.67-.06-.11,0-.23-.02-.35-.03-.29-.02-.61-.05-.94-.08-.02,0-.04,0-.06,0-.06,0-.12-.02-.18-.02-.14-.02-.28-.03-.44-.04-.08,0-.15-.02-.23-.02-.38-.03-.77-.06-1.19-.1-.07,0-.14-.02-.22-.02-.21-.02-.44-.03-.68-.05-.05,0-.1,0-.15-.02h-.04c-.08,0-.16-.02-.25-.02h-.05c-.07,0-.14-.02-.21-.02h-.04c-.36-.03-.74-.06-1.12-.09-.21-.02-.42-.03-.64-.05-.19-.02-.38-.03-.58-.05-.11,0-.24-.02-.36-.03-.09,0-.18-.02-.28-.02-.06,0-.12,0-.18-.02-.15,0-.31-.02-.48-.03-.02,0-.03,0-.05,0-.21-.02-.41-.03-.63-.05-.23-.02-.46-.04-.7-.05-.19-.02-.39-.03-.59-.05-.05,0-.11,0-.17-.02-.12,0-.22,0-.34-.02-.11,0-.23-.02-.35-.02-.49-.04-1-.08-1.51-.12-.51-.04-1.04-.08-1.58-.12-.68-.05-1.38-.09-2.1-.15-.13,0-.27-.02-.41-.03-.02,0-.03,0-.05,0-.08,0-.15,0-.24-.02-.03,0-.05,0-.08,0-.68-.05-1.39-.09-2.11-.15-.84-.05-1.7-.11-2.59-.18-.45-.03-.9-.06-1.36-.09-4.25-.29-8.96-.6-14.09-.91-.64-.04-1.3-.08-1.96-.12-.91-.05-1.82-.1-2.75-.16-.82-.05-1.65-.09-2.49-.15-1.53-.08-3.09-.17-4.7-.26-.45-.03-.91-.05-1.37-.08-.14,0-.27-.02-.4-.02-.88-.05-1.78-.1-2.69-.15-1.6-.08-3.22-.16-4.87-.25-1.6-.08-3.24-.16-4.9-.24h-.05c-1.64-.08-3.31-.16-4.99-.24-.29-.02-.59-.02-.89-.04-1.69-.08-3.4-.15-5.13-.23-.31-.02-.63-.02-.94-.04-.29-.02-.58-.02-.87-.04-1.77-.08-3.58-.15-5.39-.22-.78-.02-1.57-.05-2.36-.09-.54-.02-1.07-.04-1.61-.06-.15,0-.31,0-.46-.02-1.75-.06-3.51-.13-5.3-.19-1.47-.05-2.95-.1-4.43-.15-1.32-.04-2.65-.08-3.98-.12-.8-.02-1.6-.05-2.39-.08-.51-.02-1.04-.03-1.56-.05-.41,0-.81-.02-1.2-.04-.47-.02-.94-.02-1.41-.04-.25,0-.51-.02-.76-.02-.44,0-.87-.02-1.32-.03-.51-.02-1.01-.03-1.53-.05-.31,0-.63-.02-.94-.02-.62-.02-1.24-.03-1.86-.05-.92-.02-1.84-.05-2.77-.07-1.2-.03-2.4-.05-3.61-.08-1.3-.03-2.59-.05-3.9-.08-.66-.02-1.32-.02-1.98-.04-.48,0-.95-.02-1.43-.02-1.24-.02-2.47-.05-3.71-.07-1.49-.02-2.98-.05-4.5-.07-2.26-.04-4.54-.07-6.83-.09-2.19-.03-4.4-.05-6.63-.07-.83,0-1.66-.02-2.49-.02-2.09-.02-4.2-.03-6.31-.04-3.3-.02-6.62-.02-9.97-.02l-.81-.05h-.09l-8.36-.41.53-1.3,7.86-19.45.41-1.01s.08.03.12.04c.02,0,.06,0,.11,0,.02,0,.05,0,.08-.02.07-.02.15-.04.25-.08.06-.02.12-.05.19-.08.15-.06.32-.14.52-.23.11-.05.25-.11.38-.18.04-.02.08-.04.12-.06.03-.02.06-.03.09-.05.15-.07.29-.15.44-.23.4-.21.84-.45,1.31-.71.07-.04.15-.08.21-.12.18-.11.38-.21.56-.32.96-.55,1.99-1.15,3.04-1.77,1.95,0,3.88.02,5.8.04,1.21,0,2.42.02,3.62.04,1.14.02,2.28.03,3.41.05,5.88.09,11.64.23,17.25.41.92.02,1.83.05,2.74.08.35.02.68.03,1.03.04,2.52.09,5,.18,7.46.28.84.04,1.68.08,2.51.11,1.27.05,2.54.12,3.8.18,2.26.11,4.51.22,6.72.35,1.3.07,2.58.14,3.85.21,8.06.47,15.72,1.01,22.95,1.6,2.68.21,5.3.43,7.86.66.64.05,1.29.11,1.93.17.92.08,1.83.17,2.74.25.76.07,1.51.15,2.26.21.68.06,1.35.13,2.02.19,1.24.12,2.45.25,3.64.37.21.02.41.04.62.06,1.07.11,2.13.22,3.17.33.41.05.82.08,1.24.13,2.26.25,4.44.48,6.57.73.4.05.79.09,1.18.14,1.18.14,2.33.28,3.46.41.51.06,1.01.12,1.5.18,1.88.23,3.71.45,5.46.68.41.05.81.1,1.2.15.4.05.79.11,1.18.15.39.05.78.1,1.17.15.34.05.67.09,1,.14.05,0,.09,0,.15.02,1.66.22,3.25.44,4.76.66,1.14.15,2.24.31,3.3.47.44.07.88.13,1.31.2.08,0,.18.02.26.04.43.06.85.12,1.26.18.46.07.91.14,1.35.21.83.12,1.63.25,2.39.37,1.03.16,2,.31,2.92.46,1.28.21,2.45.4,3.5.58.39.07.77.13,1.12.19.45.08.86.15,1.24.21.26.05.51.09.74.13.24.04.47.08.68.12.11.02.21.04.31.05.11.02.21.04.3.05.4.08.75.14,1.05.2l-.02.25,5.53,19.79Z"/><path class="cls-19" d="m235.08,293.43c15.01-2.94,14.82,1.58,14.82,1.58l-14.82-1.58Z"/></g></g></g></g></svg>