<?xml version="1.0" encoding="UTF-8"?><svg id="Calque_2" xmlns="http://www.w3.org/2000/svg" xmlns:xlink="http://www.w3.org/1999/xlink" viewBox="0 0 132.97 96.13"><defs><style>.cls-1{fill:#430827;}.cls-1,.cls-2,.cls-3,.cls-4,.cls-5,.cls-6,.cls-7,.cls-8,.cls-9{fill-rule:evenodd;}.cls-2{fill:url(#_Áåçûìÿííûé_ãðàäèåíò_68);}.cls-3{fill:#fb8b57;}.cls-10,.cls-7{fill:#1f0020;}.cls-4{fill:#270020;}.cls-5{fill:#590029;opacity:.76;}.cls-6{fill:#500631;}.cls-8{fill:url(#_Áåçûìÿííûé_ãðàäèåíò_128);}.cls-9{fill:#37002f;opacity:.47;}</style><linearGradient id="_Áåçûìÿííûé_ãðàäèåíò_68" x1="43.77" y1="51.75" x2="117.83" y2="51.75" gradientUnits="userSpaceOnUse"><stop offset=".05" stop-color="#420037"/><stop offset=".98" stop-color="#661820"/></linearGradient><linearGradient id="_Áåçûìÿííûé_ãðàäèåíò_128" x1="92.35" y1="71.72" x2="92.35" y2="0" gradientUnits="userSpaceOnUse"><stop offset=".03" stop-color="#e22f45"/><stop offset="1" stop-color="#ffa981"/></linearGradient></defs><path class="cls-2" d="m110.71,96.11l7.13-80.39S76.22,1,43.77,10.69l2.99,85.41h63.94Z"/><rect class="cls-10" x="58.5" y="53.69" width="84.55" height=".52" transform="translate(39.45 150.42) rotate(-85.72)"/><polygon class="cls-7" points="62.32 7.58 65.91 17.15 68.91 7.58 62.32 7.58"/><polygon class="cls-7" points="96.06 96.11 101.26 47.34 98.66 96.11 96.06 96.11"/><path class="cls-9" d="m101.26,11.19l-35.65,72.95.29-51.56,12.92-24.79s15.68,1.78,22.44,3.4Z"/><polygon class="cls-9" points="102.37 32.59 65.91 86.3 65.61 89.65 101.94 37.25 102.37 32.59"/><polygon class="cls-1" points="46.49 88.39 65.61 75.47 66.09 64.89 45.64 69.01 46.49 88.39"/><polygon class="cls-4" points="44.58 24.5 32.11 9.29 0 22.57 18.71 87.57 46.18 84.97 45.82 71.44 27.34 72.15 19.26 36.33 31.82 27.79 44.99 40.12 44.58 24.5"/><polygon class="cls-6" points="51.03 24.5 39.85 7.39 11.07 19.73 27.84 87.57 52.46 84.97 52.14 71.44 35.57 72.15 28.33 36.33 39.59 27.79 51.4 40.12 51.03 24.5"/><polygon class="cls-3" points="39.85 7.39 32.11 9.29 0 22.57 11.07 19.73 39.85 7.39"/><polygon class="cls-7" points="18.71 87.57 27.84 87.57 11.07 19.73 0 22.57 18.71 87.57"/><polygon class="cls-1" points="16.85 17.25 12.61 25.98 7.42 20.66 16.85 17.25"/><rect class="cls-10" x="65.64" y="7.43" width=".52" height="88.68"/><path class="cls-7" d="m114.84,49.45s-42.9-2.76-69.78-1.97l.52,14.89s26.43-5.02,68.11,0l1.15-12.92Z"/><polygon class="cls-7" points="35.3 31.05 44.99 41.91 51.4 40.12 39.59 27.79 35.3 31.05"/><polygon class="cls-7" points="51.4 40.12 45.64 66.32 44.99 41.91 51.4 40.12"/><polygon class="cls-5" points="52.46 84.97 46.77 96.11 46.18 84.97 52.46 84.97"/><path class="cls-8" d="m52.46,8.69s-2.42-5.15,1.53-6.83c4.89-2.08,19.15,3.95,19.15,3.95,0,0,5.53-5.81,12.47-5.81,7.94,0,8.78,7.39,8.78,7.39,0,0,3.36-1.61,4.87,0,0,0,19.15-8.13,28.56-3.43,9.41,4.7,2.18,20.83,2.18,20.83,0,0,4.12,4.99,2.65,10.06-1.47,5.06-5.67,5.12-5.67,5.12,0,0,2.69,13.78-.5,22.4-3.19,8.62-13.61,9.36-13.61,9.36l4.97-56.01s-22.3-8.35-65.37-7.03Z"/></svg>