<?xml version="1.0" encoding="UTF-8"?>
<svg xmlns="http://www.w3.org/2000/svg" xmlns:xlink="http://www.w3.org/1999/xlink" viewBox="0 0 500.26 792.99" width="100%" height="100%">
    <defs>
        <style>
            .cls-1{fill:url(#_Áåçûìÿííûé_ãðàäèåíò_133);}.cls-1,.cls-2,.cls-3,.cls-4,.cls-5,.cls-6,.cls-7,.cls-8,.cls-9,.cls-10,.cls-11,.cls-12,.cls-13,.cls-14,.cls-15,.cls-16,.cls-17,.cls-18,.cls-19,.cls-20,.cls-21,.cls-22,.cls-23,.cls-24,.cls-25,.cls-26,.cls-27,.cls-28,.cls-29,.cls-30,.cls-31,.cls-32,.cls-33,.cls-34,.cls-35,.cls-36,.cls-37,.cls-38,.cls-39,.cls-40,.cls-41,.cls-42,.cls-43,.cls-44{fill-rule:evenodd;}.cls-1,.cls-10,.cls-13,.cls-14,.cls-15,.cls-20,.cls-21,.cls-22,.cls-25,.cls-31,.cls-32,.cls-35,.cls-38,.cls-45{mix-blend-mode:multiply;}.cls-1,.cls-10,.cls-13,.cls-14,.cls-20,.cls-25,.cls-31{opacity:.58;}.cls-2{fill:#772a52;}.cls-3{fill:#42133f;}.cls-4,.cls-40{fill:#ffb864;}.cls-46,.cls-5,.cls-8,.cls-36{fill:#fff;}.cls-5,.cls-8{opacity:.5;}.cls-6{fill:#c34854;}.cls-7{fill:#3b465c;}.cls-47,.cls-35,.cls-45{opacity:.31;}.cls-8,.cls-36{mix-blend-mode:soft-light;}.cls-9{fill:#9f344c;}.cls-10{fill:url(#_Áåçûìÿííûé_ãðàäèåíò_133-5);}.cls-11{fill:#29354d;}.cls-48{fill:url(#_Áåçûìÿííûé_ãðàäèåíò_290);}.cls-49{fill:url(#_Áåçûìÿííûé_ãðàäèåíò_290-4);}.cls-50{isolation:isolate;}.cls-12{fill:#67363f;}.cls-13{fill:url(#_Áåçûìÿííûé_ãðàäèåíò_133-4);}.cls-14{fill:url(#_Áåçûìÿííûé_ãðàäèåíò_133-6);}.cls-15{fill:#680463;}.cls-15,.cls-21,.cls-22,.cls-38{opacity:.4;}.cls-16{fill:#7c525a;}.cls-17{fill:#bd4751;}.cls-18{fill:#e7754c;}.cls-19{fill:#862043;}.cls-20{fill:url(#_Áåçûìÿííûé_ãðàäèåíò_133-7);}.cls-21{fill:#7c0477;}.cls-51{fill:#5c2c66;}.cls-22{fill:#66044f;}.cls-52{mix-blend-mode:screen;}.cls-23{fill:#9c254c;}.cls-53,.cls-26{fill:#e15558;}.cls-24{fill:url(#_Áåçûìÿííûé_ãðàäèåíò_22);}.cls-54{fill:#ff8e65;}.cls-25{fill:url(#_Áåçûìÿííûé_ãðàäèåíò_133-2);}.cls-27{fill:#ab9096;}.cls-28{fill:#b83b4c;}.cls-29{fill:#cdb6b2;}.cls-30{fill:#ffa995;}.cls-55{fill:url(#_Áåçûìÿííûé_ãðàäèåíò_290-3);}.cls-31{fill:url(#_Áåçûìÿííûé_ãðàäèåíò_133-3);}.cls-56{fill:url(#_Áåçûìÿííûé_ãðàäèåíò_290-2);}.cls-32{fill:#6d0475;opacity:.61;}.cls-33{fill:#c75967;}.cls-34{fill:#b1484c;}.cls-57{fill:#937078;}.cls-35{fill:url(#_Áåçûìÿííûé_ãðàäèåíò_4);}.cls-37{fill:#e4d7d5;}.cls-38{fill:#7c2c77;}.cls-58{fill:#6b2430;}.cls-39{fill:#ba6664;}.cls-39,.cls-40{mix-blend-mode:color;opacity:.45;}.cls-45{fill:url(#_Áåçûìÿííûé_ãðàäèåíò_14);}.cls-59{fill:#7c1338;}.cls-41{fill:url(#_Áåçûìÿííûé_ãðàäèåíò_22-2);}.cls-42{fill:#953752;}.cls-43{fill:#8b4638;}.cls-60{fill:#e4dbff;}.cls-44{fill:#aa5036;}
        </style>
        <linearGradient id="_Áåçûìÿííûé_ãðàäèåíò_22" x1="160.33" y1="765.85" x2="160.33" y2="587.83"
                        gradientUnits="userSpaceOnUse">
            <stop offset="0" stop-color="#792c27"/>
            <stop offset=".99" stop-color="#54001e"/>
        </linearGradient>
        <linearGradient id="_Áåçûìÿííûé_ãðàäèåíò_22-2" x1="341.7" y1="780" x2="341.7" y2="587.79"
                        xlink:href="#_Áåçûìÿííûé_ãðàäèåíò_22"/>
        <linearGradient id="_Áåçûìÿííûé_ãðàäèåíò_133" x1="168.48" y1="346.79" x2="168.48" y2="260.49"
                        gradientUnits="userSpaceOnUse">
            <stop offset="0" stop-color="#ffeadb"/>
            <stop offset=".99" stop-color="#c245ba"/>
        </linearGradient>
        <linearGradient id="_Áåçûìÿííûé_ãðàäèåíò_133-2" x1="306.69" y1="345.01" x2="306.69" y2="261.35"
                        xlink:href="#_Áåçûìÿííûé_ãðàäèåíò_133"/>
        <linearGradient id="_Áåçûìÿííûé_ãðàäèåíò_133-3" x1="221.62" y1="102.47" x2="221.62" y2="70.86"
                        xlink:href="#_Áåçûìÿííûé_ãðàäèåíò_133"/>
        <linearGradient id="_Áåçûìÿííûé_ãðàäèåíò_133-4" x1="226.65" y1="73.73" x2="226.65" y2="43.32"
                        xlink:href="#_Áåçûìÿííûé_ãðàäèåíò_133"/>
        <linearGradient id="_Áåçûìÿííûé_ãðàäèåíò_290" x1="229.26" y1="107.77" x2="229.26" y2="35.07"
                        gradientUnits="userSpaceOnUse">
            <stop offset="0" stop-color="#792c27"/>
            <stop offset=".99" stop-color="#70132f"/>
        </linearGradient>
        <linearGradient id="_Áåçûìÿííûé_ãðàäèåíò_133-5" x1="260.55" y1="143.68" x2="260.55" y2="72.95"
                        xlink:href="#_Áåçûìÿííûé_ãðàäèåíò_133"/>
        <linearGradient id="_Áåçûìÿííûé_ãðàäèåíò_290-2" x1="220.13" y1="73.06" x2="245.3" y2="73.06"
                        xlink:href="#_Áåçûìÿííûé_ãðàäèåíò_290"/>
        <linearGradient id="_Áåçûìÿííûé_ãðàäèåíò_290-3" x1="202.14" y1="87.09" x2="202.14" y2="76.98"
                        xlink:href="#_Áåçûìÿííûé_ãðàäèåíò_290"/>
        <linearGradient id="_Áåçûìÿííûé_ãðàäèåíò_14" x1="236.23" y1="153.02" x2="236.23" y2="86.67"
                        gradientUnits="userSpaceOnUse">
            <stop offset="0" stop-color="#83637c"/>
            <stop offset="1" stop-color="#ffeadb"/>
        </linearGradient>
        <linearGradient id="_Áåçûìÿííûé_ãðàäèåíò_4" x1="218.21" y1="113.55" x2="218.21" y2="98.33"
                        gradientUnits="userSpaceOnUse">
            <stop offset="0" stop-color="#c245ba"/>
            <stop offset="1" stop-color="#ffeadb"/>
        </linearGradient>
        <linearGradient id="_Áåçûìÿííûé_ãðàäèåíò_290-4" x1="224.46" y1="130.74" x2="224.46" y2="104.04"
                        xlink:href="#_Áåçûìÿííûé_ãðàäèåíò_290"/>
        <linearGradient id="_Áåçûìÿííûé_ãðàäèåíò_133-6" x1="278.77" y1="111.07" x2="278.77" y2="88.3"
                        xlink:href="#_Áåçûìÿííûé_ãðàäèåíò_133"/>
        <linearGradient id="_Áåçûìÿííûé_ãðàäèåíò_133-7" x1="275.26" y1="109.81" x2="275.26" y2="96.1"
                        xlink:href="#_Áåçûìÿííûé_ãðàäèåíò_133"/>
    </defs>
    <g class="cls-50">
        <g id="layer1">
            <g>
                <path class="cls-24"
                      d="m223.15,645.34c-.74,9.61-21.89,48.94-21.89,55.1,0,4.47,2.22,8.89,3.46,11.75.08.18.14.32.22.48,0,.02.02.06.02.08.34.82.58,1.48.6,1.96.14,2.1-8.35,5.77-8.35,5.77v7.63s7.75,7.87,8.35,20.42l-3.68,1.34-.86,11.45-32.1,1.1-1.84-6.15s-13.52,2.96-21.65,8.87c0,0-26.05,3.44-47.94-4.67,0,0,.74-9.59,3.7-12.78,0,0,21.51-2.46,25.07-3.94,3.58-1.48,37.94-29.59,37.94-29.59l2.96-8.29s-3.88-8.31-3.52-10.51c.38-2.22,7.21-8.49,7.21-8.49,0,0,1.86-39.13.9-70.06-.06-2.1-.14-4.17-.24-6.17-.3-6.39-.74-12.25-1.38-17.1,0,0,27.21-13.2,45.53.62,0,0,2.18,11.01,4.22,23.01,1.9,11.33,3.66,23.53,3.3,28.19Z"/>
                <path class="cls-22"
                      d="m197.2,720.47v7.63s7.75,7.87,8.35,20.42l-3.68,1.34-.86,11.45-32.1,1.1-1.84-6.15s-13.52,2.96-21.65,8.87c0,0-26.05,3.44-47.94-4.67,0,0,30.36,3.4,39.69,1.88,9.35-1.5,6.05-4.28,21.91-11.35,15.84-7.07,41.93-12.87,33.86-22.87-8.07-10.01-26.56-13.81-26.56-13.81l.75-8.44s-3.88-8.31-3.52-10.51c19.68-.64,41.33,18.82,41.33,17.4.34.82.58,1.48.6,1.96.14,2.1-8.35,5.77-8.35,5.77Z"/>
                <path class="cls-22"
                      d="m223.15,645.34c-.74,9.61-21.89,48.94-21.89,55.1,0,4.47,2.22,8.89,3.46,11.75-1.68-2.98-10.87-13.5-10.69-15.46.18-2.08,6.23-3.78,8.51-12.82,2.28-9.05,11.45-58.09,7.82-61.23-10.35-8.97-38.62-5.87-38.62-5.87-.06-2.1-.14-4.17-.24-6.17h40.88l7.48,6.53c1.9,11.33,3.66,23.53,3.3,28.19Z"/>
                <path class="cls-41"
                      d="m392.51,776.85s-24.77,4.44-54.54,2.78c0,0-7.85-10.21-12.17-11.93-4.3-1.72-13.03-1.98-13.03-1.98l-.98-6.51s-2.22-.48-2.6-1.1c-.36-.62-.12-17.28,5.75-22.71l.02-.02-.48-7.03s-5.47-3.56-5.37-5.27c.08-1.74,3.54-12.07,4.45-18.52.92-6.45-22.69-68.18-22.69-73.83,0-1.72.4-5.07.94-8.89,1.26-8.69,3.3-19.82,3.3-19.82l42.85-14.22s2.32,15.08,3.98,29.01c.1.7.18,1.4.26,2.1l.02.14c.76,6.51,1.34,12.59,1.42,16.48.24,12.55-4.2,64.98-2.84,69.6,1.36,4.61,6.33,6.27,6.51,7.37.2,1.12-3.14,7.93-3.14,7.93,0,0,7.19,18.26,16.6,25.83,9.41,7.55,24.53,8.29,27.67,10.15.48.28.9.94,1.28,1.86,2.12,5.17,2.78,18.6,2.78,18.6Z"/>
                <path class="cls-22"
                      d="m347.32,712.48c.2,1.12-3.14,7.93-3.14,7.93,0,0-26.07,10.01-29.21,14.96l-.48-7.03s-5.47-3.56-5.37-5.27c.08-1.74,3.54-12.07,4.45-18.52.92-6.45-22.69-68.18-22.69-73.83,0-1.72.4-5.07.94-8.89l50.12-5.03h.02l.24,2.1.02.14s-14.58,6.35-29.17,7.67c0,0-1.32,29.91,0,47.13,1.32,17.22,2.5,30.84,1.44,35.02-1.08,4.16-4.1,12.11-3.72,13.1.38,1.02,21.87-12.01,36.54-9.47Z"/>
                <path class="cls-22"
                      d="m392.51,776.85s-24.77,4.44-54.54,2.78c0,0-7.85-10.21-12.17-11.93-4.3-1.72-13.03-1.98-13.03-1.98l-.98-6.51s-2.22-.48-2.6-1.1c-.36-.62-.12-17.28,5.75-22.71-.22.6-4.39,11.89-2.92,14.82,1.52,3.04,6.43,2.66,13.24,4.04,6.81,1.4,1.32,7.81,12.69,10.33,11.35,2.54,45.43,1.46,51.76-6.33,2.12,5.17,2.78,18.6,2.78,18.6Z"/>
                <path class="cls-42"
                      d="m314.5,728.35s12.67-16.11,29.69-7.93l4.2,8.99s-15.59-3.86-33.41,5.96l-.48-7.03Z"/>
                <path class="cls-2"
                      d="m346.04,614.36s-8.49,5.91-18.46,7.57c-9.95,1.66-36.7,0-36.7,0-.24-3-.28-5.75-.24-8.23.18-8.65,1.66-13.92,1.66-13.92,21.89-2.78,45.67-11.99,45.67-11.99,4,4.39,6.13,13.4,7.17,19.7.66,3.98.9,6.87.9,6.87Z"/>
                <path class="cls-2"
                      d="m223.19,619.03c-14.22-7.87-53.08-4.41-53.08-4.41v-21.1c29.61-16.04,47.86,1.4,47.86,1.4,3.94,6.99,5.21,24.11,5.21,24.11Z"/>
                <path class="cls-22"
                      d="m223.19,619.03c-6.95-29.61-51.18-22.69-53.08-22.39v-3.12c29.61-16.04,47.86,1.4,47.86,1.4,3.94,6.99,5.21,24.11,5.21,24.11Z"/>
                <path class="cls-22"
                      d="m345.14,607.49s-10.65-2.36-23.77,0c-12.81,2.28-29.93,6.03-30.72,6.21.18-8.65,1.66-13.92,1.66-13.92,21.89-2.78,45.67-11.99,45.67-11.99,4,4.39,6.13,13.4,7.17,19.7Z"/>
                <path class="cls-3" d="m160.64,549.61l23.53,1.73,3.76-20.01s-26.04-3.17-27.3,18.28Z"/>
                <path class="cls-7"
                      d="m346.04,580.62c0,.38-.34.92-.92,1.54l-.02.02c-2.64,2.86-9.93,7.49-10.47,7.83l-.04.02s-2.32,2.82-5.35,6.15l-.02.04c-4.04,4.47-9.25,9.91-11.77,10.95-4.44,1.86-22.33-5.15-22.33-5.15,0,0-11.61-9.05-11.61-9.97s5.71-6.07,5.71-6.07c0,0-16.22-11.63-16.22-12.75,0-1.04,5.17-5.47,5.83-6.01l.06-.06s-26.67-81.11-30.76-99.82h-7.05s-8.71,43.05-14.94,75.71c-3.1,16.24-5.57,29.9-6.07,34.44l.02.02c.22.4,4.08,6.95,8.95,9.93,5.03,3.08-10.24,9.23-10.24,9.23,0,0-4.65-5.17-30.1-6.63,0,0-14.2,3.5-21.22,3.68,0,0-5.97-7.99-7.29-11.55-.18-.48-.28-.9-.26-1.18.18-2.4,11.25-10.51,11.99-13.08.16-.56-.44-6.99-1.1-17.52-.26-4.36-.54-9.41-.78-15.06-1.9-43.43-1.54-121.16,23.33-176.3l105.3,12.29,2.4,10.15,10.11,42.67-2.6,8.15.02.06c.64,2.2,21.12,73.45,26.91,126.95,0,0,6.43,11.67,9.23,17.84l.04.06c.76,1.7,1.26,2.96,1.26,3.44Z"/>
                <path class="cls-22" d="m278.84,567.21l-5.83,6.01c0-1.04,5.17-5.47,5.83-6.01Z"/>
                <path class="cls-22"
                      d="m344.74,577.12l-15.8-19.44s-11.35-55.58-20.94-70.84l-17.12,51.42-11.99,28.89s-26.67-81.11-30.76-99.82h-3.1l.68-47.29,55.36-38.6,10.11,42.67-2.6,8.15.02.06c.64,2.2,21.12,73.45,26.91,126.95,0,0,6.43,11.67,9.23,17.84Z"/>
                <path class="cls-22"
                      d="m346.02,580.64l-.9,1.52-.02.02c-2.64,2.86-9.93,7.49-10.47,7.83l-.04.02s-24.61,5.11-43.97-2.2c0,0-4.77,2.26-5.33,3.94-.56,1.68,10.73,11.12,30.16,8.98,9.62-1.06,13.35-4.11,13.77-4.52-4.04,4.47-9.25,9.91-11.77,10.95-4.44,1.86-22.33-5.15-22.33-5.15,0,0-11.61-9.05-11.61-9.97s5.71-6.07,5.71-6.07c0,0-16.22-11.63-16.22-12.75,0,0,28.75,14.64,46.87,14.6,17.54-.04,25.65-6.77,26.15-7.19Z"/>
                <path class="cls-22"
                      d="m170.72,548.34l-.67-13.03h0l56.09,7.73c-3.1,16.24-5.57,29.9-6.07,34.44l-2.66-11.77c-10.85-6.05-46.69-17.36-46.69-17.36Z"/>
                <path class="cls-22"
                      d="m218.8,596.66s-4.65-5.17-30.1-6.63c0,0-14.2,3.5-21.22,3.68,0,0-5.97-7.99-7.29-11.55,2.04,1.6,5.33,6.5,7.13,7.25,6.06,2.54,19.68-2.67,19.68-2.67l-6.11-4.06c14.98.24,48.14,4.75,48.14,4.75,5.03,3.08-10.24,9.23-10.24,9.23Z"/>
                <path class="cls-12"
                      d="m326.3,292.48s40.14-6.38,45.17-10.47c5.03-4.1,6.18-11.73,6.18-11.73,0,0-33.94-2.02-51.35,22.21Z"/>
                <polygon class="cls-12" points="170.6 287.43 187.39 292.48 165.94 262.2 170.6 287.43"/>
                <path class="cls-53"
                      d="m233.46,152.57s-.09,8.76-1.41,14.63c0,0-6.88,46.62,2.78,47,9.65.38,44.92-41.89,49.46-51.54,0,0-8.14-21.39-10.41-41.54l-4.54-7.29-35.87,38.74Z"/>
                <path class="cls-19"
                      d="m233.11,161.25s5,9.23,21.33,1.03c16.33-8.2,19.77-40.35,19.77-40.35l-.65-4.53h-2.12l-38.33,34.28v9.57Z"/>
                <path class="cls-22"
                      d="m278.9,567.15s25.58-63.59,29.11-80.31c3.53-16.72-6.93-72.93-6.93-72.93l-30.93,126.26,8.76,26.98Z"/>
                <path class="cls-29"
                      d="m379.54,269.78c-.76,7.57-7.53,13.56-7.53,13.56l-.94-2.42,5.57-8.73c-23.47-1.86-50.34,20.28-50.34,20.28l-3.56.44-3.46-5.69-3.7-6.09c-3,5.03-11.87,37.58-16.26,54.18-1.56,5.85-2.56,9.71-2.56,9.71-.06.04-.1.08-.16.1-25.15,16.8-101.12,9.07-101.12,9.07-1.3-5.29-2.58-13.24-3.72-21.54-2.38-17.26-4.11-36.1-4.11-36.1l-13.36-6.97.7-1.1,7.89,1.14c-14.38-22.45-43.57-29.13-43.57-29.13l-1.94,3.44-3.12-3.44s1.98-2,4.71-4.97c5.55-6.09,14.24-16.32,15.6-22.33,2.02-8.95,3.16-21.08,3.78-22.71.64-1.64,13.38-7.95,24.99-14.24,6.01-3.28,16.9-10.67,26.03-17.06.12-.08.22-.14.32-.22,5.01-3.52,9.47-6.69,12.23-8.67l2.94-2.14s1.32-5.11,1.6-5.95c.3-.86,6.65-4.73,6.65-4.73-3.5,9.91,4.24,19.22,4.24,19.22,0,0,.38,23.07,4.35,23.27,3.98.18,12.05-21.89,12.05-21.89,0,0,27.01-11.11,28.01-15.52,1.02-4.42-.74-9.49-.74-9.49h3.28s1.48,1.7,3.88,4.31c5.15,5.61,14.58,15.46,22.85,21.83,12.13,9.33,35.34,20.44,37.62,24.73,2.26,4.3,3.78,13.62,8.31,28.01,2.92,9.23,11.39,22.17,17.08,30.28,2.64,3.76,4.67,6.47,5.31,7.31l.2.26Z"/>
                <path class="cls-27"
                      d="m379.54,269.78c-.76,7.57-7.53,13.56-7.53,13.56l-.94-2.42,5.57-8.73c-23.47-1.86-50.34,20.28-50.34,20.28l-3.56.44-3.46-5.69s33.18-30.32,54.74-25.01l5.31,7.31.2.26Z"/>
                <path class="cls-38" d="m291.6,219.02l30.28-19.08s-18.67,22.39-30.28,28.45v-9.37Z"/>
                <path class="cls-21"
                      d="m313.06,270.24l2.54,10.89c-3,5.03-11.87,37.58-16.26,54.18-4.53-11.67-21.57-56.89-21.36-76.39.24-21.93,17.3-39.11,18.1-39.89-.2.92-3.68,16.76-3.18,31.02.52,14.7,8.79,28.63,8.79,28.63,1.76-9.01,13.9-27.19,13.9-27.19-1.84,4.67-2.54,18.76-2.54,18.76Z"/>
                <path class="cls-27"
                      d="m175,288.48l7.89,1.14c-14.38-22.45-43.57-29.13-43.57-29.13l-1.94,3.44-3.12-3.44s6.21-6.46,8.95-9.44c0,0,21.58,2.71,42.45,33.05l2,12.45-13.36-6.97.7-1.1Z"/>
                <path class="cls-38"
                      d="m379.54,269.78c-.76,7.57-7.53,13.56-7.53,13.56l-.94-2.42,5.57-8.73c-23.47-1.86-50.34,20.28-50.34,20.28l-3.56.44-3.46-5.69-3.7-6.09c-4.06,6.81-18.82,63.89-18.82,63.89-.06.04-.1.08-.16.1l-103.96-11.89-.88-.58c-2.38-17.26-4.11-36.1-4.11-36.1l-13.36-6.97.7-1.1,7.89,1.14c-14.38-22.45-43.57-29.13-43.57-29.13l-1.94,3.44-3.12-3.44c20.5-4.93,46.13,22.11,46.13,22.11-1.94-10.85-13.7-37.24-14.42-38.87,10.07,17.08,19.7,40.37,19.7,40.37,0,0-.18-22.27-1.56-30.8-1.38-8.51-3.92-22.13-3.92-22.13l13.12,12.31,3.34-44.67,12.73-19.64.9-1.38c-.2.38-.4.76-.58,1.16-8.31,16.82-8.35,48.44-8.35,48.44,28.65.56,75.22-27.5,76.84-28.44-25.01,20.08-70.16,38.69-70.16,38.69h49.74l30.42-23.43,17.12-23.41c-.38,1.4-13.74,49.08-12.33,60.25,1.46,11.35,8.71,27.63,8.71,27.63,7.19-19.68,17.6-36.16,17.6-36.16-4.17,6.81-5.38,29.36-5.38,29.36l7.97,15.18c14.64-20.56,25.72-25.46,25.72-25.46-7.43,3.54-16.64,22.96-16.64,22.96,26.63-15.9,48.58-14.76,48.58-14.76Z"/>
                <g>
                    <path class="cls-43"
                          d="m313.06,177.79v2.9l-2.04-1.5s-14.08,21.44-21.91,75.31c0,0,1.12,38.4,12.15,73.57l-4.47,16.94,4.3,1.78v11.75l-1.28,1.7s5.47,112.57-10.69,174.82c0,0-40.03,13-78.63,12.59-38.62-.42-47.07-12.67-49.84,1.98,0,0-12.11-118.84,31.04-198.59,0,0-.14-8.77,2.14-14.06,0,0-10.59-48.26-9.65-87.26.94-38.97,9.85-63.21,9.85-63.21,0,0,10.93-5.83,14.92-9.81l.02-.02,1.32,1.12s-12.29,21.08-12.55,53.64c0,0,16.96,5.55,31.94,4.79,14.74-.74,51.4-18.12,52.56-18.66l.02-.02s8.07-17.08,18.8-47.03l2.54-1.18s5.67,6.31,9.47,8.45Z"/>
                    <path class="cls-22"
                          d="m214.78,240.87l6.89-3.24-28.35-3.8c2.12-25.33,15.22-56.19,15.62-57.15l.02-.02,1.32,1.12s-12.29,21.08-12.55,53.64c0,0,16.96,5.55,31.94,4.79,14.74-.74,51.4-18.12,52.56-18.66-19.42,17.16-67.46,23.31-67.46,23.31Z"/>
                    <path class="cls-22"
                          d="m313.06,177.79v2.9l-2.04-1.5s-14.08,21.44-21.91,75.31c0,0,1.12,38.4,12.15,73.57l-4.47,16.94,4.3,1.78v11.75l-1.28,1.7s5.47,112.57-10.69,174.82c0,0-40.03,13-78.63,12.59-38.62-.42-47.07-12.67-49.84,1.98,1.26-14.26,13.88-9.77,46.05-4.85,32.18,4.91,77.61-13.06,77.61-13.06,15.38-32.3,12.49-168.32,12.49-168.32l-12.49,10.23c-33.92,83.66-69.8,112.25-72.02,113.95,37.14-35.06,69.98-123.9,69.98-123.9l-7.81-7.69c-25.99,14.26-69.08,22.07-69.08,22.07l6.81,20.18c-12.03-11.11-20.5-47.18-20.5-47.18l.4-6.01,1.74-8.05,56.21-29.87,30.2,1.96s4.45-42.9,5.81-57.57c2.15-23.09,20.86-71.04,22.65-72.46,1.8-1.42,4.36-1.24,4.36-1.24Z"/>
                    <path class="cls-22"
                          d="m194.26,420.04s0,68.89,24.09,88.19c0,0-21.76-9.46-24.09-19.3-2.33-9.84,0-68.89,0-68.89Z"/>
                    <path class="cls-22"
                          d="m282.26,363.65s-26.19,67.92-51.86,102.47c0,0,31.25-26.48,53.9-92.52l12.49-10.23,4.3-7.41v-9.17l-18.82,16.86Z"/>
                    <path class="cls-51"
                          d="m212.27,541.04c-1.34,0-2.7-.03-4.04-.06v-.5c1.35.04,2.71.06,4.04.06v.5Zm4.04-.03v-.5c1.32-.02,2.66-.06,4.02-.11l.02.5c-1.36.05-2.71.09-4.04.11Zm-12.11-.2c-1.36-.07-2.72-.17-4.03-.28l.04-.5c1.31.11,2.66.2,4.01.28l-.03.5Zm20.18-.1l-.03-.5c1.33-.07,2.67-.16,4.02-.27l.04.5c-1.35.1-2.7.19-4.03.27Zm-28.24-.59c-1.42-.17-2.77-.37-4-.58l.08-.5c1.23.21,2.57.41,3.98.58l-.06.5Zm36.29-.03l-.05-.5c1.33-.13,2.67-.27,4.01-.42l.06.5c-1.34.15-2.68.29-4.02.42Zm8.02-.91l-.07-.5c1.33-.18,2.66-.37,3.99-.57l.07.5c-1.33.2-2.66.39-4,.57Zm-52.28-.47c-1.45-.35-2.76-.75-3.88-1.18l.18-.47c1.11.42,2.39.81,3.83,1.16l-.12.49Zm60.26-.76l-.09-.5c1.35-.23,2.68-.48,3.96-.73l.1.5c-1.28.25-2.62.5-3.97.73Zm-87.17-1.12l-.28-.42c.71-.48,1.93-1.16,3.72-1.71l.15.48c-1.82.56-3.03,1.28-3.59,1.65Zm95.1-.44l-.11-.49c1.3-.28,2.61-.59,3.92-.91l.12.49c-1.31.32-2.63.63-3.93.92Zm-75.82-.32c-1.3-.44-2.6-.81-3.85-1.08l.11-.49c1.27.28,2.58.65,3.91,1.1l-.16.48Zm83.67-1.61l-.13-.48c1.31-.36,2.61-.74,3.87-1.12l.15.48c-1.26.39-2.57.76-3.88,1.12Zm-95.46-.04l-.05-.5c1.29-.12,2.67-.13,4.07-.02l-.04.5c-1.38-.1-2.73-.1-3.98.02Zm-8.57-.85c-.07-1.35-.14-2.69-.2-4.03l.5-.02c.06,1.34.13,2.68.2,4.03l-.5.03Zm111.75-1.48l-.16-.48c1.3-.44,2.57-.9,3.78-1.37l.18.47c-1.22.47-2.5.93-3.8,1.38Zm7.55-2.9l-.2-.46c.76-.33,1.51-.66,2.25-1.01l.15-1.29.5.06-.18,1.57-.13.06c-.78.37-1.58.72-2.39,1.08Zm-119.65-3.69c-.05-1.35-.08-2.7-.12-4.03h.5c.03,1.32.07,2.67.12,4.02l-.5.02Zm122.81-3.04l-.5-.06.45-4.02.5.06-.45,4.02Zm-123.01-5.02c-.02-1.35-.03-2.7-.03-4.04h.5c0,1.33.02,2.68.03,4.03h-.5Zm123.91-3.01l-.5-.06c.14-1.27.29-2.61.44-4.02l.5.06c-.15,1.41-.3,2.75-.44,4.02Zm-123.43-5.05h-.5c.01-1.35.03-2.7.05-4.04h.5c-.02,1.34-.04,2.69-.05,4.04Zm124.3-2.99l-.5-.06.43-4.02.5.06-.43,4.02Zm-124.16-5.06l-.5-.02c.04-1.35.08-2.69.13-4.03l.5.02c-.05,1.34-.09,2.68-.13,4.03Zm125.02-2.97l-.5-.05.42-4.02.5.05-.42,4.02Zm-124.71-5.08l-.5-.02c.06-1.35.14-2.69.21-4.03l.5.03c-.08,1.33-.15,2.68-.21,4.02Zm125.54-2.95l-.5-.05.41-4.02.5.05-.41,4.02Zm-125.08-5.09l-.5-.04c.09-1.35.19-2.69.3-4.02l.5.04c-.11,1.33-.2,2.67-.3,4.02Zm125.89-2.94l-.5-.05.4-4.02.5.05-.4,4.02Zm-125.25-5.09l-.5-.04c.12-1.35.25-2.69.38-4.02l.5.05c-.13,1.33-.26,2.67-.38,4.01Zm126.04-2.95l-.5-.05.38-4.02.5.05-.38,4.02Zm-125.24-5.07l-.5-.06c.15-1.35.3-2.68.46-4.01l.5.06c-.16,1.33-.31,2.66-.46,4Zm126-2.97l-.5-.05.37-4.02.5.05-.37,4.02Zm-125.03-5.04l-.5-.07c.18-1.34.36-2.68.55-4l.5.07c-.19,1.32-.37,2.65-.54,3.99Zm125.77-3l-.5-.04.36-4.02.5.04-.36,4.02Zm-124.64-4.98l-.5-.07c.21-1.34.42-2.67.63-3.99l.5.08c-.21,1.31-.42,2.64-.63,3.98Zm125.35-3.07l-.5-.04.35-4.02.5.04-.35,4.02Zm-124.06-4.89l-.5-.09c.23-1.34.47-2.66.71-3.97l.5.09c-.24,1.31-.48,2.63-.71,3.97Zm124.74-3.15l-.5-.04.33-4.02.5.04-.33,4.02Zm-123.27-4.78l-.49-.09c.26-1.33.53-2.65.8-3.96l.49.1c-.27,1.3-.54,2.62-.8,3.95Zm123.93-3.27l-.5-.04c.11-1.35.21-2.69.31-4.04l.5.04c-.1,1.34-.21,2.69-.31,4.04Zm-122.3-4.62l-.49-.11c.29-1.33.58-2.64.88-3.94l.49.11c-.3,1.29-.59,2.6-.88,3.93Zm122.91-3.44l-.5-.04c.1-1.34.2-2.69.29-4.03l.5.04c-.1,1.34-.19,2.68-.29,4.03Zm-121.11-4.42l-.49-.12c.32-1.32.64-2.63.96-3.92l.49.12c-.32,1.29-.64,2.59-.96,3.91Zm121.69-3.64l-.5-.04c.09-1.35.18-2.69.27-4.02l.5.03c-.09,1.34-.18,2.68-.27,4.03Zm-119.72-4.18l-.49-.13c.35-1.32.7-2.62,1.05-3.9l.49.13c-.35,1.28-.7,2.57-1.05,3.89Zm120.25-3.88l-.5-.03c.08-1.35.17-2.69.25-4.03l.5.03c-.08,1.34-.16,2.68-.25,4.03Zm-118.11-3.89l-.48-.14c.38-1.31.76-2.61,1.14-3.87l.48.14c-.38,1.27-.76,2.56-1.13,3.87Zm118.59-4.17l-.5-.03c.07-1.35.15-2.7.22-4.03l.5.03c-.07,1.33-.14,2.68-.22,4.03Zm-116.28-3.56l-.48-.15c.41-1.31.82-2.59,1.22-3.85l.48.16c-.41,1.25-.81,2.53-1.22,3.84Zm116.69-4.51l-.5-.02c.06-1.36.12-2.7.18-4.03l.5.02c-.06,1.33-.12,2.68-.18,4.03Zm-114.2-3.16l-.48-.16c.44-1.31.88-2.58,1.32-3.82l.47.17c-.43,1.24-.87,2.51-1.31,3.81Zm114.54-4.91l-.5-.02c.05-1.36.09-2.71.13-4.03l.5.02c-.04,1.32-.08,2.67-.13,4.04Zm-111.86-2.69l-.47-.17c.48-1.31.95-2.57,1.41-3.78l.47.18c-.46,1.21-.93,2.47-1.41,3.78Zm112.1-5.38h-.5c.03-1.38.05-2.73.07-4.04h.5c-.02,1.32-.04,2.67-.07,4.04Zm-109.23-2.15l-.47-.19c.52-1.31,1.03-2.56,1.52-3.74l.47.19c-.49,1.18-.99,2.42-1.51,3.74Zm109.33-5.92h-.5s0-.97,0-.97c0-1.04,0-2.06-.01-3.06h.5c.01.99.01,2.02.01,3.06v.97Zm-106.25-1.53l-.46-.2c.58-1.35,1.13-2.58,1.64-3.7l.46.21c-.5,1.11-1.05,2.34-1.63,3.69Zm3.34-7.34l-.45-.22c1.14-2.36,1.81-3.62,1.82-3.63l.44.24s-.68,1.26-1.81,3.61Z"/>
                    <g class="cls-47">
                        <path class="cls-11"
                              d="m252.49,459.02c-.82,1.73-2.04,3.43-1.45,5.4.55,1.8,2.37,3.42,3.89,4.34,2.49,1.52,7.72,3.42,10.59,3.06,7.79-.96,10.7-11.61,9.52-18.12-.75-4.12-4.07-9.38-8.91-9.12-3.28.17-5.39,2.41-7.53,4.54-1.47,1.47-3.38,2.91-4.48,4.71-1.45,2.35-2.17,5.5-2.39,8.22l.76-3.03Z"/>
                        <path class="cls-11"
                              d="m266.12,477.76c-.43.33-.9.47-1.4.44.61-.68,1.34-1.25,2.11-1.74.76-.48,1.63-1.16,2.46-.45.61.52,1.19,1.53,1.3,2.32.12.84-.34,1.54-.84,2.2-.75.98-1.74,1.52-2.96,1.09-1.58-.55-2.47-2.07-1.25-3.48l.57-.38Z"/>
                        <path class="cls-11"
                              d="m252.87,487.22c-.32.66-.51.91-.25,1.56.26.64.57.76,1.26.73,1.81-.06,3.66-.99,4.07-2.87.3-1.39-.58-2.66-2.05-2.44-.47.07-1.26.31-1.62.64-.53.48-.89,1.4-1.22,2l-.19.38Z"/>
                        <path class="cls-11"
                              d="m270.85,422.88c-.53.28-1.05.59-1.55.91-.31.48-.61.97-.9,1.47-1.42,2.43-2.58,5.09-3.42,7.78-.59,1.9-1.1,4-1.09,6,0,.88.13,2.33.91,2.93.93.71,2.41-.07,3.23-.53,1.5-.84,3.08-2.1,4.28-3.34.67-.69,1.21-1.49,1.94-2.13.53-.39,1.04-.81,1.53-1.24.52-.57,1.02-1.16,1.51-1.75,2.26-2.75,3.8-6.05,4.96-9.4.64-1.85.88-3.71.7-5.66-.09-.96-.25-2.5-1.01-3.22-1.72-1.65-5.46-.34-7.07.68-1.29.82-2.14,2.19-2.87,3.49-1.22,2.17-2.03,4.45-1.14,4.01Z"/>
                        <path class="cls-11"
                              d="m272.17,442.37c-.01-.68,0-.97.4-1.5.43-.55.93-1.07,1.68-.97,1.35.19,1.41,2.15.96,3.14-.38.85-.74,1.47-1.72,1.41-.9-.05-.95-1.18-.94-1.9l-.38-.19Z"/>
                        <path class="cls-11"
                              d="m243.29,239.83c-1.24.16-2.62.1-3.49,1.13-.8.94-1.03,2.52-1,3.69.05,1.91.87,5.47,2.09,6.92,3.31,3.94,10.2,1.75,13.36-1.22,2-1.88,3.71-5.58,1.85-8.16-1.26-1.74-3.25-2.11-5.18-2.52-1.33-.29-2.81-.82-4.19-.79-1.81.04-3.8.77-5.37,1.61l1.94-.66Z"/>
                        <path class="cls-11"
                              d="m237.84,254c-.33-.12-.58-.33-.74-.61.59.09,1.17.29,1.71.54.53.25,1.22.48,1.13,1.19-.07.52-.42,1.2-.81,1.54-.42.37-.97.36-1.51.32-.8-.06-1.46-.41-1.66-1.24-.26-1.07.26-2.1,1.47-1.93l.41.18Z"/>
                        <path class="cls-11"
                              d="m227.91,250.08c-.48.06-.68.04-.94.42-.26.37-.21.58.04.95.68.97,1.85,1.66,3.03,1.22.87-.33,1.26-1.27.61-2-.21-.23-.62-.58-.93-.66-.45-.12-1.08.01-1.54.04l-.28.03Z"/>
                        <path class="cls-11"
                              d="m269.73,237.05c-.34-.19-.7-.37-1.05-.53-.38,0-.75.01-1.13.03-1.85.08-3.72.4-5.5.89-1.26.35-2.59.82-3.69,1.54-.48.32-1.24.9-1.29,1.54-.06.76.9,1.3,1.44,1.59.99.53,2.25.95,3.36,1.16.62.12,1.25.14,1.86.31.4.15.81.28,1.23.4.5.08,1,.15,1.5.21,2.32.27,4.68-.06,6.94-.62,1.24-.31,2.36-.84,3.36-1.63.5-.39,1.29-1.03,1.41-1.7.29-1.53-1.76-3.12-2.89-3.65-.91-.42-1.97-.4-2.94-.34-1.63.1-3.17.47-2.61.8Z"/>
                        <path class="cls-11"
                              d="m259.47,244.72c.37-.25.53-.35.97-.31.45.04.92.13,1.13.58.38.81-.68,1.54-1.39,1.65-.6.09-1.07.12-1.39-.44-.29-.51.31-.94.71-1.19l-.03-.28Z"/>
                        <path class="cls-11"
                              d="m209.03,431.25c-.24.51-.68,1.01-.55,1.59.15.71.79,1.23,1.46,1.42,1.32.39,2.95-.41,3.47-1.71.38-.95.57-2.52-.43-3.21-.38-.26-1.13-.24-1.56-.16-1.09.19-1.62,1.26-2.2,2.08h-.19Z"/>
                        <path class="cls-11"
                              d="m181.52,406.79c-.6,3.43-.83,6.8-.37,10.29.27,2.04.67,4.35,1.78,6.14.51.83,1.1,1.65,2.21,1.61,1.04-.04,2.36-1.03,3.02-1.75.66-.72,1.12-1.6,1.56-2.46,1.13-2.22,1.8-4.61,2.61-6.96.43-1.27.67-2.58.96-3.89.41-1.85.95-3.87.88-5.78-.1-2.72-1.35-6.19-4.26-7.07-2.3-.7-4.67.56-6.09,2.33-1.05,1.31-1.57,3.13-2.04,4.72-.42,1.59-.69,3.21-.81,4.85-.1,1.69.08,3.35.56,4.98v-7Z"/>
                        <path class="cls-11"
                              d="m180.2,428.93c-.43-.29-1-.57-1.29-1.03-.22-.36-.34-.89-.47-1.29-.29-.85-.53-1.82-.2-2.7.18-.5.61-1.01,1.18-1.05.55-.04,1.18.58,1.55.94.86.83,1.31,2.39,1.31,3.54,0,.41,0,.68-.27,1.01-.23.27-.78.46-.87.76l-.95-.19Z"/>
                        <path class="cls-11"
                              d="m189.47,439.34c-.47-.29-1.49-.6-1.53-1.3-.03-.39.21-1,.38-1.33.46-.91,1.38-.91,2.06-.27.65.61.95,1.5.75,2.38-.11.48-.77,1.32-1.29.7l-.38-.19Z"/>
                    </g>
                    <path class="cls-22"
                          d="m191.68,351.02s3.84,18.55,13.68,27.01c29.08-2.84,91.41-33.02,91.41-33.02l4.47-16.94-53.16-20.97-54.28,29.86-2.14,14.06Z"/>
                    <path class="cls-22"
                          d="m247.85,535.31s15.53-7.9,22.29-16.42c6.76-8.52,16.04-54.76,16.04-54.76,0,0-14.2,50.59-38.33,71.18Z"/>
                </g>
                <g>
                    <path class="cls-44"
                          d="m255.27,352.54c-15.64,15.14-55.52,7.81-55.52,7.81-2.24-5.65-4.08-12.31-5.57-19.36h-.02c-6.27-29.45-6.77-65.92-6.77-65.92,17-3.26,31.02-4.67,41.69-5.19,15.78-.8,24.25.36,24.25.36,8.69,30.74,1.94,82.3,1.94,82.3Z"/>
                    <path class="cls-59"
                          d="m205.54,361.29c-10.76-35.43-8.91-87.4-8.89-87.92l.5.02c-.02.52-1.87,52.41,8.87,87.76l-.48.15Z"/>
                    <rect class="cls-59" x="221.3" y="270.52" width=".5" height="91.94"
                          transform="translate(-36.41 28.9) rotate(-6.9)"/>
                    <path class="cls-59"
                          d="m245.97,358.42l-.49-.12c7.02-29.43-3.91-89.73-4.02-90.34l.5-.09c.11.61,11.06,61.02,4.02,90.55Z"/>
                    <path class="cls-22"
                          d="m253.33,270.24s-8.47-1.16-24.25-.36c2.3,2.98,25.39,28.9,25.39,49.36,0,16.75-11.64,22.9-24.69,24.57,2.02-13.97-3.2-36.87-10.01-43.63-12.95-5.18-31.05.7-31.05.7-.13,15.31,3.82,33.77,6.37,44.09.57,2.39,1.17,4.72,1.83,6.96.19.67.3,1.04.3,1.04h.02c.78,2.58,1.61,5.08,2.52,7.37,0,0,39.87,7.33,55.52-7.81,0,0,6.75-51.56-1.94-82.3Z"/>
                </g>
                <path class="cls-27"
                      d="m287.19,169.33c-1.26,2.78-23.73,12.51-25.87,15.14-2.14,2.66-15.81,28.64-22.08,29.72-6.29,1.06-9.27-34.01-9.27-34.01,0,0-6.07-6.33-8.05-9.91l2.94-2.14s1.32-5.11,1.6-5.95c.3-.86,6.65-4.73,6.65-4.73-3.5,9.91,4.24,19.22,4.24,19.22,0,0,.38,23.07,4.35,23.27,3.98.18,12.05-21.89,12.05-21.89,0,0,27.01-11.11,28.01-15.52,1.02-4.42-.74-9.49-.74-9.49h3.28s1.48,1.7,3.88,4.31c0,0,.28,9.21-.98,11.99Z"/>
                <path class="cls-16" d="m237.35,176.66s-6.43-7.89-9.27-13.25l5.03-5.96s-.87,11.01,4.24,19.21Z"/>
                <g>
                    <path class="cls-54"
                          d="m224.19,320.12l-2.96.38c1.7,3.28,0,7.57,0,7.57-4.99,2.02-21.67,1.88-21.67,1.88l-.12,3.28,15.66.98h.2l1.52.1c2.4,2.02,1,6.49,1,6.49-1,1.22-3.4,2.06-6.25,2.64l-.08.02s-.06,0-.1,0c-6.17,1.2-14.24,1.16-14.24,1.16,0,0-1.24,2.18-2.38,2.18s-15.82-2.58-30.84-8.39c-15-5.79-47.21-20.94-47.96-24.81-.76-3.88.46-10.51,2.36-17.14,1.9-6.61,3.42-8.89,10.03-18.36,6.63-9.45,10.99-17.6,10.99-17.6,28.51,7.65,38.85,23.03,38.85,23.03,0,0-11.67,17.86-11.35,19.44.3,1.58,2.76,9.53,4.1,10.53,1.32,1.02,4.16,2.6,4.16,2.6,7.25-9.65,18.8-19.34,24.19-21.5.42-.2.8-.32,1.14-.38.02-.02.04-.02.04-.02,4.65-1.02,17.74,3.6,19.32,5.99,1.58,2.4-.7,6.93-2.02,7.37-1.32.44-6.39-1.32-11.45-.56-5.03.76-10.85,3.02-10.85,3.02,7.95-.24,28.73.76,28.73.76,2.9,4.93,0,9.35,0,9.35Z"/>
                    <path class="cls-1"
                          d="m195.44,342.53c1.58,1.94,14.26,1.04,15.94.92-6.17,1.2-14.24,1.16-14.24,1.16,0,0-1.24,2.18-2.38,2.18s-15.82-2.58-30.84-8.39c-15-5.79-47.21-20.94-47.96-24.81-.76-3.88.46-10.51,2.36-17.14,1.9-6.61,3.42-8.89,10.03-18.36,6.63-9.45,10.99-17.6,10.99-17.6,28.51,7.65,38.85,23.03,38.85,23.03,0,0-11.67,17.86-11.35,19.44,0,0-5.55-10.73-12.63-14.26-7.07-3.54-24.99,1.06-30.29,7.85-5.29,6.79-6.31,13.09-3.54,17.26,2.78,4.16,35.08,19.68,43.67,18.54,8.57-1.14,11.03-16.26,11.03-16.26,7.25-9.65,18.8-19.34,24.19-21.5l1.14-.38c-.5.28-5.17,3.14-3.38,12.47,0,0,8.61-.86,12.11-.86s8.61,1.74,8.61,1.74c-1.32.44-6.39-1.32-11.45-.56-5.03.76-10.85,3.02-10.85,3.02,0,0-2.86,4.79-.88,10.87,0,0-1.42,2.64-.56,6.43,0,0,9.27,4.35,27.21.76-4.99,2.02-21.67,1.88-21.67,1.88l-.12,3.28,15.66.98c-2.12-.06-19.92-.44-20.8,0-.96.48-.58,6.25,1.14,8.33Z"/>
                    <path class="cls-6"
                          d="m166.83,302.96s-6.69-16.57-20.13-15.47c0,0,14.31-3.97,21.77,11.75l-1.64,3.71Z"/>
                    <path class="cls-6"
                          d="m192.08,311s3.08-2.63,3.38-2.96c.3-.33,9.91-.95,9.91-.95,0,0-9.05,2.37-13.29,3.9Z"/>
                    <path class="cls-6" d="m199.55,329.95s-4.41-.24-5.02,0c-.61.24,0,3.13,0,3.13l4.9.15.12-3.28Z"/>
                    <path class="cls-6" d="m221.23,320.5l-20.88-.58s18.27,1.35,21.14,1.15l-.26-.57Z"/>
                    <path class="cls-30"
                          d="m223.47,311.66s-5.87-.06-6.43,1.39-1.26,4.73,0,5.55c1.26.82,6.43.63,6.43.63,0,0,1.32-3.47,0-7.57Z"/>
                    <path class="cls-30"
                          d="m219.77,300.18s-4.25-2.47-5.89-1.83c-1.64.63-1.96,3.73-1.51,4.61.44.88,5.24,2.96,5.24,2.96,0,0,2.8-1.49,2.16-5.74Z"/>
                    <path class="cls-30"
                          d="m215.11,322.29s-.88,4.02,1.21,5.16,4.51.33,4.51.33c0,0,1.53-3.36.65-6.2,0,0-4.86-.66-6.37.71Z"/>
                    <path class="cls-30"
                          d="m211.66,335.39s-1.26,2.51.53,5.68l4.96-.8s.05-4.31-.52-4.87c-.57-.57-4.97,0-4.97,0Z"/>
                    <path class="cls-19"
                          d="m138.36,262.2s25.31,8.85,35.34,28.33l4.48-7.01s-10.84-17.55-38.85-23.03l-.97,1.71Z"/>
                </g>
                <g>
                    <path class="cls-54"
                          d="m378.53,309.35c.38,14.04-5.91,32.84-9.27,34.36-3.34,1.5-28.19,3.54-53.18-5.81-24.97-9.33-42.39-26.37-44.41-27.13-2.02-.76-13.38-.12-14-1.76-.64-1.64-9.53-34.8-10.95-36.32-1.42-1.5-11.89-1.42-11.89-1.42.06-.52.14-1.04.24-1.52l.04-.24.26-1.16.02-.08c.68-2.58,1.58-4.2,1.58-4.2l-2.14-1.12c5.93-1.78,23.91-2.18,24.85-1.62l.36.38.02.04c1.46,1.94,5.47,9.97,8.79,16.62,3.7,7.37,11.09,15.98,11.09,15.98,2.88.54,6.73.76,10.99.76,15.1,0,35.38-2.66,35.38-2.66,31.4-22.51,41.29-19.74,41.29-19.74,0,0,10.55,22.59,10.93,36.62Z"/>
                    <path class="cls-25"
                          d="m378.53,309.35c.38,14.04-5.91,32.84-9.27,34.36-3.34,1.5-28.19,3.54-53.18-5.81-24.97-9.33-42.39-26.37-44.41-27.13-2.02-.76-13.38-.12-14-1.76-.64-1.64-9.53-34.8-10.95-36.32-1.42-1.5-11.89-1.42-11.89-1.42.06-.52.14-1.04.24-1.52l.04-.24.26-1.16.02-.08s10.57-.52,12.96-.98c2.42-.44,4.56-2.54,4.56-2.54,2.46-.3,2.8-1.8,2.8-1.8,1.62.18,3.98-1.62,3.98-1.62l.36.38.02.04c1.46,1.94,5.47,9.97,8.79,16.62,3.7,7.37,11.09,15.98,11.09,15.98-4.61,1.26-8.91,12.78-8.23,13.16.66.38,27.91,26.75,53.08,30.56,25.17,3.84,43.15-1.52,43.91-4.87.76-3.36-3.22-27.69-14.2-34.98-10.97-7.29-28.19-5.77-28.19-5.77,31.4-22.51,41.29-19.74,41.29-19.74,0,0,10.55,22.59,10.93,36.62Z"/>
                    <path class="cls-19"
                          d="m331.03,292.48s20.37-15.98,37.86-16.84l-1.35-3.14s-17.1-.67-41.23,19.97h4.73Z"/>
                    <path class="cls-6"
                          d="m236.97,264.08s14.55.55,15.34,1.2c.79.65,2.17,7.75,2.17,7.75,0,0-.77-7.08-1.57-8.27-.8-1.19-15.94-.68-15.94-.68Z"/>
                    <path class="cls-6" d="m271.67,310.77s53.3,39.7,97.59,32.94c0,0-44.34,14.11-97.59-32.94Z"/>
                </g>
                <path class="cls-16" d="m234.57,173.1s1.4,24.89,7.14,26.84c0,0-4.35-3.47-4.35-23.28l-2.78-3.56Z"/>
                <path class="cls-38" d="m375.28,263.98s-26.4-26.25-32.2-37.35l16.94,12.72s8.35,15.81,15.26,24.63Z"/>
                <path class="cls-57"
                      d="m314.04,275.54c-2.37-23.18,7.13-41.48,15.51-52.75,9.08-12.2,18.85-19.02,18.95-19.08l.29.42c-.1.07-9.81,6.84-18.84,18.98-8.32,11.19-17.75,29.36-15.4,52.38l-.5.05Z"/>
                <path class="cls-57"
                      d="m183.93,249.8c-9.88-27.48-25.56-39.01-25.72-39.12l.3-.41c.16.11,15.96,11.72,25.9,39.36l-.47.17Z"/>
                <path class="cls-26"
                      d="m319.29,259.68s-.43-15.52,7.01-23.59c7.44-8.08,13.75,7.44,12.86,16.78s-14.89,16.52-17.29,15.64c-2.4-.88-2.59-8.83-2.59-8.83Z"/>
                <path class="cls-26"
                      d="m341.66,256.86c-3.28-3.28-.44-10.37,1.42-11.03,1.86-.66,5.47,5.02,4.52,7.1-.95,2.08-4.59,5.29-5.94,3.94Z"/>
                <path class="cls-19"
                      d="m319.29,259.68s.43-16.31,7.01-20.69c6.58-4.38,11.01,2,11.01,2,0,0-2.42-9.16-8.04-7.16-5.62,2-9.66,12.47-9.98,25.85Z"/>
                <path class="cls-43"
                      d="m201.87,749.86l-.86,11.45-32.1,1.1-1.84-6.15s-13.52,2.96-21.65,8.87c0,0-26.05,3.44-47.94-4.67,0,0,16.62,2.46,34.64,2.24,18.02-.2,14.62-1.56,28.22-6.75,13.6-5.21,41.54-6.07,41.54-6.07Z"/>
                <path class="cls-19" d="m347.6,251.48s-5.02-5.48-7.35,0c0,0,2.94-14.07,7.35,0Z"/>
                <g>
                    <path class="cls-26"
                          d="m280.93,198.15c-1.63,3.82-5.49,9.69-7.97,10.86-3.38,1.61-15.93,5.81-17.17,6.25,1.7-.43,22.64-5.84,13.42.77-9.62,6.88-32.02,9.69-31.05,7.85,3.13-5.92,42.04-30.16,43.38-28.99.4.36.11,1.63-.62,3.26Z"/>
                    <path class="cls-26"
                          d="m283.85,207.73c-.29,1.53-2.74,4.26-4.88,5.15-1.63.66-3.71.18-5.05-.41-.97-.46-1.59-.97-1.37-1.17,1.21-1.12,9.2-5.3,10.88-4.59.4.18.51.54.42,1.02Z"/>
                    <path class="cls-19"
                          d="m280.93,198.15c-17.68,4.36-42.77,25.73-42.77,25.73,3.13-5.92,42.04-30.16,43.38-28.99.4.36.11,1.63-.62,3.26Z"/>
                    <path class="cls-19"
                          d="m283.85,207.73c-6-1.35-9.91,4.72-9.91,4.72l-.02.03c-.97-.46-1.59-.97-1.37-1.17,1.21-1.12,9.2-5.3,10.88-4.59.4.18.51.54.42,1.02Z"/>
                </g>
                <path class="cls-22"
                      d="m170.72,548.34s42.16,13.86,50.8,19.8l3.84-20.96s-17.33,1.22-28.71-.25c-11.37-1.47-25.93-4.19-25.93-4.19v5.6Z"/>
                <path class="cls-22" d="m294.29,568.14s8.11-8.91,8.35-12.7c.24-3.79,0-32.26,0-32.26l-8.35,44.96Z"/>
                <path class="cls-42" d="m164.18,714.15s20.47,2.46,33.02,13.96v-7.62s-7.01-11.5-30.06-14.63l-2.95,8.3Z"/>
                <path class="cls-43" d="m311.8,759.21s14.27,5.7,17.35,10.75l-16.37-4.24-.98-6.51Z"/>
                <path class="cls-43" d="m337.97,779.63s35.08,6.37,54.54-2.78c0,0-34.41,3.35-54.54,2.78Z"/>
                <path class="cls-5"
                      d="m132.57,752.6s3.25-.5,9.14-2.84c5.89-2.34,13.37-3.63,13.37-3.63,0,0-6.34,4.25-11.25,6.47-4.91,2.22-11.26,0-11.26,0Z"/>
                <path class="cls-5"
                      d="m331.45,753.31s-.92,5.38,2.8,8.33c3.72,2.94,14.15,1.51,14.15,1.51,0,0-11.68-2.4-16.95-9.84Z"/>
                <path class="cls-5"
                      d="m337.91,711.03s-3.88-2.53-6.53-1.31c-2.65,1.22-3.44,3.16-3.44,3.16,0,0,4.99-.91,9.97-1.85Z"/>
                <g>
                    <path class="cls-37"
                          d="m193.33,273.99l11.22-10.77,3.66,1.01s4.67-8.58,5.8-8.71c1.14-.13,12.49,6.69,12.49,6.69l3.18-1.7,7.3,3.6s-1.44,2.97-1.89,5.55l9.83-1.96s2.64-.26,5.11,2.24c0,0-.58,6.56-1.66,9.59-1.08,3.03-16.03,12.49-17.92,12.96-1.89.47-18.26-20.16-18.26-20.16,0,0-7.62-.47-18.85,1.66Z"/>
                    <path class="cls-22"
                          d="m250.03,269.93s-2.58,9.58-6.18,11.43c-3.6,1.85-29.66-10.31-29.66-10.31l-15.47-.19,5.82-7.64-11.22,10.77,18.86-.61,9.04,17.16,13.6,15.38,14.89-24.56.3-11.43Z"/>
                    <path class="cls-22"
                          d="m235.09,269.65l-5.22,1.21-10.01-2.35s10.11-5.3,11.81-5.3,5.3.88,5.3.88l-1.89,5.55Z"/>
                    <path class="cls-22"
                          d="m226.5,262.2s-5.36,2.28-10.17,5.71c0,0,.74-9.78-2.32-12.4,0,0,5.33,1.89,12.49,6.69Z"/>
                </g>
                <path class="cls-32"
                      d="m214.42,175.62s13.56,31.77,30.48,28.29c16.93-3.47,43.87-21.95,54.31-35.17l-14.91-15.71h-3.28s-6.21-18.07-7.16-33.53l-21.62,6.11-18.78,26.94-.35,4.88-6.65,4.73-1.6,5.95-10.45,7.49Z"/>
                <path class="cls-54"
                      d="m271.11,119.17c-.04.32-.06.62-.1.92-.36,3.06-.94,5.61-1.86,7.49-2.76,5.69-5.01,6.87-9.97,11.61-5.45,5.19-12.03,9.31-16.06,10.69-4.04,1.4-14.48,3.42-16.18,3.12-1.7-.28-10.19-7.73-13.94-15.3-1-2-4.97-11.57-6.77-15.16-.92-1.84-3.04-5.87-4.87-9.77l-.02-.02c-1.76-3.7-3.28-7.27-3.28-8.67-.02-1.92.9-2.78,1.62-3.8.34-.48.66-1,.78-1.68.38-2.1,0-10.33,0-10.33,0,0-1.72-1.88-2.76-3.22-1.04-1.32-2.46-3.5-2.18-5.57.14-.98.76-1.7,1.42-2.26.74-.68,1.52-1.16,1.72-1.72.08-.2.12-.86.14-1.78.12-3.72.04-11.85,1.08-13.78,6.47-12.01,19.94-15.92,32.06-16.62,11.93-.68,22.51,1.74,23.83,2.62,2.66,1.78,9.09,12.88,11.61,26.75,2.02,11.07,5.07,32.94,3.74,46.49Z"/>
                <path class="cls-31"
                      d="m245.3,76.36s4.81,5.74.95,11.25c-10.02,3.83-15.78,8.23-19.31,6.11-3.54-2.12-10.61-11.69-10.61-11.69-2.58-.12-7.07,4.22-7.07,4.22,0,0,.4,9.97-.48,12.23-.9,2.26-2.34,4-4.47,4-2.16.02-4.63-2.2-4.63-2.2.34-.48.66-1,.78-1.68.38-2.1,0-10.33,0-10.33,0,0-1.72-1.88-2.76-3.22-1.04-1.32-2.46-3.5-2.18-5.57.14-.98.76-1.7,1.42-2.26l6.45.84s6.45.44,9.05-1.08c2.58-1.52,7.19-4.97,7.19-4.97,0,0,5.29-1.3,12.11-1.14,6.83.16,13.56,5.49,13.56,5.49Z"/>
                <path class="cls-13"
                      d="m249.28,61.46s.34-6.77-8.39-7.57c-8.75-.78-18.56,2.34-30.16,11.87-5.77,4.73-9.57,6.93-11.93,7.97.12-3.72.04-11.85,1.08-13.78,6.47-12.01,19.94-15.92,32.06-16.62l22.57,10.45-5.23,7.69Z"/>
                <path class="cls-48"
                      d="m266.86,107.77s-4.51-1.12-6.41-5.29c0,0,.24-5.05,1.54-13.3,2.52-16.1-4.81-17.74-13.03-22.27,0,0,2.28-10.71-4.41-15.24-.06-.06-.16-.14-.26-.18-.92-.62-2.04-1.1-3.34-1.42-11.01-2.76-14.06,2.96-28.21,8.13-7.29,2.68-11.71,13.03-13.56,14.56l-.02.02-.34.18c-1.58.26-12.81-5.93-13.18-16.78,0,0,5.59,2.14,9.87.5,4.26-1.64,6.77-15.52,17-21.32,0,0,8.71-.64,12.61,0,3.92.62,9.47,2.96,14,5.05,6.19,2.84,17.08,1.04,21.06,3.88,3.97,2.84,11.67,34.52,12.73,42.39,0,0-7.45,11.71-6.03,21.1Z"/>
                <path class="cls-10"
                      d="m259.52,73.73s.04,10.51-1.48,13.89c-1.51,3.37-7.96,10.5-7.96,10.5,0,0,1.4,18.49,2.78,28.46,1.39,9.97-1.25,17.11-1.25,17.11,0,0,13.31-9.37,19.39-23.58l-3.76-35.29-1.5-11.85-6.24.78Z"/>
                <path class="cls-56"
                      d="m220.13,71.42s1.45,4.93,5.24,5.82c0,0,11.86-2.52,19.93-.88,0,0-.19-4.45-3.69-6.53,0,0-8.15-2.93-18.45,1.59l1.04,2.57s-1.14-.74-2.37-2.57h-1.7Z"/>
                <path class="cls-55"
                      d="m206.79,78.69s2.22,2.07,2.46,4.73c.18,2.01-.22,3.67-.22,3.67,0,0-.96-1.47-4.94-1.84-2.28-.22-5.38,1.01-5.38,1.01,0,0-5.34-2.87-3.22-9.05,0,0,4.77-1.07,9.06,1.45l2.21,3.85-1.26-3.97,1.29.16Z"/>
                <path class="cls-60"
                      d="m227.11,92.16c.99.58,3.86.99,7.42-.36,3.56-1.35,5.86-5.24,5.71-6.27-.15-1.03-7.15-4.99-12.12-3.32-4.13,1.39-1.01,9.95-1.01,9.95Z"/>
                <path class="cls-28"
                      d="m239.46,84.68s-5.14-4.67-12.64-3.85c0,0-.93,2.86-.83,4.98,0,0,0-5.17,13.47-1.13Z"/>
                <path class="cls-33"
                      d="m228.39,92.57s2.03,1.19,4.72.43c2.68-.76,5.51-3.69,6.63-5.92,0,0-4.92,6.94-11.34,5.48Z"/>
                <path class="cls-60"
                      d="m209.29,92.38s0,.25-.02.67c0,1.41-.12,4.62-.49,5.43-.84,1.78-5.61,2.99-6.67,1.06-.74-1.36-1.21-6.4-.77-9.48.2-1.31.54-2.25,1.11-2.4,1.88-.52,6.62,3.04,6.84,4.72Z"/>
                <path class="cls-45"
                      d="m271.11,119.17c-.34,3.46-.96,6.35-1.96,8.41-2.76,5.69-5.01,6.87-9.97,11.61-5.45,5.19-12.03,9.31-16.06,10.69-4.04,1.4-14.48,3.42-16.18,3.12-1.7-.28-10.19-7.73-13.94-15.3-1-2-4.97-11.57-6.77-15.16-.92-1.84-3.04-5.87-4.87-9.77.42.4,6.85,6.61,12.45,13.74,5.77,7.39,17.12-2.84,23.55-14.48,6.43-11.63,28.41-25.35,28.41-25.35,0,0,1.08,18.84,5.35,32.5Z"/>
                <path class="cls-28"
                      d="m209.29,92.38s0,.25-.02.67c-2-3.23-7.9-2.96-7.9-2.96l-.02-.02c.2-1.31.54-2.25,1.11-2.4,1.88-.52,6.62,3.04,6.84,4.72Z"/>
                <path class="cls-33"
                      d="m202.41,99.92s.74,1.67,2.58,1.63c1.84-.03,3.42-2.57,3.42-2.57,0,0-3.21,2.8-6,.93Z"/>
                <path class="cls-58"
                      d="m225.98,86.67s-1.69-.7-1.94-1.14c-.25-.44,4.37-5.05,15.42-.85,0,0-7.62-2.93-13.42.54l-.06,1.45Z"/>
                <path class="cls-58"
                      d="m209.27,93.05s-1.06-2.15-5.16-3.35c-4.1-1.2-4.84-.02-4.77.24.07.26,1.92.92,1.92.92l.09-.53s3.95-.77,7.93,2.72Z"/>
                <path class="cls-35"
                      d="m229.26,109.9s-1.7-7.49-5.22-8.82c-3.52-1.32-5.04-1.47-6.43-2.09-1.39-.62-6.85-1.55-9.19,1.28-2.35,2.83-.65,12.86-.65,12.86,0,0,.06,1.32,6.65-.76,6.59-2.08,14.84-2.48,14.84-2.48Z"/>
                <path class="cls-58"
                      d="m204.3,90.48s.29,8.05,3.1,8.11c2,.04,1.87-5.54,1.87-5.54,0,0-2.63-2.92-4.97-2.57Z"/>
                <path class="cls-58"
                      d="m229.65,83.84s-.19,6.1,4.41,6.61c4.6.5,5.39-5.77,5.39-5.77,0,0-6.19-2.22-9.81-.84Z"/>
                <path class="cls-46" d="m230.81,86.93c0,.38-.3.68-.68.68s-.68-.31-.68-.68.31-.68.68-.68.68.31.68.68Z"/>
                <path class="cls-46" d="m204.98,93.73c0,.38-.31.68-.68.68s-.68-.3-.68-.68.31-.68.68-.68.68.31.68.68Z"/>
                <path class="cls-17"
                      d="m207.76,113.13s2.46-.06,6.31-1.96c3.85-1.89,6.94-3.79,13.63-4.42,0,0,.06-2.83-2.14-4.28,0,0,4.12,2.31,3.7,7.42,0,0-4.18,1.64-6.26,2.33-2.08.69-3.46,2.34-4.57,2.83-2.98,1.32-9.64-.77-10.66-1.92Z"/>
                <path class="cls-23"
                      d="m220.41,112.37s.44-1.78,2.08-2.95c1.64-1.18,3.94-.48,3.94-.48,0,0-4.57,1.26-6.02,3.44Z"/>
                <path class="cls-23"
                      d="m208.72,113.02s2.83-.07,5.23-.93c2.4-.85,4.14-2.62,6.17-3.71,0,0-3.3,1.31-6.77,3.11-3.47,1.8-4.63,1.52-4.63,1.52Z"/>
                <path class="cls-36"
                      d="m216.91,107.01c-.43-.18.06-1.99.98-2.4.91-.41,2.9.82,3,1.33.09.5-2.68,1.61-3.97,1.07Z"/>
                <path class="cls-36" d="m216.75,97.08s-.28-8.69.85-11.27c0,0-.06,8.9-.85,11.27Z"/>
                <path class="cls-18"
                      d="m213.79,123.84s2.38,4.79,2.96,5.22c.58.43,3.37-.26,3.37-.26,0,0,9.59-2.34,10.43-3.44.84-1.1,5.18-7,6.03-10.71,0,0-10.39,10.22-22.8,9.2Z"/>
                <path class="cls-34"
                      d="m212.56,123.1c3.6,2.32,2.49-.94,4.2-1.17.41-.06,3,.28,5.39-.54,2.4-.82,2.51-1.08,4.29-2.27,1.78-1.19,4.37-1.33,10.16-4.48,0,0-5.87,5.99-16.18,9.12-5.56,1.68-7.85-.66-7.85-.66Z"/>
                <path class="cls-9"
                      d="m220.13,128.8s4.6-2.21,9.24-3.28c0,0,2.64-2.14,4.43-5.27,0,0-2,4.13-4.43,6.4,0,0-3.56.13-9.24,2.15Z"/>
                <path class="cls-49"
                      d="m250.73,106.89c-2.38,8.71-12.57,11.35-12.57,11.35,0,0-2.02-2.58-3.62-1.82-16.42,7.93-20.76,7.43-20.76,7.43-4.47,1.58-4.55,6.89-4.55,6.89-7.49-.78-10.85-8.41-11.05-8.89,2.84,3.58,8.19,3.84,8.19,3.84.5-5.17,4.55-11.21,4.55-11.21l4.77.54c2.72-.52,11.05-4.53,11.05-4.53,6.75-7.91,11.03-6.31,11.03-6.31l-2.2,1.2.02.02c1.76.4,5.97,6.03,5.97,6.03,2.14-.42,8.71-4.28,9.13-4.51.02,0,.02-.02.02-.02Z"/>
                <g>
                    <path class="cls-54"
                          d="m264.86,97.63s1.77-11.63,8.75-13.81c6.49-2.03,12.15,1.11,13.15,2.33s4.96,11.08.62,21.26c-3.43,8.04-10.85,12.45-15.47,12.44-3.36,0-4.93-3.56-4.93-3.56,0,0-3.61-12.98-2.11-18.66Z"/>
                    <path class="cls-14"
                          d="m270.78,105.18s1.93-14.71,5.74-16.22c3.81-1.5,7.01-.32,8.61,2.2,1.6,2.52,2.67,12.13,0,16.38,0,0,1.57-12.22-.71-15.16-2.28-2.94-7.33-1.15-8.75,0-1.42,1.15,2.13,3.46,4.34,8.83,2.21,5.37-.28,9.57-2.42,9.82-2.13.24-2.92-.85-2.35-3.54.57-2.68-2.09-4.88-4.46-2.32Z"/>
                    <path class="cls-20"
                          d="m271.13,102.94s.91-6.29,2.19-6.78c1.28-.49,5.56,2.47,6.33,7.19.77,4.72-3.95,7.15-4.26,6.3-.31-.86-1.03-8.48-4.61-4.46l.35-2.25Z"/>
                </g>
                <path class="cls-6"
                      d="m271.01,120.09c-.36,3.06-.94,5.61-1.86,7.49-2.76,5.69-5.01,6.87-9.97,11.61-5.45,5.19-12.03,9.31-16.06,10.69-4.04,1.4-14.48,3.42-16.18,3.12,0,0,10.73-1.2,23.79-8.77,12.13-7.03,19.32-22.05,20.28-24.13Z"/>
                <path class="cls-15"
                      d="m244.12,51.35c-6.73-4.04-20.66-18.02-28.73-13.22-8.07,4.79-16.58,34.82-16.58,34.82l.34-.18.02-.02c1.86-1.54,6.27-11.89,13.56-14.56,14.14-5.17,17.2-10.89,28.21-8.13,1.26.32,2.36.78,3.26,1.36-.02-.02-.04-.04-.08-.06Zm-34.22,5.83c6.07-11.87,16.02-8.15,16.02-8.15-5.79,5.93-16.02,8.15-16.02,8.15Z"/>
                <path class="cls-8" d="m248.53,57.19s5.7,8.19,20.1,10.15l1.44,5.73s-11.37-1.5-20.78-11.59l-.76-4.28Z"/>
                <path class="cls-8" d="m246.82,53.83s12.4,4.12,18.94,3.36l-1.08-3.36s-5.62,2.93-18.72-.99l.85.99Z"/>
                <path class="cls-15"
                      d="m250.73,106.89c-2.38,8.71-12.57,11.35-12.57,11.35,0,0-2.02-2.58-3.62-1.82-16.42,7.93-20.76,7.43-20.76,7.43-4.47,1.58-4.55,6.89-4.55,6.89,0,0-.28-4.67,3.32-8.27l1.86-6.55-.62,6.55s11.07-1.64,16.32-4.89l-3.16-6.51,4.39,5.97s1.96-.74,4.36-3.5c2.3-2.62.08-7.71-.1-8.15l-.02-.02,5.69,1.2.3,4.85-2.12,4.99c.16,0,6.65-.06,11.25-9.51.02,0,.02-.02.02-.02Z"/>
                <path class="cls-36"
                      d="m245.74,98.35s-.55-3.21,0-3.63c.55-.42,3.48-1.33,4.16-.6.67.73-2.15,4.48-4.16,4.23Z"/>
                <path class="cls-39"
                      d="m389.73,758.25c-.38-.92-.8-1.58-1.28-1.86-3.14-1.86-18.26-2.6-27.67-10.15-5.02-4.04-9.39-11.1-12.39-16.83h0s-4.2-8.99-4.2-8.99c0,0,0,0,0,0h0s3.34-6.81,3.14-7.93c-.18-1.1-5.15-2.76-6.51-7.37-1.36-4.61,3.08-57.05,2.84-69.6-.08-3.9-.66-9.97-1.42-16.48l-.02-.14-.24-2.1h-.02s0,0,0-.01c2.51-1.35,4.1-2.43,4.1-2.43,0,0-.24-2.9-.9-6.87-1.04-6.29-3.17-15.29-7.17-19.69,2.45-1.67,5.58-3.95,7.13-5.62l.02-.02c.58-.62.92-1.16.92-1.54,0-.48-.5-1.74-1.26-3.44l-.04-.06c-2.8-6.17-9.23-17.84-9.23-17.84-5.79-53.5-26.27-124.76-26.91-126.95l-.02-.06,2.6-8.15-10.11-42.67-.68-2.88c-.26-11.38-.6-18.33-.6-18.33l1.28-1.7v-11.75l-4.29-1.78,3.58-13.54c.02-.07.04-.14.06-.21,33.07,18.2,58.94,14.67,66.55,13.02,1.09-.18,1.87-.38,2.3-.58,3.36-1.52,9.65-20.32,9.27-34.36-.21-7.86-3.62-18.4-6.57-26.16l.06.15s6.77-5.99,7.53-13.56l-.2-.26-5.31-7.31c-1.96-2.8-4.26-6.19-6.54-9.79-4.12-6.75-7.39-12.92-7.46-13.05-1.28-2.62-2.35-5.15-3.08-7.44-4.46-14.16-6.01-23.39-8.21-27.77,0,0,.04-.03.04-.03l-.29-.42s0,0,0,0c-2.83-4.42-25.51-15.33-37.46-24.53l2.04,1.5v-2.9c-3.8-2.14-9.47-8.45-9.47-8.45l-2.53,1.18c-.66-.63-1.31-1.25-1.95-1.88l-14.81-15.6h-3.27c-2.23-7.14-5.05-17.37-6.59-27.72-.12-.9-.22-1.8-.31-2.69.05-.41.09-.7.09-.7l-.33-2.32c4.55-1,10.52-5.22,13.49-12.2,4.34-10.18.38-20.04-.62-21.26-1-1.22-6.66-4.36-13.15-2.33-.39.12-.76.28-1.11.46-.51-2.82-1.37-6.8-2.43-11.21h0s-.11-.42-.11-.42c-.41-1.7-.85-3.44-1.31-5.21l-.02-.1h0c-.9-3.46-1.88-6.95-2.87-10.15h0l-.04-.12c-.32-1.05-.65-2.05-.97-3.02l-.07-.21h0c-1.66-4.93-3.27-8.66-4.51-9.55-3.98-2.84-14.86-1.04-21.06-3.88-4.53-2.1-10.09-4.43-14-5.05-3.9-.64-12.61,0-12.61,0-10.23,5.79-12.75,19.68-17,21.32-4.27,1.64-9.87-.5-9.87-.5.38,10.85,11.6,17.04,13.18,16.78,0,.26-.01.55-.02.78-.02.92-.06,1.58-.14,1.78-.17.49-.81.94-1.46,1.5-1.05.06-1.71.2-1.71.2-2.04,5.97,2.81,8.82,3.16,9.01.89,1.06,1.8,2.05,1.8,2.05,0,0,.02.4.04.95-.95.14-1.2.57-1.16.72.04.15.67.43,1.2.65.08,2.6.16,6.63-.09,8.02-.12.68-.44,1.2-.78,1.68-.72,1.02-1.64,1.88-1.62,3.8,0,1.4,1.52,4.97,3.28,8.67l.02.02c1.84,3.9,3.96,7.93,4.87,9.77.15.31.34.71.53,1.1-.17.69-.3,1.38-.37,2.06,0,0-5.35-.26-8.19-3.84.2.48,3.56,8.11,11.05,8.89,0,0,.02-.5.15-1.21,1.53,3.51,3.04,7.04,3.6,8.17,3.76,7.57,12.25,15.02,13.94,15.3.76.13,3.28-.21,6.17-.73v5.19s-6.35,3.88-6.65,4.73c-.28.84-1.6,5.95-1.6,5.95l-10.31,7.38c-1.54,1.09-3.14,2.22-4.86,3.42.18-.4.38-.78.58-1.16l-1.32-1.12-.02.02c-4,3.98-14.92,9.81-14.92,9.81,0,0-.51,1.4-1.28,3.98-3.64,2.37-6.93,4.41-9.39,5.75-11.59,6.29-24.32,12.59-24.99,14.24l-.15.21s.05.04.07.06c-.63,2.33-1.76,13.84-3.7,22.45-1.36,6.01-10.05,16.24-15.6,22.33-.57.62-1.08,1.17-1.57,1.69-1.75,1.83-3.14,3.28-3.14,3.28l3.12,3.44c-1.89,3.25-5.04,8.45-9.05,14.16-6.61,9.47-8.13,11.75-10.03,18.36-1.9,6.63-3.12,13.26-2.36,17.14.76,3.88,32.96,19.02,47.96,24.81,11.49,4.45,22.78,7,27.96,7.95-.21,2.66-.19,4.68-.19,4.68-43.15,79.75-31.04,198.59-31.04,198.59l10.19.75s0,0,0,.01c.66,10.53,1.26,16.96,1.1,17.52-.74,2.58-11.81,10.69-11.99,13.08-.02.28.08.7.26,1.18,1.32,3.56,7.29,11.55,7.29,11.55.79-.02,1.68-.09,2.62-.18,0,0,0,0,0,0v21.1s.56-.05,1.53-.12c.03.77.07,1.52.09,2.3.96,30.92-.9,70.06-.9,70.06,0,0-6.83,6.27-7.21,8.49-.36,2.2,3.51,10.49,3.51,10.5,0,0,0,0,0,0l-1.11,3.12-1.85,5.18s-34.36,28.11-37.94,29.59c-3.56,1.48-25.07,3.94-25.07,3.94-2.96,3.2-3.7,12.79-3.7,12.79,21.89,8.11,47.94,4.67,47.94,4.67,8.13-5.91,21.65-8.87,21.65-8.87l1.84,6.15,32.1-1.1.86-11.45,3.68-1.34c-.6-12.55-8.35-20.42-8.35-20.42v-7.63s8.49-3.68,8.35-5.77c-.02-.48-.26-1.14-.6-1.96,0-.02-.02-.06-.02-.08-.08-.16-.14-.3-.22-.48-1.24-2.86-3.46-7.27-3.46-11.75,0-6.15,21.16-45.49,21.89-55.1.35-4.6-1.36-16.56-3.23-27.77,1.19.44,2.29.92,3.27,1.46,0,0-1.1-14.65-4.38-22.37,0,0,15.27-6.15,10.23-9.23-4.87-2.98-8.73-9.53-8.95-9.93l-.02-.02c.2-1.82.73-5.16,1.48-9.5l3.78-20.63c.01-.05.02-.11.03-.17,16.87-1.14,32.98-4.23,44.78-7.01h0s.01.04.01.04c4.95,15.39,8.75,26.94,8.75,26.94l-.06.06c-.66.54-5.83,4.97-5.83,6.01,0,1.12,16.22,12.75,16.22,12.75,0,0-5.71,5.15-5.71,6.07,0,.62,5.35,5,8.79,7.74-.01.05-1.48,5.3-1.66,13.92-.04,2.48,0,5.23.24,8.23,0,0,.36.02.92.05-.53,3.75-.92,7.04-.92,8.74,0,5.65,23.61,67.38,22.69,73.83-.92,6.45-4.38,16.78-4.45,18.52-.1,1.72,5.37,5.27,5.37,5.27h0s0,0,0,0l.15,2.24.33,4.79-.02.02c-5.87,5.43-6.11,22.09-5.75,22.71.38.62,2.6,1.1,2.6,1.1l.98,6.51,16.36,4.24c4.13,3.56,8.83,9.67,8.83,9.67,0,0,35.08,6.37,54.54-2.78,0,0-.66-13.42-2.78-18.6Zm-78.22-466.06c.3-.94.59-1.85.87-2.7.05-.15.09-.28.14-.42.25-.75.49-1.47.72-2.14.07-.2.14-.4.21-.6.27-.76.52-1.47.76-2.1.01-.03.02-.06.04-.09.23-.59.43-1.09.63-1.55.05-.12.1-.24.16-.35.2-.45.39-.84.56-1.12l3.7,6.09,3.45,5.69c-2.8.33-7.03.78-11.83,1.2.09-.29.18-.59.27-.87.11-.35.22-.7.33-1.04Zm12.5.56l2.29-.28s-.85.11-2.29.28Zm-184.69-32.27l-.97,1.71s.01,0,.01,0c-.27.48-.59,1.04-.97,1.7l1.93-3.41Zm35.76,55.6s-2.84-1.58-4.16-2.6c-1.34-1-3.8-8.95-4.1-10.53l1.64-3.71c1.37-2.48,3.39-5.79,5.24-8.73l.6-.93,12.72,6.64c.27,2.15.55,4.26.83,6.32-4.46,3.9-9.16,8.73-12.78,13.55Z"/>
                <g class="cls-52">
                    <path class="cls-40"
                          d="m209.57,128.8l-.15.85c1.54,3.46,3.04,6.92,3.58,8.03,3.77,7.57,12.26,15.03,13.96,15.3.19.04.5.04.92.04l.54-.27c-2.42-.73-18.84-23.95-18.84-23.95Zm5,46.71c-1.54,1.08-3.15,2.23-4.88,3.42.19-.38.38-.77.62-1.15l-1.35-1.11v.04c-4,3.96-14.92,9.8-14.92,9.8,0,0-.54,1.38-1.31,3.96-3.61,2.38-6.92,4.42-9.38,5.77-11.57,6.27-24.34,12.57-24.99,14.22l-.15.23.08.04c-.61,2.31-1.77,13.84-3.69,22.45-1.38,6-10.07,16.22-15.61,22.34-.58.61-1.08,1.15-1.58,1.69-1.73,1.85-3.15,3.27-3.15,3.27l7.07-.5,11.46-7.15,10.15-38.6,36.41-21.68,26.64-23.22.46-7.15c-.27.85-1.58,5.96-1.58,5.96l-10.3,7.38Zm-15.76-102.57v.77c-.04.92-.08,1.58-.15,1.81-.15.46-.81.92-1.46,1.46-1.04.08-1.69.23-1.69.23-2.04,5.96,2.81,8.8,3.15,9,.88,1.08,1.81,2.08,1.81,2.08,0,0,0,.38.04.92-.96.15-1.19.58-1.15.73.04.15.65.42,1.19.65.08,2.58.15,6.61-.08,8-.12.69-.46,1.19-.77,1.69-.73,1-1.65,1.88-1.61,3.81,0,1.38,1.5,4.96,3.27,8.65v.04c1.85,3.88,3.96,7.92,4.88,9.76.15.31.35.69.54,1.08-.19.69-.31,1.38-.38,2.08,0,0-5.34-.27-8.19-3.84.19.5,3.58,8.11,11.07,8.88l-1.31-10.65c-4.65-6.84-6.61-19.57-6.61-19.57v-10.46l-1.27-4.23c-1.46-2.77-.04-8.19-.04-8.19l-.69-5.77-2.19-5.73c5.46-5.54,6-20.49,14.19-27.14,5.31-4.31,17.49-1.88,25.45.35-4-1.77-8.42-3.5-11.69-4-3.88-.65-12.61,0-12.61,0-10.23,5.81-12.72,19.68-16.99,21.34-4.27,1.61-9.88-.5-9.88-.5.38,10.84,11.61,17.03,13.19,16.76Zm-61.43,190.99c-1.88,3.23-5.04,8.46-9.03,14.15-6.61,9.46-8.11,11.76-10.03,18.38-1.88,6.61-3.11,13.26-2.35,17.15l10.5-19.49,11.92-31.91-1.31,1.42.31.31Z"/>
                    <path class="cls-4"
                          d="m236.79,39.35c-7.96-2.23-20.14-4.65-25.45-.35-8.19,6.65-8.73,21.61-14.19,27.14l2.19,5.73.69,5.77s-1.42,5.42.04,8.19l1.27,4.23v10.46s1.96,12.73,6.61,19.57l1.31,10.65c-7.5-.77-10.88-8.38-11.07-8.88,2.85,3.58,8.19,3.84,8.19,3.84.08-.69.19-1.38.38-2.08-.19-.38-.38-.77-.54-1.08-.92-1.85-3.04-5.88-4.88-9.76v-.04c-1.77-3.69-3.27-7.27-3.27-8.65-.04-1.92.88-2.81,1.61-3.81.31-.5.65-1,.77-1.69.23-1.38.15-5.42.08-8-.54-.23-1.15-.5-1.19-.65-.04-.15.19-.58,1.15-.73-.04-.54-.04-.92-.04-.92,0,0-.92-1-1.81-2.08-.35-.19-5.19-3.04-3.15-9,0,0,.65-.15,1.69-.23.65-.54,1.31-1,1.46-1.46.08-.23.12-.88.15-1.81v-.77c-1.58.27-12.8-5.92-13.19-16.76,0,0,5.61,2.11,9.88.5,4.27-1.65,6.77-15.53,16.99-21.34,0,0,8.73-.65,12.61,0,3.27.5,7.69,2.23,11.69,4Z"/>
                    <path class="cls-4"
                          d="m228.41,152.75l-.54.27c-.42,0-.73,0-.92-.04-1.69-.27-10.19-7.73-13.96-15.3-.54-1.11-2.04-4.57-3.58-8.03l.15-.85s16.42,23.22,18.84,23.95Z"/>
                    <path class="cls-4"
                          d="m226.45,162.17l-.46,7.15-26.64,23.22-36.41,21.68-10.15,38.6-11.46,7.15-7.07.5s1.42-1.42,3.15-3.27c.5-.54,1-1.08,1.58-1.69,5.54-6.11,14.22-16.34,15.61-22.34,1.92-8.61,3.08-20.14,3.69-22.45l-.08-.04.15-.23c.65-1.65,13.42-7.96,24.99-14.22,2.46-1.35,5.77-3.38,9.38-5.77.77-2.58,1.31-3.96,1.31-3.96,0,0,10.92-5.84,14.92-9.8v-.04l1.35,1.11c-.23.38-.42.77-.62,1.15,1.73-1.19,3.34-2.35,4.88-3.42l10.3-7.38s1.31-5.11,1.58-5.96Z"/>
                    <path class="cls-4"
                          d="m138.37,262.2l-11.92,31.91-10.5,19.49c-.77-3.88.46-10.53,2.35-17.15,1.92-6.61,3.42-8.92,10.03-18.38,4-5.69,7.15-10.92,9.03-14.15l-.31-.31,1.31-1.42Z"/>
                </g>
            </g>
        </g>
    </g>
</svg>
