<?xml version="1.0" encoding="UTF-8"?><svg xmlns="http://www.w3.org/2000/svg" xmlns:xlink="http://www.w3.org/1999/xlink" viewBox="0 0 143.16 144.13"><defs><style>.cls-1{fill:url(#linear-gradient-4);}.cls-1,.cls-2,.cls-3,.cls-4,.cls-5,.cls-6,.cls-7,.cls-8,.cls-9,.cls-10,.cls-11,.cls-12,.cls-13,.cls-14,.cls-15,.cls-16,.cls-17,.cls-18,.cls-19,.cls-20,.cls-21,.cls-22,.cls-23,.cls-24,.cls-25,.cls-26{fill-rule:evenodd;}.cls-2{fill:#fff;}.cls-3{fill:url(#radial-gradient-7);}.cls-3,.cls-4,.cls-11,.cls-27{opacity:.5;}.cls-3,.cls-5,.cls-6,.cls-28,.cls-11,.cls-13,.cls-14,.cls-18,.cls-20,.cls-29{mix-blend-mode:screen;}.cls-4{fill:#992c3a;}.cls-4,.cls-9,.cls-10,.cls-15,.cls-17,.cls-27{mix-blend-mode:multiply;}.cls-30{isolation:isolate;}.cls-5{fill:url(#_Áåçûìÿííûé_ãðàäèåíò_621);opacity:.4;}.cls-6{fill:url(#Dégradé_sans_nom_29-3);}.cls-7{fill:url(#linear-gradient-2);}.cls-8{fill:url(#linear-gradient);}.cls-28{fill:url(#_Áåçûìÿííûé_ãðàäèåíò_150);opacity:.1;}.cls-9{fill:url(#radial-gradient-3);}.cls-10{fill:url(#radial-gradient-4);}.cls-11{fill:url(#radial-gradient-8);}.cls-12{fill:url(#linear-gradient-6);}.cls-31{clip-path:url(#clippath-1);}.cls-13{fill:url(#radial-gradient-6);}.cls-14{fill:url(#radial-gradient-5);}.cls-15{fill:#122205;opacity:.38;}.cls-16{fill:url(#linear-gradient-5);}.cls-17{fill:url(#radial-gradient-2);}.cls-18{fill:url(#Dégradé_sans_nom_29-2);}.cls-19{fill:url(#Dégradé_sans_nom_29-5);}.cls-19,.cls-22{opacity:.7;}.cls-32{clip-path:url(#clippath);}.cls-33{fill:none;}.cls-20{fill:url(#Dégradé_sans_nom_29);}.cls-34,.cls-26{fill:#3f238e;}.cls-21{fill:#d8d8d8;}.cls-22{fill:url(#Dégradé_sans_nom_29-4);}.cls-23{fill:url(#linear-gradient-7);}.cls-24{fill:url(#linear-gradient-8);}.cls-25{fill:url(#linear-gradient-3);}.cls-29{fill:url(#radial-gradient);opacity:.7;}</style><clipPath id="clippath"><rect class="cls-33" x="-2403.66" y="41.28" width="1939.33" height="1090.87"/></clipPath><clipPath id="clippath-1"><rect class="cls-33" x="-2999.75" y="33.74" width="4096.11" height="1105.95" transform="translate(-1903.4 1173.43) rotate(180)"/></clipPath><linearGradient id="linear-gradient" x1="10763.73" y1="862.87" x2="10760.49" y2="-15" gradientTransform="translate(9810.47) rotate(-180) scale(1 -1)" gradientUnits="userSpaceOnUse"><stop offset="0" stop-color="#a1ffbf"/><stop offset=".15" stop-color="#7bbdc7"/><stop offset=".32" stop-color="#547ad0"/><stop offset=".39" stop-color="#4661d4"/><stop offset=".88" stop-color="#5c1c7b"/><stop offset=".99" stop-color="#620c66"/></linearGradient><linearGradient id="linear-gradient-2" x1="9913.06" y1="886.42" x2="9771.87" y2="36.17" gradientTransform="translate(9810.47) rotate(-180) scale(1 -1)" gradientUnits="userSpaceOnUse"><stop offset="0" stop-color="#dbcfc1"/><stop offset=".11" stop-color="#c7bbae"/><stop offset=".39" stop-color="#9a8c81"/><stop offset=".64" stop-color="#796b61"/><stop offset=".85" stop-color="#65564d"/><stop offset=".99" stop-color="#5e4f46"/></linearGradient><linearGradient id="linear-gradient-3" x1="9737.36" y1="848.77" x2="9596.18" y2="-1.47" xlink:href="#linear-gradient-2"/><radialGradient id="radial-gradient" cx="9423.06" cy="813.23" fx="9423.06" fy="813.23" r="894.2" gradientTransform="translate(-14263.73 1173.43) scale(1.52 -1)" gradientUnits="userSpaceOnUse"><stop offset=".01" stop-color="#7739d9"/><stop offset=".28" stop-color="#56299e"/><stop offset="1" stop-color="#000"/></radialGradient><linearGradient id="_Áåçûìÿííûé_ãðàäèåíò_150" x1="10762.92" y1="572.28" x2="10746.38" y2="886.59" gradientTransform="translate(-11713.86 1173.43) scale(1 -1)" gradientUnits="userSpaceOnUse"><stop offset=".24" stop-color="#56b195"/><stop offset=".39" stop-color="#55ad94"/><stop offset=".51" stop-color="#54a491"/><stop offset=".61" stop-color="#52948c"/><stop offset=".71" stop-color="#4f7d85"/><stop offset=".8" stop-color="#4b5f7c"/><stop offset=".89" stop-color="#463a71"/><stop offset=".97" stop-color="#411064"/><stop offset="1" stop-color="#3f0060"/></linearGradient><linearGradient id="linear-gradient-4" x1="9997.23" y1="906.17" x2="9505.7" y2="211.75" gradientTransform="translate(9810.47) rotate(-180) scale(1 -1)" gradientUnits="userSpaceOnUse"><stop offset="0" stop-color="#272d6e"/><stop offset=".06" stop-color="#26266b"/><stop offset=".15" stop-color="#261366"/><stop offset=".19" stop-color="#260863"/><stop offset=".99" stop-color="#000016"/></linearGradient><linearGradient id="linear-gradient-5" x1="9781.75" y1="327.94" x2="9781.75" y2="9.46" gradientTransform="translate(9810.47) rotate(-180) scale(1 -1)" gradientUnits="userSpaceOnUse"><stop offset="0" stop-color="#001154"/><stop offset=".22" stop-color="#000f4d"/><stop offset=".52" stop-color="#000a3a"/><stop offset=".87" stop-color="#00031b"/><stop offset=".99" stop-color="#00000f"/></linearGradient><radialGradient id="_Áåçûìÿííûé_ãðàäèåíò_621" cx="2636.58" cy="-1068.57" fx="2636.58" fy="-1068.57" r="42.48" gradientTransform="translate(2753.02 -1146.5) rotate(133.75) scale(1 -1)" gradientUnits="userSpaceOnUse"><stop offset=".02" stop-color="#4c427c"/><stop offset=".22" stop-color="#3b3360"/><stop offset=".75" stop-color="#100e1b"/><stop offset="1" stop-color="#000"/></radialGradient><linearGradient id="Dégradé_sans_nom_29" x1="1.38" y1="49.03" x2="105.99" y2="49.03" gradientUnits="userSpaceOnUse"><stop offset="0" stop-color="#3f238e"/><stop offset="1" stop-color="#3f238e"/></linearGradient><linearGradient id="Dégradé_sans_nom_29-2" x1="1.45" y1="85.21" x2="116.02" y2="85.21" xlink:href="#Dégradé_sans_nom_29"/><linearGradient id="Dégradé_sans_nom_29-3" x1="1.92" y1="120.73" x2="81.73" y2="120.73" xlink:href="#Dégradé_sans_nom_29"/><linearGradient id="Dégradé_sans_nom_29-4" x1=".4" y1="14.88" x2="126.66" y2="14.88" xlink:href="#Dégradé_sans_nom_29"/><linearGradient id="Dégradé_sans_nom_29-5" x1="0" y1="72.06" x2="143.16" y2="72.06" xlink:href="#Dégradé_sans_nom_29"/><radialGradient id="radial-gradient-2" cx="73.35" cy="110" fx="73.35" fy="110" r="120.84" gradientUnits="userSpaceOnUse"><stop offset="0" stop-color="#a48a7b"/><stop offset="1" stop-color="#fff"/></radialGradient><linearGradient id="linear-gradient-6" x1="71.59" y1="135.22" x2="71.59" y2="7.38" gradientUnits="userSpaceOnUse"><stop offset="0" stop-color="#edd6b9"/><stop offset="1" stop-color="#d4b492"/></linearGradient><radialGradient id="radial-gradient-3" cx="13.95" cy="135.87" fx="13.95" fy="135.87" r="20.79" xlink:href="#radial-gradient-2"/><radialGradient id="radial-gradient-4" cx="134.47" cy="13.55" fx="134.47" fy="13.55" r="11.87" xlink:href="#radial-gradient-2"/><linearGradient id="linear-gradient-7" x1="16.48" y1="130.22" x2="19.6" y2="122.87" gradientUnits="userSpaceOnUse"><stop offset="0" stop-color="#bf9f7e"/><stop offset="1" stop-color="#edd6b9"/></linearGradient><linearGradient id="linear-gradient-8" x1="132.34" y1="13.4" x2="127.26" y2="18.48" xlink:href="#linear-gradient-7"/><radialGradient id="radial-gradient-5" cx="10.49" cy="145.26" fx="10.49" fy="145.26" r="35.14" gradientUnits="userSpaceOnUse"><stop offset="0" stop-color="#000"/><stop offset="1" stop-color="#a3805f"/></radialGradient><radialGradient id="radial-gradient-6" cx="138.49" cy="3.24" fx="138.49" fy="3.24" r="23.04" xlink:href="#radial-gradient-5"/><radialGradient id="radial-gradient-7" cx="71.25" cy="72.11" fx="71.25" fy="72.11" r="124.94" gradientUnits="userSpaceOnUse"><stop offset="0" stop-color="#ca9e67"/><stop offset="1" stop-color="#000"/></radialGradient><radialGradient id="radial-gradient-8" cx="70.16" cy="72.01" fx="70.16" fy="72.01" r="102.58" xlink:href="#radial-gradient-7"/></defs><g class="cls-30"><g id="layer1"><g class="cls-32"><g class="cls-31"><g><polygon class="cls-8" points="1096.36 847.94 -2999.75 855.32 -2999.75 28.84 1096.36 21.45 1096.36 847.94"/><g class="cls-27"><polygon class="cls-7" points="9.14 819.76 -3.9 -3.27 -53.61 -14.8 -107.99 809.3 9.14 819.76"/><polygon class="cls-25" points="184.84 782.11 171.8 -40.92 122.09 -52.45 67.71 771.65 184.84 782.11"/></g></g><rect class="cls-29" x="-2999.75" y="-18.81" width="4096.11" height="1211.05" transform="translate(-1903.4 1173.43) rotate(-180)"/><rect class="cls-28" x="-2999.75" y="-18.81" width="4096.11" height="1211.05" transform="translate(-1903.4 1173.43) rotate(180)"/><g><g><path class="cls-1" d="m79.95,975.29c-1.31,9.46-1.2,8.97-1.69,12.08h.04l53.43,2.87,32.15-3.65-2.46-11.26,11.63-2.21,15.57-2.99,1.6.2,30.27,3.89c-4.06-14.87-8.07-44.32-12.08-84.09-3.6-36.33-7.21-81.35-10.69-131.81-.08-.94-.12-1.84-.2-2.74-.41-6.39-.86-12.86-1.31-19.42-7.41-111.86-14.25-246.87-19.99-373.24l-.12-1.97-.33-7.25-.29-7.25-.49-10.85-.16-3.6-.08-1.56c-.37-8.27-.74-16.51-1.06-24.7-8.56-195.59-14.01-357.18-14.01-357.18l-13.44-7-19.21-10.04-26.05-13.64-28.59-14.95-3.24-1.68c1.43,1.68,31.7,41.94,34.73,422.96.08,7.37.12,14.87.16,22.49,0,4.83.04,9.71.04,14.62.2,70.99-.94,135.91-2.99,194.85-.2,5.57-.41,11.14-.61,16.63-.74,19.29-1.6,37.89-2.54,55.87-1.93,37.93-4.26,72.91-6.76,104.9-1.47,18.96-3.07,36.91-4.67,53.78-2.25,24.09-4.63,46.08-6.96,65.95-6.8,57.84-13.48,97.94-17.65,120.47l18.06,1.52Z"/><path class="cls-4" d="m78.25,987.37h.04l53.43,2.87,32.15-3.65c-11.96-23.51-31.42-80.57-3.24-171.14,3.36-10.73,13.03-15.2,15.4-23.59-.04-10.77-.08-21.96-.08-33.55,0-6.64.04-13.44.08-20.32,0,0-.33-.66-.94-1.84-7.41-14.83-57.35-116.12-47.19-148.81,6.27-20.36-4.42-80.78,3.11-104.57,6.35-30.84,23.88-48.7,28.22-119.52,1.23-19.95,2.46-38.99,3.69-57.26-4.34-195.51-6.8-357.02-6.8-357.02l-9.91-7.41-12.58-9.42-37.68-28.22c1.72,4.34,3.36,9.01,5,13.97,33.92,102.2,52.39,317.86,52.18,322.57-.25,6.59-30.31,67.46-38.75,84.46-1.39,2.79-2.17,4.42-2.17,4.42l-.16,1.52-.33,3.6-.94,10.77-.66,7.25-.66,7.25-.2,1.93s1.97-5.69,5.04-14.25c9.22-25.68,28.3-77.17,33.34-77.01,6.72.2-4.38,80.32-4.38,80.32,0,0,3.56,31.79-1.88,56.28-2.25,10.2-15.93,86.51-31.38,166.51-.66,19.25-1.39,37.89-2.17,55.87,1.88-8.89,3.52-15.4,4.79-18.8,13.56-36.05,11.1,44.4,13.64,44.48,2.5.08-9.01,123.95-30.76,191.9-.78,2.33-1.52,4.71-2.25,7.13-5.24,58.41-10.24,98.76-13.31,121.2-1.31,9.46-1.2,8.97-1.69,12.08Z"/></g><g><path class="cls-16" d="m-568.65,157.04c42.14,24.09,108.43,22.53,108.43,22.53l16.8-25.52c-.14.7-.88,4.26.65,8.68.05.2.09.37.18.57.78,2.13,2.12,4.42,4.2,6.72.42.41.78.82,1.25,1.27,4.11,3.77,10.62,7.37,20.86,9.83.55.16,1.15.25,1.85.33,1.25.16,2.77.2,4.48.2h.09c16.71-.29,102.52,90.59,232.58,63.49l.09-.04h.09l5.26-1.68c22.43-7.09,40.39-12.9,49.85-16.06l3.79-1.23,3.14-1.02.28-.08c-117.75,50.55-66.01,120.38-66.01,120.38,0,0,132.52,29.94,152.37,22.16,19.11-7.45,47.13-47.64,49.25-50.75l.14-.16v.66c0,5.86,12.18,6.02,57.6,1.68,21.83-2.09,31.99-11.59,36.51-21.42,3.83-8.4,3.65-17.04,3.14-21.59,1.2,5.49,5.26,16.75,18.79,25.68,5.08,3.36,11.49,6.39,19.62,8.64,8.08,2.25,17.91,3.77,29.73,4.01,17.03.41,46.34-3.03,80.73-9.46,9.74-1.8,19.89-3.85,30.28-6.1,96.7-21.14,187.3-138.74,192.15-181.38,2.54-22.04,3.28-40.06,3.23-54.23-.05-4.92-.18-9.38-.37-13.35-.09-2.33-.23-4.55-.37-6.55v-.08c.23.37.51.78.78,1.19.83,1.15,1.89,2.33,3.09,3.48,1.8,1.72,4.02,3.4,6.74,4.92,3.28,1.88,7.25,3.52,12.09,4.92,8.86,2.58,20.63,4.18,36.23,4.18,37.34,0,71.32-32.93,82.44-69.22,1.11-3.6,1.98-7.21,2.59-10.85,2.82-16.02.92-32.11-7.39-45.88-1.75-2.99-3.83-5.82-6.19-8.56-4.89-5.53-10.99-10.49-18.56-14.71-8.4-4.67-18.51-8.4-30.6-10.9-115.63-24.09-435.42-33.42-484.81-31.87-35.64,1.11-59.68,30.39-70.3,46.57.18-5.41-4.89-11.47-25.48-14.71-42.14-6.59-77.09-6.23-96.34,1.56-2.95,1.19-5.4,3.36-7.39,6.23-.23.33-.46.61-.65.94-.23.29-.42.61-.6.94-2.86,4.92-4.8,11.26-6.05,17.82-3,15.81-2.22,32.77-2.22,32.77,0,0-16.89-4.1-43.34-9.05-19.62-3.69-44.5-7.91-71.64-11.26h-.05c-30.37-3.81-63.61-6.59-95.55-6.59-35.03,0-68.45,3.36-94.77,12.49-15.19,5.32-30.05,13.23-44.13,22.98h-.05l-.14.12c-42.79,29.61-78.56,75.86-96.75,115.26l-.09.2-.37.86c-14.91,32.85-17.4,60.79-1.2,70.04Z"/><path class="cls-15" d="m-177.19,245.11h.09l5.26-1.68,49.85-16.06,3.79-1.23,3.14-1.02.28-.08.23-.08s-9.1-90.75,73.71-90.75c7.62,0,15.84.42,24.7,1.47,79.61,9.51,5.58,177.9,43.37,92.39,6.83-13.39,61.5-19.86,78.44-11.67,12.14,5.9,9.42,81.18,9.42,81.18,3.83-8.4,3.65-17.04,3.14-21.59,1.2,5.49,5.26,16.75,18.79,25.68-10.57-23.31-14.45-45.63-14.45-65.17,0-34.16,11.86-59.84,21.05-67.5,14.45-12.04,160.82-22.94,160.82-22.94,0,0-123.62,2.91-165.85,0-62.09-4.25-238.37-24.57-109.78-159.63C2.11-24.21,2.16-35.35,3.64-40.02-.33-32.36-16.26-8.32-56.83-13.56c-34.8-4.51-58.48-35.96-61.53-57.22-3,15.81-2.22,32.77-2.22,32.77,0,0-16.89-4.1-43.34-9.05,17.08,5.49,39.34,10.29,55.39,25.72C-13,70.48-173.45,242.45-177.19,245.11Z"/></g></g><path class="cls-5" d="m128.62,49.67c16.95,16.22,43.84,15.64,60.06-1.31,16.22-16.95,15.64-43.84-1.31-60.06-16.95-16.22-43.84-15.64-60.06,1.31-16.22,16.95-15.64,43.84,1.31,60.06Z"/></g></g></g><g id="Calque_3"><g><g><g><path class="cls-21" d="m4.06,2.27c3.48-.92,104.83-1.28,136.53,1.27l2.01,1.69c.42,2.45,0,27.22-1.16,31.36-34.3.82-101.56.66-135.58-.21l-2.01-1.69c-1.16-7.38-.53-29.94.21-32.42h0Z"/><path class="cls-2" d="m.68.58c3.61-.95,108.18.21,138.54,2.96.42,2.45,0,27.22-1.16,31.36-34.3.82-101.56.66-135.58-.21C1.1,31.7-.17,3.4.68.58h0Z"/><path class="cls-21" d="m3.56,37.2c33.13.27,104.74-.83,137.53-.39l2.06,1.69c.11,10.77-.48,21.86-1.17,33.26-8.23.97-130.79-.01-136.67-.87l-2.06-1.69c-.98-8-.18-28.24.31-32h0Z"/><path class="cls-2" d="m.15,35.51c34.04.28,106.01.85,139.59,1.3.11,10.77-.48,21.86-1.17,33.26-8.23.97-130.79-.01-136.67-.87C.85,62.97-.38,39.59.15,35.51H.15Z"/><path class="cls-21" d="m4.44,72.41c7.4-.63,117.32-1.22,135.79-.11l2.01,1.69c.7,3.97,1.13,25.44.63,33.16-34.3-.58-104.73-.83-139.17,0l-2.01-1.69c-.23-7.66,2.22-30.03,2.75-33.05h0Z"/><path class="cls-2" d="m1.08,70.72c7.93-.67,126.98.35,137.8,1.59.7,3.97,1.13,25.44.63,33.16-34.3-.58-104.73-.83-139.17,0-.65-2.28.12-31.2.74-34.74h0Z"/><path class="cls-21" d="m5.86,108.24c7.97-.76,118.74-2.33,133.89-1.69l2.01,1.69c.76,11.44.93,22.88.85,34.32-55.95,2.17-87.06,2-138.54,0l-2.01-1.69c-.24-8.82,2.63-28.12,3.81-32.63h0Z"/><path class="cls-2" d="m2.47,106.55c8.51-.81,129.01-.78,135.89,0,.76,11.44.93,22.88.85,34.32-54.68,1.95-77.75-.33-138.54,0-.49-7.53.52-29.44,1.8-34.32h0Z"/><path class="cls-34" d="m54.59,22.21c1.07-.27,2.16-.46,3.23-.59.97-.12,1.97-.16,2.97-.12.99.04,1.97.15,2.92.35.65.13,1.27.37,1.85.68.57.29,1.11.65,1.62,1.03.55.41,1.07.86,1.55,1.37.44.47.83.97,1.16,1.52.31.53.61,1.1.82,1.71.22.63.35,1.3.34,1.97-.02.64-.15,1.3-.41,1.91-.24.57-.6,1.1-1.05,1.49-.66.56-1.41,1.02-2.2,1.38-.35.16-.71.3-1.07.42-4.03-.02-7.99-.04-11.84-.06-.32-.09-.64-.19-.95-.3-1.31-.44-2.57-.98-3.77-1.63-.62-.34-1.2-.82-1.67-1.4-.45-.56-.81-1.21-.99-1.9-.16-.58-.13-1.19.02-1.78.16-.65.47-1.28.82-1.79.46-.67,1-1.3,1.61-1.84.59-.52,1.23-.97,1.92-1.3,1-.48,2.05-.84,3.13-1.12h0Zm-2.17,3.82c-3.23,2.91-.45,5.31,3.1,6.73,3.34,1.34,6.14,1.74,9.62,1.04,1.38-.28,2.78-.82,3.87-1.75.56-.47.85-1.35.87-2.08.02-.91-.4-1.85-.86-2.61-1.62-2.69-4.31-3.74-7.24-3.86-2.77-.11-7.21.58-9.35,2.51h0ZM2.36,21.89c11.83-.4,20.88-4.14,33.89-7.11,7.37-1.68,14.32-3.43,21.8-3.39,9.74.05,19.3,2.79,27.96,8.68,3.22,2.19,4.79,4.17,5.07,6.11.28,1.91-.07,3.82-1.94,5.99-.96,1.11-1.92,2.18-2.88,3.23,1.33,0,2.66,0,4,0,.62-.69,1.25-1.4,1.87-2.12,2.31-2.67,3.5-5.17,3.13-7.72-.67-4.6-10.29-9.56-15.48-11.62-17.62-6.98-26.3-5.5-43.87-.57-12.05,3.38-23.58,6.2-33.66,6.23l.02.29v.04s0,.04,0,.04l.02.36v.04s.01.21.01.21c.01.19.02.38.03.58v.04s0,.02,0,.02v.02s0,.04,0,.04c.01.21.03.43.04.64h0Zm-.44-9.13c13.85-.15,24.73-2.63,35.23-4.38,26.36-4.4,35.05-4.83,61.45,7.04,4.91,2.21,8.82,5.05,10.97,7.21,1.83,1.84,2.1,4.42.29,6.36-1.32,1.41-4.31,3.92-7.51,6.39,1.25,0,2.48-.01,3.71-.02,2.92-2.17,5.55-4.24,6.78-5.55.54-.58.97-1.27,1.25-2,.28-.74.42-1.52.38-2.27-.03-.72-.23-1.44-.56-2.11-.35-.71-.83-1.38-1.4-1.95-2.41-2.43-7.16-5.04-12.51-7.45-7.72-3.48-16.72-6.56-21.63-7.99-9.9-2.88-14.53-2.36-24.57-1.32-5.79.6-11.3,1.52-16.91,2.46-10.44,1.74-21.27,3.55-35.03,3.47v.03s0,.03,0,.03v.03s0,.03,0,.03v.03s0,.03,0,.03v.03s0,.03,0,.03v.03s0,.03,0,.03v.39s.01.03.01.03v.03s0,.03,0,.03v.03s0,.03,0,.03v.03s0,.03,0,.03v.03c0,.13,0,.26.01.4v.03s0,.03,0,.03v.03s0,.03,0,.03v.03s0,.03,0,.03v.03s0,.03,0,.03v.03s0,.03,0,.03v.37s.01.03.01.03h0Zm-.13-8.02c12.7-.35,25.09-2.55,37.54-4.38-3.26-.03-6.39-.06-9.36-.08C20.65,1.47,11.32,2.38,1.84,2.47v.03s0,.09,0,.09v.03c0,.08,0,.17-.01.25v.03s0,.06,0,.06h0s0,.04,0,.04c0,.09,0,.18,0,.27v.03s0,.03,0,.03v.03s0,.04,0,.04c0,.1,0,.21,0,.32h0s0,.04,0,.04v.04s0,.04,0,.04v.04c0,.1,0,.2,0,.3v.04s0,.04,0,.04v.04s0,.04,0,.04c0,.1,0,.21,0,.32v.04s0,.04,0,.04h0ZM81,1.06c10.71,3.87,23.04,9.8,32.13,13.27,3.02,1.15,9.54,3.47,14.81,6.26,11.71,6.22,7.75,9.22-2.95,13.86-.56.24-1.13.49-1.69.73,2.66-.03,5.23-.07,7.68-.12,1.55-.71,3.05-1.43,4.47-2.18,4.69-2.48,5.19-5.08,3.69-7.51-3.18-5.16-18.58-10.81-24.38-13.03-5.54-2.12-11.01-4.35-16.51-6.55-3.52-1.41-7.39-3.07-11.35-4.6-1.95-.05-3.92-.1-5.89-.14h0Zm21.29.58c11.77,4.19,23.66,8.16,35.65,11.69.89.26,1.81.51,2.76.76.01-.7.02-1.39.03-2.05-.6-.16-1.18-.33-1.76-.5-10.08-2.97-20.09-6.24-30.02-9.69-2.17-.08-4.4-.15-6.66-.22h0Zm37,1.79c.44.09.88.18,1.32.27,0-.06-.01-.11-.02-.15-.42-.04-.86-.08-1.3-.11h0ZM17.7,25.86c-1.75.72-2.88,1.63-3.42,2.48-.29.46-.43.92-.42,1.36.01.49.2.92.55,1.27.42.42,1.09.7,1.98.77.94.08,3.69.56,7.57,1.36,2.59.54,5.65,1.21,8.99,2,2.63.02,5.35.05,8.17.07-.99-.33-2.02-.63-3.07-.91-4.03-1.05-7.7-1.93-10.67-2.59-2.01-.45-11.08-1.89-5.62-4.47,1.64-.78,4.63-1.55,8.47-2.61,6.75-1.85,13.73-4.78,20.47-6.3,2.66-.6,5.31-1.03,7.89-1.15,2.56-.12,5.04.07,7.37.71,2.76.76,5.82,2.69,8.16,4.47,4.36,3.3,7,6.39,2.95,11.41-.44.54-.94,1.08-1.49,1.61.82,0,1.63,0,2.45,0,.2-.21.4-.43.59-.64,1.98-2.29,2.94-4.68,2.5-6.66-.06-.25-.13-.5-.23-.73-.87-2.06-2.99-4.29-5.69-6.2-2.65-1.87-5.87-3.44-8.99-4.24-2.63-.68-5.43-.88-8.29-.75-2.85.12-5.77.56-8.69,1.18-3.87.81-7.73,1.92-11.41,2.97l-.19.05c-3.92,1.12-7.56,2.05-10.67,2.85-4.16,1.07-7.38,1.89-9.27,2.67h0Z"/><path class="cls-26" d="m106.63,65.89c-10.85-8.5-21.92-16.83-33.26-24.7-2.44-1.7-5.22-3.4-8.07-5.15-11.89-.1-23.63-.2-34.37-.29,1.2.29,2.4.57,3.61.86,18.85,4.45,30.86,7.24,46.34,19.45,4.77,3.76,8.75,6.63,14.08,9.51,2.77,1.5,5.39,3.09,7.99,4.76,3.15.02,6.3.03,9.44.04-1.81-1.39-3.72-2.88-5.77-4.48h0Z"/><path class="cls-34" d="m139.01,62.09c-4.99-3.12-9.48-7.17-13.32-12.18-2.4-3.14-3.28-5.54-2.93-7.5.34-1.92,1.29-3.65,3.78-5.14.34-.2.68-.4,1.02-.6-1.79-.02-3.65-.04-5.55-.06-1.91,1.48-3.11,3.11-3.46,5.07-.82,4.64,6.85,12.49,11.19,16.13,3.28,2.75,6.26,4.95,9.13,6.73.05-.81.09-1.63.13-2.44h0Zm-.42,7.35c-8.17-3.6-15.7-9.15-26.5-19.08-4.02-3.69-6.88-7.68-8.25-10.44-.59-1.18-.74-2.42-.45-3.52l-3.5-.03c-.05.46-.04.93.02,1.4.11.8.36,1.59.72,2.32,1.54,3.1,5.28,7.14,9.65,11.17,6.31,5.82,14,11.66,18.27,14.6,2.75,1.9,5.1,3.29,7.34,4.37,1.25-.04,2.16-.09,2.65-.15l.04-.64h0Zm-13.37.97c-9.28-7.19-19.6-17.22-27.46-23.65-2.49-2.04-7.88-6.23-12.02-10.52l-3.68-.03c4.55,4.73,10.54,9.52,13.5,11.95,4.65,3.81,9.21,7.7,13.8,11.58,3.9,3.29,8.22,7.18,12.73,10.68h2.52c.2,0,.41,0,.61,0h0Zm-11.12-.03c-2.63-2.09-5.38-4.34-8.5-6.79-10.45-8.19-21.11-16.2-32.04-23.79-1.76-1.23-3.73-2.46-5.77-3.72l-3.86-.03c2.85,1.74,5.62,3.45,8.07,5.15,11.34,7.87,22.41,16.2,33.26,24.7,2.05,1.6,3.96,3.09,5.77,4.48h3.08ZM21.63,35.68c3.67.75,7.44,1.47,11.18,2.36,18.64,4.4,30.2,8.06,45.5,20.14,4.83,3.81,8.88,6.73,14.28,9.65,1.51.82,2.97,1.64,4.39,2.48,1.53,0,3.06.02,4.59.02-2.59-1.66-5.22-3.26-7.99-4.76-5.33-2.88-9.31-5.75-14.08-9.51-15.48-12.21-27.49-15-46.34-19.45-1.21-.29-2.41-.57-3.61-.86l-7.93-.07h0ZM0,40.29c8.01,3.8,12.8,4.26,21.27,4.5,24.13.69,34.77,12.68,54.6,22.97,1.56.81,3.13,1.63,4.72,2.45,1.83.01,3.67.02,5.51.03-3.1-1.68-6.17-3.33-9.21-4.91-16.78-8.71-36.16-21.72-55.37-22.78-8.62-.47-13.14-1.06-21.52-5.19H.02c0,.08,0,.16,0,.23v.04s0,.04,0,.04v.04s0,0,0,0c0,.09,0,.19,0,.29v.04s0,.04,0,.04v.04c0,.1,0,.2,0,.31v.04s0,.04,0,.04H0c0,.11,0,.21,0,.32v.09s0,.05,0,.05c0,.09,0,.19,0,.29v.05s0,.05,0,.05v.05c0,.11,0,.23,0,.35v.05s0,.05,0,.05v.05c0,.1,0,.21,0,.31v.05h0Zm.28,8.73c15.2,6.25,28.72,4.52,44.96,10.81,7.15,2.77,14.39,6.63,21.65,10.29,1.46.01,2.94.02,4.42.03-3.84-1.87-7.53-3.73-10.61-4.99-2.37-.97-4.68-2.12-6.98-3.28C32.49,51.22,18.62,52.79.16,46.2v.04s0,.17,0,.17v.04s0,.04,0,.04v.22s.01.04.01.04v.04s0,.04,0,.04v.22s.01.04.01.04v.04s0,.04,0,.04v.04s0,.09,0,.09v.04s0,.04,0,.04v.04s.01.26.01.26v.04s0,.04,0,.04v.04s0,.04,0,.04v.04s0,.04,0,.04v.04s0,.04,0,.04v.04s.01.27.01.27v.04s0,.04,0,.04v.04s0,.13,0,.13v.04s0,.04,0,.04v.22s.01.04.01.04H.28Zm.47,8.35c4.53,1.57,9.5,2.69,14.31,3.24,17.55,2.02,24.36,5.39,34.15,9.36,2.22.02,4.49.04,6.8.06-.5-.17-1-.34-1.51-.52-12.73-4.39-20.29-7.72-38.95-11.01-5.17-.91-10.09-2.32-14.99-3.98v.04s0,.04,0,.04v.04s0,.04,0,.04l.02.31v.04s0,.04,0,.04v.04s0,.04,0,.04v.04s0,.04,0,.04v.04c.01.15.02.3.03.45v.04s0,.04,0,.04v.04s0,.04,0,.04v.04s.03.4.03.4v.04s0,.04,0,.04v.04s0,.04,0,.04v.04s0,.04,0,.04v.04s.02.31.02.31v.04s0,.04,0,.04v.04s0,.04,0,.04v.09s0,.04,0,.04v.04h0Zm.49,6.34c5.94,1.72,12.08,3.47,18.34,5.04,1.28.32,2.56.64,3.84.95,3.26.04,6.82.09,10.63.13-10.97-2.69-22.05-5.28-33-8.44v.04s.03.3.03.3v.04s0,.04,0,.04v.11s.01.04.01.04v.04s.03.33.03.33v.04s0,.04,0,.04v.15s.02.04.02.04v.04s.02.22.02.22v.04s0,.04,0,.04h0s.02.21.02.21v.04s0,.04,0,.04v.04s.01.11.01.11v.04s0,.04,0,.04v.04s0,.04,0,.04l.02.21v.03h0Zm.61,5.32l.9.23c1.43.08,4.38.16,8.54.24-3.25-.87-6.5-1.77-9.73-2.71v.04s0,.04,0,.04c.01.09.02.19.03.28v.04s0,.04,0,.04v.04c.02.1.03.21.04.31v.04s0,.04,0,.04v.04c.02.1.03.19.04.29v.04s0,.04,0,.04v.03c.02.09.03.18.04.27v.03s0,.03,0,.03c.01.1.03.19.04.29v.03s0,.03,0,.03c.01.08.02.16.04.24v.03h0Zm137.56-15.4c-.56-.72-1.09-1.44-1.56-2.13-3.14-4.57-4.69-8.38.81-11.92.34-.22.7-.43,1.07-.63,0-.65,0-1.29-.01-1.93-.81.35-1.56.73-2.24,1.13-2.64,1.57-4.32,3.56-4.54,5.61-.03.26-.03.52-.01.78.18,2.26,1.51,5.09,3.5,7.78.86,1.16,1.84,2.3,2.9,3.37.03-.68.06-1.37.09-2.05h0Z"/><path class="cls-34" d="m50.7,104.94c7.17-1.16,15.13-2.67,21.83-1.51,1.88.33,3.94.84,6.11,1.5,1.91,0,3.84,0,5.77,0-4-1.35-8-2.39-11.75-2.74-8.12-.76-17.71.94-25.86,2.08-1.71.24-3.41.48-5.12.71,2.96-.01,5.97-.02,9.01-.03h0Zm-30.67-2.74c-6.63.41-13.28.5-19.92.52,0,.09,0,.17,0,.26v.17c0,.08.01.15.01.22,0,.06,0,.11,0,.16,0,.07,0,.14,0,.21v.16c.01.06.01.11.02.16,0,.06,0,.12.01.18,0,.04,0,.08,0,.12,0,.06,0,.12.01.18,0,.04,0,.08,0,.11,0,.05,0,.11.01.15v.08s.02.09.02.14c0,.03,0,.05.01.08l19.78-2.91Zm114.18,2.79c-1.59-.5-3.22-1.05-4.91-1.66-5.54-2-10.09-3.43-15.88-4.46-14.93-2.64-26.07-7.37-42.15-7.84-10.27-.3-21.73,1.66-32.01,3.1-12.62,1.77-25.17,3.53-39.19,3.58v.03H.07v.04c0,.18,0,.35,0,.52H.07v.11s0,.03,0,.03v.41s0,.03,0,.03v.2s0,.03,0,.03v.23s0,.03,0,.03v.03s0,.29,0,.29v.03s0,.03,0,.03v.06s0,.03,0,.03c14.12-.05,26.71-1.81,39.37-3.59,10.19-1.43,21.62-4.13,31.79-3.83,9.14.27,17.85,2.66,26.63,5.08,5.15,1.42,10.08,2.77,15.34,3.7,5.07.89,9.16,2.1,13.83,3.75,2.41,0,4.81.01,7.18.02h0Zm5.49-8.88c-3.5-.81-7.15-1.58-11.08-2.21-15.84-2.53-33.16-5.29-48.03-6.6-9.64-.85-19.93.33-29.51,1.56-3.98.51-7.99,1.1-11.97,1.67-12.65,1.84-25.01,3.63-38.99,3.51v.03s0,.03,0,.03v.03s0,.03,0,.03v.5s0,.03,0,.03v.03s0,.03,0,.03v.07s0,.03,0,.03v.39s0,.03,0,.03v.03s0,.03,0,.03v.03s0,.03,0,.03v.03s0,.03,0,.03v.03s0,.03,0,.03v.39s0,.03,0,.03v.03s0,.03,0,.03v.03s0,.03,0,.03v.03c14.1.12,26.5-1.68,39.2-3.52,12.62-1.83,28.98-4.99,41.19-3.92,14.82,1.3,32.12,5.18,47.94,7.7,3.63.58,7.41,1.29,11.28,2.01,0-.75.01-1.52.01-2.31h0Zm-.05-6.52c-6.77-1.03-13.55-2.05-20.03-2.28-5.09-.18-10.18-.53-15.26-1.17-3.57-.45-6.62-.89-9.44-1.29-8.43-1.2-14.78-2.1-23.03-1.84-8.69.27-17.31,1.43-25.9,2.58-15.16,2.03-30.56,4.22-45.83,4.54v.04s0,.04,0,.04v.04s0,.04,0,.04v.04s0,.26,0,.26v.04s0,.07,0,.07v.04s0,.04,0,.04v.11s0,.04,0,.04v.04s0,.04,0,.04v.04s0,.07,0,.07v.04s0,.15,0,.15v.04s0,.04,0,.04v.04s0,.04,0,.04v.04s0,.25,0,.25v.04s0,.04,0,.04v.04s0,.04,0,.04v.07s0,.04,0,.04v.04s0,.04,0,.04v.04s0,.04,0,.04v.04s0,.04,0,.04v.25s0,.04,0,.04c15.4-.36,31.43-3.17,46.04-5.46,8.53-1.34,17.09-2.61,25.71-2.88,16.05-.5,29.37,4.84,47.65,5.1,6.3.09,13.99,1.46,20.15,2.16,0-.59-.01-1.18-.02-1.77h0Zm-.13-6.1c-2.97.02-5.94.09-8.92.15-11.66.22-21.24-.58-32.81-2.11-7.67-1.01-15.44-2.02-23.17-2.11-12.05-.15-25.05,1.69-37.06,3.06-12.27,1.39-24.25,2.75-37.29,3.31v.04s0,.04,0,.04v.04s0,.04,0,.04v.04s0,.04,0,.04v.04s0,.04,0,.04v.04s0,.04,0,.04v.25s0,.04,0,.04v.04s0,.04,0,.04v.04s0,.16,0,.16v.04s0,.04,0,.04v.04s0,.04,0,.04v.04s0,.21,0,.21v.04s0,.04,0,.04v.04s0,.04,0,.04v.04s0,.04,0,.04v.04s0,.08,0,.08v.04s0,.04,0,.04v.04s0,.04,0,.04v.16s0,.04,0,.04v.04s0,.04,0,.04v.04s0,.04,0,.04v.12s0,.04,0,.04v.04s0,.04,0,.04v.04s0,.04,0,.04c24.43-1.16,52.21-7.56,74.4-7.29,7.67.09,15.4.81,23.01,1.81,11.64,1.54,21.16,3.19,32.9,2.97,3.03-.06,6.04-.08,9.06-.08-.02-.79-.04-1.56-.06-2.32h0Zm-.17-4.64c-11.58.33-23.58-.06-36.61-2.06-9.39-1.44-18.87-2.65-28.18-2.65-14.72,0-30.51,1.6-45.26,3.16-9.54,1.01-18.94,2-28.81,2.28v.04s0,.04,0,.04v.04s0,.04,0,.04v.29s-.01.04-.01.04v.04s0,.04,0,.04v.04s0,.04,0,.04v.04s0,.04,0,.04v.04s0,.04,0,.04v.04s-.01.25-.01.25v.04s0,.04,0,.04v.04s0,.04,0,.04v.04s0,.04,0,.04v.04s0,.04,0,.04v.04s0,.04,0,.04v.04s0,.21,0,.21v.04s0,.04,0,.04v.04s0,.04,0,.04v.04s0,.04,0,.04v.04s0,.04,0,.04v.04s0,.04,0,.04v.3s-.01.04-.01.04v.04s0,.04,0,.04v.04c9.39.23,18.99-.81,29.05-2.42,14.61-2.33,30.45-4.32,45.13-4.32s30.27,3.47,45.41,4.78c6.46.56,12.94.7,19.46.58-.03-.71-.05-1.4-.08-2.06h0Zm-.34-5.33c-2.4.03-4.79.04-7.18.02-10.52-.09-21.01-.73-32.19-2.35-3.97-.06-8.1-.12-12.32-.18,2.33.33,4.82.74,7.53,1.26,15.41,2.95,30.07,3.64,44.33,3.37-.05-.82-.11-1.53-.17-2.12h0Zm-105.97-2.98c-10.76,1.13-21.39,2.6-32.21,2.48h0s0,.03,0,.03v.21s-.02.01-.02.01h0s0,.04,0,.04h0s0,.06,0,.06h0s0,.04,0,.04h0s0,.03,0,.03h0s0,.03,0,.03v.21s-.01.02-.01.02v.02s0,.02,0,.02v.21s-.01.02-.01.02c12.92-.22,24.67-.94,37.14-2.08,4.4-.4,8.89-.81,13.47-1.19l.48-.04c-6.59-.05-12.95-.09-18.81-.11h0Z"/><path class="cls-34" d="m77.53,141.24c.06-.06.13-.12.2-.18.88-.82,1.83-1.56,2.81-2.22.67-.44,1.41-.77,2.18-1.01.74-.24,1.52-.39,2.28-.51.82-.12,1.67-.18,2.51-.16.78.02,1.55.12,2.31.31.72.18,1.47.43,2.18.77.73.35,1.42.81,1.99,1.41.47.5.89,1.1,1.18,1.75l-1.7-.02c-.18-.32-.39-.61-.62-.86-.77-.81-1.94-1.24-2.99-1.5-3.36-.84-6.31.24-8.79,2.25l-3.55-.03h0Zm-16.49-.15c1.73-2.22,3.58-4.36,5.62-6.38,8.43-8.35,19.03-14.21,31.54-16.59,4.66-.89,7.71-.53,9.62.89,1.88,1.4,3.23,3.34,3.48,6.83.4,5.46.53,10.72.08,15.7.96,0,1.91.01,2.87.02.21,0,.43,0,.64,0,.51-5.46.38-11.27-.07-17.32-.31-4.29-1.44-7.46-3.95-9.34-4.54-3.38-17.09.63-23.33,3.33-15.05,6.5-22.53,12.8-29.5,22.85.99,0,1.99.02,2.99.03h0Zm-8.37-.07c13.24-17.76,21.94-25.46,45.37-35.01-1.71,0-3.45-.01-5.21-.02-5.35,2.45-10.14,4.88-13.29,6.61-11,6.05-14.54,10.48-22.29,20.02-2.26,2.78-4.39,5.58-6.46,8.38h1.87Zm73.74-34.8c-.05,3.9-.94,11.62-1.95,17.74-1.13,6.83-1.36,12.21-2.19,17.45.69-.01,1.38-.03,2.08-.05.97-5.27,1.6-10.91,2.68-17.41.95-5.74,2.16-13.05,2.54-17.7-.99-.02-2.05-.03-3.15-.04h0Zm-85.06,34.73c.79-1.07,1.59-2.13,2.39-3.19,6.14-8.12,12.61-18.71,20.81-24.49,3.52-2.48,8.07-4.91,13.14-7.28-1.68,0-3.34,0-4.99,0-3.35,1.84-6.47,3.84-9.13,6.05-7.87,6.53-14.88,16.55-21.11,24.79-1.03,1.37-2.07,2.74-3.1,4.1.66,0,1.33,0,1.99.01h0Zm98.48-33.08c-.45,1.19-.87,2.38-1.27,3.56-3.1,9.2-3.81,19.81-6,29.72.73-.02,1.46-.04,2.2-.07.62-2.54,1.17-5.09,1.72-7.64,1.15-5.29,2.37-10.23,3.85-15.24-.12-3.45-.28-6.89-.5-10.34h0Zm-106.84,33.03c8.22-12.54,16.03-25.13,29.33-34.88-.84,0-1.68,0-2.52,0-6.15,5.06-11.87,11.35-18.75,20.58-3.51,4.7-6.87,9.51-10.28,14.28.74,0,1.48,0,2.22.01h0Zm16.74-34.84c-8.3,8.48-15.86,19.1-22.94,28.48-1.59,2.11-3.18,4.21-4.78,6.32,1.12,0,2.24,0,3.38,0,1.16-1.53,2.31-3.06,3.46-4.59,7.38-9.78,14.72-21.57,23.39-30.23-.85,0-1.68,0-2.52,0h0Zm-6.46.03c-3.74,4.36-7.28,8.89-10.68,13.29-3.07,3.99-6.12,8.06-9.14,12.11-2.34,3.14-4.67,6.26-7.04,9.36,1.09,0,2.19,0,3.3,0,1.93-2.55,3.84-5.11,5.76-7.68,6.15-8.23,13.18-18.32,20.54-27.1-.93,0-1.84,0-2.74.01h0Zm-6.48.03c-3.98,4.86-7.8,9.86-11.61,14.85-5.06,6.62-10.13,13.31-15.33,19.89,1,0,2,0,2.98,0,4.75-6.35,9.31-12.71,13.74-18.79,3.93-5.39,7.89-10.77,12.08-15.95h-1.86Zm-6.26.05c-5.38,6.48-10.55,13.19-15.6,19.53-4.07,5.11-8.09,10.16-12.21,15.2h.11s.05,0,.05,0h.05s.05,0,.05,0h.05s.05,0,.05,0h.05s.05,0,.05,0h.05s.05,0,.05,0h.05s.05,0,.05,0h.05s.05,0,.05,0h.05s.05,0,.05,0c.87,0,1.72,0,2.57-.01,9.12-11.8,18.07-23.97,27.09-34.73-.94,0-1.87.01-2.78.02h0Zm-9.19.07c-6.3,7.36-12.43,14.9-18.33,22.2l-.98,1.21v.09c0,.16-.01.31-.01.47v.09s0,.09,0,.09v.37s-.01.09-.01.09v.09s0,.09,0,.09v.38s-.01.17-.01.17v.09s0,.35,0,.35h0s0,.1,0,.1v.09s0,.09,0,.09v.27s-.01.37-.01.37v.22c0,.14,0,.27,0,.4v.15c0,.14,0,.29,0,.43v.14c0,.15,0,.3,0,.45l19.4-28.49ZM1.93,134.81c0,.16,0,.32,0,.48h0c0-.16,0-.32,0-.48h0Zm0,.48c1.16-1.55,2.32-3.12,3.47-4.71,5.86-8.09,12.13-16.4,18.7-24.39-.95,0-1.87.02-2.77.02L1.92,135.29Zm8.98-28.95c-2.32,2.77-4.57,5.47-6.79,8.13-.48.57-.95,1.15-1.43,1.73v.06s-.02.17-.02.17v.06s0,0,0,0l-.02.28v.06s-.02.23-.02.23v.06s-.03.33-.03.33v.2s-.02.06-.02.06l-.02.36v.22s-.02.02-.02.02v.06s-.02.3-.02.3v.06s0,0,0,0v.16s-.04.44-.04.44v.06s-.01.17-.01.17v.02s0,.06,0,.06l-.02.31v.06c1.12-1.34,2.25-2.68,3.39-4.04,2.65-3.18,5.34-6.41,8.09-9.68-1.08.01-2.08.03-3,.04h0Zm93.44,35.13c.17-1.55.21-3.03.11-4.39-.26-3.67-1.5-6.55-3.58-7.89-.26-.17-.54-.31-.83-.43-2.52-1.03-6.27-1.12-10.23-.43-3.89.67-8.02,2.09-11.39,4.08-2.85,1.69-5.43,3.92-7.79,6.49-.67.72-1.31,1.48-1.95,2.25l1.71.02c.55-.68,1.11-1.34,1.69-1.98,2.1-2.3,4.4-4.27,6.95-5.73,3.03-1.72,7.33-2.69,10.88-3.18,6.59-.91,11.52-.52,12.36,7.29.13,1.21.15,2.51.04,3.88l2.02.02h0Z"/><path class="cls-20" d="m4.86,35.53c-1.21,0-2.33-.02-3.35-.03-.41,3.13.22,17.64,1.01,27.03.09-7.71.19-15.16.83-22.87.07-.82.14-1.64.22-2.47,0-.04,0-.08.01-.13,13.02,0,26.02.09,39.01.12,9.46.02,18.91,0,28.36-.11,1.15-.01,2.3-.03,3.45-.05,10.47-.15,21.11-.13,31.58-.62-40.62-.23-81.94-.74-101.13-.88h0Z"/><path class="cls-18" d="m1.45,99.98c.33-3.29.73-6.74,1.1-10.21.31-2.85.59-5.69.82-8.45.21-2.54.36-4.99.42-7.3.02-.79-.15-1.56-.53-2.33,4.81.04,9.62.11,14.43.11,14.64-.02,29.34.05,44.04.02,2.31,0,4.61-.01,6.92-.02,1.47,0,2.93-.01,4.4-.02,14.36-.09,28.67.23,42.97-.32-47.43-.81-98.64-1.33-111.04-.83-1.28.03-2.14.06-2.55.09-.47,2.7-1.03,20.11-.98,29.27h0Z"/><path class="cls-6" d="m2.96,124.07c.83-6.93,1.75-9.94,1.49-16.94,0-.06,0-.13,0-.19,1.05.04,2.09.09,3.14.12,19.2.7,38.24.29,57.33-.42,5.6-.21,11.2-.44,16.82-.68-39.54.05-74.3.24-77.88.58-.05.18-.09.38-.14.6-.98,4.74-1.77,19.17-1.79,28.33.31-3.81.58-7.62,1.04-11.41h0Z"/><path class="cls-22" d="m2.19,2.84c.12,0,.24,0,.36,0,21.67-.59,44.28.57,65.79.3,19.4-.24,38.8-.38,58.32-.45C70.07.24,3-.71.67.57c-.34,1.12-.34,6.23-.13,12.19h0v.38s.01.02.01.02h0s0,.02,0,.02v.02c0,.16.01.33.02.49v.02s0,.02,0,.02h0s0,.02,0,.02v.02c.21,5.6.59,11.78,1.05,16.02,0-5.4.06-10.66.18-15.95,4.91.19,10.06-.25,15.83-1.26,5.52-.97,11-2.21,16.49-3.33,5.36-1.1,10.42-2.05,15.7-2.94-4.16.5-8.75,1.22-14.05,2.11-10.17,1.7-20.7,4.08-33.94,4.36.09-3.27.21-6.55.37-9.9h0Z"/></g><path class="cls-19" d="m140.23,72.3c-.86-.05-1.91-.1-3.14-.14-.67-.04-1.46-.09-2.37-.13,3.74-.06,6.29-.15,7.26-.26.69-11.4,1.28-22.49,1.17-33.26l-2.06-1.69c-1.97-.03-4.09-.05-6.33-.06-.22,0-.44,0-.67,0,2.58-.05,5.04-.1,7.34-.15,1.16-4.15,1.59-28.91,1.16-31.36l-2.01-1.69h0c-.42-.04-.85-.08-1.3-.11.03,0,.07.01.1.02-2.26-.17-4.82-.32-7.65-.46-1.64-.1-3.38-.2-5.22-.3.04,0,.09,0,.13,0-.26-.01-.52-.02-.77-.03-5.01-.26-10.68-.51-16.77-.73-.05-.02-.11-.04-.16-.06-2.17-.08-4.4-.15-6.66-.22.05.02.09.03.14.05-4.98-.16-10.17-.31-15.45-.45-.03-.01-.06-.02-.09-.04-1.95-.05-3.92-.1-5.89-.14,0,0,.02,0,.03.01C39.17-.1,2.39-.37.67.57c-.33,1.12-.34,6.23-.13,12.19v.38s.01.02.01.02h0s0,.02,0,.02v.02c0,.16.01.33.02.49v.02s0,.02,0,.02h0s0,.02,0,.02v.02c.21,5.6.59,11.78,1.05,16.02,0-.02,0-.04,0-.06.27,2.51.56,4.35.86,5,.46.01.95.02,1.42.03l.97.81c-1.21,0-2.33-.02-3.35-.03,0,0,0,0,0,.01-.45,0-.92,0-1.35-.01-.06.43-.09,1.07-.11,1.87,0,0-.02,0-.02-.01H.02c0,.08,0,.16,0,.23v.04s0,.04,0,.04v.04c0,.09,0,.19,0,.29v.04s0,.04,0,.04v.04c0,.1,0,.2,0,.31v.04s0,.04,0,.04H0c0,.1,0,.21,0,.32v.14c0,.09,0,.19,0,.29v.15c0,.11,0,.23,0,.35v.05s0,.05,0,.05v.05c0,.1,0,.21,0,.31v.05s.02,0,.03.01c.02,1.72.07,3.73.16,5.91,0,0-.02,0-.02,0v.04s0,.17,0,.17v.04s0,.04,0,.04v.22s.01.04.01.04v.04s0,.04,0,.04v.22s.01.04.01.04v.04s0,.04,0,.04v.04s0,.09,0,.09v.04s0,.04,0,.04v.04s.01.27.01.27v.04s0,.04,0,.04v.04s0,.04,0,.04v.04s0,.04,0,.04v.04s0,.04,0,.04v.04s.01.27.01.27v.04s0,.04,0,.04v.04s0,.13,0,.13v.04s0,.04,0,.04v.22s.01.04.01.04c0,0,.02,0,.02,0,.08,1.81.18,3.67.29,5.51,0,0-.02,0-.02,0v.04s0,.04,0,.04v.04s0,.04,0,.04l.02.31v.04s0,.04,0,.04v.04s0,.04,0,.04v.04s0,.04,0,.04v.04c.01.15.02.3.03.45v.04s0,.04,0,.04v.04s0,.04,0,.04v.04s.03.4.03.4v.04s0,.04,0,.04v.04s0,.04,0,.04v.04s0,.04,0,.04v.04s.02.31.02.31v.04s0,.04,0,.04v.04s0,.04,0,.04v.09s0,.04,0,.04v.04s.02,0,.03,0c.09,1.39.19,2.74.29,4.01,0,0-.02,0-.02,0v.04s.03.3.03.3v.04s0,.04,0,.04v.11s.01.04.01.04v.04s.03.33.03.33v.04s0,.04,0,.04v.15s.02.04.02.04v.04s.02.22.02.22v.04s0,.04,0,.04h0s.02.21.02.21v.04s0,.04,0,.04v.04s.01.11.01.11v.04s0,.04,0,.04v.04s0,.04,0,.04l.02.21v.03s.02,0,.03,0c.1,1.13.21,2.17.31,3.08,0,0-.02,0-.03,0v.04s0,.04,0,.04c.01.09.02.19.03.28v.04s0,.04,0,.04v.04c.02.1.03.21.04.31v.04s0,.04,0,.04v.04c.02.1.03.19.04.29v.04s0,.04,0,.04v.03c.02.09.03.18.04.27v.03s0,.03,0,.03c.01.1.03.19.04.29v.03s0,.03,0,.03c.01.08.02.16.04.24v.03s.03,0,.03,0c0,.05.02.11.02.15.27.04.78.08,1.5.12l1.54,1.27c-1.9.03-3.23.07-3.85.13-.07.43-.15,1.23-.23,2.3h-.02s0,.03,0,.03v.21s-.02.01-.02.01h0s0,.04,0,.04h0s0,.06,0,.06h0s0,.04,0,.04h0s0,.03,0,.03h0s0,.03,0,.03v.21s-.01.02-.01.02v.02s0,.02,0,.02v.21s-.01.02-.01.02c0,0,.02,0,.02,0-.1,1.53-.19,3.47-.27,5.62,0,0-.02,0-.02,0v.04s0,.04,0,.04v.04s0,.04,0,.04v.29s-.01.04-.01.04v.04s0,.04,0,.04v.04s0,.04,0,.04v.04s0,.04,0,.04v.04s0,.04,0,.04v.04s-.01.25-.01.25v.04s0,.04,0,.04v.04s0,.04,0,.04v.04s0,.04,0,.04v.04s0,.04,0,.04v.04s0,.04,0,.04v.04s0,.21,0,.21v.04s0,.04,0,.04v.04s0,.04,0,.04v.04s0,.04,0,.04v.04s0,.04,0,.04v.04s0,.04,0,.04v.3s-.01.04-.01.04v.04s0,.04,0,.04v.04h.02c-.04,1.14-.08,2.31-.11,3.49,0,0-.02,0-.02,0v.04s0,.04,0,.04v.04s0,.04,0,.04v.04s0,.04,0,.04v.04s0,.04,0,.04v.04s0,.04,0,.04v.25s0,.04,0,.04v.04s0,.04,0,.04v.04s0,.16,0,.16v.04s0,.04,0,.04v.04s0,.04,0,.04v.04s0,.21,0,.21v.04s0,.04,0,.04v.04s0,.04,0,.04v.04s0,.04,0,.04v.04s0,.08,0,.08v.04s0,.04,0,.04v.04s0,.04,0,.04v.16s0,.04,0,.04v.04s0,.04,0,.04v.04s0,.04,0,.04v.12s0,.04,0,.04v.04s0,.04,0,.04v.04s0,.04,0,.04c0,0,.02,0,.02,0-.01.58-.03,1.15-.04,1.72,0,0-.02,0-.02,0v.04s0,.04,0,.04v.04s0,.04,0,.04v.04s0,.26,0,.26v.04s0,.07,0,.07v.04s0,.04,0,.04v.11s0,.04,0,.04v.04s0,.04,0,.04v.04s0,.07,0,.07v.04s0,.15,0,.15v.04s0,.04,0,.04v.04s0,.04,0,.04v.04s0,.25,0,.25v.04s0,.04,0,.04v.04s0,.04,0,.04v.07s0,.04,0,.04v.04s0,.04,0,.04v.04s0,.04,0,.04v.04s0,.04,0,.04v.25s0,.04,0,.04c0,0,.02,0,.02,0,0,.54-.02,1.08-.03,1.61h-.02v.03s0,.03,0,.03v.03s0,.03,0,.03v.5s0,.03,0,.03v.03s0,.03,0,.03v.07s0,.03,0,.03v.39s0,.03,0,.03v.03s0,.03,0,.03v.07s0,.03,0,.03v.06s0,.03,0,.03v.39s0,.03,0,.03v.03s0,.03,0,.03v.03s0,.03,0,.03v.03s.02,0,.02,0c0,.54,0,1.06-.01,1.57,0,0-.02,0-.02,0v.03H.07v.04c0,.18,0,.35,0,.52H.07v.11s0,.03,0,.03v.9s0,.03,0,.03v.32s0,.03,0,.03v.13s.02,0,.02,0c0,1.07.02,2.04.04,2.85h-.02c0,.09,0,.17,0,.26v.17c0,.08.01.15.01.22,0,.06,0,.11,0,.16,0,.07,0,.14,0,.21v.16c.01.06.01.11.02.16,0,.06,0,.12.01.18,0,.04,0,.08,0,.12,0,.06,0,.12.01.18,0,.04,0,.08,0,.11,0,.05,0,.11.01.15v.08s.02.09.02.14c0,.03,0,.05,0,.08h.02c.02.14.04.27.06.35.44-.01.9-.02,1.35-.03,0,0,0,.02,0,.03l1.25,1.06c-.19.01-.35.02-.48.04-1.27,4.88-2.29,26.8-1.8,34.32.47,0,.91,0,1.38,0h0s2.01,1.7,2.01,1.7c51.48,2,82.58,2.17,138.54,0,.09-11.44-.09-22.88-.85-34.32l-1.35-1.13c.84.01,1.67.03,2.47.04.5-7.72.07-29.19-.63-33.16l-2.01-1.69Z"/></g><g><path class="cls-17" d="m28.08,138.18c37.99-.97,69.62-1.56,103.97.15.79.04,1.82.13,2.39-.41.57-.54.53-1.55.54-2.34.04-2.59.19-5.57.09-7.63l-7.6-.68,7.48-1.77c-.7-14.15-1.18-28.4-1.43-42.7l-4.05-1.41,4.01-1.34c-.32-20.36,1.17-39.37,1.89-59.67-2.13-5.27-4.26-9.02-7.08-13.34-.52-.79-1.32-1.35-2.26-1.27-15.18,1.36-87.33,2.86-114.7,1.49-1.49-.07-2.68,1.24-2.71,2.73-.14,5.98.51,9.86.72,15.55l2.94,1.86-1.32,1.74.24,1.34-1.66,1.16c.63,21.19.56,42.29-.19,63.32l2.22,1.16-1.11,2.04,3.14,1.6-4.48,1.14c-.36,8.42-1.65,16.91-1.71,25.1,4.53,4.77,13.6,9.83,20.69,12.17h0Z"/><g><path class="cls-12" d="m28.2,134.48c5.65,1.36,87.83.69,109.57-.81-.17-2.78-.33-5.56-.48-8.34l-7.78-.65,7.66-1.69c-.71-13.5-1.21-27.09-1.47-40.72l-4.15-1.34,4.11-1.28c-.32-19.41-.16-38.89.58-58.25-3.3-4.62-6.59-9.23-9.89-13.85-1.36-.58-97.85.52-120.12,1.35.38,6.26.69,12.51.93,18.76l3.02,1.78-1.36,1.66.25,1.28-1.7,1.11c.65,20.21.58,40.34-.2,60.39l2.27,1.1-1.14,1.95,3.22,1.52-4.59,1.09c-.38,8.32-.88,16.62-1.5,24.91v.02c7.59,3.34,15.19,6.68,22.78,10.02h0Z"/><path class="cls-9" d="m28.18,134.47c-7.59-3.34-15.19-6.68-22.79-10.02.71-1.09,7.81-6.71,8.78-6.81.94-.1,11.64,14.76,14,16.82h0Z"/><path class="cls-10" d="m136.22,21.39c-2.28-1.09-11.99-2.67-12.44-3.66-.35-.78,2.03-7.44,2.55-10.19,3.3,4.62,6.59,9.23,9.89,13.85h0Z"/><path class="cls-23" d="m12.83,120c4.79,4.95,10.38,10.43,15.37,14.48-1.68,0-22.8-8.37-22.8-10.02,2.28-1.68,4.72-3.21,7.43-4.46h0Z"/><path class="cls-24" d="m136.22,21.39c-3.9-1.75-7.82-3.47-11.57-5.51.74-2.73,1.23-5.53,1.67-8.33.96,0,9.89,12.81,9.89,13.85h0Z"/><path class="cls-14" d="m23.44,132.39c-1.31-4.74-11.52-10.54-14.97-10.03,1.38-.86,2.82-1.65,4.36-2.36,4.78,4.94,10.35,10.4,15.33,14.45.01.01.03.02.04.03-.44,0-2.23-.58-4.63-1.47-.02-.21-.06-.41-.12-.62,0,0,0,0,0,0h0Z"/><path class="cls-13" d="m126.2,14.94c1.14,2.64,6.15,4.52,9.18,5.27.12.03.23.06.34.08.32.56.5.95.5,1.1-.09-.04-.2-.09-.32-.14-3.79-1.7-7.6-3.38-11.25-5.37.74-2.73,1.23-5.53,1.67-8.33.06,0,.15.05.26.14-.02.05-.04.1-.05.16-.62,1.88-1.12,5.31-.34,7.11h0Z"/><path class="cls-3" d="m30.91,131.92c-2.64-1.22-3.69-3.36-5.14-6.85-4.15-9.99-9.57-8.2-13.92-10.92-2.9-1.82-3.81-7.31,1.55-14.7,4.95-6.82-4.04-14.36-3.72-28.63.2-9.14,5.1-23.57,5.9-27.83.74-3.93,1.67-6.03-2.06-11.63-1.44-2.16.18-3.17-3.35-8.65-1.85-2.87-1.26-4.91.55-6.39,5.65-4.62,16-5.83,26.18-4.62,28.53,3.41,30.26,5.46,54.45.78,6.38-1.23,8.66-.88,12.78-1.36,3.18-.37,6.51-.89,9.26-.07,5.7,1.71,3.01,7.37,7.92,10.83,7.07,4.99,14.76-1.97,11.26,12.55-1.76,7.3-3.83,15.78-.51,24.82.96,2.61.94,9.19-.14,11.6-4.31,9.62-8.3,8.12-2.57,13.62,4.67,4.48-1.9,8.16,1.46,13.18,3.26,4.86,1.71,9.58-1.9,19.5-.49,1.35,1.94,3-2.59,5.64-3.16,1.84,8.04,7.13-17.27,7.13-7.18,0-9.39,2.65-16.65,2.43-6.35-.19-10.78.14-15.75.46-9.09.58-18.27-1.56-19.59-1.51-10.43.35-17.66,4.52-26.15.59h0Z"/><path class="cls-11" d="m19.69,112.91c-3.48-3.14-5.15-5.53-2.75-14.26,3.56-12.98-3.42-16.27-4.18-24.35-.98-10.36-.17-5.29,3.56-12.61,2.3-4.52-3.86-5.93,3.3-14.42,5.32-6.31,4.04-11.46-.81-17.24-3.93-4.68-4.38-11.1-.17-14.2,6.57-4.85,14.09.63,19.25.94,1.55.09,3.53-.27,6.79-1.54,3.71-1.44,13.2,2.59,20.41,3.89,8.25,1.48,15.39,1.32,26.09-4.28,9.34-4.89,22.34,1.79,24.97,6.68.72,1.33,5.65.2,6.52,7.81.38,3.32,8.62,5.44,3.75,14.4-.89,1.64-1.51,11.12.08,13.96,1.83,3.25,1.83,10.53-.08,13.35-5.41,7.98,2.32,14.54-1.65,20.34-4.03,5.88-.58,10.56-.58,15.04,0,9.43-3.35,3.71-1.47,12.91,1.64,8.03-4.99,9.13-11.97,7.52-4.65-1.07-11.31,2.95-18.44,3.31-8.6.43-10.53-3.81-17.85-2.49-11.17,2.02-15.4-4.47-23.16.6-5.95,3.89-11.71,2.92-14.31.29-3.32-3.36.55.85-4.59-6.23-4.97-6.83-10.93-7.84-12.7-9.43h0Z"/></g></g></g></g></g></svg>