<?xml version="1.0" encoding="UTF-8"?><svg xmlns="http://www.w3.org/2000/svg" xmlns:xlink="http://www.w3.org/1999/xlink" viewBox="0 0 675.38 76.21"><defs><style>.cls-1{fill:url(#linear-gradient-4);}.cls-1,.cls-2,.cls-3,.cls-4,.cls-5,.cls-6,.cls-7,.cls-8,.cls-9,.cls-10,.cls-11,.cls-12{fill-rule:evenodd;}.cls-13,.cls-2{fill:#fff;}.cls-3{fill:#992c3a;}.cls-3,.cls-5,.cls-14{mix-blend-mode:multiply;}.cls-3,.cls-14{opacity:.5;}.cls-15{isolation:isolate;}.cls-4{fill:url(#linear-gradient-2);}.cls-5{fill:#be4a54;opacity:.7;}.cls-6{fill:url(#linear-gradient);}.cls-7{fill:url(#linear-gradient-6);}.cls-16{clip-path:url(#clippath-1);}.cls-8{fill:url(#linear-gradient-5);}.cls-17{clip-path:url(#clippath);}.cls-18{fill:none;}.cls-9{fill:url(#linear-gradient-7);}.cls-10{fill:url(#linear-gradient-8);}.cls-11{fill:url(#linear-gradient-3);}.cls-19{opacity:.3;}.cls-12{fill:#3f238e;}</style><clipPath id="clippath"><rect class="cls-18" x="-2406.08" y="222.81" width="1939.33" height="1090.87"/></clipPath><clipPath id="clippath-1"><rect class="cls-18" x="-3002.17" y="215.27" width="4096.11" height="1105.95" transform="translate(-1908.23 1536.49) rotate(180)"/></clipPath><linearGradient id="linear-gradient" x1="9531.31" y1="1093.99" x2="9390.13" y2="243.74" gradientTransform="translate(9805.64) rotate(-180) scale(1 -1)" gradientUnits="userSpaceOnUse"><stop offset="0" stop-color="#dbcfc1"/><stop offset=".11" stop-color="#c7bbae"/><stop offset=".39" stop-color="#9a8c81"/><stop offset=".64" stop-color="#796b61"/><stop offset=".85" stop-color="#65564d"/><stop offset=".99" stop-color="#5e4f46"/></linearGradient><linearGradient id="linear-gradient-2" x1="-19179.46" y1="1256.37" x2="-19396.55" y2="-51" gradientTransform="translate(4476.88) scale(.2 1)" xlink:href="#linear-gradient"/><linearGradient id="linear-gradient-3" x1="-13407.87" y1="1390.81" x2="-13566.73" y2="434.08" gradientTransform="translate(4600.65 -61.49) rotate(3.82) scale(.29 1) skewX(-.02)" xlink:href="#linear-gradient"/><linearGradient id="linear-gradient-4" x1="9554.46" y1="1136.46" x2="9558.64" y2="245.42" gradientTransform="translate(9805.64) rotate(-180) scale(1 -1)" gradientUnits="userSpaceOnUse"><stop offset="0" stop-color="#272d6e"/><stop offset=".06" stop-color="#26266b"/><stop offset=".15" stop-color="#261366"/><stop offset=".19" stop-color="#260863"/><stop offset=".99" stop-color="#000016"/></linearGradient><linearGradient id="linear-gradient-5" x1="9779.33" y1="509.47" x2="9779.33" y2="190.99" gradientTransform="translate(9805.64) rotate(-180) scale(1 -1)" gradientUnits="userSpaceOnUse"><stop offset="0" stop-color="#001154"/><stop offset=".22" stop-color="#000f4d"/><stop offset=".52" stop-color="#000a3a"/><stop offset=".87" stop-color="#00031b"/><stop offset=".99" stop-color="#00000f"/></linearGradient><linearGradient id="linear-gradient-6" x1="9289.19" y1="162.94" x2="9184.3" y2="1515.97" xlink:href="#linear-gradient-4"/><linearGradient id="linear-gradient-7" x1="9150.53" y1="208.8" x2="9292.17" y2="208.8" gradientTransform="translate(9805.64) rotate(-180) scale(1 -1)" gradientUnits="userSpaceOnUse"><stop offset="0" stop-color="#20255c"/><stop offset=".32" stop-color="#1a1e57"/><stop offset=".78" stop-color="#090b4c"/><stop offset="1" stop-color="#000045"/></linearGradient><linearGradient id="linear-gradient-8" x1="9188.73" y1="231.92" x2="9270.43" y2="231.92" xlink:href="#linear-gradient-7"/><clipPath id="clippath-2"><rect class="cls-18" x="1196.94" y="280.84" width="1947.32" height="1095.37"/></clipPath><clipPath id="clippath-3"><rect class="cls-18" x="864.48" y="274.28" width="2463.31" height="1108.49"/></clipPath></defs><g class="cls-15"><g id="layer1"><g class="cls-17"><g class="cls-16"><g class="cls-14"><path class="cls-6" d="m443.89,38.09l-14.64,577.29,39.74,328.39-64.84,4.18-23.01-328.39L249.37,222.15l16.73-8.37s104.58,351.39,119.22,353.49c14.64,2.09,2.09-527.09,2.09-527.09l56.47-2.09Z"/><polygon class="cls-4" points="673.5 1156.21 677.01 -110.81 690.41 -128.56 705.08 1140.11 673.5 1156.21"/><polygon class="cls-11" points="563 987.35 621.68 65.94 636.97 54.11 597.93 978.2 563 987.35"/></g><g><g><path class="cls-1" d="m192.1,1124.21l31.95,6.72.33.08s-.16-1.23-.37-3.52l35.84,1.76,6.64,4.18,13.64,7.13,6.76,3.52s-19.01-71.19-20.69-208.78c-.2-16.67-.33-34.41-.41-53.13-.2-50.83.08-109.2,1.23-175.11,1.02-57.3,2.66-120.3,5.16-189.08,0-.94.04-1.93.08-2.91,14.87-409.12,32.11-450.41,32.89-452.13l-29.37,27.94-16.55,15.77s-8.93,172.61-20.52,375.74l-.08,1.52-.2,3.52-.61,10.65-.41,7.17-.41,7.13-.08,1.92c-7.58,131.61-16.1,272.68-23.96,386.1-3.48,50.71-6.88,95.89-9.95,132.22-4.3,50.83-8.07,84.34-10.9,91.59Z"/><path class="cls-3" d="m230.85,992.85c-12.9,58.45-8.27,119.57-6.84,134.64l35.84,1.76,6.64,4.18,13.64,7.13,5.57.94s-51.28-56.65-25.31-177.85c2.29-10.65,4.22-20.07,5.82-28.34-.2-16.67-.33-34.41-.41-53.13,0,0-22.65-64.35-15.2-99.33,4.3-20.15,7.7-188.46,12.82-212.01,1.02-57.3,6.14,12.08,8.77-52.84,0-.94.04-1.93.08-2.91,14.87-409.12,32.11-450.41,32.89-452.13l-29.37,27.94c-.9,103.67-2.42,275.18-2.54,280.42-.16,7.54-34.53,111.09-34.53,111.09l-.08,1.52-.2,3.52-.61,10.65-.41,7.17-.41,7.13-.08,1.92s21.63-90.56,26.42-90.56c4.75.08,6.1,122.02,6.1,122.02,0,0-5.82-11.51-9.5,12.74-2.87,19.13-33.02,273.5-46.98,341.9-3.48,50.71-6.88,95.89-9.95,132.22,13.44-57.92,36.62-157.41,43.09-182.32,9.34-35.72,8.19,43.58,9.99,43.62,1.8.04-10.36,31.62-25.23,98.92Z"/></g><g><path class="cls-8" d="m-571.06,338.57c42.14,24.09,108.43,22.53,108.43,22.53l16.8-25.52c-.14.7-.88,4.26.65,8.68.05.2.09.37.18.57.78,2.13,2.12,4.42,4.2,6.72.42.41.78.82,1.25,1.27,4.11,3.77,10.62,7.37,20.86,9.83.55.16,1.15.25,1.85.33,1.25.16,2.77.2,4.48.2h.09c16.71-.29,102.52,90.59,232.58,63.49l.09-.04h.09l5.26-1.68c22.43-7.09,40.39-12.9,49.85-16.06l3.79-1.23,3.14-1.02.28-.08c-117.75,50.55-66.01,120.38-66.01,120.38,0,0,132.52,29.94,152.37,22.16,19.11-7.45,47.13-47.64,49.25-50.75l.14-.16v.66c0,5.86,12.18,6.02,57.6,1.68,21.83-2.09,31.99-11.59,36.51-21.42,3.83-8.4,3.65-17.04,3.14-21.59,1.2,5.49,5.26,16.75,18.79,25.68,5.08,3.36,11.49,6.39,19.62,8.64,8.08,2.25,17.91,3.77,29.73,4.01,17.03.41,46.34-3.03,80.73-9.46,9.74-1.8,19.89-3.85,30.28-6.1,96.7-21.14,187.3-138.74,192.15-181.38,2.54-22.04,3.28-40.06,3.23-54.23-.05-4.92-.18-9.38-.37-13.35-.09-2.33-.23-4.55-.37-6.55v-.08c.23.37.51.78.78,1.19.83,1.15,1.89,2.33,3.09,3.48,1.8,1.72,4.02,3.4,6.74,4.92,3.28,1.88,7.25,3.52,12.09,4.92,8.86,2.58,20.63,4.18,36.23,4.18,37.34,0,71.32-32.93,82.44-69.22,1.11-3.6,1.98-7.21,2.59-10.85,2.82-16.02.92-32.11-7.39-45.88-1.75-2.99-3.83-5.82-6.19-8.56-4.89-5.53-10.99-10.49-18.56-14.71-8.4-4.67-18.51-8.4-30.6-10.9-115.63-24.09-435.42-33.42-484.81-31.87-35.64,1.11-59.68,30.39-70.3,46.57.18-5.41-4.89-11.47-25.48-14.71-42.14-6.59-77.09-6.23-96.34,1.56-2.95,1.19-5.4,3.36-7.39,6.23-.23.33-.46.61-.65.94-.23.29-.42.61-.6.94-2.86,4.92-4.8,11.26-6.05,17.82-3,15.81-2.22,32.77-2.22,32.77,0,0-16.89-4.1-43.34-9.05-19.62-3.69-44.5-7.91-71.64-11.26h-.05c-30.37-3.81-63.61-6.59-95.55-6.59-35.03,0-68.45,3.36-94.77,12.49-15.19,5.32-30.05,13.23-44.13,22.98h-.05l-.14.12c-42.79,29.61-78.56,75.86-96.75,115.26l-.09.2-.37.86c-14.91,32.85-17.4,60.79-1.2,70.04Z"/><g><path class="cls-7" d="m564.01,1105.72c.2,43.38-.45,82.45-1.72,117.6-3.36,92.86-11.18,158.44-19.87,204.31-.61,3.15-1.19,6.23-1.8,9.18-.33,1.39-.61,2.79-.9,4.14-3.32,15.89-6.72,29.08-9.99,39.98-3.36,11.18-6.59,19.95-9.46,26.75-6.84,16.26-11.71,21.34-11.71,21.34l4.06-.12,16.88-.57,15.77-.53,26.5-.86,23.47-.78,44.77-1.47,16.1-.53,53.25-1.76c-1.35-.82-2.74-4.46-4.14-10.57v-.04c-3.28-14.38-6.55-42.39-9.79-79.63v-.08c-6.43-73.77-12.7-183.67-18.15-294.63v-.12c-1.31-27.2-2.58-54.44-3.81-81.23-7.54-165.69-12.78-314.17-13.44-323.88-.25-4.01-1.11-8.27-2.38-12.62-.74-2.46-1.6-4.92-2.54-7.37-1.88-4.96-4.1-9.83-6.31-14.21-1.11-2.17-2.21-4.26-3.24-6.23-1.47-2.7-2.87-5.12-4.06-7.09-.41-.66-.74-1.23-1.06-1.76-.16-.29-.33-.53-.49-.78-.2-.33-.37-.61-.53-.86-.12-.16-.2-.33-.29-.49-.41-.61-.7-1.11-.94-1.47-.12-.16-.2-.29-.29-.41-.12-.2-.16-.29-.16-.29l-2.54-41.53-3.24-53.25-.2-3.36-.74-12.12-4.87-79.83-2.99-49.19-3.52-139.96-3.6-145-.04-1.19-1.8-71.4-4.63-185.68-52.27-84.71-9.83-15.93-5.24-8.48-26.75-43.3-14.17-22.98s.94,28.47,2.58,74.75c2.46,68.36,6.39,175.48,10.9,286.93,3.11,77.05,6.51,156.14,9.91,225.9,3.07,63.98,6.19,120.1,9.01,159.5.53,7.54,1.06,15.16,1.6,22.86,1.72,23.8,3.4,48.25,5.08,73.2.66,10.04,1.31,20.19,2.01,30.39,1.11,17.12,2.21,34.45,3.28,51.86.08,1.27.16,2.58.25,3.85.33,5.53.7,11.06,1.02,16.63.66,10.85,1.31,21.71,1.93,32.65.33,5.78.7,11.55,1.02,17.37.25,4.55.49,9.09.78,13.68.16,3.52.37,7.09.57,10.61.45,7.91.86,15.81,1.27,23.72.29,5.12.57,10.2.82,15.32.45,8.68.9,17.41,1.35,26.09.57,12,1.15,23.96,1.72,35.92.33,7.29.66,14.58.98,21.87.08,2.42.2,4.83.33,7.25.2,4.92.41,9.75.61,14.62.08,2.17.16,4.34.25,6.55.04.74.08,1.52.12,2.25.12,3.07.25,6.14.37,9.18.16,4.75.37,9.46.53,14.17.12,2.58.2,5.12.29,7.66.12,3.44.25,6.88.37,10.28.08,1.72.12,3.4.2,5.12.12,3.4.2,6.8.33,10.2.08,1.68.12,3.4.16,5.08.12,3.36.25,6.76.33,10.12.08,1.68.12,3.36.16,5.04s.12,3.36.16,5.04c.08,3.07.2,6.19.29,9.26.12,5.24.29,10.45.41,15.65.94,36.37,1.56,71.4,1.72,104.45Z"/><path class="cls-9" d="m513.47-240.71l1.11,36.17,8.85,286.85,6.92,225.7,1.88,60.99,31.7,117.48,44.4,164.87s31.87,53.17,46.78,60.87c-1.88-4.96-4.1-9.83-6.31-14.21-1.06-2.21-2.17-4.3-3.24-6.23-1.47-2.7-2.87-5.12-4.06-7.09-.41-.66-.74-1.23-1.06-1.76-.16-.29-.33-.53-.49-.78-.29-.49-.57-.94-.82-1.35-.41-.61-.7-1.11-.94-1.47-.12-.16-.2-.29-.29-.41-.12-.2-.16-.29-.16-.29l-2.54-41.53c-11.43-25.85-30.35-70.33-47.76-119.97-.04-.12-.08-.2-.08-.25v-.04h-.04v-.04c-.49-1.39-.98-2.83-1.47-4.22-1.43-4.22-2.91-8.44-4.3-12.66v-.04s-.04-.12-.08-.16c-7.17-21.5-13.93-43.71-19.54-65.46-4.34-16.88-8.03-33.55-10.69-49.48v-.04c-.74-4.3-1.39-8.6-1.93-12.82-.37-2.66-.74-5.28-1.02-7.91v-.04c-1.27-10.4-2.42-30.35-3.4-56.85-.98-25.4-1.8-56.77-2.46-91.47-.04-.08-.04-.2-.04-.29-.53-28.59-.98-59.43-1.35-90.97l-.12-10.57c-.12-10.49-.25-21.05-.33-31.58-1.15-124.77-.82-250.44,1.02-286.77.16-3.89.37-6.76.61-8.48,3.15-23.92,6.72-37.44,6.72-37.44l-28.51-44.12-.04-.04-4.92,38.3-2.01,15.61Z"/><path class="cls-10" d="m535.21,68.79c14.22,139.19,56.59,248.4,66.87,247.75,10.29-.65,14.82-47.48,14.82-47.48v88.23l-14.82,37.76-57.11-233.15-9.77-93.11Z"/><path class="cls-5" d="m501.3-279.3s.94,28.47,2.58,74.75c2.46,68.36,6.39,175.48,10.9,286.93,3.11,77.05,6.51,156.14,9.91,225.9,3.07,63.98,6.19,120.1,9.01,159.5l-.9,22.9-2.79,72.62-1.31,33.47-.74,19.17s7.99,17.33,17.94,34c.33,5.53.7,11.06,1.02,16.63.66,10.85,1.31,21.71,1.93,32.65.33,5.78.7,11.55,1.02,17.37.25,4.55.49,9.09.78,13.68.16,3.52.37,7.09.57,10.61.45,7.91.86,15.81,1.27,23.72.29,5.12.57,10.2.82,15.32.45,8.68.9,17.41,1.35,26.09.57,12,1.15,23.96,1.72,35.92.33,7.29.66,14.58.98,21.87.08,2.42.2,4.83.33,7.25.2,4.92.41,9.75.61,14.62.08,2.17.16,4.34.25,6.55.04.74.08,1.52.12,2.25.12,3.07.25,6.14.37,9.18.16,4.75.37,9.46.53,14.17.12,2.58.2,5.12.29,7.66.12,3.44.25,6.88.37,10.28.08,1.72.12,3.4.2,5.12.12,3.4.2,6.8.33,10.2.08,1.68.12,3.4.16,5.08.12,3.36.25,6.76.33,10.12.08,1.68.12,3.36.16,5.04s.12,3.36.16,5.04c.08,3.07.2,6.19.29,9.26.12,5.24.29,10.45.41,15.65v222.05c-3.36,92.86-11.18,158.44-19.87,204.31-.61,3.15-1.19,6.23-1.8,9.18,4.06-4.42,7.82-8.03,10.53-10.57,1.23-1.15,2.29-2.09,3.03-2.7.9-.86,1.43-1.27,1.43-1.27.37-2.46,25.85-181.87,28.59-229.59,2.79-48.01,4.51-144.96,4.51-144.96h11.63l-15.11-45.92,1.43-26.75,9.63-3.48,8.64,14.38,1.19,2.05c-5.08-33.96-13.31-89.17-13.56-90.81v-.04c-.33-2.46,3.73-12,3.73-12,0,0,11.88,24.54,18.39,37.03,0,.04.04.04.04.08,1.93,3.69,3.4,6.27,3.93,6.92.08.08.12.04.12-.16,0-5.08-27.77-104.7-31.13-116.66l-.33-1.15-9.67-86.18-1.43-12.82-5.69-57.59-4.96-50.26v-.04c-.04-.53-.37-5.86-.82-13.97-.41-6.88-.86-15.73-1.31-25.4-1.35-28.26-2.46-63.37-.57-74.96.29-1.72.61-2.95,1.06-3.52,1.43-1.97,4.1-.25,7.21,3.32,4.75,5.49,10.57,15.28,14.71,22.77,2.42,4.3,4.22,7.82,5,9.3-1.06-2.42-4.83-10.98-9.3-21.96v-.04s-.04-.12-.08-.16c-1.31-3.19-2.66-6.55-4.06-10.04-8.72-22.12-17.98-48.46-15.48-55.42,4.22-11.76,26.09,27.77,28.96,32.93l-31.54-73.32-.33-.78c-.04-.2-3.48-34.45-8.36-86.39-2.46-26.54-5.28-57.71-8.27-91.34-3.65-41.94-7.45-87.74-10.9-133.08-9.54-125.42-16.14-247.2-8.52-274.64l11.35-12.17,7.91-8.48c3.15-23.92,6.72-37.44,6.72-37.44l-28.51-44.12-4.96,38.26-14.17-22.98Z"/></g></g></g></g></g></g><g id="Calque_3"><g><g class="cls-19"><path d="m647.77,74.82H28.16c-9.31,0-16.89-7.33-16.89-16.33V17.72C11.27,8.72,18.85,1.39,28.16,1.39h619.61c9.31,0,16.89,7.33,16.89,16.33v40.77c0,9-7.58,16.33-16.89,16.33Z"/></g><g><path class="cls-13" d="m648.92,76.21H27.23c-9.35,0-16.95-7.6-16.95-16.95V16.95C10.28,7.6,17.88,0,27.23,0h621.69c9.35,0,16.95,7.6,16.95,16.95v42.32c0,9.35-7.6,16.95-16.95,16.95ZM27.23,7.78c-5.06,0-9.17,4.11-9.17,9.17v42.32c0,5.06,4.11,9.17,9.17,9.17h621.69c5.06,0,9.17-4.11,9.17-9.17V16.95c0-5.06-4.11-9.17-9.17-9.17H27.23Z"/><g><path class="cls-2" d="m15.54,61.47h-4.04s0,2.39,0,2.39c0-7.98-2.47-14.84-7.57-20.99l-3.94-4.76,3.94-4.76c5.09-6.15,7.57-13.01,7.57-20.99v2.86h4.04s0-2.86,0-2.86c0,7.98,2.47,14.84,7.56,20.99l3.94,4.76-3.94,4.76c-5.09,6.15-7.56,13.01-7.56,20.99v-2.39Z"/><path class="cls-12" d="m12.4,54.57c.52-3.67.12-11.89-5.05-16.47-.26-.41,4.41-6.11,3.93-13.68-1.79,5.45-4.53,10.04-8.23,13.77,4.46,3.66,7.91,8.67,9.35,16.38Z"/></g><g><path class="cls-2" d="m659.83,14.75h4.04s0-2.39,0-2.39c0,7.98,2.47,14.84,7.57,20.99l3.94,4.76-3.94,4.76c-5.09,6.15-7.57,13.01-7.57,20.99v-2.86h-4.04s0,2.86,0,2.86c0-7.98-2.47-14.84-7.56-20.99l-3.94-4.76,3.94-4.76c5.09-6.15,7.56-13.01,7.56-20.99v2.39Z"/><path class="cls-12" d="m662.97,54.57c-.52-3.67-.12-11.89,5.05-16.47.26-.41-4.41-6.11-3.93-13.68,1.79,5.45,4.53,10.04,8.23,13.77-4.46,3.66-7.91,8.67-9.35,16.38Z"/></g></g></g></g></g></svg>