<?xml version="1.0" encoding="UTF-8"?><svg xmlns="http://www.w3.org/2000/svg" xmlns:xlink="http://www.w3.org/1999/xlink" viewBox="0 0 799.84 672.85"><defs><style>.cls-1{fill:url(#_Áåçûìÿííûé_ãðàäèåíò_225-3);}.cls-1,.cls-2,.cls-3,.cls-4,.cls-5,.cls-6,.cls-7,.cls-8,.cls-9,.cls-10,.cls-11,.cls-12,.cls-13,.cls-14,.cls-15,.cls-16,.cls-17,.cls-18,.cls-19,.cls-20,.cls-21,.cls-22,.cls-23,.cls-24,.cls-25,.cls-26,.cls-27,.cls-28,.cls-29,.cls-30,.cls-31,.cls-32,.cls-33,.cls-34,.cls-35,.cls-36,.cls-37,.cls-38,.cls-39,.cls-40,.cls-41,.cls-42,.cls-43,.cls-44,.cls-45,.cls-46,.cls-47,.cls-48,.cls-49,.cls-50,.cls-51,.cls-52,.cls-53,.cls-54,.cls-55,.cls-56,.cls-57,.cls-58,.cls-59,.cls-60,.cls-61,.cls-62,.cls-63,.cls-64,.cls-65,.cls-66,.cls-67,.cls-68,.cls-69,.cls-70,.cls-71,.cls-72{mix-blend-mode:multiply;}.cls-1,.cls-2,.cls-4,.cls-6,.cls-10,.cls-15,.cls-21,.cls-22,.cls-23,.cls-30,.cls-33,.cls-36,.cls-38,.cls-44,.cls-73,.cls-53,.cls-54,.cls-56,.cls-58,.cls-61,.cls-63,.cls-69{opacity:.8;}.cls-2{fill:url(#_Áåçûìÿííûé_ãðàäèåíò_225-10);}.cls-74{filter:url(#luminosity-noclip-11);}.cls-75{fill:url(#_Áåçûìÿííûé_ãðàäèåíò_228-2);}.cls-3{fill:url(#_Áåçûìÿííûé_ãðàäèåíò_91-3);}.cls-4{fill:url(#_Áåçûìÿííûé_ãðàäèåíò_225-4);}.cls-5{fill:url(#_Áåçûìÿííûé_ãðàäèåíò_221-23);}.cls-5,.cls-9,.cls-11,.cls-12,.cls-13,.cls-14,.cls-16,.cls-17,.cls-18,.cls-19,.cls-20,.cls-24,.cls-25,.cls-26,.cls-27,.cls-29,.cls-31,.cls-32,.cls-34,.cls-35,.cls-37,.cls-39,.cls-41,.cls-42,.cls-46,.cls-48,.cls-49,.cls-50,.cls-52,.cls-55,.cls-57,.cls-62,.cls-65,.cls-66,.cls-68,.cls-70,.cls-71,.cls-72{opacity:.53;}.cls-76{fill:#f4f4f4;}.cls-77{fill:url(#_Áåçûìÿííûé_ãðàäèåíò_221-30);}.cls-78,.cls-79{fill:#ffdad4;}.cls-80{filter:url(#luminosity-noclip-17);}.cls-81{fill:url(#_Áåçûìÿííûé_ãðàäèåíò_466);}.cls-6{fill:url(#_Áåçûìÿííûé_ãðàäèåíò_235);}.cls-82{fill:url(#_Áåçûìÿííûé_ãðàäèåíò_221-29);}.cls-82,.cls-83,.cls-84,.cls-73,.cls-85,.cls-86,.cls-87,.cls-88,.cls-89,.cls-90,.cls-91,.cls-92{mix-blend-mode:screen;}.cls-82,.cls-84,.cls-85,.cls-86,.cls-87,.cls-88,.cls-89,.cls-90{opacity:.39;}.cls-93{mask:url(#mask-10);}.cls-7{fill:url(#_Áåçûìÿííûé_ãðàäèåíò_91-5);}.cls-8{fill:url(#_Áåçûìÿííûé_ãðàäèåíò_91-6);}.cls-94,.cls-95{fill:#662844;}.cls-9{fill:url(#_Áåçûìÿííûé_ãðàäèåíò_221-11);}.cls-10{fill:url(#_Áåçûìÿííûé_ãðàäèåíò_225-13);}.cls-96{filter:url(#luminosity-noclip-7);}.cls-11{fill:url(#_Áåçûìÿííûé_ãðàäèåíò_221-8);}.cls-97{fill:url(#_Áåçûìÿííûé_ãðàäèåíò_233);}.cls-98{filter:url(#luminosity-noclip-13);}.cls-99{mask:url(#mask-17);}.cls-100{fill:url(#_Áåçûìÿííûé_ãðàäèåíò_233-6);}.cls-12{fill:url(#_Áåçûìÿííûé_ãðàäèåíò_221-7);}.cls-101{fill:#fff;}.cls-101,.cls-79,.cls-95,.cls-83,.cls-102,.cls-103,.cls-104,.cls-105,.cls-69{fill-rule:evenodd;}.cls-13{fill:url(#_Áåçûìÿííûé_ãðàäèåíò_221-36);}.cls-14{fill:url(#_Áåçûìÿííûé_ãðàäèåíò_221-40);}.cls-106{filter:url(#luminosity-noclip-5);}.cls-15{fill:url(#_Áåçûìÿííûé_ãðàäèåíò_234);}.cls-16{fill:url(#_Áåçûìÿííûé_ãðàäèåíò_221-2);}.cls-107{fill:url(#Dégradé_sans_nom_166-2);}.cls-108{fill:url(#_Áåçûìÿííûé_ãðàäèåíò_232-2);}.cls-109{fill:url(#_Áåçûìÿííûé_ãðàäèåíò_223-2);}.cls-110{mask:url(#mask-2);}.cls-17{fill:url(#_Áåçûìÿííûé_ãðàäèåíò_221-42);}.cls-18{fill:url(#_Áåçûìÿííûé_ãðàäèåíò_221-48);}.cls-19{fill:url(#_Áåçûìÿííûé_ãðàäèåíò_221-44);}.cls-111{isolation:isolate;}.cls-112{fill:url(#_Áåçûìÿííûé_ãðàäèåíò_227);}.cls-20{fill:url(#_Áåçûìÿííûé_ãðàäèåíò_221-20);}.cls-21{fill:url(#_Áåçûìÿííûé_ãðàäèåíò_225-15);}.cls-22{fill:url(#_Áåçûìÿííûé_ãðàäèåíò_225-6);}.cls-23{fill:url(#_Áåçûìÿííûé_ãðàäèåíò_225-14);}.cls-113{mask:url(#mask-13);}.cls-24{fill:url(#_Áåçûìÿííûé_ãðàäèåíò_221-3);}.cls-114{mask:url(#mask-3);}.cls-25{fill:url(#_Áåçûìÿííûé_ãðàäèåíò_221-37);}.cls-26{fill:url(#_Áåçûìÿííûé_ãðàäèåíò_221-24);}.cls-27{fill:url(#_Áåçûìÿííûé_ãðàäèåíò_221-47);}.cls-28{fill:url(#_Áåçûìÿííûé_ãðàäèåíò_226);}.cls-28,.cls-51,.cls-60,.cls-67{opacity:.4;}.cls-83,.cls-91{fill:#ff6b72;opacity:.81;}.cls-102{fill:url(#_Áåçûìÿííûé_ãðàäèåíò_228-4);}.cls-115{fill:url(#_Áåçûìÿííûé_ãðàäèåíò_229);}.cls-116{filter:url(#luminosity-noclip-15);}.cls-29{fill:url(#_Áåçûìÿííûé_ãðàäèåíò_221-6);}.cls-117{fill:url(#Dégradé_sans_nom_166-4);}.cls-30{fill:url(#_Áåçûìÿííûé_ãðàäèåíò_225-9);}.cls-31{fill:url(#_Áåçûìÿííûé_ãðàäèåíò_221-43);}.cls-84{fill:url(#_Áåçûìÿííûé_ãðàäèåíò_221-12);}.cls-118{fill:url(#_Áåçûìÿííûé_ãðàäèåíò_227-3);}.cls-32{fill:url(#_Áåçûìÿííûé_ãðàäèåíò_221-21);}.cls-119{mask:url(#mask-9);}.cls-33{fill:url(#_Áåçûìÿííûé_ãðàäèåíò_225-7);}.cls-34{fill:url(#_Áåçûìÿííûé_ãðàäèåíò_221);}.cls-35{fill:url(#_Áåçûìÿííûé_ãðàäèåíò_221-10);}.cls-120{mask:url(#mask-12);}.cls-36{fill:url(#_Áåçûìÿííûé_ãðàäèåíò_225-5);}.cls-121{fill:#0c0;}.cls-37{fill:url(#_Áåçûìÿííûé_ãðàäèåíò_221-38);}.cls-122{mask:url(#mask-5);}.cls-123{fill:url(#Dégradé_sans_nom_166-3);}.cls-103{fill:url(#_Áåçûìÿííûé_ãðàäèåíò_228-3);}.cls-124{fill:url(#_Áåçûìÿííûé_ãðàäèåíò_228-8);}.cls-38{fill:url(#_Áåçûìÿííûé_ãðàäèåíò_225-16);}.cls-39{fill:url(#_Áåçûìÿííûé_ãðàäèåíò_221-41);}.cls-40{fill:url(#_Áåçûìÿííûé_ãðàäèåíò_91-4);}.cls-41{fill:url(#_Áåçûìÿííûé_ãðàäèåíò_221-25);}.cls-42{fill:url(#_Áåçûìÿííûé_ãðàäèåíò_221-22);}.cls-43{fill:url(#_Áåçûìÿííûé_ãðàäèåíò_91-7);}.cls-125{fill:url(#_Áåçûìÿííûé_ãðàäèåíò_228-5);}.cls-126{filter:url(#luminosity-noclip-9);}.cls-127{fill:url(#_Áåçûìÿííûé_ãðàäèåíò_232);}.cls-44{fill:url(#_Áåçûìÿííûé_ãðàäèåíò_225-12);}.cls-128{fill:url(#_Áåçûìÿííûé_ãðàäèåíò_229-3);}.cls-129{fill:url(#_Áåçûìÿííûé_ãðàäèåíò_227-2);}.cls-130{fill:url(#_Áåçûìÿííûé_ãðàäèåíò_229-4);}.cls-73{fill:url(#Dégradé_sans_nom_169);}.cls-45{fill:url(#_Áåçûìÿííûé_ãðàäèåíò_91-9);}.cls-131{mask:url(#mask-8);}.cls-46{fill:url(#_Áåçûìÿííûé_ãðàäèåíò_221-4);}.cls-47{fill:url(#_Áåçûìÿííûé_ãðàäèåíò_91-8);}.cls-132{mask:url(#mask-4);}.cls-133{fill:url(#_Áåçûìÿííûé_ãðàäèåíò_228-9);}.cls-104{fill:#fb495b;}.cls-134{fill:url(#_Áåçûìÿííûé_ãðàäèåíò_228-7);}.cls-135{mask:url(#mask-15);}.cls-48{fill:url(#_Áåçûìÿííûé_ãðàäèåíò_221-5);}.cls-136{fill:url(#Dégradé_sans_nom_234-2);}.cls-49{fill:url(#_Áåçûìÿííûé_ãðàäèåíò_221-46);}.cls-50{fill:url(#_Áåçûìÿííûé_ãðàäèåíò_221-13);}.cls-137{fill:url(#Dégradé_sans_nom_166-5);}.cls-85{fill:url(#_Áåçûìÿííûé_ãðàäèåíò_221-28);}.cls-138{mask:url(#mask-6);}.cls-105{fill:#f07c7e;}.cls-139{fill:url(#_Áåçûìÿííûé_ãðàäèåíò_229-2);}.cls-140{fill:url(#_Áåçûìÿííûé_ãðàäèåíò_233-2);}.cls-51{fill:url(#_Áåçûìÿííûé_ãðàäèåíò_226-2);}.cls-52{fill:url(#_Áåçûìÿííûé_ãðàäèåíò_221-19);}.cls-86{fill:url(#_Áåçûìÿííûé_ãðàäèåíò_221-27);}.cls-53{fill:url(#_Áåçûìÿííûé_ãðàäèåíò_225-11);}.cls-54{fill:url(#_Áåçûìÿííûé_ãðàäèåíò_235-2);}.cls-141{mask:url(#mask-16);}.cls-55{fill:url(#_Áåçûìÿííûé_ãðàäèåíò_221-17);}.cls-142{fill:url(#Dégradé_sans_nom_176);}.cls-56{fill:url(#_Áåçûìÿííûé_ãðàäèåíò_225);}.cls-57{fill:url(#_Áåçûìÿííûé_ãðàäèåíò_221-15);}.cls-58{fill:url(#_Áåçûìÿííûé_ãðàäèåíò_225-2);}.cls-59{fill:url(#_Áåçûìÿííûé_ãðàäèåíò_91-2);}.cls-143{fill:url(#Dégradé_sans_nom_234);}.cls-87{fill:url(#_Áåçûìÿííûé_ãðàäèåíò_221-45);}.cls-144{fill:url(#_Áåçûìÿííûé_ãðàäèåíò_228-6);}.cls-145{filter:url(#luminosity-noclip);}.cls-146{fill:url(#_Áåçûìÿííûé_ãðàäèåíò_233-3);}.cls-147{mask:url(#mask-1);}.cls-148{mask:url(#mask);}.cls-88{fill:url(#_Áåçûìÿííûé_ãðàäèåíò_221-35);}.cls-149{fill:url(#_Áåçûìÿííûé_ãðàäèåíò_237);}.cls-60{fill:url(#_Áåçûìÿííûé_ãðàäèåíò_226-4);}.cls-89{fill:url(#_Áåçûìÿííûé_ãðàäèåíò_221-32);}.cls-61{fill:url(#_Áåçûìÿííûé_ãðàäèåíò_221-39);}.cls-62{fill:url(#_Áåçûìÿííûé_ãðàäèåíò_221-33);}.cls-150{fill:url(#_Áåçûìÿííûé_ãðàäèåíò_228);}.cls-63{fill:url(#_Áåçûìÿííûé_ãðàäèåíò_225-8);}.cls-64{fill:url(#_Áåçûìÿííûé_ãðàäèåíò_91);}.cls-65{fill:url(#_Áåçûìÿííûé_ãðàäèåíò_221-16);}.cls-151{mask:url(#mask-7);}.cls-152{fill:url(#Dégradé_sans_nom_166);}.cls-153{fill:url(#_Áåçûìÿííûé_ãðàäèåíò_229-5);}.cls-66{fill:url(#_Áåçûìÿííûé_ãðàäèåíò_221-9);}.cls-67{fill:url(#_Áåçûìÿííûé_ãðàäèåíò_226-3);}.cls-154{fill:#ffe6c0;}.cls-68{fill:url(#_Áåçûìÿííûé_ãðàäèåíò_221-31);}.cls-69{fill:url(#_Áåçûìÿííûé_ãðàäèåíò_221-49);}.cls-90{fill:url(#_Áåçûìÿííûé_ãðàäèåíò_221-26);}.cls-155{fill:url(#_Áåçûìÿííûé_ãðàäèåíò_223);}.cls-70{fill:url(#_Áåçûìÿííûé_ãðàäèåíò_221-18);}.cls-156{mask:url(#mask-14);}.cls-157{fill:url(#_Áåçûìÿííûé_ãðàäèåíò_233-4);}.cls-92{fill:#ffca8e;opacity:.29;}.cls-158{mask:url(#mask-11);}.cls-159{filter:url(#luminosity-noclip-3);}.cls-160{fill:url(#_Áåçûìÿííûé_ãðàäèåíò_233-5);}.cls-71{fill:url(#_Áåçûìÿííûé_ãðàäèåíò_221-34);}.cls-161{fill:url(#Dégradé_sans_nom_176-2);}.cls-72{fill:url(#_Áåçûìÿííûé_ãðàäèåíò_221-14);}</style><linearGradient id="_Áåçûìÿííûé_ãðàäèåíò_237" x1="-3109.4" y1="44.33" x2="-3114.66" y2="45.34" gradientTransform="translate(3661.76)" gradientUnits="userSpaceOnUse"><stop offset="0" stop-color="#fff"/><stop offset="1" stop-color="#5b5ba5"/></linearGradient><linearGradient id="Dégradé_sans_nom_169" x1="-2609.96" y1="210.11" x2="-3887.31" y2="455.93" gradientTransform="translate(3661.76)" gradientUnits="userSpaceOnUse"><stop offset="0" stop-color="#fff"/><stop offset="1" stop-color="#9f6"/></linearGradient><linearGradient id="_Áåçûìÿííûé_ãðàäèåíò_221" x1="-3277.66" y1="171.31" x2="-3235.59" y2="-65.12" gradientTransform="translate(3661.76)" gradientUnits="userSpaceOnUse"><stop offset=".02" stop-color="#741e76"/><stop offset=".05" stop-color="#7d2c7e"/><stop offset=".19" stop-color="#9f63a0"/><stop offset=".33" stop-color="#bc93bd"/><stop offset=".47" stop-color="#d4bad5"/><stop offset=".61" stop-color="#e7d8e7"/><stop offset=".74" stop-color="#f4edf4"/><stop offset=".87" stop-color="#fcfafc"/><stop offset=".99" stop-color="#fff"/></linearGradient><linearGradient id="_Áåçûìÿííûé_ãðàäèåíò_221-2" x1="-3218.83" y1="287.73" x2="-3250.06" y2="605.27" xlink:href="#_Áåçûìÿííûé_ãðàäèåíò_221"/><linearGradient id="_Áåçûìÿííûé_ãðàäèåíò_221-3" x1="-3062.23" y1="100.85" x2="-3056.02" y2="109.94" xlink:href="#_Áåçûìÿííûé_ãðàäèåíò_221"/><linearGradient id="Dégradé_sans_nom_176" x1="-2955.78" y1="415.18" x2="-2827.95" y2="462.61" gradientTransform="translate(3661.76)" gradientUnits="userSpaceOnUse"><stop offset="0" stop-color="#008300"/><stop offset="1" stop-color="#0c0"/></linearGradient><linearGradient id="Dégradé_sans_nom_166" x1="-1361.68" y1="457.31" x2="-1183.46" y2="249.68" gradientTransform="translate(-548.98) rotate(-180) scale(1 -1)" gradientUnits="userSpaceOnUse"><stop offset="0" stop-color="#9f6"/><stop offset=".16" stop-color="#94fd63"/><stop offset=".32" stop-color="#88f95a"/><stop offset=".48" stop-color="#73f24d"/><stop offset=".65" stop-color="#56e839"/><stop offset=".82" stop-color="#31dc21"/><stop offset=".98" stop-color="#04cd03"/><stop offset="1" stop-color="#0c0"/></linearGradient><linearGradient id="Dégradé_sans_nom_234" x1="-2973.92" y1="153.06" x2="-3021.64" y2="265.85" gradientTransform="translate(3661.76)" gradientUnits="userSpaceOnUse"><stop offset="0" stop-color="#f27782"/><stop offset=".99" stop-color="#ffc1a3"/></linearGradient><linearGradient id="_Áåçûìÿííûé_ãðàäèåíò_221-4" x1="-3050.73" y1="212.04" x2="-2998.45" y2="185.25" xlink:href="#_Áåçûìÿííûé_ãðàäèåíò_221"/><linearGradient id="_Áåçûìÿííûé_ãðàäèåíò_221-5" x1="-3020.38" y1="215.74" x2="-3029.29" y2="230.98" xlink:href="#_Áåçûìÿííûé_ãðàäèåíò_221"/><linearGradient id="_Áåçûìÿííûé_ãðàäèåíò_221-6" x1="-2959.83" y1="214.44" x2="-2973.63" y2="238.02" xlink:href="#_Áåçûìÿííûé_ãðàäèåíò_221"/><linearGradient id="_Áåçûìÿííûé_ãðàäèåíò_221-7" x1="-2953.54" y1="210.72" x2="-2968.72" y2="236.67" xlink:href="#_Áåçûìÿííûé_ãðàäèåíò_221"/><linearGradient id="_Áåçûìÿííûé_ãðàäèåíò_221-8" x1="-2950.57" y1="218.81" x2="-2962.63" y2="220.43" xlink:href="#_Áåçûìÿííûé_ãðàäèåíò_221"/><linearGradient id="_Áåçûìÿííûé_ãðàäèåíò_232" x1="-3225.89" y1="644.03" x2="-2982.38" y2="739.46" gradientTransform="translate(3661.76)" gradientUnits="userSpaceOnUse"><stop offset="0" stop-color="#510a56"/><stop offset="1" stop-color="#96024f"/></linearGradient><linearGradient id="_Áåçûìÿííûé_ãðàäèåíò_232-2" x1="-3186.28" y1="542.97" x2="-2942.77" y2="638.41" xlink:href="#_Áåçûìÿííûé_ãðàäèåíò_232"/><linearGradient id="_Áåçûìÿííûé_ãðàäèåíò_466" x1="-4045.62" y1="51.97" x2="-4044.62" y2="56.04" gradientTransform="translate(-3492.08 122.47) rotate(178.04) scale(1 -1)" gradientUnits="userSpaceOnUse"><stop offset=".02" stop-color="#c4f9e1"/><stop offset="1" stop-color="#c0ccff"/></linearGradient><linearGradient id="_Áåçûìÿííûé_ãðàäèåíò_227" x1="-4091.93" y1="28.33" x2="-4085.16" y2="73.07" gradientTransform="translate(-3492.08 122.47) rotate(178.04) scale(1 -1)" gradientUnits="userSpaceOnUse"><stop offset="0" stop-color="#db7f7a"/><stop offset="1" stop-color="#b93f4a"/></linearGradient><linearGradient id="_Áåçûìÿííûé_ãðàäèåíò_225" x1="-4074.92" y1="54.47" x2="-4078.36" y2="26.67" gradientTransform="translate(-3492.08 122.47) rotate(178.04) scale(1 -1)" gradientUnits="userSpaceOnUse"><stop offset="0" stop-color="#e756b2"/><stop offset="1" stop-color="#fff"/></linearGradient><linearGradient id="_Áåçûìÿííûé_ãðàäèåíò_228" x1="-4133.07" y1="92.15" x2="-4119.86" y2="58.1" gradientTransform="translate(-3492.08 122.47) rotate(178.04) scale(1 -1)" gradientUnits="userSpaceOnUse"><stop offset="0" stop-color="#b55b67"/><stop offset="1" stop-color="#8f284d"/></linearGradient><linearGradient id="_Áåçûìÿííûé_ãðàäèåíò_225-2" x1="-4128.19" y1="6.55" x2="-4129.84" y2="157" xlink:href="#_Áåçûìÿííûé_ãðàäèåíò_225"/><linearGradient id="_Áåçûìÿííûé_ãðàäèåíò_235" x1="-4103.37" y1="74.5" x2="-4110.75" y2="43.14" gradientTransform="translate(-3492.08 122.47) rotate(178.04) scale(1 -1)" gradientUnits="userSpaceOnUse"><stop offset="0" stop-color="#ca3696"/><stop offset="1" stop-color="#fff"/></linearGradient><linearGradient id="_Áåçûìÿííûé_ãðàäèåíò_235-2" x1="-4081.31" y1="61.74" x2="-4085.97" y2="41.91" xlink:href="#_Áåçûìÿííûé_ãðàäèåíò_235"/><linearGradient id="_Áåçûìÿííûé_ãðàäèåíò_228-2" x1="-3013.1" y1="38.67" x2="-3051.57" y2="50.67" gradientTransform="translate(3661.76)" xlink:href="#_Áåçûìÿííûé_ãðàäèåíò_228"/><linearGradient id="_Áåçûìÿííûé_ãðàäèåíò_233" x1="-4123.11" y1="188.79" x2="-4082.43" y2="147.67" gradientTransform="translate(-3492.08 122.47) rotate(178.04) scale(1 -1)" gradientUnits="userSpaceOnUse"><stop offset="0" stop-color="#ffb097"/><stop offset="1" stop-color="#ffcaaa"/></linearGradient><linearGradient id="_Áåçûìÿííûé_ãðàäèåíò_225-3" x1="-4118.47" y1="186.6" x2="-4079.3" y2="147" xlink:href="#_Áåçûìÿííûé_ãðàäèåíò_225"/><linearGradient id="_Áåçûìÿííûé_ãðàäèåíò_233-2" x1="-4089.64" y1="202.51" x2="-4066.06" y2="124.27" xlink:href="#_Áåçûìÿííûé_ãðàäèåíò_233"/><linearGradient id="_Áåçûìÿííûé_ãðàäèåíò_233-3" x1="-4072.37" y1="120.72" x2="-4080.66" y2="179.14" xlink:href="#_Áåçûìÿííûé_ãðàäèåíò_233"/><linearGradient id="_Áåçûìÿííûé_ãðàäèåíò_234" x1="-3074.56" y1="95.31" x2="-3068.31" y2="143.05" gradientTransform="translate(3661.76)" gradientUnits="userSpaceOnUse"><stop offset="0" stop-color="#e756b2"/><stop offset=".67" stop-color="#f6cde8"/><stop offset="1" stop-color="#fff"/></linearGradient><linearGradient id="_Áåçûìÿííûé_ãðàäèåíò_225-4" x1="-4074.23" y1="-2.17" x2="-4056.23" y2="122.95" xlink:href="#_Áåçûìÿííûé_ãðàäèåíò_225"/><linearGradient id="_Áåçûìÿííûé_ãðàäèåíò_233-4" x1="-3054.22" y1="34.48" x2="-3055.84" y2="115.16" gradientTransform="translate(3661.76)" xlink:href="#_Áåçûìÿííûé_ãðàäèåíò_233"/><linearGradient id="_Áåçûìÿííûé_ãðàäèåíò_226" x1="-4279.94" y1="-22.67" x2="-4280.39" y2="-.45" gradientTransform="translate(-3677.68 119.31) rotate(179.52) scale(1 -1)" gradientUnits="userSpaceOnUse"><stop offset=".02" stop-color="#ffabd1"/><stop offset=".99" stop-color="#ff7acc"/></linearGradient><linearGradient id="_Áåçûìÿííûé_ãðàäèåíò_226-2" x1="-4123.46" y1="81.13" x2="-4123.83" y2="99.37" gradientTransform="translate(-3492.08 122.47) rotate(178.04) scale(1 -1)" xlink:href="#_Áåçûìÿííûé_ãðàäèåíò_226"/><linearGradient id="_Áåçûìÿííûé_ãðàäèåíò_228-3" x1="-4292.88" y1="-20.69" x2="-4273.24" y2="-20.69" gradientTransform="translate(-3677.68 119.31) rotate(179.52) scale(1 -1)" xlink:href="#_Áåçûìÿííûé_ãðàäèåíò_228"/><linearGradient id="_Áåçûìÿííûé_ãðàäèåíò_228-4" x1="-4315.13" y1="-20.21" x2="-4306.86" y2="-20.21" gradientTransform="translate(-3677.68 119.31) rotate(179.52) scale(1 -1)" xlink:href="#_Áåçûìÿííûé_ãðàäèåíò_228"/><linearGradient id="_Áåçûìÿííûé_ãðàäèåíò_226-3" x1="-4286.88" y1="5.13" x2="-4279.78" y2="-43.06" xlink:href="#_Áåçûìÿííûé_ãðàäèåíò_226"/><linearGradient id="_Áåçûìÿííûé_ãðàäèåíò_233-5" x1="-3080.3" y1="84.75" x2="-3055.04" y2="104.22" gradientTransform="translate(3661.76)" xlink:href="#_Áåçûìÿííûé_ãðàäèåíò_233"/><linearGradient id="_Áåçûìÿííûé_ãðàäèåíò_225-5" x1="-3073.57" y1="151.2" x2="-3074.74" y2="123.21" gradientTransform="translate(3661.76)" xlink:href="#_Áåçûìÿííûé_ãðàäèåíò_225"/><linearGradient id="_Áåçûìÿííûé_ãðàäèåíò_223" x1="-3099.19" y1="70.23" x2="-3085.74" y2="78.91" gradientTransform="translate(3661.76)" gradientUnits="userSpaceOnUse"><stop offset="0" stop-color="#f098ad"/><stop offset="1" stop-color="#e97d7c"/></linearGradient><linearGradient id="_Áåçûìÿííûé_ãðàäèåíò_229" x1="-3105.75" y1="120.92" x2="-3040.77" y2="144.83" gradientTransform="translate(3661.76)" gradientUnits="userSpaceOnUse"><stop offset="0" stop-color="#fcca1c"/><stop offset=".11" stop-color="#ffbc21"/><stop offset=".79" stop-color="#fc6831"/><stop offset=".98" stop-color="#fda732"/></linearGradient><linearGradient id="_Áåçûìÿííûé_ãðàäèåíò_225-6" x1="-3088.63" y1="44.5" x2="-3040.77" y2="13.41" gradientTransform="translate(3661.76)" xlink:href="#_Áåçûìÿííûé_ãðàäèåíò_225"/><linearGradient id="_Áåçûìÿííûé_ãðàäèåíò_228-5" x1="-6424.04" y1="10176.54" x2="-6425.08" y2="10186.8" gradientTransform="translate(-1749.3 13127.39) rotate(150.04) scale(1.33 1)" xlink:href="#_Áåçûìÿííûé_ãðàäèåíò_228"/><linearGradient id="_Áåçûìÿííûé_ãðàäèåíò_228-6" x1="-4102.35" y1="29.97" x2="-4099.41" y2="50.37" xlink:href="#_Áåçûìÿííûé_ãðàäèåíò_228"/><linearGradient id="_Áåçûìÿííûé_ãðàäèåíò_225-7" x1="-3078.71" y1="40.39" x2="-3026.79" y2="-10.66" gradientTransform="translate(3661.76)" xlink:href="#_Áåçûìÿííûé_ãðàäèåíò_225"/><linearGradient id="_Áåçûìÿííûé_ãðàäèåíò_228-7" x1="-3007.69" y1="50.7" x2="-3015.93" y2="44.05" gradientTransform="translate(3661.76)" xlink:href="#_Áåçûìÿííûé_ãðàäèåíò_228"/><linearGradient id="_Áåçûìÿííûé_ãðàäèåíò_227-2" x1="-4116.15" y1="32.08" x2="-4116.44" y2="58.78" xlink:href="#_Áåçûìÿííûé_ãðàäèåíò_227"/><linearGradient id="_Áåçûìÿííûé_ãðàäèåíò_229-2" x1="-3033.44" y1="6.66" x2="-3090.69" y2="21.99" xlink:href="#_Áåçûìÿííûé_ãðàäèåíò_229"/><linearGradient id="_Áåçûìÿííûé_ãðàäèåíò_225-8" x1="-3033.75" y1="8.67" x2="-3090.78" y2="23.93" gradientTransform="translate(3661.76)" xlink:href="#_Áåçûìÿííûé_ãðàäèåíò_225"/><linearGradient id="_Áåçûìÿííûé_ãðàäèåíò_229-3" x1="-3038.65" y1="15.46" x2="-3131.93" y2="43.51" xlink:href="#_Áåçûìÿííûé_ãðàäèåíò_229"/><linearGradient id="_Áåçûìÿííûé_ãðàäèåíò_228-8" x1="-3064.19" y1="12.13" x2="-3083.47" y2="55.13" gradientTransform="translate(3661.76)" xlink:href="#_Áåçûìÿííûé_ãðàäèåíò_228"/><linearGradient id="_Áåçûìÿííûé_ãðàäèåíò_225-9" x1="-4059.71" y1="60.49" x2="-4101.78" y2="68.12" xlink:href="#_Áåçûìÿííûé_ãðàäèåíò_225"/><linearGradient id="_Áåçûìÿííûé_ãðàäèåíò_233-6" x1="-3114.73" y1="172.62" x2="-3099.44" y2="121.9" gradientTransform="translate(3661.76)" xlink:href="#_Áåçûìÿííûé_ãðàäèåíò_233"/><linearGradient id="Dégradé_sans_nom_166-2" x1="-3088.43" y1="676.3" x2="-3249.81" y2="276.33" gradientTransform="translate(3661.76)" xlink:href="#Dégradé_sans_nom_166"/><linearGradient id="Dégradé_sans_nom_166-3" x1="-3072.17" y1="182.79" x2="-3156.32" y2="198.98" gradientTransform="translate(3661.76)" xlink:href="#Dégradé_sans_nom_166"/><linearGradient id="_Áåçûìÿííûé_ãðàäèåíò_221-9" x1="-3031.3" y1="183.67" x2="-3041.05" y2="200.32" xlink:href="#_Áåçûìÿííûé_ãðàäèåíò_221"/><linearGradient id="_Áåçûìÿííûé_ãðàäèåíò_229-4" x1="-3048.75" y1="162.78" x2="-3029.46" y2="162.78" xlink:href="#_Áåçûìÿííûé_ãðàäèåíò_229"/><linearGradient id="_Áåçûìÿííûé_ãðàäèåíò_221-10" x1="-3076.71" y1="165.01" x2="-3069.76" y2="161.68" xlink:href="#_Áåçûìÿííûé_ãðàäèåíò_221"/><linearGradient id="_Áåçûìÿííûé_ãðàäèåíò_221-11" x1="-3075.02" y1="206.98" x2="-3004.83" y2="173.31" xlink:href="#_Áåçûìÿííûé_ãðàäèåíò_221"/><linearGradient id="_Áåçûìÿííûé_ãðàäèåíò_229-5" x1="-3103.64" y1="170.67" x2="-3063.75" y2="170.67" xlink:href="#_Áåçûìÿííûé_ãðàäèåíò_229"/><filter id="luminosity-noclip" x="629.43" y="152.77" width="17.67" height="43.17" color-interpolation-filters="sRGB" filterUnits="userSpaceOnUse"><feFlood flood-color="#fff" result="bg"/><feBlend in="SourceGraphic" in2="bg"/></filter><filter id="luminosity-noclip-2" x="629.43" y="-13285.43" width="17.67" height="32766" color-interpolation-filters="sRGB" filterUnits="userSpaceOnUse"><feFlood flood-color="#fff" result="bg"/><feBlend in="SourceGraphic" in2="bg"/></filter><mask id="mask-1" x="629.43" y="-13285.43" width="17.67" height="32766" maskUnits="userSpaceOnUse"/><linearGradient id="_Áåçûìÿííûé_ãðàäèåíò_91" x1="-3015.59" y1="155.71" x2="-3038.91" y2="195.56" gradientTransform="translate(3661.76)" gradientUnits="userSpaceOnUse"><stop offset=".02" stop-color="#636363"/><stop offset=".02" stop-color="#646464"/><stop offset=".19" stop-color="#939393"/><stop offset=".36" stop-color="#bababa"/><stop offset=".53" stop-color="#d8d8d8"/><stop offset=".69" stop-color="#ededed"/><stop offset=".85" stop-color="#fafafa"/><stop offset=".99" stop-color="#fff"/></linearGradient><mask id="mask" x="629.43" y="152.77" width="17.67" height="43.17" maskUnits="userSpaceOnUse"><g class="cls-145"><g class="cls-147"><path class="cls-64" d="m641.13,195.86l-.03.08c.14-.54,4.17-16.42,3.46-17.54-.72-1.13-11.17,0-11.73,0s9.63-4.53,9.63-6.23c0-1.67-12.62-18.86-13.02-19.4l.94.56c4.74,6.01,15.72,20.03,16.61,22.24,1.08,2.71-5.3,18.89-5.85,20.29Z"/></g></g></mask><linearGradient id="_Áåçûìÿííûé_ãðàäèåíò_221-12" x1="-3015.59" y1="155.71" x2="-3038.91" y2="195.56" xlink:href="#_Áåçûìÿííûé_ãðàäèåíò_221"/><linearGradient id="_Áåçûìÿííûé_ãðàäèåíò_225-10" x1="-3057.22" y1="171.7" x2="-3057.29" y2="158.83" gradientTransform="translate(3661.76)" xlink:href="#_Áåçûìÿííûé_ãðàäèåíò_225"/><linearGradient id="_Áåçûìÿííûé_ãðàäèåíò_225-11" x1="-3113.77" y1="163.55" x2="-3093.92" y2="158.06" gradientTransform="translate(3661.76)" xlink:href="#_Áåçûìÿííûé_ãðàäèåíò_225"/><linearGradient id="_Áåçûìÿííûé_ãðàäèåíò_221-13" x1="-3078.03" y1="254.84" x2="-3203.62" y2="271.7" xlink:href="#_Áåçûìÿííûé_ãðàäèåíò_221"/><linearGradient id="_Áåçûìÿííûé_ãðàäèåíò_221-14" x1="-3192.04" y1="421.64" x2="-3087.35" y2="476.59" xlink:href="#_Áåçûìÿííûé_ãðàäèåíò_221"/><linearGradient id="_Áåçûìÿííûé_ãðàäèåíò_221-15" x1="-2970.33" y1="332.04" x2="-3060" y2="344.08" xlink:href="#_Áåçûìÿííûé_ãðàäèåíò_221"/><linearGradient id="_Áåçûìÿííûé_ãðàäèåíò_221-16" x1="-2969.48" y1="275.3" x2="-2980.82" y2="276.82" xlink:href="#_Áåçûìÿííûé_ãðàäèåíò_221"/><linearGradient id="_Áåçûìÿííûé_ãðàäèåíò_221-17" x1="-2972.26" y1="253.63" x2="-2972.47" y2="253.66" xlink:href="#_Áåçûìÿííûé_ãðàäèåíò_221"/><linearGradient id="_Áåçûìÿííûé_ãðàäèåíò_221-18" x1="-2983.67" y1="202.29" x2="-2992.91" y2="537.35" xlink:href="#_Áåçûìÿííûé_ãðàäèåíò_221"/><linearGradient id="Dégradé_sans_nom_176-2" x1="-2968.05" y1="538.77" x2="-2809.84" y2="594.87" xlink:href="#Dégradé_sans_nom_176"/><linearGradient id="_Áåçûìÿííûé_ãðàäèåíò_221-19" x1="-3056.86" y1="322.29" x2="-3068.71" y2="323.88" xlink:href="#_Áåçûìÿííûé_ãðàäèåíò_221"/><linearGradient id="_Áåçûìÿííûé_ãðàäèåíò_221-20" x1="-2487.13" y1="-868.91" x2="-2498.98" y2="-867.32" gradientTransform="translate(3170.62 669.87) rotate(-7.39) scale(1 .8)" xlink:href="#_Áåçûìÿííûé_ãðàäèåíò_221"/><linearGradient id="_Áåçûìÿííûé_ãðàäèåíò_221-21" x1="-3057.73" y1="426.45" x2="-3323.24" y2="462.1" xlink:href="#_Áåçûìÿííûé_ãðàäèåíò_221"/><linearGradient id="_Áåçûìÿííûé_ãðàäèåíò_221-22" x1="-3025.47" y1="259.93" x2="-3048.47" y2="263.02" xlink:href="#_Áåçûìÿííûé_ãðàäèåíò_221"/><linearGradient id="_Áåçûìÿííûé_ãðàäèåíò_221-23" x1="-3019.66" y1="299.44" x2="-3045.03" y2="302.85" xlink:href="#_Áåçûìÿííûé_ãðàäèåíò_221"/><linearGradient id="_Áåçûìÿííûé_ãðàäèåíò_221-24" x1="-2956.79" y1="276.7" x2="-2941.94" y2="385.21" xlink:href="#_Áåçûìÿííûé_ãðàäèåíò_221"/><linearGradient id="_Áåçûìÿííûé_ãðàäèåíò_221-25" x1="-3166.64" y1="621.52" x2="-3248.19" y2="346.2" xlink:href="#_Áåçûìÿííûé_ãðàäèåíò_221"/><filter id="luminosity-noclip-3" x="371.98" y="613.08" width="106.92" height="38.29" color-interpolation-filters="sRGB" filterUnits="userSpaceOnUse"><feFlood flood-color="#fff" result="bg"/><feBlend in="SourceGraphic" in2="bg"/></filter><filter id="luminosity-noclip-4" x="371.98" y="-13285.43" width="106.92" height="32766" color-interpolation-filters="sRGB" filterUnits="userSpaceOnUse"><feFlood flood-color="#fff" result="bg"/><feBlend in="SourceGraphic" in2="bg"/></filter><mask id="mask-3" x="371.98" y="-13285.43" width="106.92" height="32766" maskUnits="userSpaceOnUse"/><linearGradient id="_Áåçûìÿííûé_ãðàäèåíò_91-2" x1="-3270.19" y1="589.54" x2="-3107.08" y2="730.09" xlink:href="#_Áåçûìÿííûé_ãðàäèåíò_91"/><mask id="mask-2" x="371.98" y="613.08" width="106.92" height="38.29" maskUnits="userSpaceOnUse"><g class="cls-159"><g class="cls-114"><path class="cls-59" d="m371.98,617.53s102.11-4.72,106.72-4.44c4.6.28-71.85,39.93-75.25,38.23s-11.95-23.96-31.46-33.78Z"/></g></g></mask><linearGradient id="_Áåçûìÿííûé_ãðàäèåíò_221-26" x1="-3270.19" y1="589.54" x2="-3107.08" y2="730.09" xlink:href="#_Áåçûìÿííûé_ãðàäèåíò_221"/><filter id="luminosity-noclip-5" x="292.16" y="583.63" width="116.26" height="21.81" color-interpolation-filters="sRGB" filterUnits="userSpaceOnUse"><feFlood flood-color="#fff" result="bg"/><feBlend in="SourceGraphic" in2="bg"/></filter><filter id="luminosity-noclip-6" x="292.16" y="-13285.43" width="116.26" height="32766" color-interpolation-filters="sRGB" filterUnits="userSpaceOnUse"><feFlood flood-color="#fff" result="bg"/><feBlend in="SourceGraphic" in2="bg"/></filter><mask id="mask-5" x="292.16" y="-13285.43" width="116.26" height="32766" maskUnits="userSpaceOnUse"/><linearGradient id="_Áåçûìÿííûé_ãðàäèåíò_91-3" x1="-3253.32" y1="584.27" x2="-3322.16" y2="604.62" xlink:href="#_Áåçûìÿííûé_ãðàäèåíò_91"/><mask id="mask-4" x="292.16" y="583.63" width="116.26" height="21.81" maskUnits="userSpaceOnUse"><g class="cls-106"><g class="cls-122"><path class="cls-3" d="m292.16,605.44s65.14-23.11,68.11-21.75c2.96,1.36,48.15,16.11,48.15,16.11,0,0-69.53-13.61-116.26,5.64Z"/></g></g></mask><linearGradient id="_Áåçûìÿííûé_ãðàäèåíò_221-27" x1="-3253.32" y1="584.27" x2="-3322.16" y2="604.62" xlink:href="#_Áåçûìÿííûé_ãðàäèåíò_221"/><filter id="luminosity-noclip-7" x="697.36" y="233.82" width="81.07" height="256.08" color-interpolation-filters="sRGB" filterUnits="userSpaceOnUse"><feFlood flood-color="#fff" result="bg"/><feBlend in="SourceGraphic" in2="bg"/></filter><filter id="luminosity-noclip-8" x="697.36" y="-13285.43" width="81.07" height="32766" color-interpolation-filters="sRGB" filterUnits="userSpaceOnUse"><feFlood flood-color="#fff" result="bg"/><feBlend in="SourceGraphic" in2="bg"/></filter><mask id="mask-7" x="697.36" y="-13285.43" width="81.07" height="32766" maskUnits="userSpaceOnUse"/><linearGradient id="_Áåçûìÿííûé_ãðàäèåíò_91-4" x1="-2995.76" y1="428.7" x2="-2799.15" y2="211.45" xlink:href="#_Áåçûìÿííûé_ãðàäèåíò_91"/><mask id="mask-6" x="697.36" y="233.82" width="81.07" height="256.08" maskUnits="userSpaceOnUse"><g class="cls-96"><g class="cls-151"><path class="cls-40" d="m778.42,464.71c-14.1-6.49-41.96,25.19-41.96,25.19,0,0-30.24-214.43-39.11-256.08,11.21,35.38,63.95,189.72,81.07,230.89Z"/></g></g></mask><linearGradient id="_Áåçûìÿííûé_ãðàäèåíò_221-28" x1="-2995.76" y1="428.7" x2="-2799.15" y2="211.45" xlink:href="#_Áåçûìÿííûé_ãðàäèåíò_221"/><filter id="luminosity-noclip-9" x="335.6" y="618.37" width="46.99" height="32.08" color-interpolation-filters="sRGB" filterUnits="userSpaceOnUse"><feFlood flood-color="#fff" result="bg"/><feBlend in="SourceGraphic" in2="bg"/></filter><filter id="luminosity-noclip-10" x="335.6" y="-13285.43" width="46.99" height="32766" color-interpolation-filters="sRGB" filterUnits="userSpaceOnUse"><feFlood flood-color="#fff" result="bg"/><feBlend in="SourceGraphic" in2="bg"/></filter><mask id="mask-9" x="335.6" y="-13285.43" width="46.99" height="32766" maskUnits="userSpaceOnUse"/><linearGradient id="_Áåçûìÿííûé_ãðàäèåíò_91-5" x1="-3282.83" y1="632.59" x2="-3307.11" y2="639.77" xlink:href="#_Áåçûìÿííûé_ãðàäèåíò_91"/><mask id="mask-8" x="335.6" y="618.37" width="46.99" height="32.08" maskUnits="userSpaceOnUse"><g class="cls-126"><g class="cls-119"><path class="cls-7" d="m382.59,650.45c-12.34-15.17-15.14-31.68-24.22-27.03-7.79,3.99-15.4,6.85-22.77,8.79,15.74-5.82,23.53-12.75,27.28-13.82,3.34-.95,11.7,21.34,19.7,32.06Z"/></g></g></mask><linearGradient id="_Áåçûìÿííûé_ãðàäèåíò_221-29" x1="-3282.83" y1="632.59" x2="-3307.11" y2="639.77" xlink:href="#_Áåçûìÿííûé_ãðàäèåíò_221"/><filter id="luminosity-noclip-11" x="385.56" y="653.86" width=".66" height=".7" color-interpolation-filters="sRGB" filterUnits="userSpaceOnUse"><feFlood flood-color="#fff" result="bg"/><feBlend in="SourceGraphic" in2="bg"/></filter><filter id="luminosity-noclip-12" x="385.56" y="-13285.43" width=".66" height="32766" color-interpolation-filters="sRGB" filterUnits="userSpaceOnUse"><feFlood flood-color="#fff" result="bg"/><feBlend in="SourceGraphic" in2="bg"/></filter><mask id="mask-11" x="385.56" y="-13285.43" width=".66" height="32766" maskUnits="userSpaceOnUse"/><linearGradient id="_Áåçûìÿííûé_ãðàäèåíò_91-6" x1="-3275.65" y1="654.14" x2="-3275.92" y2="654.22" xlink:href="#_Áåçûìÿííûé_ãðàäèåíò_91"/><mask id="mask-10" x="385.56" y="653.86" width=".66" height=".7" maskUnits="userSpaceOnUse"><g class="cls-74"><g class="cls-158"><path class="cls-8" d="m386.22,654.56c-.22-.23-.44-.46-.66-.7.29.27.52.5.66.7Z"/></g></g></mask><linearGradient id="_Áåçûìÿííûé_ãðàäèåíò_221-30" x1="-3275.65" y1="654.14" x2="-3275.92" y2="654.22" xlink:href="#_Áåçûìÿííûé_ãðàäèåíò_221"/><linearGradient id="_Áåçûìÿííûé_ãðàäèåíò_221-31" x1="-3195.42" y1="251.06" x2="-2949.02" y2="609.39" xlink:href="#_Áåçûìÿííûé_ãðàäèåíò_221"/><linearGradient id="Dégradé_sans_nom_166-4" x1="-3074.49" y1="170.68" x2="-3158.65" y2="186.88" gradientTransform="translate(3661.76)" xlink:href="#Dégradé_sans_nom_166"/><filter id="luminosity-noclip-13" x="500.49" y="614.48" width="108.35" height="41.7" color-interpolation-filters="sRGB" filterUnits="userSpaceOnUse"><feFlood flood-color="#fff" result="bg"/><feBlend in="SourceGraphic" in2="bg"/></filter><filter id="luminosity-noclip-14" x="500.49" y="-13285.43" width="108.35" height="32766" color-interpolation-filters="sRGB" filterUnits="userSpaceOnUse"><feFlood flood-color="#fff" result="bg"/><feBlend in="SourceGraphic" in2="bg"/></filter><mask id="mask-13" x="500.49" y="-13285.43" width="108.35" height="32766" maskUnits="userSpaceOnUse"/><linearGradient id="_Áåçûìÿííûé_ãðàäèåíò_91-7" x1="-3050.69" y1="622.44" x2="-3118.42" y2="642.47" xlink:href="#_Áåçûìÿííûé_ãðàäèåíò_91"/><mask id="mask-12" x="500.49" y="614.48" width="108.35" height="41.7" maskUnits="userSpaceOnUse"><g class="cls-98"><g class="cls-113"><path class="cls-43" d="m608.84,636c-.81-5.04-3.11-8.26-6.59-10.11-.04,0-.04-.04-.07-.04-16.33-8.41-58.88,13.63-101.69,30.33,27.51-12.26,83.17-41.44,95.91-41.7h.18c6.33,0,9.37,5.55,10.85,11.03,1.37,5,1.41,9.92,1.41,10.48Z"/></g></g></mask><linearGradient id="_Áåçûìÿííûé_ãðàäèåíò_221-32" x1="-3050.69" y1="622.44" x2="-3118.42" y2="642.47" xlink:href="#_Áåçûìÿííûé_ãðàäèåíò_221"/><linearGradient id="_Áåçûìÿííûé_ãðàäèåíò_221-33" x1="-3131.84" y1="191.47" x2="-3115.21" y2="183.49" xlink:href="#_Áåçûìÿííûé_ãðàäèåíò_221"/><linearGradient id="_Áåçûìÿííûé_ãðàäèåíò_221-34" x1="-3123.36" y1="196.35" x2="-3091.71" y2="181.17" xlink:href="#_Áåçûìÿííûé_ãðàäèåíò_221"/><filter id="luminosity-noclip-15" x="534.24" y="154.34" width="16.34" height="39.39" color-interpolation-filters="sRGB" filterUnits="userSpaceOnUse"><feFlood flood-color="#fff" result="bg"/><feBlend in="SourceGraphic" in2="bg"/></filter><filter id="luminosity-noclip-16" x="534.24" y="-13285.43" width="16.34" height="32766" color-interpolation-filters="sRGB" filterUnits="userSpaceOnUse"><feFlood flood-color="#fff" result="bg"/><feBlend in="SourceGraphic" in2="bg"/></filter><mask id="mask-15" x="534.24" y="-13285.43" width="16.34" height="32766" maskUnits="userSpaceOnUse"/><linearGradient id="_Áåçûìÿííûé_ãðàäèåíò_91-8" x1="-3122.99" y1="193.08" x2="-3110.48" y2="147.07" xlink:href="#_Áåçûìÿííûé_ãðàäèåíò_91"/><mask id="mask-14" x="534.24" y="154.34" width="16.34" height="39.39" maskUnits="userSpaceOnUse"><g class="cls-116"><g class="cls-135"><path class="cls-47" d="m549,165.94c2.82,8.9,1.13,27.18.57,27.75s-9.78-6.07-11.33-7.36c-1.55-1.3,4.2-13.76,3.4-13.59-.8.16-6.8,10.76-7.36,10.76s7.36-27.19,4.05-29.17l10.68,11.61Z"/></g></g></mask><linearGradient id="_Áåçûìÿííûé_ãðàäèåíò_221-35" x1="-3122.99" y1="193.08" x2="-3110.48" y2="147.07" xlink:href="#_Áåçûìÿííûé_ãðàäèåíò_221"/><linearGradient id="_Áåçûìÿííûé_ãðàäèåíò_221-36" x1="-3137.11" y1="194.22" x2="-3098.36" y2="191.52" xlink:href="#_Áåçûìÿííûé_ãðàäèåíò_221"/><linearGradient id="_Áåçûìÿííûé_ãðàäèåíò_221-37" x1="-2967.16" y1="228.15" x2="-2982.63" y2="222.75" xlink:href="#_Áåçûìÿííûé_ãðàäèåíò_221"/><linearGradient id="_Áåçûìÿííûé_ãðàäèåíò_221-38" x1="-2991.15" y1="280.21" x2="-2934.33" y2="501.82" xlink:href="#_Áåçûìÿííûé_ãðàäèåíò_221"/><linearGradient id="_Áåçûìÿííûé_ãðàäèåíò_221-39" x1="-3269.64" y1="399.64" x2="-3072.62" y2="589.76" xlink:href="#_Áåçûìÿííûé_ãðàäèåíò_221"/><linearGradient id="Dégradé_sans_nom_234-2" x1="-2922.51" y1="296.33" x2="-3154.26" y2="226.6" xlink:href="#Dégradé_sans_nom_234"/><linearGradient id="_Áåçûìÿííûé_ãðàäèåíò_221-40" x1="-3116.92" y1="224.07" x2="-3137.72" y2="226.86" xlink:href="#_Áåçûìÿííûé_ãðàäèåíò_221"/><linearGradient id="_Áåçûìÿííûé_ãðàäèåíò_221-41" x1="-3042.07" y1="282.9" x2="-3053.42" y2="284.42" xlink:href="#_Áåçûìÿííûé_ãðàäèåíò_221"/><linearGradient id="_Áåçûìÿííûé_ãðàäèåíò_221-42" x1="-3032.52" y1="284.3" x2="-3049.75" y2="286.61" xlink:href="#_Áåçûìÿííûé_ãðàäèåíò_221"/><linearGradient id="_Áåçûìÿííûé_ãðàäèåíò_221-43" x1="-3022.43" y1="283.43" x2="-3036.54" y2="285.32" xlink:href="#_Áåçûìÿííûé_ãðàäèåíò_221"/><linearGradient id="_Áåçûìÿííûé_ãðàäèåíò_221-44" x1="-3116.42" y1="202.11" x2="-3140.24" y2="208.78" xlink:href="#_Áåçûìÿííûé_ãðàäèåíò_221"/><linearGradient id="_Áåçûìÿííûé_ãðàäèåíò_228-9" x1="-3102.93" y1=".22" x2="-3118.94" y2="156.07" gradientTransform="translate(3661.76)" xlink:href="#_Áåçûìÿííûé_ãðàäèåíò_228"/><linearGradient id="_Áåçûìÿííûé_ãðàäèåíò_225-12" x1="-4056.71" y1="46.87" x2="-4035.84" y2="46.87" xlink:href="#_Áåçûìÿííûé_ãðàäèåíò_225"/><linearGradient id="_Áåçûìÿííûé_ãðàäèåíò_225-13" x1="-3097.05" y1="56.34" x2="-3102.62" y2="32.65" gradientTransform="translate(3661.76)" xlink:href="#_Áåçûìÿííûé_ãðàäèåíò_225"/><linearGradient id="_Áåçûìÿííûé_ãðàäèåíò_225-14" x1="-3121.54" y1="44.93" x2="-3126.41" y2="24.2" gradientTransform="translate(3661.76)" xlink:href="#_Áåçûìÿííûé_ãðàäèåíò_225"/><linearGradient id="_Áåçûìÿííûé_ãðàäèåíò_227-3" x1="-3111.81" y1="12.3" x2="-3105.08" y2="56.76" gradientTransform="translate(3661.76)" xlink:href="#_Áåçûìÿííûé_ãðàäèåíò_227"/><linearGradient id="_Áåçûìÿííûé_ãðàäèåíò_225-15" x1="-3121.7" y1="32.92" x2="-3124.6" y2="9.44" gradientTransform="translate(3661.76)" xlink:href="#_Áåçûìÿííûé_ãðàäèåíò_225"/><filter id="luminosity-noclip-17" x="605.25" y="194.7" width="15.88" height="44.87" color-interpolation-filters="sRGB" filterUnits="userSpaceOnUse"><feFlood flood-color="#fff" result="bg"/><feBlend in="SourceGraphic" in2="bg"/></filter><filter id="luminosity-noclip-18" x="605.25" y="-13285.43" width="15.88" height="32766" color-interpolation-filters="sRGB" filterUnits="userSpaceOnUse"><feFlood flood-color="#fff" result="bg"/><feBlend in="SourceGraphic" in2="bg"/></filter><mask id="mask-17" x="605.25" y="-13285.43" width="15.88" height="32766" maskUnits="userSpaceOnUse"/><linearGradient id="_Áåçûìÿííûé_ãðàäèåíò_91-9" x1="-3075.26" y1="219.03" x2="-2965.17" y2="211.13" xlink:href="#_Áåçûìÿííûé_ãðàäèåíò_91"/><mask id="mask-16" x="605.25" y="194.7" width="15.88" height="44.87" maskUnits="userSpaceOnUse"><g class="cls-80"><g class="cls-99"><path class="cls-45" d="m620.53,194.7c2.1,1.83-1.88,24.14-3.29,30.82-1.41,6.68-11.99,14.05-11.99,14.05,0,0,5.76-14.92,7.04-29.83,1.28-14.91,8.25-15.04,8.25-15.04Z"/></g></g></mask><linearGradient id="_Áåçûìÿííûé_ãðàäèåíò_221-45" x1="-3075.26" y1="219.03" x2="-2965.17" y2="211.13" xlink:href="#_Áåçûìÿííûé_ãðàäèåíò_221"/><linearGradient id="_Áåçûìÿííûé_ãðàäèåíò_226-4" x1="-3008.91" y1="45.12" x2="-3062.7" y2="49.89" gradientTransform="translate(3661.76)" xlink:href="#_Áåçûìÿííûé_ãðàäèåíò_226"/><linearGradient id="_Áåçûìÿííûé_ãðàäèåíò_221-46" x1="-3124.93" y1="520.85" x2="-2906.53" y2="580.72" xlink:href="#_Áåçûìÿííûé_ãðàäèåíò_221"/><linearGradient id="_Áåçûìÿííûé_ãðàäèåíò_225-16" x1="-3109.9" y1="33.51" x2="-3080.56" y2="18.37" gradientTransform="translate(3661.76)" xlink:href="#_Áåçûìÿííûé_ãðàäèåíò_225"/><linearGradient id="_Áåçûìÿííûé_ãðàäèåíò_223-2" x1="-2913.11" y1="589.01" x2="-3004.83" y2="560.62" xlink:href="#_Áåçûìÿííûé_ãðàäèåíò_223"/><linearGradient id="Dégradé_sans_nom_166-5" x1="-1331.24" y1="607.24" x2="-1252.54" y2="607.24" xlink:href="#Dégradé_sans_nom_166"/><linearGradient id="_Áåçûìÿííûé_ãðàäèåíò_221-47" x1="-3007.41" y1="534.45" x2="-2876.22" y2="553.35" xlink:href="#_Áåçûìÿííûé_ãðàäèåíò_221"/><linearGradient id="_Áåçûìÿííûé_ãðàäèåíò_221-48" x1="-2905.52" y1="461.51" x2="-2901.45" y2="519.3" xlink:href="#_Áåçûìÿííûé_ãðàäèåíò_221"/><linearGradient id="_Áåçûìÿííûé_ãðàäèåíò_221-49" x1="-3402.25" y1="538.52" x2="-3181.01" y2="644.41" xlink:href="#_Áåçûìÿííûé_ãðàäèåíò_221"/></defs><g class="cls-111"><g id="Calque_2"><g><path class="cls-76" d="m604.49,125.71s16.65-2.11,19.84.02c3.19,2.13,4.71,28.6,4.71,28.6l-24.55-28.63Z"/><polygon class="cls-76" points="701.85 218.35 799.84 419.66 766.34 445.15 696.72 218.35 701.85 218.35"/><path class="cls-76" d="m643.44,195.86l-.03.08s0,.02,0,.02l-20.44,5.61v-36.64s0-22.73,0-22.73c0,0,25.45,31.16,26.33,33.37,1.08,2.71-5.3,18.89-5.85,20.29Z"/><path class="cls-76" d="m713.17,212.38c-1.13-2.27-36.25-7.93-38.51-7.93-2.07,0-24.06,9.96-31.69,14.26-.4.23-.76.44-1.08.62,0,0-.02.02-.02.02-.24.14-.44.27-.62.39-.37-.46-.68-1.52-.94-2.97h0c-.83-4.63-1.14-13.22-1.26-18.97-.03-1.5-.05-2.81-.06-3.8-.01-1.26-.01-2.02-.01-2.02l-5.06,1.85-15.05,5.5s2.16,7.71,5.15,16.4c3.61,10.44,8.42,22.29,12.13,23.83,19.26-3.96,34.47-26.23,36.25-26.05,1.77.18,2.83,5.66,2.83,5.66,0,0,12.46,5.66,15.29,7.93.02.02.05.04.07.06,2.79,2.29,4.46,7.31,4.46,7.31,0,0,2.07-2.34,2.48-5.11.16.7.33,1.41.51,2.1.78,2.91,1.79,5.6,3.28,7.08.17.17.34.32.52.46.44,0,1-.76,1.63-1.89.01-.01.02-.03.03-.04.23-.4.45-.84.7-1.31.03-.06.05-.11.07-.17.71-1.44,1.45-3.14,2.13-4.63,0,0,0-.01,0-.01.96-2.13,1.8-3.83,2.23-3.83,1.13,0,5.66-12.46,4.53-14.73Zm-17.56,11.89c-1.51-1.33-3.09-2.52-4.51-3.53-1.43-1.01-2.72-1.83-3.64-2.4-.91-.56-1.47-.87-1.47-.87,0,0,7.31.38,9.06,2.27.54.58.96,2.32,1.42,4.54.09.4.16.81.25,1.23-.28-.43-.65-.84-1.1-1.25Z"/><path class="cls-149" d="m550.54,44.53s.14.37.37,1.11l-3.19-1.44,2.81.33Z"/><path class="cls-73" d="m610.62,62.68s-.75,72.92-24.14,166.02c-.74,2.97-1.51,5.96-2.3,8.97-6.67,25.34-15.03,52.01-25.5,78.98-15.49,39.95-35.61,80.58-61.73,118.58-.85,1.24-1.72,2.48-2.59,3.72-21.74,31.08-45.06,57.68-68.99,80.31-.02.01-.03.03-.05.04-54.73,51.76-112.64,82.86-162.07,99.82-39.62,13.59-73.79,18.11-96.51,16.91-23.79-1.26-51.58-5.19-77.21-9.85-43.29-7.89-84.58-21.3-81.56-20.73,69.79,12.97,142.89-7.93,158.77-5.64,15.89,2.28,223.12-122.36,319.28-297.44,89.73-163.38,68.18-246.37,64.9-256.73l2.64,1.19s13.56,60.22,26.75,60.88c13.18.66,30.31-45.03,30.31-45.03Z"/><path class="cls-34" d="m601.88,110.49l-15.4,118.21-2.96,22.76.66-13.78,4.21-88.02c-.35,2.36-11.4,78.69-29.71,167.01-15.49,39.95-35.61,80.58-61.73,118.58-18.37,26.72-43.35,55.53-71.58,84.03-.02.01-.03.03-.05.04-54.73,51.76-112.64,82.86-162.07,99.82-39.62,13.59-73.79,18.11-96.51,16.91-23.79-1.26-51.58-5.19-77.21-9.85,52.07,1.34,121.78.12,229.98-51.84,145.12-69.7,223.55-281.33,229.07-336.65,5.53-55.31,10.06-164.62,10.06-164.62,0,0,8,62.69,24.67,66.46,11.3,2.55,16.45-16.5,18.59-29.04Z"/><path class="cls-16" d="m520.85,266.27c-72.1,157.93-175.15,239.23-175.15,239.23,0,0,93.36-53.16,131.06-119.61,37.69-66.46,44.1-119.61,44.1-119.61Z"/><path class="cls-24" d="m603.24,100.09c-.05.57-.41,4.84-1.35,10.38l1.35-10.38Z"/><path class="cls-142" d="m750.2,460.19c1.55-3.14,44.25-40.79,44.25-40.79l-81.15-22.5,36.91,63.29Z"/><path class="cls-152" d="m726.62,460.19c29.1-33.72,67.83-40.79,67.83-40.79,0,0-91.67-199.73-95.5-197.43-3.83,2.31,27.67,238.22,27.67,238.22Z"/><path class="cls-143" d="m711.54,212.38c-1.13-2.27-36.25-7.93-38.51-7.93-2.07,0-24.06,9.96-31.69,14.26-.4.23-.76.44-1.08.62l-.02.02c-.24.14-.44.27-.62.39-.37-.46-.68-1.52-.94-2.97h0c-.83-4.63-1.14-13.22-1.26-18.97-.03-1.5-.05-2.81-.06-3.8-.01-1.26-.01-2.02-.01-2.02l-5.06,1.85-15.05,5.5s2.16,7.71,5.15,16.4c3.61,10.44,8.42,22.29,12.13,23.83,19.26-3.96,34.47-26.23,36.25-26.05,1.77.18,2.83,5.66,2.83,5.66,0,0,12.46,5.66,15.29,7.93.02.02.05.04.07.06,2.79,2.29,4.46,7.31,4.46,7.31,0,0,2.07-2.34,2.48-5.11.16.7.33,1.41.51,2.1.78,2.91,1.79,5.6,3.28,7.08.17.17.34.32.52.46.44,0,1-.76,1.63-1.89.01-.01.02-.03.03-.04.23-.4.45-.84.7-1.31.03-.06.05-.11.07-.17.71-1.44,1.45-3.14,2.13-4.63,0,0,0-.01,0-.01.96-2.13,1.8-3.83,2.23-3.83,1.13,0,5.66-12.46,4.53-14.73Zm-17.56,11.89c-1.51-1.33-3.09-2.52-4.51-3.53-1.43-1.01-2.72-1.83-3.64-2.4-.91-.56-1.47-.87-1.47-.87,0,0,7.31.38,9.06,2.27.54.58.96,2.32,1.42,4.54.09.4.16.81.25,1.23-.28-.43-.65-.84-1.1-1.25Z"/><path class="cls-46" d="m637.42,197.81c-6.46,1.97-12.24,12.22-15.03,17.92-2.99-8.68-5.15-16.4-5.15-16.4l15.05-5.5,5.07.17c.01.99.03,2.3.06,3.8Z"/><path class="cls-48" d="m640.24,219.36c-2.41,2.08-4.07,7.99-4.49,9.61l2.92-12.18c.26,1.44.57,2.5.94,2.97.19-.12.38-.25.62-.39Z"/><path class="cls-29" d="m701.85,237.11c-.63,1.13-1.19,1.89-1.63,1.89-.18-.14-.35-.29-.52-.46.87-3.56-.69-19.96-1.74-20.5-1.08-.54-8.33-3.65-9.01-3.94.74.23,9.67,3.13,11.01,3.25,1.4.12-.49,19.45.74,20.26.4.27.8-.01,1.16-.51Z"/><path class="cls-12" d="m707.01,214.65c0,.8-1.4,10.57-2.23,16.29,0,0,0,0,0,.01-.68,1.49-1.42,3.19-2.13,4.63.32-.77.52-1.46.52-1.46,0,0,2.15-18.34,1.59-18.91-.57-.57-6.8-2.27-6.8-2.27,0,0,9.06.57,9.06,1.7Z"/><path class="cls-11" d="m707.01,227.11s2.27-11.89,2.27-13.03c0-1.13-7.93-1.7-7.93-1.7,0,0,8.5.57,9.06,1.13.57.57-3.4,13.59-3.4,13.59Z"/><polygon class="cls-127" points="319.49 636.03 445.92 630.92 394.38 590.15 319.49 636.03"/><path class="cls-108" d="m608.84,636.03s-31.16-7.26-46.63-4.77c-15.47,2.5,23.32-99.91,23.32-99.91l23.32,104.68Z"/><path class="cls-81" d="m552.77,33.51s-.29,3.32-.47,8.47c.36-3.14.53-5.98.47-8.47Z"/><path class="cls-112" d="m577.36,28.24c.25,1.25.59,2.4.94,3.4.06.19.13.38.19.55.2.56.42,1.06.6,1.49.25.54.46.99.62,1.29h0c.16.32.26.49.26.49-.04-.21-.07-.41-.1-.61-.01-.03-.01-.07-.01-.09-.14-.96-.19-1.86-.15-2.68,0-.22.02-.43.05-.63.25-2.69,1.41-4.59,3.09-5.88.52-.4,1.09-.74,1.7-1.02,1.64-.76,3.56-1.12,5.54-1.17.13,0,.25,0,.38,0h.01c.37,0,.74,0,1.1.03,1.74.1,3.48.42,5.07.92.45.13.9.29,1.32.45,2.7,1.06,4.77,2.6,5.32,4.32.17.52.28,1.01.32,1.51.07.7,0,1.37-.15,2h0c-.04.16-.09.31-.14.46-.48,1.4-1.48,2.58-2.7,3.5-2.01,1.48-4.64,2.25-6.64,2.08-.01,0-.02,0-.02,0-.27-.04-.52-.07-.75-.14-.06,0-.12-.03-.16-.04-.06-.01-.12-.03-.16-.05-.79-.25-1.31-.73-1.68-1.29h0c-.28-.46-.46-.99-.55-1.53-.21-1.19-.06-2.48.11-3.39.11-.61.24-1.04.26-1.14-.07.09-.31.46-.59,1.01-.51.97-1.16,2.52-1.26,4.2-.02.09-.02.18-.03.28-.03.56.03,1.15.17,1.72.15.59.4,1.18.8,1.73.29.43.67.84,1.15,1.23h.01c.76.62,1.76,1.16,3.08,1.58.03,0,.06.02.09.03,1.76.56,3.76.49,5.81-.07.09,0,.17-.03.26-.07.52-.14,1.05-.32,1.57-.53.62-.25,1.25-.54,1.87-.86.05-.03.09-.05.14-.07,2.32-1.21,4.57-2.92,6.51-4.93,1.38-1.4,2.61-2.96,3.6-4.6.04-.08.1-.16.14-.25.57-.94,1.04-1.91,1.41-2.89.56-1.39.91-2.79,1.02-4.19.04-.56.05-1.12.01-1.68.01-.01,0-.02,0-.03-.05-.89-.23-1.77-.53-2.64-1.51-4.39-5-8.23-9.56-10.49-6.07-3.01-14.04-3.27-21.8,1.57h-.01c-.08.06-.17.12-.25.17-.78.5-1.54,1.03-2.31,1.63-2.92,2.29-4.42,5.03-5.04,7.8-.22.93-.33,1.85-.37,2.77-.07,1.66.11,3.27.43,4.75Z"/><path class="cls-92" d="m609.79,12.47c-11.76-1.31-13.33,8.95-13.33,8.95l-3.17-.89s-2.03-9.27,2.2-11.14c6.34-2.8,14.29,3.08,14.29,3.08Z"/><path class="cls-56" d="m577.2,28.34c.26,1.35.64,2.59,1.03,3.64.04.1.08.2.11.3.23.62.45,1.17.67,1.63-.01.01,0,.01,0,.01.45.99.79,1.57.79,1.57-.04-.18-.07-.35-.09-.53.1.51.22,1,.35,1.49.07.25.14.49.23.74.01-.24.02-.52.04-.83.13-1.65.48-4.05,1.45-6.08.33-.72.76-1.4,1.27-1.96,2.33-2.58,5.39-4.11,6.66-4.67.01.01.02,0,.02,0,.35-.16.56-.24.56-.24,0,0-.01,0-.01-.01-.07,0-.14-.03-.2-.05-1.19-.27-2.21-.59-3.07-.96-.76-.33-1.39-.7-1.94-1.1-.74-.54-1.28-1.12-1.66-1.74h0c-2.11-3.44.71-7.58,1.22-8.28.04-.05.07-.08.08-.09-.86.52-1.71,1.12-2.56,1.78-2.82,2.21-4.32,4.84-4.98,7.52h0c-.25,1.03-.39,2.05-.42,3.06-.07,1.67.12,3.3.44,4.78Z"/><path class="cls-150" d="m619.8,69.17s4.21-.68,9.49-2.02c.06-.01.11-.03.17-.04.07-.01.13-.04.19-.05,2.2-.56,4.56-1.23,6.88-2.01,6.13-2.06,11.91-4.88,13.29-8.4,1.28-3.3.22-9.16-1.74-14.96-2.87-8.53-7.65-16.92-9.7-16.85-.21,0-.46.05-.72.11t-.01,0c-.88.21-2.03.7-3.31,1.34-.83.42-1.72.9-2.61,1.41-1.93,1.1-3.9,2.34-5.45,3.35-1.58,1.02-2.72,1.81-3,2-.02.01-.04.04-.04.04h-.02s-.25,2.66-.25,2.66l-.08.84v.12s-.04.32-.04.32l-.46,4.85-.7,7.44-.2,2.01-1.68,17.85Z"/><path class="cls-58" d="m631.32,26.12c10.51-1.41,15.89,17.94,15.43,23.14-.46,5.2-11.97,10.64-11.97,10.64l-9.25-31.4,5.79-2.38Z"/><path class="cls-6" d="m605.24,54.53c4.41,1.24,8.81.99,12.25-1.37,4.16-2.85,8.59-8.96,11.34-15.59-17.16,13.49-23.81,3.64-23.81,3.64l-4.24.14s-2.3,8.54,4.47,13.18Z"/><path class="cls-54" d="m585.65,31.87c.09,2.22.59,4.41,1.42,6.48,1.25-1.85,3.34-3.47,6.8-2.98.81.11,1.7.34,2.68.72l-1.24-1.84s-.43-.24-1.15-.58c-1.9-.94-5.73-2.64-8.24-2.59h-.29c0,.27,0,.53.02.79Z"/><path class="cls-75" d="m578.6,96.5c.74.11,1.47.17,2.2.17,25.97.02,51.49-70.52,51.49-70.52l-14.12-4.59-1.99,1.67s-.07-.06-.2-.15c-1.16-.89-7.1-5.32-10.67-5.18-.8.03-2.78.23-5.5.63-2.11.3-4.67.72-7.48,1.26-.01,0-.02.01-.03.01-11.58,2.2-27.38,6.39-33.49,12.9-9.53,10.15-6.91,59.6,19.79,63.82Z"/><path class="cls-97" d="m610.62,173.01c2.46-.28,4.87-.57,7.18-.86.81-.11,1.6-.2,2.39-.31,1.02-.14,2.02-.27,3-.4.12-.02.23-.03.34-.05,2.52-.34,4.9-.69,7.14-1.03-.87-6.79-1.74-13.82-2.47-19.77-.35-2.75-.66-5.27-.92-7.42-.57-4.57-1.11-7.3-1.11-7.3l-2.34,2.86-8.72,10.41-3.99,4.81s-.05,1.44-.15,3.93c-.02.67-.03,1.45-.07,2.3-.03,1.07-.07,2.26-.1,3.53-.08,2.72-.14,5.87-.19,9.29Z"/><path class="cls-1" d="m610.62,173.01c2.46-.28,4.87-.57,7.18-.86.81-.11,1.6-.2,2.39-.31,1.02-.14,2.02-.27,3-.4-.05-.25-.1-.5-.15-.77h0c-.71-3.59-1.28-7.78-1.45-12.32-.08-2.4-.05-4.91.14-7.47.18-2.42.47-4.84.94-7.3.31-1.6.71-3.24,1.17-4.85l.03-.22-4.23-1.12-4.52,11.75-3.2,8.4-1.01,2.63c-.03,1.07-.07,2.26-.1,3.53-.08,2.72-.14,5.87-.19,9.29Z"/><path class="cls-140" d="m552.39,128.55l1.49,4.08,5.7,15.59,1.69,4.68,2.32,6.26.83,2.36-8.33,6.39c.5,2.23,1.01,4.42,1.47,6.51l7.33-.18,11.86-.3,1.6-.05,3.13-.07,28.68,6.28c.14,0,.05-7.05.19-7.06.07,0,.18,0,.25-.04,2.49-.26,4.86-.56,7.2-.85.82-.1,1.6-.2,2.38-.3-.86-2.07-1.6-4.12-2.1-6.06-.08-.39-.17-.74-.25-1.1-.21-.92,7.68,4.89,7.61,4.07-.16-2.49-7.71-12.09-6.88-14.97,1.05-3.64,2.64-7.22,4.1-10.23,1.97-3.99,3.72-6.79,3.72-6.79,0,0-.08-.32-.25-.92-.62-2.4-2.55-8.86-4.98-9.1-5.33-.46-10.33-.79-15.04-.98h-.04c-1.04-.07-2.07-.11-3.07-.14-1.43-.06-2.85-.08-4.21-.14-8.13-.19-15.29-.08-21.52.2-.39.01-.78.03-1.14.07l-1.57.05c-.14,0-.28,0-.43.05t-.07,0h-.04c-.18,0-.32.05-.46.05-.32.01-.64.06-.92.07-.32.01-.61.02-.96.07h-.04c-.14.04-.28.01-.43.02h-.21c-.29.02-.57.06-.85.07-1.35.12-2.59.23-3.84.38-3.98.42-10.24.7-11.97,1.26-.74.24-1.23.43-1.58.55h-.04c-.1.08-.18.08-.25.12-.04-.03-.07,0-.11.04l-.03.04Z"/><path class="cls-146" d="m571.06,126.1s0,.01,0,.02c1.44,3.26,4.21,6.59,7.44,9.54,7.07,6.45,16.36,11.05,18.86,9.08,3.08-2.43,3.43-13.89,3.46-18.24-1.22.18-1.99-.85-1.99-.85l-.02-.15-1.28-12.57-.67-7.02-.38-3.97-4.38-8.3-8.54-16.19s-.51,6.22-1.34,14.17c-.06.6-.12,1.21-.19,1.83-.72,6.67-1.64,14.26-2.66,20.32-.9,5.34-1.89,9.49-2.88,10.77-.55.71-1.39,1.14-2.44,1.37-.14.03-.29.06-.43.08-.72.12-1.52.15-2.38.12-.06,0-.13,0-.2,0Z"/><path class="cls-15" d="m598.33,123.26c-5.13-2.4-12.43-10.69-17.76-17.38v-.03s0-.02,0-.03c.07-.62.17-1.21.26-1.82.09-.78.19-1.55.27-2.31.02-.12.04-.24.04-.37,0-.02,0-.05.01-.07,0-.02,0-.03-.02-.05.05-.32.1-.65.14-.97.01-.08.03-.18.04-.25l.08-.78h0c.02-.14.04-.26.05-.38.01-.06.01-.1,0-.15.05-.37.1-.74.14-1.12.05-.3.07-.61.11-.91.05-.44.1-.87.14-1.29.03-.28.06-.55.09-.83.05-.37.09-.73.14-1.09.02-.11.02-.21.02-.31v-.03c0-.09.02-.19.02-.29.01-.05.02-.1.03-.15.01-.1.03-.19.03-.28,0-.06,0-.12,0-.16,0-.08.03-.15.02-.22h0s5.31,2.11,5.31,2.11l9.15,12.16.72,7.62.95,9.39Z"/><path class="cls-4" d="m578.6,96.5c.74.11,1.47.17,2.2.17l-.12-29.68-6.33-2.85s-4.88-2.43-3.08-6.55c1.75-3.98,18.66-11.72,19.71-12.19-.89.31-12.75,4.46-13.66,3.38-.95-1.12-1.06-24.07,14.97-28.98-11.58,2.2-27.38,6.39-33.49,12.9-9.53,10.15-6.91,59.6,19.79,63.82Z"/><path class="cls-157" d="m638.64,90.75c-.72,3.65-13.5,24.57-19.61,25.57-1.47.23-4.68-.4-8.73-1.74-2.85-.9-6.14-2.19-9.55-3.74-1.01-.45-2.04-.93-3.05-1.43-.06-.02-.13-.06-.2-.1-.01-.01-.04-.02-.05-.02-.08-.04-.16-.09-.24-.12-.08-.03-.19-.07-.27-.14,0,0,0,0-.01-.01-5.28-2.59-10.57-5.74-14.7-9.15-.27-.23-.54-.45-.8-.69l-.03-.03c-.15-.12-.29-.24-.44-.37-.03-.02-.05-.05-.07-.06-.16-.16-.33-.3-.5-.46-.13-.12-.25-.24-.37-.37h-.01c-.18-.18-.36-.35-.54-.52-.22-.23-.44-.45-.66-.68-.06-.05-.09-.1-.15-.14-.01-.02-.02-.05-.03-.06-.16-.17-.29-.32-.42-.48-.07-.09-.15-.18-.22-.25-.15-.17-.28-.35-.4-.52-.01-.01-.02-.01-.03-.02h-.01s-.02-.03-.03-.05c-.05-.05-.09-.1-.11-.15-.17-.2-.33-.41-.47-.62-.18-.24-.36-.5-.52-.76-.14-.2-.27-.4-.39-.61-.18-.32-.36-.63-.5-.95-.11-.23-.22-.46-.31-.7-.12-.27-.23-.56-.32-.83-.04-.12-.07-.24-.1-.36-.05-.15-.09-.28-.12-.44-.06-.23-.11-.46-.14-.7-.14-.76-.2-1.61-.23-2.52l-.02-.6v-.03c0-.2-.02-.42.01-.63v-.1c0-.25,0-.52.02-.79,0-.29.02-.58.03-.87.01-.29.02-.59.05-.9.01-.32.05-.66.07-1,.1-1.23.25-2.53.43-3.87.13-.83.3-1.69.48-2.56.07-.36.15-.72.23-1.09.11-.51.23-1.02.35-1.54,0-.01,0-.02.01-.04h0c.08-.44.18-.87.31-1.26h0c0-.11.03-.23.06-.31.33-1.34.7-2.7,1.12-4.07.06-.22.12-.42.2-.63.04-.14.08-.27.14-.41.01-.06.03-.11.05-.16.1-.31.19-.61.29-.91,0-.05.02-.09.04-.12.18-.52.36-1.06.54-1.59.17-.46.32-.91.5-1.36,0-.02.01-.05.02-.07.54-1.43,1.12-2.87,1.76-4.28.06-.15.14-.32.2-.47h.01c.12-.27.23-.53.36-.79h0c.14-.32.29-.62.44-.92.25-.52.5-1.03.78-1.55.26-.5.52-1.01.8-1.51.28-.5.57-1,.84-1.49.27-.47.54-.93.82-1.38.05-.07.09-.15.14-.22,0,0,0,0,0,0,7.18-4.13,11.89-8.4,15.07-12.24,1.05-1.27,1.94-2.49,2.69-3.64h0s.03-.03.05-.03c.05-.01.1-.02.15-.05.31-.1.61-.2.92-.28.24-.08.46-.14.69-.21.33-.09.66-.17,1.01-.24.07-.02.12-.03.19-.05.03-.01.08-.01.11-.02.21-.05.44-.09.64-.12.29-.06.59-.12.89-.16.54-.1,1.08-.18,1.59-.24.28-.03.55-.07.83-.08.99-.12,1.94-.17,2.86-.18.22-.02.42-.01.63-.01.13,0,.25,0,.37,0h0c.11,0,.21,0,.31.01h.19c.99.02,1.95.09,2.87.2.33.05.66.09.98.14.23.04.42.07.63.13h.04s.05,0,.08,0c.03.01.08.02.11.03h0c1.42.28,2.73.66,3.96,1.12,1.57.58,2.98,1.28,4.25,2.04.09.05.18.1.26.15l.03.03v.02h0s.02.01.02.01c.02.01.05.02.06.03t.02.02c.07.05.14.08.2.12.13.08.27.17.4.26t.02.02c.25.15.48.33.72.49.31.22.59.42.87.65.22.18.42.34.63.51.16.14.32.28.47.41.17.15.32.29.48.44.22.19.43.39.62.58.27.25.52.51.75.76.65.65,1.18,1.3,1.64,1.9.18.21.33.42.49.63.08.1.14.19.21.28.07.1.14.19.19.29.93,1.34,1.46,2.36,1.64,2.7.02.06.05.1.05.12h.01s0,.12.01.35c.02,1.59.12,7.94,0,12.68-.01.03,0,.07,0,.1-.03.07-.03.15-.03.22h0c-.05.97-.09,1.86-.13,2.61-.09.7-.15,1.34-.24,1.78-.1.48-.22,1.08-.35,1.76-.18.89-.39,1.92-.6,3.01v.05c-.08.44-.19.89-.25,1.34h0c-.09.44-.19.86-.25,1.25h0s-.02.01-.02.01h-.03s0,.01,0,.01c-.06.4-.11.78-.18,1.11-.06.29-.12.62-.19.92-.5,2.62-.92,4.71-.92,4.71,0,0,.44.83,1.07,2.11,1.49,3.05,3.93,8.61,3.47,11.17Z"/><path class="cls-28" d="m611.16,80.45s1.4-5.6,2.32-12.58c.92-6.98-.07-7.95-.07-7.95,0,0-15.23,2.82-18.69,7.99-3.46,5.17-4.27,10.8-3.78,10.92.49.12,4.41.45,4.41.45,0,0-.41-.13,0,0,.41.13,16.16,8.49,15.82,1.17Z"/><path class="cls-78" d="m611.78,79.1l-.07-7.99s-7.17.53-10.42,2.12c-3.25,1.59-6.47,6.02-6.47,6.02,0,0,15.23,6.89,16.96-.14Z"/><path class="cls-95" d="m611.71,71.11s.93,8.07-2.74,10.83c-3.67,2.76-5.73-9.57-5.73-9.57l8.47-1.26Z"/><path class="cls-101" d="m601.93,75.69c.03.27,1.05.39,2.28.25,1.23-.13,2.2-.46,2.17-.74s-1.05-.39-2.28-.25-2.2.46-2.17.74Z"/><path class="cls-94" d="m615.08,69.32l-3.36,2.46s-5.72.31-9.36,1.38c-3.63,1.07-7.55,6.08-7.55,6.08,0,0,3.12-5.4,7.53-7.38,4.42-1.98,12.73-2.54,12.73-2.54Z"/><path class="cls-51" d="m627.2,81.07s.01,0,.03.01h.01c.37.03,3.27.3,5.89-.55h.01c.69-.21,1.42-.53,2.03-.96-.63-1.28-1.07-2.11-1.07-2.11,0,0,.41-2.09.92-4.7.06-.3.13-.64.19-.93.07-.34.13-.71.18-1.11h0s.03-.01.02-.01h.02,0c.06-.41.16-.82.25-1.25h0c.07-.46.16-.91.25-1.35v-.05c.21-1.09.42-2.12.6-3.01.14-.68.25-1.29.35-1.76.09-.44.15-1.07.24-1.78-.05,0-.05.04-.08.04,0,0-.01,0-.01.01-.54.31-1.15.66-1.77,1.05-.81.5-1.69,1.04-2.5,1.63-.12.08-.26.18-.39.29-.06.05-.11.1-.18.16h-.05c-.18.15-.36.27-.54.42-.44.35-.83.66-1.18,1.01-.26.23-.5.5-.72.73-.09.1-.17.18-.24.27-.08.11-.17.21-.25.33-.07.08-.1.14-.1.22h0s-.03.08-.03.08c-.71,1.21-1.17,2.86-1.44,4.6v.03s0,.05,0,.07c-.06.31-.12.63-.14.94,0,.05-.02.09-.02.15,0,.11-.02.23-.04.33-.15,1.09-.19,2.16-.26,3.14,0,.03-.01.06,0,.09-.07,2.27.03,3.97.03,3.97Z"/><path class="cls-79" d="m627.18,81.09l5.17-.48h.1s.71-.06.71-.06c0,0,.52-2.07.65-4.22,0-.06.02-.11.02-.17.07-1.28.03-3.33,0-4.81-.03-.75-.03-1.34-.05-1.63-.23.06-.44.12-.67.18-.9.45-1.66.95-2.31,1.48-.63.5-1.18,1.03-1.6,1.57-.08.08-.13.14-.19.21-3,3.8-1.83,7.95-1.83,7.95Z"/><path class="cls-95" d="m629.32,72.23l.02.57c.25,3.13.83,7.7,2.16,7.8t.07.03s.04,0,.07-.04c.92-.1,1.64-2.02,2.03-4.27,0-.07.03-.11.03-.18.3-1.65.41-3.51.3-4.86-.02-.68-.11-1.21-.3-1.59-.18.08-.39.12-.6.2-.78.2-1.55.55-2.28,1.04t-.07,0c-.56.38-1.01.82-1.42,1.3Z"/><path class="cls-95" d="m627.26,76.36c.2-.54.71-2.06,1.74-3.23.07-.07.1-.11.21-.19l.14-.15c.41-.41.9-.74,1.46-.94.25-.08.49-.12.78-.13.85-.07,1.6-.2,2.23-.4.07,0,.11-.04.18-.04h.04c.49-.16.95-.35,1.37-.55v-.04h.03c1.19-.58,1.81-1.2,1.81-1.2,0,0-.64-.08-1.57-.02-.53.02-1.17.08-1.88.24t-.04-.03s-.04,0-.07,0c-.18.08-.39.12-.6.2-.78.2-1.55.55-2.28,1.04t-.07,0c-.56.38-1.01.82-1.42,1.3-1.37,1.58-1.91,3.52-2.07,4.13Z"/><path class="cls-101" d="m628.57,75.23c.02.19.94.24,2.05.12,1.11-.12,2-.37,1.98-.56-.02-.19-.94-.24-2.05-.12-1.11.12-2,.37-1.98.56Z"/><path class="cls-103" d="m615,59.09s-.88,2.13-2.54,3.12c-1.66.99-5.78.06-10.67,1.56-4.89,1.5-6.36,3.28-6.36,3.28,0,0,3.83-3.91,7.73-5.5,3.9-1.58,11.85-2.46,11.85-2.46Z"/><path class="cls-102" d="m637.25,58.9l-.36,4.38s-2.57-.42-4.7,1.38c-2.13,1.8-3.13,3.07-3.13,3.07,0,0,2.57-7.28,8.2-8.83Z"/><path class="cls-105" d="m630.22,87.24s-3.13-3.22-3.25-7.21c-.12-3.99.83-8.16.83-8.16,0,0-1.67,5.64-1.65,8.25.02,2.61,4.08,7.12,4.08,7.12Z"/><path class="cls-104" d="m603.91,96.16c.96.75,5.85,4.64,6.31,5.38.52.8,6.78,6.61,12.3,5.42,2.3-.5,3.47-1.39,4.03-2.25.04-.06.11-.12.13-.16.65-1.13.34-2.18.34-2.18l-.29-1.59-.02-.1s2.26-.57,1.6-1.38c-.65-.81-13.72-.15-15.33.06-4.44.6-8.23-2.66-9.07-3.2Z"/><path class="cls-83" d="m610.61,100.03s3.34,6.26,10.7,6.38c2.64.04,4.26-.73,5.24-1.7.04-.06.11-.12.13-.16.65-1.13.34-2.18.34-2.18l-.29-1.59c-.98.14-2.63.31-5.23.31-2.97.01-6.15-.34-8.3-.64-1.57-.23-2.59-.42-2.59-.42Z"/><path class="cls-105" d="m630.94,89.95c.75-1.14-1.74,3.85-3.86,4.76-2.12.91-7.61-2.14-8.26-2.3-.65-.16-3.26.11-3.55-.21-.29-.32.66-3.8.66-3.8,0,0-.71,2.47.31,3.28,1.03.81,2.99.04,2.99.04,0,0,8.39,3.27,11.7-1.77Z"/><path class="cls-83" d="m625.34,89.59c.05.44.95.7,2.02.59,1.07-.12,1.9-.57,1.85-1.01-.05-.44-.95-.7-2.02-.59-1.07.12-1.9.57-1.85,1.01Z"/><path class="cls-78" d="m621.24,103.35c2.21-.13,4.28-2.42,4.28-2.42-.98.14-1.42.17-4.02.16-2.97.01-6.15-.34-8.3-.64,0,0,5.85,3.04,8.04,2.9Z"/><path class="cls-67" d="m574.5,89.08c1.14,7.41,12.24,15.06,23.17,20.35-11.75-7.2-20.63-19.76-17.8-33.83,2.82-14.05,27.58-36.59,39.96-38.78,9.61-1.69,15.24,5.62,17.44,9.09,0-.23,0-.34,0-.34,0,0-8.22-18.14-31.14-13.29-22.92,4.83-33.7,43.1-31.63,56.8Z"/><path class="cls-154" d="m568.25,84.28c-3.88-1.53-7.35-5.35-9.24-9.31-1.81-3.8-2.18-7.72-.11-9.88,3.92-4.08,14.06.58,15.81,4.56,2.17,4.96,1.42,11.63,1.42,11.63-.14,3.91-1.73,5.42-7.88,3Z"/><path class="cls-160" d="m568.59,85.12c-3.8-1.69-7.07-5.65-8.76-9.68-1.62-3.87-1.79-7.8.39-9.87,4.12-3.91,14.02,1.16,15.56,5.21,1.92,5.04.83,11.67.83,11.67-.34,3.9-2,5.34-8.02,2.67Z"/><path class="cls-36" d="m601.1,128s-.03,15.36-4.5,17.4c-4.46,2.04-23.26-17.4-23.26-17.4,0,0,20.1,24.08,24.91,21.27,3.65-2.13,2.84-21.27,2.84-21.27Z"/><path class="cls-155" d="m561.87,69.08c2.54-1.98,8.94-.96,10.44,4.86.47,1.83-2.68,1.9-1.77,3.69.91,1.79,2.58,2.28,2.58,2.28,0,0-3.5.37-6.25-1.9-2.74-2.27,1.68-12.09-5-8.93Z"/><path class="cls-115" d="m600.54,125.73s-.03,15.36-4.5,17.4c-4.46,2.04-24.37-17.09-24.37-17.09,0,0,21.21,23.77,26.02,20.96,3.65-2.13,2.84-21.27,2.84-21.27Z"/><path class="cls-22" d="m608.5,25.85c-6.7,5.98-18.78,22.5-45.48,15.36-16.15-4.32-11.99.17-11.99.17,0,0,16.22,22.69,34.33,14.02,18.11-8.67,23.14-29.55,23.14-29.55Z"/><path class="cls-125" d="m601.03,24.25c-4.8.94-14.36,1.34-28.62,12.11-8.62,6.52-6.93,4.07-6.93,4.07,0,0,5.78-10.71,17.57-14.95,11.8-4.24,17.98-1.23,17.98-1.23Z"/><path class="cls-144" d="m599.8,18.53c10.77.36,13.35,12.92,13.35,12.92,0,0,.65-5.58,2.83-8.38-1.16-.89-7.1-5.32-10.67-5.18-.8.03-2.78.23-5.5.63h-.01Z"/><path class="cls-33" d="m567.48,37.21c.78-.39,46.8-5.67,55.79-12.37,8.99-6.71-51.15,2.27-51.15,2.27l-4.64,10.11Z"/><path class="cls-134" d="m646.97,40.64c-1.95-3.85-4.12-7.12-5.79-8.84-.64-.67-1.22-1.11-1.68-1.26-2.1-.66-6.15,3.71-8.78,6.9-.31.38-.58.74-.85,1.05-.4.51-.74.96-1.01,1.31-.39.52-.62.83-.62.83l-.63-.42-.79-.53-.46-.31-3.53-2.37-.66-.44-.69-.46s-.01,0-.01,0l-5.16-3.45-1.76-1.18v-.02s-.11-.05-.11-.05c.21-.16,1.38-.58,3.09-1.14h0c3.48-1.17,9.21-2.92,13.68-4.1.06-.02.11-.03.17-.05.15-.03.29-.07.45-.11h.01s.06-.02.08-.03c2.44-.63,4.41-1.07,5.3-1.1.13,0,.27.02.42.06t.01,0c2.23.81,6.63,7.73,9.31,15.71Z"/><path class="cls-129" d="m614.29,26.47c.13-.14,1.12-1.2,2.49-2.09,1.03-.69,2.29-1.27,3.54-1.29,1.7-.02,5.28.95,8.08,1.79.31.09.62.19.9.28.87.27,1.62.52,2.14.7.09.02.17.05.26.08.05.01.1.03.15.05.06.02.12.03.16.05h.01c.1.04.19.06.22.07-.03,0-.08-.03-.15-.08-.05,0-.09-.04-.16-.07-2.02-.92-12.03-5.48-13.14-5.27-.48.1-1.23.95-1.99,1.97-.03.04-.05.07-.08.09-1.16,1.58-2.32,3.51-2.43,3.71Z"/><g><path class="cls-139" d="m629.42,10.76l-.4,1.69-.6,2.53-.76-1.11-5.61-8.2s-.79.69-2.2,1.81c-4.88,3.89-17.17,12.94-29.51,16.31-7.89,2.15-12.55,3.2-15.3,3.69l-2.25-3.07-1.68-2.3c.17.12,1.94.74,19.24-3.98,13.52-3.69,26.99-14.21,30.71-17.27C621.71.31,622.06,0,622.06,0l6.84,9.99.53.77Z"/><path class="cls-63" d="m629.02,12.45l-.6,2.53-.4,1.68-5.98-8.73s-15.81,13.79-31.72,18.12c-6.64,1.81-10.99,2.84-13.84,3.41-.54.11-1.03.2-1.46.28l-3.94-5.37c.06.05.36.17,1.68.03,2.12-.22,6.89-1.1,17.56-4.02,15.9-4.34,31.72-18.12,31.72-18.12l6.97,10.18Z"/><path class="cls-128" d="m628.43,14.97l-.4,1.68-1.89,8.01s-.73.16-2.02.44c-1.7.36-4.37.92-7.62,1.57-11.25,2.25-29.4,5.58-38.01,5.51l-1.99-2.72-1.46-1.99c2.75-.49,7.41-1.54,15.3-3.69.39-.11.77-.21,1.16-.33.39-.11.77-.24,1.16-.36.36-.11.71-.24,1.07-.36.05-.02.09-.03.14-.05.36-.13.73-.26,1.09-.4.38-.14.76-.29,1.14-.44.3-.12.61-.24.91-.37.45-.19.91-.39,1.35-.59.37-.16.75-.33,1.12-.51.37-.17.74-.35,1.11-.53.37-.18.73-.36,1.09-.54.35-.17.69-.35,1.03-.53.02,0,.03-.02.05-.03.36-.18.71-.37,1.06-.57.31-.16.62-.33.93-.51.04-.02.08-.04.12-.07.33-.18.66-.37.99-.56.36-.2.71-.41,1.05-.62.33-.19.66-.39.99-.59.03-.02.07-.04.11-.06.29-.18.58-.35.86-.53.32-.19.63-.39.95-.59.01,0,.03-.01.04-.02.6-.38,1.18-.76,1.76-1.14,0,0,.01-.01.02-.02.29-.19.58-.39.87-.58,1.43-.96,2.73-1.89,3.88-2.74.23-.16.45-.33.67-.5.22-.16.44-.32.64-.48.2-.15.41-.31.59-.45.59-.45,1.11-.86,1.57-1.22.13-.1.26-.2.38-.3.09-.07.18-.14.26-.21.71-.58,1.19-.99,1.42-1.18.04-.03.07-.06.1-.08.02-.02.03-.03.04-.03,0,0,.01-.01.01-.01l5.61,8.2.76,1.11Z"/><path class="cls-91" d="m628.89,9.99l-.49,1.55h0s-.73,2.33-.73,2.33l-.49,1.55h0s-3.06,9.69-3.06,9.69c-1.7.36-4.37.92-7.62,1.57.64-3.93,1.78-10.42,2.87-16.55h0c.16-.89.32-1.78.48-2.65.25-1.38.49-2.71.71-3.96h0c.17-.94.33-1.83.48-2.66C621.71.31,622.06,0,622.06,0l6.84,9.99Z"/></g><path class="cls-124" d="m625.01,37.93c-1.32-.87-2.49-1.46-3.53-1.81,0,0-.01,0-.01,0-2.33-.79-4.07-.38-5.55.85-5.45,4.49-7.41,20.03-22.56,27.73-5.22,2.65-10.56,2.65-15.63,1.16-15.44-4.55-28.46-23.01-28.46-23.01,0,0-1.35-5.69-.32-9.19,1.03-3.48,7.8-7.17,7.8-7.17,0,0,8.47,34.09,28.58,22.55,0,0,0,0,0,0,7.18-4.13,11.89-8.4,15.07-12.24,1.05-1.27,1.94-2.49,2.69-3.64,1.9-2.91,2.97-5.37,3.76-7.09.61-1.32,1.04-2.2,1.56-2.48,1.13-.61,5.26,2.96,9.11,6.71h0c.58.57,1.16,1.13,1.72,1.7h0c3.05,3.04,5.57,5.78,5.74,5.97Z"/><path class="cls-30" d="m564.35,49.21s9.22,6.88,19.16,6.97c9.94.09,24.84-22.37,24.84-22.37,0,0-12.53,24.68-26.24,27.45-13.71,2.77-26.78-9.44-26.78-9.44l9.01-2.61Z"/><polygon class="cls-92" points="608.43 23.56 616.38 34.74 612.73 38.68 606.12 31.27 608.43 23.56"/><path class="cls-100" d="m554.39,127.81c-8.79-.94-23.52,37-23.52,37l26.68,9.61,13.5-20.09-16.66-26.53Z"/><path class="cls-107" d="m608.84,636.04c-1.63-10.26-9.37-13.15-21.07-11.66-20.74,2.56-53.95,18.77-87.28,31.81h-.04c-23.85,9.29-47.77,16.92-67.28,16.66-23.44-.33-37.55-8.55-46.92-18.26l-.04-.04c-.22-.22-.44-.44-.67-.7l-.04-.04c-1.04-1.11-2-2.22-2.93-3.37-12.33-15.15-15.15-31.66-24.22-27.03-6.44,3.33-12.78,5.85-18.96,7.74-1.26.37-2.56.74-3.81,1.07-9.29,2.44-18.18,3.48-26.51,3.48-37.66,0-63.88-20.51-63.88-20.51l112.79-35.4,11.29-.37,32.03-1.04s8.55-22.59,11.89-46.95c13.89-100.8,49.51-177.23,83.39-229.07,36.29-55.55,70.62-82.8,73.91-81.47,4.41,1.74,7.26,5.48,8.59,7.67v.04c.52.85.81,1.44.89,1.59l15.63-3.55,18.07-4.11s-.89-5.7,8.37.07c4.74,2.96,12.03,28.4,19.51,54.36,7.11,24.66,14.41,49.81,19.89,56.62,10.44,12.96,29.44-92.84,32.18-108.5.22-1.26.33-1.93.33-1.93,0,0,.15.48.44,1.41.07.22.15.48.26.74v.07c.59,1.81,1.48,4.67,2.67,8.44,11.22,35.4,63.95,189.71,81.1,230.89,1.96,4.7,3.63,8.44,5.04,11.04,15.89,29.66-171.71,178.6-174.64,160.31Z"/><path class="cls-123" d="m641.13,195.86l-.03.08s0,.02,0,.02l-20.44,5.61v-36.64l7.56-14.32s.84,1.05,2.16,2.72c4.74,6.01,15.72,20.03,16.61,22.24,1.08,2.71-5.3,18.89-5.85,20.29Z"/><path class="cls-121" d="m632.3,175.82c.04.26-.15.71-.49,1.3,0,0-.01.02-.02.02-.74,1.26-2.19,3.13-3.72,5.14-2.45,3.2-5.09,6.72-5.33,8.55-.02.12-.02.23-.02.33.06,1.1-.2,5.15-.57,10-.7,9.21-1.78,21.28-1.78,21.28,0,0-8.2,22.85-15.44,21.99-1.33-.15-3.26-.93-5.53-2.08-5.64-2.87-13.37-8.1-19.14-12.21-.15-.1-.3-.21-.45-.32-4.4-3.13-7.55-5.52-7.55-5.52l1.18-1.83,3.29-5.08,3.02.16-3.54-3.89s-11.81-16.04-17.25-39.27c-.02-.07-.03-.15-.05-.23-.29-1.22-.56-2.47-.8-3.73,15.81-8.78,27.21-10.08,35.03-8.74h0c1.81.31,3.42.76,4.86,1.29,6.64,2.45,9.44,6.63,9.44,6.63,0,0,2.49-4.66,5.58-7.88.9-.95,1.85-1.77,2.8-2.32.02-.02.04-.02.06-.03.55-.31,1.1-.53,1.64-.62.01,0,.02,0,.02,0,.44-.08.87-.08,1.3.02,1.78.4,3.97,2.47,6.07,5.05,3.77,4.63,7.22,10.88,7.39,12Z"/><path class="cls-66" d="m624.89,199.93l-2.74,1.23h0c.37-4.85.63-8.9.57-10,0-.1,0-.22.02-.33.24-1.82,2.88-5.35,5.33-8.55.83,6.97-3.18,17.65-3.18,17.65Z"/><path class="cls-130" d="m613.01,161.74c3.95-2.59,19.29,5.48,19.29,5.48,0,0-4.38-8.5-10.71-8.85-6.33-.35-8.58,3.37-8.58,3.37Z"/><path class="cls-35" d="m583.3,166.05c2.41-1.98,4.66-3.37,6.15-3.27,1.78.12-1.4,1.53-6.15,3.27Z"/><path class="cls-9" d="m631.79,177.14c-1.93,3.27-8.65,10.72-9.05,13.68-3.3-.78-7.72-1.66-10.88-1.66-5.65,0-32.72,12.4-33.15,12.4-.3-.05-.27,3.46,1.43,8.55,1.7,5.1,6.8,7.93,6.8,7.93,0,0-5.66-.57-5.66,0,0,.57,10.19,4.53,10.19,4.53,0,0-15.29-2.83-16.42-1.7-1.13,1.13,29.88,23.54,29.88,23.54-7.24-.85-32.66-20.13-32.66-20.13l4.47-6.91,3.02.16-3.54-3.89s-11.81-16.04-17.25-39.27c-.02-.07-.03-.15-.05-.23l3.31-1.15s12.87-3.98,21.07-6.97c-5.43,4.46-11.62,11.89-11.62,11.89,0,0-.59,9.53,7.34,11.79,7.92,2.27,48.04-6.21,52.77-12.59Z"/><path class="cls-153" d="m598.02,162.98c-20.7-.44-31.11,17.12-31.11,17.12l-6.89-4.96-1.04-.75c-.19-.82-.37-1.64-.55-2.47-.1-.49-.2-.99-.3-1.48.32-.18.65-.36.97-.53,2.07-1.13,4.07-2.12,5.98-2.99,12.27-5.6,21.45-6.36,28.08-5.23h0l4.86,1.29Z"/><g class="cls-148"><path class="cls-84" d="m641.13,195.86l-.03.08c.14-.54,4.17-16.42,3.46-17.54-.72-1.13-11.17,0-11.73,0s9.63-4.53,9.63-6.23c0-1.67-12.62-18.86-13.02-19.4l.94.56c4.74,6.01,15.72,20.03,16.61,22.24,1.08,2.71-5.3,18.89-5.85,20.29Z"/></g><path class="cls-2" d="m598.84,159.71c3.96,2.27,8.61,9.89,8.61,9.89l2.69-4.95-11.3-4.95Z"/><path class="cls-53" d="m565.07,166.92c-1.91.87-3.91,1.86-5.98,2.99l-1.91-1.52c1.93-6.51,1.74-17.28,1.74-17.28,0,0,2.63,10.08,6.15,15.81Z"/><path class="cls-50" d="m580.01,230.2c-12.95-5.55-67.79,54.62-83.4,72.17,36.3-55.55,70.6-82.81,73.92-81.48,4.41,1.76,7.24,5.5,8.58,7.67v.02s.89,1.6.89,1.6l.02.03Z"/><path class="cls-72" d="m467.44,427.6c33.96-103.49,84.34-166.2,90.56-173.68-4.73,5.86-35.45,46.15-61.05,135.67,0,0,0,.01,0,.02-3.74,13.11-7.39,27.26-10.81,42.53-20.99,93.42-14.73,173.31-20.96,173.31-2.92,0-25.55-5.67-48.79-11.69h0c-26.36-6.83-53.5-14.12-53.5-14.12,0,0,58.69,3.73,67.18-9.3,8.5-13.03,12.58-67.15,37.38-142.72Z"/><path class="cls-57" d="m686.72,299.2c-2.08,29.85-5.39,67.97-10.04,95.68-.42,2.51-.86,4.93-1.3,7.26,0,.02,0,.05-.01.07-1.86,9.73-3.91,17.72-6.17,22.94-1.99,4.6-4.13,7.06-6.43,6.68-18.63-3.09-40.15-91.25-48.65-185.36-.41-4.63,32.79,126.11,50.35,146.57.61.7,1.19,1.28,1.76,1.71,10.75,8.24,17.2-50.95,20.49-95.56Z"/><path class="cls-65" d="m686.84,297.61c1.47-21.29,2.3-38.13,2.57-43.5-.24,5.48-1.05,22.78-2.57,43.5Z"/><path class="cls-55" d="m689.44,253.21c-.01.24-.02.53-.04.86.01-.33.03-.62.04-.86Z"/><path class="cls-70" d="m692.29,239s11.33,166.08-3.4,209.05c-14.73,42.98-37.38,60.53-37.38,60.53,0,0-26.62,90.05-15.86,91.18,10.76,1.13,52.1-43.21,65.7-105.34,13.59-62.14-9.06-255.43-9.06-255.43Z"/><path class="cls-161" d="m784.56,480.98c.14,16.7-33.07,49.96-67.46,79.9-4.33,3.77-8.69,7.49-13,11.12-29.64,24.96-57.12,45.54-61.48,48.78,12.23-9.42,32.17-36.39,53.31-65.07,4.29-5.81,8.61-11.68,12.94-17.49,8.01-10.77,16-21.34,23.63-30.87,26.05-32.51,47.9-52.9,51.91-28.05.09.54.13,1.1.14,1.69Z"/><path class="cls-52" d="m595.35,251.46s-2.63,18.76-.14,58.94c2.49,40.18,14.98,83.29,14.98,83.29l-14.84-142.23Z"/><path class="cls-20" d="m597.59,242.73s-.67,15.27,5.95,46.94c6.62,31.67,23.46,64.38,23.46,64.38l-29.41-111.33Z"/><path class="cls-32" d="m578.07,239.57s-30.59,35.57-50.9,109.14c-30.84,111.74-33.65,252.19-37.63,256.72-3.98,4.53-58.13,7.65-58.13,7.65,0,0,62.65-2.55,68.31-2.55,5.66,0,71.42,10.69,71.42,10.69,0,0-55.08-7.65-60.66-21.45-5.58-13.8,1.13-172.17,19.82-249.76,14.07-58.42,47.76-110.44,47.76-110.44Z"/><path class="cls-42" d="m622.24,227.41c3.21.27,18.52,66.34,18.52,66.34,0,0-17.58-62.25-21.26-61.33-3.68.92-3.68,2.62-3.68,2.62l6.41-7.63Z"/><path class="cls-5" d="m617.02,235.2c3.9-1.3,33.92,130.67,33.92,130.67l-35.11-121.42,1.19-9.25Z"/><polygon class="cls-26" points="700.84 253.03 724.57 486.5 731.17 401.62 700.84 253.03"/><path class="cls-41" d="m496.94,389.6c-3.74,13.11-7.39,27.26-10.81,42.53-20.99,93.42-14.73,173.31-20.96,173.31-2.92,0-25.55-5.67-48.79-11.69,45.96,5.45,48.89-129.44,80.56-204.14Z"/><g class="cls-110"><path class="cls-90" d="m371.98,617.53s102.11-4.72,106.72-4.44c4.6.28-71.85,39.93-75.25,38.23s-11.95-23.96-31.46-33.78Z"/></g><g class="cls-132"><path class="cls-86" d="m292.16,605.44s65.14-23.11,68.11-21.75c2.96,1.36,48.15,16.11,48.15,16.11,0,0-69.53-13.61-116.26,5.64Z"/></g><g class="cls-138"><path class="cls-85" d="m778.42,464.71c-14.1-6.49-41.96,25.19-41.96,25.19,0,0-30.24-214.43-39.11-256.08,11.21,35.38,63.95,189.72,81.07,230.89Z"/></g><g class="cls-131"><path class="cls-82" d="m382.59,650.45c-12.34-15.17-15.14-31.68-24.22-27.03-7.79,3.99-15.4,6.85-22.77,8.79,15.74-5.82,23.53-12.75,27.28-13.82,3.34-.95,11.7,21.34,19.7,32.06Z"/></g><g class="cls-93"><path class="cls-77" d="m386.22,654.56c-.22-.23-.44-.46-.66-.7.29.27.52.5.66.7Z"/></g><path class="cls-68" d="m654.33,590.15c-10.85,11.66-19.78,19.56-27.02,24.9-17.7,13.08-25.15,10.81-25.15,10.81,0,0-33-53.49-39.55-174.43-.09-1.65-.18-3.32-.25-5.01-.06-1.33-.12-2.64-.18-3.95-5.14-122.15,21.51-198.02,21.51-198.02,0,0-20.65,113.48.41,197.88,22.82,91.46,97.98,107.61,97.98,107.61,0,0,9.63,0-27.76,40.21Z"/><path class="cls-117" d="m560.07,170.69s0,.5-.02,1.37c0,.76-.02,1.82-.04,3.09-.11,6.81-.43,19.63-1.28,25.54-.18,1.25-.38,2.19-.61,2.7-1.76,3.9-10.32,4.63-10.32,4.63l-3.81-1.59h0l-20.2-8.42-.84-.35-7.66-17.56s.12-.24.36-.67c2.47-4.59,16.89-31.01,19.88-28.32l21.66,17.28,1.91,1.52.98.78Z"/><g class="cls-120"><path class="cls-89" d="m608.84,636c-.81-5.04-3.11-8.26-6.59-10.11-.04,0-.04-.04-.07-.04-16.33-8.41-58.88,13.63-101.69,30.33,27.51-12.26,83.17-41.44,95.91-41.7h.18c6.33,0,9.37,5.55,10.85,11.03,1.37,5,1.41,9.92,1.41,10.48Z"/></g><path class="cls-62" d="m535.97,194.26l-7.33,5.77s9.03-20.39,9.6-20.5c.56-.1-2.27,14.73-2.27,14.73Z"/><path class="cls-71" d="m541.12,205.24l-10.9-4.55,5.33,2.22s11.75-2.42,14.02-5.25c2.27-2.83,5.1-23.22,5.1-23.22,0,0-1.14,22.51,0,26.62,1.14,4.12-13.54,4.18-13.54,4.18Z"/><g class="cls-156"><path class="cls-88" d="m549,165.94c2.82,8.9,1.13,27.18.57,27.75s-9.78-6.07-11.33-7.36c-1.55-1.3,4.2-13.76,3.4-13.59-.8.16-6.8,10.76-7.36,10.76s7.36-27.19,4.05-29.17l10.68,11.61Z"/></g><path class="cls-13" d="m558.73,200.69c-.18,1.25-.38,2.19-.61,2.7-1.76,3.9-10.32,4.63-10.32,4.63l-3.81-1.59h0c-.12.32-.24.63-.36.94l-20.89-6.28,1.05-3.08-.84-.35-7.66-17.56s.12-.24.36-.67c.3,0,3.59,6.88,3.9,6.9,13.45,1.06,35.68,18.12,39.19,14.36Z"/><path class="cls-25" d="m696.41,231.46c-.18-.69-.35-1.4-.51-2.1-.41,2.77-2.48,5.11-2.48,5.11,0,0-1.67-5.01-4.46-7.31.75-2.1,1.1-5.67-3.13-8.81l3.64,2.4,5.37,3.54.28,1.12,1.29,6.05Z"/><path class="cls-37" d="m695.54,399.07s-8.92-14.52-14.58-14.52c-1.57,0-3.01,4.22-4.27,10.32-.45,2.21-.89,4.67-1.3,7.26,0,.02,0,.05-.01.07-1.86,9.73-3.91,17.72-6.17,22.94l-4.73-32.11-22.89-116.09s14.41,49.81,19.88,56.63c10.42,12.96,29.43-92.84,32.18-108.51.32-.21.58-.38.78-.51.27-.18.41-.27.41-.27-.06.23-.11.58-.16,1.06-1.68,16.28.86,173.72.86,173.72Z"/><path class="cls-61" d="m600.67,302.36s-2.79-56.48-9.67-57.94c-6.88-1.46-29.48,123.98-30.92,211.91-1.44,87.94,5.18,156.74,5.18,156.74,0,0-2.22,6.45-7.25,5.92-5.04-.53-46.74-5.58-76.58-7.87-29.84-2.29-118.54,7.27-118.54,7.27l-23.46,12.74c-1.28.39-2.55.75-3.82,1.08h0c-51.26,13.55-90.39-17.02-90.39-17.02l112.78-35.41,43.33-1.41s8.56-22.58,11.91-46.93c13.87-100.81,49.5-177.25,83.38-229.08,36.3-55.55,70.6-82.81,73.92-81.48,1.07.43,2.05.97,2.93,1.59l-1.18,1.83s3.15,2.39,7.55,5.52c.09.18.15.3.17.35l.02.03.26-.06c5.77,4.1,13.5,9.34,19.14,12.21l1.26,60.02Z"/><g><path class="cls-136" d="m641.54,294.87c-.21.18-.51.22-.85.18-.15-.01-.31-.05-.46-.1-1.06-.28-2.3-1.09-2.55-1.26-.03-.02-.05-.03-.05-.03,0,0,.49,2.17.27,3.66-1.9-.59-4.73-2.06-6.89-5.81,0,0,0-.01-.01-.02-2.17-3.93-3.79-8.1-4.13-8.99l4.1,13.58c-.14-.08-.21-.14-.21-.14,0,0-2.55.15-4.61-1.21-1.55-1.02-4.77-7.02-6.26-9.9-.3-.59-.53-1.04-.66-1.3h0c-.08-.16-.12-.25-.12-.25,0,0,.7,2.85,1.32,5.64.01.06.03.13.05.19.01.08.03.14.04.18,0,0,0,.01,0,.01,0,.01,0,.03,0,.03,0,.02,0,.03,0,.03.59,2.65,1.07,5.12.76,4.89-.63-.48-4.29-1.7-5.56-5.66-1.28-3.97-1.95-7.15-1.95-7.15,0,0-13.86,3.52-18.67.94-3.76-2.02-10.85-8.05-13.79-10.61-.83-.72-1.33-1.16-1.33-1.16,0,0-.78-.31-2.15-.86-.02,0-.04,0-.05-.02-.19-.08-.39-.16-.6-.24-.01,0-.03-.01-.03-.01h0c-7.56-3.09-28.36-11.85-39.27-19.02-13.48-8.87-23.3-25.66-23.3-25.66l6.18-18.17.09-.27,1.65-4.86,1.2-3.54,23.19,9.67c-.14.36-.27.72-.41,1.08-.08.2-.15.39-.22.59-.38,1-.73,1.99-1.07,2.96-1.49,4.25-2.54,8.06-2.49,10.18,0,.46.07.85.19,1.13.26.24.57.53.91.88,7.49,7.31,33.39,35.77,40.11,40.16.35.23.65.4.89.49,1.32.51,4.64.86,8.85,1.13,11.94.75,31.13.81,32.76,1.55.48.21,1.48,1.54,2.76,3.5,4.71,7.19,13.12,22.9,12.36,23.55Z"/><path class="cls-14" d="m545.16,226.93c-4.21-3.31-15.91-3.67-15.91-3.67l13-1.59,2.91,5.26Z"/><path class="cls-39" d="m610.53,277.59s6.5,0,7.15.65c.65.65,2.85,11.17,2.85,11.17,0,0-1.55-11.83-2.2-12.48-.65-.65-7.8.65-7.8.65Z"/><path class="cls-17" d="m630.75,295.97s-6.57-20.33-7.87-20.98c-1.3-.65-7.8-.65-7.8-.65,0,0,9.78,0,9.75.65-.03.65,5.92,20.98,5.92,20.98Z"/><path class="cls-31" d="m637.64,293.68l-10.2-20.64s12.22,21.29,13.26,22.02c1.04.74-3.06-1.38-3.06-1.38Z"/><path class="cls-19" d="m546.9,207.68c-.14.36-.27.72-.41,1.08-.08.2-.15.39-.22.59-.38,1-.73,1.99-1.07,2.96-9.01-4.07-18.12-5.46-24.34-5.9l1.65-4.86,1.2-3.54,23.19,9.67Z"/></g><g><path class="cls-133" d="m578.71,27.46c-.01,1.36-.15,2.76-.41,4.18-.02.12-.04.23-.07.35-.02.14-.05.28-.08.41-.46,2.31-1.22,4.67-2.18,6.97-.14.33-.28.67-.43,1-.12.27-.24.54-.37.81-.28.6-.57,1.19-.87,1.77-.11.22-.23.44-.35.66-.05.1-.1.2-.16.3-.12.22-.24.43-.36.65-.02.06-.06.12-.1.18-.45.79-.93,1.57-1.42,2.31-.17.25-.34.51-.52.76-.35.5-.7.99-1.06,1.46-.66.87-1.33,1.68-2.02,2.42-.23.25-.45.49-.68.73-.11.12-.23.23-.35.35-.18.17-.35.34-.53.5-.12.11-.23.22-.35.32-.05.05-.1.1-.15.14-.11.1-.21.19-.32.28-.3.25-.6.49-.9.7-.13.1-.26.19-.39.28-.54.37-1.09.69-1.68.96-.14.06-.27.12-.41.18-.14.06-.28.11-.42.17-.12.05-.25.09-.38.13-.06.03-.1.04-.15.05-.13.04-.26.08-.39.11-.08.03-.16.05-.25.07-.12.03-.24.06-.37.09-.16.04-.32.07-.49.1-.11.03-.23.05-.34.06-.11.02-.23.03-.34.05-.15.02-.3.04-.45.06-.16.02-.32.03-.48.04-.18.01-.36.02-.53.03-.18,0-.36.01-.54.01-.33,0-.66,0-1-.03-.25-.01-.5-.03-.76-.06-.18-.01-.37-.03-.56-.07-.42-.06-.83-.13-1.25-.21-.24-.05-.49-.1-.74-.16-.25-.06-.5-.12-.75-.19-.06-.01-.1-.03-.16-.04-.77-.23-1.52-.49-2.28-.8-6.67-2.66-12.99-8.48-15.73-15.34-.83-2.07-1.33-4.26-1.42-6.48-.01-.26-.02-.52-.02-.78,0-.5.03-1.03.07-1.54h0s.01-.05.01-.07c0-.03,0-.07,0-.09.14-1.3.44-2.62.91-3.93,1.68-4.67,4.17-7.72,6.89-9.68h0c3.62-2.62,7.7-3.32,10.93-3.34,3.43-.02,5.91.71,5.91.71,2.49-.42,4.74-.61,6.73-.6.48,0,.93.02,1.38.03.07.01.14,0,.21.02,5.96.37,9.53,2.7,11.34,6.1h0c.03.08.07.15.11.23.38.76.69,1.56.89,2.41.36,1.35.51,2.81.52,4.33Z"/><path class="cls-44" d="m547.95,19.07c11.15,8.48-4.82,17.51-4.82,17.51l4.8,6.57s16.07-6.85,16.06-7.29c-.01-.44-.37-10.78-.37-10.78l-15.67-6.02Z"/><path class="cls-10" d="m575.98,39.37c-.14.33-.28.67-.43,1-.12.27-.24.54-.37.81-.27.6-.56,1.19-.87,1.77-.11.22-.23.44-.35.66-.05.1-.1.2-.16.3-.12.22-.24.43-.36.65-.02.06-.06.12-.1.18-.45.79-.92,1.57-1.42,2.31-.17.25-.34.51-.52.76-.22.32-.45.64-.68.95-.44.6-.89,1.18-1.34,1.72-.04.05-.08.1-.12.15-.53.63-1.07,1.24-1.61,1.79-.11.12-.23.23-.35.35-.18.18-.35.34-.53.5-.12.11-.23.22-.35.32-.05.05-.1.1-.15.14-.11.1-.21.19-.32.28-.3.25-.6.49-.9.7-.13.1-.26.19-.39.28-.54.37-1.09.69-1.68.96-.14.06-.27.12-.41.18-.14.06-.28.11-.42.17-.12.05-.25.09-.38.13-.18.06-.36.11-.54.16-.08.03-.16.05-.25.07-.12.03-.24.06-.37.09-.16.04-.32.07-.49.1-.11.03-.23.05-.34.06-.11.02-.23.03-.34.05-.15.02-.3.04-.45.06-.16.02-.32.03-.48.04-.18.01-.36.02-.53.03-.18,0-.36.01-.54.01-.33,0-.66,0-1-.03-.25-.01-.5-.03-.76-.06-.18-.01-.37-.03-.56-.07-.66-.08-1.32-.21-1.99-.37-.25-.06-.5-.12-.75-.19-5.32-3.65-5.03-9.72-4.67-12.14.1-.66.2-1.04.2-1.04l4.24-.15s.41.6,1.28,1.3c2.66,2.14,9.62,5.21,22.54-4.94Z"/><path class="cls-23" d="m543.7,37.91c-.91-.35-1.74-.58-2.5-.7-.07-.01-.12-.02-.18-.03-3.45-.49-5.55,1.13-6.8,2.98-.83-2.07-1.33-4.26-1.42-6.48-.01-.26-.02-.52-.02-.78h.29c2.51-.06,6.35,1.65,8.24,2.58.06.02.11.06.15.08.62.3,1,.5,1,.5l1.23,1.85Z"/><path class="cls-118" d="m572.12,27.1c.15,2.87-.97,5.64-2.85,8.09-.02.03-.03.05-.06.07-.23.29-.46.58-.72.87-1.58,1.81-3.57,3.41-5.75,4.72-.11.07-.23.14-.34.2-2.54,1.48-5.32,2.57-7.99,3.09-.33.07-.65.12-.97.17-.01.01-.02,0-.02,0-.4.07-.8.12-1.2.16-.08,0-.17.02-.25,0-.49.05-.98.07-1.44.05-.99-.01-1.94-.12-2.81-.33-1.06-.25-2.02-.66-2.86-1.21-2.84-1.89-3.73-3.93-3.66-5.78v-.03c.02-.55.11-1.11.27-1.62.01-.02.02-.06.03-.09.83-2.57,3.03-4.52,3.31-4.75-.2.31-2.13,3.39-1.52,5.75,0,.03,0,.06.01.1h0c.05.17.11.33.18.49.01.01.02.03.02.05.15.29.34.56.59.82t.01,0s0,0,0,0c.13.12.28.24.45.36.05.03.1.06.14.1,1,.62,2.45.95,4.01.93,1.23-.01,2.54-.22,3.74-.66.06-.03.11-.04.17-.07,2.57-1,4.64-3.06,4.53-6.38-.05-1.4-1.01-2.97-2.54-4.42-.72-.7-1.57-1.39-2.53-2-.06-.04-.12-.07-.18-.12h0c-1.65-1.05-3.55-1.94-5.49-2.49,0,0-.01,0-.01-.01-.13-.03-.24-.07-.37-.1-5.75-1.51-11.83-.11-12.96,8.12,0,.02-.01.06-.01.09-.03.2-.06.41-.07.61,0,0-.06-.19-.12-.53h0c-.55-2.86-2.5-15.99,8.61-20.46.89-.36,1.79-.67,2.67-.92.09-.04.19-.06.29-.09h.01c8.79-2.52,16.38-.08,21.39,4.49t.02.02c3.23,2.96,5.37,6.82,6.06,10.79.12.64.19,1.27.22,1.91Z"/><path class="cls-92" d="m567.98,18.04c-10.95-4.5-15.28,4.93-15.28,4.93l-2.8-1.73s.61-9.47,5.19-10.1c6.87-.94,12.89,6.9,12.89,6.9Z"/><path class="cls-21" d="m546.22,23.19s-4.51.35-8.32,2.72c-2.49,1.56-4.04,4.88-4.83,6.97-.11.29-.19.56-.27.79-.01-.26-.02-.52-.02-.78,0-.5.03-1.03.07-1.54-.03.17-.04.36-.06.54,0,0-4-15.97,8.48-21,1-.41,1.99-.74,2.96-1.01-.02.01-.06.04-.1.09-.7.53-4.54,3.73-3.45,7.59h0c.5,1.78,2.02,3.67,5.34,5.5.06.05.12.08.19.11,0,.01.02.01.02.01Z"/></g><g class="cls-141"><path class="cls-87" d="m620.53,194.7c2.1,1.83-1.88,24.14-3.29,30.82-1.41,6.68-11.99,14.05-11.99,14.05,0,0,5.76-14.92,7.04-29.83,1.28-14.91,8.25-15.04,8.25-15.04Z"/></g><path class="cls-60" d="m637.29,58.58s0,.07,0,.1c-.03.07-.03.15-.03.22h0c-4.32-8.18-12.22-20.49-21.33-21.95,1.48-1.23,3.22-1.64,5.55-.85,0,0,0,0,.01,0l.69.46.66.44,3.53,2.37.46.31.79.53.63.42s.23-.32.62-.83c.27-.36.62-.8,1.01-1.31.27-.32.54-.67.85-1.05.16.14.32.28.47.41.17.15.32.29.48.44.22.19.43.39.62.58.27.25.52.51.75.76.65.65,1.18,1.3,1.64,1.9.18.21.33.42.49.63.08.1.14.19.21.28.07.1.14.19.19.29.93,1.34,1.46,2.36,1.64,2.7.02.06.05.1.05.12h.01s0,.12.01.35c.02,1.59.12,7.94,0,12.68Z"/><path class="cls-49" d="m627.32,615.04c-9.37,6.92-15.85,9.55-19.89,10.48-1.48-5.48-4.52-11.03-10.85-11.03h-.18c-9.74-21.44-28.96-73.91-33.77-163.05l-.44-8.96c2.07,33.03,21.4,124.94,65.14,172.56Z"/><path class="cls-38" d="m578.71,27.46c-.01,1.36-.15,2.76-.41,4.18-.02.12-.04.23-.07.35-.02.14-.05.28-.08.41-.46,2.31-1.22,4.67-2.18,6.97-.14.33-.28.67-.43,1-.12.27-.24.54-.37.81-.27.6-.56,1.19-.87,1.77-.11.22-.23.44-.35.66-.05.1-.1.2-.16.3-.12.22-.24.43-.36.65-.02.06-.06.12-.1.18-.45.79-.92,1.57-1.42,2.31-.17.25-.34.51-.52.76-.22.32-.45.64-.68.95-.44.6-.89,1.18-1.34,1.72-.04.05-.08.1-.12.15-.53.63-1.07,1.24-1.61,1.79-.11.12-.23.23-.35.35-.18.18-.35.34-.53.5-.12.11-.23.22-.35.32-.05.05-.1.1-.15.14-.11.1-.21.19-.32.28-.3.25-.6.49-.9.7-.13.1-.26.19-.39.28-.54.37-1.09.69-1.68.96-.14.06-.27.12-.41.18-.14.06-.28.11-.42.17-.12.05-.25.09-.38.13-.06.03-.1.04-.15.05-.13.04-.26.08-.39.11-.08.03-.16.05-.25.07-.12.03-.24.06-.37.09-.16.04-.32.07-.49.1-.11.03-.23.05-.34.06-.11.02-.23.03-.34.05-.15.02-.3.04-.45.06-.16.02-.32.03-.48.04-.18.01-.36.02-.53.03-.18,0-.36.01-.54.01-.33,0-.66,0-1-.03-.25-.01-.5-.03-.76-.06-.18-.01-.37-.03-.56-.07-.66-.08-1.32-.21-1.99-.37-.25-.06-.5-.12-.75-.19-.06-.01-.1-.03-.16-.04-.77-.23-1.52-.49-2.28-.8-6.67-2.66-12.99-8.48-15.73-15.34-.83-2.07-1.33-4.26-1.42-6.48-.01-.26-.02-.52-.02-.78,0-.5.03-1.03.07-1.54-.03.17-.04.36-.06.54,0,0-4-15.97,8.48-21,1-.41,1.99-.74,2.96-1.01-.02.01-.06.04-.1.09.09-.04.19-.06.29-.09h.01c8.79-2.52,16.38-.08,21.39,4.49t.02.02c5.96.37,9.53,2.7,11.34,6.1h0c.03.08.07.15.11.23.38.76.69,1.56.89,2.41.36,1.35.51,2.81.52,4.33Z"/><g><path class="cls-76" d="m783.89,635.57v.09c.04.26-.26.52-.83.87l-21.87-2.79-3.84-4.5-27.94-32.83-14.6-66.24s21.99,41.97,22.6,43.02c3.41,5.37,13.17,35.54,21.33,46.23,1.7,2.23,1.82,2.17,4.04,3.78,1.44-1.22,1.82-1.42,1.73-1.6l17.01,12.09c1.35.7,2.23,1.27,2.36,1.88Z"/><path class="cls-109" d="m782.25,635.56v.11c.07.26-.26.52-.81.85-5.37,2.89-36.1,6.96-42.62.7-7.18-6.81-14.59-20.33-20.26-25.22-5.55-4.89-15-12.15-15-15.81,0-.3,0-.59.04-.89,1.81-3.22,4.33-7.81,6.3-11.96.78-1.74,1.96-3.63,2.96-5.33,1-1.67,1.78-3.15,1.81-4.04,0-.41-4.85-8.59-9-15.78-2.15-3.7-4.11-7.15-5.11-9.07,5.37-7.29,10.81-14.7,16.26-22.03,1.37,3.74,2.67,7.33,3.89,10.78,2.41,6.63,4.59,12.63,6.48,17.77.07.18.11.33.15.52,3.74,9.92,6.22,16.4,6.81,17.48,3.41,5.37,14.81,35.07,22.96,45.77,1.7,2.22,3.78,4.11,6,5.74,6.07,4.41,13.22,6.74,16.81,8.55,1.33.7,2.22,1.26,2.33,1.85Z"/><path class="cls-137" d="m782.25,635.56v.11c.07.26-.26.52-.81.85-5.37,2.89-36.1,6.96-42.62.7-7.18-6.81-14.59-20.33-20.26-25.22-5.55-4.89-15-12.15-15-15.81,0-.3,0-.59.04-.89.3-7.18,4.52-15.29,7.37-21.33.52,1.07,1.19,2.44,1.89,4.04,6.41,14.33,19.63,47.14,30.18,50.84,4.96,1.74,9.26,1.48,12.7.37,3.18-.96,5.67-2.63,7.37-4.07,1.44-1.22,1.41-1.81,1.3-1.96l15.52,10.52,2.33,1.85Z"/><path class="cls-27" d="m720.71,537.87c-2.63,3.74-8.92,7.63-15.03,20.33-2.15-3.7-4.11-7.15-5.11-9.07,5.37-7.29,10.81-14.7,16.26-22.03,1.37,3.74,2.67,7.33,3.89,10.78Z"/></g><path class="cls-18" d="m784.56,480.98c-15.55-2.55-30.69,6.43-52.05,26.36,26.05-32.51,47.9-52.9,51.91-28.05.09.54.13,1.1.14,1.69Z"/><path class="cls-69" d="m596.4,614.48l-8.63,9.89c-20.74,2.56-53.95,18.77-87.28,31.81h-.04c-23.85,9.29-47.77,16.92-67.28,16.66-23.44-.33-37.55-8.55-46.92-18.26l-.04-.04c-.22-.22-.44-.44-.67-.7l-.04-.04c-1.04-1.11-2-2.22-2.93-3.37-12.33-15.15-15.15-31.66-24.22-27.03-6.44,3.33-12.78,5.85-18.96,7.74-1.26.37-2.56.74-3.81,1.07-9.29,2.44-18.18,3.48-26.51,3.48-37.66,0-63.88-20.51-63.88-20.51l112.79-35.4,11.29-.37c22.63,12,60.84,28.22,109.42,33.66,80.43,9.04,117.68,1.41,117.68,1.41Z"/></g></g></g></svg>