<?xml version="1.0" encoding="UTF-8"?><svg xmlns="http://www.w3.org/2000/svg" xmlns:xlink="http://www.w3.org/1999/xlink" viewBox="0 0 219.85 533.31"><defs><style>.cls-1{fill:#009cbf;}.cls-2{fill:#f0f0f0;}.cls-3{fill:#fe000f;}.cls-4{fill:#69d8e2;}.cls-5{fill:#fff;}.cls-6{fill:#003284;}.cls-7{fill:#00758f;}.cls-8{isolation:isolate;}.cls-9{fill:#004554;}.cls-10{fill:#fff7cc;mix-blend-mode:overlay;opacity:.4;}.cls-11{fill:#26b5cb;}.cls-12{fill:#0073b9;}.cls-13{fill:#0151a1;}.cls-14{fill:url(#_Áåçûìÿííûé_ãðàäèåíò_98);}.cls-15{fill:#ff646d;}.cls-16{fill:#1d4078;mix-blend-mode:multiply;opacity:.3;}.cls-17{fill:url(#_Áåçûìÿííûé_ãðàäèåíò_3-2);}.cls-18{fill:url(#_Áåçûìÿííûé_ãðàäèåíò_3);}.cls-19{fill:#657daf;}.cls-20{fill:#dcb200;}.cls-21{fill:#d9d9d9;}.cls-22{fill:#010101;}.cls-23{fill:#5fa43c;}.cls-24{fill:#b7fffb;}</style><linearGradient id="_Áåçûìÿííûé_ãðàäèåíò_98" x1="-273.33" y1="19.27" x2="-273.33" y2="57.92" gradientTransform="translate(381.94 120.95)" gradientUnits="userSpaceOnUse"><stop offset="0" stop-color="#dad1c0"/><stop offset=".63" stop-color="#708588"/></linearGradient><linearGradient id="_Áåçûìÿííûé_ãðàäèåíò_3" x1="-380.67" y1="89.46" x2="-179.02" y2="419.63" gradientTransform="translate(381.94 120.95)" gradientUnits="userSpaceOnUse"><stop offset="0" stop-color="#dad1c0"/><stop offset=".63" stop-color="#708588"/><stop offset=".74" stop-color="#728789"/><stop offset=".8" stop-color="#7b8f8f"/><stop offset=".86" stop-color="#899c99"/><stop offset=".9" stop-color="#9eb0a7"/><stop offset=".95" stop-color="#b8c9b9"/><stop offset=".99" stop-color="#d8e7ce"/><stop offset="1" stop-color="#e2f0d5"/></linearGradient><linearGradient id="_Áåçûìÿííûé_ãðàäèåíò_3-2" x1="-301.68" y1="-11.12" x2="-249.23" y2="29.87" xlink:href="#_Áåçûìÿííûé_ãðàäèåíò_3"/></defs><g class="cls-8"><g id="layer1"><g><path class="cls-10" d="m89.58,139.17c.21-.59.41-1.18.66-1.77,1.35-3.19,2.92-6.24,4.66-9.19.39-2.41,1.12-4.56,2.19-6.29,1.55-2.59,3.77-4.52,6.33-5.62,2.87-3.35,6.07-6.48,9.52-9.22-1.29-.27-2.6-.45-3.97-.45-1.14,0-2.29.1-3.48.29-6.4.9-12.52,5.55-15.24,11.57-2.38,5.23-2.84,11.11-1.43,17.96.2.92.49,1.82.75,2.71Z"/><path class="cls-14" d="m114.63,177.46c-3.69,1.06-7.75.91-12.04,0l-3.23-35.82c6.17-1.11,12.34-1.11,18.51,0l-3.23,35.82Z"/><path class="cls-10" d="m101.09,142.4l.98,12.2h12.8s1.97-12.04,1.97-12.04c-5.29-1.11-11.83-1.36-15.76-.15Z"/><polygon class="cls-16" points="102.75 163.98 103.58 175.24 113.85 175.24 114.84 163.98 102.75 163.98"/><g><g><path class="cls-9" d="m200.78,282.69v-8.2s-51.91-.93-51.91-.93l.08-1.38.08-1.33-.48-1.33-19.56-54.94h38.76s-51.19-34.93-51.19-34.93l-1.41-3.96-2.87,1.04-2.98-2.03-16.68,4.8-45.44,35.09h40.23s-8.53,56.2-8.53,56.2l-.09.59v.51s.01.42.01.42l-60.99-1.1v14.77s61.13-1.1,61.13-1.1l1.79,157.47-59.91-1.13v14.77s60.05-1.13,60.05-1.13l.79,69.57,10.51-.05.08-69.73,35.08-.66-2.94,67.15,10.49.53,3.83-67.89,56.88-1.07v-8.2s-56.3-1.06-56.3-1.06l9.02-159.82,52.48-.94Zm-87.04-68.12l21.51,58.34-.02.4-42.79-.77v-.14s9.51-57.83,9.51-57.83h11.78Zm14.05,228.66l-35.54-.67.18-157.93,42.34-.76-6.98,159.36Z"/><g><path class="cls-22" d="m60.26,410.67h0,0s0,0,0,0Zm133.85-18.4c-1.66-.2-3.21.25-4.63,1.16-.22.14-.51.4-.69.23-.21-.19-.19-.53-.08-.87.3-.93.49-1.88.49-2.85,0-1.59-.68-2.49-2.16-2.76-.88-.15-1.67.27-2.43.68-2.25,1.22-3.55,3.27-4.68,5.43-.55,1.05-.84,2.22-1.29,3.44-.37-.57-.68-1.05-.98-1.53-.57-.9-1.33-1.57-2.43-1.58-1.1,0-1.99.36-2.51,1.51-.35.78-.43,1.56-.63,2.35-.5,1.98-.3,3.98.78,5.5,1.11,1.6,1.31,2.87.31,4.43-1.23,1.92-2.41,3.87-4.25,5.33-2.46,1.96-5.22,3.22-8.31,3.68-1.35.19-2.78.27-4.14-.14-.45-.13-.61-.17-.46-.78.42-1.76.63-3.57.96-5.35.41-2.21.89-4.41,1.27-6.63.43-2.43.8-4.88,1.28-7.31.36-1.83.39-3.74.83-5.54,1.08-4.45,1.67-8.97,2.14-13.5.31-3.03.59-6.06.89-9.09.3-3.06.61-6.14.89-9.2.2-2.23.78-4.41.87-6.63.03-.79.54-1.51.44-2.19-.27-1.69.03-3.33.05-5,.06-4.19.41-8.4,0-12.59-.14-1.41-1-2.36-2.14-2.84-1.81-.76-3.56-1.69-5.66-1.63-1.54.04-3.01-1-4.64-.62-.08.02-.15,0-.23,0-1.47-.29-2.95-.39-4.45-.46-2.19-.09-4.39-.18-6.56-.46-3.33-.43-6.69-.54-10.03-.82-2.98-.25-5.98-.2-8.96-.26-2.08-.04-4.14-.03-6.22-.04-.16.03-.24,0-.2-.19.22-1.42.78-2.72,1.39-3.99.32-.68.89-1.11,1.55-.84,1.25.51,2.51.4,3.78.4,2.56,0,4.32-1.15,5.49-3.41,1.11-2.14,2.25-4.29,3.57-6.32.36-.55.19-1.34-.03-1.72-.64-1.1-1.73-1.8-2.93-2.24-1.31-.48-2.72-.02-3.27,1.15-.57,1.23-1.07,2.51-1.55,3.78-.49,1.32-1.22,1.73-2.58,1.44-.5-.11-.95-.35-1.43-.45-3.64-.68-6.08-.42-8,3.34-1.29,2.53-1.95,5.27-2.45,8.06-.09.55-.1,1.06-.9,1.05-2.22-.03-4.42.05-6.64.16-2.64.14-5.29-.05-7.94.22-2.37.24-4.77.04-7.17.21-3.07.2-6.15.3-9.22.46-2.81.14-5.61.48-8.44.52-1.23.02-2.52,0-3.73.21-2.73.46-5.49.51-8.24.81-1.95.21-3.84.58-5.68,1.19-1.42.46-2.43,1.43-2.48,3.02-.04,1.28-.19,2.56-.23,3.84-.12,4.12.35,8.2.63,12.31.14,2.11.35,4.21.77,6.27.61,3.07,1.14,6.16,2.11,9.17.62,1.92.78,3.96,1.16,5.93,1.05,5.31,1.79,10.67,2.82,15.98.94,4.84,1.78,9.7,2.73,14.53.45,2.3.7,4.64,1.13,6.95.17.9.35,1.61-.73,1.97-1.27.41-2.4,1.12-3.51,1.85-3.14,2.04-5.92,4.5-8.26,7.44-1.25,1.56-2.51,3.16-2.72,5.29-.05.53-.32.85-1,.79-.89-.08-1.86-.2-2.69.22-.52.26-.63.03-.89-.31-1.52-2.06-3.19-3.98-5.05-5.74-1.16-1.11-2.13-1.18-3.48-.29-.35.24-.71.51-1.06.75-.08.13.05.37-.22.39-.19.1-.41.17-.56.31-1.32,1.15-2.63,2.3-3.93,3.48-.55.5-1.03,1.07-1.58,1.56-.55.49-.52,1.15-.67,1.78-.14.64.49.48.71.75,1.02,1.29,1.91,2.67,2.75,4.08.57.95.83,1.7.24,2.87-1,2.01.03,4.02,2.14,4.52.77.19.94.42.93,1.12-.02,1.36,1.7,3.3,3.06,3.36.86.03,1.61-.06,1.42,1.18-.03.19.21.44.34.65,1.12,1.85,2.91,1.33,4.56,1.29.43-.02.89.14,1.29-.12.15-.1.26-.26.4-.38,1.03-.86,1.86-1.9,2.73-2.9,1.32-1.5,2.51-3.13,4.29-4.19,1.39-.83,1.56-2.04.89-3.59-.56-1.26-1.49-2.21-2.31-3.26-.24-.09-.46-.23-.42-.51.04-.24.27-.14.43-.13,1.09-.06,1.71-.59,2.05-1.67.26-.82.2-1.61.13-2.39-.06-.57.14-.82.46-1.17,1.6-1.86,3.36-3.52,5.28-5.06,1.84-1.48,3.86-2.58,6.06-3.6-.06,1.22.34,2.28.25,3.39-.13,1.72.2,3.44.5,5.11.62,3.46,1.38,6.91,1.69,10.42.35,3.85.48,7.71.69,11.58.25,4.54.03,9.08-.08,13.62-.07,2.99.04,5.97.11,8.95.08,2.88.18,5.71.61,8.57.46,3.09,1.88,5.71,3.92,7.91,2.54,2.72,5.87,4.14,9.61,4.57-1.92,4.02-2.96,8.13-2.1,12.69-2.36-1.51-4.8-2.27-7.39-2.78-2.84-.57-5.58-.24-8.3.5-5.52,1.49-9.47,4.69-10.94,10.42-.55,2.14-.57,4.34.23,6.44,1.42,3.74,4.55,5.49,8.14,6.41,2.89.74,5.89.83,8.89.51.19-.41.4-.38.62-.03.95.06,1.89-.13,2.83-.17,3.22-.12,6.39-.52,9.52-1.35,2.38-.62,4.75-1.22,6.88-2.49,2.29-1.35,4.13-3.11,5.38-5.51,1.22-2.33,1.2-4.76.7-7.19-.66-3.22-2.02-4.28-5.29-4.36-.91-.03-.89-.73-1.08-1.22-1.26-3.22-1.05-6.57-.69-9.91.03-.24.02-.46.34-.44,1.09.08,2.19-.17,3.28.15,1.64.48,3.27,1.06,4.94,1.37,2.81.51,5.62,1.05,8.5,1.21.7.03,1.45.05,2.16.23,2.52.63,5.12.68,7.7.77,3.67.14,7.37.09,11.05-.17.72-.05,1.4-.02,2.12-.35,1.02-.48,2.15-.09,2.29.67.34,1.87.65,3.74.53,5.65-.03.6-.24.96-.99.95-2.01-.05-3.53,1.12-4.8,2.43-1.48,1.52-2.35,3.4-2.72,5.59-.67,3.92.86,7.85,5.09,9.33,2.37.83,4.8,1.24,7.29,1.29,1.87.03,3.72-.37,5.57-.39,2.21,0,4.28-.64,6.38-1.11,2.7-.6,5.21-1.77,7.6-3.15,3.36-1.93,6.37-4.3,8.36-7.71,1.38-2.4,1.72-4.94.28-7.47-1.53-2.67-3.98-4.24-6.77-5.26-2.39-.87-4.9-1.22-7.41-.84-3.27.48-5.89,2.22-8.06,4.68-.46.51-.95,1-1.54,1.62-.11-2.76-.78-5.16-1.87-7.42-.39-.79.22-.78.55-.89,1.45-.46,2.92-.88,4.38-1.33,3.65-1.14,7.17-2.52,10.45-4.52,1.12-.68,1.52-1.51,1.06-2.73-.31-.83-.43-1.66-.42-2.54.02-2.17.02-4.34.21-6.51.17-1.87.08-3.74.18-5.61.19-3.14.32-6.3.48-9.44.13-2.67.29-5.33.44-8,.19-3.41.28-6.82.46-10.23.15-3.04.08-6.09.07-9.13-.02-2.57.42-5.14.61-7.71.09-1.4.15-1.49,1.54-1.24.25.04.52,0,.78,0,2.03-.02,4.05.12,6.06-.23,2.27-.38,4.43-1.16,6.34-2.41,3.09-2.03,5.4-4.89,7.43-7.91.98-1.46,2.32-2.74,2.58-4.63.09-.68.69-.3.95-.1,1.17.89,2.56.75,3.81.57,2.57-.37,4.73-1.67,6.4-3.71,1.24-1.52,1.34-2.68.3-4.17-.28-.4-.05-.4.21-.6,2.2-1.78,4.32-3.66,5.05-6.57.44-1.77,0-3.13-1.64-3.33Zm-76.96-65.37c1.54-.03,3.09-.13,4.62.07,2.48-.14,4.96-.03,7.44.11.3.03.58.06.88.08.74.03,1.51-.21,2.23.17.67.02,1.33.03,1.99.05.52.04,1.08-.22,1.56.18.51,0,1.04.02,1.55.03.37.03.79-.18,1.11.19.51,0,1.04.03,1.55.03.38.03.79-.18,1.11.19.51.02,1.04.03,1.55.03.37.04.79-.17,1.11.19.59.03,1.18.04,1.77.06.52.02,1.08-.2,1.56.18.67.02,1.33.03,2,.04.3.02.65-.17.89.17.51.02,1.03.03,1.54.04.31.02.66-.16.89.18.37.02.74.03,1.11.03.31.03.66-.13.89.19.3.02.59.03.89.04.24-.02.51-.11.68.18.3.02.59.03.88.05.19-.04.36-.05.46.17,1.82.11,3.53.68,5.22,1.32.68.25,1.17.83,1.36,1.52.34,1.26.73,2.52.49,3.86,0,.15,0,.3-.02.44-.28.57-.07,1.2-.19,1.79.19,3.33-.03,6.64-.24,9.95-.24,3.7-.75,7.38-1.25,11.05-.19,1.37-.19,2.75-.51,4.11v.67c-.21,1.26-.08,2.55-.41,3.78-.1,3.15-.56,6.26-.86,9.39-.19,2-.5,3.98-.67,5.97-.16,1.92-.78,3.75-1,5.65-.31,2.46-.83,4.91-1.27,7.37-.47,2.67-1,5.33-1.4,8.01-.24,1.52-.48,3.06-.78,4.54-.42,2.08-.8,4.16-1.17,6.25-.03.19-.09.35-.31.39-.69.13-1.2-.39-1.81-.56-.2-.06-.02-.65.04-1.01.3-1.77.52-3.55.78-5.33.24-1.68.45-3.36.72-5.03.33-2.09.68-4.19,1.06-6.27.56-2.95,1.2-5.9,1.73-8.86.37-2.06.58-4.15.93-6.22.35-2.14.47-4.3.84-6.45.14-.79.3-1.64.27-2.47-.02-.41-.03-.81.27-1.14.14-1.44.27-2.88.45-4.31.18-1.39.45-2.78.61-4.17.27-2.26.48-4.53.86-6.78.24-1.46.33-2.95.48-4.41.02-.14,0-.3,0-.45.24-2.87.27-2.95-2.35-4.08-3.54-1.54-7.19-2.82-10.94-3.84-2.08-.57-4.14-1.16-6.26-1.55-1.56-.48-3.18-.61-4.79-.85-.2-.03-.46.06-.55-.22-1.8,0-3.5-.59-5.27-.73-1.54-.14-3.08-.43-4.62-.62-1.97-.24-3.96-.49-5.95-.63-2.13-.14-4.27-.16-6.4-.24-.23,0-.45-.02-.67-.03-.81.38-1.12.38-.91-.73.51-2.7,1.05-5.39,1.92-8,.29-.87.59-1.73.78-2.62.18-.89.62-1.27,1.51-1.06Zm14.29-17.64c.15.24.37.56.16.8-.21.25-.55.09-.81-.04-1.05-.54-1.73-1.41-2.31-2.57,1.28.34,2.29.81,2.96,1.81Zm-20,14.28c.52-2.31,1.13-4.62,2.25-6.73,1.42-2.68,3.56-3.44,6.76-2.45.5.15.99.31,1.48.49,2.06.73,3.31.18,3.87-1.94.46-1.74,1.33-3.24,2.19-4.9.65,1.17,1.37,2.06,2.42,2.6.42.21.4.43.2.78-1.15,2.03-2.25,4.08-3.44,6.09-.84,1.42-3.56,2.62-5.46,1.88-.64-.25-1.34-.35-2.03-.48-1.15-.21-2.19.37-2.89,1.6-.66,1.19-1.11,2.47-1.5,3.77-.94,3.17-1.97,6.32-2.74,9.54-.95,3.98-1.8,7.98-2.46,12.03-.07.36-.15.71-.22,1.07-.11.58.31,1.53-.32,1.69-1.11.29-2.33.22-3.44-.24-.26-.11-.24-.41-.18-.68,1.06-4.41,2.15-8.83,3.16-13.25.83-3.61,1.53-7.25,2.35-10.86Zm-50.66,75.81c-.74-4-1.48-8-2.22-11.99-.75-4.12-1.55-8.23-2.25-12.35-.64-3.84-1.23-7.69-2-11.51-.05-.27-.37-.49-.19-.81-.68-2.65-1.55-5.26-1.84-8-.42-1.22-.49-2.52-.62-3.78-.32-3.12-.68-6.25-.74-9.39-.03-.93-.18-1.87-.14-2.83-.28-2.28.25-4.52.45-6.76.1-1.21,1.39-1.47,2.29-1.65,3.26-.68,6.57-.93,9.88-1.2,2.9-.24,5.82-.38,8.73-.79,2.62-.36,5.3-.22,7.95-.3.41-.38.89-.15,1.34-.17.81-.02,1.62-.03,2.43-.06.41-.38.89-.14,1.34-.16,1.11-.03,2.22-.04,3.33-.06.56-.4,1.18-.14,1.78-.15,1.4-.03,2.81-.05,4.21-.08,1.33-.39,2.68-.11,4.01-.15.3-.03.59-.04.89-.06.98-.12,1.95-.12,2.93-.04,1.03.04,2.07.16,3.09-.08h.43c1-.03,1.99-.04,2.99-.08.39-.02.71.03.58.51-.26,1-.24,2.08-.69,3.04-.24,2.27-.9,4.45-1.43,6.65-.2.87-.2,2.05-.76,2.49-.56.43-1.7.06-2.58.13-3.46.3-6.94.12-10.38.35-3.11.21-6.24.31-9.33.96-1.55.33-3.22.52-4.86.56-1.69.03-3.32.57-4.97.89-4.23.81-8.41,1.87-12.47,3.31-1.79.62-3.49,1.48-5.24,2.24-.32.14-.14.45-.17.68-.17,1.41.28,2.78.22,4.18.3.16.19.43.18.68.02.36.04.73.07,1.1.33.16.16.44.16.68.02.3.04.59.06.88.33.16.16.44.16.68.03.22.04.44.06.65.33.16.17.44.16.68.03.22.04.44.07.65.33.16.16.44.16.68.02.22.04.44.06.65.36,1.82.81,3.62,1.05,5.45.31,2.36,1,4.64,1.45,6.96.46,2.31.69,4.65,1.04,6.97.33,2.22.8,4.42,1.21,6.63.49,2.64,1,5.28,1.44,7.93.34,1.98.91,3.91,1.16,5.92.25,2.1.68,4.19,1.08,6.27.18.95-.47,1.13-1.09,1.18-.46.03-.89.24-1.36.22-.14.04-.28.08-.41.13-1.28.48-1.21.47-1.4-.84-.38-2.57-.84-5.13-1.27-7.7Zm-31.62,36.93c-.41-.8-.06-1.56.72-1.56.78.62,1.46,1.31,1.91,2.22.21.24.42.48.65.73-1.45.24-2.73-.32-3.27-1.39Zm6.8,6.26c-.37.36-.55-.38-.89-.5-1.25.3-1.81-.66-2.4-1.43-.35-.46-.41-1.12.3-1.49.26-.41.39-.08.54.1.66.79,1.33,1.57,1.97,2.36.23.3.78.68.48.95Zm1.26,1.25c.68.3.93.79,1.38,1.19q-1.01.15-1.38-1.19Zm6.31-8.72c-1.76,2.23-4.35,2.57-6.98.78-2.53-1.71-3.78-4.14-3.68-7.22h0c-.11-.02-.22-.03-.33-.04-.19.49.19,1.48-.62,1.36-.6-.08-.2-.95-.09-1.46.37-1.71.78-3.43,2-5.11.06,1.01-.23,1.69-.37,2.39.42.09.41.39.41.75-.03,1.39.5,2.6,1.29,3.7.25-1.2.65-2.35,1.26-3.42-.21,1.35,0,2.78-.78,4,.53,1.53,1.78,2.31,3.15,2.91.51.24,1.13.25,1.7.37.03-.35.02-.91.46-.81.52.11.15.68.2,1.04.64.4,1.2-.03,1.77-.19.32-.09.5-.15.73.19.22.35.08.51-.12.75Zm43.1,85.42c-2.71,1.63-5.71,2.34-8.79,2.9-5.38,1-10.79,1.06-16.21.84-3.26-.14-6.23-1.24-8.51-3.76-.17-.19-.32-.4-.45-.62-.13-.19-.22-.41-.3-.59,12.88,4.49,25.48,3.36,37.92-1.84-.97,1.37-2.29,2.25-3.65,3.07Zm.18-14.77c-.03.31.43.62.84.51,1.07-.25,2.05-.49,3.01.43.81.78,1.19,1.69,1.44,2.75.44,1.81.51,3.6-.09,5.38-.18.51-.52.83-1.01,1.09-1.41.77-2.89,1.32-4.37,1.92-3.38,1.39-6.84,2.46-10.47,2.84-3.53.38-7.06.58-10.61.38-2.67-.14-5.33-.3-7.92-1-1.86-.51-3.71-1.03-5.41-1.97-.84-.46-.76-1.29-.79-1.97-.12-2.43.6-4.7,1.81-6.76,1.96-3.31,5.12-4.94,8.7-5.95,1.43-.41,2.92-.62,4.34-.6,3.92.08,7.71.84,10.9,3.4.6.48,1.22.94,1.82,1.43.25.21.55.33.8.13.28-.22.34-.62.08-.89-1.04-1.12-1.26-2.59-1.71-3.96.57-.22,1.04.08,1.54.24,1.68.56,3.33.09,4.95-.3.66-.16,1.04-.05,1.11.53.13.89,1.09,1.38,1.01,2.37Zm72.76,4.19h0c-.34.49-.68.95-1.05,1.38-.36.44-.75.85-1.15,1.26-2.38,2.39-5.27,4.12-8.43,5.46-3.33,1.42-6.82,2.14-10.42,2.52-2.6.28-5.17.41-7.76.15-2.48-.24-4.88-.84-6.83-2.61,2.72.73,5.48.71,8.24.62,3.56-.12,7.09-.6,10.58-1.33,4.09-.86,7.92-2.46,11.59-4.46,1.73-.95,3.37-2.08,5.05-3.14.04-.09.08-.22.19-.13.05.04,0,.18,0,.28Zm-23.23-9.21c.08.96.4,1.9.46,2.89.05.91.77,1.16,1.49.57.47-.4.87-.9,1.28-1.38,1.92-2.27,4.11-4.17,7.11-4.83,4.39-.95,9.87.35,13.06,4.27,1.11,1.36,1.42,2.89,1.22,4.57-.06.46-.29.8-.67,1.1-5.51,4.37-11.61,7.49-18.58,8.84-1.1.21-2.2.5-3.29.73-.88.19-1.83.21-2.74.3-3.62.3-7.22.49-10.85-.29-2.23-.48-2.74-1.78-2.78-5.11.14-2.73,1.82-5.41,4.83-7.31.52-.33,1.14-.31,1.72-.38.57-.08.34.36.32.68-.02.52-.65,1.35.24,1.5.87.15,1.05-.77,1.13-1.46.15-1.23.47-2.44.44-3.69,0-.33.04-.52.46-.57,1.35-.19,2.64-.58,3.89-1.13.72-.31,1.16-.3,1.24.7Zm16.76-75.04c-.35.68,0,1.6-.41,2.35.04,1.56-.33,3.1-.36,4.65-.07,2.69-.05,5.38-.03,8.07,0,1.4-.03,2.79-.24,4.17v1.79c-.06.81.26,1.65-.16,2.45-.16,1.48.21,2.99-.23,4.45-.02.67-.03,1.33-.05,1.99-.26,2.57-.05,5.16-.51,7.71l.03.04c.03.9.24,1.82-.14,2.7-.02.89-.03,1.78-.06,2.67,0,.22,0,.44,0,.66v.68c.16.34.35.68-.16.89-.03,2.15.1,4.3-.1,6.45-.04,1.41-.08,2.82-.12,4.22.05,1.65-.11,3.31.53,4.9.21.53-.23.69-.57.87-3.82,1.98-7.76,3.7-11.89,4.9-.81.24-1.7.33-2.44.69-1,.48-1.4,0-1.85-.76-.4-.68-.9-1.3-1.36-1.94-.24-.07-.16-.29-.22-.44h0c-.54-.5-1.05-1.04-1.64-1.48-.35-.27-.68-.71-1.25-.51.69,1.36,1.64,2.56,2.54,3.79,1.53,2.07,2.57,4.39,3.34,6.84.16.51-.1.6-.35.73-1.32.63-2.72,1.03-4.15,1.28-.37.07-.7-.05-.72-.47-.14-3.6-1.32-6.87-3.11-9.95-.63-.49-.86-1.6-1.99-1.33-.02.15-.03.3-.04.46,1.13,1.42,1.95,2.98,2.54,4.71.23.69.13.76-.51.88-.59.11-1.16.19-1.75.14-1.76.46-3.56.2-5.34.29-.52.4-1.12.16-1.68.16-2.33.03-4.67,0-7,0-2.04-.21-4.11-.34-6.14-.66-2.49-.39-5-.7-7.49-1-2.89-.35-5.51-1.58-8.36-1.96-.09,0-.18-.12-.26-.18-.22.02-.44.05-.66.05-1.33-.02-1.54-.29-1.29-1.47.17-.82.42-1.58.86-2.28-.17-.36.3-.94-.31-1.12-.7-.21-.89.44-1.1.84-.89,1.78-1.44,3.67-1.73,5.65-.13.86-.2,1.73-.24,2.6.04.15-.06.2-.18.24-.05,1.62.05,3.22.41,4.8.15.64-.08,1.11-.77,1.16-1.27.13-2.54.25-3.81.22-2.53-.08-2.93-.66-2.52-3.13.55-3.42,1.87-6.53,3.6-9.47.78-1.33,1.65-2.64,2.81-3.7.21-.2.37-.45.23-.68-.17-.25-.44-.06-.68,0-1.22.21-1.43,1.37-2.03,2.13-.56.71-1.33,1.25-1.55,2.24-.11.47-.89.63-1.3.56-2.68-.51-5.23-1.27-7.44-3.11-2.92-2.42-4.35-5.54-4.95-9.15-.33-2.03-.35-4.08-.5-6.12-.09-1.35-.14-2.67.04-4-.14-2.23-.12-4.46,0-6.68-.27-1.17-.25-2.36-.14-3.55.3-1.07.26-2.18.27-3.27.05-4.63-.52-9.25-.59-13.88-.04-2.28-.41-4.56-.63-6.84-.3-1.53-.63-3.05-.89-4.58-.4-2.42-.73-4.85-1.1-7.28-.12-.79.19-1.61-.19-2.37-.03-.62.18-1.21.24-1.82.07-.77.93-.89,1.49-1,.75-.13,1.5-.3,2.25-.46.75-.16,1.03.07.86.83-.08.15-.15.31-.24.47.03.21.05.43.07.65.34.16.2.43.16.68.02.59.03,1.18.04,1.77.39.87.14,1.78.17,2.67.03.3.04.59.06.89.4.93.06,1.96.38,2.89.1,1.42.53,2.79.45,4.23.33.72.29,1.47.23,2.22.02.3.03.59.05.89.39.56.14,1.18.17,1.78.02.51.03,1.03.05,1.55.4.48.13,1.04.18,1.56.02.51.03,1.03.05,1.54.37.41.14.89.17,1.34.02.44.03.89.04,1.33.37.41.16.89.18,1.34.02.44.03.89.05,1.32.37.41.15.89.18,1.34.02.44.03.89.05,1.33.36.41.14.89.17,1.34.02.51.03,1.03.05,1.55.37.41.15.89.17,1.33.02.3.03.59.04.89.37.33.15.74.18,1.11s.04.73.07,1.11c.37.24.14.59.16.89.02.37.03.73.06,1.11.33.16.16.44.16.68.02.3.04.58.06.88.37.24.14.59.16.9.03.29.04.58.07.88.33.16.15.44.16.68.41,3.88,1.66,7.31,5.09,9.6,2.51,1.66,5.3,2.62,8.14,3.51,3.69,1.16,7.39,2.26,11.17,3.06,2.68.57,5.38.95,8.09,1.42.25-.03.52-.13.68.19.3,0,.58,0,.87.02.18-.04.22.08.27.2.57.02,1.16.03,1.73.04.19-.03.37-.08.46.16,1.05.03,2.11.04,3.16.07,3.27.2,6.53.23,9.81.19,4.63-.07,9.11-.84,13.45-2.51,2.72-1.05,5.35-2.19,7.6-4.06.1-.08.26-.08.41-.13.14-.14.28-.29.42-.43.25-.35.52-.68.91-.89,1.7-.89,2.35-2.72,3.53-4.06.05-.07.03-.22.03-.33-.2-2.14.24-4.23.46-6.33.29-2.53.58-5.06.72-7.61,0-.03.12-.07.18-.1.14-3.14.41-6.29.4-9.43-.02-3.66.53-7.28.73-10.91.11-1.92.34-3.84.41-5.76,0-.32.12-.56.29-.79-.28-.81.15-1.57.16-2.36,0-.3.19-.3.45-.21.41.14.84.24,1.26.31.49.09.78.08.42.79Zm-6.33,40.54c.15,2.14-.97,3.66-2.41,4.93-2.57,2.24-5.28,4.33-8.57,5.49-3.39,1.21-6.74,2.52-10.41,2.79-1.78.13-3.6.43-5.34.31-3.1-.21-6.2-.3-9.3-.52-2.08-.15-4.17-.22-6.22-.53-3-.45-5.97-1.06-8.94-1.65-3.59-.7-7.05-1.87-10.53-2.93-2.01-.62-3.99-1.26-5.85-2.23-2.79-1.45-4.97-3.45-5.86-6.61-.12-.41-.12-.78-.14-1.18-.44-.24-.22-.61-.2-.94-.54-.53-.09-1.27-.39-1.89-.1-.21.37-.31.68-.34,4.41-.41,8.75.13,13.05,1.14,3.64.85,7.22,1.93,10.91,2.56,3.59.6,7.2.72,10.85.2,6.02-.84,11.12-3.65,15.95-7.1,3.33-2.38,6.7-4.71,10.43-6.4,3.84-1.74,7.73-3.38,12.04-3.53h.11c1.83-.27,2.14.16,1.43,1.99v1.25c-.12,2.99-.38,5.97-.78,8.94-.28,2.06-.66,4.14-.51,6.24Zm47.03-69.24c-1.69,2.79-4.15,4.62-7.25,5.59-.62.19-1.27.23-1.89.41-.38.11-.63.41-.55.85.08.43.43.41.78.43,1.05.05,2-.39,3-.57.46-.08.92-.25,1.33.12.86.02.68.56.54,1.07-.15.63-.49,1.16-.94,1.61-1.8,1.76-3.83,2.98-6.47,2.92-.66-.02-1.2-.24-1.73-.53-.85-.46-1.3-.62-2.06.45-1.64,2.32-3.12,4.74-4.86,6.99-1.98,2.56-4.25,4.86-7.17,6.22-1.51.7-3.22,1.34-5.02,1.31-2.03-.03-4.07-.02-6.1,0-2.37.02-4.48-.96-6.66-1.69-.66-.22-1.44-.46-1.74.57,1,.27,1.8.95,2.83,1.18.45.1.41.77.35,1.22-.05.31-.24.61-.36.91-.19,2.27-.37,4.54-.6,6.8-.06.59.22,1.22-.2,1.76.2.21.19.44.03.68-.03.11-.06.22-.09.34-.07,2.73-.34,5.45-.62,8.17-.08.77-.04,1.54-.02,2.32.02.47-.14.75-.61.59-1.58-.52-3.04.19-4.55.37-.89.11-1.68.66-2.61.55-1.63.66-3.29,1.26-4.9,1.99-3.95,1.81-7.66,4.05-11.18,6.61-.17.13-.39.19-.58.29-3.7,2.89-7.73,5.14-12.27,6.42-1.08.3-2.17.58-3.25.87-.6.16-1.16-.09-1.72-.19-.33.57-.87.44-1.38.46-5.45.25-10.68-1.02-15.91-2.35-1.54-.39-3.07-.84-4.66-1.01-1.27-.32-2.52-.61-3.83-.66-1.1-.04-2.19-.22-3.29-.23-1.54-.02-3.05.08-4.52.52-.4.12-.43.12-.57-.28-.32-.9-.29-1.85-.39-2.77-.32-2.67-.61-5.33-.73-8.03-.14-3.18-.57-6.36-.85-9.55-.03-.4.02-.81.03-1.22-.32-.52-.31-1.11-.27-1.69.13-2.01-.24-4-.27-6.01-.02-1.04-.56-2.08-.35-3.18-.7-1.64-.41-3.37-.5-5.07-.06-1.12-.63-2.22-.17-3.38-.16-.36-.41-.72-.46-1.09-.28-1.75-.07-2.02,1.66-2.41q.89-.19,1.44-.77c-1.64-.76-3.27-.29-4.88-.08-3.09.41-5.96,1.5-8.67,3.02-3.3,2.11-6.2,4.65-8.59,7.76-.46.6-.88,1.11-.5,2.05.41.97-.5,2.41-1.37,2.66-.57.74-1.03.53-1.54-.11-.49-.6-1.07-1.13-1.6-1.69-.37-.35-.34-1.28-1.01-1.09-.7.2-.68,1.05-.7,1.68-.04,1.39-1.85,3.27-3.18,3.12-.51-.06-1.04-.39-1.1-1.03-.09-1.19,1.51-3.34,2.68-3.63-.06-1.08.89-1.88,2.05-1.74.29.03.57.05.87.08.65-.29,1.18.5,1.87.18.31-.14.57-.12.55-.6-.08-2.21,1.19-3.9,2.34-5.61.41-.59.95-1.09,1.43-1.64.3-.3.59-.61.89-.91l.85-.85c.35-.35.58-.84,1.15-.91.5-1.18,1.68-1.66,2.59-2.39,1.09-.86,2.21-1.74,3.62-2.08.1-.17.27-.21.45-.23.09-.16.27-.19.45-.22,0,0,0,.02,0,.02.18-.22.42-.3.68-.35.06-.04.13-.07.19-.07.08-.05.16-.11.24-.17,2.59-.95,5.23-1.62,8.01-1.6h1c.41,0,.57-.33.64-.65.07-.33-.3-.31-.48-.42-.71-.46-1.51-.26-2.25-.22-.8.04-1.15-.2-1.24-.99-.15-1.41-.35-2.81-.54-4.22-.18-1.33-.36-2.67-.54-4-.68-1.35-.74-2.85-1.01-4.3-.65-3.43-1.24-6.88-1.88-10.31-.45-2.47-1.08-4.91-1.25-7.44-.05-.7-.16-1.4-.24-2.11-.95-4.03-1.86-8.09-2.34-12.21-.03-.08-.06-.15-.09-.23-.24-.15-.23-.31-.02-.48-.55-2.33-.79-4.71-1.21-7.06-.27-1.55-.07-3.16-.71-4.66-.28-.66.18-.95.76-1.21,3.55-1.55,7.2-2.82,10.98-3.69,5.61-1.28,11.27-2.24,17.01-2.73,4.26-.35,8.51-.79,12.79-.91,2.24-.06,4.5-.11,6.74-.21.75-.03.9.19.79.89-.27,1.71-.6,3.41-1.13,5.06-.04.14-.1.27-.19.38-.86,1.02-.87,1.38.34,1.92,2.24,1,4.57,1.07,6.83.03.99-.45.04-.85-.21-.93-1.03-.27-.89-.87-.68-1.65.44-1.7.79-3.41,1.18-5.14.55.15.1.73.53.92.3,0,.38-.26.39-.51,0-1.12.61-1.4,1.65-1.38,2.8.06,5.59.08,8.37.62,2.29.44,4.65.48,6.98.71,3.48.33,6.89,1.01,10.31,1.68,3.73.72,7.41,1.62,11.03,2.76,3.09.97,6.09,2.16,9.03,3.55.52.24.57.5.52,1.07-.14,1.96-.63,3.84-.89,5.77,0,.1,0,.21,0,.32-.02.13-.04.28-.07.41-.52,4-1.05,8-1.57,12-.5,3.71-1.05,7.42-1.47,11.14-.31,2.79-.71,5.57-1.19,8.34-.5,2.85-1.16,5.68-1.76,8.52.06.22.03.4-.2.49,0,.21-.02.42-.03.62.03.08.03.14,0,.22.05.19.07.37-.17.46-.13,2.56-.71,5.06-1.06,7.58-.33,2.42-.65,4.84-.97,7.28-.03.29.08.66-.24.79-.35.15-.48-.25-.67-.44-.31-.31-.55-.69-.84-1.02-.28-.32-.57-.88-1.03-.54-.33.25-.24.79-.03,1.27.61,1.35,1.84,1.93,2.99,2.62.24.15.5.29.75.43,1.22.55,2.5.87,3.81,1.08.38.07.72,0,1.05-.13,2.24.56,4.41.23,6.49-.69,1.76-.78,3.49-1.59,5.06-2.7,1.85-.98,2.99-2.67,4.11-4.31.95-1.38,1.76-2.84,2.19-4.51.14-.57.23-.95-.29-1.33-1.25-.93-1.68-2.39-1.97-3.75-.32-1.54.05-3.11.66-4.6.39-.93,1.38-1.22,2.1-.53.51.47,1.09,1.02,1.27,1.65.3,1.03,1.2,1.84,1.05,3.03-.05.46.32.62.75.58.41-.03.57-.27.57-.67-.04-3.33,1.49-6.09,3.22-8.74.77-1.18,1.92-2.03,3.27-2.5,1.08-.37,1.63.1,1.76,1.27.22,2.03-.73,3.7-1.57,5.41-.83,1.69-2.1,3.06-3.22,4.54-.27.35-.58.68-.13,1.01.39.29.79.19,1.16-.2,1.28-1.38,2.13-3.14,3.63-4.36,1.7-1.38,3.38-2.73,5.76-2.67.75.03,1.04.25,1.05,1.04,0,.9-.34,1.66-.78,2.38Zm-133.53,13.69h0s0,0,0,0h0Z"/><path class="cls-19" d="m68.28,525.81c-.19.29-.41.29-.62.03.19-.41.4-.38.62-.03Z"/><path class="cls-2" d="m47.85,431.4c0,.22,0,.43,0,.64-.24-.09-.46-.23-.42-.51.04-.24.27-.14.43-.13Z"/><path class="cls-2" d="m31.38,419.14c-.08.13.05.37-.22.39-.19-.28-.12-.41.22-.39Z"/><path class="cls-21" d="m116.75,325.31c-.16.03-.24,0-.2-.19.07.06.14.12.2.19Z"/><path class="cls-12" d="m156.11,369.82c-1.57-.06-3.15-.04-4.73,0-.7.02-.93-.27-.85-.9-.3.54-.57,1.12-.94,1.61-.32.42-.63,1.08-1.38.62-.75.58-1.02-.14-1.41-.53-3.09.03-6.19-.05-9.28.1-4.72.23-9.44.29-14.17.45-4.9.17-9.82.3-14.72.45-4.72.15-9.44.3-14.17.45-4.9.16-9.82.3-14.72.46-2.07.07-4.11.19-6.17-.06-.13.08-.25.16-.38.24-.12.35-.13.88-.71.4-.85.32-1.7.68-2.62.74-.84.39-1.74.24-2.59.14-.65-.07-.73-.71-.72-1.29-.31.79-.93.91-1.72.91-1.07,0-2.18-.25-3.23.2.08.71.19,1.41.24,2.11.17,2.52.8,4.96,1.25,7.44.64,3.44,1.23,6.88,1.88,10.31.27,1.44.34,2.95,1.01,4.3.96,1.66,2.59,1.01,3.87.89,2.52-.23,5.02-.1,7.52-.14,1.38-.02,2.71-.18,4.04-.44-.02-.21.03-.4.25-.49l-.03-.08c0-.26.05-.49.29-.64.91-2,2.19-3.69,3.76-5.25,2.62-2.62,6.47-2.03,8.87-.3,1.75,1.26,2.92,2.82,3.25,4.97.84.14.47.81.48,1.25.05,1.68.02,1.58,1.68,1.46,1.35-.1,2.69-.31,4.07-.3,1.95.03,3.89.08,5.85-.15,1.29-.16,2.64.11,3.96.18.07-.51.14-1.04.2-1.56-.14-.02-.32-.03-.31-.22,0-.19.18-.19.32-.21.35-4.62,2.08-8.68,5.07-12.18,2.43-2.84,5.46-4.34,9.32-4.31,2.86.02,5.42.62,7.6,2.5,1.96,1.68,2.89,3.78,2.96,6.41.08,3.18-.83,6.1-1.84,9.02,0,.61.3.82.89.78.57-.03,1.16,0,1.73,0,.47-.03.78.1.78.63l1.29.03c0-.36.1-.6.54-.67.76-.13,1.52-.25,2.29-.21,3.09.16,6.15-.23,9.23-.21.24-.08.22-.26.17-.46-.15-.07-.16-.14,0-.22,0-.2.02-.41.03-.62,0-.19,0-.38.2-.49.59-2.84,1.26-5.66,1.76-8.52.48-2.77.88-5.55,1.19-8.34.41-3.72.97-7.43,1.47-11.14-.7.78-1.6.94-2.61.89Zm-76.68,19.31c-.95,0-1.57-.73-1.57-1.81,0-1.4.63-2.19,1.74-2.17,1.12.02,1.58.53,1.57,1.77,0,1.31-.72,2.21-1.74,2.2Zm16.95-3.81c-.49.54-1.18.68-1.81.39-1.81-.83-3.28-3.28-3.16-4.76.08-.91.46-1.59,1.32-1.83.86-.25,1.65.05,2.22.74.58.7.88,1.51.6,2.39.21.71-.16,1.54.72,1.99.38.19.43.73.12,1.08Zm19.14-5.92c-.62.68-1.01,1.54-1.79,2.08-1.11.78-1.97,1.79-2.62,2.97-.28.51-.53,1.05-1.18.87-.65-.18-.94-.75-.97-1.42,0-.14,0-.3,0-.45.24-2.69,1.52-4.78,3.85-6.14.89-.52,1.77-.22,2.52.48.51.48.53,1.23.19,1.6Zm26.05,3.06c-.33.03-.68-.05-.99.04-.37.12-.7.3-1-.08-.3-.38-.18-.77,0-1.15.8-1.6,2.22-2.29,3.86-2.63.68-.03,1.33.12,1.48.77.16.71.3,1.54-.51,2.09-.86.59-1.83.86-2.85.95Zm4.79,11.34c-.69.02-1.8-1.23-1.82-2.06-.03-.97.62-1.51,1.82-1.51,1.24,0,1.52.31,1.52,1.7,0,1.12-.59,1.85-1.52,1.87Z"/><path class="cls-1" d="m150.12,412.89c.3.33.53.71.84,1.02.19.19.32.59.67.44.32-.14.21-.51.24-.79.32-2.43.64-4.85.97-7.28.35-2.52.94-5.02,1.06-7.58-3.08-.02-6.14.37-9.23.21-.77-.04-1.53.08-2.29.21-.44.07-.53.3-.54.67.96.41,1.34,1.65.83,2.72-.35.73-1.24,1.05-1.97.71-.97-.45-1.33-1.51-.83-2.49.18-.35.25-.78.68-.96,0-.53-.3-.66-.78-.63-.57.02-1.16-.03-1.73,0-.59.04-.89-.17-.89-.78-1.16,2.71-2.73,5.17-4.51,7.51-.1.14-.28.22-.43.33-1.06,2.03-2.58,3.54-4.9,4.02-3.12.65-6.05-.25-8.84-1.44-1.07-.46-1.86-1.62-2.75-2.49-.14-.13-.06-.35.14-.46-1.38-2.1-2.11-4.38-2.03-6.91-1.32-.07-2.67-.34-3.96-.18-1.96.24-3.9.18-5.85.15-1.38,0-2.72.2-4.07.3-1.66.12-1.63.22-1.68-1.46,0-.44.35-1.11-.48-1.25.13,1.76.08,3.5-.27,5.24-.63,3.17-2.48,5.44-5.23,7.04-.5.9-1.43,1.11-2.3,1.28-1.54.3-3.12.53-4.61-.26-.35-.19-.86-.33-.84-.9-1.15-.98-2.21-1.99-2.82-3.44-.84-2-.97-4.02-.44-6.09.09-.36.14-.71.13-1.07h0c-1.33.26-2.67.42-4.04.44-2.5.03-5-.09-7.52.14-1.28.13-2.91.78-3.87-.89.18,1.33.36,2.67.54,4,.19,1.41.39,2.81.54,4.22.09.79.44,1.03,1.24.99.74-.04,1.54-.24,2.25.22.18.11.55.09.48.42-.08.32-.23.64-.64.65h-1c-2.78-.02-5.42.65-8.01,1.6-.08.06-.16.12-.24.17-.07,0-.14.03-.19.07-.05.46-.38.39-.68.36-.08.23-.24.24-.45.22-.07.23-.24.25-.45.23t0-.02s-.02,0-.02.02c-.24.55-.71,1-.68,1.66.21-.03.43-.11.7.08-.52.73-1.48.94-2.03,1.62.33,0,.72-.05.84.35.12.34-.23.51-.41.72-.23.24-.48.46-.7.71-.25.29-.72.51-.48,1,.24.49.67.65,1.21.46.07-.03.19.08.28.11,2.71-1.52,5.58-2.62,8.67-3.02,1.61-.21,3.24-.68,4.88.08q-.56.57-1.44.77c-1.73.4-1.94.67-1.66,2.41.06.37.3.73.46,1.09,3.51.03,7.01-.19,10.52-.28,4.79-.13,9.6-.28,14.38-.43,4.91-.16,9.82-.3,14.72-.45,4.72-.14,9.44-.3,14.16-.45,4.83-.15,9.66-.29,14.49-.46,2.62-.09,5.2-.25,7.81.19.5.08,1.44.24,1.72-.73.13-.44.56-.34.85-.25.89.25,1.77.51,2.63.84.95.37,1.79.35,2.51-.46-.25-.14-.51-.28-.75-.43-1.15-.69-2.38-1.27-2.99-2.62-.21-.48-.3-1.02.03-1.27.46-.34.75.22,1.03.54Zm-47.69,1.39c-1.24.67-2.62.85-3.98,1.04-.95.13-3.24-2.06-3.24-3.11.23-.52.31-1.42,1.04-1.63.84-.23,1.93-.78,2.64.15.95,1.25,2.27,1.87,3.6,2.52.21.11.5.25.48.55,0,.31-.33.36-.55.47Zm-42.17-3.62h0,0s0,0,0,0Zm-.45.22h0s0,0,0-.02c0,0-.02,0-.02.02Z"/><path class="cls-6" d="m160.73,349.34c-2.94-1.39-5.94-2.58-9.03-3.55-3.62-1.14-7.3-2.04-11.03-2.76-3.43-.67-6.84-1.35-10.31-1.68-2.33-.23-4.69-.27-6.98-.71-2.79-.54-5.57-.57-8.37-.62-1.04-.02-1.64.26-1.65,1.38,0,.25-.09.52-.39.51-.43-.19.02-.77-.53-.92-.39,1.73-.74,3.44-1.18,5.14-.2.78-.35,1.38.68,1.65.25.08,1.2.48.21.93-2.26,1.04-4.59.97-6.83-.03-1.21-.54-1.2-.9-.34-1.92.09-.11.15-.24.19-.38.53-1.65.86-3.34,1.13-5.06.11-.7-.04-.93-.79-.89-2.24.1-4.5.15-6.74.21-4.28.12-8.52.56-12.79.91-5.75.49-11.4,1.45-17.01,2.73-3.78.87-7.43,2.14-10.98,3.69-.58.25-1.04.55-.76,1.21.64,1.49.44,3.11.71,4.66.41,2.35.66,4.73,1.21,7.06.25.16.26.31.02.48.03.08.06.15.09.23,1.53.27,3.06-.02,4.57-.11.74-.04.94.1,1.16.72.68,1.87,2.38,3.08,3.98,2.91h0c-.14-.12-.25-.26-.41-.32-2.45-.89-3.78-3.11-2.22-5.98.9-1.65,2.22-2.85,4.06-3.42.71-.21,2.08.41,2.44,1.1.33.63.04,1.12-.44,1.54-.49.27-.98.54-1.47.81-.04.14-.13.21-.29.17l-.05-.02c-.04.5,0,.9.67.79,3.04-.5,6.13.07,9.16-.41.41-.07.82-.03,1.22-.03,2.55.03,5.09,0,7.63-.22.55-.04,1.13-.06,1.48.51,1.65-.57,3.15-.24,4.47.84.34.28.46.19.64-.14.25-.44.54-.88.87-1.26,1.31-1.51,3.49-1.54,5.33.07.03-.43.24-.68.69-.69.99-.02,1.95-.28,2.95-.24,3.64.15,7.26-.37,10.9-.22.29.02.6.06.81-.23-.61-3.77,4.14-6.38,7.17-5.22.48.18,1.16.61,1.08,1.53-.08,1.02-.84.84-1.39,1.03-.26.09-.58.03-.88.05-.55.26-1.12.47-1.63.8-.46.3-.84.71-.72,1.35,1,.32,1.65,1.21,2.58,1.64-.05-.78.46-.93,1.07-.94,1.11,0,2.22.02,3.33,0,.65-.02.95.26.95.9v.02c.64-.3,1.25-.8,1.99-.26-.06-.45.18-.7.58-.8.21-.06.44-.08.65-.07,4.03.13,8.04-.2,12.07-.27,4.83-.09,9.65-.4,14.48-.41.51,0,1.01-.14,1.52-.2.03-.13.05-.28.07-.41-.19-.11-.14-.22,0-.32.26-1.93.76-3.81.89-5.77.04-.57,0-.83-.52-1.07Zm-61.35-3.07c-3.17.86-6.41,1.41-9.68,1.75-6.31.66-12.6,1.43-18.75,3.11-3.4.94-6.85,1.74-10.28,2.6-.08.02-.14.03-.24.06-.6-.19-1.21-.32-1.55-1.03-.33-.69.06-1.04.43-1.44,1.01-1.11,2.39-1.62,3.71-2.16,5.3-2.14,10.84-3.48,16.46-4.43,5.08-.87,10.2-1.68,15.39-1.34,1.53.1,3.1.13,4.57.68.56.2,1.15.43,1.11,1.19-.04.71-.62.88-1.16,1.02Zm54.26,4.89c-1.34.46-2.62-.17-3.9-.33-3.92-.5-7.87-.97-11.74-1.76-3.54-.73-7.1-1.38-10.69-1.78-2.82-.32-5.65-.54-8.47-.81-.55-.05-1.1-.17-1.65-.2-.78-.05-1.14-.48-1.14-1.21,0-.76.49-1.12,1.17-1.25,1.8-.35,3.61-.22,5.43-.25,9.96-.02,19.5,2.08,28.77,5.62.83.31,1.6.77,2.4,1.16.23.11.54.19.46.53-.07.34-.41.21-.64.29Z"/><path class="cls-11" d="m193.53,393.56c-2.38-.07-4.05,1.29-5.76,2.67-1.5,1.22-2.35,2.98-3.63,4.36-.37.4-.78.49-1.16.2-.46-.34-.14-.67.13-1.01,1.11-1.49,2.39-2.85,3.22-4.54.84-1.7,1.79-3.38,1.57-5.41-.13-1.16-.68-1.64-1.76-1.27-1.36.46-2.51,1.32-3.27,2.5-1.73,2.66-3.27,5.42-3.22,8.74,0,.4-.15.63-.57.67-.43.03-.8-.12-.75-.58.14-1.19-.76-2-1.05-3.03-.18-.62-.76-1.17-1.27-1.65-.73-.69-1.71-.4-2.1.53-.61,1.49-.98,3.06-.66,4.6.3,1.36.73,2.82,1.97,3.75.51.38.43.76.29,1.33-.42,1.66-1.24,3.13-2.19,4.51-1.12,1.65-2.26,3.33-4.11,4.31-.74,1.71-2.1,2.68-3.79,3.38-1.46.61-2.91,1.13-4.46,1.43-.73.13-1.48.13-2.19.06-.84-.08-1.16-.68-1.11-1.49-.34.13-.68.19-1.05.13-1.31-.21-2.59-.53-3.81-1.08-.72.81-1.55.84-2.51.46-.86-.34-1.75-.59-2.63-.84-.3-.08-.73-.19-.85.25-.28.98-1.22.82-1.72.73-2.61-.45-5.19-.29-7.81-.19-4.84.17-9.66.3-14.49.46-4.73.15-9.44.3-14.16.45-4.9.15-9.81.29-14.72.45-4.79.15-9.59.3-14.38.43-3.5.08-7.01.31-10.52.28-.46,1.16.11,2.25.17,3.38.08,1.7-.2,3.43.5,5.07.54,1.13,1.57.85,2.49.88,3.81.1,7.6-.2,11.41-.3,2.35-.06,4.72-.03,7.08-.16,4.9-.27,9.81-.3,14.7-.5,2.29-.08,4.57-.04,6.86-.17,4.97-.28,9.96-.3,14.93-.5,2.36-.09,4.73-.03,7.08-.17,4.6-.26,9.21-.45,13.82-.44.46,0,.89-.06,1.15-.51-.64-1.07-1.68-1.86-2.19-3.03.3-1.03,1.08-.79,1.74-.57,2.18.73,4.29,1.7,6.66,1.69,2.03-.02,4.07-.03,6.1,0,1.81.03,3.51-.61,5.02-1.31,2.92-1.36,5.19-3.66,7.17-6.22,1.74-2.24,3.22-4.67,4.86-6.99.76-1.07,1.21-.91,2.06-.45.53.29,1.07.51,1.73.53,2.64.06,4.68-1.16,6.47-2.92.45-.45.78-.98.94-1.61-.26.03-.5.41-.78.06-.5.52-.99,1.05-1.49,1.57-.15.16-.36.28-.57.11s-.11-.39-.03-.6c.24-.64.85-.98,1.24-1.5-.31-.33-.11-.42.21-.46.31-.03.67.08.89-.24-.41-.37-.88-.19-1.33-.12-1,.19-1.96.62-3,.57-.35-.02-.69,0-.78-.43-.08-.44.17-.74.55-.85.62-.18,1.27-.21,1.89-.41,3.1-.97,5.56-2.79,7.25-5.59.44-.72.78-1.48.78-2.38,0-.78-.3-1.01-1.05-1.04Zm-8.2-3.06c.46.03.71.45.67.82-.1.76-.32,1.51-.8,2.14-.19.24-.44.41-.76.34-.35-.07-.43-.38-.51-.65-.24-.79.71-2.59,1.41-2.65Zm-8.99,7.58c0,.78.04,1.57-.81,2-.21.11-.42.19-.59-.03-.56-.67-.46-1.43-.3-2.19.03-.18.08-.35.16-.52.18-.45.35-.95.98-.84.58.1.56.59.57,1.04v.55Zm3.89,7.96c-.79.02-1.43-.68-1.46-1.62-.04-1.08.71-1.95,1.66-1.94.78,0,1.59.95,1.64,1.92.05.86-.81,1.63-1.84,1.65Zm12.89-10.28c-.44.91-.79,1.9-1.77,2.28-.68.02-1.24-.78-.96-1.37.35-.77.87-1.44,1.66-1.84.31-.16.63-.22.92.03.3.24.3.58.15.9Z"/><path class="cls-20" d="m148.07,451.04c-.12,2.99-.38,5.97-.79,8.94-.28,2.06-.66,4.15-.51,6.24.15,2.14-.97,3.66-2.41,4.92-2.57,2.25-5.28,4.33-8.57,5.5-3.4,1.21-6.75,2.52-10.42,2.79-1.78.13-3.6.44-5.34.31-3.1-.22-6.2-.3-9.3-.53-2.08-.15-4.17-.22-6.22-.52-3-.45-5.97-1.07-8.94-1.66-3.58-.71-7.04-1.88-10.53-2.94-2.01-.61-3.99-1.25-5.85-2.22-2.78-1.45-4.97-3.45-5.85-6.61-.12-.41-.12-.78-.14-1.18.81.04,1.59-.23,2.4-.28,3.04-.19,5.94.62,8.89,1.08,3.53.55,6.98,1.48,10.43,2.41,3.32.9,6.69,1.34,10.13,1.2,1.38-.06,2.75-.25,4.12-.37,2.85-.24,5.5-.95,8.04-2.19,2.13-1.04,4.13-2.32,6.14-3.57,4.5-2.78,8.87-5.74,13.93-7.56,3.58-1.29,7.16-2.6,10.79-3.77Z"/><path class="cls-13" d="m158.77,357.12c-4.84.02-9.66.32-14.48.41-4.03.07-8.04.41-12.07.27-.21,0-.44,0-.65.07-.41.1-.64.35-.58.8.13.06.25.12.39.18.35.3.55.64.41,1.14-.47,1.7-.64,3.43-.63,5.17l-.03.03c.39-.03.46.25.53.55.38.47.77.29,1.14,0,.89-.7,1.33-1.65,1.3-2.78-.03-.95.08-1.85.43-2.73-.26-.57-.02-.88.52-1.03-.02-.23.07-.41.3-.45.24-.05.26.16.3.33h.22c.07-.11.12-.3.19-.3.24-.03.23.19.24.35,1.14.68,1.36,1.77,1.34,2.97,0,.41-.03.82-.04,1.22.15,1.39-.51,2.51-1.22,3.6-.82.86-1.34,2.1-2.79,2.15-.78-.3-1.57.19-2.42-.14-2.43-.95-3.75-3.27-3.33-5.88.22-1.37.51-2.68,1.07-3.94-.15-.13-.06-.18.07-.21,0-.64-.3-.92-.95-.9-1.11.03-2.23,0-3.33,0-.61,0-1.12.16-1.07.94,1.46,1.13,2.46,2.52,2.45,4.46-.03,1.66-1.23,3.33-2.83,3.9-.87.32-1.66.79-2.61.98-1.45.3-2.68.03-3.8-.89-.3-.25-.71-.5-.58-1.02.13-.55.58-.7,1.04-.81,1.33-.3,2.68-.57,4.02-.89.62-.14,1.28-.38,1.43-1.06.18-.81-.15-1.48-.84-2.03-1.01-.8-2.3-1.19-3.21-2.18-.48-.52-.84-1.11-1.29-1.64-.21.29-.52.24-.81.23-3.64-.15-7.26.37-10.9.22-1-.04-1.97.22-2.95.24-.45,0-.67.26-.69.69,1.48,2.28,2.1,4.79,1.99,7.48-.04.91-.74,1.17-1.55,1.21-.59.39-.94.09-1.19-.45-.48-1-.63-2.06-.57-3.16-.39-.45-.49-.98-.44-1.55-.05-.03-.09-.05-.12-.08-.16-.15-.12-.38-.1-.59-.33-.13-.54-.32-.34-.72l-.04-.03c-.34.02-.68.03-1.01.06.02.42-.07.8-.57.92-.17.29-.44.55-.48.85-.15,1.21-.97,1.52-2,1.6-.19-.02-.39-.03-.43-.27-.13,0-.21-.07-.24-.21-.46-.02-.77-.14-.51-.7,0-.04-.03-.08-.06-.09-.35.13-.32-.09-.3-.31-.14,0-.22-.08-.24-.22-.14,0-.21-.08-.24-.22-.21.03-.4,0-.38-.29h-.03c-.23.03-.46.06-.68.09-.2,1.59.59,2.94,1.11,4.33.43,1.14.02,2.23-1.13,2.37-.3.76-.68.19-.92.02-1.25-.89-2.82-6.3-2.28-7.71.1-.27.13-.61.55-.54h0c-.05-.21,0-.38.19-.49.24-.26.47-.53.7-.79-.35-.57-.93-.56-1.48-.51-2.54.22-5.08.24-7.63.22-.41,0-.82-.04-1.22.03-3.03.48-6.12-.08-9.16.41-.67.11-.71-.3-.67-.79-.73.24-.89,1.03-1.41,1.46v1.08c.42.17.85.34,1.28.51,2.26.3,4.54.6,5.92,2.78.22.34.43.7.37,1.14.35,1.19.34,2.35-.29,3.47-.36.68-.56,1.49-1.32,1.9-.22.35-.47.66-.95.65-.21.15-.43.31-.65.47,2.06.24,4.1.13,6.17.06,4.9-.16,9.82-.3,14.72-.46,4.73-.15,9.45-.3,14.17-.45,4.9-.15,9.82-.28,14.72-.45,4.73-.16,9.45-.22,14.17-.45,3.09-.15,6.19-.08,9.28-.1-.4-.95-.3-1.9-.14-2.89.18-1.08.31-2.19-.22-3.22-.21-.41-.41-.89-1-.9-1.54,1.09-2.46,2.56-2.68,4.45-.09.77-.49,1.2-1.32,1.11-1.04.3-2.03-.3-1.98-1.38.11-2.04.37-4.09,1.35-5.94.33-.63.83-1.19,1.68-.78.27.13.42-.04.6-.15,1.62-.95,3.18-.7,4.71.24.66.02,1.03.45,1.4.9,1.26,1.55,1.49,3.38,1.37,5.29.44.46-.16.9,0,1.36.03.05.05.1.07.16,0,0-.06.03-.08.05-.08.63.15.92.85.9,1.58-.04,3.16-.06,4.73,0,1.01.04,1.91-.11,2.61-.89.52-4,1.05-8,1.57-12-.51.07-1.01.2-1.52.2Zm-70.49,10.02c-.27.77-.5,1.55-.99,2.22-.91,1.23-2.19,1.56-3.64,1.55-.31-.04-.68.14-.9-.24-.93.15-1.6-.44-2.27-.91-1.76-1.22-2.68-4.09-1.92-5.98.23-.59.5-1.18,1.32-1.08.11-.08.22-.14.33-.22,1.05-.06,1.43.5,1.42,1.48-.03,1.35.46,2.49,1.47,3.38.47.42,1,.72,1.64.27-.18-1.75-.66-3.47-.62-5.24.02-.42.17-.89.71-1,.96-.68,2.07-.25,2.83,1.07,1,1.46.57,3.11.64,4.7Zm23.76-2.7c-.48.17-1.05.1-1.59.21-.78.16-1.5-.77-1.7-1.93.02-.2.05-.39.29-.41,0-.13.07-.21.2-.24.03-.14.12-.21.27-.2,0-.05,0-.09-.02-.14.05.03.1.06.15.08.19,0,.39.03.46-.22.51-.63.73-.64,1.31-.05h.45c.03-.18.07-.35.29-.38.29-.03.35.16.38.39.82.18,1.22.62,1.12,1.52-.12.99-.95,1.12-1.61,1.37Zm23.04-5.23s-.02,0-.03,0v.03s.03-.03.03-.03Zm-6.08-.29h0v.02s0,0,0-.02Zm-28.68,3.76h0s0,0,0,0h0Zm-1.64-1.38h.02v-.02s0,0-.02.02Zm-3.46,3.09v.02h.03s-.03-.02-.03-.02Zm-1.34-1.54v.02h0s0-.02,0-.02Zm-24.7-2.39l.02-.02s-.02,0-.02,0h0Z"/><path class="cls-2" d="m150.62,463.35c-.03-.06.02-.23.08-.26.21-.11.3.07.41.22.46-2.55.25-5.14.51-7.71-.77.97-1.28,2.08-1.74,3.21-.68,1.66-.95,3.38-.91,5.19.07,2.58-.35,5.16-.22,7.74,0,.13-.08.26-.13.45-.77-1.48-.36-9.88.8-17.47-.14-.23-.29-.45-.43-.67-.06.03-.18.07-.18.1-.14,2.55-.43,5.08-.72,7.61-.23,2.1-.67,4.19-.46,6.33,0,.11.03.26-.03.33-1.18,1.34-1.82,3.16-3.53,4.06.05.67-.26.95-.91.89-.14.14-.29.29-.42.43-.66,1.24-1.91,1.78-3.03,2.41-2.95,1.65-6.15,2.65-9.38,3.61-.14.04-.3.03-.36.3,1.48.46,2.92.08,4.37-.13.51-.08,1-.19,1.51-.29.56-.12.94.19,1.21.6.29.41-.02.8-.27,1.1-.9,1.03-1.9,1.85-3.33,2.23-2.73.73-5.44.61-8.22.46-3.5-.19-7.03.03-10.55-.07-3.71-.09-7.33-.82-11.19-1.71,1.16-.74,2.31-.46,3.33-.69,1.25-.28,2.53-.42,3.8-.62.42-.07.8-.18.84-.7-1.05-.03-2.11-.04-3.16-.07-.3.36-.4.17-.46-.16-.57-.02-1.16-.03-1.73-.04-.09-.07-.18-.13-.27-.2-.29,0-.57,0-.87-.02-.26.08-.6.42-.68-.19-2.7-.46-5.41-.85-8.09-1.42-3.78-.8-7.49-1.9-11.17-3.06-2.84-.89-5.63-1.85-8.14-3.51-3.43-2.29-4.68-5.71-5.09-9.6-.49-.13-.53-.35-.16-.68-.03-.3-.04-.59-.07-.88-.59-.2-.49-.53-.16-.9-.02-.3-.04-.58-.06-.88-.49-.12-.53-.35-.16-.68-.03-.37-.04-.73-.06-1.11-.61-.2-.5-.53-.16-.89-.03-.37-.04-.73-.07-1.11-.65-.28-.49-.68-.18-1.11,0-.3-.03-.59-.04-.89-.71-.36-.46-.84-.17-1.33-.02-.52-.03-1.04-.05-1.55-.72-.36-.46-.85-.17-1.34-.02-.44-.03-.89-.05-1.33-.72-.36-.46-.85-.18-1.34-.02-.44-.03-.89-.05-1.32-.72-.36-.45-.85-.18-1.34,0-.44-.03-.89-.04-1.33-.72-.36-.46-.85-.17-1.34-.02-.51-.03-1.03-.05-1.54-.69-.46-.5-1-.18-1.56-.02-.52-.03-1.04-.05-1.55-.75-.53-.46-1.16-.17-1.78-.02-.3-.03-.59-.05-.89-.67-.7-.77-1.64-.23-2.22.08-1.43-.35-2.81-.45-4.23-.73-.6-.87-1.72-.38-2.89-.02-.3-.03-.59-.06-.89-.78-.84-.46-1.76-.17-2.67-.02-.59-.03-1.18-.04-1.77-.51-.13-.54-.35-.16-.68-.02-.22-.04-.44-.07-.65-.19,0-.36-.07-.44-.27-.84.35-1.68.69-2.35,1.32.46.04.54.34.62.75.31,1.74.28,3.52.37,5.26.12,2.39.41,4.77.3,7.17-.03.83-.24,1.49-.91,1.99.22,2.29.59,4.57.63,6.84.07,4.63.64,9.25.59,13.88,0,1.1.03,2.2-.27,3.27.59.02.59-.38.61-.82.02-.72-.1-1.44.17-2.44.44.86.29,1.54.35,2.14.14,1.38.48,2.74.32,4.16-.08.74.03,1.58.31,2.27.3.75.47,1.48.4,2.25-.18,1.77.91,3.22,1.21,4.86.41,2.32,1.67,4.22,2.89,6.14.79,1.24,2.2,1.81,3.38,2.62,1.88,1.29,4.07,1.9,6.16,2.73.39.15.78.24.82.77.02.32.24.41.53.43,2.97.29,5.9.89,8.77,1.62,2.59.67,5.18,1.39,7.81,1.97,2.4.52,4.84.82,7.29,1.08,3.22.35,6.49.15,9.71.5,2.58.28,5.17-.02,7.74.25.54.05.95-.19.82.59,1.13-.26,1.36.84,1.99,1.33.48-.77-.41-.93-.62-1.39-.1-.24-.54-.38-.35-.72.15-.24.48-.33.78-.34.62,0,1.23,0,1.84-.19.35-.11.64.07.8.42.57-.19.89.24,1.25.51.58.44,1.1.98,1.64,1.47,0-.08.02-.17-.02-.22-1.03-1.32.02-1.48.95-1.76,4.46-1.4,8.31-3.74,11.49-7.2,1.59-1.73,3.5-3.19,4.21-5.6.14-.47.27-.91.24-1.4-.11-2.95.3-5.87.67-8.79.03-.25,0-.54.44-.53.22.56-.28,1.23.25,1.74.38-.88.17-1.8.14-2.7-.17.13-.35.3-.51,0Zm-19.72,24.2c.47-.77,1.23-.78,2.01-.73-.68.24-1.34.49-2.01.73Zm3.6-1.38c.33-.41.63-.46,1.11-.46-.3.43-.62.46-1.11.46Zm3.2-1.29c.1-.48.38-.5.8-.57-.19.51-.45.53-.8.57Zm6.19-4.48s-.12-.04-.19-.07c.03-.07.06-.13.08-.19.06.03.13.06.19.08-.03.06-.04.16-.08.18Zm1.53-1.57c.16-.75.48-.99.99-1.23,0,.65-.39.84-.99,1.23Zm3.23-4.69c-.06-.03-.08-.19-.08-.27,0-.1.08-.19.25-.13.03.05.09.14.09.23,0,.17-.12.26-.27.18Z"/><path class="cls-4" d="m69.66,427.61c.54,1.13,1.57.85,2.5.87,3.81.1,7.61-.2,11.41-.29,2.36-.06,4.72-.03,7.08-.16,4.9-.27,9.81-.3,14.71-.5,2.29-.09,4.57-.04,6.86-.17,4.97-.28,9.96-.3,14.93-.5,2.36-.09,4.72-.04,7.08-.17,4.6-.26,9.21-.45,13.82-.44.46,0,.89-.06,1.15-.51.21.09.41.18.62.28-.19,2.27-.37,4.54-.6,6.81-.06.58.22,1.21-.2,1.76-.25.24-.24.46.03.68-.03.11-.07.22-.1.34-.26.27-.52.46-.94.45-3.25-.05-6.48.37-9.73.22-.48-.02-.96.1-1.42.12-1.61.08-3.22.03-4.89.03.13-.51.68-.7.65-1.19.44-.44.83-.94,1.32-1.32,1.71-1.32,2.85-3.09,3.9-4.97-1.65,1.16-2.85,2.8-4.46,4-1.68,1.25-3.38,2.43-5.25,3.36-2.84-1.65-5.76-3.15-8.71-4.59-2.45-1.19-2.46-1.18-3.62,1.42-.74-.12-1.47-.25-2.21-.35-2.98-.4-5.95-.72-8.51,1.39-.66.54-1.24,1.2-1.85,1.8-.4-2.02-1.96-3.33-4-3.37-.36,0-.64.12-.82.41-.22.34-.07.66.2.89.4.32.8.68,1.26.88,1,.44,1.73,1.11,2.14,2.12-1.34.51-2.82.6-4.06,1.37-1.59.28-3.2.09-4.79.15-3.38.12-6.77.2-10.15.32-1,.03-1.29-.4-1.36-1.27-.03-.35.23-.87-.42-.97.3-1.24.74-2.42,1.54-3.45.27-.35,1.05-.61.48-1.23-.58-.63-1.03.13-1.52.31-.14.05-.2.28-.31.42-.88,1.1-1.25,2.43-1.76,3.71-.51.62-.33,1.37-.22,2,.17.99-.14,1.14-1.04,1.13-2.1-.02-4.21-.21-6.3.11-.82.12-1.22.06-1.13-.85.06-.56-.15-.43-.41-.16-.32-.53-.31-1.12-.27-1.69.13-2.01-.24-4-.27-6.01-.02-1.04-.55-2.08-.36-3.18Z"/><path class="cls-2" d="m56.92,353.58c.02.37.04.73.07,1.1-.37.33-.34.56.16.68.02.29.04.59.06.88-.37.33-.34.56.16.68.02.22.04.44.06.66-.37.33-.34.56.16.68l.06.66c-.37.33-.34.56.16.68.02.22.04.44.06.66-.86.98-1.4,2.15-2.01,3.29-.17.31-.22.84-.63.82-.42-.02-.4-.56-.47-.89-.08-.4-.18-.72-.65-.76-.68-2.65-1.55-5.26-1.83-8,.45-.07.91-.21,1.1-.65,1.01-2.36,2.08-4.76.86-7.33-.97-2.05-.35-3.77.73-5.49.56-.89,1.33-1.58,2.12-2.25.23-.19.53-.32.51-.66-.08-1.22.83-1.78,1.65-2.29,2.39-1.5,5.01-2.57,7.73-3.25,4.67-1.16,9.38-2.18,14.17-2.79,3.09-.39,6.16-.52,9.25-.14.62.08,1.55.22,1.41,1.08-.18,1.14.45.96,1.04.79.48-.13.95-.09,1.42-.17,4.79-.75,9.58-1.44,14.46-1.08-.23,2.27-.9,4.44-1.43,6.65-.21.87-.2,2.05-.77,2.49-.55.43-1.7.06-2.58.13-3.46.3-6.93.12-10.38.36-3.11.21-6.23.31-9.33.96-1.56.33-3.22.53-4.86.56-1.69.03-3.32.56-4.97.88-4.23.82-8.4,1.88-12.47,3.31-1.79.63-3.49,1.48-5.24,2.24-.32.14-.15.45-.18.67-.17,1.4.28,2.77.22,4.17-.08.26-.42.59.18.68Z"/><path class="cls-2" d="m164.29,338.47c-.59.04-.78-.35-.85-.82-.54-3.49-2.84-5.51-5.81-7-.39-.19-.81-.34-1.23-.49-.46-.16-.55-.43-.3-.84-.17-.29-.43-.19-.68-.18.03.48-.21.6-.66.67-2.06.3-4.09.17-6.16.03-2.72-.19-5.39-.62-8.08-.98-4.46-.59-8.93-1-13.41-.82-2.93.13-5.88.1-8.76.79-.58.14-1.18.19-1.61-.38-1,3.6-2.08,7.2-2.9,10.85.22.02.44.03.67.03,2.13.08,4.27.09,6.4.24,1.99.14,3.98.4,5.95.63,1.54.19,3.08.48,4.62.62,1.77.14,3.48.74,5.27.73.25-.6.8-.5,1.24-.43,1.2.19,2.38.44,3.57.67.48.09.71.34.52.84,2.12.39,4.19.98,6.26,1.55,3.75,1.02,7.39,2.3,10.94,3.84,2.62,1.14,2.59,1.22,2.35,4.08,0,.15,0,.3,0,.45-.15,1.47-.24,2.95-.48,4.41-.38,2.25-.59,4.52-.86,6.78-.16,1.39-.43,2.78-.61,4.17-.18,1.43-.3,2.87-.45,4.31.7-.3.54-.98.62-1.51.26-1.85.38-3.73.73-5.57.14-.78.76-1.45,1.7-1.59.31-1.36.32-2.74.51-4.11.5-3.67,1.01-7.35,1.25-11.05.21-3.31.43-6.63.24-9.95Zm-4.86,4.88c-.03.98-.75,1.39-1.49,1.72-.44.19-.89.32-1.24.69-.51.54-1.74.35-1.9-.36-.36-1.54-1.54-1.83-2.81-2.04-1-.17-2-.22-2.9-.87-2.07-1.49-2.35-4.44-.46-6.09.36-.31.87-.39,1.36-.38.42,0,.85,0,1.27,0h1.28c.22,0,.44,0,.67,0,.44,0,.88,0,1.33,0,2.19,0,3.57,1.02,4.34,3.08.51,1.38.61,2.79.56,4.25Z"/><path class="cls-21" d="m66.14,457.59c.6.02.59-.38.61-.82.02-.71-.1-1.44.17-2.44.43.86.28,1.54.34,2.14.13,1.38.48,2.74.32,4.17-.08.74.03,1.58.31,2.27.3.75.48,1.47.4,2.25-.17,1.77.91,3.22,1.2,4.86.41,2.32,1.68,4.22,2.9,6.14.79,1.25,2.2,1.81,3.39,2.62,1.88,1.29,4.07,1.9,6.16,2.73.39.15.78.25.82.76.02.32.24.41.53.43,2.97.29,5.9.88,8.77,1.62,2.6.67,5.19,1.39,7.81,1.96,2.4.52,4.85.82,7.29,1.08,3.23.35,6.49.16,9.71.5,2.58.28,5.16-.02,7.74.25.55.06.94-.19.82.6h0c-.33,0-.46.18-.43.49.2,1.9.62,3.77.67,5.69-1.76.46-3.56.2-5.34.29-.16-.08-.31-.23-.47-.23-2.55-.02-5.1-.01-7.65-.02-.29,0-.51.08-.56.4-2.05-.21-4.11-.34-6.14-.65-2.49-.39-5-.7-7.49-1-2.88-.35-5.51-1.58-8.35-1.96-.1-.01-.18-.12-.27-.18.09-1.37-.15-2.64-1.09-3.7-.16-.36.3-.94-.31-1.12-.69-.21-.89.44-1.1.85-.89,1.78-1.44,3.67-1.73,5.65-.13.87-.2,1.73-.24,2.61-.06.08-.12.16-.18.24-.05,1.62.04,3.22.41,4.8.15.64-.08,1.1-.77,1.16-1.27.12-2.54.25-3.82.21-2.53-.07-2.92-.65-2.52-3.13.55-3.42,1.87-6.54,3.61-9.47.78-1.32,1.65-2.63,2.81-3.7.21-.2.37-.44.22-.67-.17-.26-.43-.06-.68-.01-1.21.22-1.43,1.37-2.03,2.13-.55.7-1.32,1.25-1.55,2.24-.11.47-.89.63-1.3.55-2.68-.52-5.23-1.27-7.44-3.1-2.93-2.43-4.36-5.54-4.95-9.16-.33-2.02-.35-4.07-.5-6.11-.1-1.35-.14-2.67.04-4.01.36-.28.23-.67.23-1.02.01-1.54.01-3.09,0-4.63,0-.35.13-.75-.23-1.02-.26-1.18-.25-2.37-.14-3.56Z"/><path class="cls-3" d="m92.11,509.43c-.25-1.06-.63-1.97-1.44-2.75-.96-.92-1.94-.68-3.01-.43-.41.1-.87-.2-.84-.51.08-1-.89-1.48-1.01-2.37-.08-.58-.46-.69-1.11-.53-1.62.4-3.27.86-4.95.3-.51-.16-.97-.46-1.54-.24.46,1.37.68,2.84,1.71,3.96.25.28.19.68-.08.89-.25.2-.55.08-.8-.13-.6-.5-1.22-.95-1.82-1.43-3.19-2.57-6.98-3.32-10.9-3.4-1.42-.03-2.9.19-4.34.6-3.58,1.01-6.74,2.64-8.7,5.95-1.22,2.06-1.93,4.33-1.81,6.76.03.68-.04,1.52.79,1.97,1.7.95,3.55,1.47,5.41,1.97,2.59.7,5.25.86,7.92,1,3.54.2,7.08,0,10.61-.38,3.63-.39,7.09-1.45,10.47-2.84,1.48-.61,2.96-1.16,4.37-1.92.49-.26.84-.58,1.01-1.09.6-1.78.53-3.56.09-5.38Zm-23.5-1.09c-.68.71-1.46,1.25-2.41,1.54-3,.94-6.1,1.39-9.24,1.54-.97.04-1.79-.25-2.14-1.23-.34-.93.02-1.67.72-2.37,2.68-2.68,5.92-3.92,9.65-4.04.82.02,1.64,0,2.41.3,1.94.73,2.42,2.76,1.01,4.27Zm19.87,4.9c-.81,1.44-2.35,1.96-3.74,2.6-.32.14-.65-.04-.87-.34-.29-.38-.14-.77.13-1,.57-.49.75-1.07.83-1.81.12-1.11,1.03-1.76,2.19-1.77,1.4-.02,2.14,1.11,1.46,2.33Z"/><path class="cls-3" d="m159.75,502.25c-3.19-3.92-8.68-5.22-13.06-4.27-3,.66-5.19,2.56-7.11,4.83-.41.47-.81.98-1.28,1.38-.72.6-1.43.35-1.49-.57-.06-1-.38-1.93-.46-2.89-.08-1-.52-1.01-1.24-.7-1.25.55-2.54.95-3.89,1.13-.42.05-.47.24-.46.57.03,1.25-.29,2.46-.44,3.69-.08.69-.26,1.61-1.13,1.46-.89-.15-.25-.98-.24-1.5.02-.32.24-.76-.32-.68-.58.07-1.2.05-1.72.38-3,1.9-4.68,4.58-4.83,7.31.03,3.33.55,4.63,2.78,5.11,3.62.78,7.22.59,10.85.29.91-.08,1.87-.11,2.74-.3,1.09-.23,2.19-.51,3.29-.73,6.96-1.35,13.06-4.46,18.58-8.84.38-.3.61-.63.67-1.1.19-1.69-.12-3.22-1.22-4.57Zm-34.64,10.2c-.21.34-.63.39-1,.25-.42-.14-.62-.48-.68-.93-.14-1.16,1.5-4.25,2.53-4.75.7-.33,1.26.03,1.25,1.06-.43,1.42-1.18,2.93-2.1,4.36Zm8.16,1.81c-.87-.02-1.42-.66-1.41-1.64,0-1.14,1.11-2.24,2.3-2.27.89-.03,1.66.69,1.67,1.57.02,1.07-1.4,2.36-2.56,2.34Zm22.93-9.16c-1.46.71-3.03.54-4.57.57-1.78.04-3.54-.14-5.27-.51-.46-.09-.94-.23-1.36-.45-1.85-.95-1.97-2.78-.35-4.07,1.45-1.15,3.08-1.59,4.9-1.74,1.71-.14,3.38-.28,5,.37.94.38,1.8.86,2.47,1.62,1.34,1.5.99,3.32-.83,4.2Z"/><path class="cls-3" d="m119.93,448.19c.41-3.72,2.54-6.45,6.21-7.75-.11-.38-.36-.65-.68-.86-2.03.8-3.95,1.83-6.06,2.42-3.62,1-7.22,1.36-10.9.22-1.43-.44-2.84-.89-4.23-1.46-2.41-1-4.8-1.15-7.21.03-.83.41-1.71.7-2.57,1.04-1.16,2.22-2.45,4.41-2.95,6.88-.42,2.06-.51,4.18.1,6.25,3.24-2.24,6.52-4.45,9.71-6.77,1.01-.73,1.69-.57,2.46.19,1.68,1.65,2.85,3.59,3.6,5.83.84,2.51.46,4.98-.07,7.45-.14.64-.73,1.17-.7,1.92.57.1,1.12.35,1.72.19,1.08-.29,2.17-.57,3.25-.87,4.54-1.28,8.57-3.53,12.27-6.42-2.64-2.14-4.35-4.9-3.97-8.3Zm-21.29-2.13c-.66-.06-1.16-.48-1.23-1.3-.07-.75.84-1.65,1.64-1.63.8.02,1.2.51,1.23,1.28.03.84-.71,1.63-1.64,1.65Z"/><path class="cls-24" d="m94.5,441.84c-1.16,2.22-2.44,4.41-2.95,6.88-.42,2.06-.5,4.18.1,6.25-1.73,1.26-3.51,2.46-5.16,3.82-.65.54-1.62.87-1.79,1.9-1.26-.32-2.52-.6-3.83-.66-1.1-.04-2.18-.22-3.28-.23-1.54-.02-3.05.08-4.52.53-.39.12-.43.12-.57-.28-.31-.91-.28-1.85-.39-2.77-.32-2.67-.6-5.34-.72-8.03-.14-3.19-.57-6.36-.85-9.55-.04-.4.02-.81.03-1.22.26-.27.47-.4.41.16-.1.92.31.98,1.13.85,2.08-.31,4.2-.12,6.3-.11.91,0,1.21-.14,1.04-1.13-.11-.63-.29-1.39.22-2-.35,2.47.65,4.4,2.61,5.76,2.26,1.56,4.88,1.25,7.43,1,1.65-.16,3.19-.83,4.8-1.18Z"/><path class="cls-21" d="m108.72,330.47c-4.87-.37-9.67.32-14.46,1.08-.47.07-.95.03-1.42.17-.59.17-1.22.35-1.04-.79.13-.87-.79-1-1.41-1.08-3.08-.38-6.16-.26-9.25.14-4.79.61-9.49,1.63-14.17,2.79-2.72.67-5.33,1.75-7.73,3.25-.82.51-1.73,1.07-1.65,2.29.02.34-.28.47-.51.66-.79.67-1.56,1.36-2.12,2.25-1.08,1.72-1.71,3.44-.73,5.49,1.22,2.57.15,4.97-.86,7.33-.19.44-.64.58-1.1.65-.42-1.23-.5-2.51-.63-3.78.75-.24.43-.88.38-1.3-.2-1.71-.32-3.42-.42-5.13-.1-1.75-.29-3.49-.43-5.24-.02-.29-.08-.51-.41-.54-.28-2.28.25-4.51.45-6.76.1-1.2,1.39-1.46,2.29-1.65,3.25-.68,6.56-.93,9.88-1.2,2.91-.24,5.83-.37,8.73-.78,2.61-.37,5.29-.22,7.94-.3.49.28.98.54,1.34-.17.81-.02,1.62-.04,2.44-.06.49.28.98.54,1.34-.17,1.11-.02,2.22-.04,3.33-.05.62.29,1.25.57,1.78-.16,1.4-.02,2.81-.05,4.21-.07,1.27.48,2.58.24,3.87.13.05,0,.09-.18.14-.28.3-.02.59-.04.89-.06.98.38,1.95.44,2.92-.04,1.03.04,2.07.17,3.1-.08.04.12.05.3.21.28.09-.01.15-.18.22-.28,1-.03,1.99-.04,2.99-.08.38-.02.7.04.58.52-.26,1.01-.24,2.08-.69,3.04Z"/><path class="cls-20" d="m84.7,460.69c.17-1.03,1.14-1.36,1.79-1.9,1.65-1.36,3.43-2.56,5.16-3.82,3.24-2.25,6.52-4.44,9.71-6.77,1.01-.74,1.69-.56,2.47.19,1.68,1.65,2.85,3.59,3.6,5.83.83,2.51.46,4.98-.07,7.45-.14.65-.73,1.18-.71,1.92-.32.57-.87.44-1.38.47-5.46.26-10.69-1.02-15.91-2.35-1.54-.39-3.07-.84-4.66-1.02Z"/><path class="cls-23" d="m123.89,456.49c-2.63-2.15-4.34-4.9-3.96-8.31.41-3.72,2.54-6.45,6.21-7.75,1.08-.23,2.16-.51,3.28-.39,2.05.21,4.07.6,6,1.34,2.33,1.56,4.53,3.24,5.13,6.22-1.63.66-3.29,1.25-4.89,1.99-3.95,1.81-7.67,4.05-11.18,6.61-.17.13-.39.19-.59.29Z"/><path class="cls-20" d="m73.01,463.15c-.54-.53-.1-1.28-.4-1.89-.1-.21.37-.31.68-.33,4.42-.4,8.76.13,13.04,1.14,3.64.86,7.23,1.94,10.91,2.56,3.59.6,7.2.72,10.85.21,6.02-.85,11.12-3.65,15.95-7.1,3.33-2.38,6.7-4.71,10.44-6.4,3.83-1.74,7.73-3.37,12.04-3.52.04,0,.07,0,.11,0,1.83-.27,2.14.16,1.44,1.99-2.02.43-3.95,1.15-5.88,1.85-3.29,1.18-6.63,2.25-9.75,3.88-4.14,2.15-8.04,4.69-11.93,7.25-6.94,4.58-14.55,5.45-22.49,4.07-4.78-.83-9.42-2.43-14.24-3.19-3.58-.56-7.13-1.52-10.77-.5Z"/><path class="cls-5" d="m54.12,362.69c.47.04.56.36.65.76.07.33.04.87.47.89.41.02.47-.51.63-.82.61-1.14,1.15-2.31,2.01-3.29.36,1.82.81,3.62,1.05,5.45.31,2.36,1,4.64,1.45,6.96.45,2.31.69,4.65,1.04,6.97.33,2.22.8,4.42,1.21,6.63.49,2.64,1,5.28,1.45,7.93.33,1.98.9,3.91,1.15,5.92.26,2.1.68,4.19,1.08,6.27.18.95-.47,1.13-1.08,1.18-.47.04-.9.24-1.37.22.07-.21.14-.42.21-.63.4-.04.48-.26.36-.61-.3-.83-.47-1.68-.65-2.54-.09-.42-.21-.97-.81-1.07,0-.29,0-.59-.01-.88.18-.13.14-.29.11-.49-.26-2.01-.74-4-.51-6.03.07-.6-.12-.91-.43-1.34-1.07-1.53-2.42-2.9-2.57-4.95-.05-.65.1-1.67-1.01-1.86-.75-4.11-1.56-8.22-2.24-12.35-.64-3.84-1.23-7.69-2-11.51-.06-.27-.38-.49-.19-.81Z"/><path class="cls-3" d="m130.39,310.61c-1.05-.54-1.77-1.43-2.42-2.6-.86,1.66-1.73,3.16-2.19,4.9-.56,2.12-1.81,2.68-3.87,1.94-.49-.18-.98-.34-1.48-.49-3.2-.99-5.34-.23-6.76,2.45-1.12,2.11-1.73,4.41-2.25,6.73-.82,3.61-1.52,7.25-2.35,10.86-1.01,4.42-2.1,8.84-3.16,13.25-.07.28-.08.57.18.68,1.11.46,2.33.53,3.44.24.63-.16.21-1.11.32-1.69.07-.36.15-.71.22-1.07.67-4.04,1.51-8.05,2.46-12.03.78-3.22,1.81-6.36,2.74-9.54.39-1.3.84-2.58,1.5-3.77.69-1.23,1.74-1.81,2.89-1.6.68.13,1.38.23,2.03.48,1.9.74,4.63-.46,5.46-1.88,1.19-2.01,2.29-4.07,3.44-6.09.19-.35.22-.57-.2-.78Zm-19.28,23.47c-.4,0-.77-.12-.85-.55-.07-.33.21-.42.51-.44.35.07.76.09.84.55.06.33-.24.43-.51.44Zm3.49-11.23c-.7,2.67-1.35,5.35-2.03,8.03-.19.74-.19,1.74-1.37,1.64-.78-.06-1.16-1.03-.9-2.17.58-2.59,1.28-5.15,2.05-7.68.27-.89.53-1.77,1-2.57.31-.54.64-1.18,1.43-.96.78.22.38.92.46,1.42.24.89-.43,1.53-.63,2.3Zm14.63-11.15c-.42,1.38-.95,2.7-1.95,3.78-.27.29-.58.47-.99.31-.4-.17-.51-.5-.44-1.06.35-1.31.88-2.72,1.82-3.92.2-.25.52-.52.85-.25.35.29.88.57.7,1.15Z"/><path class="cls-21" d="m132.75,489.82c0-.07.02-.17-.02-.22-1.03-1.32.02-1.48.95-1.77,4.45-1.4,8.31-3.73,11.49-7.19,1.59-1.73,3.51-3.19,4.21-5.6.14-.47.27-.91.25-1.4-.11-2.96.3-5.87.67-8.79.03-.26,0-.54.44-.53.22.55-.27,1.23.25,1.74-.02.89-.03,1.78-.05,2.66-.22.03-.4.1-.37.37.02.22.19.25.36.28,0,.23,0,.45,0,.68-.57.2-.47.53-.16.89-.03,2.15.1,4.3-.11,6.45-.64,1.39-.43,2.8-.12,4.22.06,1.64-.11,3.31.53,4.89.21.53-.23.7-.57.87-3.82,1.99-7.75,3.69-11.89,4.91-.81.24-1.69.32-2.44.68-1,.49-1.4,0-1.84-.76-.4-.68-.9-1.29-1.36-1.94.1-.23.17-.45-.22-.44h0Z"/><path class="cls-24" d="m140.55,447.61c-.61-2.99-2.8-4.66-5.13-6.22.12-.45-.21-.64-.49-.88-1.31-1.09-2.76-1.98-4.21-2.86-.28-.17-.75-.19-.71-.7.87-.58,1.74-1.15,2.61-1.73.03.49-.51.68-.65,1.19,1.67,0,3.28.05,4.89-.03.47-.02.95-.14,1.42-.12,3.25.15,6.48-.27,9.73-.22.43,0,.69-.18.94-.45-.07,2.73-.34,5.45-.62,8.17-.08.77-.04,1.55-.01,2.32.02.47-.14.75-.61.59-1.58-.52-3.04.19-4.54.37-.89.11-1.68.65-2.61.55Z"/><path class="cls-21" d="m159.24,372.24c.7-.29.54-.98.62-1.51.27-1.85.38-3.73.73-5.57.15-.79.77-1.45,1.7-1.59v.67c-.67,1.2-.84,2.46-.41,3.78-.1,3.15-.56,6.26-.86,9.38-.19,1.99-.5,3.97-.67,5.96-.16,1.92-.77,3.75-1.01,5.65-.31,2.47-.83,4.92-1.26,7.37-.47,2.67-1,5.33-1.41,8.01-.23,1.52-.48,3.06-.78,4.54-.42,2.08-.8,4.16-1.17,6.25-.03.19-.1.35-.32.39-.69.12-1.2-.39-1.8-.56-.21-.06-.02-.65.04-1.01.3-1.77.53-3.56.78-5.34.24-1.68.45-3.36.71-5.03.33-2.09.68-4.19,1.07-6.27.55-2.96,1.19-5.9,1.73-8.86.37-2.06.59-4.15.93-6.22.36-2.14.47-4.31.84-6.45.14-.8.29-1.64.26-2.48-.01-.4-.02-.81.27-1.14Z"/><path class="cls-5" d="m142.74,473.8c-.65,1.24-1.9,1.78-3.02,2.41-2.95,1.66-6.16,2.65-9.38,3.61-.14.04-.29.03-.36.31,1.48.46,2.92.08,4.37-.13.51-.07,1.01-.18,1.51-.29.56-.11.93.2,1.21.6.28.42-.02.8-.27,1.1-.9,1.03-1.9,1.84-3.32,2.23-2.73.73-5.44.61-8.22.46-3.51-.19-7.03.02-10.55-.07-3.71-.1-7.34-.82-11.19-1.72,1.17-.74,2.31-.46,3.33-.69,1.25-.28,2.53-.42,3.8-.62.42-.07.8-.17.83-.7,3.27.2,6.54.23,9.81.19,4.63-.06,9.11-.83,13.46-2.51,2.72-1.05,5.35-2.18,7.6-4.06.1-.08.27-.08.4-.12Z"/><path class="cls-13" d="m59.26,361.6c1.53.27,3.05-.02,4.57-.11.74-.05.93.1,1.16.71.68,1.88,2.39,3.09,4,2.92h-.02c.15.33.43.24.69.24.26-.04.45.11.64.25.33.33.74.18,1.13.18h-.01c.15.31.42.25.68.22h0c.96.9,1.18,1.87.24,2.93-.04.04,0,.14,0,.21h0c-.22,0-.44-.02-.3.32-.04.04-.08.04-.12,0-.13-.08-.22-.02-.28.09l-1.29.69c-.2.02-.41.02-.38.32l-.03.02c-.77.03-1.5.14-1.68,1.09-.02.04-.05.06-.09.07-.87-.26-1,.73-1.58.94-.31.8-.93.92-1.72.91-1.07,0-2.18-.25-3.23.21-.96-4.04-1.86-8.09-2.34-12.21Z"/><path class="cls-21" d="m73.01,463.15c3.65-1.02,7.19-.06,10.77.5,4.82.75,9.45,2.35,14.24,3.19,7.94,1.38,15.54.51,22.49-4.07,3.88-2.56,7.79-5.1,11.93-7.25,3.12-1.63,6.46-2.7,9.75-3.88,1.94-.7,3.86-1.42,5.88-1.85,0,.42,0,.83,0,1.25-3.63,1.16-7.2,2.48-10.79,3.77-5.06,1.82-9.43,4.78-13.93,7.56-2.01,1.25-4.01,2.53-6.14,3.57-2.54,1.24-5.19,1.95-8.04,2.19-1.36.12-2.73.31-4.12.37-3.44.14-6.81-.29-10.13-1.2-3.45-.94-6.9-1.86-10.43-2.41-2.95-.46-5.85-1.28-8.89-1.08-.81.05-1.59.33-2.4.28-.44-.23-.22-.6-.2-.93Z"/><path class="cls-11" d="m57.36,414.48c.33,0,.71-.05.85.35.11.34-.23.51-.42.72-.22.24-.48.46-.7.71-.26.29-.72.51-.48,1,.24.49.66.66,1.21.47.07-.02.18.07.28.11-3.3,2.11-6.2,4.65-8.59,7.76-.46.6-.88,1.11-.5,2.05.4.97-.5,2.41-1.37,2.66.07-.98-.64-1.49-1.23-2.06-.77-.74-1.21-.67-1.92.26-.37-.35-.33-1.28-1.01-1.08-.7.2-.68,1.05-.7,1.67-.04,1.39-1.85,3.27-3.18,3.12-.51-.06-1.04-.39-1.09-1.03-.1-1.19,1.51-3.34,2.67-3.63,1.09-.35,2.05-.91,2.91-1.66.65-.29,1.19.49,1.88.18.31-.14.56-.12.54-.6-.08-2.22,1.19-3.9,2.34-5.61.4-.6.95-1.09,1.42-1.64.04.15.03.46.29.28.39-.27.74-.62.6-1.19.28-.28.57-.57.85-.85.68.07,1.08-.21,1.15-.91.5-1.18,1.68-1.66,2.59-2.39,1.09-.86,2.22-1.74,3.62-2.08-.24.56-.73,1.02-.69,1.69-1.45.71-2.99,1.25-4.2,2.37-.32.3-.67.58-.95.92-.22.27-.3.67-.03.91.32.3.51-.11.7-.29.96-.87,1.99-1.64,3.16-2.21Z"/><path class="cls-5" d="m90.29,517.43c-.97,1.36-2.29,2.25-3.66,3.07-2.71,1.63-5.71,2.33-8.79,2.91-5.38,1-10.79,1.06-16.21.83-3.26-.14-6.23-1.24-8.51-3.76-.17-.19-.32-.4-.45-.61-.12-.2-.22-.42-.3-.6,12.88,4.49,25.48,3.36,37.93-1.83Z"/><path class="cls-5" d="m159.57,509.94c-2.7,3.81-6.42,6.3-10.64,8.09-3.33,1.41-6.82,2.14-10.43,2.52-2.6.28-5.17.42-7.75.16-2.48-.25-4.88-.85-6.82-2.61,2.71.73,5.48.71,8.24.62,3.56-.12,7.09-.6,10.57-1.33,4.1-.86,7.93-2.45,11.59-4.46,1.74-.95,3.37-2.09,5.05-3.14.06.05.13.1.19.15Z"/><path class="cls-21" d="m127.42,490.05c.48-.76-.42-.92-.62-1.39-.11-.25-.54-.38-.35-.72.14-.25.47-.33.78-.34.62,0,1.24,0,1.84-.2.35-.11.64.07.8.42.7,1.36,1.64,2.56,2.54,3.79,1.53,2.07,2.57,4.39,3.34,6.85.16.52-.1.6-.36.73-1.32.64-2.71,1.03-4.15,1.29-.37.07-.7-.05-.71-.48-.14-3.6-1.32-6.87-3.11-9.95Z"/><path class="cls-5" d="m149.42,454.71c-.14-.22-.29-.44-.43-.66.14-3.14.42-6.29.4-9.43-.02-3.66.53-7.27.73-10.91.11-1.92.34-3.84.4-5.76.01-.32.12-.56.29-.8.74.06,1.09.94,1.88.89.04,1.56-.33,3.1-.37,4.65-.06,2.69-.04,5.38-.03,8.07,0,1.4-.03,2.79-.24,4.17-.55.14-2.14,1.89-2.18,2.48-.16,2.22-.3,4.43-.44,6.65,0,.22,0,.44,0,.66Z"/><path class="cls-21" d="m155.42,329.16c.03.47-.21.59-.66.66-2.05.31-4.09.17-6.16.03-2.72-.19-5.39-.62-8.08-.98-4.46-.59-8.93-1.01-13.41-.81-2.92.12-5.88.1-8.76.79-.57.14-1.18.18-1.61-.38.13-.52.27-1.05.4-1.57,1.54-.02,3.09-.13,4.62.07.1.22.27.37.51.37,2.2,0,4.4,0,6.6,0,.11,0,.22-.16.34-.24.29.03.58.06.88.08.69.77,1.46.46,2.23.17.67.02,1.33.03,2,.05.45.71,1,.5,1.56.18.52.01,1.03.02,1.55.04.27.69.68.5,1.12.19.52.01,1.03.03,1.55.04.27.68.68.5,1.12.18l1.55.04c.27.69.68.5,1.12.19.59.02,1.18.04,1.77.06.45.69,1,.49,1.56.17.67.02,1.33.03,2,.05.2.6.52.49.89.17.52.01,1.03.03,1.55.04.18.63.52.51.9.18.37.01.74.02,1.1.03.18.63.51.53.9.19.29.02.59.03.88.05Z"/><path class="cls-20" d="m33.46,425.78c.43.1.41.39.4.75-.03,1.39.5,2.6,1.3,3.7.16.19.32.39.48.58.53,1.53,1.78,2.31,3.14,2.92.52.23,1.13.25,1.7.37.17.22.44.17.67.23.64.4,1.2-.03,1.77-.19.32-.09.5-.15.73.19.22.34.07.51-.12.75-1.75,2.22-4.35,2.57-6.98.78-2.53-1.71-3.78-4.14-3.68-7.23.03-.34.06-.68.09-1.03l.02-.03c.32-.14.21-.3.04-.48-.17-.55.13-.94.45-1.32Z"/><path class="cls-21" d="m64.81,418.43c.46.04.54.33.61.75.32,1.74.28,3.51.37,5.26.12,2.38.4,4.76.3,7.16-.03.83-.24,1.5-.91,2-.3-1.53-.64-3.05-.89-4.58-.4-2.43-.73-4.86-1.1-7.29-.12-.79.18-1.6-.2-2.37.6-.31,1.2-.62,1.8-.92Z"/><path class="cls-21" d="m164.28,338.47c-.58.04-.77-.34-.85-.82-.54-3.49-2.85-5.51-5.81-6.99-.39-.2-.81-.34-1.23-.49-.46-.16-.55-.43-.3-.84.29.02.59.04.88.06.05.32.15.53.45.16,1.82.11,3.53.69,5.21,1.32.68.25,1.17.83,1.36,1.52.34,1.26.73,2.52.49,3.86-.14.02-.31.03-.32.21,0,.19.17.2.3.22-.28.57-.07,1.2-.2,1.79Z"/><path class="cls-2" d="m58.56,387.36c1.11.19.96,1.21,1.01,1.86.15,2.06,1.5,3.43,2.57,4.95.31.44.5.74.43,1.34-.23,2.03.25,4.03.51,6.03.03.2.07.36-.11.49-.68-.61-.47-1.55-.87-2.3-.39-.74-.59-1.21-1.32-.37-.74-4-1.48-8-2.22-12Z"/><path class="cls-21" d="m149.42,454.71c0-.22,0-.44,0-.66.37-.02.59-.26.8-.53q.89-1.17,1.43.09l-.05,1.99c-.76.97-1.28,2.08-1.74,3.21-.67,1.66-.96,3.39-.91,5.19.06,2.58-.36,5.16-.22,7.74,0,.13-.07.26-.12.44-.76-1.48-.36-9.88.8-17.47Z"/><path class="cls-19" d="m117.14,326.9c-.13.52-.27,1.05-.4,1.57-1,3.61-2.07,7.2-2.9,10.86-.81.38-1.12.38-.91-.74.51-2.7,1.06-5.39,1.93-8,.29-.86.6-1.73.78-2.62.18-.9.62-1.26,1.51-1.07Z"/><path class="cls-2" d="m151.67,453.61q-.54-1.25-1.43-.09c-.21.27-.43.51-.8.53.15-2.22.28-4.44.44-6.65.04-.59,1.63-2.34,2.18-2.48,0,.59,0,1.19,0,1.78-.76.77-.46,1.61-.16,2.45-.16,1.48.21,2.98-.23,4.44Z"/><path class="cls-21" d="m60.77,399.36c.72-.83.92-.36,1.32.37.4.75.19,1.69.87,2.3,0,.29,0,.59.01.88.16,1.46.59,2.86,1.1,4.23-.07.21-.14.42-.21.63-.14.04-.28.07-.41.12-1.28.49-1.21.48-1.4-.84-.38-2.57-.84-5.13-1.27-7.69Z"/><path class="cls-4" d="m169.21,414.24c-.74,1.72-2.1,2.68-3.79,3.39-1.45.61-2.91,1.13-4.45,1.43-.74.14-1.47.13-2.19.06-.83-.08-1.16-.68-1.11-1.49,2.25.56,4.4.23,6.49-.69,1.76-.77,3.49-1.59,5.07-2.7Z"/><path class="cls-19" d="m125.66,494.9c-.05-1.92-.46-3.79-.67-5.69.13-.01.26-.03.39-.04,1.13,1.42,1.95,2.98,2.53,4.71.23.69.13.76-.52.88-.59.11-1.15.18-1.74.14Z"/><path class="cls-19" d="m64.81,418.43c-.6.31-1.2.62-1.8.92-.03-.62.18-1.21.24-1.82.07-.77.93-.9,1.49-1,.75-.14,1.5-.3,2.24-.46.75-.16,1.03.07.86.82-.25-.02-.51-.05-.68.2-.84.35-1.68.69-2.35,1.33Z"/><path class="cls-19" d="m152.69,428.04c-.79.05-1.14-.83-1.88-.89-.28-.81.15-1.57.16-2.36,0-.31.18-.3.45-.21.41.14.83.23,1.26.31.49.09.79.07.42.79-.34.67,0,1.61-.41,2.36Z"/><path class="cls-2" d="m50.77,338.69c.33.04.39.26.41.54.14,1.75.33,3.49.43,5.24.1,1.71.22,3.42.42,5.13.05.42.37,1.06-.38,1.3-.32-3.12-.67-6.24-.75-9.39-.02-.93-.17-1.88-.14-2.83Z"/><path class="cls-19" d="m88.31,487.85c.94,1.06,1.18,2.33,1.09,3.7-.22.02-.44.05-.65.05-1.34-.01-1.54-.28-1.29-1.47.17-.81.42-1.57.86-2.28Z"/><path class="cls-4" d="m44.49,428.51c.71-.92,1.14-1,1.92-.26.59.57,1.31,1.08,1.23,2.06-.57.74-1.03.53-1.55-.11-.49-.6-1.07-1.13-1.6-1.69Z"/><path class="cls-19" d="m33.46,425.78c-.32.38-.62.77-.45,1.32-.01.16-.02.32-.04.48l-.02.03c-.34.25-.31.65-.41.99-.18.49.19,1.48-.62,1.36-.6-.09-.2-.96-.09-1.46.37-1.72.78-3.42,2-5.11.06,1.01-.23,1.69-.37,2.39Z"/><path class="cls-13" d="m149.82,426.02c-.21-.09-.41-.18-.62-.28-.64-1.07-1.68-1.86-2.18-3.03.99.26,1.79.95,2.82,1.18.45.1.41.77.35,1.22-.05.31-.24.61-.36.91Z"/><path class="cls-3" d="m128.47,307.44c1.28.34,2.29.82,2.96,1.82.16.23.37.56.16.8-.21.25-.55.09-.81-.04-1.05-.54-1.73-1.41-2.31-2.58Z"/><path class="cls-4" d="m31.78,436.95c.21.24.42.48.66.74-1.45.24-2.74-.32-3.27-1.39-.41-.81-.06-1.57.71-1.57-.26,1.1.36,1.82,1.91,2.22Z"/><path class="cls-2" d="m111.64,495.34c.05-.32.27-.4.56-.4,2.55,0,5.1,0,7.65.02.16,0,.32.15.47.23-.53.39-1.12.15-1.68.16-2.33.02-4.66,0-6.99,0Z"/><path class="cls-21" d="m136.75,341.58c.26-.59.8-.5,1.25-.43,1.2.18,2.38.44,3.57.66.48.09.71.34.52.84-1.56-.49-3.19-.61-4.79-.85-.2-.03-.45.06-.55-.22Z"/><path class="cls-13" d="m32.97,439.13c.27-.41.39-.09.55.1.65.79,1.32,1.57,1.96,2.36.23.29.78.68.49.95-.38.36-.55-.38-.9-.5-.69-.98-2.01-1.5-2.1-2.92Z"/><path class="cls-19" d="m44.09,425.9c-.86.75-1.83,1.31-2.91,1.66-.06-1.08.89-1.88,2.05-1.74.29.04.58.05.87.08Z"/><path class="cls-2" d="m129.21,327.08c-.11.08-.22.24-.34.24-2.2.02-4.4.01-6.6,0-.24,0-.4-.15-.51-.37,2.48-.13,4.96-.03,7.44.11Z"/><path class="cls-19" d="m35.64,430.82c-.16-.19-.32-.39-.48-.58.25-1.2.65-2.34,1.26-3.42-.21,1.35,0,2.77-.78,4Z"/><path class="cls-11" d="m32.97,439.13c.08,1.41,1.4,1.94,2.1,2.92-1.25.3-1.82-.65-2.39-1.43-.35-.46-.42-1.12.3-1.49Z"/><path class="cls-13" d="m31.78,436.95c-1.55-.4-2.17-1.12-1.91-2.22.78.61,1.47,1.31,1.91,2.22Z"/><path class="cls-2" d="m98.52,327.17c-.05.1-.09.28-.14.28-1.29.11-2.6.35-3.87-.13,1.32-.39,2.67-.11,4.01-.15Z"/><path class="cls-2" d="m161.88,368.03c-.43-1.32-.26-2.58.4-3.78-.21,1.25-.08,2.54-.4,3.78Z"/><path class="cls-1" d="m189.77,404.87c-.26.04-.49.42-.78.06-.05-.63-.51-.41-.87-.42-.31-.33-.11-.42.21-.46.31-.04.67.08.9-.25.85.02.67.56.54,1.07Z"/><path class="cls-2" d="m66.28,461.15c.36.28.23.67.23,1.02.01,1.54.01,3.09,0,4.63,0,.35.13.75-.23,1.02-.14-2.23-.12-4.45,0-6.68Z"/><path class="cls-5" d="m68.48,426.92c-.72-.6-.87-1.73-.38-2.9.39.93.06,1.96.38,2.9Z"/><path class="cls-2" d="m150.54,481.6c-.31-1.42-.52-2.83.12-4.22l-.12,4.22Z"/><path class="cls-5" d="m68.04,423.14c-.78-.84-.45-1.76-.17-2.67.39.87.15,1.78.17,2.67Z"/><path class="cls-5" d="m69.15,433.37c-.67-.7-.77-1.64-.23-2.22.33.71.29,1.46.23,2.22Z"/><path class="cls-5" d="m151.89,449.16c-.3-.84-.6-1.68.16-2.45-.05.82.26,1.66-.16,2.45Z"/><path class="cls-13" d="m37.21,443.8c.69.3.93.79,1.39,1.19q-1.01.16-1.39-1.19Z"/><path class="cls-2" d="m132.32,327.33c-.77.29-1.54.61-2.23-.17.74.02,1.51-.22,2.23.17Z"/><path class="cls-5" d="m69.37,436.03c-.75-.53-.46-1.15-.17-1.78.39.56.14,1.19.17,1.78Z"/><path class="cls-2" d="m90.29,327.4c-.54.72-1.16.45-1.78.16.56-.4,1.19-.14,1.78-.16Z"/><path class="cls-2" d="m135.87,327.56c-.56.33-1.11.53-1.56-.18.52.04,1.08-.22,1.56.18Z"/><path class="cls-23" d="m41.15,434.33c-.23-.06-.49,0-.67-.23.04-.35.01-.91.47-.81.52.11.15.68.2,1.04Z"/><path class="cls-5" d="m69.6,439.15c-.69-.45-.49-1-.17-1.56.4.48.13,1.04.17,1.56Z"/><path class="cls-2" d="m147.2,328.45c-.56.32-1.11.51-1.56-.17.52.02,1.07-.2,1.56.17Z"/><path class="cls-2" d="m102.33,327.07c-.97.48-1.94.42-2.92.04.97-.11,1.95-.11,2.92-.04Z"/><path class="cls-5" d="m70.49,450.04c-.71-.36-.46-.85-.17-1.34.37.41.15.89.17,1.34Z"/><path class="cls-5" d="m70.71,452.93c-.71-.36-.45-.85-.17-1.34.37.41.15.89.17,1.34Z"/><path class="cls-4" d="m51.17,417.32c.14.57-.21.92-.6,1.19-.26.18-.24-.12-.29-.28.3-.3.59-.61.89-.91Z"/><path class="cls-5" d="m70.04,444.7c-.72-.36-.45-.85-.18-1.34.37.4.15.89.18,1.34Z"/><path class="cls-2" d="m81.41,327.83c-.37.71-.85.45-1.34.17.41-.38.89-.15,1.34-.17Z"/><path class="cls-2" d="m85.18,327.61c-.37.71-.85.45-1.34.17.41-.38.89-.14,1.34-.17Z"/><path class="cls-5" d="m69.82,442.04c-.72-.36-.45-.85-.17-1.34.37.41.15.89.17,1.34Z"/><path class="cls-5" d="m70.26,447.37c-.72-.36-.45-.85-.17-1.34.37.41.15.89.17,1.34Z"/><path class="cls-4" d="m53.17,415.55c-.07.7-.47.98-1.15.91.34-.36.58-.84,1.15-.91Z"/><path class="cls-2" d="m143.87,328.22c-.43.31-.85.5-1.12-.19.38.04.8-.18,1.12.19Z"/><path class="cls-5" d="m70.93,454.93c-.65-.28-.5-.68-.18-1.11.37.32.15.74.18,1.11Z"/><path class="cls-2" d="m141.21,328c-.43.31-.85.5-1.12-.18.38.03.79-.18,1.12.18Z"/><path class="cls-2" d="m150.77,470.94c-.31-.36-.41-.68.16-.89.16.33.35.67-.16.89Z"/><path class="cls-2" d="m138.54,327.78c-.44.31-.85.5-1.12-.19.38.04.8-.18,1.12.19Z"/><path class="cls-5" d="m144.08,472.48c.05.66-.26.95-.92.89.25-.35.53-.68.92-.89Z"/><path class="cls-2" d="m150.1,328.67c-.37.33-.7.43-.89-.17.31.01.65-.18.89.17Z"/><path class="cls-5" d="m71.6,460.48c-.59-.2-.49-.53-.16-.9.37.24.14.59.16.9Z"/><path class="cls-2" d="m154.54,329.11c-.38.34-.72.44-.9-.19.31.02.65-.14.9.19Z"/><path class="cls-2" d="m152.54,328.89c-.38.33-.71.45-.9-.18.31.02.65-.16.9.18Z"/><path class="cls-5" d="m71.15,456.93c-.61-.2-.49-.53-.16-.9.37.24.14.59.16.9Z"/><path class="cls-23" d="m32.54,428.6c.1-.35.08-.74.41-.99-.03.34-.06.69-.09,1.03-.11-.01-.22-.02-.33-.04Z"/><path class="cls-5" d="m57.37,356.91c-.5-.12-.53-.35-.16-.68.33.16.16.44.16.68Z"/><path class="cls-5" d="m57.15,355.35c-.5-.12-.53-.35-.16-.68.33.16.16.44.16.68Z"/><path class="cls-21" d="m151.13,463.35c-.17.12-.35.29-.5,0-.03-.06.01-.23.07-.26.21-.11.31.07.4.22,0,0,.03.05.03.05Z"/><path class="cls-5" d="m71.37,458.71c-.49-.12-.53-.35-.16-.68.33.16.16.44.16.68Z"/><path class="cls-5" d="m57.82,359.58c-.5-.12-.53-.35-.16-.68.33.16.16.44.16.68Z"/><path class="cls-5" d="m67.83,418.7c-.51-.12-.54-.36-.16-.68.34.16.2.43.16.68Z"/><path class="cls-5" d="m57.59,358.24c-.5-.12-.53-.35-.16-.68.33.16.16.44.16.68Z"/><path class="cls-2" d="m150.93,469.37c-.17-.04-.34-.07-.36-.28-.03-.27.15-.34.37-.37,0,.22,0,.44-.01.66Z"/><path class="cls-5" d="m71.82,462.04c-.49-.12-.53-.35-.16-.68.33.16.16.44.16.68Z"/><path class="cls-5" d="m56.92,353.58c-.59-.09-.26-.42-.18-.68.3.16.19.44.18.68Z"/><path class="cls-5" d="m104.99,479.81c-.27.09-.61.42-.69-.19.26-.03.53-.12.69.19Z"/><path class="cls-5" d="m67.16,417.1c.17-.25.43-.23.68-.2-.08.16-.16.31-.23.47-.2,0-.36-.07-.44-.27Z"/><path class="cls-2" d="m157.43,329.55c-.3.36-.4.16-.45-.16.19-.04.36-.05.45.16Z"/><path class="cls-2" d="m105.85,326.99c-.07.1-.13.26-.22.28-.16.03-.18-.15-.21-.28.14,0,.29,0,.43,0Z"/><path class="cls-5" d="m108.31,480.24c-.3.36-.4.16-.45-.16.18-.03.37-.09.45.16Z"/><path class="cls-2" d="m125.38,489.17c-.13.01-.26.03-.39.04-.03-.31.1-.49.43-.5l-.04.46Z"/><path class="cls-2" d="m164.48,336.68c-.14-.03-.31-.04-.3-.22,0-.18.18-.19.32-.21,0,.14-.01.29-.02.43Z"/><path class="cls-13" d="m59.15,360.89c.25.15.26.31.01.48-.24-.15-.23-.31-.01-.48Z"/><path class="cls-11" d="m60.95,410.3c-.06.46-.39.39-.7.36.18-.23.43-.31.7-.36Z"/><path class="cls-2" d="m132.76,489.82c.39,0,.32.21.22.44-.23-.07-.16-.29-.22-.44Z"/><path class="cls-24" d="m149.05,435.26c-.27-.21-.28-.44-.03-.68.2.22.19.44.03.68Z"/><path class="cls-1" d="m154.1,397.41c0-.19,0-.38.2-.49.05.21.02.39-.2.49Z"/><path class="cls-11" d="m60.28,410.64c-.07.25-.26.27-.47.25.1-.19.28-.22.47-.25Z"/><path class="cls-11" d="m59.83,410.86c-.06.25-.25.27-.46.25.1-.19.28-.23.46-.25Z"/><path class="cls-2" d="m84.75,496.08c.06-.08.12-.16.18-.24.04.15-.06.2-.18.24Z"/><path class="cls-11" d="m61.39,410.07c-.08.06-.16.12-.24.17.08-.06.16-.12.24-.17Z"/><path class="cls-5" d="m159.38,509.78c.04-.09.08-.22.19-.13.05.03,0,.19,0,.28-.06-.05-.13-.1-.19-.15Z"/><path class="cls-1" d="m154.08,398.25c-.16-.07-.16-.14,0-.22.02.07.02.14,0,.22Z"/><path class="cls-5" d="m106.12,480.03c-.09-.07-.18-.13-.27-.2.17-.05.22.08.27.2Z"/><path class="cls-13" d="m160.36,356.51c-.2-.11-.15-.22,0-.32,0,.11,0,.21,0,.32Z"/><path class="cls-22" d="m136.04,382.93c-2.18-1.87-4.73-2.48-7.6-2.5-3.86-.03-6.89,1.48-9.32,4.31-2.99,3.5-4.72,7.56-5.07,12.18,0,.14,0,.29,0,.43-.07.52-.14,1.05-.2,1.56-.08,2.53.65,4.81,2.03,6.91,2.07,2.18,4.75,3.13,7.6,3.46,2.38.27,4.68-.43,6.75-1.71.68-.42,1.33-.91,2-1.37.15-.11.33-.19.43-.33,1.77-2.34,3.34-4.8,4.51-7.51,1.01-2.92,1.92-5.84,1.84-9.02-.08-2.63-1-4.73-2.96-6.41Zm-9.25,18.53c-.54.99-1.28,1.73-2.59,1.71-.97-.02-1.27-.54-1.2-1.29.09-.95.51-1.81,1.16-2.54.34-.39.77-.1.87-.14,1.61-.39,2.43,1.03,1.76,2.25Zm-2.08-8.63c-.74.47-1.52.88-2.33,1.17-.41.15-.83.27-1.26.35-.55.11-1.12.15-1.71.12-.47,0-.89-.07-1.27-.19-.21-.07-.41-.16-.59-.27-.19-.13-.37-.26-.51-.42-.71-.77-.83-1.98-.19-3.34.86-1.81,1.82-3.6,3.15-5.08,1.53-1.7,3.36-3.11,5.79-3.36,1.07-.11,2.14.13,3.09.53.78.33.97,1.2.98,2.03.07,3.91-2.05,6.52-5.15,8.46Z"/><path class="cls-22" d="m97.81,396.49c-.33-2.15-1.5-3.71-3.25-4.97-2.4-1.73-6.25-2.31-8.87.3-1.56,1.56-2.84,3.25-3.76,5.25,0,.25-.07.48-.29.64l.03.08c.03.22-.03.39-.24.49.02.36-.03.71-.13,1.07-.53,2.08-.4,4.09.44,6.09.61,1.45,1.67,2.46,2.82,3.44,2.6,1.22,5.17.67,7.74-.12,2.75-1.6,4.6-3.87,5.23-7.04.35-1.74.4-3.49.27-5.24Zm-12.51,4.4c-1.67.46-2.55-1.56-2.32-2.88.52-3,2.4-4.95,4.95-6.37.76-.42,1.6-.37,2.35-.22.99.19.99,1.05.89,1.79.2,2.79-2.86,6.82-5.88,7.68Zm5.23,4.25c-.84,0-.66-.6-.69-.99.03-1.47.89-2.57,1.92-2.56.57,0,.95.26.98.81.06,1.16-1.24,2.72-2.21,2.73Z"/><path class="cls-5" d="m70.3,365.61c-.19-.15-.38-.29-.64-.25-.13-.37-.45-.18-.69-.24h.02c-.14-.11-.26-.26-.42-.32-2.44-.89-3.78-3.12-2.22-5.98.9-1.66,2.22-2.86,4.06-3.42.71-.22,2.08.4,2.44,1.09.33.63.04,1.12-.44,1.54-1.9.12-2.86.85-3.23,2.44v-.02c-.39.36-.43.73.01,1.09.43.17.86.34,1.28.51.17.06.33.14.5.19,2.3.67,4.66,1.24,5.8,3.72.36,1.19.34,2.36-.29,3.47-.44.63-.88,1.27-1.32,1.9,0,0,0,0,0,0-.47,0-.66.38-.94.65-.22.16-.43.32-.65.47-.13.08-.25.16-.38.24-.24.13-.47.26-.71.4-.86.32-1.7.69-2.63.74-.25,0-.51-.04-.76-.02-.67.04-1.26-.17-1.59-.73-.38-.65.42-.89.63-1.34.04,0,.08-.03.09-.07.56-.36,1.12-.73,1.68-1.09,0,0,.03-.02.03-.02.2-.01.32-.13.38-.32.43-.23.86-.46,1.29-.69.11.02.24.08.28-.09.04.04.08.05.12,0,.18-.03.28-.13.3-.32,0,0,0,0,0,0,.93-.39,1.51-1.03,1.31-2.08-.15-.8-.8-1.05-1.54-1.07h0c-.13-.37-.45-.15-.68-.22h.01c-.31-.44-.75-.14-1.13-.17Z"/><path class="cls-5" d="m141.43,369.16c-1.04.3-2.03-.3-1.98-1.38.11-2.04.37-4.09,1.34-5.94.33-.63.83-1.19,1.68-.79.27.13.42-.04.59-.15,1.63-.95,3.19-.71,4.72.24,1.07,1.01,1.78,2.19,2.11,3.67.32,1.46,0,2.82-.25,4.22-.05,1-.93,1.43-1.45,2.11-.75.58-1.01-.15-1.41-.53-.4-.94-.31-1.9-.15-2.88.18-1.09.32-2.2-.22-3.23-.21-.4-.41-.89-1.01-.9-.45-.1-.8,0-1.18.32-1.02.9-1.63,2.03-1.92,3.31-.17.73-.42,1.37-.9,1.93Z"/><path class="cls-15" d="m108.96,383.47c.24-2.7,1.52-4.78,3.85-6.14.89-.52,1.77-.21,2.51.48.52.49.53,1.23.2,1.6-.62.67-1.01,1.54-1.79,2.08-1.1.78-1.98,1.79-2.62,2.97-.28.52-.53,1.05-1.19.87-.65-.18-.93-.75-.97-1.42,0-.15,0-.3,0-.44Z"/><path class="cls-20" d="m95.54,382.25c.21.71-.16,1.53.72,1.99.37.2.43.73.11,1.08-.49.54-1.18.68-1.81.39-1.81-.82-3.29-3.28-3.16-4.76.08-.91.47-1.58,1.32-1.83.85-.25,1.65.05,2.22.74.58.7.88,1.51.6,2.39Z"/><path class="cls-20" d="m143.45,378.65c.68-.03,1.33.12,1.48.77.16.71.3,1.55-.5,2.1-.86.59-1.83.85-2.86.95-.33.03-.68-.06-.99.04-.37.12-.7.29-.99-.08-.29-.37-.18-.77,0-1.14.8-1.6,2.22-2.29,3.86-2.64Z"/><path class="cls-15" d="m81.17,386.92c0,1.3-.72,2.21-1.75,2.2-.95,0-1.57-.72-1.56-1.8,0-1.41.63-2.19,1.74-2.17,1.12.02,1.58.53,1.57,1.77Z"/><path class="cls-20" d="m147.87,391.94c0,1.12-.59,1.85-1.52,1.87-.7.02-1.8-1.23-1.83-2.06-.03-.97.63-1.51,1.83-1.51,1.24,0,1.52.31,1.52,1.69Z"/><path class="cls-20" d="m141.84,399.79c.97.42,1.34,1.66.83,2.72-.35.73-1.24,1.04-1.98.71-.97-.45-1.34-1.51-.83-2.49.18-.35.25-.78.68-.96.43,0,.86.01,1.29.02Z"/><path class="cls-6" d="m68.14,371.75c-.21.45-1.01.69-.63,1.34.33.56.92.77,1.59.73.25-.02.51.01.76.02-.84.39-1.74.24-2.59.15-.65-.07-.74-.72-.72-1.3.59-.21.71-1.2,1.58-.94Z"/><path class="cls-6" d="m148.21,371.15c.51-.68,1.4-1.11,1.45-2.11.89-.26.53-1.17.9-1.7.44.46-.17.91-.01,1.37,0,.07-.01.14-.02.21h0c-.31.54-.56,1.12-.94,1.61-.32.42-.63,1.08-1.39.62Z"/><path class="cls-13" d="m72.49,373.1c.24-.13.47-.26.71-.4-.12.34-.13.88-.71.4Z"/><path class="cls-1" d="m114.05,396.92c0,.14,0,.29-.01.43-.14-.02-.32-.03-.31-.22,0-.18.18-.19.32-.21Z"/><path class="cls-1" d="m81.93,397.07c0,.26-.07.48-.28.65-.01-.26.04-.49.28-.65Z"/><path class="cls-1" d="m81.68,397.79c.03.22-.03.4-.25.49-.01-.21.03-.4.25-.49Z"/><path class="cls-3" d="m95.2,412.22c.23-.52.31-1.42,1.04-1.62.84-.23,1.93-.78,2.64.15.96,1.25,2.27,1.87,3.6,2.53.22.11.5.25.49.55-.01.31-.33.36-.55.48-1.24.66-2.62.85-3.98,1.03-.95.13-3.24-2.06-3.24-3.11Z"/><path class="cls-6" d="m115.86,405.83c2.07,2.18,4.75,3.14,7.6,3.46,2.38.27,4.69-.43,6.75-1.71.69-.43,1.34-.91,2.01-1.37-1.06,2.03-2.58,3.53-4.9,4.01-3.12.65-6.05-.25-8.84-1.44-1.08-.46-1.86-1.63-2.76-2.49-.13-.12-.05-.35.14-.47Z"/><path class="cls-4" d="m57.36,414.48c-1.17.57-2.2,1.34-3.16,2.21-.19.18-.38.59-.7.29-.27-.25-.19-.65.03-.91.28-.34.63-.62.95-.92,1.21-1.12,2.76-1.66,4.2-2.37.21-.03.43-.11.7.08-.52.74-1.47.94-2.02,1.62Z"/><path class="cls-13" d="m84.56,408.89c2.6,1.22,5.17.67,7.74-.12-.5.9-1.43,1.12-2.3,1.29-1.54.3-3.12.53-4.6-.27-.35-.19-.86-.32-.84-.9Z"/><path class="cls-19" d="m60.43,353.79c-.6-.19-1.21-.32-1.55-1.03-.33-.69.06-1.04.43-1.44,1.01-1.1,2.39-1.62,3.71-2.16,5.3-2.15,10.83-3.48,16.45-4.44,5.09-.86,10.2-1.68,15.39-1.34,1.53.1,3.1.13,4.57.67.56.2,1.15.43,1.11,1.2-.04.71-.62.87-1.15,1.02-3.18.86-6.41,1.41-9.68,1.75-6.31.65-12.6,1.42-18.75,3.11-3.41.94-6.86,1.74-10.28,2.6-.07.02-.14.04-.24.06Z"/><path class="cls-19" d="m122.65,343.56c9.96-.02,19.51,2.08,28.77,5.62.83.32,1.6.77,2.4,1.16.22.11.54.19.47.53-.07.34-.41.21-.64.29-1.35.46-2.61-.17-3.9-.33-3.93-.5-7.87-.97-11.74-1.76-3.55-.73-7.1-1.38-10.69-1.78-2.82-.32-5.65-.54-8.48-.81-.55-.05-1.1-.17-1.65-.2-.78-.05-1.14-.48-1.14-1.21,0-.76.49-1.12,1.18-1.25,1.8-.34,3.61-.22,5.43-.25Z"/><path class="cls-5" d="m123.64,358.96c1.47,1.13,2.47,2.52,2.45,4.46-.02,1.67-1.23,3.32-2.82,3.9-.87.32-1.67.79-2.61.98-1.45.29-2.68.03-3.8-.89-.31-.25-.7-.5-.58-1.02.13-.55.58-.7,1.04-.81,1.34-.31,2.68-.57,4.02-.89.61-.15,1.28-.38,1.43-1.07.18-.81-.15-1.48-.83-2.02-1.02-.81-2.3-1.19-3.21-2.18-.48-.52-.84-1.1-1.29-1.63-.61-3.77,4.14-6.38,7.16-5.23.48.18,1.16.61,1.08,1.53-.08,1.02-.84.83-1.39,1.03-.27.09-.58.04-.88.05-.97-.2-1.7.25-2.39.86-.53.47-.6.88.04,1.29,1,.32,1.65,1.2,2.58,1.64Z"/><path class="cls-5" d="m90.06,360.45c.23-.26.47-.53.7-.79,1.65-.57,3.14-.25,4.47.84.34.28.46.18.64-.14.25-.44.54-.88.87-1.26,1.31-1.51,3.5-1.53,5.33.07,1.48,2.27,2.1,4.79,1.99,7.47-.04.91-.74,1.17-1.55,1.21-.86-.33-1.12-1.07-1.34-1.87-.16-.58-.06-1.22-.43-1.75,0,0,0,.01,0,.01-.04-.55.08-1.16-.45-1.57,0,0,0,.02,0,.02-.06-.23.09-.54-.23-.68,0,0,0,0,0,0,0-.29-.07-.56-.34-.72,0,0-.04-.04-.04-.04-.37-.47-.72-.65-1.03.05,0,0,.02-.01.02-.01-.31.24-.44.59-.57.94-.17.28-.44.55-.48.85-.16,1.21-.97,1.52-2,1.6-.09-.18-.23-.27-.43-.28,0,0,.03.02.03.02-.02-.16-.12-.21-.26-.21,0,0,.02,0,.02,0-.18-.23-.35-.46-.53-.7,0-.04-.03-.08-.06-.1-.1-.11-.19-.21-.29-.32,0,0,0,0,0,0-.01-.14-.09-.22-.23-.23,0,0,0,.01,0,.01-.01-.15-.1-.22-.24-.22h0c-.06-.19-.21-.25-.39-.28,0,0-.02-.01-.02-.01-.14-.22-.34-.37-.6-.27-.07.02-.06.24-.09.37-.2,1.59.59,2.94,1.11,4.33.43,1.15.02,2.23-1.13,2.38-.41,0-.73-.18-.89-.53-1.08-2.45-2.55-4.83-1.76-7.71h0c.27-.09.21-.29.19-.49Z"/><path class="cls-5" d="m136.3,359.15c1.14.68,1.36,1.78,1.34,2.98,0,.41-.02.81-.03,1.22-.67,1.01-.71,2.27-1.34,3.29-.65,1.07-1.84,1.57-2.66,2.47-.79-.3-1.57.18-2.43-.15-2.43-.95-3.74-3.28-3.32-5.88.22-1.37.51-2.68,1.07-3.94.03-.07.05-.14.08-.21,0,0,0,.01,0,.01.64-.3,1.24-.8,1.99-.26.13.06.26.12.39.17-.18.36.16.69.05,1.08-.27.91-.61,1.85-.62,2.78,0,.8-.48,1.75.35,2.46,0,0-.02.03-.02.03.06.3.26.46.53.55.38.47.77.29,1.14,0,.9-.7,1.34-1.65,1.3-2.77-.03-.95.08-1.85.44-2.73.18-.35.37-.69.55-1.04,0,0-.03.03-.03.03.2-.05.39-.09.59-.14.07,0,.15,0,.22,0,.15.02.29.03.44.05Z"/><path class="cls-20" d="m69.18,360.48c.37-1.59,1.34-2.32,3.23-2.44-.49.27-.98.54-1.47.81-.09.06-.19.12-.28.18l-.05-.02c-.74.23-.89,1.04-1.43,1.47Z"/><path class="cls-20" d="m121.06,357.33c-.64-.41-.57-.82-.04-1.29.69-.61,1.42-1.06,2.39-.86-.55.26-1.12.48-1.63.8-.46.29-.84.71-.72,1.35Z"/><path class="cls-13" d="m70.66,359.03c.09-.06.19-.12.28-.18-.04.14-.13.22-.28.18Z"/><path class="cls-4" d="m180.23,406.04c-.79.01-1.42-.69-1.46-1.62-.04-1.08.71-1.95,1.66-1.94.78,0,1.59.95,1.64,1.91.05.86-.81,1.63-1.84,1.65Z"/><path class="cls-4" d="m191.34,398.04c-.68.02-1.24-.78-.96-1.36.36-.77.87-1.44,1.66-1.84.31-.16.63-.22.93.02.3.25.3.59.15.9-.44.91-.79,1.9-1.77,2.28Z"/><path class="cls-4" d="m176.34,398.08c-.01.77.04,1.57-.81,2-.21.11-.42.18-.59-.03-.55-.67-.45-1.43-.3-2.2.03-.18.09-.36.16-.53.18-.45.36-.94.98-.84.58.1.56.59.57,1.04,0,.18,0,.37,0,.55Z"/><path class="cls-4" d="m185.33,390.51c.47.03.71.44.66.82-.09.76-.32,1.51-.8,2.14-.19.24-.44.41-.76.34-.35-.07-.43-.38-.52-.65-.23-.78.71-2.59,1.41-2.64Z"/><path class="cls-4" d="m188.12,404.51c.35.01.81-.21.87.42-.5.53-.99,1.05-1.49,1.57-.16.16-.37.28-.58.11-.21-.17-.11-.39-.03-.6.24-.64.85-.98,1.24-1.5Z"/><path class="cls-5" d="m88.27,367.15c-.27.77-.49,1.55-.99,2.22-.91,1.23-2.2,1.56-3.63,1.55-.23-.38-.61-.17-.91-.24h.01c-.74-.57-1.62-.92-2.28-1.64-1.74-1.88-2.03-4.62-.61-6.34,0,0-.01,0-.01,0,.12-.08.23-.15.35-.23,1.05-.06,1.44.5,1.41,1.48-.03,1.35.47,2.49,1.48,3.38.47.42,1,.72,1.64.27.53-.89.39-1.9.15-2.75-.35-1.2-.43-2.33-.07-3.5.97-.67,2.07-.25,2.83,1.07.15.82.44,1.6.51,2.45.06.75-.21,1.52.13,2.26Z"/><path class="cls-5" d="m109.65,361.82c.19,0,.39.02.46-.22.44-.02.87-.03,1.31-.05.15,0,.3,0,.45,0,.22,0,.44,0,.66,0,.82.18,1.23.63,1.12,1.53-.12.98-.95,1.12-1.61,1.36-.48.17-1.05.1-1.58.21-.77.16-1.51-.76-1.7-1.94.2-.06.29-.21.33-.4,0,0-.04.03-.04.03.08-.09.16-.18.23-.28,0,0-.04.04-.04.04.09-.08.18-.15.28-.23,0,0,.01.03.01.03.06,0,.11-.03.12-.09Z"/><path class="cls-6" d="m79.87,362.7c-1.42,1.71-1.13,4.45.61,6.34.66.71,1.54,1.07,2.28,1.64-.94.15-1.6-.44-2.28-.91-1.76-1.22-2.67-4.09-1.92-5.98.23-.59.5-1.18,1.31-1.08Z"/><path class="cls-20" d="m150.56,367.34c-.38.53-.02,1.44-.9,1.7.25-1.39.57-2.75.25-4.22-.33-1.48-1.04-2.66-2.11-3.67.65.01,1.03.44,1.4.9,1.26,1.56,1.49,3.38,1.37,5.29Z"/><path class="cls-6" d="m89.88,360.94c-.79,2.88.67,5.26,1.76,7.71.16.35.48.54.89.53-.29.76-.68.18-.92,0-1.25-.89-2.82-6.29-2.28-7.71.1-.27.13-.61.55-.54Z"/><path class="cls-6" d="m141.43,369.16c.48-.56.74-1.2.9-1.93.29-1.28.9-2.41,1.92-3.31.38-.33.73-.43,1.18-.32-1.54,1.09-2.46,2.55-2.68,4.44-.09.77-.49,1.2-1.32,1.11Z"/><path class="cls-20" d="m76.77,365.97c-1.13-2.49-3.5-3.05-5.8-3.72-.17-.05-.33-.13-.5-.19,2.27.31,4.54.6,5.93,2.78.22.34.43.7.37,1.14Z"/><path class="cls-6" d="m84.81,361.37c-.36,1.18-.28,2.3.07,3.5.24.84.38,1.86-.15,2.75-.18-1.75-.66-3.47-.62-5.24,0-.42.16-.88.7-1.01Z"/><path class="cls-6" d="m131.15,365.17c-.83-.71-.36-1.65-.35-2.46,0-.93.35-1.87.62-2.78.12-.4-.22-.72-.05-1.08.35.3.55.65.42,1.15-.47,1.69-.64,3.42-.64,5.17Z"/><path class="cls-3" d="m133.6,369.1c.81-.9,2-1.4,2.66-2.47.04.11.08.21.12.32-.82.86-1.34,2.1-2.78,2.15Z"/><path class="cls-20" d="m136.38,366.95c-.04-.11-.08-.22-.12-.32.64-1.02.68-2.28,1.34-3.29.15,1.39-.51,2.51-1.22,3.61Z"/><path class="cls-6" d="m100.75,364.23c.37.53.27,1.17.43,1.75.22.8.48,1.54,1.34,1.87-.6.38-.94.09-1.19-.45-.48-1.01-.63-2.07-.57-3.17Z"/><path class="cls-20" d="m88.27,367.15c-.34-.73-.07-1.5-.13-2.26-.07-.85-.36-1.63-.51-2.45,1.01,1.46.58,3.12.64,4.7Z"/><path class="cls-15" d="m75.17,371.34c.44-.63.88-1.27,1.32-1.9-.36.69-.56,1.49-1.32,1.9Z"/><path class="cls-6" d="m111.41,361.54c-.44.02-.87.03-1.31.05.51-.63.73-.64,1.31-.05Z"/><path class="cls-6" d="m100.31,362.67c.53.42.4,1.02.45,1.57-.4-.45-.5-.99-.45-1.57Z"/><path class="cls-6" d="m135.08,359.21c-.18.35-.37.69-.55,1.04-.27-.59-.01-.89.55-1.04Z"/><path class="cls-20" d="m69.19,361.55c-.44-.36-.4-.73,0-1.09,0,.36,0,.73,0,1.09Z"/><path class="cls-6" d="m94.47,363.52c.18.23.35.46.53.7-.46-.01-.79-.13-.53-.7Z"/><path class="cls-15" d="m74.23,371.99c.28-.27.47-.66.94-.65-.22.35-.47.66-.94.65Z"/><path class="cls-6" d="m98.68,361.31c.31-.71.66-.52,1.03-.05-.34.02-.69.04-1.03.05Z"/><path class="cls-6" d="m112.53,361.55c-.22,0-.44,0-.66,0,.03-.18.06-.35.29-.38.28-.03.35.16.38.38Z"/><path class="cls-6" d="m98.14,362.24c.13-.35.25-.7.57-.94.01.43-.06.82-.57.94Z"/><path class="cls-6" d="m99.75,361.3c.27.16.34.43.34.72-.33-.14-.55-.33-.34-.72Z"/><path class="cls-6" d="m92.55,362.47c.03-.13.02-.35.09-.37.26-.1.46.05.6.27-.23.03-.46.07-.69.1Z"/><path class="cls-6" d="m135.64,359.1c-.2.05-.39.09-.59.14-.03-.24.06-.43.3-.47.25-.05.26.17.29.33Z"/><path class="cls-6" d="m82.75,370.68c.31.07.69-.14.91.24-.31-.04-.69.14-.91-.24Z"/><path class="cls-6" d="m131.66,365.75c-.28-.09-.47-.25-.53-.55.39-.02.47.26.53.55Z"/><path class="cls-6" d="m136.3,359.15c-.15-.02-.29-.03-.44-.05.06-.11.12-.3.2-.31.24-.02.23.19.24.36Z"/><path class="cls-6" d="m100.09,362.01c.32.14.17.45.23.68-.3-.15-.24-.42-.23-.68Z"/><path class="cls-6" d="m90.06,360.45c.02.19.08.4-.19.48-.05-.2-.01-.38.19-.48Z"/><path class="cls-6" d="m95.22,364.41c.2,0,.34.1.43.28-.2-.01-.39-.03-.43-.28Z"/><path class="cls-6" d="m93.27,362.38c.18.03.33.09.39.29-.22.02-.41.01-.39-.29Z"/><path class="cls-6" d="m94.12,363.1c.1.11.19.21.29.32-.36.13-.32-.1-.29-.32Z"/><path class="cls-6" d="m109.08,362.32c-.04.19-.13.34-.33.4.01-.21.05-.41.33-.4Z"/><path class="cls-6" d="m109.65,361.82c-.02.06-.06.09-.12.09,0-.06-.02-.12-.03-.18.05.03.1.06.15.09Z"/><path class="cls-6" d="m80.2,362.48c-.12.08-.23.15-.35.23.12-.08.23-.15.35-.23Z"/><path class="cls-6" d="m93.65,362.66c.15,0,.23.07.24.22-.14,0-.23-.08-.24-.22Z"/><path class="cls-6" d="m109.27,362.07c-.08.09-.16.18-.23.28,0-.16.07-.25.23-.28Z"/><path class="cls-6" d="m93.88,362.87c.15.01.22.09.23.23-.15,0-.23-.08-.23-.23Z"/><path class="cls-6" d="m94.98,364.22c.14,0,.24.06.26.21-.14,0-.24-.07-.26-.21Z"/><path class="cls-6" d="m129,358.92c-.03.07-.05.14-.08.21-.15-.14-.05-.18.08-.21Z"/><path class="cls-12" d="m150.53,368.91c0-.07,0-.14.02-.21.02.05.05.1.07.15,0,0-.06.03-.09.05Z"/><path class="cls-6" d="m109.51,361.88c-.09.08-.18.15-.28.23.02-.16.11-.24.28-.23Z"/><path class="cls-21" d="m130.91,487.54c.47-.76,1.23-.78,2.01-.73-.67.24-1.34.49-2.01.73Z"/><path class="cls-21" d="m145.43,478.82c.16-.75.49-.99.99-1.23,0,.65-.39.85-.99,1.23Z"/><path class="cls-21" d="m134.51,486.17c.33-.41.64-.47,1.11-.46-.3.43-.62.45-1.11.46Z"/><path class="cls-21" d="m138.51,484.3c-.19.5-.45.53-.8.57.1-.48.38-.5.8-.57Z"/><path class="cls-21" d="m148.84,473.73c.02.05.09.14.09.23,0,.16-.12.26-.27.17-.06-.03-.09-.18-.08-.27.01-.1.08-.19.26-.13Z"/><path class="cls-21" d="m143.8,480.14c.06.03.12.05.19.08-.03.06-.04.16-.08.18-.05.02-.12-.04-.18-.07.03-.06.05-.12.08-.19Z"/><path class="cls-22" d="m132.61,435.22c-.87.58-1.74,1.15-2.61,1.73-1.52.88-3.03,1.76-4.55,2.63-2.02.8-3.95,1.83-6.06,2.42-3.62,1.01-7.22,1.36-10.89.22-1.43-.44-2.85-.89-4.23-1.46-2.41-1-4.8-1.15-7.21.03-.83.41-1.71.7-2.57,1.04-1.61.36-3.15,1.03-4.8,1.18-2.55.24-5.17.56-7.43-1-1.96-1.35-2.96-3.29-2.61-5.76.5-1.27.88-2.61,1.76-3.71.11-.14.17-.37.31-.42.49-.18.94-.94,1.52-.31.57.61-.21.88-.48,1.23-.8,1.03-1.24,2.2-1.54,3.45-.12,1,.06,1.93.63,2.79,1.45,2.18,3.68,2.52,5.96,2.26,3.52-.39,6.83-1.63,10.07-3.06,1.1-.25,2.17-.6,3.34-.44,1.52.21,2.93.84,4.41,1.18,3.71,1.72,7.54,2.49,11.6,1.44.14.02.19-.07.21-.19h-.01c2.41-.48,4.68-1.37,6.9-2.39,1.39-.34,2.57-1.14,3.81-1.8,1.87-.93,3.57-2.11,5.25-3.36,1.61-1.2,2.81-2.85,4.46-4-1.05,1.89-2.19,3.66-3.9,4.97-.49.38-.88.88-1.32,1.32Z"/><path class="cls-3" d="m124.31,438.09c-2.22,1.02-4.49,1.91-6.9,2.4-.09-.5.69-.9.34-1.31-.85-.99-1.63-2.07-3-2.53-1.46-.49-2.92-.36-4.39-.39-2.23-.04-3.82.93-4.74,2.97-1.49-.33-2.89-.96-4.41-1.18-1.16-.16-2.24.19-3.34.44.02-.08.04-.15.06-.23,1.25-.77,2.73-.87,4.06-1.37.98.45,1.22-.09,1.22-.93.62-.6,1.19-1.25,1.85-1.8,2.56-2.1,5.53-1.78,8.51-1.39.74.1,1.47.23,2.21.35,3.22,1,6.09,2.62,8.53,4.97Z"/><path class="cls-24" d="m97.93,438.26c-.02.08-.04.15-.06.23-3.23,1.43-6.54,2.67-10.07,3.06-2.27.25-4.51-.09-5.96-2.26-.57-.86-.75-1.79-.63-2.79.65.1.39.62.42.97.06.86.36,1.3,1.36,1.27,3.38-.12,6.77-.2,10.15-.32,1.59-.06,3.2.13,4.79-.15Z"/><path class="cls-20" d="m124.31,438.09c-2.44-2.35-5.31-3.96-8.53-4.97,1.16-2.6,1.17-2.61,3.62-1.42,2.95,1.44,5.87,2.95,8.71,4.59-1.24.66-2.42,1.45-3.81,1.8Z"/><path class="cls-23" d="m103.21,435.96c0,.84-.23,1.38-1.22.93-.42-1.01-1.14-1.68-2.14-2.12-.46-.2-.87-.55-1.26-.88-.27-.22-.41-.54-.2-.89.18-.29.47-.42.82-.41,2.04.04,3.6,1.35,4,3.37Z"/><path class="cls-5" d="m152.53,336.02c.67,0,1.33,0,2,0,2.18,0,3.57,1.02,4.34,3.08.52,1.38.6,2.8.56,4.24-.03.98-.75,1.39-1.49,1.72-.44.2-.89.32-1.24.69-.51.54-1.74.34-1.91-.36-.36-1.54-1.53-1.83-2.81-2.04-1-.17-2-.22-2.9-.87-2.07-1.49-2.34-4.44-.45-6.09.36-.31.86-.39,1.36-.38.85.01,1.7,0,2.55,0Z"/><path class="cls-15" d="m65.19,503.77c.82.02,1.63,0,2.41.29,1.94.73,2.42,2.76,1.01,4.27-.67.71-1.46,1.25-2.4,1.54-3.01.94-6.1,1.39-9.25,1.54-.97.04-1.79-.25-2.14-1.22-.34-.93.02-1.68.72-2.38,2.68-2.67,5.93-3.91,9.65-4.04Z"/><path class="cls-15" d="m87.02,510.9c1.4-.01,2.14,1.11,1.45,2.33-.81,1.44-2.34,1.96-3.74,2.6-.32.15-.65-.04-.87-.34-.29-.38-.14-.77.13-1,.57-.49.75-1.08.83-1.82.12-1.11,1.03-1.77,2.2-1.78Z"/><path class="cls-15" d="m151.63,505.65c-1.78.05-3.54-.14-5.28-.5-.47-.1-.94-.23-1.36-.45-1.85-.95-1.97-2.78-.34-4.07,1.45-1.15,3.08-1.59,4.91-1.74,1.71-.14,3.37-.27,5,.38.94.37,1.8.86,2.48,1.62,1.34,1.5.98,3.31-.83,4.2-1.46.71-3.03.54-4.57.56Z"/><path class="cls-15" d="m127.21,508.07c-.43,1.42-1.18,2.94-2.1,4.37-.22.34-.63.38-1.01.25-.42-.15-.62-.48-.68-.93-.14-1.16,1.5-4.26,2.53-4.75.7-.33,1.26.03,1.25,1.06Z"/><path class="cls-15" d="m135.83,511.91c.02,1.07-1.4,2.36-2.56,2.34-.87-.02-1.42-.66-1.41-1.64,0-1.14,1.11-2.24,2.3-2.27.89-.03,1.66.69,1.67,1.57Z"/><path class="cls-20" d="m125.45,439.58c1.52-.88,3.03-1.76,4.55-2.63-.04.51.43.53.71.7,1.46.88,2.9,1.77,4.21,2.86.29.24.61.43.49.88-1.94-.74-3.95-1.13-6-1.34-1.12-.11-2.2.16-3.28.39-.11-.38-.37-.65-.69-.86Z"/><path class="cls-15" d="m98.64,446.06c-.66-.06-1.16-.48-1.23-1.3-.07-.76.83-1.66,1.64-1.64.81.02,1.2.52,1.23,1.29.03.84-.71,1.63-1.63,1.65Z"/><path class="cls-2" d="m64.07,407.14c-.51-1.37-.95-2.76-1.1-4.23.6.1.72.65.81,1.07.18.86.36,1.72.65,2.54.13.35.04.57-.36.61Z"/><path class="cls-15" d="m115.24,320.55c.24.9-.43,1.53-.63,2.3-.7,2.67-1.35,5.35-2.04,8.02-.19.75-.18,1.74-1.37,1.64-.78-.06-1.16-1.03-.9-2.18.58-2.59,1.28-5.14,2.05-7.68.27-.88.54-1.77,1-2.57.31-.53.64-1.18,1.43-.96.77.22.38.92.46,1.41Z"/><path class="cls-15" d="m125.85,314.73c.36-1.31.88-2.71,1.83-3.92.2-.25.52-.52.85-.25.35.29.87.57.7,1.14-.42,1.37-.95,2.7-1.95,3.78-.27.29-.58.47-.98.31-.4-.16-.52-.49-.44-1.06Z"/><path class="cls-15" d="m110.78,333.1c.34.06.76.09.84.54.06.33-.23.43-.51.44-.4.01-.76-.11-.85-.54-.07-.33.21-.42.51-.44Z"/><path class="cls-6" d="m72.08,366.01c.75.02,1.39.26,1.54,1.07.19,1.05-.38,1.7-1.31,2.08,0-.07-.03-.17,0-.21.94-1.06.73-2.03-.24-2.93Z"/><path class="cls-6" d="m69.91,370.59c-.56.36-1.12.73-1.68,1.09.18-.95.9-1.06,1.68-1.09Z"/><path class="cls-6" d="m70.3,365.61c.38.04.81-.26,1.13.18-.39,0-.79.15-1.13-.18Z"/><path class="cls-6" d="m71.41,365.78c.23.07.55-.15.68.22-.26.03-.53.09-.68-.22Z"/><path class="cls-6" d="m68.97,365.12c.24.06.56-.13.69.24-.26,0-.55.09-.69-.24Z"/><path class="cls-6" d="m70.32,370.25c-.05.19-.18.3-.38.32-.03-.3.18-.3.38-.32Z"/><path class="cls-6" d="m72.31,369.15c-.02.18-.12.29-.3.32-.14-.33.09-.32.3-.32Z"/><path class="cls-6" d="m71.89,369.47c-.05.17-.17.12-.28.09.07-.11.15-.17.28-.09Z"/><path class="cls-23" d="m32.97,427.58c.01-.16.02-.32.04-.48.17.17.29.34-.04.48Z"/><path class="cls-5" d="m119.41,394.47c-2.53,0-3.66-1.9-2.56-4.22.86-1.82,1.82-3.6,3.15-5.08,1.53-1.71,3.36-3.12,5.79-3.36,1.07-.11,2.13.13,3.09.53.78.33.97,1.2.98,2.04.07,3.91-2.06,6.51-5.15,8.46-1.59,1-3.33,1.75-5.3,1.64Z"/><path class="cls-5" d="m125.02,399.21c1.61-.39,2.44,1.02,1.77,2.25-.54.99-1.28,1.73-2.59,1.71-.97-.01-1.27-.54-1.2-1.29.09-.95.51-1.8,1.16-2.53.34-.39.77-.11.87-.13Z"/><path class="cls-5" d="m91.18,393.21c.2,2.79-2.86,6.82-5.89,7.68-1.67.47-2.55-1.56-2.32-2.87.52-3,2.4-4.95,4.96-6.38.76-.42,1.59-.37,2.35-.22.98.19.98,1.05.9,1.79Z"/><path class="cls-5" d="m89.84,404.14c.03-1.47.89-2.56,1.93-2.56.56,0,.94.26.97.81.06,1.16-1.24,2.72-2.21,2.73-.83.01-.66-.6-.69-.98Z"/><path class="cls-15" d="m105.62,439.23c.92-2.05,2.51-3.02,4.74-2.97,1.47.03,2.94-.1,4.39.39,1.37.46,2.14,1.54,3,2.53.36.41-.43.81-.34,1.31h.01c-.07.05-.14.12-.21.18-4.06,1.05-7.88.28-11.6-1.44Z"/><path class="cls-3" d="m117.22,440.67c.07-.06.14-.13.21-.19-.02.12-.06.21-.21.19Z"/></g><path class="cls-18" d="m106.89,532.9l-81.71.16-.3-3.25c-8.49-91.67-13.8-176.01-16.23-257.85v-.37s.72-2.38.72-2.38c6.51-16.38,20.04-41.72,36.96-59.79,8.27-8.88,17.66-16.65,27.9-23.07,9.94-6.25,20.98-11.42,32.8-15.35l1.59-.53,1.63.53c10.66,3.49,21.6,8.79,32.53,15.75,10.06,6.49,19.34,14.3,27.6,23.21,15.7,16.89,29.61,41.56,37.39,59.01l.82,2.59v.36c-1.92,86.14-7.37,172.92-16.2,257.92l-.34,3.24-85.15-.19Zm79.44-15.55c1.35-14.1,2.61-28.33,3.76-42.34l-41.47.63c-1.03,13.62-2.11,27.24-3.23,40.85l40.93.85Zm-47.91-1c1.04-13.53,2.04-27.06,2.99-40.6l-65.52,1c.9,12.79,1.84,25.57,2.82,38.35l59.7,1.25Zm-66.71-1.39c-1.04-12.69-2.05-25.39-3.01-38.1l-40.95.62c.94,12.21,1.93,24.41,2.96,36.61l40.99.86Zm-48.68-105.85c1.23,20.04,2.63,40.54,4.16,61l40.95-.62c-1.48-19.84-2.86-39.77-4.11-59.32l-41.01-1.06Zm48.57,1.25c1.16,19.67,2.42,39.5,3.77,59.01l66.56-1.01c1.26-18.3,2.47-37.15,3.59-56.09l-73.92-1.91Zm81.44,2.1c-1.2,18.68-2.5,37.43-3.86,55.78l41.52-.63c1.39-17.45,2.67-35.63,3.82-54.08l-41.47-1.07Zm41.93-6.31c1.22-20.3,2.25-40.82,3.08-61.06l-40.94-2.5c-1.06,20.49-2.26,41.49-3.59,62.49l41.46,1.07Zm-49.02-1.26c1.23-21.3,2.33-42.4,3.27-62.78l-81.44-4.98c.96,21.23,2.09,43.35,3.38,65.83l74.78,1.93Zm-82.38-2.12c-1.41-22.52-2.67-44.74-3.75-66.12l-40.67-2.49c.94,22.34,2.09,45.05,3.43,67.55l40.99,1.06Zm134.79-65.05c.79-20.59,1.39-41.33,1.78-61.69l-40.03.11c-.76,19.69-1.64,39.55-2.62,59.08l40.86,2.5Zm-48.79-2.98c.87-19.44,1.63-39.13,2.28-58.58l-43.22.12-43.23-.1c.58,17.35,1.27,35.34,2.07,53.54l82.11,5.02Zm-90.11-5.51c-.89-18.12-1.67-35.95-2.33-53.08l-39.97-.1c.43,16.33.99,32.96,1.7,50.69l40.6,2.48Zm138.78-61.57c-6.37-13.48-13.5-25.55-21.23-35.96l-30.43,1.66c4.53,10.72,8.65,21.95,12.54,34.2l39.13.11Zm-164.22-28.16c-5.5,8.48-10.59,17.92-15.16,28.14l39.28-.09c3.33-10.49,6.95-20.54,10.77-29.95l-34.89,1.9Zm116.34,28.03c-3.98-12.04-8.2-23.1-12.85-33.68l-59.23,3.23c-4.01,9.39-7.75,19.39-11.39,30.43l41.73-.1,41.74.11Zm-83.5-64.28c-5.08,3.93-9.78,8.11-14,12.42-4.76,4.86-9.33,10.28-13.61,16.14l32.83-1.79c1.62-3.74,3.14-7.08,4.61-10.16,2.59-5.42,5.36-10.79,8.28-16l-18.1-.61Zm27.98.94c-3.85,6.52-7.35,13.04-10.42,19.39-.95,1.96-1.86,3.94-2.75,5.92l52.58-2.87c-.46-1.02-.93-2.04-1.41-3.05-2.89-5.96-6.13-12.01-9.89-18.44l-28.11-.95Zm38.35,1.29c2.57,4.68,5.04,9.5,7.37,14.38.92,1.92,1.78,3.87,2.64,5.81l.2.46,28.07-1.53c-2.52-3.05-5.02-5.86-7.57-8.5-3.21-3.34-6.81-6.68-10.69-9.95l-20.02-.67Zm9.9-7.06c-1.86-1.3-3.66-2.49-5.42-3.59-4.84-3.06-10.14-5.83-16.05-8.42,2.49,3.73,4.92,7.58,7.25,11.53l14.22.48Zm-24.66-.83c-3.05-4.81-6.33-9.58-9.8-14.26-3.36,4.52-6.52,9.08-9.41,13.61l19.22.65Zm-29.26-.99c2.14-3.55,4.35-7.04,6.61-10.42-5.79,2.49-11.31,5.32-16.46,8.44-.83.5-1.66,1.02-2.52,1.57l12.36.42Z"/><path class="cls-10" d="m54.2,520.45c-.05-1.46-.06-2.93-.1-4.39l-24.73-.52-.11-1.33c-1.03-12.2-2.02-24.41-2.96-36.62l-.12-1.57,28.46-.43c.08-1.48.15-2.96.24-4.44l-29.05.44-.11-1.39c-1.54-20.48-2.94-41.01-4.16-61.02l-.1-1.61,40.3,1.04c.23-1.47.46-2.95.7-4.42l-41.27-1.06-.08-1.35c-1.33-22.4-2.48-45.14-3.43-67.58l-.07-1.64,43.62,2.67.07,1.32c.93,18.32,1.98,37.12,3.13,56.02,1.14-6.47,2.34-12.93,3.64-19.38-.64-12.21-1.23-24.26-1.76-36.01l-.08-1.64,10.11.62c.07-.27.13-.54.2-.82.29-1.19.6-2.37.9-3.56l-11.39-.7-.06-1.33c-.8-18.22-1.49-36.24-2.07-53.56l-.05-1.53,30.34.07c.7-1.95,1.43-3.89,2.15-5.84l-31.52.08.64-1.94c3.66-11.1,7.4-21.1,11.43-30.55l.36-.85,34.43-1.88c.75-1.5,1.52-3.02,2.3-4.56l-34.69,1.89,1-2.21c.9-2,1.81-3.99,2.77-5.96,3.1-6.39,6.62-12.95,10.48-19.49l.44-.76,29.8,1,.41.7c.54.92,1.04,1.82,1.56,2.72,1.47-2.56,2.97-5.12,4.53-7.64l-2.31-.08-.41-.7c-2.31-3.9-4.74-7.76-7.21-11.46l-2.8-4.2,4.62,2.02c4.77,2.08,9.09,4.28,13.14,6.64,1.25-1.84,2.52-3.66,3.83-5.44-9.89-6.04-19.77-10.71-29.39-13.86l-1.17-.38-1.12.37c-11.71,3.89-22.64,9.01-32.49,15.2-10.13,6.36-19.42,14.04-27.6,22.83-16.79,17.93-30.24,43.17-36.62,59.21l-.66,2.15v.12c2.44,81.82,7.74,166.14,16.23,257.76l.18,1.91,28.55-.06c-.28-3.79-.76-7.58-.88-11.07Zm54.42-339.59l1.19,1.59c3.48,4.69,6.8,9.51,9.87,14.35l1.5,2.36-24.61-.83,1.4-2.19c2.91-4.55,6.09-9.16,9.47-13.7l1.19-1.59Zm-32.61,14.09c.87-.55,1.71-1.08,2.55-1.59,5.19-3.14,10.79-6.01,16.64-8.53l4.59-1.98-2.78,4.16c-2.26,3.38-4.47,6.86-6.57,10.35l-.45.75-17.98-.6,4-2.56Zm-37.95,35.99c4.32-5.92,8.95-11.41,13.75-16.31,4.27-4.37,9.03-8.59,14.15-12.56l.42-.33,21.06.71-1.18,2.12c-2.89,5.16-5.66,10.52-8.23,15.92-1.46,3.05-2.95,6.36-4.58,10.11l-.36.84-36.85,2.01,1.84-2.52Zm-20.55,36.08c4.6-10.27,9.74-19.81,15.27-28.34l.41-.63,37.96-2.07-.88,2.16c-3.8,9.35-7.41,19.39-10.73,29.84l-.33,1.03-42.64.1.93-2.09Zm-.13,59.77c-.72-17.93-1.28-34.52-1.7-50.71l-.04-1.52,42.91.1.05,1.42c.66,17.23,1.45,35.08,2.33,53.06l.08,1.65-43.58-2.66-.05-1.33Z"/><path class="cls-16" d="m147,412.36c-.21,3.52-.42,7.04-.64,10.56,1.32-3.53,2.62-7.07,3.87-10.61.68-1.94,1.4-3.86,2.13-5.77h-.4s.1-1.54.1-1.54c1.32-20.97,2.53-41.99,3.59-62.48l.08-1.49,30.73,1.88c1-1.43,2.03-2.85,3.09-4.25l-33.58-2.05.08-1.46c.97-19.33,1.85-39.2,2.61-59.07l.05-1.42,42.95-.12-.03,1.51c-.32,16.7-.81,33.62-1.4,50.47,1.7-1.58,3.46-3.06,5.32-4.41.64-16.75,1.18-33.49,1.55-50.21v-.11s-.68-2.2-.68-2.2c-7.08-15.88-19.27-37.75-33.23-54.2-1.07,1.77-2.11,3.56-3.11,5.32.84.97,1.68,1.92,2.53,2.95l1.86,2.26-7.56.41c-.92,1.62-1.81,3.16-2.68,4.58l13.5-.74.47.64c7.78,10.47,14.97,22.65,21.38,36.21l1,2.11-42.55-.11-.33-1.03c-1.78-5.62-3.62-10.98-5.51-16.2-1.17,2.2-2.27,4.43-3.38,6.65,1,2.82,1.98,5.69,2.95,8.62l.64,1.95-8.63-.02c-.59,1.3-1.22,2.58-1.79,3.89-.26.6-.49,1.22-.75,1.83l12.14-.03-.05,1.53c-.65,19.56-1.42,39.28-2.28,58.6l-.07,1.5-28.79-1.76c-.36,1.46-.73,2.91-1.08,4.37l29.66,1.81-.07,1.45c-.93,20.32-2.03,41.44-3.27,62.8l-.08,1.43-40.4-1.04c-.25,1.47-.51,2.94-.76,4.42l40.9,1.05-.09,1.52Z"/><path class="cls-16" d="m129.13,472.56c.23-.85.49-1.69.72-2.54l-30.65.47c-.09,1.48-.2,2.96-.27,4.44l29.73-.45c.16-.63.3-1.27.47-1.91Z"/><path class="cls-10" d="m195.76,417.36c-1.09,17.15-2.29,34.09-3.58,50.38l-.11,1.34-15.32.23c-.52,1.48-1.03,2.97-1.53,4.45l16.48-.25-.13,1.62c-1.15,14.01-2.42,28.26-3.76,42.36l-.13,1.37-22.67-.47c-.7,4.38-1.36,8.78-2,13.17l27.71.06.2-1.91c4.31-41.53,7.8-83.49,10.48-125.6-2.01,4.37-3.88,8.78-5.64,13.25Z"/><path class="cls-16" d="m120.6,517.45l-22.15-.46c.26,4.76.68,9.6.93,14.45l7.51-.02,11.72.03c.66-4.66,1.32-9.33,1.99-14Z"/></g><path class="cls-17" d="m122.42,130.74c-.18-4.7-2.23-8.87-5.2-11.17-2.97-2.25-6.57-3.2-10.18-2.75-3.59.44-6.71,2.57-8.68,5.87-2.05,3.3-2.63,7.97-2.17,12.62.51,4.65,2,9.46,4.6,13.37,2.54,3.92,6.41,6.81,9.76,5.66,1.77-.5,3.66-1.79,5.19-3.53,1.52-1.74,2.86-3.8,3.85-6.01,2.02-4.43,2.97-9.39,2.84-14.07Zm7.78,0c-.29,6.07-1.92,11.83-4.74,17-1.41,2.58-3.01,5.1-5.12,7.32-2.09,2.2-4.61,4.33-8.01,5.37-3.39,1.1-7.49.49-10.32-1.22-2.92-1.65-5.17-3.88-7.08-6.24-3.7-4.81-6.24-10.27-7.55-16.2-1.22-5.88-1.37-12.52,1.53-18.89,2.84-6.31,9.24-11.43,16.38-12.42,3.52-.58,7.2-.35,10.59.88,3.39,1.2,6.46,3.32,8.74,6.01,4.63,5.5,5.76,12.41,5.58,18.39Z"/><g><path class="cls-9" d="m103.11,110.51c.43,5.74,2.43,11.51,4.84,11.51s4.42-5.77,4.84-11.51h-9.69Z"/><g><path class="cls-9" d="m112.73,77.51c-.05.69-.12,1.37-.22,2.05,1.23.73,2.27,1.73,2.97,2.82,2.03,3.17,2.23,6.45,2.19,9.41-.14,2.98-.71,5.85-1.71,8.61-.52,1.37-1.09,2.74-1.87,4.05-.41.66-.83,1.32-1.35,1.97.05.6.09,1.22.09,1.9,0,.73-.03,1.46-.09,2.2h-9.69c-.05-.74-.09-1.48-.09-2.2,0-.65.04-1.25.08-1.83-.55-.67-1-1.38-1.4-2.08-1.43-2.68-2.34-5.43-2.89-8.3-.51-2.86-.77-5.81-.21-8.97.28-1.58.86-3.2,1.88-4.74.68-1.05,1.68-2,2.85-2.72-.1-.71-.18-1.43-.24-2.16h9.69Zm-.42,14.28c-.09-2.22-.61-4.36-1.53-5.72-.81,1.79-1.81,2.95-2.88,2.95-1.1,0-2.12-1.22-2.94-3.08-.44.64-.83,1.43-1.08,2.39-.6,2.1-.68,4.63-.44,7.08.21,1.88.58,3.79,1.22,5.53.87-1.28,1.99-1.93,3.24-1.93s2.35.64,3.22,1.89c.2-.59.38-1.2.53-1.82.53-2.4.78-4.9.68-7.3Z"/><path class="cls-7" d="m102.35,103.28c-1.97-3.06-3.05-6.67-3.34-10.33-.12-1.83-.06-3.69.32-5.5.36-1.8,1.09-3.59,2.26-4.99-.61,1.72-.84,3.44-.98,5.17-.1,1.73-.09,3.47.05,5.2.23,3.48.94,6.89,1.69,10.45Z"/><path class="cls-7" d="m104.13,107.68s-.55-1.01.32-3.45c.88-2.44,2.49-3.29,2.49-3.29,0,0,.18,3.01-.28,4.3-.46,1.29-2.54,2.44-2.54,2.44Z"/><path class="cls-7" d="m113.18,94.01c-.36-3.22-.85-6.17-1.57-8.61l.72-2.07c.93,3.01,1.12,6.65.85,10.69Z"/></g><g><path class="cls-9" d="m112.73,44.51c-.05.69-.12,1.37-.22,2.05,1.23.73,2.27,1.73,2.97,2.82,2.03,3.17,2.23,6.45,2.19,9.41-.14,2.98-.71,5.85-1.71,8.61-.52,1.37-1.09,2.74-1.87,4.05-.41.66-.83,1.32-1.35,1.97.05.6.09,1.22.09,1.9,0,.73-.03,1.46-.09,2.2h-9.69c-.05-.74-.09-1.48-.09-2.2,0-.65.04-1.25.08-1.83-.55-.67-1-1.38-1.4-2.08-1.43-2.68-2.34-5.44-2.89-8.3-.51-2.86-.77-5.81-.21-8.97.28-1.57.86-3.2,1.88-4.74.68-1.05,1.68-2,2.85-2.72-.1-.71-.18-1.43-.24-2.16h9.69Zm-.42,14.28c-.09-2.22-.61-4.36-1.53-5.72-.81,1.79-1.81,2.95-2.88,2.95-1.1,0-2.12-1.22-2.94-3.08-.44.64-.83,1.43-1.08,2.39-.6,2.1-.68,4.63-.44,7.08.21,1.88.58,3.79,1.22,5.53.87-1.28,1.99-1.93,3.24-1.93s2.35.64,3.22,1.89c.2-.59.38-1.2.53-1.82.53-2.4.78-4.9.68-7.3Z"/><path class="cls-7" d="m102.35,70.28c-1.97-3.06-3.05-6.67-3.34-10.33-.12-1.83-.06-3.69.32-5.5.36-1.8,1.09-3.59,2.26-4.99-.61,1.72-.84,3.44-.98,5.17-.1,1.73-.09,3.47.05,5.2.23,3.48.94,6.9,1.69,10.45Z"/><path class="cls-7" d="m104.13,74.68s-.55-1.01.32-3.45c.88-2.44,2.49-3.29,2.49-3.29,0,0,.18,3.01-.28,4.3-.46,1.29-2.54,2.44-2.54,2.44Z"/><path class="cls-7" d="m113.18,61.01c-.36-3.22-.85-6.17-1.57-8.61l.72-2.07c.93,3.01,1.12,6.65.85,10.69Z"/></g><g><path class="cls-9" d="m112.73,11.51c-.05.69-.12,1.37-.22,2.05,1.23.73,2.27,1.73,2.97,2.82,2.03,3.17,2.23,6.45,2.19,9.41-.14,2.98-.71,5.85-1.71,8.61-.52,1.37-1.09,2.74-1.87,4.05-.41.66-.83,1.32-1.35,1.97.05.6.09,1.22.09,1.9,0,.73-.03,1.46-.09,2.2h-9.69c-.05-.74-.09-1.48-.09-2.2,0-.65.04-1.25.08-1.83-.55-.67-1-1.38-1.4-2.08-1.43-2.68-2.34-5.43-2.89-8.3-.51-2.86-.77-5.81-.21-8.97.28-1.58.86-3.2,1.88-4.74.68-1.05,1.68-2,2.85-2.72-.1-.71-.18-1.43-.24-2.16h9.69Zm-.42,14.28c-.09-2.22-.61-4.36-1.53-5.72-.81,1.79-1.81,2.95-2.88,2.95-1.1,0-2.12-1.22-2.94-3.08-.44.64-.83,1.43-1.08,2.39-.6,2.1-.68,4.63-.44,7.08.21,1.88.58,3.79,1.22,5.53.87-1.28,1.99-1.93,3.24-1.93,1.24,0,2.35.64,3.22,1.89.2-.59.38-1.2.53-1.82.53-2.4.78-4.9.68-7.3Z"/><path class="cls-7" d="m102.35,37.28c-1.97-3.06-3.05-6.67-3.34-10.33-.12-1.83-.06-3.69.32-5.5.36-1.8,1.09-3.59,2.26-4.99-.61,1.72-.84,3.44-.98,5.17-.1,1.73-.09,3.47.05,5.2.23,3.48.94,6.89,1.69,10.45Z"/><path class="cls-7" d="m104.13,41.68s-.55-1.01.32-3.45c.88-2.44,2.49-3.29,2.49-3.29,0,0,.18,3.01-.28,4.3-.46,1.29-2.54,2.44-2.54,2.44Z"/><path class="cls-7" d="m113.18,28.01c-.36-3.22-.85-6.17-1.57-8.61l.72-2.07c.93,3.01,1.12,6.65.85,10.69Z"/></g><g><path class="cls-9" d="m103.02,9.3c0,.73.03,1.47.09,2.21h9.69c.06-.74.09-1.48.09-2.21,0-6.36-2.21-9.3-4.93-9.3-2.72,0-4.93,2.94-4.93,9.3Z"/><path class="cls-7" d="m104.31,7.95s-.55-1.01.32-3.45c.88-2.44,2.49-3.29,2.49-3.29,0,0,.18,3.01-.28,4.3-.46,1.29-2.54,2.44-2.54,2.44Z"/></g></g></g></g></g></g></svg>