<?xml version="1.0" encoding="UTF-8"?><svg xmlns="http://www.w3.org/2000/svg" xmlns:xlink="http://www.w3.org/1999/xlink" viewBox="0 0 466.35 759.54"><defs><style>.cls-1{fill:url(#Dégradé_sans_nom_271);}.cls-1,.cls-2,.cls-3,.cls-4,.cls-5,.cls-6,.cls-7,.cls-8{opacity:.69;}.cls-9{fill:#cb5254;}.cls-10{fill:#fff;}.cls-11{fill:url(#_95);}.cls-11,.cls-12,.cls-13{mix-blend-mode:multiply;}.cls-11,.cls-13{opacity:.8;}.cls-2{fill:url(#Dégradé_sans_nom_269);}.cls-14{fill:url(#_62-6);}.cls-15{fill:url(#_65-2);}.cls-16{fill:url(#_139-2);}.cls-12{fill:url(#_60);opacity:.5;}.cls-17{fill:url(#_54-2);}.cls-3{fill:url(#Dégradé_sans_nom_272);}.cls-18{isolation:isolate;}.cls-19{fill:url(#_139);}.cls-4{fill:url(#Dégradé_sans_nom_272-2);}.cls-13{fill:url(#_95-2);}.cls-20{opacity:.64;}.cls-21{fill:#ffa490;}.cls-22{fill:url(#_139-4);}.cls-23{fill:url(#_62-5);}.cls-24{fill:#392f51;}.cls-25{fill:url(#_62-2);}.cls-26{fill:url(#_65);}.cls-27{fill:url(#_62-4);}.cls-5{fill:url(#Dégradé_sans_nom_264);}.cls-6{fill:url(#Dégradé_sans_nom_262);}.cls-28{fill:url(#_54);}.cls-29{fill:url(#_62-3);}.cls-30{fill:#203b72;}.cls-31{fill:url(#_139-3);}.cls-32{fill:#c78186;}.cls-33{clip-path:url(#clippath);}.cls-34{fill:url(#_71-2);}.cls-35{fill:#a94d4f;}.cls-36{fill:url(#_676);mix-blend-mode:color;}.cls-7{fill:url(#Dégradé_sans_nom_261);}.cls-37{fill:url(#_62);}.cls-38{fill:url(#Dégradé_sans_nom_273);opacity:.47;}.cls-39{fill:#6e5454;}.cls-40{fill:url(#_62-7);}.cls-41{fill:url(#_71);}.cls-8{fill:url(#Dégradé_sans_nom_270);}</style><radialGradient id="Dégradé_sans_nom_273" cx="23886.47" cy="1460.25" fx="23886.47" fy="1460.25" r="307.75" gradientTransform="translate(-15006.86 -775.61) scale(.64 .87)" gradientUnits="userSpaceOnUse"><stop offset="0" stop-color="#5accc9"/><stop offset=".32" stop-color="#398280" stop-opacity=".64"/><stop offset=".64" stop-color="#1a3c3b" stop-opacity=".3"/><stop offset=".88" stop-color="#071010" stop-opacity=".08"/><stop offset="1" stop-color="#000" stop-opacity="0"/></radialGradient><radialGradient id="Dégradé_sans_nom_261" cx="15369.52" cy="219.78" fx="15369.52" fy="219.78" r="200.29" gradientTransform="translate(-10447.41 -10803.52) rotate(45)" gradientUnits="userSpaceOnUse"><stop offset=".3" stop-color="#27a0d7"/><stop offset=".33" stop-color="#2392c4" stop-opacity=".91"/><stop offset=".42" stop-color="#1a6b90" stop-opacity=".67"/><stop offset=".52" stop-color="#124a64" stop-opacity=".47"/><stop offset=".62" stop-color="#0b2f40" stop-opacity=".3"/><stop offset=".71" stop-color="#061a24" stop-opacity=".17"/><stop offset=".81" stop-color="#020b0f" stop-opacity=".07"/><stop offset=".9" stop-color="#000203" stop-opacity=".02"/><stop offset="1" stop-color="#000" stop-opacity="0"/></radialGradient><linearGradient id="_65" x1="-27590.22" y1="-2155.73" x2="-27576.26" y2="-2129.87" gradientTransform="translate(-27363.33 -452.16) rotate(-173.44) scale(1 -1)" gradientUnits="userSpaceOnUse"><stop offset="0" stop-color="#d68498"/><stop offset="1" stop-color="#ff817f"/></linearGradient><linearGradient id="_62" x1="-27237.9" y1="-3087.73" x2="-27254.97" y2="-3119.29" gradientTransform="translate(-27112.34 -599.77) rotate(-171.04) scale(1 -1)" gradientUnits="userSpaceOnUse"><stop offset="0" stop-color="#ff937f"/><stop offset="1" stop-color="#e8868d"/></linearGradient><linearGradient id="_54" x1="-28308.97" y1="572.42" x2="-28313.6" y2="516.9" gradientTransform="translate(-28016.77) rotate(-180) scale(1 -1)" gradientUnits="userSpaceOnUse"><stop offset="0" stop-color="#ffa98e"/><stop offset="1" stop-color="#ffc5a4"/></linearGradient><linearGradient id="_62-2" x1="-28312.12" y1="535.14" x2="-28314.43" y2="507.49" gradientTransform="translate(-28016.77) rotate(-180) scale(1 -1)" xlink:href="#_62"/><linearGradient id="_62-3" x1="19717.45" y1="547.59" x2="19715.03" y2="518.49" gradientTransform="translate(-19428.7)" xlink:href="#_62"/><linearGradient id="_139" x1="15116.75" y1="595.56" x2="15289.72" y2="595.56" gradientTransform="translate(-15040.8)" gradientUnits="userSpaceOnUse"><stop offset="0" stop-color="#b3a4ff"/><stop offset="1" stop-color="#9da9ff"/></linearGradient><linearGradient id="_95" x1="15213.86" y1="605.45" x2="15289.72" y2="605.45" gradientTransform="translate(-15040.8)" gradientUnits="userSpaceOnUse"><stop offset="0" stop-color="#ded8e5"/><stop offset="1" stop-color="#9d68c2"/></linearGradient><linearGradient id="_139-2" x1="15271.41" y1="433.89" x2="15358.6" y2="433.89" xlink:href="#_139"/><linearGradient id="_139-3" x1="15223.78" y1="563.84" x2="15223.78" y2="207.84" xlink:href="#_139"/><linearGradient id="_95-2" x1="15141.13" y1="410.61" x2="15294.52" y2="410.61" xlink:href="#_95"/><linearGradient id="_54-2" x1="15260.17" y1="206.38" x2="15353.8" y2="206.38" gradientTransform="translate(-15040.8)" xlink:href="#_54"/><linearGradient id="_62-4" x1="15287.97" y1="186.59" x2="15315.28" y2="186.59" gradientTransform="translate(-15040.8)" xlink:href="#_62"/><linearGradient id="_71" x1="15308.5" y1="370.05" x2="15308.5" y2="228.77" gradientTransform="translate(-15040.8)" gradientUnits="userSpaceOnUse"><stop offset=".01" stop-color="#a8605a"/><stop offset="1" stop-color="#b5757a"/></linearGradient><linearGradient id="_71-2" x1="15257.02" y1="247.33" x2="15257.02" y2="132.8" xlink:href="#_71"/><linearGradient id="_65-2" x1="15337.91" y1="244.06" x2="15328.38" y2="228.09" gradientTransform="translate(-15040.8)" xlink:href="#_65"/><linearGradient id="_139-4" x1="15178.42" y1="410.04" x2="15267.48" y2="410.04" xlink:href="#_139"/><linearGradient id="_62-5" x1="15265.45" y1="207.58" x2="15278.56" y2="207.58" gradientTransform="translate(-15040.8)" xlink:href="#_62"/><linearGradient id="_62-6" x1="15270.62" y1="217.65" x2="15288.18" y2="217.65" gradientTransform="translate(-15040.8)" xlink:href="#_62"/><clipPath id="clippath"><path id="SVGID-2" class="cls-10" d="m288.34,193.2c-2.1-2.8-1.67-14.35.99-15.02,2.65-.67,5.08,16.48,2.96,19.46l-3.95-4.44Z"/></clipPath><linearGradient id="_62-7" x1="15309.95" y1="267.97" x2="15328.23" y2="267.97" gradientTransform="translate(-15040.8)" xlink:href="#_62"/><linearGradient id="_60" x1="15241.87" y1="380.16" x2="15326.05" y2="380.16" gradientTransform="translate(-15040.8)" gradientUnits="userSpaceOnUse"><stop offset="0" stop-color="#cc9b9d"/><stop offset="1" stop-color="#ffcfc5"/></linearGradient><linearGradient id="_676" x1="-28197.41" y1="674.42" x2="-28270.34" y2="264.75" gradientTransform="translate(-28016.77) rotate(-180) scale(1 -1)" gradientUnits="userSpaceOnUse"><stop offset="0" stop-color="#2e1c45"/><stop offset="1" stop-color="#95a8cf"/></linearGradient><radialGradient id="Dégradé_sans_nom_264" cx="-25687.87" cy="89.43" fx="-25687.87" fy="89.43" r="9.22" gradientTransform="translate(-25484.34) rotate(-180) scale(1 -1)" gradientUnits="userSpaceOnUse"><stop offset=".3" stop-color="#27a0d7"/><stop offset=".34" stop-color="#218aba" stop-opacity=".87"/><stop offset=".43" stop-color="#186689" stop-opacity=".64"/><stop offset=".52" stop-color="#11465f" stop-opacity=".44"/><stop offset=".61" stop-color="#0b2d3c" stop-opacity=".28"/><stop offset=".71" stop-color="#061922" stop-opacity=".16"/><stop offset=".8" stop-color="#020b0f" stop-opacity=".07"/><stop offset=".9" stop-color="#000203" stop-opacity=".02"/><stop offset="1" stop-color="#000" stop-opacity="0"/></radialGradient><radialGradient id="Dégradé_sans_nom_271" cx="-25756.56" cy="92.36" fx="-25756.56" fy="92.36" r="9.22" gradientTransform="translate(-25484.34) rotate(-180) scale(1 -1)" gradientUnits="userSpaceOnUse"><stop offset=".3" stop-color="#27a0d7"/><stop offset=".34" stop-color="#218aba" stop-opacity=".87"/><stop offset=".43" stop-color="#186689" stop-opacity=".64"/><stop offset=".52" stop-color="#11465f" stop-opacity=".44"/><stop offset=".61" stop-color="#0b2d3c" stop-opacity=".28"/><stop offset=".71" stop-color="#061922" stop-opacity=".16"/><stop offset=".8" stop-color="#020b0f" stop-opacity=".07"/><stop offset=".9" stop-color="#000203" stop-opacity=".02"/><stop offset="1" stop-color="#000" stop-opacity="0"/></radialGradient><radialGradient id="Dégradé_sans_nom_262" cx="-25774.72" cy="9.22" fx="-25774.72" fy="9.22" r="9.22" gradientTransform="translate(-25484.34) rotate(-180) scale(1 -1)" gradientUnits="userSpaceOnUse"><stop offset=".3" stop-color="#27a0d7"/><stop offset=".34" stop-color="#218aba" stop-opacity=".87"/><stop offset=".43" stop-color="#186689" stop-opacity=".64"/><stop offset=".52" stop-color="#11465f" stop-opacity=".44"/><stop offset=".61" stop-color="#0b2d3c" stop-opacity=".28"/><stop offset=".71" stop-color="#061922" stop-opacity=".16"/><stop offset=".8" stop-color="#020b0f" stop-opacity=".07"/><stop offset=".9" stop-color="#000203" stop-opacity=".02"/><stop offset="1" stop-color="#000" stop-opacity="0"/></radialGradient><radialGradient id="Dégradé_sans_nom_270" cx="-25793.24" cy="95.98" fx="-25793.24" fy="95.98" r="9.22" gradientTransform="translate(-25484.34) rotate(-180) scale(1 -1)" gradientUnits="userSpaceOnUse"><stop offset=".3" stop-color="#27a0d7"/><stop offset=".35" stop-color="#269cd2" stop-opacity=".98"/><stop offset=".41" stop-color="#2392c4" stop-opacity=".91"/><stop offset=".47" stop-color="#1f81ad" stop-opacity=".81"/><stop offset=".54" stop-color="#19698d" stop-opacity=".66"/><stop offset=".61" stop-color="#124a64" stop-opacity=".47"/><stop offset=".67" stop-color="#092633" stop-opacity=".24"/><stop offset=".73" stop-color="#000" stop-opacity="0"/></radialGradient><radialGradient id="Dégradé_sans_nom_272" cx="-25721.69" cy="107.76" fx="-25721.69" fy="107.76" r="3.75" gradientTransform="translate(-25484.34) rotate(-180) scale(1 -1)" gradientUnits="userSpaceOnUse"><stop offset=".3" stop-color="#27a0d7"/><stop offset=".35" stop-color="#269cd2" stop-opacity=".98"/><stop offset=".41" stop-color="#2392c4" stop-opacity=".91"/><stop offset=".47" stop-color="#1f81ad" stop-opacity=".81"/><stop offset=".54" stop-color="#19698d" stop-opacity=".66"/><stop offset=".61" stop-color="#124a64" stop-opacity=".47"/><stop offset=".67" stop-color="#092633" stop-opacity=".24"/><stop offset=".73" stop-color="#000" stop-opacity="0"/></radialGradient><radialGradient id="Dégradé_sans_nom_269" cx="-25710.63" cy="45.77" fx="-25710.63" fy="45.77" r="4.61" gradientTransform="translate(-25484.34) rotate(-180) scale(1 -1)" gradientUnits="userSpaceOnUse"><stop offset=".11" stop-color="#27a0d7"/><stop offset=".68" stop-color="#0d3648" stop-opacity=".34"/><stop offset=".99" stop-color="#000" stop-opacity="0"/></radialGradient><radialGradient id="Dégradé_sans_nom_272-2" cx="-25773.85" cy="140.86" fx="-25773.85" fy="140.86" r="4.61" xlink:href="#Dégradé_sans_nom_272"/></defs><g class="cls-18"><g id="Calque_2"><g><ellipse class="cls-38" cx="196.88" cy="492.33" rx="195.89" ry="267.21"/><circle class="cls-7" cx="265.07" cy="219.78" r="200.29" transform="translate(-77.77 251.81) rotate(-45)"/><g class="cls-20"><g><path class="cls-26" d="m298.26,548.21s-16.32,11.51-18.36,15.18c-2.04,3.66-4,16.87-2.09,18.13,1.92,1.26,4.32,1.61,4.32,1.61,0,0,14.06-25.38,20-27.48,5.95-2.1-3.88-7.44-3.88-7.44Z"/><path class="cls-37" d="m296.98,556.15s-14.27,10.63-17.06,14.11c-2.79,3.48-4.83,14.64-2.8,17.76,2.03,3.12,5.81,4.55,5.81,4.55,0,0,10.25-22.46,15.47-24.72,5.21-2.26-1.42-11.7-1.42-11.7Z"/><path class="cls-28" d="m284.97,595.37c6.9-7.84,9.44-9.66,14-14.23,2.19-2.19,4.59-12.82,6.48-23.39.09-.46.17-.9.25-1.34.49-2.81.94-5.6,1.34-8.19,1.16-7.44,1.88-13.32,1.88-13.94,0-1.67-9.95-36.09-9.95-36.09,0,0-14.17,16.73-16.51,29.82-.5,2.8-.45,5.45.4,7.72h0c.25.66.56,1.28.94,1.87,8.76,13.37,7.55,32.34,7.55,32.34,0,0-7.35,6.07-10.83,14.66-3.48,8.58,2.4,13.11,4.45,10.77Z"/><path class="cls-25" d="m282.45,528.01l.4,7.72h0s16.27,6.4,24.18,12.49c1.16-7.44,1.88-13.32,1.88-13.94,0-1.67-9.95-36.09-9.95-36.09,0,0-14.17,16.73-16.51,29.82Z"/><path class="cls-29" d="m277.69,516.4c-.51,1.52-2.98,23.53,6.75,41.12,2.52,4.56,9.04,3.91,10.72-4.98.43-2.27-1.52-13.02,0-24.2,1.89-13.93.24-20.5.24-20.5l-17.71,8.56Z"/></g><g><path class="cls-19" d="m248.79,646.1c-.19,9.57-.61,19.38-.98,26.7-.35,7.09-.65,11.86-.65,11.86-6.14,13.45-18.22,31.1-18.22,31.1l-2.85-44.63-.1-1.61c-.34.45-.66.94-.99,1.48-8.46,13.78-16.24,57.36-16.24,57.36-6.72-10.09-8.55-42.03-8.55-42.03h-9.1c1.9-5.06,3.92-12.5,5.78-20.61,1.69-7.35,3.25-15.26,4.5-22.46,1.04-5.98,1.85-11.48,2.33-15.77.38-3.4-.98-9.43-3.33-16.74-2.65-8.26-6.54-18.16-10.58-27.73-7.19-17.03-14.84-33.03-16.74-36.98-.29-.61-.45-.93-.45-.93-2.72,5.42-5.61,15.48-8.34,26.97-2.66,11.21-5.18,23.8-7.23,34.81-3.02,16.21-5.03,29-5.03,29-3.08,2.66-6.7,6.78-10.53,11.66-6.34,8.08-13.24,18.27-19.2,27.5-8.62,13.37-15.24,24.72-15.24,24.72l-6.72-21.01c-6.72,11.77-7.57,29.42-7.57,29.42-3.72-8.84-1.01-25.41,2.16-38.44,2.56-10.52,5.41-18.72,5.41-18.72-4.62,4.04-8.45,10.37-11.48,16.93-5.79,12.54-8.69,25.94-8.69,25.94h-4.2s2.68-15.31,5.97-28.36c1.59-6.3,3.32-12.07,4.96-15.35,2.56-5.13,9.46-10.26,16.3-16.92,6.62-6.46,13.16-14.36,15.64-25.11.64-2.77,1.03-7.1,1.24-12.57.29-7.53.2-17.2-.1-27.86-1.24-42.83-6.18-101.62-6.18-101.62l112.07-3.36c.23,6.2.62,12.84,1.17,19.77,2.24,28.63,6.89,62.07,11.25,88.04,1.6,9.53,3.16,18.06,4.55,24.97,1.87,9.32,3.44,15.71,4.36,17.69,1.74,3.71,1.94,18.03,1.62,32.89Z"/><path class="cls-30" d="m164.28,572.1c-2.66,11.21-5.18,23.8-7.23,34.81-7.29-1.79-21.22-5.52-36.99-11.31.29-7.53.2-17.2-.1-27.86,15,3.14,31.25,5.4,44.32,4.37Z"/><path class="cls-30" d="m141.49,647.57c-6.34,8.08-13.24,18.27-19.2,27.5-8.36-1.09-17.96-2.77-27.37-5.31,2.56-10.52,5.41-18.72,5.41-18.72-4.62,4.04-8.45,10.37-11.48,16.93-2.35-.74-4.67-1.55-6.93-2.42,1.59-6.3,3.32-12.07,4.96-15.35,2.56-5.13,9.46-10.26,16.3-16.92,12.01,5.4,25.45,10.73,38.31,14.29Z"/><path class="cls-30" d="m242.81,595.53c-15.81,6.65-32.72,12.21-42.42,15.23l-10.58-27.73c14.78-1.44,34.4-7.52,48.45-12.47,1.6,9.53,3.16,18.06,4.55,24.97Z"/><path class="cls-30" d="m248.79,646.1c-.19,9.57-.61,19.38-.98,26.7-5.93-.28-13.64-.78-21.72-1.66l-.1-1.61c-.34.45-.66.94-.99,1.48-9.74-1.1-19.93-2.77-28.11-5.28,1.69-7.35,3.25-15.26,4.5-22.46,12.52,2.48,29.64,4.53,47.4,2.83Z"/><path class="cls-11" d="m248.79,646.1c-.19,9.57-.61,19.38-.98,26.7-.35,7.09-.65,11.86-.65,11.86-6.14,13.45-18.22,31.1-18.22,31.1l-2.85-44.63-.1-1.61c-.34.45-.66.94-.99,1.48-8.46,13.78-16.24,57.36-16.24,57.36-6.72-10.09-8.55-42.03-8.55-42.03h-9.1c1.9-5.06,3.92-12.5,5.78-20.61,1.69-7.35,3.25-15.26,4.5-22.46,1.04-5.98,1.85-11.48,2.33-15.77.38-3.4-.98-9.43-3.33-16.74-2.65-8.26-6.54-18.16-10.58-27.73-7.19-17.03-14.84-33.03-16.74-36.98,10.25-22.84,41.07-51.97,53.95-63.53,2.24,28.63,6.89,62.07,11.25,88.04,1.6,9.53,3.16,18.06,4.55,24.97,1.87,9.32,3.44,15.71,4.36,17.69,1.74,3.71,1.94,18.03,1.62,32.89Z"/></g><path class="cls-16" d="m313,590.24s-.29-26.9-2.8-36.99c-2.52-10.09-18.79-52.68-18.79-52.68l3.93,36.42c-7.29,5.04-29.7-11.21-29.7-11.21-1.39-8.12-4.58-18.9-8.51-30.77-2.44-7.41-5.17-15.24-7.93-23.11-1.75-5.01-3.51-10.03-5.19-14.97-4.67-13.6-8.89-26.59-11.24-36.88-.28-1.22-.53-2.4-.76-3.54-5.61-28.58,7.28-132.25,7.28-132.25l38.67-6.72s-3.13,60.36-3.49,105.91c-.04,5.34.51,11.33,1.53,17.78,1.86,11.84,5.27,25.2,9.36,38.76,3.19,10.57,6.8,21.25,10.42,31.44,3.27,9.19,6.55,17.97,9.52,25.9h0c6.89,18.28,12.25,32.04,12.44,35.75.55,10.64-4.76,57.16-4.76,57.16Z"/><path class="cls-30" d="m305.32,497.33c-12.83-3.29-29.08-5.09-48.18-2.31-2.44-7.41-5.17-15.24-7.93-23.11,12.32-.91,29.48-1.61,46.58-.48,3.27,9.19,6.55,17.97,9.52,25.9Z"/><path class="cls-30" d="m285.37,439.99c-10.29,6.21-23.76,12.19-41.36,16.95-4.67-13.6-8.89-26.59-11.24-36.88,11.65-4.63,27.84-11.38,43.23-18.82,1.86,11.84,5.27,25.2,9.36,38.76Z"/><path class="cls-31" d="m265.65,233.27s-2.98,12.12-8.5,36.93c-1.05,4.72-2.19,9.89-3.42,15.53-.88,4.03-1.81,8.31-2.78,12.82-1.19,5.53-2.45,11.42-3.77,17.68-3.48,16.42-4.66,40.23-4.58,65.69.03,13.91.45,28.31,1.05,42.26.61,13.83,1.42,27.23,2.26,39.26.6,8.62,1.21,16.53,1.78,23.43,1.37,16.55,2.48,27.15,2.48,27.15-3.99,8.41-9.46,14.29-9.46,14.29l-15.29-38.21-.85-2.13c.08.72.16,1.46.21,2.22,1.62,20.21-5.4,49.9-5.4,49.9-14.62,5.04-67.35-12.61-67.35-12.61l-4.41-29.43-.53-3.51c.07,1.12.1,2.3.13,3.53.4,23.55-5.69,65.78-5.69,65.78-.6-13.47-9.27-46.5-14.34-64.82-2.12-7.66-3.61-12.74-3.61-12.74,0,0-1.9,5.39-4,12.96-1.21,4.4-2.5,9.53-3.51,14.78-2.77,14.29-15.73,43.71-15.73,43.71,0,0,.5-19.19,2.29-58.34.52-11.36,1.15-24.41,1.91-39.16,0-.13.02-.24.02-.37.29-5.46.71-10.99,1.25-16.58,1.08-10.99,2.62-22.17,4.56-33.37,3.25-18.83,7.58-37.67,12.54-55.62,5.94-21.5,12.8-41.71,19.79-59,3.11-7.71,6.25-14.84,9.34-21.25,1.39-2.87,2.8-5.62,4.24-8.25,28.82-52.43,68.3-57.95,68.3-57.95l41.08,25.43Z"/><path class="cls-30" d="m243.64,424.19c-34.77,2.87-89.33,3.38-133.28-14.28,3.25-18.83,7.58-37.67,12.54-55.62,25.05,14.27,64.46,28.91,119.69,27.64.03,13.91.45,28.31,1.05,42.26Z"/><path class="cls-30" d="m257.15,270.2c-1.8,8.09-3.87,17.53-6.2,28.35-38.14.37-78.04-1.41-108.26-3.27,3.11-7.71,6.25-14.84,9.34-21.25,1.39-2.87,2.8-5.62,4.24-8.25,30.14,5.42,67.41,5.83,100.88,4.41Z"/><path class="cls-30" d="m247.68,486.87c-7.21,1.1-14.65,2.19-22.27,3.23-.21.03-.43.05-.64.08-24.66,3.35-51.08,6.25-77.16,7.86-.14,0-.27.02-.4.02-6.72.4-13.4.73-20.03.96-2.55.09-5.09.16-7.61.22-5.71.13-11.36.19-16.95.14.52-11.36,1.15-24.41,1.91-39.16,0-.13.02-.24.02-.37,36.27,6.19,85.35,10.27,141.35,3.59.6,8.62,1.21,16.53,1.78,23.43Z"/><path class="cls-13" d="m247.17,316.24c-3.48,16.42-4.66,40.23-4.58,65.69.03,13.91.45,28.31,1.05,42.26.61,13.83,1.42,27.23,2.26,39.26.6,8.62,1.21,16.53,1.78,23.43,1.37,16.55,2.48,27.15,2.48,27.15-3.99,8.41-9.46,14.29-9.46,14.29l-15.29-38.21-.85-2.13c.08.72.16,1.46.21,2.22,1.62,20.21-5.4,49.9-5.4,49.9-14.62,5.04-67.35-12.61-67.35-12.61l-4.41-29.43-.53-3.51c.07,1.12.1,2.3.13,3.53.4,23.55-5.69,65.78-5.69,65.78-.6-13.47-9.27-46.5-14.34-64.82-2.12-7.66-3.61-12.74-3.61-12.74,0,0-1.9,5.39-4,12.96-1.21,4.4-2.5,9.53-3.51,14.78-2.77,14.29-15.73,43.71-15.73,43.71,0,0,.5-19.19,2.29-58.34.52-11.36,1.15-24.41,1.91-39.16,0-.13.02-.24.02-.37.29-5.46.71-10.99,1.25-16.58,13.58,10.22,44.41-113.71,47.7-130.44,3.3-16.74,95.71-55.47,95.71-55.47l4.51,28.37c-.88,4.03-1.81,8.31-2.78,12.82-1.19,5.53-2.45,11.42-3.77,17.68Z"/><path class="cls-32" d="m288.2,284.13c-3.33,13.08-3.83,45.55-3.65,72.04h0c.15,20.32.71,37.09.71,38.92,0,4.2-5.88,19.75-16.39,29.42-10.51,9.67-21.43,41.61-21.43,41.61-13.03-15.97-39.93-47.07-45.39-92.88-.92-7.68-1.13-16.98-.85-27.14,1.34-50.44,14.51-122.13,11.36-122.48-31.61-3.51-59.24,48.01-60.48,50.35,18.5-42,54.6-78.95,69.31-99.52,14.71-20.59,11.35-37.83,17.65-38.67,6.3-.84,19.75,11.18,19.75,11.18.83-9,1.14-12.84,15.43-4.01,14.29,8.83,32.07,40.32,31.65,47.05-.42,6.72-11.77,71.03-17.65,94.14Z"/><path class="cls-17" d="m313,230.96c0,.64-.1,1.22-.29,1.75-3.36,9.53-23.54,8.41-23.54,8.41,0,0,0,.03-.03.09-.6,1.7-9.63,26.44-21.54,24.01-12.33-2.52-21.58-24.65-21.58-24.65,2.24-10.09-2.24-14.58-2.24-14.58,0,0-3.36.84-13.45-3.36-10.09-4.2-14.01-19.05-8.41-25.49,5.6-6.45,11.77,0,11.77,0-7.02-10.21,4.14-39.99,16.46-46.44,12.33-6.45,10.99-1.47,10.99-1.47,18.24,5.39,32.78,29.17,31.94,30.47-2.54,3.92-4.76,13.52-4.76,13.52,0,0,24.77,26.78,24.66,37.76Z"/><path class="cls-27" d="m252.06,181.43c-4.85,5.29-5.89,7.92-3.99,11.91,1.89,3.99,8.92,9.51,13.55,8.78s12.29-5.84,12.71-9.62c.42-3.78.32-19.44-5.04-21.22-5.36-1.79-12.61,5.11-17.23,10.16Z"/><path class="cls-41" d="m272.65,231.03c-10.37-2.52-14.92-4.03-22.49,1.57-7.57,5.6-19.82,13.56-22.91,22.81-3.08,9.25-3.3,65.28,15.14,114.65,0,0-4.63-10.42-2.81-31.15,0,0,3.08-31.94,7.01-40.63,3.92-8.69,14.14-27.67,18.62-29.91,4.48-2.24,20.46-9.57,23.13-2.98,2.67,6.59-15.69,69.32-17.09,99.86,0,0,21.86-37.22,33.06-49.01,11.21-11.79,3.85-75.03-11.17-75.03-8.43,0-20.49-10.18-20.49-10.18Z"/><path class="cls-34" d="m266.18,153.13s-5.86-7.57-12.87-13.45c-7-5.88-14.57-9.89-18.77-3.97-4.2,5.93-22.42,40.63-37.83,65.37-14.69,23.59-30.45,46.24-30.45,46.24,0,0,48.38-45,64.6-69.17,9.36-13.96,18.81-27.55,23.86-28.11,5.04-.56,11.47,3.08,11.47,3.08Z"/><path class="cls-35" d="m273.07,175.8s-1.86-13.03-23.12-12.5c-1.69.04,0,3.36,0,3.36,0,0-8.62,2.55-14.08,6.76-5.46,4.2-1.26,2.28-1.26,2.28,0,0-3.81.63-2.43,7.99,0,0,8.27-5.85,19.87-8.83,11.87-3.05,17.55-2.21,21.01.95Z"/><path class="cls-35" d="m284.97,178.83s-2.63-13.47-.32-13.47,6.37.93,9.93,2.24c3.71,1.37,6.44-2.94,6.44-2.94,0,0-1.02,13.61-2.29,13.55-1.53-.07-4.01-1.48-4.69-2.13,0,0-3.75-2.68-5.43-2.68s-3.64,5.43-3.64,5.43Z"/><path class="cls-10" d="m250.16,192.92s8.49-12.26,17.93-13.24c2.03-.21,4.97,10.51,4.97,13.24,0,0-1.26-1.68-1.89,0-.63,1.68-5.88,10.72-12.82,9.25-6.93-1.47-8.2-9.25-8.2-9.25Z"/><path class="cls-15" d="m313,230.96c0,.64-.1,1.22-.29,1.75-3.36,9.53-23.54,8.41-23.54,8.41,0,0,0,.03-.03.09-5.71-3.2-10.9-6.18-13.07-7.61-5.9-3.88-13.31-7.68-14.46-9.3-1.16-1.61-1.79-6.44,0-10.64l4.57-5.81c-4.57,11.7,4.36,14.92,4.99,15.34.63.42,13.66,5.46,23.22,9.04,9.55,3.57,18.6-1.26,18.6-1.26h0Z"/><path class="cls-22" d="m225.84,590.79c0-14.57-13.44-56.6-13.44-56.6v44.27c-3.92,7.84-17.48,17.09-17.48,17.09l-2.69-28.3c-2.24,14.58-12.32,28.3-12.32,28.3,0,0,0-43.99,0-51.28,0-2.92-6.35-20.05-14.11-40.07-2.54-6.51-5.22-13.34-7.88-20.08-9.62-24.39-18.99-47.68-20.04-51.37-.72-2.54.19-11.58,1.85-23.68,1.99-14.5,5.07-33.38,7.72-50.72,1.81-11.85,3.42-22.99,4.35-31.51.08-.76.16-1.51.24-2.24,8.55-85.74,56.46-100.1,56.46-100.1,5.67,11.57-.49,54.23-5.97,96.82-1.25,9.72-2.47,19.43-3.5,28.76-2.59,23.44-4.03,44.53-1.95,57.39.06.4.13.79.2,1.18,1.84,9.91,4.45,21.49,7.36,33.38,4.56,18.59,9.83,37.95,14,52.91,3.72,13.33,6.55,23.15,7.21,25.79.44,1.74.67,6.45.78,12.66.33,20.52-.78,57.39-.78,57.39Z"/><path class="cls-23" d="m237.76,216.01c-1.26-6.72-10.19-22.67-12.82-14.68-1.04,3.16,1.05,10.93,1.05,10.93,0,0-2.31-8.2,1.89-7.14,4.2,1.05,5.67,3.78,5.67,3.78,0,0-6.54,1.38-2.95,2.69,3.58,1.3,7.16,4.43,7.16,4.43Z"/><path class="cls-9" d="m269.5,226.34c-2.72-3.21,11.56-.88,13.03,3.34,1.47,4.22,1.14,8.43,1.14,8.43,0,0-9.54-6.3-14.17-11.77Z"/><circle class="cls-39" cx="258.25" cy="191.01" r="6.2"/><path class="cls-24" d="m262.64,191.01c0,2.42-1.96,4.38-4.38,4.38s-4.38-1.96-4.38-4.38c0-2.42,1.96-4.38,4.38-4.38s4.38,1.96,4.38,4.38Z"/><path class="cls-35" d="m271.21,184.81s-.3-6.8-2.05-7.64c-1.76-.84-8.48,1.62-13.46,6.51-4.98,4.89-5.53,9.25-5.53,9.25,0,0,11.21-9.84,15.48-10.49,4.27-.65,5.56,2.37,5.56,2.37Z"/><path class="cls-21" d="m272.23,196.26c-6.79,13.84-17.37,21.45-20.17,20.33s-3.99-23.26-3.99-23.26c0,0,3.07,12.81,10.88,10.82,7.82-1.99,13.28-7.89,13.28-7.89Z"/><circle class="cls-10" cx="263.16" cy="188.96" r="2.05"/><path class="cls-14" d="m238.6,209.31c2.58,2.41,5.58,6.8,8.3,12.19,2.04,4.03-3.11,4.48-3.11,4.48,0,0-8.04-.48-13.97-3.6,0,0,9.2,2.06,9.9-1.44.7-3.5-1.12-11.63-1.12-11.63Z"/><path class="cls-21" d="m271.21,206.69c-6.22,2.03-7.1,10.47-3.11,13.27,3.99,2.8,16.46,8.63,16.46,4.87,0-3.75-9.19-19.5-13.35-18.14Z"/><path class="cls-10" d="m295.48,231.47c2.49,1.73,9.39.96,9.39.96,0,0-.98-3.36-3.5-4.06-2.52-.7-5.88,3.1-5.88,3.1Z"/><g><path id="SVGID" class="cls-10" d="m288.34,193.2c-2.1-2.8-1.67-14.35.99-15.02,2.65-.67,5.08,16.48,2.96,19.46l-3.95-4.44Z"/><g class="cls-33"><g><path class="cls-39" d="m291.63,187.2c0,2.71-1.68,4.9-3.74,4.9s-3.74-2.2-3.74-4.9,1.68-4.9,3.74-4.9,3.74,2.2,3.74,4.9Z"/><path class="cls-24" d="m290.53,187.2c0,1.92-1.19,3.47-2.65,3.47s-2.65-1.55-2.65-3.47,1.18-3.47,2.65-3.47,2.65,1.55,2.65,3.47Z"/></g></g></g><path class="cls-35" d="m292.61,186.62s-.77-8.07-3.32-9.62c-1.47-.9-2.87-.32-2.87,2.68,0,2.91.72,9.28.72,9.28,0,0-.13-10.22,2.15-8.65,2.27,1.58,3.32,6.31,3.32,6.31Z"/><path class="cls-40" d="m269.15,266.53c9.59,6.46,15.4,7.86,17.26,6.46,1.86-1.41.59-9.28.59-9.28,0,0-2.29-2.83-10.07,0l-7.79,2.83Z"/><path class="cls-12" d="m285.26,395.08c0,4.2-5.88,19.75-16.39,29.42-10.51,9.67-21.43,41.61-21.43,41.61-13.03-15.97-39.93-47.07-45.39-92.88-.92-7.68-1.13-16.98-.85-27.14.81-2.52,1.27-3.96,1.27-3.96,8.83,76.49,29.42,91.77,29.42,91.77,0,0-23.12-91.35-14.71-139.68,0,0-.41,49.17,14.71,79.01l3.36-11.77s3.34,51.37,12.14,67.25c0,0,14.45-18.91,18.8-31.52,4.24-12.27-7.29-51.63-7.9-53.71.76,2.03,14.87,39.87,18.14,40.68,3.32.82,7.99-27.12,8.13-27.98.15,20.31.71,37.09.71,38.91Z"/><path class="cls-30" d="m202.52,321.34c-1.25,9.72-2.47,19.43-3.5,28.76-26.5,12.79-42.56,11.7-51.58,8.26,1.81-11.85,3.42-22.99,4.35-31.51,16.67,1.69,35.13-1.43,50.73-5.51Z"/><path class="cls-30" d="m204.64,442.05c-19.32,2.47-44.11,2.04-66.76-9.29-.72-2.54.19-11.58,1.85-23.68,8.82,1.33,20.3,1.93,35.14.96,8.41-.55,15.77-1.44,22.21-2.55.06.4.13.79.2,1.18,1.84,9.91,4.45,21.49,7.36,33.38Z"/><path class="cls-30" d="m226.63,533.41c-17.38-11.53-39.26-23.65-60.83-29.19-2.54-6.51-5.22-13.34-7.88-20.08,14.42-.08,36.35,2.1,60.72,10.83,3.72,13.33,6.55,23.15,7.21,25.79.44,1.74.67,6.45.78,12.66Z"/></g><path class="cls-36" d="m75.95,693.91h4.2s2.9-13.4,8.69-25.94c3.03-6.56,6.86-12.89,11.48-16.93,0,0-2.85,8.2-5.4,18.72-3.17,13.03-5.88,29.6-2.16,38.44,0,0,.84-17.65,7.57-29.42l6.72,21.01s6.62-11.36,15.24-24.72c5.96-9.23,12.86-19.43,19.2-27.5,3.83-4.88,7.46-8.99,10.53-11.66,0,0,2.01-12.79,5.03-29,2.05-11.01,4.56-23.6,7.23-34.81,2.73-11.5,5.62-21.55,8.34-26.97,0,0,.16.32.45.92,1,2.07,3.58,7.45,6.84,14.57,0,15.22,0,34.94,0,34.94,0,0,4.88-6.64,8.6-15.59.43,1.01.87,2.03,1.3,3.06l10.58,27.73c2.35,7.31,3.71,13.34,3.33,16.74-.48,4.29-1.29,9.78-2.33,15.77-1.24,7.2-2.81,15.11-4.5,22.46-1.87,8.11-3.88,15.55-5.78,20.61h9.1s1.82,31.94,8.55,42.03c0,0,7.78-43.58,16.24-57.36.33-.54.66-1.03.99-1.48l.1,1.61,2.85,44.63s12.08-17.65,18.22-31.1c0,0,.29-4.77.65-11.86.36-7.32.78-17.12.98-26.7.32-14.86.12-29.19-1.62-32.89-.93-1.98-2.49-8.36-4.36-17.69-1.39-6.91-2.95-15.43-4.55-24.97-3.62-21.57-7.43-48.28-9.91-73.12l12.35,30.87s5.46-5.88,9.46-14.29c0,0-1.11-10.6-2.48-27.15-.55-6.66-1.14-14.28-1.72-22.56.36.44.71.86,1.05,1.28.73,2.1,1.47,4.21,2.2,6.31,2.76,7.87,5.49,15.7,7.93,23.11,3.93,11.87,7.12,22.65,8.51,30.77,0,0,5.4,3.91,11.76,7.3.71,7.49,2.6,16.41,7.03,24.43.16.29.34.56.53.81-2.45,2.05-4.43,3.93-5.06,5.06-1.41,2.54-2.79,9.66-2.86,14.21-.9,4.14-1.09,8.61.08,10.42.67,1.03,1.53,1.87,2.38,2.54.43,4.54,3.97,6.52,5.47,4.81,6.9-7.84,9.44-9.66,14-14.23,2.19-2.19,4.59-12.82,6.48-23.39.09-.46.17-.9.25-1.35.49-2.81.94-5.6,1.35-8.19.19-1.21.36-2.37.53-3.48,1.23,3.64,2.17,6.65,2.64,8.53,2.51,10.09,2.8,36.99,2.8,36.99,0,0,5.31-46.52,4.76-57.16-.19-3.71-5.55-17.47-12.44-35.74h0c-2.98-7.93-6.25-16.72-9.52-25.91-3.62-10.19-7.23-20.87-10.42-31.44-2.81-9.3-5.28-18.49-7.17-27.18,4.58-7.55,7.05-15.02,7.05-17.74,0-1.82-.55-18.6-.71-38.91h0c-.03-4.06-.04-8.25-.03-12.49,6.67-10.4,14.44-21.82,19.79-27.45,10.23-10.76,5-64.34-7.41-73.64.11-.59.22-1.18.33-1.77,6.03-.67,13.55-2.62,15.49-8.11.19-.53.28-1.11.29-1.75.05-4.9-4.87-12.96-10.32-20.37,1.81-10.55,3.04-18.47,3.17-20.6.16-2.5-2.2-8.42-5.96-15.32.67-4.01,1.12-10,1.12-10,0,0-2.09,3.29-5.09,3.21-6.23-10.01-14.43-20.43-21.72-24.93-13.19-8.15-14.47-5.5-15.24,2.03-1.72-1.75-3.63-3.58-5.65-5.28-7-5.88-14.57-9.89-18.77-3.97-4.2,5.93-22.42,40.63-37.83,65.37-5.7,9.15-11.56,18.16-16.59,25.76-4.75,6.53-9.44,13.36-13.83,20.44-.01.02-.03.04-.03.04,0,0,0,0,0,0-5.3,8.56-10.17,17.47-14.21,26.63,0,0,0,0,0,0-.01.03-.03.06-.04.09-3.09,6.41-6.23,13.54-9.34,21.25-6.98,17.29-13.84,37.5-19.79,59-4.96,17.95-9.29,36.79-12.54,55.62-1.93,11.2-3.48,22.38-4.56,33.37-.55,5.59-.97,11.12-1.25,16.58,0,.13,0,.24-.02.37-.76,14.75-1.39,27.8-1.91,39.16-1.79,39.15-2.29,58.34-2.29,58.34,0,0,12.95-29.42,15.73-43.71.29-1.5.61-2.99.93-4.46,1.21,18.38,2.43,39.75,2.97,58.17.3,10.67.39,20.33.1,27.86-.2,5.47-.6,9.81-1.24,12.57-2.48,10.75-9.03,18.65-15.64,25.11-6.83,6.67-13.74,11.79-16.3,16.92-1.64,3.28-3.37,9.05-4.96,15.35-3.29,13.05-5.97,28.36-5.97,28.36Zm215.47-193.33s.74,1.92,1.91,5.05c-.39.55-.78,1.13-1.18,1.73l-.73-6.77Z"/><path class="cls-5" d="m194.31,89.43c0,5.09,4.13,9.22,9.22,9.22,5.09,0,9.22-4.13,9.22-9.22,0-5.09-4.13-9.22-9.22-9.22s-9.22,4.13-9.22,9.22Z"/><path class="cls-1" d="m263.01,92.36c0,5.09,4.13,9.22,9.22,9.22,5.09,0,9.22-4.13,9.22-9.22,0-5.09-4.13-9.22-9.22-9.22s-9.22,4.13-9.22,9.22Z"/><path class="cls-6" d="m281.16,9.22c0,5.09,4.13,9.22,9.22,9.22,5.09,0,9.22-4.13,9.22-9.22S295.48,0,290.38,0c-5.09,0-9.22,4.13-9.22,9.22Z"/><path class="cls-8" d="m299.69,95.98c0,5.09,4.13,9.22,9.22,9.22,5.09,0,9.22-4.13,9.22-9.22,0-5.09-4.13-9.22-9.22-9.22s-9.22,4.13-9.22,9.22Z"/><path class="cls-3" d="m233.6,107.76c0,2.07,1.68,3.75,3.75,3.75s3.75-1.68,3.75-3.75-1.68-3.75-3.75-3.75-3.75,1.68-3.75,3.75Z"/><circle class="cls-2" cx="226.29" cy="45.77" r="4.61"/><path class="cls-4" d="m284.9,140.86c0,2.55,2.06,4.61,4.61,4.61s4.61-2.06,4.61-4.61c0-2.55-2.06-4.61-4.61-4.61s-4.61,2.06-4.61,4.61Z"/></g></g></g></svg>