<?xml version="1.0" encoding="UTF-8"?><svg xmlns="http://www.w3.org/2000/svg" xmlns:xlink="http://www.w3.org/1999/xlink" viewBox="0 0 531.74 602.38"><defs><style>.cls-1{opacity:.4;}.cls-1,.cls-2,.cls-3,.cls-4,.cls-5,.cls-6,.cls-7,.cls-8,.cls-9,.cls-10,.cls-11,.cls-12,.cls-13,.cls-14,.cls-15,.cls-16,.cls-17,.cls-18,.cls-19,.cls-20,.cls-21,.cls-22,.cls-23,.cls-24,.cls-25,.cls-26,.cls-27,.cls-28,.cls-29,.cls-30,.cls-31,.cls-32,.cls-33,.cls-34,.cls-35,.cls-36,.cls-37,.cls-38{mix-blend-mode:multiply;}.cls-1,.cls-10{fill:#312d3d;}.cls-2,.cls-12,.cls-24,.cls-27,.cls-29{fill:#b53356;}.cls-3{fill:url(#_Áåçûìÿííûé_ãðàäèåíò_197-2);}.cls-3,.cls-39,.cls-5,.cls-6,.cls-9,.cls-11,.cls-40,.cls-16,.cls-17,.cls-19,.cls-22,.cls-28,.cls-30{opacity:.5;}.cls-4,.cls-15{fill:#8d3356;}.cls-41{fill:#650034;}.cls-41,.cls-25{opacity:.72;}.cls-42{fill:#b8ff4f;}.cls-43{fill:#ffecca;}.cls-39{fill:#9ab5af;}.cls-39,.cls-44,.cls-45,.cls-46,.cls-47,.cls-48,.cls-49,.cls-40,.cls-50,.cls-51,.cls-52,.cls-53,.cls-54{mix-blend-mode:screen;}.cls-55{fill:#6d85ff;opacity:.55;}.cls-44{opacity:.42;}.cls-45{opacity:.37;}.cls-45,.cls-56{fill:#9a90b7;}.cls-57{fill:#c46017;}.cls-58{fill:url(#Dégradé_sans_nom_278);}.cls-58,.cls-59{opacity:.17;}.cls-60{fill:#6a5f07;}.cls-61{fill:url(#Dégradé_sans_nom_274-2);}.cls-61,.cls-46,.cls-62,.cls-48,.cls-63,.cls-64,.cls-54{opacity:.35;}.cls-65{fill:#590624;}.cls-5{fill:url(#_Áåçûìÿííûé_ãðàäèåíò_197-6);}.cls-6{fill:url(#_Áåçûìÿííûé_ãðàäèåíò_197-4);}.cls-66{fill:url(#Dégradé_sans_nom_286);opacity:.2;}.cls-46{fill:#9c8ca3;}.cls-7{opacity:.47;}.cls-7,.cls-26{fill:#9e2e46;}.cls-67{fill:url(#Dégradé_sans_nom_257);}.cls-68{fill:url(#_Áåçûìÿííûé_ãðàäèåíò_191-4);}.cls-69{fill:url(#_Áåçûìÿííûé_ãðàäèåíò_257);}.cls-47{fill:#bca79f;}.cls-70{fill:url(#_Áåçûìÿííûé_ãðàäèåíò_191-2);}.cls-71{isolation:isolate;}.cls-72{fill:#952d33;}.cls-73{opacity:.22;}.cls-73,.cls-74,.cls-75,.cls-76{mix-blend-mode:color-dodge;}.cls-73,.cls-76{fill:#6ec0ff;}.cls-8{opacity:.49;}.cls-77{mix-blend-mode:overlay;}.cls-77,.cls-78,.cls-79,.cls-80,.cls-81,.cls-82{fill:#6effff;}.cls-78,.cls-80,.cls-81{mix-blend-mode:soft-light;}.cls-9{fill:url(#_Áåçûìÿííûé_ãðàäèåíò_197-5);}.cls-10,.cls-29{opacity:.33;}.cls-11{fill:url(#_Áåçûìÿííûé_ãðàäèåíò_197-7);}.cls-83{fill:#422640;}.cls-12{opacity:.3;}.cls-62{fill:url(#Dégradé_sans_nom_275-2);}.cls-48{fill:url(#_Áåçûìÿííûé_ãðàäèåíò_198-2);}.cls-49{fill:url(#Dégradé_sans_nom_287);opacity:.64;}.cls-84{fill:#33090b;}.cls-85{fill:#6f7e04;}.cls-13{opacity:.61;}.cls-13,.cls-22{fill:#7b0c3b;}.cls-14{opacity:.24;}.cls-14,.cls-52,.cls-53{fill:#838ca3;}.cls-86{fill:url(#_Áåçûìÿííûé_ãðàäèåíò_191);}.cls-15,.cls-24{opacity:.74;}.cls-87{fill:#59456a;}.cls-88{opacity:.26;}.cls-88,.cls-89{fill:#e28959;}.cls-90{fill:#545eff;}.cls-91{fill:#81a404;}.cls-59{fill:url(#Dégradé_sans_nom_278-2);}.cls-40{fill:url(#_Áåçûìÿííûé_ãðàäèåíò_1964);}.cls-63{fill:url(#Dégradé_sans_nom_274);}.cls-92{fill:url(#_Áåçûìÿííûé_ãðàäèåíò_200-2);}.cls-93{fill:url(#_Áåçûìÿííûé_ãðàäèåíò_201);}.cls-94{fill:#fcb393;}.cls-50{fill:#ac9c01;}.cls-50,.cls-79{opacity:.38;}.cls-16{fill:url(#_Áåçûìÿííûé_ãðàäèåíò_197-3);}.cls-17{fill:#a192c8;}.cls-18{opacity:.25;}.cls-95{fill:#a76017;}.cls-64{fill:url(#Dégradé_sans_nom_275);}.cls-19{fill:url(#_Áåçûìÿííûé_ãðàäèåíò_197);}.cls-96{fill:url(#_Áåçûìÿííûé_ãðàäèåíò_452);}.cls-20{opacity:.44;}.cls-97{fill:#e8c0bf;}.cls-21,.cls-30{fill:#3654b8;}.cls-74{opacity:.14;}.cls-98{fill:#edff00;}.cls-99{fill:#4f2d41;}.cls-100{fill:url(#_Áåçûìÿííûé_ãðàäèåíò_452-2);}.cls-101{fill:url(#_Áåçûìÿííûé_ãðàäèåíò_668);}.cls-23{fill:#a192a4;opacity:.79;}.cls-102{clip-path:url(#clippath);}.cls-103{fill:#9f0000;}.cls-75{fill:#0942ff;}.cls-25{fill:#3654ff;}.cls-104{fill:none;}.cls-105{fill:#6ed3ff;opacity:.8;}.cls-106{fill:url(#_Áåçûìÿííûé_ãðàäèåíò_191-3);}.cls-107{fill:#ffffc1;}.cls-108{fill:#443504;}.cls-26,.cls-33{opacity:.81;}.cls-27{opacity:.6;}.cls-28{fill:#a1aec8;}.cls-51{fill:#b48cae;}.cls-51,.cls-81,.cls-82{opacity:.9;}.cls-109{fill:#b2a7bc;}.cls-89,.cls-35{opacity:.57;}.cls-31{opacity:.43;}.cls-31,.cls-35{fill:#7c6f09;}.cls-110{fill:#6f3100;}.cls-111{fill:url(#_Áåçûìÿííûé_ãðàäèåíò_200);}.cls-32{fill:url(#New_swatch_2);}.cls-52{opacity:.51;}.cls-80{opacity:.84;}.cls-112{fill:#bb4c3c;}.cls-53{opacity:.71;}.cls-33{fill:#6ebdff;}.cls-113{fill:#351e34;}.cls-114{fill:#a9244c;}.cls-34{fill:#9c4f79;opacity:.7;}.cls-115{fill:#9a1b27;}.cls-116{fill:#d8d821;}.cls-36{fill:#7a1c91;opacity:.32;}.cls-117{fill:#6b2324;}.cls-118{fill:#e50000;}.cls-54{fill:url(#_Áåçûìÿííûé_ãðàäèåíò_198);}.cls-37{opacity:.46;}.cls-38{fill:#a40040;}</style><linearGradient id="_Áåçûìÿííûé_ãðàäèåíò_201" x1="242.05" y1="602.38" x2="242.05" y2="403.02" gradientUnits="userSpaceOnUse"><stop offset="0" stop-color="#9e2e46"/><stop offset=".52" stop-color="#932c30"/><stop offset="1" stop-color="#8c2c20"/></linearGradient><linearGradient id="_Áåçûìÿííûé_ãðàäèåíò_200" x1="459.33" y1="413.37" x2="84.74" y2="413.37" gradientTransform="translate(6.26 -55.34) rotate(-.83) skewX(-.83)" gradientUnits="userSpaceOnUse"><stop offset="0" stop-color="#9e2e46"/><stop offset=".47" stop-color="#a53934"/><stop offset="1" stop-color="#ad4424"/></linearGradient><linearGradient id="_Áåçûìÿííûé_ãðàäèåíò_200-2" x1="359.42" y1="265.05" x2="91.93" y2="265.05" gradientTransform="matrix(1, 0, 0, 1, 0, 0)" xlink:href="#_Áåçûìÿííûé_ãðàäèåíò_200"/><radialGradient id="Dégradé_sans_nom_286" cx="-7384.02" cy="416.42" fx="-7384.02" fy="416.42" r="132.49" gradientTransform="translate(-8454.64 -154.15) rotate(179.97) scale(1.2 -1) skewX(-.01)" gradientUnits="userSpaceOnUse"><stop offset="0" stop-color="#689a00"/><stop offset=".1" stop-color="#4f7600" stop-opacity=".77"/><stop offset=".22" stop-color="#375200" stop-opacity=".53"/><stop offset=".35" stop-color="#233400" stop-opacity=".34"/><stop offset=".49" stop-color="#131d00" stop-opacity=".19"/><stop offset=".63" stop-color="#080c00" stop-opacity=".08"/><stop offset=".79" stop-color="#020300" stop-opacity=".02"/><stop offset="1" stop-color="#000" stop-opacity="0"/></radialGradient><radialGradient id="Dégradé_sans_nom_287" cx="-7384.02" cy="416.42" fx="-7384.02" fy="416.42" r="132.49" gradientTransform="translate(-8454.64 -154.15) rotate(179.97) scale(1.2 -1) skewX(-.01)" gradientUnits="userSpaceOnUse"><stop offset=".35" stop-color="#688d3b"/><stop offset=".38" stop-color="#638638" stop-opacity=".96"/><stop offset=".68" stop-color="#2e3e1a" stop-opacity=".44"/><stop offset=".89" stop-color="#0c1107" stop-opacity=".12"/><stop offset="1" stop-color="#000" stop-opacity="0"/></radialGradient><linearGradient id="_Áåçûìÿííûé_ãðàäèåíò_1964" x1="386.52" y1="365.51" x2="404.1" y2="383.08" gradientUnits="userSpaceOnUse"><stop offset="0" stop-color="#0054fa"/><stop offset=".58" stop-color="#0073fd"/><stop offset="1" stop-color="#0086ff"/></linearGradient><radialGradient id="Dégradé_sans_nom_275" cx="346.81" cy="133.93" fx="346.81" fy="133.93" r="56.01" gradientTransform="translate(-231.37 -31.01) rotate(.08) scale(.97 1)" gradientUnits="userSpaceOnUse"><stop offset="0" stop-color="#f4d800"/><stop offset=".03" stop-color="#d9c000" stop-opacity=".89"/><stop offset=".09" stop-color="#ac9800" stop-opacity=".71"/><stop offset=".15" stop-color="#837400" stop-opacity=".54"/><stop offset=".22" stop-color="#5f5400" stop-opacity=".39"/><stop offset=".3" stop-color="#413a00" stop-opacity=".27"/><stop offset=".38" stop-color="#292400" stop-opacity=".17"/><stop offset=".47" stop-color="#161400" stop-opacity=".09"/><stop offset=".58" stop-color="#090800" stop-opacity=".04"/><stop offset=".72" stop-color="#020100" stop-opacity="0"/><stop offset="1" stop-color="#000" stop-opacity="0"/></radialGradient><radialGradient id="Dégradé_sans_nom_275-2" cx="392.16" cy="113.36" fx="392.16" fy="113.36" r="56.01" gradientTransform="translate(-231.63 -31.55) rotate(.08) scale(.97 1)" xlink:href="#Dégradé_sans_nom_275"/><radialGradient id="Dégradé_sans_nom_274" cx="-79.91" cy="150.21" fx="-79.91" fy="150.21" r="96.68" gradientTransform="translate(195.22 -30.03) rotate(-.02) scale(1.08 1)" gradientUnits="userSpaceOnUse"><stop offset="0" stop-color="#f48133"/><stop offset=".02" stop-color="#e87a30" stop-opacity=".95"/><stop offset=".13" stop-color="#b25e25" stop-opacity=".73"/><stop offset=".24" stop-color="#82451b" stop-opacity=".54"/><stop offset=".36" stop-color="#5a2f12" stop-opacity=".37"/><stop offset=".48" stop-color="#391e0c" stop-opacity=".24"/><stop offset=".6" stop-color="#201106" stop-opacity=".13"/><stop offset=".72" stop-color="#0e0702" stop-opacity=".06"/><stop offset=".85" stop-color="#030100" stop-opacity=".01"/><stop offset="1" stop-color="#000" stop-opacity="0"/></radialGradient><radialGradient id="Dégradé_sans_nom_274-2" cx="-38.95" cy="129.64" fx="-38.95" fy="129.64" r="96.68" gradientTransform="translate(195 -30.49) rotate(-.02) scale(1.08 1)" xlink:href="#Dégradé_sans_nom_274"/><linearGradient id="_Áåçûìÿííûé_ãðàäèåíò_452" x1="166.88" y1="129.13" x2="166.88" y2="107.06" gradientTransform="translate(-19.22 -38.88) rotate(-.63)" gradientUnits="userSpaceOnUse"><stop offset="0" stop-color="#fffeeb"/><stop offset=".08" stop-color="#ffebc6"/><stop offset=".21" stop-color="#ffd192"/><stop offset=".34" stop-color="#ffba65"/><stop offset=".48" stop-color="#ffa840"/><stop offset=".61" stop-color="#ff9a24"/><stop offset=".74" stop-color="#ff9010"/><stop offset=".87" stop-color="#ff8a04"/><stop offset="1" stop-color="#f80"/></linearGradient><linearGradient id="_Áåçûìÿííûé_ãðàäèåíò_452-2" x1="123.5" y1="152.23" x2="123.5" y2="130.16" xlink:href="#_Áåçûìÿííûé_ãðàäèåíò_452"/><linearGradient id="_Áåçûìÿííûé_ãðàäèåíò_668" x1="167.69" y1="299.33" x2="167.69" y2="208.31" gradientTransform="translate(-19.22 -38.88) rotate(-.63)" gradientUnits="userSpaceOnUse"><stop offset="0" stop-color="#59456a"/><stop offset=".26" stop-color="#5b486d"/><stop offset=".48" stop-color="#645277"/><stop offset=".68" stop-color="#736389"/><stop offset=".87" stop-color="#877aa1"/><stop offset="1" stop-color="#9a90b7"/></linearGradient><linearGradient id="_Áåçûìÿííûé_ãðàäèåíò_191" x1="167.77" y1="237.91" x2="167.77" y2="209.54" gradientTransform="translate(-19.22 -38.88) rotate(-.63)" gradientUnits="userSpaceOnUse"><stop offset="0" stop-color="#4f2d41"/><stop offset=".06" stop-color="#5d3e50"/><stop offset=".32" stop-color="#96818d"/><stop offset=".55" stop-color="#c3b7be"/><stop offset=".74" stop-color="#e3dee1"/><stop offset=".9" stop-color="#f7f6f7"/><stop offset="1" stop-color="#fff"/></linearGradient><linearGradient id="_Áåçûìÿííûé_ãðàäèåíò_191-2" x1="167.77" y1="283.23" x2="167.77" y2="243" xlink:href="#_Áåçûìÿííûé_ãðàäèåíò_191"/><linearGradient id="_Áåçûìÿííûé_ãðàäèåíò_191-3" x1="146.14" y1="299.33" x2="146.14" y2="208.3" xlink:href="#_Áåçûìÿííûé_ãðàäèåíò_191"/><linearGradient id="_Áåçûìÿííûé_ãðàäèåíò_191-4" x1="189" y1="299.32" x2="189" y2="208.31" xlink:href="#_Áåçûìÿííûé_ãðàäèåíò_191"/><radialGradient id="Dégradé_sans_nom_278" cx="3210.63" cy="134.41" fx="3210.63" fy="134.41" r="35.89" gradientTransform="translate(-1753.44 -31.06) scale(.58 1)" gradientUnits="userSpaceOnUse"><stop offset="0" stop-color="#f4ffbd"/><stop offset=".36" stop-color="#989f76" stop-opacity=".62"/><stop offset=".8" stop-color="#2b2d21" stop-opacity=".18"/><stop offset="1" stop-color="#000" stop-opacity="0"/></radialGradient><radialGradient id="Dégradé_sans_nom_278-2" cx="3286.84" cy="113.84" fx="3286.84" fy="113.84" r="35.89" gradientTransform="translate(-1753.67 -31.56) scale(.58 1)" xlink:href="#Dégradé_sans_nom_278"/><linearGradient id="_Áåçûìÿííûé_ãðàäèåíò_197" x1="133.15" y1="428.01" x2="141.34" y2="428.01" gradientUnits="userSpaceOnUse"><stop offset="0" stop-color="#9a2caf"/><stop offset="1" stop-color="#7a1c91"/></linearGradient><linearGradient id="_Áåçûìÿííûé_ãðàäèåíò_197-2" x1="-223.99" y1="-583.53" x2="-186.38" y2="-583.53" gradientTransform="translate(268.75 892.53) rotate(12.13)" xlink:href="#_Áåçûìÿííûé_ãðàäèåíò_197"/><linearGradient id="_Áåçûìÿííûé_ãðàäèåíò_197-3" x1="372.42" y1="343.22" x2="423.77" y2="343.22" gradientTransform="translate(-98.43 -27.93) rotate(-.9)" xlink:href="#_Áåçûìÿííûé_ãðàäèåíò_197"/><linearGradient id="_Áåçûìÿííûé_ãðàäèåíò_197-4" x1="221.38" y1="278.8" x2="264.47" y2="278.8" xlink:href="#_Áåçûìÿííûé_ãðàäèåíò_197"/><linearGradient id="Dégradé_sans_nom_257" x1="303.99" y1="328.36" x2="303.99" y2="318.58" gradientUnits="userSpaceOnUse"><stop offset="0" stop-color="#edff00"/><stop offset="1" stop-color="#81a404"/></linearGradient><linearGradient id="_Áåçûìÿííûé_ãðàäèåíò_197-5" x1="302.31" y1="440.81" x2="302.52" y2="446.21" xlink:href="#_Áåçûìÿííûé_ãðàäèåíò_197"/><clipPath id="clippath"><path class="cls-104" d="m146.38,407.5v-59.99c2.42-.84,3.18-2.12,3.92-4.68.38-1.31.16-2.25-.39-2.97-.68-1.25-3.3-1.93-3.3-1.93-.12-.04-.24-.08-.36-.12-2.56-.82-8.31-.85-8.31-.85-4.24.07-7.49.35-9.89.82,0,0-3.33.55-4.48,1.69-.12.13-.22.19-.29.25-1.69,1.66,1.3,6.67,2.82,7.83.32.24,1.15.44,2.28.59v65.56l2.31-2.46s9.88-1.2,15.68-3.76Z"/></clipPath><linearGradient id="_Áåçûìÿííûé_ãðàäèåíò_198" x1="68.35" y1="473.28" x2="68.35" y2="433.3" gradientTransform="translate(17.48 -29.51) rotate(.4)" gradientUnits="userSpaceOnUse"><stop offset="0" stop-color="#d3cfd8"/><stop offset="1" stop-color="#9c8ca3"/></linearGradient><linearGradient id="_Áåçûìÿííûé_ãðàäèåíò_198-2" x1="56.7" y1="472.44" x2="56.7" y2="433.3" xlink:href="#_Áåçûìÿííûé_ãðàäèåíò_198"/><linearGradient id="New_swatch_2" x1="62.23" y1="421.89" x2="62.41" y2="426.58" gradientTransform="translate(17.48 -29.51) rotate(.4)" gradientUnits="userSpaceOnUse"><stop offset="0" stop-color="#9c8ca3"/><stop offset="1" stop-color="#d3cfd8"/></linearGradient><linearGradient id="_Áåçûìÿííûé_ãðàäèåíò_197-6" x1="64.71" y1="472.48" x2="73.37" y2="472.48" gradientTransform="translate(17.48 -29.51) rotate(.4)" xlink:href="#_Áåçûìÿííûé_ãðàäèåíò_197"/><linearGradient id="_Áåçûìÿííûé_ãðàäèåíò_197-7" x1="124" y1="692.16" x2="130.49" y2="692.16" gradientTransform="translate(-91.28 -240.97) rotate(-2.94)" xlink:href="#_Áåçûìÿííûé_ãðàäèåíò_197"/><linearGradient id="_Áåçûìÿííûé_ãðàäèåíò_257" x1="56.21" y1="426.48" x2="67.62" y2="426.48" gradientTransform="translate(17.48 -29.51) rotate(.4)" gradientUnits="userSpaceOnUse"><stop offset="0" stop-color="#82223b"/><stop offset="1" stop-color="#98193b"/></linearGradient></defs><g class="cls-71"><g id="Calque_2"><g><g class="cls-8"><path class="cls-99" d="m219.47,174.93l-4.01.04,1.07-4.59-3.14.03-.2-18.98s-6.53-3.28-13.63.18v.37s0-.08,0-.12l.4,18.69-3.7.04.04,3.16s.02,1.41.02,1.41l-3.96.04,1.24,5.08,7.39-.08h.35s2.81-.03,2.81-.03l-2.7,9.46c-1.99,6.47-4.62,13.9-6.81,16.16-3.01,3.12-17.13,4.1-24.54,4.41l.18-2.87.32-5.18,2.65-.03.99-5.11-3.33.04,1.74-28.39,2.83-.03,1.28-5.11-3.53.04-.02-2.01-.03-2.3-3.35.23-.35-31.99-.33-30.12s-2.84-1.3-6.8-1.21l.79-9.43-1.84.04.21,9.43c-1.67.12-3.5.52-5.39,1.35h-.6s0,.26,0,.26c0,0,.71,39.08.71,39.08,0,0,.43,23.51.43,23.51l-3.67.25.03,3.13-3.36.04,1.24,5.08,3.14-.03,2.37,28.34-3.35.04.98,5.08,2.79-.03.67,8.06c-7.13-.11-22.26-.72-25.45-3.89-2.03-2.02-4.53-8.29-6.57-14.24,0,0-3.5-11.17-3.5-11.17l3.38-.04,2.29-.02s5.37-.06,5.37-.06l1.28-5.11-4.61.05-.06-5-3.06.03-.54-49.97s-2.84-1.3-6.8-1.21l.79-9.43-1.84.04.21,9.43c-1.67.12-3.5.52-5.39,1.34h-.6s0,.26,0,.26c0,0,.99,49.68.99,49.68l-4.02.04.56,2.17.72,2.81-3.46.04,1.24,5.08,2-.02s8.99-.1,8.99-.1l3.65,13.57c1.13,4.21,2.21,8,3.34,11.07.57,1.55,1.16,2.92,1.77,4.04.04.08.08.14.13.22.24.43.49.83.74,1.18.07.1.15.21.22.31.3.39.6.74.92,1.01,1.98,1.7,9.46,2.54,16.58,2.95,4.28.25,8.43.34,11.19.38l2.21,26.43s-4.92,8.3-9.52,9.97c-4.6,1.66-7.33,1.61-7.33,1.61l.91,4.69,40.23-.2.8-4.71c-4.97-.72-6.98-1.33-7.65-1.57-4.55-1.79-9.45-9.63-9.45-9.63l1.64-26.74c.48-.02,1-.04,1.55-.06,2.18-.09,4.8-.23,7.52-.43.68-.05,1.37-.1,2.06-.16,1.38-.12,2.76-.25,4.1-.4,1.34-.15,2.65-.32,3.88-.51,1.23-.19,2.38-.4,3.4-.64.51-.12,1-.24,1.44-.37.59-.17,1.09-.35,1.54-.54.58-.25,1.07-.51,1.39-.79.31-.28.61-.64.9-1.03.07-.1.14-.21.21-.31.25-.36.49-.76.72-1.21.04-.07.08-.14.11-.21,1.91-3.72,3.5-9.96,5.24-17.16,0,0,2.87-11.69,2.87-11.69l5.38-.06,1.74-.02,4.36-.05,1.28-5.11Z"/></g><g class="cls-8"><polygon class="cls-99" points="197.99 315.19 295.24 315.19 305.46 286.73 314.7 281.49 314.7 265.7 156.98 265.7 197.99 315.19"/></g><polygon class="cls-88" points="444.72 403.68 350.97 459.73 369.07 459.45 459.26 403.43 444.72 403.68"/><polygon class="cls-88" points="425.42 404 348.47 405.28 149.19 461.61 328.33 460.08 425.42 404"/><path class="cls-93" d="m107.05,407.97L0,463.91l5.56,13.9h71.52l-15.46,124.58h15.07l40.56-21.05h32.69l5.94-4.25v-86.93l258.82-.9,1.73,92.08c.07,0,0,.48,0,.48,0,.05-2.78,20.56-2.78,20.56h15.62l43.34-33.23v-145.12l9.64-6.93,1.84-14.07-377.04,4.95Z"/><path class="cls-41" d="m432.4,451.81l-37.64,26H89.76l-13.08,124.58,40.56-21.05h32.69l5.94-4.25v-86.93l258.82-.9,1.73,92.08c.07,0,15.98-129.53,15.98-129.53Z"/><path class="cls-4" d="m394.76,477.81H77.08l-2.13,17.67,12.62-1.66-10.89,108.56,40.56-21.05h32.69l5.94-4.25v-86.93l258.82-.9,1.73,92.08c.07,0,12.79-103.53,12.79-103.53h12.22l-12.16,124.58,43.34-33.23v-145.12l-77.86,53.78Z"/><polygon class="cls-2" points="394.76 477.81 113.47 477.81 117.26 581.86 149.19 581.86 155.87 577.09 155.87 490.16 414.69 489.26 416.43 581.86 432.4 451.81 394.76 477.81"/><polygon class="cls-24" points="394.76 477.81 89.76 477.81 87.07 498.77 114.76 513.21 146.15 513.39 149.19 581.86 155.87 577.09 155.87 513.45 155.87 490.16 414.69 489.26 415.16 514.52 424.69 514.58 432.4 451.81 394.76 477.81"/><polygon class="cls-89" points="0 463.91 391.55 461.61 484.09 403.02 107.05 407.97 0 463.91"/><polygon class="cls-15" points="394.76 477.81 391.55 461.61 484.09 403.02 482.26 417.09 472.61 424.03 472.61 428.49 442.21 450.67 432.4 451.81 394.76 477.81"/><polygon class="cls-72" points="129.16 359.71 131.64 414.25 142.01 414.1 157.23 407.07 157.23 359.3 129.16 359.71"/><polygon class="cls-15" points="142.01 414.1 142.01 370.09 129.68 370.27 129.16 359.71 157.23 359.3 157.23 407.07 142.01 414.1"/><polygon class="cls-72" points="421.14 356.64 423.61 411.18 433.99 411.03 449.21 404.01 449.21 356.24 421.14 356.64"/><polygon class="cls-15" points="433.99 411.03 433.99 367.02 421.66 367.2 421.14 356.64 449.21 356.24 449.21 404.01 433.99 411.03"/><polygon class="cls-15" points="129.49 366.45 157.23 365.36 157.23 359.3 129.16 359.71 129.49 366.45"/><polygon class="cls-15" points="421.47 362.96 449.21 361.87 449.21 355.81 421.14 356.22 421.47 362.96"/><polygon class="cls-111" points="93.91 349.67 98.22 362.62 467.27 358.44 467.27 345.43 93.91 349.67"/><polygon class="cls-15" points="399.75 346.4 403.42 359.37 467.27 358.44 467.27 345.43 399.75 346.4"/><g><g><polygon class="cls-117" points="224.18 159.8 184.61 251.73 204.78 260.72 245.75 169.41 224.18 159.8"/><polygon class="cls-84" points="245.75 169.41 284.53 197.94 249.5 259.82 204.78 260.72 245.75 169.41"/><g class="cls-44"><polygon class="cls-117" points="225.49 170.74 237.8 174.55 202.86 247.7 191.35 244.32 225.49 170.74"/></g></g><g><polygon class="cls-115" points="247.98 159.8 249.5 259.82 271.6 259.82 271.6 159.8 247.98 159.8"/><polygon class="cls-65" points="271.6 159.8 318.68 170.06 316.93 259.5 271.6 259.82 271.6 159.8"/><polygon class="cls-57" points="249.21 240.93 271.72 240.93 271.47 247.7 249.3 246.27 249.21 240.93"/><polygon class="cls-57" points="248.23 176.19 271.6 176.19 271.55 182.84 248.31 181.93 248.23 176.19"/><polygon class="cls-57" points="253.43 186.44 265.35 186.44 263.09 209.81 254.87 208.36 253.43 186.44"/></g><g><polygon class="cls-60" points="275 159.8 276.52 259.82 298.62 259.82 298.62 159.8 275 159.8"/><polygon class="cls-108" points="298.62 159.8 345.7 170.06 343.95 259.5 298.62 259.82 298.62 159.8"/><polygon class="cls-95" points="276.23 240.93 298.74 240.93 298.49 247.7 276.32 246.27 276.23 240.93"/><polygon class="cls-95" points="275.25 176.19 298.62 176.19 298.57 182.84 275.33 181.93 275.25 176.19"/><polygon class="cls-95" points="280.45 186.44 292.37 186.44 290.11 209.81 281.89 208.36 280.45 186.44"/></g><g><g><path class="cls-83" d="m131.44,271.56l6.12,10.57s36.31-4.47,38.35,28.06l9.38,5.69h13.46v-47.18l-67.32,2.85Z"/><path class="cls-10" d="m131.44,271.56l2.59,4.47h21.76v6.1h-9.27c10.89.96,28.01,6.01,29.4,28.06l20.13-2.17.82,5.97-11.56,1.9h13.46v-47.18l-67.32,2.85Z"/><path class="cls-1" d="m158.79,270.41l-1.1,11.05s31.42,1.08,37.81,25.22l3.26,9.22v-47.18l-39.98,1.69Z"/></g><g><path class="cls-83" d="m265.27,271.56l6.12,10.57s36.31-4.47,38.35,28.06l9.38,5.69h13.46v-47.18l-67.32,2.85Z"/><path class="cls-10" d="m265.27,271.56l2.59,4.47h21.76v6.1h-9.27c10.89.96,28.01,6.01,29.4,28.06l20.13-2.17.82,5.97-11.56,1.9h13.46v-47.18l-67.32,2.85Z"/><path class="cls-1" d="m292.62,270.41l-1.1,11.05s31.42,1.08,37.81,25.22l3.26,9.22v-47.18l-39.98,1.69Z"/></g><polygon class="cls-92" points="93.91 258.55 98.39 271.56 360.07 271.56 360.07 258.55 93.91 258.55"/><polygon class="cls-24" points="289.89 258.55 293.7 271.56 360.07 271.56 360.07 258.55 289.89 258.55"/></g></g><g class="cls-20"><path class="cls-99" d="m449.21,403.48v-44.83l18.06-.2v-13.02l-373.37,4.24,4.32,12.95,31.05-.35,2.06,45.38-24.28.32L0,463.91l5.56,13.9h71.52l-15.46,124.58h15.07l40.56-21.05h32.69l5.94-4.25v-86.93l258.82-.9,1.73,92.08c.07,0,0,.48,0,.48,0,.05-2.78,20.56-2.78,20.56h15.62l43.34-33.23v-145.12l9.64-6.93,1.83-14.07-34.88.46Zm-292.5,3.84l.53-.24v-45.12l264.01-2.99,2.04,44.86-266.57,3.5Z"/><path class="cls-99" d="m98.39,271.56h33.05l2.59,4.47,3.53,6.1s3.78-.46,8.96,0c.65.06,1.33.13,2.03.22.04,0,.08.01.13.02,1.38.18,2.84.44,4.32.79.13.03.26.06.39.09.62.15,1.24.32,1.86.5.13.04.27.08.4.12.74.22,1.47.47,2.21.75.06.02.12.05.19.08.65.25,1.29.52,1.93.81.19.09.39.18.58.27.56.27,1.11.56,1.66.86.16.09.32.17.48.26.68.4,1.34.82,1.99,1.28.14.1.28.21.42.32.51.37,1.01.77,1.5,1.19.19.16.38.33.57.5.49.44.96.91,1.41,1.39.12.13.25.25.38.39.56.62,1.09,1.28,1.59,1.97.13.18.26.38.39.57.38.55.74,1.12,1.08,1.72.14.24.28.49.41.74.37.71.72,1.44,1.05,2.21.05.13.12.25.17.38.36.9.68,1.85.96,2.84.08.28.15.57.22.85.2.77.37,1.58.52,2.41.06.32.12.64.17.98.17,1.13.32,2.3.39,3.54l9.38,5.69h13.46v-44.33h66.51l2.59,4.47,3.53,6.1s3.78-.46,8.96,0c.65.06,1.33.13,2.03.22.04,0,.08.01.13.02,1.38.18,2.84.44,4.32.79.13.03.26.06.39.09.62.15,1.24.32,1.86.5.13.04.27.08.4.12.74.22,1.47.47,2.21.75.06.02.12.05.19.08.65.25,1.29.52,1.93.81.19.09.39.18.58.27.56.27,1.11.56,1.66.86.16.09.32.17.48.26.68.4,1.34.82,1.99,1.28.14.1.28.21.42.32.51.37,1.01.77,1.5,1.19.19.16.38.33.57.5.49.44.96.91,1.41,1.39.12.13.25.25.38.39.56.62,1.09,1.28,1.59,1.97.13.18.26.38.39.57.38.55.74,1.12,1.08,1.72.14.24.28.49.41.74.37.71.72,1.44,1.05,2.21.05.13.12.25.17.38.36.9.68,1.85.96,2.84.08.28.15.57.22.85.2.77.37,1.58.52,2.41.06.32.12.64.17.98.17,1.13.32,2.3.39,3.54l9.38,5.69h13.46v-44.33h27.47v-13.02h-16.09l1.73-88.49-47.08-10.25h-23.62v.74s-3.4-.74-3.4-.74h-23.62l.17,11.38-2.4-1.77-21.56-9.61-39.57,91.93,15.3,6.82h-106l4.49,13.02Z"/></g><path class="cls-15" d="m433.51,383.89l12.23,24.77s6.06,7.14-3.41,14.31c-9.48,7.17-20.59,9.24-24.92,8.62-4.33-.63-14.61-5.59-14.61-5.59,0,0-10.76,6.02-16.52,5.7-5.76-.32-27.2-4.99-24.93-6.56,2.27-1.57,4.57-7.91-11.62-9.88-16.19-1.96,32.76-11.45,32.76-11.45,0,0,40.73-6.65,40.4-8.65-.33-2-1.68-11.6-1.68-11.6l12.3.33Z"/><g><ellipse class="cls-66" cx="369.98" cy="255.88" rx="158.34" ry="132.07" transform="translate(-9.77 14.74) rotate(-2.25)"/><polygon class="cls-83" points="446.17 281.71 459.26 345.43 334.8 345.43 367.56 286.92 446.17 281.71"/><polygon class="cls-113" points="442.93 292.31 446.85 287.96 442.33 345.43 341.12 345.43 354.4 324.64 442.93 292.31"/><g class="cls-74"><path class="cls-42" d="m427.95,277.79c-19.33,26.04-54.41,69.35-80.59,44.66-26.18-24.68-69.35-28.78-62.34-52.82,7.01-24.04,29.74-62.73,54.99-75.43,25.25-12.69,69.08-11.63,87.79,2.68,18.71,14.31,12.16,64.71.14,80.9Z"/></g><g class="cls-74"><path class="cls-42" d="m420.84,296.4c-25.25,20.14-70.25,52.84-91.99,21.88-21.74-30.96-65.2-46.46-53.01-67.94,12.19-21.48,43.56-52.99,72.11-58.59,28.55-5.59,73.32,7.13,89.55,26.03,16.23,18.9-.97,66.1-16.66,78.62Z"/></g><path class="cls-107" d="m459.18,237.55l-3.78-5.77c-.66-1-1.94-1.37-3.02-.88l-2.27,1.02-1.25-4.38c-.18-.63-.61-1.16-1.19-1.47-.25-.13-.51-.22-.78-.26,0-.17-.04-.35-.09-.52l-2.31-8.07c-.23-.82-.88-1.45-1.7-1.67-.83-.22-1.7,0-2.31.6-.03.03-2.31,2.2-6.46,4.87l3.59-12.8c.26-.94-.07-1.95-.84-2.55-.77-.6-1.83-.68-2.68-.2l-10.39,5.86,4.09-17.88c.22-.95-.15-1.93-.94-2.49-.79-.57-1.84-.61-2.67-.11-.87.52-21.43,12.96-33.75,29.34-4.91,6.53-7.94,13.13-9.81,18.77-2.92-13.11-9.31-23.03-19.98-31.06-11.82-8.9-22.15-18.39-22.25-18.48-.61-.56-1.47-.77-2.26-.56-.8.21-1.44.81-1.69,1.59l-13.05,40.22c-2.26-.49-4.61-1.04-4.61-1.04-5.8-1.49-9.12-2.93-9.15-2.94-.66-.29-1.43-.27-2.07.06-.65.33-1.11.93-1.27,1.63-8.34,38.01-25,73.62-25.17,73.98-.38.8-.29,1.73.23,2.44l4.28,5.86c.26.35.61.63,1.01.8,0,.49.13.99.42,1.4l2.47,3.61-1.75,5.45c-.13.42-.15.87-.05,1.3l1.91,7.63c.24.96,1.05,1.68,2.04,1.8l52.7,6.79c.37.45.89.75,1.48.85l10.58,1.72c.3.25.69.56,1.18.9.09.08.19.14.3.2.97.66,2.07,1.26,3.23,1.78.2.09.39.17.59.25,0,0,.24.1.24.1.37.15.75.29,1.14.42,2.42.85,4.99,1.28,7.45,1.28.51.04,1.01.06,1.51.06,2.41,0,4.8-.44,7.03-1.27.53-.16,1.03-.32,1.34-.43.08-.02.16-.04.25-.07,2-.68,3.6-1.41,4.67-1.95.16-.05.32-.12.47-.21l.67-.39c.37-.2.66-.37.86-.49l11.64-3.54c.53-.16,1-.5,1.31-.97l.65-.97,41.15-12.66c.84-.26,1.47-.95,1.65-1.8l17.75-82.87c.13-.63.01-1.28-.34-1.82Z"/><ellipse class="cls-49" cx="369.98" cy="255.88" rx="158.34" ry="132.07" transform="translate(-9.77 14.74) rotate(-2.25)"/><g><path class="cls-60" d="m383.72,338.87l55.68-17.13,17.75-82.87-3.78-5.77-66.68,30-73.42-19.03-25.18,78.59,1.9,7.6,66.32,8.54s14.03,10.58,27.4.06Z"/><polygon class="cls-35" points="343.97 337.2 341.97 336.96 338.69 330.88 345.99 321.71 348.37 324.63 343.97 337.2"/><path class="cls-35" d="m453.37,233.1l3.78,5.77-17.75,82.87-55.68,17.13s-12.57,12.95-27.4-.06l-66.32-8.54-1.9-7.6,25.18-78.59-25.18,78.59,70.91,11.51s11.67,13.2,22.45.23l53.46-20.36,18.45-80.95Z"/><path class="cls-35" d="m381.45,334.41c-10.78,12.96-22.45-.23-22.45-.23l-70.91-11.51.46,1.93,1.44,5.67,66.32,8.54c14.84,13.01,27.87-.15,27.87-.15l55.21-16.92-4.48-7.69-53.46,20.36Z"/><path class="cls-110" d="m394.23,330.24l2.13,4.55,1.28-.47-1.35,2.02-11.93,3.63s-16.19,10.51-28.84-.23l-11.27-1.83-3.13-7.37,5.68-8.01,50.41-2.28-2.98,9.98Z"/><path class="cls-13" d="m359.22,331.28s8.48,5.26,18.97-.96l-.04,6.7,4.45,3.97,1.75-1.02-4.31-4.46-.76-.84-.12-4.57,15.15-6.3,1.55.97,1.35-4.51-50.12,1.14-.28,1.14-3.47,4.99,14.67,3.92-1.19,2.28-1.3,6.01,1.6,1.28.57-6.63,1.53-3.12Z"/><path class="cls-38" d="m396.3,336.35l-3.74-6.17-13.27,4.49-.12-4.57-.49-2.97-.6,9.21s-10.78,6.59-19.97-2.67l1.12-2.4.12-2.39-2.52,4.84-15.7-3.18,3.13,7.37,11.27,1.83s10.56,10.68,28.84.23l11.93-3.63Z"/><polygon class="cls-13" points="397.64 334.33 396.36 334.8 394.23 330.24 397.21 320.26 395.69 319.59 392.55 330.18 396.3 336.35 397.64 334.33"/><path class="cls-38" d="m392.55,330.18l-13.27,4.49-.12-4.57-.49-2.97-4.39-.72-4.39,12.17c-3.37.01-7.76-.85-11.79-4.91l1.12-2.4.12-2.39-2.52,4.84-15.7-3.18,3.13,7.37,11.27,1.83s10.56,10.68,28.84.23l11.93-3.63-3.74-6.17Z"/><path class="cls-13" d="m356.82,333.73s12.46,11.68,23.23,1.78l-.76-.84-.12-4.57-2.2-5.39-12.21-.07-6.15,5.68-1.79,3.42Z"/><path class="cls-97" d="m444.58,228.83l-.11-2.88-2.3-8.07s-4.3,4.17-12.08,8.2l5.19-18.51-15.16,8.55,5.31-23.21s-20.88,12.53-33.06,28.72c-12.18,16.19-12.33,32.98-12.33,32.98-.67-23.16-8.8-35.71-20.86-44.79-12.06-9.08-22.43-18.64-22.43-18.64l-13.72,42.29c-10.33-1.93-16.37-4.59-16.37-4.59-8.5,38.73-25.34,74.49-25.34,74.49l4.28,5.86,4.84,2.05-3.37.22,5.89,8.61c13.94,5.72,36.45,1.69,45.55,2.17,9.11.48,20.71,8.98,20.71,8.98,9.27-6.17,19.94-1.18,19.94-1.18,4.48-5.19,21.32-9.61,25.59-10.56,11.62-2.59,26.42-10.8,26.42-10.8l17.85-71.81-2.49-8.73-1.95.63Z"/><path class="cls-27" d="m386.37,303.26c7.48-3.89,23.4-7.43,23.4-7.43,2.49-6.25,20.31-69.74,20.31-69.74-5.57,16.5-22.24,64.67-22.24,64.67-9.68.07-24.24,6.25-24.24,6.25,8.9-6.53,21.03-12.1,21.03-12.1l17.3-69.81-1.82,1.02-16.38,63.28s-16.4,5.53-29.36,16.84c-12.96,11.31-11.48,26.68-11.48,26.68-.3-.34-.6-.64-.9-.97.57.61.9.97.9.97,0,0-13.08-23.57-23.23-31.21-10.15-7.64-31.59-14.8-31.59-14.8l14.96-43.44c-2.62-.52-6.85-1.52-6.85-1.52-2.23,15.52-18.88,55.34-18.88,55.34,0,0,17.82,3.81,29.48,6.34,9.54,2.07,27.63,20.34,33.9,26.92-19.31-19.79-34.08-12.2-49.86-9.99-16.38,2.29-29.5-7.2-29.5-7.2l4.28,5.86,4.84,2.05-3.37.22,5.89,8.61c4.7,4.67,66.27,11.15,66.27,11.15,9.71,5.03,19.94-1.18,19.94-1.18,37.57-10.66,52.01-21.36,52.01-21.36l-7.97-15.19c-13.56,15.22-24.22,10.54-36.83,9.71Z"/><path class="cls-12" d="m431.17,308.74s4.11-64.14,17.85-71.81l-17.85,71.81Z"/><path class="cls-27" d="m328.07,317.71c10.61-1.63,18.5-4.59,21.65-5.91-14.23-8.23-26.24-2.99-38.91-1.22-5.73.8-11.04.15-15.55-1.02-.01,0,18.9,10.28,32.8,8.15Z"/><path class="cls-27" d="m378.45,303.42c-7.93.99-11.83,5.62-13.74,10.13,5.14,3.56,35.88,2.13,48.78-11.94-11.81,6.42-22.11.2-35.05,1.81Z"/><g><path class="cls-27" d="m425.33,240.02c-7.12,20.76-17.49,50.74-17.49,50.74-9.02.07-22.26,5.43-24.03,6.16-.07.03-.15.06-.21.09-4.77,1.94-10.27,5.46-13.86,8.63,0,0,4.42-10.19,12.49-14.25,8.07-4.06,21.72-8.87,21.72-8.87l9.42-40.33-9.64,37.24s-16.4,5.53-29.36,16.84c-11.14,9.72-11.61,22.41-11.52,25.8-.03-3.55,1.21-16.96,21.08-23.88,23.03-8.02,24.64-4.04,24.64-4.04l16.77-54.1h0Z"/><path class="cls-27" d="m380.04,254.61s-.1-3.03-.39-6.02c-.44-4.6-1.12-9.55-.91-6.82.92,12.42-18.04,66.45-20.03,68.9-.63.78-1.33,1.45-2.01,2.02-4.71-7.34-11.35-16.67-17.05-20.96-8.07-6.07-23.28-11.85-29.17-13.95l-2.12,5.2s22.33,4.58,27.55,7.27c3.55,1.84,13.6,15.08,19.64,23.34-.92.66-1.59,1.03-1.59,1.03.78,1.35,1.55,3.1,2.05,5.31,1.38,6.05,8.12,9.07,8.12,9.07l3.49.69s-2.85-1.39-4.74-6.75c0,0-3.17-7.61,17.15-68.31Z"/></g><path class="cls-50" d="m418.82,320.18c-5.46,2.08,13.44-7.82,14.71-8.48,1.27-.66,2.46-13.77,5.7-21.01,3.25-7.23-3.95,22.37-4.31,23.35l-16.1,6.13Z"/><path class="cls-50" d="m443.37,276.82c-.92,6.06-.42-10.13,1.68-15.58,2.09-5.45,4.08-10.91,3.37-6.9-.71,4-5.04,22.48-5.04,22.48Z"/><path class="cls-31" d="m445,270.09c2.54-11.42,1.97,1.71,1.16,11.62-.81,9.91-9.83,28.26-8.15,19.41,1.68-8.85,6.07-26.9,6.99-31.03Z"/><path class="cls-31" d="m405.34,325.32c11.28-4.1,28.45-11.48,25.59-8.53-2.86,2.95-9.75,7.34-14.46,9-4.72,1.66-19.14,2.44-11.13-.47Z"/><path class="cls-31" d="m294.05,323.59c8.43,1.52,21.66,2.82,18.86,4.13-2.81,1.31-8.62,2.06-12.13,1.38-3.51-.68-12.72-6.59-6.73-5.51Z"/><path class="cls-12" d="m442.17,217.88l-18.96,75.67c-16.3,18.3-28.42,7.83-44.75,9.87-16.33,2.04-15.56,19.51-15.56,19.51-20.41-22.75-35.69-14.64-52.08-12.35-16.38,2.29-29.5-7.2-29.5-7.2l4.28,5.86s-2.32-3.18,1.19-1.63c3.51,1.55,20.85,5.92,40.11,4.86,19.26-1.06,36.68,12.14,36.68,12.14.4-11.61,17.44-17.91,34.11-18.63,16.67-.72,23.47-6.19,25.32-6.63,1.84-.44,3.32.13,3.32.13,0,0-2.02-10.35,3.6-21.75,15.88-32.22,12.25-59.85,12.25-59.85Z"/><path class="cls-22" d="m289.92,311.07c3.5,1.29,26.55,4.42,26.55,4.42,0,0-18.68-1.35-29.41-3.98l2.86-.44Z"/><path class="cls-22" d="m325.04,315.11c6.98-.41,18.85-2.2,29.36,7.24,0,0-5.74-5.98-15.52-7.96-9.79-1.98-13.83.72-13.83.72Z"/><path class="cls-22" d="m368.84,323.48s3.85-8.29,18.43-11.79c14.58-3.51,23.14-3.91,23.14-3.91,0,0-31.43-1.83-41.57,15.71Z"/><path class="cls-22" d="m403.13,309.89s13.7-.66,23.25-4.15c0,0-10.44,5.51-23.25,4.15Z"/><path class="cls-22" d="m313.71,310.12s21.25-4.05,36.02,1.68c-13.14-7.6-24.39-3.72-36.01-1.68h0Z"/><path class="cls-22" d="m391.08,303.71c-4-.47-8.15-.85-12.63-.29-7.93.99-11.83,5.62-13.74,10.13,0,0,6.25-11.1,26.37-9.83Z"/><path class="cls-22" d="m362.8,322.53c-.33-2.13-.69-14.34,17.24-67.92-4.31,9.95-13.84,38.36-16.63,48.75-2.45,9.13-1,17.32-.61,19.17Z"/></g></g><g><g><path class="cls-90" d="m350.79,405.33c-.48-.83-.45-1.85.08-2.65,3.77-5.65,9.49-9.7,10.77-9.99,1.09-.24,11.11,3.76,12.59,6.44,1.07,1.94-1.41,12.64-3.73,14.52-1.86,1.51-10.49,2.91-11.9,2.26-2.09-.95-6.14-7.69-7.81-10.6Z"/><path class="cls-33" d="m365.52,395.81c-5.68-2.5-11.11,2.6-13.6,7.52-.16.31-.14.68.03.98,2.93,5,5.19,9.79,11.39,8.82,2.72-.48,4.86-1.25,5.08-1.51,2.96-3.27,4.51-13.93-2.76-15.77-.05-.01-.1-.03-.14-.05Z"/><path class="cls-21" d="m370.38,413.17s-3.7-5.19-4.5-8.18c-.8-2.99,1.26-5.96,1.26-5.96,0,0,5.5-.42,6.74.29,1.24.71-.64,10.44-3.51,13.85Z"/><path class="cls-105" d="m351,404.54s6.26,2.08,13.43-.85c0,0,1.81-3.11,2.31-4.51.49-1.4-5.08-5.98-5.08-5.98,0,0-8.07,3.82-10.66,11.33Z"/><path class="cls-55" d="m350.88,404.74s5.9,1.52,13.5-.66c1-.29,5.96,9.7,5.96,9.7,0,0-9.03,3.26-12.03,1.61-2.75-1.51-7.43-10.65-7.43-10.65Z"/><path class="cls-82" d="m351.27,405.02s6.46,1.1,13.43-.85c0,0-5.56,1.56-8.38,2.17-2.82.61-5.17-1.12-5.17-1.12l.12-.2Z"/><path class="cls-30" d="m367.56,394.95c-2.16-1.07,3.44,3.4,3.94,4.12.5.72,1.44,8.01,1.13,9.29-.31,1.28,1.66-3.9,1.62-6.88s-.18-3.33-6.69-6.53Z"/><path class="cls-77" d="m361.66,393.2s4.12,4.71,4.6,5.35c.28.37.23.76.15,1.02l-1.97,4.13c3.84-1.73,2.71-4.66,2.71-4.66,0,0-2-4.39-5.48-5.83Z"/><path class="cls-77" d="m370.04,413.19c-.33-.99-3.11-4.47-3.49-5.35-.39-.88-1.55-3.35-1.55-3.35l.34-.38s2.32,4.35,3.24,5.9c.92,1.55,1.46,3.18,1.46,3.18Z"/><path class="cls-30" d="m364.18,414.95c2.23-1.75,4.99-3.04,4.72-4.37-.27-1.33,1.63.66,2.92-.79,1.29-1.45-.3,2.74-1.53,3.67-1.23.93-7.3,2.42-6.11,1.49Z"/></g><path class="cls-90" d="m426.45,381.56c-.28-1.59-1.58-2.8-3.2-2.97l-10.99-1.13c-.58-.06-1.16.02-1.7.23.28-4.32.36-8.93.38-11.18,0-.91-.23-1.8-.68-2.58l-11.51-19.87c-.33-.57-1.12-.66-1.56-.18l-5.45,5.82c-.51.55-.92,1.18-1.2,1.88-1.76,4.39-8.38,21.19-8.48,24.97-.04,1.58.77,4.59,2.03,8.01-1.13-.36-2.03-.62-2.59-.76-3.48-.84-13.22,1.39-13.98,2.55-2.51,3.83,9.46,20.97,10.82,21.81,2.69,1.65,25.54,10,27.82,8.95.5,0,.93-.03,1.35-.15,5.88-1.58,20.03-7.75,20.78-14.3.66-5.75-.98-16.2-1.85-21.11Z"/><g><path class="cls-33" d="m398.82,349.82c-1.1-2-4.91,2.69-6.02,4.71-13.7,24.97-12.76,14.2-3.05,32.75.08.16,6.97,4.14,7.05,4.3.22.43,6.2-6.86,8.16-9.53.18-.25.31-.53.36-.83,1.87-10.08,2.67-19.13-6.5-31.4Z"/><path class="cls-21" d="m396.68,392.46s-4.1-3.73-3.24-6.41c.87-2.68,8.99-11.22,9.65-10.45.67.77,3.93,5.02,2.56,6.53-5.77,6.34-6.3,7.34-8.98,10.34Z"/><path class="cls-105" d="m382.5,376.68s13.62-11.67,15.7-14.52c2.08-2.85,0-18.07,0-18.07,0,0-4.88,4.07-6.85,7.26-1.97,3.19-7.2,17.12-8.85,25.33Z"/><path class="cls-80" d="m382.28,377.02s9.54-8.3,16.43-15.09c0,0,3.3,8.6,4.42,12.66,0,0-7.72,7.78-9.89,10.03,0,0-5.85-2.94-10.97-7.61Z"/><path class="cls-30" d="m398.34,345.25s1.28,15.17,1.33,18.2c.03,1.79,3.08,12.38,5.95,16.13,1.98,2.59,4.11-1.04,4.11-1.04,0,0,1.57-7.05.74-12.46-.82-5.4-12.12-20.84-12.12-20.84Z"/><path class="cls-25" d="m382.5,376.68s14-5.95,15.7-14.52l-15.7,14.52Z"/><path class="cls-82" d="m382.28,377.02s11.9-11.15,16.43-15.09c0,0-7.03,6.94-10.95,10.85-2.54,2.53-5.1,2.85-4.42,4.41.5,1.15-.59-.37-1.06-.18Z"/><path class="cls-81" d="m393.25,384.63l-9.6-6.51s6.74,10.83,9.6,6.51Z"/><path class="cls-77" d="m398.19,344.09s1.17,12.28.52,16.3c0,0,3.82-5.75-.52-16.3Z"/><path class="cls-77" d="m393.25,384.63s5.9-6.92,9.89-10.03c0,0-2.95,8.88-9.89,10.03Z"/><path class="cls-79" d="m389.91,354.35s-.01.65,1.18-.75c1.26-1.49,1.01-2.86,1.01-2.86,0,0-1.75,1.31-2.19,3.61Z"/><path class="cls-40" d="m382.28,377.02s9.54-8.3,16.43-15.09c0,0,3.3,8.6,4.42,12.66,0,0-7.72,7.78-9.89,10.03,0,0-5.85-2.94-10.97-7.61Z"/></g><g><path class="cls-33" d="m374.5,395.49c4.88,10,10.33,10.44,21.01,14.13.06.02.12.04.18.05,10.15,2.39,7.84-14.11,2.8-17.45-.04-.03-.09-.05-.13-.08-7.81-4.37-31.82-13.67-23.87,3.34Z"/><path class="cls-21" d="m378.61,407.57s2.38-3.53,6.4-5.74c2.53-1.39,7.07-1.7,9.68-2.05,6.74-.91,11.32,16.77,11.32,16.77,0,0-9.24-.08-27.4-8.98Z"/><path class="cls-76" d="m398.42,399.33c.02-1.68-3,.39-4.15-1.93-.3-.93-.78-2.04-1.52-3.01-1.61-2.12-10.68-9.95-10.68-9.95,0,0,5.58,4.82,11.22,12.79.33.6,1.01,1.98.35,2.22l-8.54,1.67c-2.47,1.44-6.85,6.28-6.85,6.28,0,0,2.33-.95,4.22-3.59,1.89-2.64,2.1-1.98,5.95-2.05,2.14-.04,3.76-.8,4.77-1.47.55-.34,1.48-.51,2.55-.11.73.28,1.65.63,2.08.81.78.33,3.13,3.17,3.13,3.17,0,0-2.57-3.93-2.56-4.83Z"/><path class="cls-105" d="m367.52,386.36s8.35-2.71,13.98-2.55c0,0,8.33,6.34,12.93,15.47,0,0-5.87,1.55-9.51,1.99,0,0-6.69-4.56-17.41-14.91Z"/><path class="cls-55" d="m367.74,387.11c.04-.29,16.52,14.81,16.52,14.81l-5.99,5.46s-11.43-13.04-10.53-20.28Z"/><path class="cls-55" d="m381.5,383.81s8.73,8.14,11.69,14.65c.42,1.03-6.6,2.32-7.52,2.11-.92-.21-12.7-9.11-12.7-9.11,0,0,6.93,6.16,11.96,9.81,0,0,7.49-1.42,11.67-1.68,0,0,2.37-1.18,2.61-1.73.25-.56-.01-8.39-17.71-14.04Z"/><path class="cls-82" d="m367.52,386.36s13.59,11.25,17.41,14.91c0,0-13.16-9.49-15.2-11.19-2.04-1.7-2.21-3.72-2.21-3.72Z"/><path class="cls-30" d="m402.19,406.4c-5.23.22-18.66,3.21-20.43,2.22-1.77-.99,11.58,6.29,19.15,7.19,5.59.66,5.13.31,4.15-2.43-.98-2.74-2.86-6.98-2.86-6.98Z"/><path class="cls-30" d="m373.13,399.66c4.29,5.05,5.14,7.2,6.21,7.68,1.07.48,22.96,7.31,24.01,6.84,1.06-.47-3.91-11.01-2.61-9.53,2.06,2.36,5.24,11.01,5.27,11.89.11,2.9-21.9-6-24.64-7.19s-3.48-1.34-5.14-3.7c-1.66-2.36-3.11-6-3.11-6Z"/></g><g><path class="cls-33" d="m411.5,379.66c-17.51,13.16-16.76,21.9-5.39,32.25.43.39,1.02.53,1.58.38,4.8-1.35,17.36-7.56,17.49-11.35,1.35-8.65-2.19-20.47-12.49-21.6-.42-.05-.85.07-1.19.32Z"/><path class="cls-21" d="m426.63,404.67s-9.15-3.52-10.86-4.65c-1.72-1.14-.76-9.96-.76-9.96,0,0,6.38-7.14,9.53-9.8,0,0,.64,1.64,1.35,4.23,1.32,4.87,2.86,13.12.75,20.19Z"/><path class="cls-78" d="m397.9,390.84s-2.47,2.63.82,2.14c3.29-.49,15.62-3.42,15.62-3.42,0,0,6.43-5.52,9.65-10.24,0,0-10.57-1.3-13.04-1.3s-13.04,12.82-13.04,12.82Z"/><path class="cls-105" d="m400.98,404.16c-1.77-1.22-4.03-6.57-2.36-10.97,0,0,9.67-2.55,15.87-3.14,0,0,.48,8.96.52,10.05.05,1.09-14.03,4.05-14.03,4.05Z"/><path class="cls-81" d="m423.99,379.32s-10.51,10.24-11.86,10.13c-6.96-1.2-13.26,4.4-13.26,4.4,8.39-1.79,15.61-3.71,15.61-3.71-.09-.04-.18-.07-.28-.11l.28.02,9.51-10.73Z"/><path class="cls-75" d="m401.33,387.61c2.57-3.61,7.72-8.83,9.43-8.97,1.72-.15,9.05.33,8.91.95s-21.25,12.11-18.34,8.03Z"/><path class="cls-30" d="m424.53,380.25c1.39,2.49,2.92,9.72,3.11,11.87.19,2.15-1.17,13.59-1.38,12.55-.22-1.04-2.71-.93-2.71-1.43.21-15.39-3.12-18.86-2.35-19.69,1.67-1.78,3.33-3.3,3.33-3.3Z"/><path class="cls-30" d="m406.2,358.11c1.39,2.49,4.08,5.83,4.27,7.98.19,2.15,1.04,11.82.02,12.1-1.08.3-4.37,3.41-4.36,2.91.21-15.39-3.12-18.86-2.35-19.69,1.67-1.78,2.43-3.3,2.43-3.3Z"/><path class="cls-77" d="m415,400.11s6.15,3.66,11.63,4.56c0,0-2.86-3.18-11.63-4.56Z"/><path class="cls-30" d="m408.55,415.5c8-2.49,18.42-11.87,17.68-10.35-.74,1.52-4.32,5.73-8.47,7.69-4.15,1.96-9.21,2.66-9.21,2.66Z"/><path class="cls-77" d="m403.25,403.71c-2.49.48-3.83-3.39-4.73-4.87-.54-.88-.3,2.76,2.46,5.32l.3.28s3.4,7.34,4.74,12.11c0,0,.52-3.8-3.09-9.95l.22.38s-.27-.43-.28-.44c-.08-.13-.1-.21-.18-.34-.87-1.64-.87-1.19-.15-1.08,2.05.36,4.98.7,6.56.08,2.57-1,6.68-5.19,6.68-5.19-1.26.1-8.41,2.37-12.52,3.7Z"/></g><g><path class="cls-90" d="m416.68,411.13c-.02-.95.5-1.84,1.35-2.28,6.03-3.15,13-3.96,14.26-3.6,1.07.31,7.93,8.62,7.93,11.68,0,2.21-7.34,10.41-10.28,10.95-2.36.43-10.6-2.48-11.52-3.72-1.37-1.83-1.67-9.69-1.74-13.03Z"/><path class="cls-33" d="m434.18,409.84c-3.78-4.91-11-3.04-15.56.08-.29.2-.45.52-.44.87.16,5.79-.17,11.07,5.73,13.2,2.62.89,4.86,1.23,5.18,1.12,4.17-1.45,10.67-10.05,5.18-15.15-.04-.03-.07-.07-.1-.11Z"/><path class="cls-21" d="m430.07,427.4s-.74-6.32,0-9.33c.74-3.01,3.98-4.62,3.98-4.62,0,0,5.03,2.27,5.77,3.49.74,1.22-5.6,8.85-9.75,10.46Z"/><path class="cls-105" d="m417.24,410.54s4.49,4.82,12.19,5.7c0,0,3.09-1.86,4.2-2.85,1.11-.99-1.57-7.68-1.57-7.68,0,0-8.92-.52-14.81,4.83Z"/><path class="cls-55" d="m417.04,410.66s4.44,4.16,12.16,5.89c1.01.23.54,11.36.54,11.36,0,0-9.49-1.47-11.32-4.36-1.69-2.65-1.38-12.89-1.38-12.89Z"/><path class="cls-82" d="m417.24,411.09s5.13,4.06,12.19,5.7c0,0-5.63-1.3-8.4-2.11-2.77-.81-3.99-3.47-3.99-3.47l.2-.12Z"/><path class="cls-30" d="m436.39,410.07c-1.38-1.97,1.38,4.63,1.47,5.5.09.87-2.6,7.72-3.49,8.69-.89.97,3.33-2.63,4.74-5.25,1.4-2.62,1.45-3-2.72-8.93Z"/><path class="cls-77" d="m432.05,405.71s1.34,6.11,1.46,6.89c.07.46-.16.78-.36.96l-3.72,2.67c4.2.32,4.62-2.79,4.62-2.79,0,0,.36-4.81-2-7.74Z"/><path class="cls-77" d="m429.76,427.25c.19-1.02-.57-5.41-.48-6.36.09-.96.25-3.68.25-3.68l.48-.17s-.06,4.92,0,6.73c.06,1.8-.25,3.49-.25,3.49Z"/><path class="cls-30" d="m423.77,425.99c2.8-.47,5.84-.27,6.25-1.57.4-1.3,1.11,1.36,2.94.71,1.83-.66-1.59,2.26-3.11,2.49-1.52.23-7.56-1.38-6.08-1.63Z"/></g><g><path class="cls-90" d="m385.22,429.98c3.18-.03,13.33-8.86,13.33-12.42,0-3.01-4.76-7.67-5.39-7.91-.63-.24-14.76-1.19-17.53,0-2.78,1.19-5.95,6.48-5.63,8.94.32,2.45,11.74,11.42,15.23,11.39Z"/><path class="cls-33" d="m375.8,410.96c-8.83,5.35,5.14,17.8,11.59,14,.04-.02.07-.05.11-.07,17.35-12.29-.65-16.36-11.31-14.08-.14.03-.27.08-.39.15Z"/><path class="cls-21" d="m385.52,429.05c-.15.05,0-5.27.82-7.5.82-2.23,7.52-6.03,8.34-6.19.82-.16,3.43,1.68,3.43,1.68,0,0-2.89,8.75-12.59,12Z"/><path class="cls-105" d="m370.21,417.94s2.51-5.88,6.1-8.11c0,0,11.12.16,18.12,4.78,0,0-6.76,5.22-10.18,6.58,0,0-8.65-1.43-14.04-3.24Z"/><path class="cls-55" d="m378.09,409.83c2.74.45,8.58,1.3,14.84,4.78.88.49-5.5,5.49-8.01,5.7-2.51.22-14.71-2.37-14.71-2.37,0,0,2.64,6.5,14.04,11.66,0,0,1.24-7.14,1.87-8.42.63-1.28,7.7-5.98,8.43-6.28.73-.29,3.56,1.66,3.56,1.66,0,0-2.12-4.78-4.9-6.36-2.78-1.57-15.11-.38-15.11-.38Z"/><path class="cls-82" d="m370.74,418.24s8.52,2.6,13.68,3.11c0,0,.58.32-2.73.31s-10.95-3.41-10.95-3.41Z"/><path class="cls-81" d="m376.32,409.83s10.09.99,18.12,4.78c0,0-7.21-4.04-10.87-4.4-3.67-.36-7.25-.38-7.25-.38Z"/><path class="cls-75" d="m371.52,419.61c1.78.81,4,2.29,5.34,3.23,1.34.94,2.03,3.86,1.45,3.49-3.81-2.4-8.07-7.3-6.79-6.72Z"/><path class="cls-30" d="m385.91,427.02c1.74-1.39,9.15-5.32,10.61-7.45,1.45-2.13-.64,3-3.33,5.2-2.7,2.2-6.97,4.35-7.44,4.48-.46.14.16-2.23.16-2.23Z"/><path class="cls-77" d="m386.28,420.95s6.01-4.95,8.16-6.34c0,0,1.11,3.76-8.16,6.34Z"/><path class="cls-73" d="m374.56,422.73c.85.02,3.89,2.29,4.82,2.93.93.64,5.11,3.73,4.84,3.59-6.8-3.39-10.25-6.53-9.66-6.52Z"/></g></g><polygon class="cls-15" points="180.1 430.3 142.18 430.84 121.04 453.81 383.56 453.08 369.81 429.19 180.1 430.3"/><path class="cls-15" d="m63.77,441.11c-15.44-.2-11.57,11.82,13.9,10.69,25.48-1.13,40.28-9.98-13.9-10.69Z"/><g><ellipse class="cls-64" cx="105.94" cy="102.99" rx="54.5" ry="55.83" transform="translate(-1.27 1.33) rotate(-.71)"/><ellipse class="cls-62" cx="149.85" cy="82.01" rx="54.5" ry="55.83" transform="translate(-1.01 1.87) rotate(-.71)"/><ellipse class="cls-63" cx="109.2" cy="119.74" rx="104.15" ry="96.37" transform="translate(-1.26 1.16) rotate(-.6)"/><ellipse class="cls-61" cx="153.11" cy="98.75" rx="104.15" ry="96.37" transform="translate(-1.03 1.62) rotate(-.6)"/><g><g><polygon class="cls-109" points="150.64 86.77 149.74 97.48 149.04 97.49 148.8 86.81 150.64 86.77"/><g><path class="cls-94" d="m156.65,97.41l.7,64.54s-8.54,5.61-13.18-1.04l-1.15-63.33,13.63-.18Z"/><path class="cls-29" d="m144.17,160.92l-.44-24c.06,1.16.11,2.36.16,3.62,6.11,33.61,13.33,10.44,13.08-13.01l.37,34.42s-8.54,5.61-13.18-1.04Z"/></g><path class="cls-43" d="m143.02,97.84s6.28,2.41,13.63-.43c0,0-6.53-3.03-13.63.43Z"/></g><path class="cls-96" d="m149.19,88.36c-7.83-1.03-2.58-23.19-.24-21.99,2.34,1.21,7.51,22.94.24,21.99Z"/><g><g><path class="cls-94" d="m200.71,151.44l.22,21.07s-8.54,5.61-13.18-1.04l-.67-19.85,13.63-.18Z"/><path class="cls-29" d="m187.61,176.5l-.53-24.63c1.06,18.05,13.88,23.02,13.63-.43l.22,21.07s-8.06,5.46-13.32,3.99Z"/></g><path class="cls-43" d="m187.08,151.62s6.28,2.66,13.63-.18c0,0-6.53-3.28-13.63.18Z"/></g><g><polygon class="cls-109" points="107.52 110.35 106.62 121.06 105.91 121.07 105.67 110.39 107.52 110.35"/><g><path class="cls-94" d="m113.53,120.99l.57,52.48s-8.54,5.61-13.18-1.04l-1.02-51.26,13.63-.18Z"/><path class="cls-29" d="m100.92,172.43l-.44-24c.06,1.16.11,2.36.16,3.62,3.97,24.01,13.33,10.44,13.08-13.01l.37,34.42s-8.54,5.61-13.18-1.04Z"/></g><path class="cls-43" d="m99.9,121.42s6.28,2.41,13.63-.43c0,0-6.53-3.03-13.63.43Z"/></g><path class="cls-100" d="m106.07,111.94c-7.83-1.03-2.58-23.19-.24-21.99,2.34,1.21,7.51,22.94.24,21.99Z"/><g><path class="cls-101" d="m202.97,174.98l1.07-4.59-20.26.22.05,4.57-3.96.04,1.24,5.08,10.54-.12c-1.26,4.77-5.97,21.96-9.51,25.63-3.01,3.12-17.13,4.1-24.54,4.41l.49-8.05,2.65-.03.99-5.1-3.33.04,1.74-28.39,2.83-.03,1.28-5.11-3.53.04-.05-4.31-20.19,1.4.03,3.13-3.36.04,1.24,5.08,3.14-.03,2.37,28.34-3.35.04.98,5.08,2.79-.03.67,8.06c-7.13-.11-22.26-.72-25.45-3.89-3.62-3.59-8.71-20.67-10.07-25.41l11.04-.12,1.28-5.11-4.61.05-.05-5-20.26.22,1.28,4.98-3.46.04,1.24,5.08,10.99-.12c4.02,14.21,6.7,27.91,10.76,31.39,3.17,2.72,20.4,3.24,27.78,3.33l2.21,26.43s-4.92,8.3-9.52,9.97c-4.6,1.66-7.33,1.61-7.33,1.61l.91,4.69,19.05-.21h21.18s.8-4.7.8-4.7c0,0-2.73.11-7.36-1.45-4.63-1.56-9.74-9.75-9.74-9.75l1.64-26.74c7.75-.29,23.88-1.22,26.87-3.91,3.98-3.56,6.35-17.32,10.06-31.62l11.49-.13,1.28-5.11-4.01.04Z"/><g class="cls-8"><polygon class="cls-99" points="141.53 168.9 160.15 168.69 159.57 178.24 142.32 178.43 141.53 168.9"/></g><g class="cls-8"><polygon class="cls-99" points="140.51 162.45 160.71 161.59 160.73 163.59 140.52 163.81 140.51 162.45"/></g><g class="cls-8"><polygon class="cls-99" points="97.43 173.31 98.15 176.12 117.18 175.92 117.16 173.93 97.43 173.31"/></g><g class="cls-8"><polygon class="cls-99" points="183.82 173.78 203.44 172.99 202.97 174.98 183.83 175.19 183.82 173.78"/></g><g class="cls-8"><polygon class="cls-99" points="106.91 181.12 109.47 181.09 112.97 192.26 110.56 194.69 106.91 181.12"/></g><g class="cls-8"><polygon class="cls-99" points="191.65 180.19 194.21 180.17 191.34 191.86 188.95 189.68 191.65 180.19"/></g><g class="cls-8"><polygon class="cls-99" points="144.32 202.33 158.1 202.18 157.78 207.36 144.79 207.93 144.32 202.33"/></g><g class="cls-8"><polygon class="cls-99" points="143.73 195.24 158.54 195.08 158.41 197.08 143.89 197.24 143.73 195.24"/></g><g class="cls-8"><polygon class="cls-99" points="147.65 242.28 147.02 234.67 156.08 235.2 155.63 242.43 147.65 242.28"/></g><g class="cls-8"><path class="cls-99" d="m130.8,253.86s18.45,3.31,41.94-.21l-.8,4.71-40.23.2-.91-4.69Z"/></g><polygon class="cls-45" points="96.26 176.14 97.92 181.22 108.83 181.1 108.77 176.01 96.26 176.14"/><polygon class="cls-45" points="112.3 175.97 112.84 181.06 115.14 181.03 115.08 175.94 112.3 175.97"/><g class="cls-18"><path class="cls-86" d="m141.53,168.9s3.22,20.62,7.96,23.42c4.74,2.8,10.66-23.62,10.66-23.62l-1.74,28.39-14.52.16-2.37-28.34Z"/></g><g class="cls-18"><path class="cls-70" d="m144.32,202.33l3.33,39.95,7.98.16,2.47-40.26s-2.33,30.68-6.7,31.59c-4.38.9-7.08-31.44-7.08-31.44Z"/></g><g class="cls-37"><path class="cls-106" d="m145.45,215.85l-.27-3.28c-13.94,0-28.65-2.06-31.28-6.81,1.17,3.18,2.39,5.57,3.77,6.76,3.17,2.72,20.4,3.24,27.78,3.33Z"/></g><g class="cls-37"><path class="cls-68" d="m184.21,209.31c-5.01,2.9-26.73,2.99-26.73,2.99l-.21,3.39c7.75-.29,23.88-1.22,26.87-3.91,1.36-1.22,2.53-3.65,3.63-6.86-1.13,2.02-2.31,3.66-3.57,4.38Z"/></g><polygon class="cls-45" points="143.89 163.78 144.93 168.86 157.73 168.72 158.19 163.62 143.89 163.78"/><polygon class="cls-45" points="185.17 175.17 186.08 180.26 188.85 180.22 189.59 175.12 185.17 175.17"/><polygon class="cls-45" points="192.87 175.09 192.92 180.18 201.34 180.09 202.28 174.98 192.87 175.09"/><path class="cls-45" d="m138.13,252.24s12.6,2.34,26.66-.29c0,0,1.48.76,7.94,1.69,0,0-20.13,3.28-41.94.21,0,0,2.82.06,7.33-1.61Z"/></g></g><ellipse class="cls-58" cx="105.94" cy="102.99" rx="20.79" ry="35.78" transform="translate(-1.13 1.18) rotate(-.63)"/><ellipse class="cls-59" cx="149.85" cy="82.01" rx="20.79" ry="35.78" transform="translate(-.9 1.66) rotate(-.63)"/></g></g><g><path class="cls-83" d="m140.68,408.27l13.33.66s.31-11.06,0-11.25c-.31-.19-13.92,3.59-13.92,3.59l.59,7Z"/><g><g><path class="cls-56" d="m128.38,345.77v82.35c0,4.95,4.03,8.97,9,8.97s9-4.02,9-8.97v-82.35h-17.99Zm12.55,76.18c-.48,7.43-6.1,8.44-6.57,2.43-.48-6.01-.6-76.85-.6-76.85l7.17-.55s.48,67.54,0,74.97Z"/><path class="cls-46" d="m133.76,347.53s.12,70.84.6,76.85c.48,6.01,6.1,5,6.57-2.43.48-7.43,0-74.97,0-74.97l-7.17.55Z"/></g><path class="cls-56" d="m137.94,336.97c-8.45.15-12.98,1.11-14.66,2.77-1.69,1.66,1.3,6.67,2.82,7.83,1.52,1.16,14.38,1.28,18.39.46,4.01-.82,4.9-2.06,5.81-5.19s-1.48-4.19-4.04-5.01c-2.56-.82-8.31-.85-8.31-.85Z"/><path class="cls-28" d="m147.7,341.15s-11.33,2.44-21.83-.04c0,0,1.51,4.29,2.57,5.41,1.06,1.12,14.74,1.37,17.21.06,2.47-1.3,2.05-5.44,2.05-5.44Z"/><path class="cls-34" d="m146.99,339.76s-3.33.95-9.82.84c-6.48-.1-10.22-.68-10.22-.68,0,0,9.89-2.94,20.04-.16Z"/><path class="cls-17" d="m128.05,337.79l.83,1.04s-4.28.2-3.36,1.16c.92.95,5.26,1.95,5.26,1.95-.94-.06-1.85-.15-2.7-.27,1.29.32,3.32.92,4.48,2.54.41.57.57.97,1.49,1.7s1.95,1.48,1.39,1.55-6.44-.35-6.98-.83c-.55-.49-2.57-5.36-2.57-5.36-1.9-.47-2.99-1.1-2.31-1.77,1.16-1.14,4.48-1.69,4.48-1.69Z"/><path class="cls-17" d="m139.51,347.02c.74-.25,1.46-.4,2.91-1.83,1.4-1.38,1.55-3.17,3.34-3.69-1.02.16-1.83.25-1.83.25,0,0,4.01-.93,3.99-2.01-.02-1.08-1.92-.82-1.92-.82l.61-.98s2.62.67,3.3,1.89c.3.54-.85.98-2.22,1.3.15.84.03,3.12-.91,4.42-.93,1.3-2.43,1.65-5.12,1.76-2.69.11-2.89-.05-2.16-.3Z"/><path class="cls-17" d="m130.1,353.41c.92,3.6,3.5,22.49,2.99,35.22-.52,12.74-2.09,40.06-3.4,26.7-1.31-13.35-1.85-70.86.41-61.93Z"/><path class="cls-17" d="m144.11,415.09c-.73-2.37-2.81-14.79-2.4-23.17.41-8.38,1.68-26.35,2.73-17.57,1.05,8.78,1.49,46.61-.33,40.74Z"/><path class="cls-19" d="m133.76,425c1.08,7.08,6.95,3.85,7.33,0,.36-3.7.96,7.06-3.29,7.08-5.97.02-4.73-11.66-4.03-7.08Z"/><path class="cls-47" d="m129.79,384.14c.6,2.71,1.6-3.65,1.45-6.19s-.83-10.44-1.86-6.65c-1.03,3.79-.16,10.23.41,12.84Z"/><path class="cls-91" d="m134.25,376.43s1.52-3.93,6.43-.64l-2.36,3.6-3.71-1-.36-1.95Z"/><path class="cls-85" d="m140.54,421.45c.24-4.05.21-26.94.13-45.66-3.53,2.4-5.52,1.47-6.43.64.07,19.64.21,43.99.46,47.32.42,5.69,5.41,4.73,5.84-2.3Z"/></g><polygon class="cls-113" points="170.56 424.76 179.63 437.78 219.95 437.78 228.3 422.99 170.56 424.76"/><polygon class="cls-113" points="136.29 421.74 142.88 447.08 149.89 447.08 154.01 422.35 136.29 421.74"/><polygon class="cls-113" points="346.04 421.74 352.63 447.08 359.64 447.08 363.76 422.35 346.04 421.74"/><path class="cls-83" d="m265.55,424.76s38.22-48.77,75.93,0l11.23-6.03-22.48-24.4-60.39-1.23-5.87,14.48-2.12,14.16,3.7,3.01Z"/><path class="cls-83" d="m223.15,404.78c8.94-3.89-1.68-10.06-39.92-7.21-15.89,1.18-17.91,4.4-10.45,6.89,2.39-.62,5.82-1.14,10.45-1.49,21.74-1.62,34.55-.32,39.92,1.81Z"/><path class="cls-87" d="m370.11,393.09l-223.22.95-6.81,7.24s12.99-.5,9.9,3.77c-3.09,4.27-19.29,6.22-19.29,6.22l-7.03,7.47h142.94s33.25-45.86,72.51,0h35.55l-4.54-25.64Zm-167.1,14.55c-33.18.21-47.4-8.01-19.78-10.07,53.85-4.01,52.96,9.86,19.78,10.07Z"/><polygon class="cls-83" points="331.91 299.11 354.9 402.57 349.34 402.57 330.06 303.99 331.91 299.11"/><polygon class="cls-83" points="216.35 269.25 239.34 402.24 233.78 402.24 214.5 275.62 216.35 269.25"/><polygon class="cls-83" points="311.72 299.9 325.6 394.33 320.04 394.33 309.41 303.84 311.72 299.9"/><path class="cls-56" d="m327.22,261.98c-4.7-3.71-8.37-5.23-10.57-6.19-5.71-2.66-14.48-3.43-21.98-1.72-3.92,1.08-20.85,4.98-25.08,20.93-.62,2.32-.89,4.71-.89,7.12l-49.27-17.62c.02-6.07-2.08-11.36-5.26-15.32-2.75-3.43-5.12-5.14-6.53-6.19-1.72-1.35-3.99-2.5-6.5-3.36l-1.26-2.08c.65-.07,1.22-.15,1.67-.24,4.01-.82,4.9-2.06,5.81-5.19.91-3.13-1.48-4.19-4.04-5.01-2.56-.82-8.31-.85-8.31-.85-8.44.15-12.98,1.11-14.66,2.77-1.69,1.66,1.3,6.67,2.82,7.83.5.38,2.2.64,4.41.81l-.28.76c-5.1.7-12.41,2.92-16.29,10.32-6.08,11.58-.46,31.25,15.26,37.44,15.73,6.19,28.75-3.65,31.84-13.26.05-.16.07-.31.12-.47l54.19,24.32c4.57,8.84,13.16,16.24,24.61,19.05-.04,0,2.82,17.9,2.82,17.9h7.69l3.66-17.01c16.23-2.05,25.04-15.19,26.06-26.73,1.22-13.78-2.21-21.84-10.03-28.01Zm-117.93,15.49c-11.45,9-37.45-.52-37.26-18.43.15-14.54,13.58-20.46,26.38-18.02,16.97,3.24,22.32,27.45,10.88,36.45Zm119.96,23.72c-12.53,15.6-50.03,11.11-55.18-12.8-4.18-19.41,11.92-31.54,29.71-32.32,23.58-1.04,38.01,29.52,25.48,45.12Z"/><g><path class="cls-46" d="m198.42,241.02c16.97,3.24,22.32,27.45,10.88,36.45-11.45,9-37.45-.52-37.26-18.43.15-14.54,13.58-20.46,26.38-18.02Z"/><path class="cls-36" d="m180.07,268.82c-1.11-.5.22-1.05.22-1.05,0,0,.55,1.4-.22,1.05Z"/><path class="cls-36" d="m197.24,271.93c.7.09.96-.2.12-.57-.84-.36-.48.52-.12.57Z"/><path class="cls-36" d="m183.44,274.48c-.76-.46-.93-1.03.16-.75s.6,1.21-.16.75Z"/><path class="cls-36" d="m184.49,273.05c-.24-.04-.12-.61.13-.6.24,0,.35.68-.13.6Z"/><path class="cls-3" d="m174.58,270.92c5.63,5.44,13.86,14.98,29.49,10.2,15.63-4.78-4.71,3.69-12.62,3.07-7.91-.63-22.17-18.4-16.87-13.27Z"/><path class="cls-17" d="m182.3,240.14c3.67-1,1.25,1.22-1.94,3.15-3.19,1.93-6.81,4.88-8.22,9.92-1.42,5.04-1.27,9.45-.48,12.47.79,3.02-4.36-3.39-2.05-12.32,2.31-8.94,9.44-12.33,12.7-13.22Z"/><path class="cls-17" d="m208.47,245.71c3.08,3.31,6.74,7.86,7.53,15.43.79,7.57,2.14.89,1.94-2.47-.2-3.36-1.36-7.16-5.39-11.35-2.65-2.76-7.62-5.41-4.08-1.6Z"/><path class="cls-51" d="m177.12,242.58c1.6-1.14.74,1.77-1.16,4.1s-6.59,5.99-5.28,3.56c1.32-2.44,3.24-5.38,6.43-7.66Z"/><path class="cls-17" d="m170.09,264.09c.65,1.55.53-3.38.23-4.98-.31-1.6-1-5.59-1.19-3.33-.19,2.26-.08,5.81.97,8.31Z"/></g><g><path class="cls-46" d="m303.78,256.07c23.58-1.04,38.01,29.52,25.48,45.12-12.53,15.6-50.03,11.11-55.18-12.8-4.18-19.41,11.92-31.54,29.71-32.32Z"/><path class="cls-85" d="m273.89,288.59c5.17,23.69,42.9,28.13,55.51,12.67,7.31-8.96,5.51-22.89-1.91-32.83-4.03-4.48-4.35,1.52-7.16,6.2-2.81,4.69-11.89-.46-19.07-3.9-7.16-3.43-20.82-6.38-25.62,1.51-2.31,4.59-3.12,10.08-1.75,16.35Z"/><path class="cls-36" d="m287.73,298.88c-1.63-.32-.02-1.47-.02-1.47,0,0,1.15,1.69.02,1.47Z"/><path class="cls-36" d="m311.53,297.61c.96-.11,1.22-.57-.01-.79-1.23-.22-.48.85.01.79Z"/><path class="cls-36" d="m293.92,305.36c-1.15-.38-1.54-1.08-.02-1.04,1.53.04,1.17,1.42.02,1.04Z"/><path class="cls-36" d="m294.89,303.12c-.32.02-.34-.77-.01-.84.33-.07.67.79.01.84Z"/><path class="cls-91" d="m276.42,271.15c-3.8,7.24,19.48,13.31,37.24,7.65,14.06-4.48,18.3-8.47,10.71-13.43-7.58-4.96-17.64,6.96-26.46,3.42-8.83-3.55-18.53-3.28-21.49,2.36Z"/><path class="cls-16" d="m281.04,303.41c9.13,5.47,22.97,15.58,42.35,4.29,19.37-11.29-5.15,6.4-15.88,8.06-10.73,1.66-35.08-17.52-26.46-12.35Z"/><path class="cls-17" d="m282.05,259.98c4.59-2.49,2.03,1.23-1.64,4.81-3.67,3.57-7.6,8.64-7.96,15.8-.37,7.16,1.15,12.99,3.12,16.77,1.97,3.77-6.82-3.14-6.45-15.77.38-12.63,8.85-19.4,12.93-21.61Z"/><path class="cls-17" d="m318.59,259.14c5.1,3.43,11.35,8.35,14.68,18.18,3.33,9.83,3.12.51,1.83-3.9-1.28-4.42-3.97-9.11-10.6-13.42-4.36-2.84-11.79-4.8-5.92-.85Z"/><path class="cls-51" d="m275.89,264.86c1.79-2.02,1.53,2.13-.31,5.83-1.83,3.7-6.98,10.06-5.96,6.4,1.02-3.66,2.69-8.18,6.26-12.23Z"/><path class="cls-39" d="m323.22,274.64c-3.85,2.3-6.55,1.68-10.1,1.92-3.54.24-5.22,3.15-8.97,3.51-3.75.36-9.53-3.02-11.67-2.28-2.15.74-8.22.47-10.71-.13-1.97-.47-4.9-2.74-4.68-2.44.17.18.43.43.89.84,5.63,4.58,22.24,7.02,35.68,2.74,6.34-2.02,10.68-3.94,12.84-5.9.8-1.05.54-.55-3.28,1.73Z"/><path class="cls-17" d="m273.01,295.73c1.33,1.86-.31-4.67-1.2-6.7-.89-2.03-3.02-7.12-2.59-4.06.43,3.07,1.65,7.76,3.79,10.76Z"/></g><polygon class="cls-6" points="222.01 268.6 264.47 284.22 264.47 289 221.38 270 222.01 268.6"/><polygon class="cls-67" points="300.94 318.58 307.04 318.58 304.93 328.36 302.33 328.36 300.94 318.58"/><g><path class="cls-28" d="m204.76,230.45s-11.33,2.44-21.83-.04c0,0,1.51,4.29,2.57,5.41,1.06,1.12,14.74,1.37,17.21.06,2.47-1.3,2.05-5.44,2.05-5.44Z"/><path class="cls-34" d="m204.05,229.06s-3.33.95-9.82.84c-6.48-.1-10.22-.68-10.22-.68,0,0,9.89-2.94,20.04-.16Z"/><path class="cls-17" d="m185.11,227.09l.83,1.04s-4.28.2-3.36,1.16,5.26,1.95,5.26,1.95c-.93-.06-1.85-.15-2.7-.27,1.29.32,3.32.92,4.48,2.54.41.57.57.97,1.49,1.7.92.73,1.95,1.48,1.39,1.55s-6.44-.35-6.98-.83c-.55-.49-2.57-5.36-2.57-5.36-1.9-.47-2.99-1.1-2.31-1.77,1.16-1.14,4.48-1.69,4.48-1.69Z"/><path class="cls-17" d="m196.58,236.32c.74-.25,1.46-.4,2.91-1.83,1.4-1.38,1.55-3.17,3.34-3.69-1.02.16-1.83.25-1.83.25,0,0,4.01-.93,3.99-2.01-.02-1.08-1.92-.82-1.92-.82l.61-.98s2.62.67,3.3,1.89c.3.54-.85.98-2.22,1.3.15.84.03,3.12-.91,4.42-.93,1.31-2.43,1.65-5.12,1.76-2.7.11-2.89-.05-2.16-.3Z"/></g><polygon class="cls-83" points="171.01 270.29 156.46 403.65 162.02 403.65 173.29 276.67 171.01 270.29"/><polygon class="cls-83" points="198.01 270.29 198.4 413.3 192.83 413.3 195.02 276.67 198.01 270.29"/><polygon class="cls-83" points="277.37 299.9 262.81 403.65 268.38 403.65 279.65 304.79 277.37 299.9"/><polygon class="cls-83" points="123.67 418.73 125.1 424.76 265.55 424.76 266.6 418.73 171.4 418.73 123.67 418.73"/><g><path class="cls-56" d="m341.3,436.22l-25.76-41.47c-1.5-2.42-2.29-5.21-2.27-8.05l.21-31.15h-19.2l1.21,30.08c.12,3.04-.68,6.05-2.3,8.63l-26.36,41.92c-3.27,5.2.48,11.95,6.63,11.95h61.19c6.14,0,9.89-6.72,6.66-11.92Zm-7.05,4.75c-4.04,2.57-59.6,3.47-61.83-1.37-2.23-4.83,27.4-42.03,28.35-48.55.95-6.52-2.37-33.47-2.37-33.47l9.74-.78s.12,25.74.71,33.5c.59,7.77,29.44,48.09,25.41,50.66Z"/><path class="cls-46" d="m308.13,356.8l-9.74.78s3.32,26.96,2.37,33.47c-.95,6.52-30.58,43.72-28.35,48.55,2.23,4.83,57.79,3.94,61.83,1.37,4.04-2.57-24.81-42.89-25.41-50.66-.59-7.77-.71-33.5-.71-33.5Z"/><path class="cls-56" d="m302.53,347.16c8.5-.24,13.1.53,14.87,2.12,1.77,1.59-1,6.76-2.48,8-1.47,1.24-14.39,1.94-18.47,1.29-4.07-.65-5.01-1.85-6.08-4.95-1.06-3.1,1.3-4.28,3.83-5.22,2.54-.94,8.32-1.24,8.32-1.24Z"/><path class="cls-28" d="m292.91,351.8s11.5,1.94,21.94-1.03c0,0-1.32,4.38-2.34,5.56-1.02,1.18-14.75,2.04-17.3.84s-2.31-5.37-2.31-5.37Z"/><path class="cls-34" d="m293.56,350.37s2.84,1.9,9.35,1.5c6.51-.4,10.8-2.25,10.8-2.25,0,0-10.07-2.51-20.15.74Z"/><path class="cls-17" d="m312.51,347.54l-.79,1.08s4.31.01,3.43,1.01c-.88,1-5.2,2.2-5.2,2.2.94-.1,1.85-.24,2.7-.4-1.28.38-3.3,1.07-4.38,2.75-.38.59-.53,1-1.42,1.78s-1.89,1.58-1.32,1.62c.57.04,6.45-.64,6.98-1.16.53-.51,2.34-5.5,2.34-5.5,1.89-.55,2.96-1.24,2.24-1.88-1.21-1.09-4.58-1.5-4.58-1.5Z"/><path class="cls-17" d="m301.41,357.33c-.75-.22-1.49-.34-3.01-1.71-1.47-1.32-1.7-3.12-3.53-3.56,1.04.12,1.85.16,1.85.16,0,0-4.07-.75-4.1-1.84-.03-1.09,1.89-.91,1.89-.91l-.65-.95s-2.6.8-3.23,2.05c-.28.56.9.95,2.29,1.21-.11.85.12,3.14,1.11,4.4,1,1.27,2.51,1.55,5.23,1.54,2.71-.01,2.91-.18,2.15-.4Z"/><path class="cls-17" d="m296.85,374.7c1.13,2.14,4.02,13.41,2.62,17.34-1.4,3.94-20.87,34.12-24.05,36.3-3.18,2.18,17.05-31.75,19.29-37.29,2.24-5.54.19-20.06,2.14-16.35Z"/><path class="cls-17" d="m310.03,383.66c-1.07,4.57-2.14,10.25,6.77,20.54s-3.3-9.33-3.79-13.9c-.49-4.57-1.71-12.07-2.98-6.64Z"/><path class="cls-9" d="m274.09,442.04c7.91.87,41.52,2.25,54.23,1.02,12.7-1.23-5.11,2.87-25.41,3.07-20.3.2-36.38-4.91-28.82-4.08Z"/><path class="cls-47" d="m288.67,402.96c-1.1,2.57,3.45-2.06,4.82-4.22,1.37-2.17,5.44-9.03,2.37-6.53-3.07,2.5-6.13,8.29-7.19,10.76Z"/><path class="cls-116" d="m290.05,409.69c3.27-5.47,12.74-4.3,17.8-2.55,5.07,1.75,9.44,1.07,10.37,2.63s-1.11,5.14-1.11,5.14l-21.61.38-5.45-5.59Z"/><path class="cls-98" d="m272.93,439.37c2.19,4.75,56.85,3.87,60.82,1.35,2.46-1.56-7.46-17.33-15.53-30.95-1.1.16-3.21.66-6.55,2.2-5.25,2.42-17.17-7.2-21.62-2.28-8.4,12.41-18.44,26.81-17.12,29.68Z"/></g><polygon class="cls-83" points="340.96 421.74 341.48 424.76 372.18 424.76 374.66 418.73 339.11 418.73 340.96 421.74"/><g class="cls-102"><g><g><path class="cls-56" d="m128.38,345.77v82.35c0,4.95,4.03,8.97,9,8.97s9-4.02,9-8.97v-82.35h-17.99Zm12.55,76.18c-.48,7.43-6.1,8.44-6.57,2.43-.48-6.01-.6-76.85-.6-76.85l7.17-.55s.48,67.54,0,74.97Z"/><path class="cls-46" d="m133.76,347.53s.12,70.84.6,76.85c.48,6.01,6.1,5,6.57-2.43.48-7.43,0-74.97,0-74.97l-7.17.55Z"/></g><path class="cls-56" d="m137.94,336.97c-8.45.15-12.98,1.11-14.66,2.77-1.69,1.66,1.3,6.67,2.82,7.83,1.52,1.16,14.38,1.28,18.39.46,4.01-.82,4.9-2.06,5.81-5.19s-1.48-4.19-4.04-5.01c-2.56-.82-8.31-.85-8.31-.85Z"/><path class="cls-28" d="m147.7,341.15s-11.33,2.44-21.83-.04c0,0,1.51,4.29,2.57,5.41,1.06,1.12,14.74,1.37,17.21.06,2.47-1.3,2.05-5.44,2.05-5.44Z"/><path class="cls-34" d="m146.99,339.76s-3.33.95-9.82.84c-6.48-.1-10.22-.68-10.22-.68,0,0,9.89-2.94,20.04-.16Z"/><path class="cls-17" d="m128.05,337.79l.83,1.04s-4.28.2-3.36,1.16c.92.95,5.26,1.95,5.26,1.95-.94-.06-1.85-.15-2.7-.27,1.29.32,3.32.92,4.48,2.54.41.57.57.97,1.49,1.7s1.95,1.48,1.39,1.55-6.44-.35-6.98-.83c-.55-.49-2.57-5.36-2.57-5.36-1.9-.47-2.99-1.1-2.31-1.77,1.16-1.14,4.48-1.69,4.48-1.69Z"/><path class="cls-17" d="m139.51,347.02c.74-.25,1.46-.4,2.91-1.83,1.4-1.38,1.55-3.17,3.34-3.69-1.02.16-1.83.25-1.83.25,0,0,4.01-.93,3.99-2.01-.02-1.08-1.92-.82-1.92-.82l.61-.98s2.62.67,3.3,1.89c.3.54-.85.98-2.22,1.3.15.84.03,3.12-.91,4.42-.93,1.3-2.43,1.65-5.12,1.76-2.69.11-2.89-.05-2.16-.3Z"/><path class="cls-17" d="m130.1,353.41c.92,3.6,3.5,22.49,2.99,35.22-.52,12.74-2.09,40.06-3.4,26.7-1.31-13.35-1.85-70.86.41-61.93Z"/><path class="cls-17" d="m144.11,415.09c-.73-2.37-2.81-14.79-2.4-23.17.41-8.38,1.68-26.35,2.73-17.57,1.05,8.78,1.49,46.61-.33,40.74Z"/><path class="cls-19" d="m133.76,425c1.08,7.08,6.95,3.85,7.33,0,.36-3.7.96,7.06-3.29,7.08-5.97.02-4.73-11.66-4.03-7.08Z"/><path class="cls-47" d="m129.79,384.14c.6,2.71,1.6-3.65,1.45-6.19s-.83-10.44-1.86-6.65c-1.03,3.79-.16,10.23.41,12.84Z"/><path class="cls-118" d="m134.25,376.43s1.52-3.93,6.43-.64l-2.36,3.6-3.71-1-.36-1.95Z"/><path class="cls-103" d="m140.54,421.45c.24-4.05.21-26.94.13-45.66-3.53,2.4-5.52,1.47-6.43.64.07,19.64.21,43.99.46,47.32.42,5.69,5.41,4.73,5.84-2.3Z"/></g></g></g><g><g><path class="cls-112" d="m86.17,438.72c.05.3,2.21,3.06,4.34,4.94,2.13,1.88,3.61,2.85,4.18,2.99.56.14,5.24-1.98,5.75-2.34.51-.37.74-1.48.73-1.81,0-.34-2.11-9.31-2.75-9.99-.63-.68-5.06-2.84-5.53-3-.47-.16-2.16.71-2.47,1.07s-4.4,7.14-4.24,8.15Z"/><path class="cls-26" d="m91.16,443.51c1.33-1.14,2.51-1.03,4.77-.64,2.26.39,2.85.44,3.96.4,1.11-.04.18,1.07-.88,1.74-1.06.67-4.12,1.38-5.61.56-1.49-.83-2.48-1.86-2.24-2.06Z"/><path class="cls-7" d="m90.24,430.82c2.35-.3,3.78,5.09,3.65,8.36-.13,3.27-3.38,4.48-3.38,4.48l-4.34-4.94,4.07-7.9Z"/></g><path class="cls-54" d="m81.3,404.26c-5.27-.79-5.09,48.86,2.76,38.57,8.07-10.58.7-38.05-2.76-38.57Z"/><path class="cls-56" d="m93.66,444.74c-.02-.76-3.1-13.39-4.56-21.01-1.46-7.62-2.99-17.86-3.06-19.82-.07-1.95-.35-2.34-1.61-3.1-1.36-.82-3.67-2.23-4.18-3.73-.48-1.41-.21-3.22.53-3.38.73-.16-.04-1.5-.04-1.5l-8.93,1.58c1.16.08,1.17,1.41,1.16,3.03-.01,1.87-3.33,3.7-4.17,4.2-1.42.86-1.43,1.51-1.56,5.14-.13,3.64-1.75,15.33-3.42,21.96-1.95,7.71-3.75,14.5-3.78,14.98-.03.49.1,1.91.47,2.47,1.37,2.07,13.98,4.92,17.93,4.95,2.97.02,13.88-2.67,14.51-3.18s.75-1.84.73-2.6Zm-23.39-1.97c-9.6-8.72-.55-38.05,2.74-38.57,5-.79,3.9,44.59-2.74,38.57Zm13.79.06c-7.85,10.29-8.04-39.36-2.76-38.57,3.46.52,10.84,27.99,2.76,38.57Z"/><path class="cls-48" d="m73,404.2c5-.79,3.9,44.59-2.74,38.57-9.6-8.72-.55-38.05,2.74-38.57Z"/><path class="cls-32" d="m74.05,393.61s1.08,3.13.78,3.77c-.3.64,3.82-.64,3.82-.64,0,0-.57-3.04.76-3.79s-5.36.66-5.36.66Z"/><path class="cls-5" d="m79.29,442.09c2.11,4.03,3.33,6.74,6.95-.7,3.61-7.44-.69,5.9-3.33,6.36-2.64.46-4.85-8.01-3.62-5.67Z"/><path class="cls-17" d="m67.77,404.8c.4-2.46,1.24-.23,1.63,2.5.39,2.73-1.43,5.57-2.48,9.96-1.05,4.39-1.75,16.63-2.01,13.43-.26-3.19,1.37-15.02,1.92-17.54.55-2.52.85-7.8.94-8.35Z"/><path class="cls-17" d="m78.17,403.33c.16-1.1.7,4.52.19,6.98s-.78,9.68-1.03,14.05c-.25,4.37,1.03,13.84,1.03,14.56,0,.72-1.47-4.56-1.4-15.13.07-10.57.68-14.04.96-16.9.28-2.86.25-3.56.25-3.56Z"/><path class="cls-17" d="m84.62,402.23c-1.44,2.03-.2,4.96.68,8.12.88,3.16,2.18,7.12,2.44,12.46.26,5.33.66-3.13-.33-8.59-.99-5.46-1.31-11.82-1.74-12.34s-1.04.35-1.04.35Z"/><path class="cls-47" d="m67.66,406.07c.22-1.77,1.39,2.13.93,4.63-.46,2.5-2.24,7.48-1.99,4.96.24-2.52,1.07-9.59,1.07-9.59Z"/><path class="cls-53" d="m84.82,407.57c-.28-2.46,1.19-4.55,1.38-2.53.19,2.02,1.34,8.46-.04,6-1.38-2.45-1.33-3.47-1.33-3.47Z"/><path class="cls-11" d="m73.73,441.89c-.91,2.3-4.27,2.12-5.49,1.7-1.22-.42,3.37,2.23,5.27,1.99s.68-4.86.22-3.69Z"/><path class="cls-23" d="m71.3,399.33s1.48,2.61,5.25,1.82c3.77-.79,5.51-1.58,6.56-1.17l-1.56-1.18-2.55-.64,1.1-3.42s.25-.96.56-1.05c.32-.09-1.66-.72-1.66-.72l-6.88.9s3.67.64,4.9.67c1.23.04.42.66-.19.84-.61.19-3.22-.16-3.99-.57l1.25,3.59-2.69.82-.11.12Z"/><path class="cls-69" d="m72.59,394.2s.23.23.25.6c0,0,1.02.74,3.38.76,2.36.02,3.88-.82,3.88-.82l.12-.42s1.09-.24,1.33-.05c.24.19-.42,1.82-.42,1.82,0,0,.84-.09,1.01,0,.16.1-.39,1.89-.32,2.3.08.41-.59,2.11-5.21,2.24-4.63.13-5.46-1.48-5.27-1.83.19-.35-.78-2.04-.55-2.42.22-.38,1.23-.36,1.23-.36,0,0-.45-1.31-.42-1.64.03-.33,1.01-.18,1.01-.18Z"/><path class="cls-114" d="m72.59,394.2s.28.23.25.6c0,0,2.99,1.69,7.25-.06l.12-.42s.9-.23,1.26-.09-.23,1.33-2.32,2.09c-2.09.76-5.92-.18-6.89-.98-.97-.8-.95-1.38.33-1.13Z"/><path class="cls-114" d="m72.01,396.02s3.02,4.04,9.12.06c0,0,.75-.15,1.01,0,.26.16-2.41,2.85-5.87,2.77s-7.77-2.78-4.26-2.84Z"/><path class="cls-52" d="m68.65,401.1c.95-.31,3.21-.59,3.61-.41.4.18-2.66.76-3.52,1.38-.86.62-1.49.43-.95-.16.54-.59.52-.7.86-.81Z"/><path class="cls-14" d="m79.85,401.75c3.47-.17,5.71-.17,3.37-1.03-2.34-.87-3.05-.07-4.6.5-1.55.57-1.27.66,1.23.54Z"/><path class="cls-56" d="m66.69,386.18c.99-.97,5.57-2.19,10.09-2.26,4.52-.08,8.1.44,8.78,1.72.48.9.48,2.71-.74,4.83-1.27,2.2-2.31,3.07-4.51,3.3-2.13.23-7.38.47-9.61-.22-2.23-.69-2.92-1.95-3.6-3.12-.65-1.12-1.42-3.24-.41-4.24Z"/><path class="cls-28" d="m68.3,386.97s13.55,2.66,16.51-.1c0,0-2.07,4.52-4.08,5.32-2.01.8-6.48,1.15-9.92-.07-3.44-1.22-2.52-5.15-2.52-5.15Z"/><path class="cls-14" d="m69.38,386.17s1.86,1.61,6.88,1.94c5.02.34,7.57-1.95,7.57-1.95,0,0-6.95,1.56-14.45,0Z"/><path class="cls-17" d="m82.25,384.21l-.13,1.07s2.9.08,2.43,1.08c-.47,1-3.49,1.69-3.49,1.69.59-.04,1.13-.11,1.61-.22-1.5.5-2.39.64-4.04,2.78-1.49,1.93-2.45,2.45-1.64,2.32s2.48-.17,4.04-.88c1.4-.63,3.33-4.28,3.71-5.04.64-.43.94-.93.82-1.38-.28-.98-3.31-1.42-3.31-1.42Z"/><path class="cls-17" d="m72.1,390.37c-1.01-1.34-.95-2.69-1.99-3.02.47.05.79.07.79.07,0,0-3.18-.86-2.7-1.38.48-.52,2.01-.5,2.01-.5l-.22-.72s-2.37.47-3.3,1.36c-.44.42.49.72,1.59.92-.09.55-.36,2.79,1,4.06,1.56,1.45,4.55,1.75,5.37,1.75.82,0-.88-.33-2.55-2.54Z"/><path class="cls-34" d="m72.07,387.7s5.18.69,7.51.46c2.33-.23-1.97,4.59-3.27,4.58-1.3,0-3.32-1.98-4.24-5.04Z"/></g></g></g></svg>