<?xml version="1.0" encoding="UTF-8"?><svg xmlns="http://www.w3.org/2000/svg" xmlns:xlink="http://www.w3.org/1999/xlink" viewBox="0 0 1107.81 489.79"><defs><style>.cls-1{fill:#612234;}.cls-1,.cls-2,.cls-3,.cls-4,.cls-5,.cls-6,.cls-7,.cls-8,.cls-9,.cls-10,.cls-11,.cls-12,.cls-13,.cls-14,.cls-15,.cls-16,.cls-17,.cls-18,.cls-19,.cls-20,.cls-21,.cls-22,.cls-23,.cls-24,.cls-25,.cls-26,.cls-27,.cls-28,.cls-29,.cls-30,.cls-31,.cls-32,.cls-33,.cls-34,.cls-35,.cls-36,.cls-37,.cls-38,.cls-39,.cls-40,.cls-41,.cls-42,.cls-43,.cls-44,.cls-45,.cls-46,.cls-47,.cls-48,.cls-49,.cls-50,.cls-51,.cls-52,.cls-53,.cls-54{fill-rule:evenodd;}.cls-2,.cls-22{opacity:.2;}.cls-2,.cls-55,.cls-48{fill:#1f0020;}.cls-3,.cls-34{fill:#ffb864;}.cls-56{fill:url(#_Áåçûìÿííûé_ãðàäèåíò_104-3);}.cls-4{fill:#3b465c;}.cls-5{fill:#700123;}.cls-5,.cls-57{opacity:.31;}.cls-6,.cls-58{fill:#430827;}.cls-7{fill:url(#_Áåçûìÿííûé_ãðàäèåíò_68);}.cls-8{fill:#9a5239;}.cls-9{fill:#fff;}.cls-9,.cls-25,.cls-43,.cls-52{opacity:.5;}.cls-9,.cls-29,.cls-43{mix-blend-mode:soft-light;}.cls-10,.cls-25{fill:#29354d;}.cls-59{isolation:isolate;}.cls-60{fill:#f67865;}.cls-11{fill:#67363f;}.cls-12{fill:#ff894d;}.cls-13{fill:url(#_Áåçûìÿííûé_ãðàäèåíò_128-2);}.cls-14{fill:#ffa483;}.cls-15{fill:#fb8b57;}.cls-16{fill:#3a1a33;}.cls-17,.cls-33,.cls-61,.cls-62,.cls-63{opacity:.42;}.cls-17,.cls-62{fill:#952a5c;}.cls-18,.cls-43,.cls-52{fill:#ffe2d1;}.cls-64{opacity:.53;}.cls-64,.cls-22,.cls-65,.cls-33,.cls-40,.cls-63{fill:#5b0036;}.cls-19{fill:#60204a;}.cls-20{fill:#3a0926;}.cls-20,.cls-50{opacity:.47;}.cls-66,.cls-32{fill:#2e0020;}.cls-21{fill:#782741;}.cls-23{fill:#1f0022;opacity:.37;}.cls-67{fill:url(#_Áåçûìÿííûé_ãðàäèåíò_24);}.cls-24{fill:#bd3d45;}.cls-26{fill:#bf5d6b;}.cls-27{fill:#ffc483;}.cls-68{mix-blend-mode:screen;}.cls-28{fill:#32063b;}.cls-29{fill:#ffb89a;}.cls-30{fill:#bc9d98;}.cls-31{fill:#ff7033;}.cls-65,.cls-40{opacity:.49;}.cls-69{fill:#ff8e65;}.cls-34{opacity:.35;}.cls-35{fill:#cdb6b2;}.cls-36{fill:#900477;mix-blend-mode:multiply;opacity:.4;}.cls-61{fill:#450036;}.cls-37{fill:url(#_Áåçûìÿííûé_ãðàäèåíò_32);}.cls-38{fill:#270020;}.cls-70{fill:url(#_Áåçûìÿííûé_ãðàäèåíò_104);}.cls-39{fill:#590029;opacity:.76;}.cls-41{fill:#8f4d55;}.cls-42{fill:url(#_Áåçûìÿííûé_ãðàäèåíò_104-2);}.cls-44{fill:#cb734f;}.cls-45{fill:#500631;}.cls-46{fill:#722924;}.cls-47{fill:#690123;opacity:.38;}.cls-49{fill:url(#_Áåçûìÿííûé_ãðàäèåíò_128);}.cls-50{fill:#37002f;}.cls-51{fill:url(#_Áåçûìÿííûé_ãðàäèåíò_104-4);}.cls-53{fill:#844638;}.cls-54{fill:#813f2b;}</style><linearGradient id="_Áåçûìÿííûé_ãðàäèåíò_68" x1="833.92" y1="193.45" x2="907.98" y2="193.45" gradientUnits="userSpaceOnUse"><stop offset=".05" stop-color="#420037"/><stop offset=".98" stop-color="#661820"/></linearGradient><linearGradient id="_Áåçûìÿííûé_ãðàäèåíò_128" x1="882.5" y1="213.42" x2="882.5" y2="141.7" gradientUnits="userSpaceOnUse"><stop offset=".03" stop-color="#e22f45"/><stop offset="1" stop-color="#ffa981"/></linearGradient><linearGradient id="_Áåçûìÿííûé_ãðàäèåíò_128-2" x1="1011.08" y1="207.27" x2="1011.08" y2="176.55" xlink:href="#_Áåçûìÿííûé_ãðàäèåíò_128"/><radialGradient id="_Áåçûìÿííûé_ãðàäèåíò_104" cx="1016.94" cy="379.48" fx="1016.94" fy="379.48" r="8.65" gradientTransform="translate(0 -142.42)" gradientUnits="userSpaceOnUse"><stop offset="0" stop-color="#a83345"/><stop offset="1" stop-color="#60254f"/></radialGradient><radialGradient id="_Áåçûìÿííûé_ãðàäèåíò_104-2" cx="1017.28" cy="358.61" fx="1017.28" fy="358.61" r="12.46" xlink:href="#_Áåçûìÿííûé_ãðàäèåíò_104"/><radialGradient id="_Áåçûìÿííûé_ãðàäèåíò_104-3" cx="972.84" cy="381.4" fx="972.84" fy="381.4" r="8.65" xlink:href="#_Áåçûìÿííûé_ãðàäèåíò_104"/><radialGradient id="_Áåçûìÿííûé_ãðàäèåíò_104-4" cx="973.18" cy="360.52" fx="973.18" fy="360.52" r="12.46" xlink:href="#_Áåçûìÿííûé_ãðàäèåíò_104"/><linearGradient id="_Áåçûìÿííûé_ãðàäèåíò_32" x1="541.86" y1="68.38" x2="579.58" y2="68.38" gradientUnits="userSpaceOnUse"><stop offset=".03" stop-color="#ffc4a4"/><stop offset="1" stop-color="#ffd8bb"/></linearGradient><linearGradient id="_Áåçûìÿííûé_ãðàäèåíò_24" x1="494.83" y1="66.76" x2="514.81" y2="66.76" gradientUnits="userSpaceOnUse"><stop offset="0" stop-color="#ff614a"/><stop offset=".98" stop-color="#ff905e"/></linearGradient></defs><g class="cls-59"><g id="layer1"><polygon class="cls-47" points="935.81 482.91 817.99 489.79 102.59 490.19 31.87 461.04 596.74 471.23 935.81 482.91"/></g><g id="Calque_2"><g><g><g><polygon class="cls-32" points="402.05 266.59 394.6 227.57 758.02 242.36 758.02 266.59 402.05 266.59"/><polygon class="cls-45" points="758.02 242.36 1107.81 236.16 1100.73 266.59 758.02 266.59 758.02 242.36"/><polygon class="cls-38" points="829.58 266.59 826.96 266.59 834.37 241.01 572.57 229.51 837.08 240.87 829.58 266.59"/><polygon class="cls-38" points="904.49 266.59 904.49 239.76 905.63 266.59 904.49 266.59"/><polygon class="cls-38" points="991.93 266.59 994.56 238.1 993.3 266.59 991.93 266.59"/><polygon class="cls-38" points="1043.34 266.59 1046.67 237.24 612.01 230.76 1055.5 237.08 1047.63 266.59 1043.34 266.59"/><polygon class="cls-32" points="416.46 266.59 420.6 288.64 1078.95 288.64 1090.52 266.59 416.46 266.59"/><polygon class="cls-45" points="1083.66 288.64 758.02 288.64 758.02 272.9 1088.3 270.84 1083.66 288.64"/><polygon class="cls-32" points="529.01 288.64 538.5 460.13 557.52 460.13 556.1 288.64 529.01 288.64"/><polygon class="cls-6" points="556.1 288.64 586.98 288.64 580.81 460.13 557.52 460.13 556.1 288.64"/><polygon class="cls-6" points="937.09 482.28 940.12 457.94 812.26 464.15 812.26 482.28 937.09 482.28"/><polygon class="cls-32" points="812.26 464.15 732.87 457.94 735.74 482.28 812.26 482.28 812.26 464.15"/><polygon class="cls-31" points="732.87 457.94 940.12 457.94 812.26 464.15 732.87 457.94"/><polygon class="cls-32" points="801.78 288.64 805.6 460.13 824.63 460.13 828.87 288.64 801.78 288.64"/><polygon class="cls-6" points="828.87 288.64 859.75 288.64 847.91 460.13 824.63 460.13 828.87 288.64"/><polygon class="cls-32" points="859.75 288.64 858.86 301.5 828.27 312.98 828.87 288.64 859.75 288.64"/><polygon class="cls-32" points="556.1 312.98 586.55 300.81 586.98 288.64 556.1 288.64 556.1 312.98"/><polygon class="cls-23" points="556.72 363.61 584.44 359.14 584.28 363.61 556.72 366.47 556.72 363.61"/><polygon class="cls-23" points="557.52 440.37 581.8 432.48 581.8 434.46 556.95 443.41 557.52 440.37"/><polygon class="cls-23" points="852.27 396.93 826.19 396.93 826.07 401.73 852.11 399.33 852.27 396.93"/><polygon class="cls-23" points="859.75 482.28 876.19 461.04 891.13 461.04 869.05 482.28 859.75 482.28"/><polygon class="cls-23" points="926.44 457.94 915.47 482.28 923.16 482.28 932.91 457.94 926.44 457.94"/><polygon class="cls-23" points="570.42 482.28 579.77 462.47 583.9 462.47 574.08 482.28 570.42 482.28"/><polygon class="cls-23" points="618.27 460.6 615.95 482.28 624.54 482.28 626.15 460.6 618.27 460.6"/><polygon class="cls-23" points="630.81 459.99 630.81 482.28 636.7 482.28 635.66 459.76 630.81 459.99"/><polygon class="cls-20" points="904.49 239.76 904.49 266.59 991.93 266.59 994.56 238.1 904.49 239.76"/><polygon class="cls-21" points="801.78 463.33 812.26 470.11 823.14 463.62 801.78 463.33"/><polygon class="cls-31" points="1107.81 236.16 394.6 227.57 758.02 242.36 1107.81 236.16"/></g><g><path class="cls-7" d="m900.85,237.81l7.13-80.39s-41.61-14.71-74.06-5.02l2.99,85.41h63.94Z"/><rect class="cls-55" x="848.65" y="195.39" width="84.55" height=".52" transform="translate(629.35 1069.49) rotate(-85.72)"/><polygon class="cls-48" points="852.46 149.28 856.05 158.85 859.05 149.28 852.46 149.28"/><polygon class="cls-48" points="886.21 237.81 891.41 189.04 888.81 237.81 886.21 237.81"/><path class="cls-50" d="m891.41,152.89l-35.65,72.95.29-51.56,12.92-24.79s15.68,1.78,22.44,3.4Z"/><polygon class="cls-50" points="892.52 174.28 856.05 228 855.76 231.35 892.09 178.94 892.52 174.28"/><polygon class="cls-6" points="836.64 230.09 855.76 217.17 856.24 206.58 835.79 210.71 836.64 230.09"/><polygon class="cls-38" points="834.73 166.2 822.26 150.98 790.15 164.26 808.86 229.27 836.33 226.66 835.96 213.13 817.48 213.85 809.41 178.03 821.97 169.49 835.14 181.81 834.73 166.2"/><polygon class="cls-45" points="841.17 166.2 830 149.09 801.21 161.42 817.99 229.27 842.61 226.66 842.28 213.13 825.72 213.85 818.48 178.03 829.74 169.49 841.54 181.81 841.17 166.2"/><polygon class="cls-15" points="830 149.09 822.26 150.98 790.15 164.26 801.21 161.42 830 149.09"/><polygon class="cls-48" points="808.86 229.27 817.99 229.27 801.21 161.42 790.15 164.26 808.86 229.27"/><polygon class="cls-6" points="806.99 158.95 802.76 167.67 797.56 162.36 806.99 158.95"/><rect class="cls-55" x="855.79" y="149.12" width=".52" height="88.68"/><path class="cls-48" d="m904.99,191.15s-42.9-2.76-69.78-1.97l.52,14.89s26.43-5.02,68.11,0l1.15-12.92Z"/><polygon class="cls-48" points="825.45 172.74 835.14 183.6 841.54 181.81 829.74 169.49 825.45 172.74"/><polygon class="cls-48" points="841.54 181.81 835.79 208.02 835.14 183.6 841.54 181.81"/><polygon class="cls-39" points="842.61 226.66 836.91 237.81 836.33 226.66 842.61 226.66"/><path class="cls-49" d="m842.61,150.39s-2.42-5.15,1.53-6.83c4.89-2.08,19.15,3.95,19.15,3.95,0,0,5.53-5.81,12.47-5.81,7.94,0,8.78,7.39,8.78,7.39,0,0,3.36-1.61,4.87,0,0,0,19.15-8.13,28.56-3.43,9.41,4.7,2.18,20.83,2.18,20.83,0,0,4.12,4.99,2.65,10.06-1.47,5.06-5.67,5.12-5.67,5.12,0,0,2.69,13.78-.5,22.4-3.19,8.62-13.61,9.36-13.61,9.36l4.97-56.01s-22.3-8.35-65.37-7.03Z"/></g><g><path class="cls-13" d="m999.48,206.17l-1.39-24.36s14.14-7.85,25.99-4.39l-2.61,29.84-21.99-1.09Z"/><path class="cls-26" d="m1008.06,177.92s2.39-9.79,6.57-10.82l.58.53s-5.01,3.74-6.34,10.29h-.8Z"/><path class="cls-2" d="m998.08,181.81s2.03,18.52,4.12,20.86c2.09,2.34,14.41,1.53,17.02.96,2.61-.57,4.63-23.67,4.63-23.67l-2.39,27.3-21.99.3-1.39-25.76Z"/><rect class="cls-70" x="996.5" y="231" width="28.15" height="4.86"/><path class="cls-12" d="m1024.65,231s-13.49-1.36-28.15,0c0,0,11.34,1.46,28.15,0Z"/><path class="cls-42" d="m994.34,207.14l1.18,13.38,28.91-.63,1.5-12.75s-6.22-1.62-13.11-1.62c-14.09,0-18.48,1.62-18.48,1.62Z"/><path class="cls-28" d="m995.52,220.52s18.99,1.69,28.91-.63c0,0-15.54-1.87-28.91.63Z"/><path class="cls-28" d="m1006.43,220.09s5.12-1.1,8.2,0l-.89,10.91h-6.37l-.94-10.91Z"/><path class="cls-52" d="m1014.24,205.8l-.21,12.25,6.6.31.83-11.11s-1.08-1.58-7.22-1.46Z"/><polygon class="cls-43" points="995.52 208 996.28 207.57 997.1 219.22 996.28 219.22 995.52 208"/><polygon class="cls-52" points="1014.63 231.58 1014.93 235.86 1017.98 235.86 1017.75 231.65 1014.63 231.58"/><path class="cls-18" d="m1017.43,181.81c-1.06-.69-1.86,4.75-1.24,6.29.62,1.54,1.17,3.34,1.69,3.36.52.02,1.99-8.05-.45-9.65Z"/><path class="cls-18" d="m1015.2,176.64s1.27,2.42,2.17,2.53c.91.1,1.42-2.53,1.42-2.53,0,0-1.62-.21-3.59,0Z"/><path class="cls-18" d="m1010.97,170.54c1.8,4.25,6.05-2.24,5.34-17.46-.72-15.22-1.68-29.63-1.68-29.63,0,0-5.59,42.52-3.66,47.09Z"/></g><g><path class="cls-24" d="m955.37,208.07l-1.39-24.36s14.15-7.85,25.99-4.39l-2.61,29.84-21.99-1.09Z"/><path class="cls-26" d="m963.96,179.81s2.39-9.79,6.57-10.82l.58.53s-5.01,3.74-6.34,10.29h-.8Z"/><path class="cls-2" d="m953.98,183.71s2.03,18.52,4.12,20.86c2.09,2.34,14.41,1.53,17.02.96s4.63-23.67,4.63-23.67l-2.39,27.3-21.99.3-1.39-25.76Z"/><rect class="cls-56" x="952.4" y="232.89" width="28.15" height="4.86"/><path class="cls-12" d="m980.55,232.89s-13.49-1.36-28.15,0c0,0,11.34,1.46,28.15,0Z"/><path class="cls-51" d="m950.23,209.03l1.18,13.38,28.91-.63,1.5-12.75s-6.22-1.62-13.11-1.62c-14.09,0-18.48,1.62-18.48,1.62Z"/><path class="cls-28" d="m951.42,222.41s18.99,1.69,28.91-.63c0,0-15.54-1.87-28.91.63Z"/><path class="cls-28" d="m962.33,221.98s5.12-1.1,8.2,0l-.89,10.91h-6.37l-.94-10.91Z"/><path class="cls-52" d="m970.14,207.7l-.21,12.25,6.6.31.83-11.11s-1.08-1.58-7.22-1.46Z"/><polygon class="cls-43" points="951.42 209.89 952.18 209.46 952.99 221.12 952.18 221.12 951.42 209.89"/><polygon class="cls-52" points="970.52 233.47 970.83 237.76 973.88 237.76 973.64 233.54 970.52 233.47"/><path class="cls-14" d="m973.33,183.71c-1.06-.69-1.86,4.75-1.24,6.29s1.17,3.34,1.69,3.36c.52.02,1.99-8.05-.45-9.65Z"/><path class="cls-14" d="m971.1,178.53s1.27,2.42,2.17,2.53c.91.1,1.42-2.53,1.42-2.53,0,0-1.62-.21-3.59,0Z"/></g></g><g><path class="cls-16" d="m636.47,364.43l-9.58,52.06-52.04,1.09s-.77-38.62,2.45-45.72c3.22-7.1,59.17-7.43,59.17-7.43Z"/><path class="cls-16" d="m524.18,367.67l-16.04,49.91h-44.98s-.77-38.62,2.45-45.72c3.22-7.1,58.57-4.19,58.57-4.19Z"/><g><g><path class="cls-11" d="m328.26,346.38s4.49,3.72,19.99,9.81c15.5,6.09,122.77,1.4,150.1-7.37,27.33-8.77,38.85-49.05,38.85-49.05l-3.64-9.28-117.13,34.22h-59.82s-26.24,17.23-28.35,21.65Z"/><path class="cls-4" d="m638.81,356.07c-.3,3.68-1.68,8.11-4.11,11.44,0,0-161.24,1.71-184.29,1.51-23.03-.22-76.16,1.72-85.44.9-9.28-.82-16.12-5.19-16.92-7.43-.82-2.26,2.73-26.05,2.73-26.05,0,0,107.14-43.55,179.66-38.12,0,0,2.05.65,6.41,1.77,6.26,1.59,17.35,4.2,34.08,7.34,28.35,5.3,61.8,29.15,64.04,31.82,1.51,1.79,4.46,9.08,3.83,16.81Z"/><path class="cls-61" d="m638.81,356.07c-.3,3.68-1.68,8.11-4.11,11.44,0,0-161.24,1.71-184.29,1.51-23.03-.22-76.16,1.72-85.44.9-9.28-.82-16.12-5.19-16.92-7.43-.82-2.26,2.73-26.05,2.73-26.05,0,0,107.14-43.55,179.66-38.12,0,0,2.05.65,6.41,1.77-2.3,2.3-16.58,16.92-16.83,24.63,0,0,70.69,14.38,98.44,19.42l-89.46-8.98s88.8,22.73,109.79,20.82l.02.09Z"/><path class="cls-69" d="m636.72,236.77s-3.42,2.71-15,.11l-2.05,1.16s-7.1.24-12.89.11c-5.77-.13-11.65.11-13,.3-1.36.22-9-1.23-9-1.23l.02-.24,2.05-18.47s30.8.82,33.65,1.42c.22.04.5.17.82.37,3.98,2.35,15.31,14.68,15.41,16.47Z"/><path class="cls-30" d="m587.58,230.01c-.54,3.1-1.77,6.26-4.2,9.04h-40.36s-10.61-29.75.82-41.05c0,0,4.61,3.72,5.62,3.85,1.03.15,14.29-3.12,17.82-2.58,1.44.24,4.07,2.86,6.67,5.92,1.77,2.07,3.53,4.33,4.91,6.16,1.29,1.7,2.24,3.01,2.56,3.47l.13.17h4.15s3.14,7.3,1.87,15.03Z"/><polygon class="cls-63" points="578.86 211.34 578.71 211.32 573.95 205.19 578.86 211.34"/><path class="cls-63" d="m587.58,230.01c-.54,3.1-1.77,6.26-4.2,9.04h-40.36s-10.61-29.75.82-41.05c0,0,4.61,3.72,5.62,3.85l8.85,6.67,20.41,2.8,2.71,3.49.13.17s2.54,12.29,1.42,19.03c0,0,3.12.17,4.56-3.94,0-.02.02-.04.04-.06Z"/><path class="cls-33" d="m543.84,198l25.48,41.05h-26.29s-4.98-28.63.82-41.05Z"/><g><path class="cls-54" d="m548.71,77.78s23.45-10.69,40.38-36.49c0,0,22.16,23.59,32.77,55.81,0,0-6.36,15.5-24.58,21.21,0,0-31.84-10.34-48.57-40.54Z"/><path class="cls-44" d="m548.71,77.78s11.15-25.78,40.38-36.49c0,0-11.42,25.25-40.38,36.49Z"/><polygon class="cls-44" points="574.14 65.56 579.58 65.56 589.09 57 584.06 56.04 574.14 65.56"/><polygon class="cls-33" points="574.14 65.56 566.35 69.53 551.64 83.51 558.34 95.28 583.18 111.58 618.94 104.87 574.14 65.56"/><polygon class="cls-8" points="589.09 57 603.37 74.13 602.35 84.43 598 87.44 579.58 65.56 589.09 57"/><polygon class="cls-46" points="574.14 65.56 576.65 68.32 592.7 84.73 596.35 85.49 579.58 65.56 574.14 65.56"/><path class="cls-46" d="m551.98,74.84s9.99-21.24,34.97-31.83c0,0-12.54,23.07-34.97,31.83Z"/><path class="cls-37" d="m579.58,53.61s-4.35,4.56-8.74,6.39c-2.15.9-11.58,1.99-11.58,1.99,0,0-3.96-1.35-6.2.94-2.24,2.29-1.77,6.24-1.77,6.24,0,0-10.03,5.94-9.42,8.61.61,2.67,10.09,5.37,10.09,5.37,0,0,9.88-3.87,16.01-16.39l1.69-2.88s6.06-5.19,9.9-10.26Z"/></g><path class="cls-69" d="m627.47,71.01l-25.83,25.57-2.95,2.93c-4.28-.58-15.65-7.58-15.5-9.47.13-1.92,2.17-12.98,2.17-12.98l7.34,7.66,6.59,1.38c3.53-4.28,3.21-11.84,3.21-11.84l-8.09-10.74s4.22-6.11,6.31-7c2.11-.88,6.87-.34,7.75,0,.88.34,6.39,4.54,6.39,4.54l7.08,1.38,5.53,8.57Z"/><path class="cls-60" d="m540.56,57.69c.13.6-4.97,4.78-7.58,6.11h-.02c-1.31.62-3.77-3.53-5.92-7.88-2.13-4.37-3.96-8.91-3.96-8.91l1.38-2.99.02.02c.6.37,10.29,6.16,12.53,8.07.37.32.71.67,1.01,1.01,1.64,1.85,2.41,4.05,2.54,4.56Z"/><path class="cls-33" d="m616.79,77.77l-15.15,18.81-2.95,2.93c-4.28-.58-15.65-7.58-15.5-9.47.13-1.92,2.17-12.98,2.17-12.98l7.34,7.66,6.59,1.38c3.53-4.28,3.21-11.84,3.21-11.84l-8.09-10.74s4.22-6.11,6.31-7c0,0,9.67,5.7,12.25,9.04,2.58,3.34,3.83,12.21,3.83,12.21Z"/><path class="cls-69" d="m533.05,84.9c-.11.8-.22,1.31-.34,1.46-.13.15-1.94.52-4.74.99-10.85,1.85-36.55,5.53-36.55,5.53l-9.3-1.96-1.31-.28s-23.46-26.71-24.67-46.09c-1.23-19.37,47.44-33.11,60.62-26.03l1.49,2.35,4.37,6.95,1.21,1.59v.02l1.55,2.07-.88,12.53-.13,1.74s.02,0,.04.04c.54.37,4.8,3.42,5.86,5.06.84,1.31,2.07,7.25,2.71,12.92.22,1.79.39,3.55.45,5.12.24,5.21.02,12.79-.37,15.97Z"/><path class="cls-17" d="m532.99,63.8h-.02c.22,1.79.39,3.55.45,5.12.24,5.21.02,12.79-.37,15.97l-5.08,2.45c-10.85,1.85-36.55,5.53-36.55,5.53l-9.3-1.96-3.49-4.15,32.25-40.99,5.19-17.89,2.17-7.02,4.37,6.95,1.21,1.59v.02s-4.59,19.2-4.37,22.56c.17,2.56,5.23,3.57,7.6,3.92.73.09,1.21.13,1.21.13,0,0,1.1-2.78.62-4.05-.43-1.21-4.07-5.68-4.48-6.18.77.37,11.19,5.4,13.63,7.3,1.64,1.85,2.41,4.05,2.54,4.56.13.6-4.97,4.78-7.58,6.11Z"/><path class="cls-65" d="m498.63,75.96s7.43,10.83,15.27,3.37c0,0-4.31,10.1-4.31,11.73,0,4.58,20.22-5.98,20.22-5.98-.68,3.94-18.51,7.55-22.16,9.2-6.32,2.86-20.46-2.27-20.46-2.27,0,0,6.39-10.8,11.44-16.04Z"/><path class="cls-35" d="m665.37,133.89c-.11.17-.24.34-.37.54-3.47,4.5-17.59,11.28-17.59,11.28-30.5,15.24-75.64,19.09-87.74,19.89l-2.11.13-.97.04s-15.09,31.79-15.22,44.71c-.15,12.92,4.2,57.39,4.2,57.39-11.41,14.4-40.21,19.68-40.21,19.68,1.05.3,2.13.58,3.23.82h.02c12.14,2.63,26.03,1.53,26.03,1.53l2.54,9.88-3.14-7.02c-5.25,8.7-11.54,16.53-16.83,22.32-3.85,4.2-7.17,7.34-9.21,8.93,0,0-.02.02-.04.02-1.14.88-1.87,1.29-2.07,1.14-1.01-.82,1.83-12.25,1.83-12.25-7.34-1.21-17.11,10.42-17.11,10.42l-5.1,9.77c-15.82,4.69-50.39,12.55-68.61,16.6l-11.71,2.56,9.95-8.14s-8.16,2.65-19.16,4.28c-10.1,1.51-35.28.26-39.39.02-.37-.02-.58-.02-.58-.02l13.05-12.66c-22.43-3.47-40.77,10.61-40.77,10.61,8.35-17.33,27.53-38.94,27.53-38.94l2.65-14.68c-5.7-3.08-8.5-6.33-9.86-8.61-1.05-1.79-1.23-2.95-1.23-2.95,4.07-14.68,23.25-32.91,25.55-37.52,0,0,0-.02.02-.06.02-.04.04-.11.09-.17.02-.06.04-.13.09-.21.11-.19.19-.39.26-.62.04-.13.11-.26.17-.41.02-.04.04-.11.06-.17,1.16-3.29,2.39-9.17,3.59-18.02v-.02c1.03-7.43,2.05-16.92,3.06-28.72,2.45-28.69,10.48-57.24,12.38-59.95,1.66-2.35,12.1-10.87,22.09-17.01,0,0,.09-.04.22-.13.09-.04.19-.11.34-.19,1.42-.86,2.78-1.68,4.13-2.39,11.15-5.98,24.15-11.75,24.15-11.75,12.44-18.53,47.85-10.96,47.85-10.96,0,0,47.79-12.92,54.16-11.37,6.39,1.55,22.11,15.35,26.89,16.77,0,0,.06.02.17.06.54.13,1.27.26,2.13.37l.06.02h.02s.04.02.09.02c7.3.93,23.74.75,23.74.75,1.31-6.93,13.35-18,13.35-18,0,0,17.54-14.83,23.25-11.97l.02.02c5.7,2.88,13.24,25.66,13.24,25.66,0,0,15.86,27.83,17.01,36.55.13.95.09,1.68-.17,2.11Z"/><path class="cls-63" d="m648.54,95.23s-7.53-22.78-13.24-25.66c.41.47,7.08,8.18,6.82,15.97l-15.61-4c.8.43,13.63,7.47,15.74,9.32,0,0-17.67-.43-24.07,1.14-6.39,1.57-19.5,7.51-19.5,7.51,0,0,20.32-1.31,25.08-.77,4.76.54,22.71,13.86,22.71,13.86,0,0-23.53-1.89-38.9-5.3-14.64-3.25-31.13-8.09-32.63-8.55-.04,0-.06-.02-.09-.02h-.02l-.06-.02-2.3-.43s.06.02.17.06c1.59.73,15.11,6.67,35.76,13.24,20.64,6.57,28.26,9.19,29.15,9.51-2.17-.47-42.95-9.32-61.33-16.04-18.88-6.93-30.63-23.55-30.63-23.55-6.37-1.55-54.16,11.37-54.16,11.37,0,0-35.41-7.58-47.85,10.96,0,0-13,5.77-24.15,11.75-1.36.71-2.71,1.53-4.13,2.39,2.02-1.1,8.93-4.82,12.16-5.38,3.81-.67,15.09,8.52,15.09,8.52,0,0-59.11,86.41-65.33,102.85v.02l-4.26,19.61s.04-.11.09-.17c.02-.06.04-.13.09-.21.06-.17.15-.37.26-.62.04-.13.11-.26.17-.41.02-.04.04-.11.06-.17,5.08-11.9,37.07-84.64,72.46-106.84,0,0,3.14,9.82,19.24,4.91,0,0-10.33-.82-11.11-3.83-.78-3.01,12.74-9.92,12.74-9.92,0,0,16.42-16.86,27.88-24.48,11.3-7.49,44.69-19.27,45.72-19.61-.95.9-62.62,59.26-72.87,69.98-10.18,10.66-76.5,84.64-78.4,86.77,1.74-1.44,57.5-47.96,76.51-70.15,19.31-22.54,43.83-55.15,43.83-55.15,0,0,31.43-28.22,32.25-28.22s-12.72,73.08-16.19,91.42c-3.47,18.36-48.54,69.75-58.64,78.72-9.77,8.7-38.14,19.18-39.91,19.83,1.79-.34,30.7-5.94,46.32-13.84,16.12-8.16,51.47-63.61,51.47-63.61,0,0,2.8-4.91,7.92-5.98l-23.23,62.53,27.08-49.19c-.58,1.94-19.7,63.91-23.06,66.58-3.4,2.73-35.43,9.08-35.43,9.08l8.96-5.25c-2.07.41-68.32,13.82-78.89,15.54-10.57,1.72-50.07-13.22-51.23-13.65l5.83,6.48h-14.27c1.36,2.28,4.15,5.53,9.86,8.61l-2.65,14.68,13.24-.34v28.67l-13.05,12.66s.22,0,.58.02c3.57.11,22.58.69,23.89.69l2.45-36.68s23.25-8.29,36.08-5.02l-3.87,36.7-9.95,8.14,11.71-2.56,4.78-42.28,44.11-4.41,19.72,30.09-16.21-28.14s6.01-11.43,17.11-11.02l22.19,18.49-2.71,12.72s.67-.19,2.07-1.14c.02,0,.04-.02.04-.02,1.85-1.27,4.89-3.83,9.21-8.93l-25.7-21.01s4.93-4.09,17.09-5.7c-1.1-.24-2.17-.52-3.23-.82,0,0,28.8-5.27,40.21-19.68,0,0-4.35-44.47-4.2-57.39.13-12.92,15.22-44.71,15.22-44.71,0,0,55.32-2.32,90.82-20.06,0,0,14.12-6.78,17.59-11.28l.54-2.65c-1.14-8.72-17.01-36.55-17.01-36.55Z"/><path class="cls-53" d="m515.81,43.14c-2.32,10.2-9.58,21.96-16.25,31.49-5.81,8.35-11.19,14.98-12.36,17.37-2.52,5.1-13.54,0-13.54,0l-.39.39-3.27,3.36s2.17,4.07,2.3,7.62c.04,1.38-1.23,3.49-2.82,5.7-.6.84-1.25,1.7-1.85,2.54-1.98,2.6-3.81,5.02-3.75,6.16.13,2.45,4.89,5.51,5.4,8.05.3,1.51-3.08,3.16-6.07,4.84-2.07,1.18-3.96,2.37-4.35,3.53-.9,2.84,6.44,5.9,6.44,5.9,0,0-9.99,1.64-12.85-3.25-2.41-4.13,4.59-4.5,8.76-6.89.77-.45,1.44-.97,1.94-1.57,3.27-3.98-18.56-8.27-22.93-14.68-.93-1.36-.97-2.95-.34-4.63,2.26-6.18,13.35-13.32,19.72-12.92l-.41-1.42s-3.06-1.23-6.93-1.85c-3.87-.6-5.79-.47-6.26-1.55-.45-1.05-.22-11.88-2.22-24.56v-.04c-.09-.6-.19-1.23-.3-1.85-.11-.56-.19-1.12-.3-1.66l-.04-.28c-1.05-5.64-2.22-9.86-3.19-13.2-.34-1.23-.67-2.35-.95-3.38l-.32-1.27c-.39-1.59-.62-2.97-.62-4.28,0-3.31,3.49-11.22,11.04-17.05,0,0,.02-.02.06-.04.04-.02.09-.06.15-.11.06-.04.13-.09.22-.15,3.23-2.43,7.19-4.46,11.9-5.62,0,0,2.39-2.97,6.52-5.1,1.44-.75,3.34-1.68,5.49-2.65.06-.04.11-.06.15-.09.02-.02.04-.04.06-.04s.06,0,.09-.02c10.23-4.71,26.59-11.02,35.84-9.75.02,0,.02-.02.02-.02l.02.02c1.25.15,2.35.45,3.29.93.6.3,1.14.75,1.66,1.4,4.39,5.55,5.12,23.4,1.23,40.62Z"/><path class="cls-4" d="m459.19,94.73s9.52-9.81,14.48-2.73l-3.67,3.75s-5.51-2.18-10.4.41l-.41-1.43Z"/><path class="cls-41" d="m505.89,325.17l-7.95-8.68s4.68-3.76,10.67-4.03l-2.72,12.71Z"/><path class="cls-63" d="m545.58,267.87s-14,8.02-20.79,8.29c-6.8.27-11.15-4.22-11.15-4.22l-35.43,9.08,8.96-5.25s-70.87,14.3-80.79,15.67c-9.92,1.37-49.34-13.78-49.34-13.78l5.83,6.48h-14.27l7.2,7.02,2.65,1.58,10.6,14.35v20.73l6.74-20.39s38.73-2.02,43.23,0l-2.46,23.28,5.13-23.28s43.03-4.87,48.93-7.66c5.9-2.79,9.82-6.64,15.8-5.82l15.3,12.75-10.2-12.64s6.75-4.92,17.09-5.7l-3.22-.82s31.36-6.89,40.2-19.67Z"/><polygon class="cls-41" points="405.14 352.3 405.14 346.74 415.14 344.14 405.14 352.3"/><path class="cls-41" d="m357.59,335.41l-1.6,13.01,13.05-12.64s-6.26-1.07-11.46-.36Z"/><path class="cls-53" d="m523.82,29.44l.72,13.57,3.71-9.14s-1.46-4.72-4.43-4.43Z"/><path class="cls-9" d="m472.63,10.47s17.22,2.07,23.34,10.23c6.12,8.16.54,35.43-4.9,46.06-5.44,10.63-20.6,23.15-20.6,23.15,0,0-1.22-.56-2.78-.35,0,0,23.46-18.76,27.13-37.56,3.67-18.8,2.83-25.6,0-30.76-2.83-5.16-15.08-9.45-22.19-10.77Z"/><path class="cls-9" d="m473.44,10.09s18.64.34,27.28,9.45c8.63,9.11,4.69,32.46,4.69,32.46l4.21,1.94s5.67-22.98-4.81-34.68c-10.48-11.69-30.33-9.79-30.33-9.79l-1.04.61Z"/><path class="cls-53" d="m533.52,63.88s7.92,4.4,10.09,7.94l-.61.68-3.67-2.31,3.13,2.99s-5.41,6.47-9.09,7.55l-3.55,1.49s4.01-12.61,3.16-18.41l.55.07Z"/><path class="cls-19" d="m505.38,287.55s-24.37,6.22-54.55,12.54c-30.18,6.32-95.03,7.34-95.03,7.34,0,0-.2-11.42,2.65-14.68l4.08-.2,17.33-3.67s24.27,5.91,27.94,6.32c3.67.41,48.94-11.01,48.94-11.01,0,0,37.32-.61,48.64,3.37Z"/><path class="cls-30" d="m357.01,291.93s-6.11,4.38-6.93,5.93c-.82,1.55,5.71,9.57,5.71,9.57l-1.56,1.81s-9.45-9.25-8.9-11.38c.54-2.12,10.47-6.7,10.47-6.7l1.22.77Z"/><path class="cls-30" d="m460.21,284.15l2.96-3.13h6.42s3.16,11.11,1.02,18.76l-8.26,1.84-2.14-1.63,2.55-.41s4.38-7.85,1.22-16.62l-2.14,1.19h-1.63Z"/><path class="cls-33" d="m473.44,10.09c-.47.28-1.53.99-2.97,2.13-3.34,2.58-8.83,7.36-14.01,14.12l-.02.04c-1.33,1.72-2.63,3.55-3.87,5.53-2.65,4.22-4.52,9.04-5.81,13.71v.04s0,.06-.02.11c-2.86,10.46-2.95,20.19-2.95,20.95l-.6-3.51-.04-.28c-.39-6.14.15-11.39,1.08-15.76,2.07-9.67,6.07-14.92,6.39-15.35-8.65,4.59-11.6,14.53-11.6,14.53l-.32-1.27c3.34-9.56,12.14-14.7,12.14-14.7l8.37-10.1c-3.79-.47-8.8,2.63-9.88,3.32,3.27-2.5,7.3-4.59,12.12-5.77,0,0,2.39-2.97,6.52-5.1,1.44-.75,3.34-1.68,5.49-2.65Z"/><path class="cls-40" d="m515.81,43.14c-4.35,19.16-26.11,43.76-28.61,48.87-2.52,5.1-13.54,0-13.54,0l-3.66,3.75s2.17,4.07,2.3,7.62c.04,1.38-1.23,3.49-2.82,5.7,0,0-3.06-8.43-7.85-10.34-11.58-4.6-21.75,10.34-21.75,10.34,2.26-6.18,13.35-13.32,19.72-12.92l-.41-1.42s-3.06-1.23-6.93-1.85c-3.87-.6-5.79-.47-6.26-1.55-.45-1.05-.22-11.88-2.22-24.56v-.04l-.6-3.51-.04-.28c-1.05-5.64-2.22-9.86-3.19-13.2l4.26-2.56,2.54-1.55v.04s0,.06-.02.11c-.19,1.49-1.55,12.96,1.25,20.99l8.18-38.94c-.93,5.02-3.81,21.4-2.88,29.17,0,0,21.2-9.79,29.23-25.83,0,0,1.92-9.17-11.99-18.92.71.24,9.95,3.77,16.68,19.2,0,0,10.98-9.13,9.73-16.19-1.25-7.04-13.2-7.13-23.18-5.32,1.36-.37,20.36-5.17,25.75,4.91,0,0,12.27-10.7,10.1-14.66v-.02h.02l.02.02,4.95,2.33c4.39,5.55,5.12,23.4,1.23,40.62Z"/><path class="cls-36" d="m499.56,74.63c-5.81,8.35-11.19,14.98-12.36,17.37-2.52,5.1-13.54,0-13.54,0l-.39.39c-.73-.86-2.35-2.58-3.96-2.95,0,0,6.97-.55,9.32-2.67,5.8-5.25,12.79-11.69,16.3-25.96l4.63,13.82Z"/><path class="cls-67" d="m514.09,78.46s-1.68,2.3-5.53,2.97c-2.37.41-4.91-.67-4.91-.67,0,0-5.21-2.95-7.62-10.03-1.14-3.38-1.66-7.68-.69-13.05,0,0,4.59-5.79,9.11-5.68,1.46.04,2.8.52,3.96,1.16,2.43,1.36,4.03,3.4,4.03,3.4,0,0,3.96,11.56,1.66,21.89Z"/><path class="cls-62" d="m514.09,78.46s-1.68,2.3-5.53,2.97c-2.37.41-4.91-.67-4.91-.67,0,0-5.21-2.95-7.62-10.03,1.98.8,6.31-1.55,6.31-1.55,0,0-1.96-7.08-.77-9.32,1.16-2.26,6.41-3.94,6.8-4.61.37-.65,0-2.09,0-2.09h.04c2.43,1.36,4.03,3.4,4.03,3.4,0,0,3.96,11.56,1.66,21.89Z"/><path class="cls-65" d="m512.96,60.75s-3.73-3.09-6.39-3.06c-2.66.03-4.42,1.87-4.79,3.12-.37,1.25.27,9.21,1.73,12.64,1.46,3.43,5.44,4.49,5.44,4.49,0,0-2.89-1.62-4.52-4.92-1.63-3.3-1.16-9.96-.78-10.88.37-.92,2.72-2.11,3.33-1.97.61.14,1.7,1.84,1.7,2.18s-1.6,2.21-2.11,3.64c-.51,1.43-.21,4.11.75,5.68.95,1.56,4.56,1.6,5.13,1.09.58-.51,2.04-8.8.51-11.99Z"/><path class="cls-1" d="m513.57,50.17s-4.42,17.22-10.13,26.71c-5.71,9.48-14.62,12.55-14.62,12.55l-1.63,2.57s16.25-6.35,22.98-18.58c6.73-12.24,7.3-39.54,7.3-39.54l-3.9,16.3Z"/><path class="cls-1" d="m518.26,17.43s4.62,57.11-4.35,81.31c0,0,2.82-14.05,2.77-31.98-.05-17.92-1.88-32.89-1.88-32.89l3.46-16.44Z"/><path class="cls-9" d="m461.16,95.27s-16.45,10-16.72,16.32c-.27,6.32,17.47,12.09,18.63,13.39,1.16,1.29.09,3.4.09,3.4,0,0,1.46-2.79.45-4.15-1.01-1.36-15.7-6.19-16.99-13.66-1.29-7.47,17.35-15.63,17.35-15.63l-2.8.34Z"/><path class="cls-9" d="m465.3,94.93s-12.1,10.98-11.96,17.33c.14,6.36,11.15,10.6,11.96,13.26.82,2.65-4.67,4.74-4.67,4.74,0,0,5-1.4,6.3-3.92,1.3-2.52-10.54-9.53-10.13-16.04.41-6.51,9.62-15.33,9.62-15.33l-1.12-.03Z"/><path class="cls-33" d="m469.29,125.82c.3,1.51-3.08,3.16-6.07,4.84l-2-.71c.77-.45,1.44-.97,1.94-1.57,3.27-3.98-18.56-8.27-22.93-14.68,19.07,5.81,27.38-2.11,27.38-2.11l.02.02c-1.98,2.6-3.81,5.02-3.75,6.16.13,2.45,4.89,5.51,5.4,8.05Z"/><path class="cls-27" d="m531.82,48.56s3.1,5.05,6.2,4.56c0,0-1.91-1.89-6.2-4.56Z"/><path class="cls-33" d="m540.56,57.69l-4,1.85-3.72,3.4.13.87s6.78-4.27,7.59-6.12Z"/><path class="cls-64" d="m556.6,165.77l-23.09,7.06-37.49,50.44s29.5-29.62,36.81-31.26l-15.1,40.64,22.83-34.66,5.76-7.53,10.28-24.69Z"/><path class="cls-33" d="m603.37,99.24s13.84-7.37,17.65-7.73c3.81-.36,24.77,20.59,24.77,20.59,0,0-15.3-11.53-21.21-13.18-5.91-1.64-21.21.32-21.21.32Z"/><path class="cls-22" d="m604,106.49s25.68,9.21,33.53,11.83c7.85,2.61,16.82,5.37,16.82,5.37l-10.4-11.3-39.95-5.89Z"/><path class="cls-22" d="m665.01,134.43c-3.47,4.5-17.59,11.28-17.59,11.28-30.5,15.24-75.64,19.09-87.74,19.89l-2.11.13-.97.04-23.08,7.06,23.08-8.76,67.98-18.77-54.05-4.95s41.4.67,56.94,0c15.54-.67,37.54-5.92,37.54-5.92Z"/><polygon class="cls-63" points="357.03 277.67 384.61 244.21 365.04 260.25 357.03 277.67"/><path class="cls-33" d="m636.72,236.77s-1.83,1.46-7.38,1.21h-.09c-2-.09-4.48-.41-7.53-1.1l-2.05,1.16s-7.1.24-12.89.11c-5.77-.13-11.65.11-13,.3-1.36.22-9-1.23-9-1.23l.02-.24c1.38-2.43,3.62-7.81,2.65-15.69l33.04-1.36.82.37c3.98,2.35,15.31,14.68,15.41,16.47Z"/><path class="cls-33" d="m629.34,237.97h-.09c-2-.09-4.48-.41-7.53-1.1l-2.05,1.16s2.15-8.35-.71-9.54c-2.84-1.21-18.66,0-18.66,0l-4.22-1.94,4.39,1.29s17.61-1.72,19.27.65c2.26,3.21,9.6,9.47,9.6,9.47Z"/><path class="cls-29" d="m617.39,230.65s-4.49.05-5.61,2.29c-1.12,2.24,2.6,3.84,6.02,4.03,0,0,1.02-4.08-.41-6.32Z"/><g class="cls-57"><path class="cls-10" d="m426.12,235.12c-.52.62-1.2,1.2-1.16,2.07.04.8.62,1.65,1.14,2.19.86.89,2.81,2.21,4.03,2.37,3.3.42,5.61-3.64,5.81-6.44.12-1.77-.69-4.28-2.7-4.68-1.36-.27-2.46.42-3.57,1.08-.76.45-1.69.84-2.33,1.46-.84.81-1.47,2.03-1.84,3.12l.63-1.16Z"/><path class="cls-10" d="m429.74,244.24c-.21.09-.42.1-.62.03.32-.22.68-.37,1.05-.49.36-.12.79-.3,1.06.07.2.28.33.75.29,1.09-.04.36-.3.6-.57.81-.41.32-.87.44-1.33.14-.59-.39-.8-1.11-.15-1.56l.27-.1Z"/><path class="cls-10" d="m423.31,246.74c-.2.24-.3.32-.27.61.04.29.15.37.44.43.75.17,1.61-.02,1.97-.75.27-.54.04-1.15-.59-1.22-.2-.02-.55,0-.73.09-.27.14-.51.48-.71.69l-.12.14Z"/><path class="cls-10" d="m437.44,222.21c-.25.06-.49.13-.73.21-.18.17-.35.34-.52.51-.84.85-1.59,1.82-2.22,2.84-.44.72-.87,1.53-1.08,2.35-.09.36-.19.97.07,1.3.31.39,1,.22,1.38.12.7-.19,1.48-.54,2.1-.92.35-.21.65-.48,1.02-.67.26-.11.51-.22.76-.35.27-.18.54-.37.8-.56,1.22-.89,2.19-2.08,3.02-3.34.46-.69.75-1.43.88-2.25.06-.4.16-1.05-.08-1.43-.53-.86-2.2-.71-2.97-.46-.62.2-1.11.67-1.55,1.13-.73.76-1.3,1.61-.89,1.53Z"/><path class="cls-10" d="m380.54,259.49c-.18.04-.36.1-.54.15-.13.12-.26.25-.38.37-.61.62-1.17,1.33-1.63,2.08-.32.53-.64,1.12-.79,1.72-.07.27-.14.71.05.95.22.28.73.16,1.01.09.51-.14,1.09-.4,1.54-.68.25-.16.48-.35.75-.49.19-.08.37-.16.56-.26.2-.13.4-.27.59-.41.89-.65,1.61-1.53,2.21-2.45.33-.51.55-1.05.64-1.65.05-.3.12-.77-.06-1.05-.39-.63-1.61-.52-2.18-.34-.45.15-.81.49-1.13.83-.53.56-.95,1.18-.65,1.12Z"/><path class="cls-10" d="m435.94,230.35c.07-.28.1-.4.32-.57.23-.18.5-.34.79-.22.53.22.35,1.03.06,1.39-.25.31-.46.53-.85.4-.36-.11-.27-.58-.19-.88l-.14-.12Z"/><path class="cls-10" d="m584.26,128.3c-.93-.32-1.83-.76-2.93-.7-1.01.05-1.94.46-2.5.83-.91.6-2.09,1.94-1.98,2.75.31,2.21,6.08,3.61,9.69,3.65,2.28.02,5.27-.6,5.26-1.95,0-.92-1.17-1.62-2.28-2.34-.77-.49-1.5-1.1-2.46-1.5-1.25-.53-2.96-.91-4.45-1.12l1.64.38Z"/><path class="cls-10" d="m573.59,131.01c-.17-.14-.23-.27-.2-.41.36.21.65.44.89.68.24.24.59.51.18.71-.3.14-.87.24-1.31.23-.46-.01-.84-.18-1.18-.35-.51-.26-.79-.56-.52-.88.35-.41,1.21-.57,1.95-.15l.19.18Z"/><path class="cls-10" d="m568.76,126.82c-.36-.12-.49-.19-.85-.16-.36.04-.43.11-.44.31-.02.5.44,1.07,1.46,1.29.75.16,1.48,0,1.4-.43-.03-.13-.13-.37-.31-.48-.25-.17-.74-.32-1.07-.45l-.2-.07Z"/><path class="cls-10" d="m603.6,135.4c-.14-.16-.29-.32-.45-.48-.26-.11-.52-.22-.78-.33-1.3-.53-2.72-1-4.18-1.38-1.03-.27-2.17-.53-3.27-.64-.48-.05-1.28-.1-1.63.09-.41.22-.03.67.2.92.42.46,1.07.97,1.71,1.37.36.22.78.42,1.11.65.2.17.41.33.64.49.3.18.61.35.92.52,1.45.78,3.21,1.39,5.02,1.9,1,.28,2.01.45,3.09.51.53.03,1.38.07,1.8-.1.95-.38.34-1.49-.18-1.99-.41-.4-1.14-.71-1.84-.99-1.16-.46-2.38-.81-2.17-.54Z"/><path class="cls-10" d="m592.86,134.67c.37.03.54.05.81.2.29.15.56.32.49.52-.14.36-1.22.27-1.75.09-.46-.15-.79-.29-.73-.55.05-.25.67-.2,1.07-.15l.11-.09Z"/><path class="cls-10" d="m411.19,219.17c-.15.18-.38.34-.39.59-.01.31.2.59.45.74.5.3,1.25.14,1.61-.34.26-.35.5-.98.16-1.36-.13-.15-.44-.22-.62-.23-.47-.04-.8.35-1.12.62l-.08-.02Z"/><path class="cls-10" d="m402.46,206.25c-.6,1.35-1.06,2.7-1.23,4.19-.1.87-.18,1.86.09,2.71.12.4.28.79.74.89.43.09,1.08-.18,1.43-.4.35-.23.63-.54.9-.85.7-.79,1.22-1.7,1.8-2.58.31-.47.55-.99.8-1.5.36-.72.8-1.49.97-2.28.24-1.13.09-2.68-1.01-3.35-.87-.53-1.97-.26-2.74.32-.57.43-.97,1.12-1.33,1.72-.34.61-.62,1.25-.84,1.91-.22.68-.32,1.39-.29,2.1l.73-2.87Z"/><path class="cls-10" d="m399.6,215.2c-.14-.16-.35-.34-.42-.56-.05-.17-.05-.4-.06-.58-.03-.38-.03-.8.2-1.13.13-.18.36-.35.6-.31.23.04.42.36.54.55.26.43.29,1.12.17,1.59-.04.17-.07.28-.22.39-.12.09-.37.11-.44.22l-.37-.18Z"/><path class="cls-10" d="m402.31,220.44c-.16-.17-.55-.4-.49-.69.03-.16.19-.39.3-.51.29-.33.66-.23.87.1.2.32.23.71.06,1.06-.09.18-.45.46-.6.15l-.14-.12Z"/><path class="cls-25" d="m445.2,221.32c-3.07,1.9-6.17,4.21-8.58,6.92-.6.68-.85,1.99-1.15,2.87-.42,1.24-.51,2.47-1.33,3.52-1.04,1.33-1.97,2.73-2.94,4.1-1.26,1.79-1.89,3.88-2.87,5.81-.71,1.42-1.83,4.11-1.14,5.66.25.55.34.84.34,1.46-.01,1.24-.38,2.94.54,3.89,1.45,1.5,3.4,1.06,5.25.9,1.11-.1,2.22-.13,3.32-.32,1.06-.19,1.89-.62,2.87-1.03,1.42-.58,2.81-1.01,4.1-1.86,1.07-.71,2.1-1.47,3.09-2.29,1.62-1.34,2.57-3.09,4.47-4.09,2.65-1.39,5.68-2.24,8.08-4.07,1.12-.85,2.15-1.91,2.65-3.24.54-1.46.66-3.1.79-4.65.34-4.05-.67-8.18-2.73-11.67-1.43-2.43-3.84-3.92-6.47-4.81-1.17-.4-2.47-.92-3.73-.62-1.66.4-3.3,1.58-4.57,3.49Z"/><path class="cls-10" d="m450.91,252.87c-.82.29-2.39.41-2.66,1.35-.14.47-.01.73.47.84.83.2,1.87-.18,2.46-.7.45-.39,1.13-.9.8-1.61-.4-.86-1.11-.25-1.61.12h.54Z"/><path class="cls-10" d="m455.8,207.73c.37-.33.99-1.18,1.56-1.04.35.08.73.72.83,1.04.16.53.05,1.07-.14,1.57-.22.58-.33.93-.75,1.29-2.39,2.02-2.88-2.75-1.77-2.86h.27Z"/></g></g><path class="cls-5" d="m665.55,131.78c-1.14-8.72-17.01-36.55-17.01-36.55,0,0-7.53-22.78-13.24-25.66l-.02-.02c-1.76-.88-4.66-.07-7.82,1.46l-5.53-8.56-7.08-1.38s-5.51-4.2-6.39-4.54c-.84-.33-5.21-.82-7.44-.09-6.64-9.5-11.93-15.14-11.93-15.14-13.65,5-23.36,13.29-29.83,20.7h0s-3.96-1.35-6.2.94c-2.24,2.29-1.77,6.24-1.77,6.24,0,0-10.03,5.94-9.42,8.61.61,2.67,10.09,5.37,10.09,5.37,0,0,0,.01.01.02l-.35.33.88,1.55c-2.73-1.75-5.19-3.11-6.94-3.53-1.71-.42-6.41.21-12.35,1.35.05-.65.09-1.37.12-2.14h0c3.69-1.09,9.09-7.55,9.09-7.55l-3.13-2.99,3.67,2.31.61-.68c-2.18-3.54-10.09-7.94-10.09-7.94l-.55-.07c.03.23.05.49.07.74-.03-.25-.05-.49-.08-.74h.01s.02,0,.02,0c1.66-.85,4.31-2.84,5.99-4.33.06-.05.11-.1.17-.15.13-.11.25-.22.36-.33.02-.02.04-.04.06-.06.63-.6,1.02-1.06.98-1.23-.13-.52-.9-2.71-2.54-4.56-.3-.34-.65-.69-1.01-1.01-.89-.76-2.94-2.12-5.13-3.52-.02-.01-.03-.02-.05-.03h0c-3.34-2.12-6.98-4.3-7.34-4.52l.08-1.07,3.69-9.1s-1.46-4.72-4.43-4.43h0s0,0,0,0v-.02l-1.21-1.59-4.08-6.49c-.16-2.49-.27-3.92-.27-3.92v.04c-.33-6.84-1.58-12.31-3.68-14.96-.52-.65-1.05-1.1-1.66-1.4-.95-.47-2.05-.77-3.29-.93l-.02-.02h-.02v.02c-8.94-1.23-24.5,4.62-34.77,9.27-.2.01-.34.03-.34.03l-.82.48s0,0,0,0c0,0-.02.01-.03.02l-.19.11c-.28.13-.55.25-.82.37h0s0,0,0,0c-1.81.83-3.42,1.62-4.67,2.27-4.13,2.13-6.52,5.1-6.52,5.1-1.18.29-2.32.64-3.41,1.03-.72.26-1.4.57-2.08.87-.35.15-.72.28-1.05.45-.73.35-1.4.74-2.08,1.13-.25.14-.52.27-.77.42-.79.48-1.53,1-2.24,1.53-.09.07-.19.12-.28.19-.09.06-.15.11-.22.15-.06.04-.11.09-.15.11-.04.02-.06.04-.06.04-7.56,5.83-11.04,13.73-11.04,17.05,0,1.31.24,2.69.62,4.28l.32,1.27c.28,1.03.6,2.15.95,3.38.97,3.34,2.13,7.56,3.19,13.2l.04.28.6,3.51v.04c2,12.68,1.77,23.51,2.22,24.56.47,1.08,2.39.95,6.26,1.55,1.91.31,3.61.76,4.86,1.14-5.4,1.87-10.28,4.93-13.55,9.82,0,0-13,5.77-24.15,11.75-1.36.71-2.71,1.53-4.13,2.39-.15.09-.26.15-.34.19-.13.09-.22.13-.22.13-9.99,6.14-20.43,14.66-22.09,17.01-1.89,2.71-9.92,31.26-12.38,59.95-1.01,11.8-2.02,21.29-3.06,28.72v.02l-4.26,19.61s-.02.06-.02.06c-2.3,4.61-21.48,22.84-25.55,37.52,0,0,.17,1.16,1.23,2.95l5.02,8.07c-2.95,1.48-7.9,4.16-8.28,5.64-.54,2.12,8.9,11.37,8.9,11.37l1.56-1.81s-6.53-8.02-5.71-9.57c.63-1.21,4.47-4.12,6.14-5.35l2.21.24s0,0,.01,0c-2.85,3.27-2.65,14.68-2.65,14.68,0,0,.01,0,.01,0h0s-19.12,21.55-27.49,38.87c-.01.03-.04.06-.05.08,0,0,4.49,3.72,19.99,9.81,0,0,0,0,0,0-.3,3.17-.44,5.65-.2,6.3.8,2.24,7.64,6.61,16.92,7.43,9.28.82,62.41-1.12,85.44-.9,23.05.19,184.29-1.51,184.29-1.51,2.43-3.34,3.81-7.76,4.11-11.44.62-7.73-2.33-15.03-3.83-16.81-2.24-2.67-35.69-26.52-64.04-31.82-16.54-3.11-27.55-5.69-33.86-7.28.07-.23.11-.37.11-.37l-.02-.04-2.53-9.84s-13.88,1.1-26.03-1.53h-.02l-3.22-.82s.02,0,.02,0c.5-.09,18.17-3.42,31.17-11.81,3.76-2.3,6.98-4.93,9.02-7.86,0,0-1.38-14.17-2.56-28.83,0,0,0,0,0,0h40.36c.53-.61.98-1.24,1.4-1.88v.05s7.64,1.44,8.99,1.23c1.36-.19,7.23-.43,13-.3,5.79.13,12.89-.11,12.89-.11l2.05-1.16c.73.16,1.42.31,2.09.43.66.12,1.28.23,1.88.31,0,0,0,0,0,0,.54.08,1.04.14,1.53.19.07,0,.14.02.21.03.36.04.69.06,1.03.08.22.02.44.03.65.05.05,0,.1,0,.15.01h.09s.07,0,.11,0c.58.02,1.12.03,1.62.02.09,0,.19,0,.29,0,.5-.02.96-.05,1.39-.09.12-.01.23-.03.34-.04.29-.04.57-.08.82-.12.12-.02.25-.04.36-.07.29-.06.56-.12.79-.19.1-.03.18-.06.28-.09.15-.05.28-.09.4-.14.08-.03.16-.06.23-.09.14-.06.26-.11.36-.16.05-.03.09-.05.13-.07.07-.04.12-.07.17-.09.03-.02.05-.03.06-.04.04-.02.06-.04.06-.04-.11-1.79-11.43-14.12-15.41-16.47-.32-.19-.6-.32-.82-.37-2.83-.6-33.47-1.42-33.64-1.42-.56-2.17-1.15-3.53-1.15-3.53h-4.15l-.13-.17c-.32-.45-1.27-1.77-2.56-3.47-1.38-1.83-3.14-4.09-4.91-6.16-2.6-3.06-5.23-5.68-6.67-5.92-3.53-.54-16.79,2.73-17.82,2.58-1.01-.13-5.62-3.85-5.62-3.85,0,0,0,0,0,0,.73-2.45,1.59-5,2.5-7.54l10.28-24.69.97-.04,2.11-.13c.65-.04,1.42-.1,2.26-.16,0,0,0,0,.01,0,.42-.03.86-.07,1.32-.1.21-.02.41-.03.64-.05.04,0,.09,0,.13-.01,6.11-.49,15.52-1.44,26.33-3.15.11-.02.21-.03.32-.05.9-.14,1.8-.29,2.72-.44.15-.02.29-.05.44-.07.91-.15,1.82-.31,2.74-.48.11-.02.22-.04.33-.06,2.89-.52,5.84-1.09,8.84-1.73.17-.04.34-.07.51-.11.76-.16,1.53-.33,2.3-.51.41-.09.82-.18,1.23-.28.7-.16,1.4-.32,2.1-.49.49-.12.98-.23,1.47-.35.67-.16,1.34-.33,2.01-.5.53-.13,1.05-.27,1.58-.41.64-.17,1.28-.33,1.92-.51.59-.16,1.18-.32,1.77-.49.59-.16,1.17-.32,1.75-.49.82-.24,1.64-.48,2.46-.73.68-.21,1.36-.42,2.04-.63.8-.25,1.59-.5,2.38-.76.48-.16.95-.32,1.42-.48.69-.24,1.39-.47,2.07-.72.49-.17.97-.35,1.46-.53.67-.24,1.33-.49,2-.74.48-.18.96-.37,1.44-.56.67-.26,1.34-.54,2-.81.45-.18.89-.37,1.34-.56.72-.31,1.44-.62,2.15-.94.37-.17.74-.33,1.11-.49,1.07-.49,2.13-.99,3.16-1.51,0,0,14.12-6.78,17.59-11.28.13-.19.26-.37.37-.54.26-.43.3-1.16.17-2.11Zm-178.35-39.78s.36.13.92.31c-.32-.05-.67-.1-1.03-.15.03-.06.08-.1.11-.17Z"/><g class="cls-68"><path class="cls-34" d="m621.93,62.44l-7.08-1.38s-5.51-4.2-6.39-4.54c-.84-.32-5.21-.82-7.43-.09,0,0,7.99,3.85,15.76,6.76,5.92,2.22,9,5.6,10.16,7.06l-5.02-7.81Zm-62.66-.45s-1.14-.39-2.56-.39c-1.21,0-2.6.28-3.64,1.33-2.24,2.28-1.77,6.24-1.77,6.24,0,0-10.03,5.92-9.43,8.59.62,2.67,10.1,5.38,10.1,5.38l.02.02-.34.32,5.3-.34,11.04-16.38c14.19-10.05,21.12-25.47,21.12-25.47-13.67,4.99-23.38,13.28-29.84,20.69Zm-19.93,8.2l3.66,2.3.62-.69c-1.38-2.26-5.1-4.84-7.62-6.44.75,2.93-2.63,15.35-2.63,15.35,3.68-1.08,9.08-7.53,9.08-7.53l-3.12-2.99Zm1.23-12.51c-.13-.52-.9-2.71-2.54-4.56-.3-.34-.65-.69-1.01-1.01-.88-.75-2.93-2.13-5.12-3.51-.02-.02-.04-.02-.06-.04-1.68-1.05-3.4-2.13-4.78-2.97-1.38-.84-2.37-1.44-2.56-1.55l-.09,1.79c11.75,5.53,16.17,11.86,16.17,11.86Zm-12.31-23.81s-1.46-4.74-4.43-4.43l.67,14.59.09-1.08,3.68-9.08ZM509.61.17h-.02v.02c-8.93-1.23-24.5,4.63-34.76,9.26-.19.02-.34.04-.34.04l-.82.47-.02.02-.19.11c-.28.13-.54.26-.82.39-1.81.82-3.42,1.61-4.67,2.26-4.13,2.13-6.52,5.1-6.52,5.1-1.18.3-2.32.65-3.4,1.03-.73.26-1.4.58-2.09.88-.34.15-.71.28-1.05.43-.71.34-1.4.75-2.07,1.14-.26.13-.52.26-.77.41-.77.5-1.53,1.01-2.24,1.53-.09.06-.19.13-.28.19-.09.06-.15.11-.22.15-.06.04-.11.09-.15.11-.04.02-.06.04-.06.04-7.56,5.83-11.04,13.73-11.04,17.05,0,1.31.24,2.69.62,4.28l.32,1.27c.28,1.03.6,2.15.95,3.38.97,3.34,2.13,7.56,3.19,13.2l.04.28.6,3.51v.04c.73,4.74,1.18,9.26,1.46,13.07.04-1.16.47-11.69,1.83-25.29,1.44-14.42,12.12-28.72,12.12-28.72,0,0,5.96-6.54,24.24-15.74,18.25-9.19,27.42-9.32,27.42-9.32l.77-.15c-.62-.22-1.29-.34-2-.43l-.02-.02Zm-90.2,115.42c-1.36.71-2.71,1.53-4.13,2.39-.15.09-.26.15-.34.19-.13.09-.22.13-.22.13-9.99,6.14-20.43,14.66-22.09,17.01-1.89,2.71-9.92,31.26-12.38,59.95-1.01,11.8-2.02,21.29-3.06,28.72v.02l-4.26,19.61s-.02.06-.02.06c-2.3,4.61-21.48,22.84-25.55,37.52,0,0,.17,1.16,1.23,2.95l-.02.04,14.29-.04-5.83-6.48,8.01-17.41,16.53-13.54,2.11-26.56,3.29-12.96s13.2-50.91,21.55-63.2c8.35-12.31,19.76-31.39,19.76-31.39l-2.13-.52c-2.24,1.14-4.52,2.32-6.74,3.51Zm-65.7,193.14c.32.32.52.52.52.52-1.87,2.2-5.23,6.2-9.04,11.13-5.81,7.56-12.7,17.26-16.88,25.92-.02.04-.04.06-.04.09l34.25-39.11-6.72.17-2.09,1.29Z"/><path class="cls-3" d="m542.99,72.5l-3.66-2.3,3.12,2.99s-5.4,6.46-9.08,7.53c0,0,3.38-12.42,2.63-15.35,2.52,1.59,6.24,4.18,7.62,6.44l-.62.69Z"/><path class="cls-3" d="m589.1,41.3s-6.93,15.41-21.12,25.47l-11.04,16.38-5.3.34.34-.32-.02-.02s-9.47-2.71-10.1-5.38c-.6-2.67,9.43-8.59,9.43-8.59,0,0-.47-3.96,1.77-6.24,1.03-1.05,2.43-1.33,3.64-1.33,1.42,0,2.56.39,2.56.39,6.46-7.41,16.17-15.69,29.84-20.69Z"/><path class="cls-3" d="m540.56,57.69s-4.41-6.33-16.17-11.86l.09-1.79c.19.11,1.18.71,2.56,1.55,1.38.84,3.1,1.92,4.78,2.97.02.02.04.02.06.04,2.2,1.38,4.24,2.76,5.12,3.51.37.32.71.67,1.01,1.01,1.64,1.85,2.41,4.05,2.54,4.56Z"/><path class="cls-3" d="m626.95,70.26c-1.16-1.46-4.24-4.84-10.16-7.06-7.77-2.91-15.76-6.76-15.76-6.76,2.22-.73,6.59-.24,7.43.09.88.34,6.39,4.54,6.39,4.54l7.08,1.38,5.02,7.81Z"/><path class="cls-3" d="m511.63.62l-.77.15s-9.17.13-27.42,9.32c-18.28,9.19-24.24,15.74-24.24,15.74,0,0-22.43,6.45-18.38,20.36,4.73,16.21,4.47,32.49,4.43,33.65-.28-3.81-.73-8.33-1.46-13.07v-.04l-.6-3.51-.04-.28c-1.05-5.64-2.22-9.86-3.19-13.2-.34-1.23-.67-2.35-.95-3.38l-.32-1.27c-.39-1.59-.62-2.97-.62-4.28,0-3.32,3.49-11.22,11.04-17.05,0,0,.02-.02.06-.04.04-.02.09-.06.15-.11.06-.04.13-.09.22-.15.09-.06.19-.13.28-.19.71-.52,1.46-1.03,2.24-1.53.26-.15.52-.28.77-.41.67-.39,1.36-.8,2.07-1.14.34-.15.71-.28,1.05-.43.69-.3,1.36-.62,2.09-.88,1.08-.39,2.22-.73,3.4-1.03,0,0,2.39-2.97,6.52-5.1,1.25-.65,2.86-1.44,4.67-2.26.28-.13.54-.26.82-.39l.19-.11.02-.02.82-.47s.15-.02.34-.04c10.27-4.63,25.83-10.48,34.76-9.26v-.02h.02l.02.02c.71.09,1.38.22,2,.43Z"/><path class="cls-3" d="m428.28,112.6s-11.41,19.07-19.76,31.39c-8.35,12.29-21.55,63.2-21.55,63.2l-3.29,12.96-2.11,26.56-16.53,13.54-8.01,17.41,5.83,6.48-14.29.04.02-.04c-1.05-1.79-1.23-2.95-1.23-2.95,4.07-14.68,23.25-32.91,25.55-37.52,0,0,0-.02.02-.06l4.26-19.61v-.02c1.03-7.43,2.05-16.92,3.06-28.72,2.45-28.69,10.48-57.24,12.38-59.95,1.66-2.35,12.1-10.87,22.09-17.01,0,0,.09-.04.22-.13.09-.04.19-.11.34-.19,1.42-.86,2.78-1.68,4.13-2.39,2.22-1.18,4.5-2.37,6.74-3.51l2.13.52Z"/><path class="cls-3" d="m362.52,307.26l-34.25,39.11s.02-.04.04-.09c4.18-8.65,11.06-18.36,16.88-25.92,3.81-4.93,7.17-8.93,9.04-11.13,0,0-.19-.19-.52-.52l2.09-1.29,6.72-.17Z"/><path class="cls-3" d="m575.65,99.14s18.05,5,31.64,7.99c13.6,2.99,40.06,5.89,40.06,5.89,0,0-17.73-12.23-21.9-13.68-4.16-1.45-49.81-.2-49.81-.2Z"/><path class="cls-3" d="m549.45,201.85l8.5,6.42,18.89,3.08,5.55,8.59,5.05,1.36,33.04-1.36s-22.22-1.19-33.62-1.35l-1.17-3.61h-4.21s-9.98-14.25-14.22-15.71c-4.24-1.46-17.82,2.58-17.82,2.58Z"/><path class="cls-3" d="m439.72,109.57s10.78-12.61,19.88-13.41c0,0-12.19-2.49-19.88,13.41Z"/><path class="cls-3" d="m345.32,297.86l9.83-5.16-.37-1.06s-7.82,3.15-9.45,6.22Z"/><polygon class="cls-3" points="574.14 65.56 579.58 65.56 589.09 57 584.06 56.04 574.14 65.56"/></g></g></g><g><polygon class="cls-58" points="262.58 489.79 302.53 489.79 324.11 469.54 348.35 489.79 376.97 489.79 383.94 463.71 358.27 451.47 364.33 394.97 278.56 394.5 284.88 446.95 258.28 463.71 262.58 489.79"/><polygon class="cls-66" points="251.13 489.79 262.58 489.79 258.28 463.71 284.88 446.95 278.56 394.5 266.11 394.97 274.63 446.95 244.93 463.71 251.13 489.79"/><polygon class="cls-23" points="284.88 442.14 359.79 437.3 359.12 443.53 284.88 443.53 284.88 442.14"/><polygon class="cls-32" points="570.42 409.68 322.34 409.68 323.31 464.63 564.38 472.37 570.42 409.68"/><polygon class="cls-55" points="348.35 489.79 324.11 469.54 315.93 477.21 328.84 489.79 348.35 489.79"/><polygon class="cls-21" points="244.93 463.71 258.28 463.71 284.88 446.95 274.63 446.95 244.93 463.71"/><polygon class="cls-21" points="252.53 463.71 258.93 467.67 263.84 460.21 252.53 463.71"/><polygon class="cls-32" points="281.16 416.06 363.43 403.31 364.33 394.97 278.56 394.5 281.16 416.06"/><g><polygon class="cls-45" points="541.81 375.84 698.98 366.65 697.01 394.97 541.81 394.97 541.81 375.84"/><polygon class="cls-32" points="541.81 375.84 201.27 370.58 203.95 394.97 541.81 394.97 541.81 375.84"/><polygon class="cls-31" points="698.98 366.65 201.27 370.58 541.81 375.84 698.98 366.65"/></g><polygon class="cls-58" points="544.14 489.79 584.09 489.79 605.67 469.54 629.91 489.79 658.53 489.79 665.5 463.71 639.83 451.47 645.89 394.97 560.12 394.5 566.45 446.95 539.84 463.71 544.14 489.79"/><polygon class="cls-66" points="532.69 489.79 544.14 489.79 539.84 463.71 566.45 446.95 560.12 394.5 547.67 394.97 556.19 446.95 526.49 463.71 532.69 489.79"/><polygon class="cls-55" points="629.91 489.79 605.67 469.54 597.49 477.21 610.4 489.79 629.91 489.79"/><polygon class="cls-21" points="526.49 463.71 539.84 463.71 566.45 446.95 556.19 446.95 526.49 463.71"/><polygon class="cls-32" points="560.12 403.31 645.9 397.18 645.89 394.97 560.12 394.5 560.12 403.31"/><polygon class="cls-23" points="566.45 442.14 643.63 416.06 643.05 421.47 566.45 443.53 566.45 442.14"/><polygon class="cls-23" points="559.88 452.38 640.85 442.01 639.83 451.47 665.5 463.71 605.67 469.54 594.88 479.66 544.42 459.93 559.88 452.38"/><polygon class="cls-38" points="613.7 394.79 614.92 371.56 615.74 371.51 616.6 394.92 613.7 394.79"/><polygon class="cls-20" points="687.11 394.5 692.38 366.9 629.51 372.43 629.51 394.5 687.11 394.5"/><polygon class="cls-21" points="534.09 463.71 540.49 467.67 544.42 459.93 534.09 463.71"/><polygon class="cls-6" points="568.82 388.42 597.41 377.13 606.29 377.13 568.82 388.42"/><polygon class="cls-6" points="534.09 375.84 541.81 382.91 550.34 375.5 534.09 375.84"/></g></g></g></g></svg>