<?xml version="1.0" encoding="UTF-8"?><svg xmlns="http://www.w3.org/2000/svg" xmlns:xlink="http://www.w3.org/1999/xlink" viewBox="0 0 1107.81 489.79"><defs><style>.cls-1{fill:#612234;}.cls-1,.cls-2,.cls-3,.cls-4,.cls-5,.cls-6,.cls-7,.cls-8,.cls-9,.cls-10,.cls-11,.cls-12,.cls-13,.cls-14,.cls-15,.cls-16,.cls-17,.cls-18,.cls-19,.cls-20,.cls-21,.cls-22,.cls-23,.cls-24,.cls-25,.cls-26,.cls-27,.cls-28,.cls-29,.cls-30,.cls-31,.cls-32,.cls-33,.cls-34,.cls-35,.cls-36,.cls-37,.cls-38,.cls-39,.cls-40,.cls-41,.cls-42,.cls-43,.cls-44,.cls-45,.cls-46,.cls-47,.cls-48,.cls-49,.cls-50,.cls-51,.cls-52,.cls-53,.cls-54,.cls-55,.cls-56,.cls-57,.cls-58,.cls-59,.cls-60{fill-rule:evenodd;}.cls-2{fill:#e4be99;}.cls-3{fill:#772a52;}.cls-4,.cls-42{fill:#ffb864;}.cls-5{fill:#4f192c;}.cls-6,.cls-13,.cls-15{fill:#fff;}.cls-6,.cls-15,.cls-30{opacity:.5;}.cls-7{fill:#3b465c;}.cls-8{fill:#bd5231;}.cls-9{fill:#700123;}.cls-9,.cls-61{opacity:.31;}.cls-62{fill:url(#_Áåçûìÿííûé_ãðàäèåíò_39-3);}.cls-10{opacity:.87;}.cls-10,.cls-48,.cls-55{fill:#691e35;}.cls-11{fill:url(#_Áåçûìÿííûé_ãðàäèåíò_32-3);}.cls-12{fill:#a15551;}.cls-14{fill:#9a5239;}.cls-15,.cls-37{mix-blend-mode:soft-light;}.cls-16,.cls-30{fill:#29354d;}.cls-63{isolation:isolate;}.cls-64{fill:#f67865;}.cls-17{fill:#67363f;}.cls-18{fill:#fba436;}.cls-19{fill:url(#_Áåçûìÿííûé_ãðàäèåíò_32-2);}.cls-20{fill:#3a1a33;}.cls-21,.cls-41,.cls-65,.cls-66,.cls-67{opacity:.42;}.cls-21,.cls-66{fill:#952a5c;}.cls-68{opacity:.53;}.cls-68,.cls-28,.cls-69,.cls-41,.cls-49,.cls-67{fill:#5b0036;}.cls-22{fill:#fb8b36;}.cls-23{fill:#852438;}.cls-24{fill:#60204a;}.cls-25{opacity:.25;}.cls-25,.cls-57{fill:#690123;}.cls-70{fill:url(#_Áåçûìÿííûé_ãðàäèåíò_39);}.cls-26{fill:#4a3f6d;}.cls-27{fill:#782741;}.cls-28,.cls-48{opacity:.2;}.cls-71{fill:url(#_Áåçûìÿííûé_ãðàäèåíò_24);}.cls-29{fill:#772438;}.cls-31{fill:#7c1b40;opacity:.37;}.cls-32{fill:#b73e36;}.cls-33{fill:#bf5d6b;}.cls-34{fill:#ffc483;}.cls-72{mix-blend-mode:screen;}.cls-35{fill:#b44d36;}.cls-36{fill:#9f3d36;}.cls-37{fill:#ffb89a;}.cls-38{fill:#bc9d98;}.cls-39{fill:#ab3a40;opacity:.47;}.cls-40{fill:url(#_Áåçûìÿííûé_ãðàäèåíò_101);}.cls-69,.cls-49{opacity:.49;}.cls-73{fill:#ff8e65;}.cls-42{opacity:.35;}.cls-74{fill:#9a044f;}.cls-74,.cls-44{mix-blend-mode:multiply;opacity:.4;}.cls-43{fill:#cdb6b2;}.cls-44{fill:#900477;}.cls-65{fill:#450036;}.cls-45{fill:#e4a890;}.cls-46{fill:url(#_Áåçûìÿííûé_ãðàäèåíò_101-2);}.cls-47{fill:url(#_Áåçûìÿííûé_ãðàäèåíò_32);}.cls-50{fill:#8f4d55;}.cls-51{fill:#564c77;}.cls-52{fill:#cb734f;}.cls-53{fill:#722924;}.cls-54{fill:url(#_Áåçûìÿííûé_ãðàäèåíò_39-2);}.cls-56{fill:url(#_Áåçûìÿííûé_ãðàäèåíò_39-4);}.cls-57{opacity:.38;}.cls-58{fill:#844638;}.cls-59{fill:#daa572;}.cls-60{fill:#813f2b;}</style><linearGradient id="_Áåçûìÿííûé_ãðàäèåíò_32" x1="1017.76" y1="209.65" x2="1017.76" y2="173.04" gradientUnits="userSpaceOnUse"><stop offset=".03" stop-color="#ffc4a4"/><stop offset="1" stop-color="#ffd8bb"/></linearGradient><radialGradient id="_Áåçûìÿííûé_ãðàäèåíò_39" cx="1024.74" cy="374.04" fx="1024.74" fy="374.04" r="10.3" gradientTransform="translate(0 -129.65)" gradientUnits="userSpaceOnUse"><stop offset="0" stop-color="#a8adc5"/><stop offset="1" stop-color="#7e798c"/></radialGradient><radialGradient id="_Áåçûìÿííûé_ãðàäèåíò_101" cx="1017.16" cy="237.95" fx="1017.16" fy="237.95" r="11.87" gradientUnits="userSpaceOnUse"><stop offset="0" stop-color="#b1c0d4"/><stop offset=".97" stop-color="#9e9ab3"/></radialGradient><radialGradient id="_Áåçûìÿííûé_ãðàäèåíò_39-2" cx="1025.15" cy="349.16" fx="1025.15" fy="349.16" r="14.85" xlink:href="#_Áåçûìÿííûé_ãðàäèåíò_39"/><linearGradient id="_Áåçûìÿííûé_ãðàäèåíò_32-2" x1="957.02" x2="957.02" xlink:href="#_Áåçûìÿííûé_ãðàäèåíò_32"/><radialGradient id="_Áåçûìÿííûé_ãðàäèåíò_39-3" cx="964" fx="964" r="10.3" xlink:href="#_Áåçûìÿííûé_ãðàäèåíò_39"/><radialGradient id="_Áåçûìÿííûé_ãðàäèåíò_101-2" cx="956.42" fx="956.42" r="11.87" xlink:href="#_Áåçûìÿííûé_ãðàäèåíò_101"/><radialGradient id="_Áåçûìÿííûé_ãðàäèåíò_39-4" cx="964.41" cy="349.16" fx="964.41" fy="349.16" r="14.85" xlink:href="#_Áåçûìÿííûé_ãðàäèåíò_39"/><linearGradient id="_Áåçûìÿííûé_ãðàäèåíò_32-3" x1="531.85" y1="72.64" x2="568.78" y2="72.64" xlink:href="#_Áåçûìÿííûé_ãðàäèåíò_32"/><linearGradient id="_Áåçûìÿííûé_ãðàäèåíò_24" x1="485.81" y1="71.05" x2="505.37" y2="71.05" gradientUnits="userSpaceOnUse"><stop offset="0" stop-color="#ff614a"/><stop offset=".98" stop-color="#ff905e"/></linearGradient></defs><g class="cls-63"><g id="layer1"><g><polygon class="cls-57" points="954.91 464.35 739.34 486.52 165.73 489.79 3.7 464.35 615.84 452.67 954.91 464.35"/><g><g><polygon class="cls-36" points="719.79 459.01 719.84 437.04 608.98 442.91 608.98 459.01 719.79 459.01"/><polygon class="cls-55" points="608.35 447.28 537.88 441.78 541.05 459.01 608.98 459.01 608.35 447.28"/><polygon class="cls-22" points="537.88 441.78 721.85 441.78 608.35 447.28 537.88 441.78"/><polygon class="cls-29" points="481.31 271.92 474.7 237.28 797.3 250.41 797.3 271.92 481.31 271.92"/><polygon class="cls-8" points="797.3 250.41 1107.81 244.9 1101.53 271.92 797.3 271.92 797.3 250.41"/><polygon class="cls-23" points="860.83 271.92 858.5 271.92 865.08 249.2 632.68 239 867.49 249.09 860.83 271.92"/><polygon class="cls-23" points="927.33 271.92 927.33 248.1 928.33 271.92 927.33 271.92"/><polygon class="cls-23" points="1004.94 271.92 1007.28 246.63 1006.16 271.92 1004.94 271.92"/><polygon class="cls-23" points="1050.58 271.92 1053.54 245.86 667.69 240.11 1061.38 245.72 1054.39 271.92 1050.58 271.92"/><polygon class="cls-55" points="494.1 271.92 497.78 291.49 1082.19 291.49 1092.46 271.92 494.1 271.92"/><polygon class="cls-35" points="1086.37 291.49 797.3 291.49 797.3 277.51 1090.49 275.69 1086.37 291.49"/><polygon class="cls-55" points="594.01 291.49 602.44 443.72 619.32 443.72 618.06 291.49 594.01 291.49"/><polygon class="cls-36" points="618.06 291.49 645.47 291.49 639.99 443.72 619.32 443.72 618.06 291.49"/><polygon class="cls-36" points="956.26 463.38 958.95 441.78 845.45 447.28 845.45 463.38 956.26 463.38"/><polygon class="cls-55" points="845.45 447.28 774.98 441.78 777.52 463.38 845.45 463.38 845.45 447.28"/><polygon class="cls-22" points="774.98 441.78 958.95 441.78 845.45 447.28 774.98 441.78"/><polygon class="cls-55" points="836.15 291.49 839.54 443.72 856.43 443.72 860.19 291.49 836.15 291.49"/><polygon class="cls-36" points="860.19 291.49 887.61 291.49 877.09 443.72 856.43 443.72 860.19 291.49"/><polygon class="cls-55" points="887.61 291.49 886.82 302.91 859.66 313.09 860.19 291.49 887.61 291.49"/><polygon class="cls-55" points="618.06 313.09 645.09 302.29 645.47 291.49 618.06 291.49 618.06 313.09"/><polygon class="cls-31" points="618.61 358.04 643.22 354.07 643.08 358.04 618.61 360.58 618.61 358.04"/><polygon class="cls-31" points="618.82 382.5 642.73 367.6 642.1 385.22 619.32 402.35 618.82 382.5"/><polygon class="cls-31" points="619.32 426.18 640.87 419.18 640.87 420.94 618.82 428.88 619.32 426.18"/><polygon class="cls-31" points="884.15 341.5 858.65 354.07 858.38 364.77 883.74 347.46 884.15 341.5"/><polygon class="cls-31" points="880.97 387.62 857.82 387.62 857.71 391.88 880.82 389.75 880.97 387.62"/><polygon class="cls-31" points="887.61 463.38 902.2 444.53 915.47 444.53 895.86 463.38 887.61 463.38"/><polygon class="cls-31" points="946.81 441.78 937.07 463.38 943.89 463.38 952.55 441.78 946.81 441.78"/><polygon class="cls-31" points="630.77 463.38 639.07 445.79 642.73 445.79 634.02 463.38 630.77 463.38"/><polygon class="cls-31" points="673.24 444.14 671.19 463.38 678.81 463.38 680.24 444.14 673.24 444.14"/><polygon class="cls-31" points="684.37 443.6 684.37 463.38 689.61 463.38 688.68 443.39 684.37 443.6"/><polygon class="cls-39" points="927.33 248.1 927.33 271.92 1004.94 271.92 1007.28 246.63 927.33 248.1"/><polygon class="cls-39" points="1029.4 271.92 1040.41 246.17 1053.54 245.86 1050.58 271.92 1029.4 271.92"/><polygon class="cls-36" points="782.68 249.81 797.3 258.41 805.88 250.25 782.68 249.81"/><polygon class="cls-32" points="598.44 446.51 608.35 452.58 614.33 447.28 598.44 446.51"/><polygon class="cls-32" points="836.15 446.56 845.45 452.58 855.11 446.82 836.15 446.56"/><polygon class="cls-36" points="919.43 256.01 937.07 267.35 927.33 259.27 919.43 256.01"/><polygon class="cls-36" points="1019.17 246.47 1024.41 250.41 1029.4 246.47 1019.17 246.47"/><polygon class="cls-55" points="859.06 327.49 867.49 337.44 859.06 337.44 859.06 327.49"/><polygon class="cls-22" points="1107.81 244.9 474.7 237.28 797.3 250.41 1107.81 244.9"/><polygon class="cls-10" points="763.29 244.9 860.79 247.84 942.13 245.18 825.21 240.11 763.29 244.9"/></g><path class="cls-20" d="m624.48,362.44l-9.38,50.96-50.95,1.06s-.75-37.81,2.4-44.75c3.16-6.95,57.92-7.27,57.92-7.27Z"/><path class="cls-20" d="m514.55,365.61l-15.7,48.85h-44.04s-.75-37.81,2.4-44.75c3.16-6.95,57.34-4.1,57.34-4.1Z"/><g><polygon class="cls-36" points="379.6 390.66 385.59 440.28 360.42 456.14 364.48 480.81 402.28 480.81 422.7 461.65 445.63 480.81 472.71 480.81 479.3 456.14 455.02 444.56 460.75 391.1 379.6 390.66"/><polygon class="cls-55" points="367.82 391.1 375.89 440.28 347.79 456.14 353.66 480.81 364.48 480.81 360.42 456.14 385.59 440.28 379.6 390.66 367.82 391.1"/><polygon class="cls-55" points="414.96 468.91 427.17 480.81 445.63 480.81 422.7 461.65 414.96 468.91"/><polygon class="cls-27" points="347.79 456.14 360.42 456.14 385.59 440.28 375.89 440.28 347.79 456.14"/><polygon class="cls-31" points="385.59 435.73 456.45 431.15 455.82 437.04 385.59 437.04 385.59 435.73"/><polygon class="cls-32" points="354.98 456.14 361.04 459.88 365.68 452.83 354.98 456.14"/><polygon class="cls-55" points="382.06 411.06 459.9 398.99 460.75 391.1 379.6 390.66 382.06 411.06"/><g><polygon class="cls-8" points="628.66 373 777.36 364.31 775.5 391.1 628.66 391.1 628.66 373"/><polygon class="cls-55" points="628.66 373 306.49 368.02 309.02 391.1 628.66 391.1 628.66 373"/><polygon class="cls-5" points="669.2 403 420.83 407.42 423.19 458.97 667.17 460.87 669.2 403"/><polygon class="cls-18" points="777.36 364.31 306.49 368.02 628.66 373 777.36 364.31"/></g><polygon class="cls-36" points="645.99 390.66 651.97 440.28 626.8 456.14 630.87 480.81 668.67 480.81 689.08 461.65 712.01 480.81 739.09 480.81 745.69 456.14 721.4 444.56 727.13 391.1 645.99 390.66"/><polygon class="cls-55" points="634.21 391.1 642.27 440.28 614.17 456.14 620.04 480.81 630.87 480.81 626.8 456.14 651.97 440.28 645.99 390.66 634.21 391.1"/><polygon class="cls-55" points="681.34 468.91 693.55 480.81 712.01 480.81 689.08 461.65 681.34 468.91"/><polygon class="cls-27" points="614.17 456.14 626.8 456.14 651.97 440.28 642.27 440.28 614.17 456.14"/><polygon class="cls-55" points="645.99 398.99 727.14 393.19 727.13 391.1 645.99 390.66 645.99 398.99"/><polygon class="cls-31" points="651.97 435.73 724.99 411.06 724.44 416.18 651.97 437.04 651.97 435.73"/><polygon class="cls-31" points="645.76 445.41 722.36 435.6 721.4 444.56 745.69 456.14 689.08 461.65 678.87 471.23 631.13 452.56 645.76 445.41"/><polygon class="cls-23" points="696.68 390.93 697.84 368.96 698.61 368.91 699.42 391.05 696.68 390.93"/><polygon class="cls-39" points="766.13 390.66 771.11 364.55 711.63 369.78 711.63 390.66 766.13 390.66"/><polygon class="cls-32" points="621.36 456.14 627.42 459.88 631.13 452.56 621.36 456.14"/><polygon class="cls-36" points="654.22 384.9 681.26 374.22 689.67 374.22 654.22 384.9"/><polygon class="cls-36" points="621.36 373 628.66 379.69 636.73 372.69 621.36 373"/><polygon class="cls-55" points="347.87 367.33 354.26 368.65 594.89 373.32 646.77 365.34 347.87 367.33"/></g><g><path class="cls-47" d="m1003.93,208.35l-1.66-29.03s16.86-9.35,30.98-5.23l-3.11,35.55-26.2-1.3Z"/><path class="cls-33" d="m1014.16,174.68s2.85-11.66,7.83-12.89l.69.63s-5.97,4.46-7.56,12.26h-.96Z"/><path class="cls-48" d="m1002.27,179.32s2.42,22.07,4.91,24.85c2.49,2.79,17.17,1.83,20.28,1.14,3.11-.68,5.52-28.2,5.52-28.2l-2.85,32.53-26.2.36-1.66-30.69Z"/><rect class="cls-70" x="1000.39" y="237.93" width="33.54" height="5.79"/><path class="cls-40" d="m1033.93,237.93s-16.08-1.62-33.54,0c0,0,13.51,1.74,33.54,0Z"/><path class="cls-54" d="m997.81,209.5l1.41,15.94,34.45-.75,1.79-15.2s-7.41-1.94-15.63-1.94c-16.8,0-22.03,1.94-22.03,1.94Z"/><path class="cls-26" d="m999.21,225.44s22.63,2.02,34.45-.75c0,0-18.52-2.22-34.45.75Z"/><path class="cls-51" d="m1012.22,224.93s6.1-1.31,9.77,0l-1.06,13h-7.59l-1.12-13Z"/><path class="cls-6" d="m1021.53,207.91l-.25,14.6,7.87.37.99-13.23s-1.28-1.88-8.61-1.74Z"/><polygon class="cls-15" points="999.21 210.52 1000.12 210.01 1001.1 223.9 1000.12 223.9 999.21 210.52"/><polygon class="cls-6" points="1021.98 238.62 1022.35 243.72 1025.98 243.72 1025.7 238.7 1021.98 238.62"/><path class="cls-13" d="m1025.33,179.32c-1.26-.82-2.22,5.66-1.48,7.49.74,1.83,1.4,3.98,2.02,4,.62.03,2.38-9.59-.54-11.5Z"/><path class="cls-13" d="m1022.67,173.15s1.51,2.89,2.59,3.01c1.08.12,1.69-3.01,1.69-3.01,0,0-1.93-.25-4.28,0Z"/><path class="cls-25" d="m1021.89,226.04c4.28-.17,8.45-.57,11.77-1.35l1.79-15.2s-2.07-.54-5.22-1.05l3.01-34.36c-2.4-.7-4.88-.99-7.34-1.02-.79-.04-1.94-.06-3.23.08,0,0,0,0,0,0-2.61.2-5.14.67-7.5,1.26,1.67-7.64,7.49-12,7.49-12l-.69-.63c-4.98,1.23-7.83,12.89-7.83,12.89h.03c-6.87,1.86-11.91,4.64-11.91,4.64l1.57,29.04c-4.39.53-6.03,1.14-6.03,1.14l1.41,15.94s5.83.52,13.11.67l.96,11.13c-4.04.07-8.42.27-12.89.69v5.79h33.54v-5.79s-5.23-.53-12.95-.68l.91-11.21Z"/></g><g><path class="cls-19" d="m943.19,208.35l-1.66-29.03s16.86-9.35,30.98-5.23l-3.11,35.55-26.2-1.3Z"/><path class="cls-33" d="m953.42,174.68s2.85-11.66,7.83-12.89l.69.63s-5.97,4.46-7.56,12.26h-.96Z"/><path class="cls-48" d="m941.53,179.32s2.42,22.07,4.91,24.85c2.49,2.79,17.17,1.83,20.28,1.14,3.11-.68,5.52-28.2,5.52-28.2l-2.85,32.53-26.2.36-1.66-30.69Z"/><rect class="cls-62" x="939.65" y="237.93" width="33.54" height="5.79"/><path class="cls-46" d="m973.19,237.93s-16.08-1.62-33.54,0c0,0,13.51,1.74,33.54,0Z"/><path class="cls-56" d="m937.07,209.5l1.41,15.94,34.45-.75,1.79-15.2s-7.41-1.94-15.63-1.94c-16.8,0-22.02,1.94-22.02,1.94Z"/><path class="cls-26" d="m938.48,225.44s22.63,2.02,34.45-.75c0,0-18.52-2.22-34.45.75Z"/><path class="cls-51" d="m951.48,224.93s6.1-1.31,9.77,0l-1.06,13h-7.59l-1.12-13Z"/><path class="cls-6" d="m960.79,207.91l-.25,14.6,7.87.37.99-13.23s-1.28-1.88-8.61-1.74Z"/><polygon class="cls-15" points="938.48 210.52 939.38 210.01 940.36 223.9 939.38 223.9 938.48 210.52"/><polygon class="cls-6" points="961.25 238.62 961.61 243.72 965.25 243.72 964.96 238.7 961.25 238.62"/><path class="cls-13" d="m964.59,179.32c-1.26-.82-2.22,5.66-1.48,7.49.74,1.83,1.4,3.98,2.02,4,.62.03,2.38-9.59-.54-11.5Z"/><path class="cls-13" d="m961.93,173.15s1.51,2.89,2.59,3.01c1.08.12,1.69-3.01,1.69-3.01,0,0-1.93-.25-4.28,0Z"/><path class="cls-25" d="m961.16,226.04c4.28-.17,8.45-.57,11.77-1.35l1.79-15.2s-2.07-.54-5.22-1.05l3.01-34.36c-2.4-.7-4.88-.99-7.34-1.02-.79-.04-1.94-.06-3.23.08,0,0,0,0,0,0-2.61.2-5.15.67-7.5,1.26,1.67-7.64,7.49-12,7.49-12l-.69-.63c-4.98,1.23-7.83,12.89-7.83,12.89h.03c-6.87,1.86-11.91,4.64-11.91,4.64l1.57,29.04c-4.39.53-6.03,1.14-6.03,1.14l1.41,15.94s5.83.52,13.11.67l.96,11.13c-4.04.07-8.42.27-12.89.69v5.79h33.54v-5.79s-5.23-.53-12.95-.68l.91-11.21Z"/></g><g><g><path class="cls-17" d="m322.76,344.77s4.39,3.64,19.56,9.61c15.17,5.96,120.18,1.37,146.93-7.21,26.75-8.58,38.03-48.01,38.03-48.01l-3.56-9.08-114.66,33.5h-58.56s-25.69,16.87-27.75,21.2Z"/><path class="cls-7" d="m626.76,354.25c-.3,3.6-1.64,7.94-4.02,11.2,0,0-157.84,1.67-180.4,1.48-22.55-.21-74.55,1.69-83.64.89-9.08-.8-15.78-5.08-16.56-7.27-.8-2.21,2.68-25.5,2.68-25.5,0,0,104.88-42.63,175.87-37.32,0,0,2,.63,6.28,1.73,6.13,1.56,16.98,4.11,33.36,7.19,27.75,5.18,60.5,28.53,62.69,31.15,1.47,1.75,4.36,8.89,3.75,16.46Z"/><path class="cls-65" d="m626.76,354.25c-.3,3.6-1.64,7.94-4.02,11.2,0,0-157.84,1.67-180.4,1.48-22.55-.21-74.55,1.69-83.64.89-9.08-.8-15.78-5.08-16.56-7.27-.8-2.21,2.68-25.5,2.68-25.5,0,0,104.88-42.63,175.87-37.32,0,0,2,.63,6.28,1.73-2.25,2.25-16.23,16.56-16.48,24.11,0,0,69.2,14.08,96.37,19.01l-87.58-8.79s86.92,22.25,107.47,20.38l.02.08Z"/><path class="cls-73" d="m624.72,237.47s-3.35,2.66-14.69.11l-2,1.14s-6.95.23-12.62.11c-5.65-.13-11.4.11-12.73.29-1.33.21-8.81-1.2-8.81-1.2l.02-.23,2-18.08s30.15.8,32.94,1.39c.21.04.48.17.8.36,3.9,2.3,14.98,14.37,15.09,16.12Z"/><path class="cls-38" d="m576.61,230.85c-.53,3.03-1.73,6.13-4.11,8.85h-39.51s-10.39-29.12.8-40.19c0,0,4.51,3.65,5.5,3.77,1.01.15,13.99-3.06,17.45-2.53,1.41.23,3.98,2.8,6.53,5.79,1.73,2.02,3.46,4.24,4.8,6.03,1.26,1.66,2.19,2.95,2.51,3.39l.13.17h4.07s3.08,7.14,1.83,14.71Z"/><polygon class="cls-67" points="568.07 212.58 567.93 212.56 563.27 206.56 568.07 212.58"/><path class="cls-67" d="m576.61,230.85c-.53,3.03-1.73,6.13-4.11,8.85h-39.51s-10.39-29.12.8-40.19c0,0,4.51,3.65,5.5,3.77l8.66,6.53,19.98,2.74,2.66,3.41.13.17s2.49,12.03,1.39,18.63c0,0,3.06.17,4.47-3.86,0-.02.02-.04.04-.06Z"/><path class="cls-41" d="m533.79,199.52l24.94,40.19h-25.74s-4.87-28.03.8-40.19Z"/><g><path class="cls-60" d="m538.56,81.84s22.96-10.46,39.53-35.72c0,0,21.69,23.09,32.07,54.63,0,0-6.23,15.18-24.06,20.76,0,0-31.17-10.12-47.54-39.68Z"/><path class="cls-52" d="m538.56,81.84s10.91-25.24,39.53-35.72c0,0-11.18,24.72-39.53,35.72Z"/><polygon class="cls-52" points="563.45 69.88 568.78 69.88 578.09 61.49 573.17 60.56 563.45 69.88"/><polygon class="cls-41" points="563.45 69.88 555.83 73.76 541.43 87.44 547.98 98.97 572.31 114.92 607.31 108.35 563.45 69.88"/><polygon class="cls-14" points="578.09 61.49 592.07 78.26 591.07 88.34 586.81 91.29 568.78 69.88 578.09 61.49"/><polygon class="cls-53" points="563.45 69.88 565.91 72.57 581.62 88.64 585.2 89.38 568.78 69.88 563.45 69.88"/><path class="cls-53" d="m541.76,78.96s9.78-20.8,34.24-31.16c0,0-12.28,22.58-34.24,31.16Z"/><path class="cls-11" d="m568.78,58.18s-4.26,4.46-8.55,6.26c-2.11.88-11.33,1.95-11.33,1.95,0,0-3.87-1.32-6.07.92-2.2,2.24-1.73,6.11-1.73,6.11,0,0-9.82,5.81-9.22,8.42.6,2.61,9.88,5.26,9.88,5.26,0,0,9.68-3.79,15.67-16.05l1.66-2.82s5.93-5.08,9.69-10.05Z"/></g><path class="cls-73" d="m615.66,75.21l-25.29,25.03-2.89,2.87c-4.19-.57-15.32-7.42-15.17-9.27.13-1.88,2.13-12.71,2.13-12.71l7.19,7.5,6.45,1.35c3.46-4.19,3.14-11.59,3.14-11.59l-7.92-10.52s4.13-5.98,6.17-6.85c2.07-.86,6.72-.34,7.59,0,.86.34,6.26,4.45,6.26,4.45l6.93,1.35,5.42,8.39Z"/><path class="cls-64" d="m530.59,62.17c.13.59-4.87,4.68-7.42,5.98h-.02c-1.29.61-3.69-3.46-5.79-7.71-2.09-4.28-3.88-8.72-3.88-8.72l1.35-2.93.02.02c.59.36,10.07,6.03,12.26,7.9.36.32.7.65.99.99,1.6,1.81,2.36,3.96,2.49,4.47Z"/><path class="cls-41" d="m605.2,81.83l-14.84,18.42-2.89,2.87c-4.19-.57-15.32-7.42-15.17-9.27.13-1.88,2.13-12.71,2.13-12.71l7.19,7.5,6.45,1.35c3.46-4.19,3.14-11.59,3.14-11.59l-7.92-10.52s4.13-5.98,6.17-6.85c0,0,9.46,5.58,11.99,8.85,2.53,3.27,3.75,11.95,3.75,11.95Z"/><path class="cls-73" d="m523.23,88.8c-.11.78-.21,1.29-.34,1.43-.13.15-1.9.51-4.64.97-10.62,1.81-35.78,5.42-35.78,5.42l-9.1-1.92-1.29-.27s-22.97-26.15-24.15-45.12c-1.2-18.97,46.44-32.41,59.34-25.48l1.45,2.3,4.28,6.81,1.18,1.56v.02l1.52,2.02-.86,12.26-.13,1.71s.02,0,.04.04c.53.36,4.7,3.35,5.73,4.95.82,1.29,2.02,7.1,2.66,12.64.21,1.75.38,3.48.44,5.01.23,5.1.02,12.52-.36,15.64Z"/><path class="cls-21" d="m523.17,68.15h-.02c.21,1.75.38,3.48.44,5.01.23,5.1.02,12.52-.36,15.64l-4.97,2.4c-10.62,1.81-35.78,5.42-35.78,5.42l-9.1-1.92-3.41-4.07,31.57-40.12,5.08-17.51,2.13-6.87,4.28,6.81,1.18,1.56v.02s-4.49,18.8-4.28,22.08c.17,2.51,5.12,3.5,7.44,3.84.72.08,1.18.13,1.18.13,0,0,1.07-2.72.61-3.96-.42-1.18-3.98-5.56-4.38-6.05.76.36,10.96,5.29,13.34,7.14,1.6,1.81,2.36,3.96,2.49,4.47.13.59-4.87,4.68-7.42,5.98Z"/><path class="cls-69" d="m489.54,80.05s7.27,10.6,14.95,3.3c0,0-4.22,9.89-4.22,11.48,0,4.48,19.79-5.86,19.79-5.86-.67,3.86-18.12,7.39-21.7,9-6.19,2.79-20.03-2.22-20.03-2.22,0,0,6.26-10.57,11.2-15.7Z"/><path class="cls-43" d="m652.77,136.76c-.11.17-.23.34-.36.53-3.39,4.4-17.22,11.04-17.22,11.04-29.86,14.92-74.05,18.69-85.89,19.47l-2.07.13-.95.04s-14.77,31.12-14.9,43.77c-.15,12.64,4.11,56.18,4.11,56.18-11.17,14.1-39.36,19.26-39.36,19.26,1.03.3,2.09.57,3.16.8h.02c11.88,2.57,25.48,1.5,25.48,1.5l2.49,9.67-3.08-6.87c-5.14,8.51-11.29,16.18-16.48,21.85-3.77,4.11-7.02,7.19-9.02,8.74,0,0-.02.02-.04.02-1.12.86-1.83,1.26-2.02,1.12-.99-.8,1.79-11.99,1.79-11.99-7.19-1.18-16.75,10.2-16.75,10.2l-4.99,9.57c-15.49,4.59-49.33,12.29-67.16,16.25l-11.46,2.51,9.74-7.97s-7.99,2.59-18.75,4.19c-9.88,1.48-34.54.25-38.56.02-.36-.02-.57-.02-.57-.02l12.77-12.39c-21.96-3.39-39.91,10.39-39.91,10.39,8.18-16.96,26.95-38.12,26.95-38.12l2.59-14.37c-5.58-3.01-8.32-6.2-9.65-8.43-1.03-1.75-1.2-2.89-1.2-2.89,3.98-14.37,22.76-32.22,25.01-36.73,0,0,0-.02.02-.06.02-.04.04-.11.08-.17.02-.06.04-.13.08-.21.11-.19.19-.38.25-.61.04-.13.11-.25.17-.4.02-.04.04-.11.06-.17,1.14-3.22,2.34-8.98,3.52-17.64v-.02c1.01-7.27,2-16.56,2.99-28.11,2.4-28.09,10.26-56.03,12.12-58.69,1.62-2.3,11.84-10.64,21.62-16.65,0,0,.08-.04.21-.13.08-.04.19-.11.34-.19,1.39-.84,2.72-1.64,4.05-2.34,10.92-5.86,23.64-11.51,23.64-11.51,12.18-18.14,46.84-10.73,46.84-10.73,0,0,46.78-12.64,53.02-11.13,6.26,1.52,21.64,15.02,26.32,16.42,0,0,.06.02.17.06.53.13,1.24.25,2.09.36l.06.02h.02s.04.02.08.02c7.14.91,23.24.74,23.24.74,1.29-6.79,13.07-17.62,13.07-17.62,0,0,17.17-14.52,22.76-11.72l.02.02c5.58,2.82,12.96,25.12,12.96,25.12,0,0,15.53,27.25,16.65,35.78.13.93.08,1.64-.17,2.07Z"/><path class="cls-67" d="m636.29,98.92s-7.38-22.29-12.96-25.12c.4.46,6.93,8.01,6.68,15.64l-15.28-3.92c.78.42,13.34,7.31,15.4,9.12,0,0-17.3-.42-23.56,1.12-6.26,1.54-19.09,7.35-19.09,7.35,0,0,19.89-1.29,24.55-.76,4.66.53,22.23,13.57,22.23,13.57,0,0-23.03-1.85-38.08-5.18-14.33-3.18-30.47-7.92-31.95-8.37-.04,0-.06-.02-.08-.02h-.02l-.06-.02-2.25-.42s.06.02.17.06c1.56.72,14.79,6.53,35,12.96,20.21,6.43,27.67,9,28.53,9.31-2.13-.46-42.04-9.12-60.04-15.7-18.48-6.79-29.99-23.05-29.99-23.05-6.24-1.52-53.02,11.13-53.02,11.13,0,0-34.66-7.42-46.84,10.73,0,0-12.73,5.65-23.64,11.51-1.33.7-2.66,1.5-4.05,2.34,1.98-1.07,8.75-4.72,11.91-5.27,3.73-.65,14.77,8.34,14.77,8.34,0,0-57.87,84.59-63.96,100.69v.02l-4.17,19.2s.04-.11.08-.17c.02-.06.04-.13.08-.21.06-.17.15-.36.25-.61.04-.13.11-.25.17-.4.02-.04.04-.11.06-.17,4.97-11.65,36.29-82.86,70.93-104.58,0,0,3.08,9.61,18.84,4.8,0,0-10.11-.8-10.87-3.75-.76-2.95,12.47-9.71,12.47-9.71,0,0,16.08-16.5,27.29-23.96,11.06-7.33,43.75-18.86,44.76-19.2-.93.89-61.3,58.01-71.33,68.51-9.97,10.43-74.89,82.86-76.75,84.94,1.71-1.41,56.28-46.95,74.89-68.68,18.9-22.06,42.9-53.99,42.9-53.99,0,0,30.77-27.63,31.57-27.63s-12.45,71.54-15.85,89.5c-3.39,17.97-47.52,68.28-57.4,77.06-9.57,8.51-37.34,18.78-39.07,19.41,1.75-.34,30.05-5.82,45.35-13.55,15.78-7.99,50.38-62.27,50.38-62.27,0,0,2.74-4.8,7.75-5.86l-22.74,61.22,26.51-48.15c-.57,1.9-19.28,62.56-22.57,65.18-3.33,2.68-34.69,8.89-34.69,8.89l8.77-5.14c-2.02.4-66.88,13.53-77.23,15.21-10.35,1.69-49.01-12.94-50.15-13.36l5.71,6.34h-13.97c1.33,2.23,4.07,5.42,9.65,8.43l-2.59,14.37,12.96-.34v28.07l-12.77,12.39s.21,0,.57.02c3.5.11,22.1.67,23.39.67l2.4-35.91s22.76-8.11,35.32-4.91l-3.79,35.93-9.74,7.97,11.46-2.51,4.68-41.39,43.18-4.32,19.3,29.46-15.87-27.54s5.88-11.19,16.75-10.79l21.73,18.1-2.66,12.45s.65-.19,2.02-1.12c.02,0,.04-.02.04-.02,1.81-1.24,4.78-3.75,9.02-8.74l-25.16-20.57s4.83-4,16.73-5.58c-1.07-.23-2.13-.51-3.16-.8,0,0,28.19-5.16,39.36-19.26,0,0-4.26-43.54-4.11-56.18.13-12.64,14.9-43.77,14.9-43.77,0,0,54.16-2.28,88.91-19.64,0,0,13.82-6.64,17.22-11.04l.53-2.59c-1.12-8.53-16.65-35.78-16.65-35.78Z"/><path class="cls-58" d="m506.35,47.92c-2.28,9.99-9.38,21.49-15.91,30.83-5.69,8.18-10.96,14.67-12.1,17.01-2.47,4.99-13.25,0-13.25,0l-.38.38-3.2,3.29s2.13,3.98,2.25,7.46c.04,1.35-1.2,3.41-2.76,5.58-.59.82-1.22,1.66-1.81,2.49-1.94,2.55-3.73,4.91-3.67,6.03.13,2.4,4.78,5.39,5.29,7.88.29,1.47-3.01,3.1-5.94,4.74-2.02,1.16-3.88,2.32-4.26,3.46-.88,2.78,6.3,5.77,6.3,5.77,0,0-9.78,1.6-12.58-3.18-2.36-4.05,4.49-4.4,8.58-6.74.76-.44,1.41-.95,1.9-1.54,3.2-3.9-18.16-8.09-22.44-14.37-.91-1.33-.95-2.89-.34-4.53,2.21-6.05,13.07-13.04,19.3-12.64l-.4-1.39s-2.99-1.2-6.79-1.81c-3.79-.59-5.67-.46-6.13-1.52-.44-1.03-.21-11.63-2.17-24.04v-.04c-.08-.59-.19-1.2-.29-1.81-.11-.55-.19-1.1-.3-1.62l-.04-.27c-1.03-5.52-2.17-9.65-3.12-12.92-.34-1.2-.65-2.3-.93-3.31l-.32-1.24c-.38-1.56-.61-2.91-.61-4.19,0-3.25,3.41-10.98,10.81-16.69,0,0,.02-.02.06-.04.04-.02.08-.06.15-.11.06-.04.13-.08.21-.15,3.16-2.38,7.04-4.36,11.65-5.5,0,0,2.34-2.91,6.38-4.99,1.41-.74,3.27-1.64,5.37-2.59.06-.04.11-.06.15-.08.02-.02.04-.04.06-.04s.06,0,.08-.02c10.01-4.61,26.02-10.79,35.09-9.55.02,0,.02-.02.02-.02l.02.02c1.22.15,2.3.44,3.22.91.59.3,1.12.74,1.62,1.37,4.3,5.44,5.01,22.91,1.2,39.76Z"/><path class="cls-7" d="m450.92,98.42s9.32-9.6,14.17-2.67l-3.59,3.67s-5.39-2.13-10.18.4l-.4-1.4Z"/><path class="cls-50" d="m496.64,324.01l-7.78-8.5s4.59-3.68,10.44-3.94l-2.66,12.44Z"/><path class="cls-67" d="m535.5,267.92s-13.7,7.85-20.35,8.11c-6.65.27-10.92-4.13-10.92-4.13l-34.69,8.89,8.77-5.14s-69.38,14-79.09,15.34c-9.71,1.34-48.3-13.49-48.3-13.49l5.71,6.34h-13.97l7.05,6.87,2.6,1.55,10.37,14.04v20.29l6.59-19.96s37.91-1.98,42.31,0l-2.41,22.79,5.02-22.79s42.13-4.76,47.9-7.49c5.78-2.73,9.61-6.5,15.46-5.7l14.98,12.48-9.99-12.38s6.61-4.82,16.73-5.58l-3.15-.8s30.69-6.74,39.35-19.26Z"/><polygon class="cls-50" points="398.02 350.56 398.02 345.12 407.8 342.58 398.02 350.56"/><path class="cls-50" d="m351.47,334.04l-1.56,12.73,12.78-12.38s-6.13-1.05-11.21-.35Z"/><path class="cls-58" d="m514.19,34.52l.71,13.28,3.63-8.95s-1.43-4.62-4.34-4.33Z"/><path class="cls-15" d="m464.08,15.94s16.86,2.03,22.85,10.01c5.99,7.98.53,34.69-4.79,45.09-5.32,10.41-20.17,22.66-20.17,22.66,0,0-1.19-.54-2.72-.34,0,0,22.96-18.37,26.56-36.77,3.59-18.4,2.77-25.06,0-30.11-2.77-5.05-14.76-9.25-21.73-10.55Z"/><path class="cls-15" d="m464.88,15.58s18.25.33,26.7,9.25c8.45,8.92,4.59,31.78,4.59,31.78l4.12,1.9s5.55-22.5-4.71-33.95c-10.26-11.45-29.69-9.58-29.69-9.58l-1.02.6Z"/><path class="cls-58" d="m523.69,68.23s7.75,4.31,9.88,7.77l-.6.67-3.59-2.26,3.06,2.93s-5.29,6.33-8.9,7.39l-3.47,1.46s3.93-12.35,3.1-18.02l.53.07Z"/><path class="cls-24" d="m496.14,287.18s-23.86,6.09-53.4,12.28c-29.55,6.19-93.03,7.19-93.03,7.19,0,0-.2-11.18,2.6-14.37l3.99-.2,16.97-3.59s23.76,5.79,27.35,6.19c3.59.4,47.91-10.78,47.91-10.78,0,0,36.53-.6,47.61,3.29Z"/><path class="cls-38" d="m350.9,291.47s-5.98,4.29-6.78,5.8c-.8,1.52,5.59,9.37,5.59,9.37l-1.53,1.77s-9.25-9.06-8.72-11.14c.53-2.08,10.24-6.56,10.24-6.56l1.2.75Z"/><path class="cls-38" d="m451.92,283.85l2.89-3.06h6.29s3.09,10.88,1,18.37l-8.09,1.8-2.1-1.6,2.5-.4s4.29-7.69,1.2-16.27l-2.1,1.16h-1.6Z"/><path class="cls-41" d="m464.88,15.58c-.46.27-1.5.97-2.91,2.09-3.27,2.53-8.64,7.21-13.72,13.82l-.02.04c-1.31,1.69-2.57,3.48-3.79,5.42-2.59,4.13-4.43,8.85-5.69,13.42v.04s0,.06-.02.11c-2.8,10.24-2.89,19.77-2.89,20.5l-.59-3.43-.04-.27c-.38-6.01.15-11.15,1.05-15.43,2.02-9.46,5.94-14.6,6.26-15.02-8.47,4.49-11.36,14.22-11.36,14.22l-.32-1.24c3.27-9.36,11.88-14.39,11.88-14.39l8.2-9.88c-3.71-.46-8.62,2.57-9.67,3.25,3.2-2.44,7.14-4.49,11.86-5.65,0,0,2.34-2.91,6.38-4.99,1.41-.74,3.27-1.64,5.37-2.59Z"/><path class="cls-49" d="m506.35,47.92c-4.26,18.75-25.56,42.84-28.01,47.83-2.47,4.99-13.25,0-13.25,0l-3.58,3.67s2.13,3.98,2.25,7.46c.04,1.35-1.2,3.41-2.76,5.58,0,0-2.99-8.25-7.68-10.12-11.34-4.5-21.29,10.12-21.29,10.12,2.21-6.05,13.07-13.04,19.3-12.64l-.4-1.39s-2.99-1.2-6.79-1.81c-3.79-.59-5.67-.46-6.13-1.52-.44-1.03-.21-11.63-2.17-24.04v-.04l-.59-3.43-.04-.27c-1.03-5.52-2.17-9.65-3.12-12.92l4.17-2.51,2.49-1.52v.04s0,.06-.02.11c-.19,1.45-1.52,12.69,1.22,20.55l8.01-38.12c-.91,4.91-3.73,20.95-2.82,28.55,0,0,20.76-9.59,28.62-25.29,0,0,1.88-8.98-11.74-18.52.7.23,9.74,3.69,16.33,18.8,0,0,10.75-8.93,9.52-15.85-1.22-6.89-12.92-6.98-22.7-5.2,1.33-.36,19.93-5.06,25.2,4.8,0,0,12.01-10.47,9.88-14.35v-.02h.02l.02.02,4.85,2.28c4.3,5.44,5.01,22.91,1.2,39.76Z"/><path class="cls-44" d="m490.44,78.75c-5.69,8.18-10.96,14.67-12.1,17.01-2.47,4.99-13.25,0-13.25,0l-.38.38c-.72-.84-2.3-2.53-3.88-2.89,0,0,6.83-.53,9.12-2.61,5.68-5.14,12.52-11.44,15.95-25.41l4.53,13.53Z"/><path class="cls-71" d="m504.67,82.5s-1.64,2.25-5.42,2.91c-2.32.4-4.8-.65-4.8-.65,0,0-5.1-2.89-7.46-9.82-1.12-3.31-1.62-7.52-.67-12.77,0,0,4.49-5.67,8.91-5.56,1.43.04,2.74.51,3.88,1.14,2.38,1.33,3.94,3.33,3.94,3.33,0,0,3.88,11.32,1.62,21.43Z"/><path class="cls-66" d="m504.67,82.5s-1.64,2.25-5.42,2.91c-2.32.4-4.8-.65-4.8-.65,0,0-5.1-2.89-7.46-9.82,1.94.78,6.17-1.52,6.17-1.52,0,0-1.92-6.93-.76-9.12,1.14-2.21,6.28-3.86,6.66-4.51.36-.63,0-2.04,0-2.04h.04c2.38,1.33,3.94,3.33,3.94,3.33,0,0,3.88,11.32,1.62,21.43Z"/><path class="cls-69" d="m503.56,65.16s-3.65-3.02-6.26-3c-2.6.03-4.33,1.83-4.69,3.06-.37,1.23.27,9.01,1.7,12.37,1.43,3.36,5.32,4.39,5.32,4.39,0,0-2.83-1.59-4.43-4.82-1.6-3.23-1.13-9.75-.77-10.65.37-.9,2.66-2.06,3.26-1.93.6.13,1.66,1.8,1.66,2.13s-1.56,2.16-2.06,3.56c-.5,1.4-.2,4.03.73,5.56s4.46,1.56,5.03,1.06c.57-.5,2-8.62.5-11.73Z"/><path class="cls-1" d="m504.17,54.81s-4.33,16.86-9.92,26.14c-5.59,9.28-14.32,12.29-14.32,12.29l-1.59,2.51s15.91-6.21,22.49-18.19c6.59-11.98,7.15-38.71,7.15-38.71l-3.81,15.96Z"/><path class="cls-1" d="m508.75,22.76s4.52,55.9-4.26,79.59c0,0,2.76-13.76,2.71-31.3-.05-17.54-1.84-32.2-1.84-32.2l3.38-16.1Z"/><path class="cls-15" d="m452.85,98.96s-16.1,9.79-16.37,15.98c-.27,6.18,17.1,11.84,18.23,13.1,1.13,1.26.09,3.33.09,3.33,0,0,1.43-2.73.44-4.06-.99-1.33-15.37-6.06-16.63-13.38-1.26-7.32,16.98-15.3,16.98-15.3l-2.74.33Z"/><path class="cls-15" d="m456.91,98.62s-11.84,10.74-11.71,16.97c.13,6.22,10.91,10.38,11.71,12.98.8,2.6-4.57,4.64-4.57,4.64,0,0,4.9-1.37,6.16-3.84,1.27-2.47-10.31-9.33-9.92-15.7.4-6.37,9.42-15.01,9.42-15.01l-1.1-.03Z"/><path class="cls-41" d="m460.81,128.86c.29,1.47-3.01,3.1-5.94,4.74l-1.96-.7c.76-.44,1.41-.95,1.9-1.54,3.2-3.9-18.16-8.09-22.44-14.37,18.67,5.69,26.8-2.07,26.8-2.07l.02.02c-1.94,2.55-3.73,4.91-3.67,6.03.13,2.4,4.78,5.39,5.29,7.88Z"/><path class="cls-34" d="m522.03,53.23s3.03,4.95,6.07,4.47c0,0-1.87-1.85-6.07-4.47Z"/><path class="cls-41" d="m530.59,62.17l-3.91,1.81-3.64,3.33.13.85s6.63-4.18,7.43-5.99Z"/><path class="cls-68" d="m546.29,167.97l-22.6,6.91-36.7,49.38s28.88-28.99,36.03-30.6l-14.78,39.79,22.34-33.93,5.64-7.37,10.06-24.17Z"/><path class="cls-41" d="m592.07,102.84s13.55-7.21,17.27-7.57c3.73-.35,24.25,20.16,24.25,20.16,0,0-14.97-11.29-20.76-12.9-5.79-1.61-20.76.31-20.76.31Z"/><path class="cls-28" d="m592.68,109.94s25.14,9.02,32.82,11.58c7.69,2.56,16.47,5.25,16.47,5.25l-10.18-11.06-39.11-5.77Z"/><path class="cls-28" d="m652.41,137.29c-3.39,4.4-17.22,11.04-17.22,11.04-29.86,14.92-74.05,18.69-85.89,19.47l-2.07.13-.95.04-22.59,6.91,22.59-8.58,66.55-18.38-52.91-4.85s40.52.65,55.74,0c15.21-.65,36.75-5.79,36.75-5.79Z"/><polygon class="cls-67" points="350.92 277.51 377.92 244.76 358.76 260.46 350.92 277.51"/><path class="cls-41" d="m624.72,237.47s-1.79,1.43-7.23,1.18h-.08c-1.96-.08-4.38-.4-7.38-1.07l-2,1.14s-6.95.23-12.62.11c-5.65-.13-11.4.11-12.73.29-1.33.21-8.81-1.2-8.81-1.2l.02-.23c1.35-2.38,3.54-7.65,2.59-15.36l32.35-1.33.8.36c3.9,2.3,14.98,14.37,15.09,16.12Z"/><path class="cls-41" d="m617.49,238.65h-.08c-1.96-.08-4.38-.4-7.38-1.07l-2,1.14s2.11-8.18-.7-9.34c-2.78-1.18-18.27,0-18.27,0l-4.13-1.9,4.3,1.26s17.24-1.69,18.86.63c2.21,3.14,9.4,9.27,9.4,9.27Z"/><path class="cls-37" d="m605.79,231.48s-4.39.05-5.49,2.25c-1.1,2.2,2.54,3.76,5.89,3.94,0,0,1-3.99-.4-6.19Z"/><g class="cls-61"><path class="cls-16" d="m418.55,235.86c-.51.61-1.17,1.17-1.14,2.02.04.78.6,1.62,1.12,2.14.84.87,2.75,2.16,3.94,2.32,3.23.41,5.49-3.57,5.68-6.3.12-1.73-.67-4.19-2.64-4.58-1.34-.27-2.41.42-3.49,1.05-.74.44-1.66.82-2.28,1.43-.82.8-1.44,1.99-1.8,3.06l.61-1.14Z"/><path class="cls-16" d="m422.1,244.79c-.21.09-.41.1-.61.03.31-.21.67-.37,1.03-.48.36-.11.77-.3,1.04.07.19.27.32.74.29,1.06-.04.35-.29.59-.56.8-.4.32-.85.43-1.3.14-.58-.38-.78-1.08-.14-1.52l.27-.09Z"/><path class="cls-16" d="m415.81,247.23c-.19.23-.3.31-.26.6.04.28.15.36.43.42.73.16,1.57-.02,1.93-.73.26-.53.04-1.13-.57-1.19-.2-.02-.54,0-.72.09-.26.14-.5.47-.7.68l-.11.13Z"/><path class="cls-16" d="m429.64,223.22c-.24.06-.48.13-.72.2-.17.16-.34.33-.51.5-.82.83-1.56,1.78-2.17,2.78-.43.7-.85,1.5-1.05,2.3-.09.35-.19.95.07,1.27.3.38.98.22,1.35.12.69-.18,1.45-.53,2.06-.9.34-.21.64-.47,1-.66.25-.1.5-.22.74-.34.27-.18.53-.36.79-.55,1.19-.87,2.15-2.04,2.96-3.27.45-.68.74-1.4.86-2.2.06-.4.15-1.03-.07-1.4-.52-.84-2.16-.7-2.91-.45-.6.2-1.08.66-1.51,1.11-.71.75-1.27,1.58-.87,1.49Z"/><path class="cls-16" d="m373.94,259.71c-.18.04-.35.09-.53.15-.13.12-.25.24-.38.37-.6.61-1.14,1.31-1.59,2.03-.32.51-.62,1.1-.77,1.69-.07.26-.14.7.05.93.22.28.72.16.99.09.5-.13,1.06-.39,1.51-.66.25-.15.47-.35.73-.48.19-.08.37-.16.54-.25.2-.13.39-.26.58-.4.87-.64,1.57-1.49,2.17-2.4.33-.5.54-1.03.63-1.61.04-.29.11-.76-.05-1.02-.38-.61-1.58-.51-2.13-.33-.44.14-.8.48-1.11.81-.52.55-.93,1.16-.64,1.09Z"/><path class="cls-16" d="m428.17,231.19c.06-.28.1-.39.32-.56.23-.18.49-.34.77-.22.52.22.35,1.01.06,1.36-.24.3-.45.51-.84.39-.36-.11-.26-.57-.18-.86l-.13-.11Z"/><path class="cls-16" d="m573.36,131.29c-.91-.32-1.79-.74-2.87-.69-.98.05-1.9.45-2.44.81-.89.59-2.05,1.9-1.94,2.7.3,2.16,5.95,3.53,9.48,3.57,2.24.02,5.16-.59,5.15-1.91,0-.9-1.15-1.59-2.24-2.29-.75-.48-1.47-1.07-2.41-1.47-1.22-.52-2.9-.89-4.35-1.1l1.61.37Z"/><path class="cls-16" d="m562.91,133.95c-.16-.13-.23-.27-.2-.4.35.2.64.43.88.67.24.23.58.5.18.69-.3.14-.85.24-1.28.22-.45-.01-.82-.18-1.16-.35-.5-.26-.77-.55-.51-.86.34-.4,1.18-.55,1.9-.15l.19.17Z"/><path class="cls-16" d="m558.19,129.84c-.35-.12-.48-.19-.83-.15-.35.03-.42.11-.43.3-.02.49.43,1.05,1.43,1.26.74.16,1.45,0,1.37-.42-.03-.13-.13-.36-.3-.47-.25-.17-.73-.32-1.04-.44l-.2-.07Z"/><path class="cls-16" d="m592.3,138.24c-.14-.16-.29-.32-.44-.47-.25-.11-.51-.22-.77-.32-1.27-.52-2.67-.98-4.09-1.35-1.01-.26-2.12-.52-3.2-.62-.47-.05-1.26-.09-1.6.09-.41.21-.03.66.19.9.41.45,1.04.95,1.68,1.34.35.22.77.41,1.09.64.2.16.4.33.63.48.29.17.59.34.9.51,1.42.76,3.15,1.36,4.92,1.86.98.27,1.97.44,3.02.5.52.03,1.35.07,1.76-.1.93-.37.33-1.46-.17-1.95-.41-.39-1.12-.7-1.8-.97-1.13-.45-2.33-.79-2.12-.53Z"/><path class="cls-16" d="m581.78,137.53c.37.03.52.05.8.19.28.15.55.31.47.51-.14.35-1.19.26-1.72.09-.45-.15-.77-.28-.71-.54.05-.24.66-.19,1.05-.15l.11-.09Z"/><path class="cls-16" d="m403.94,220.25c-.15.18-.38.34-.39.58-.01.3.19.57.44.72.49.29,1.23.14,1.57-.33.25-.34.49-.95.16-1.33-.13-.14-.43-.21-.61-.22-.46-.03-.78.34-1.1.61l-.08-.02Z"/><path class="cls-16" d="m395.4,207.59c-.59,1.32-1.03,2.65-1.21,4.1-.1.85-.18,1.82.08,2.65.12.39.27.78.72.87.42.09,1.06-.17,1.39-.39.34-.22.61-.53.88-.83.68-.78,1.2-1.67,1.76-2.53.3-.46.53-.97.78-1.46.35-.7.78-1.46.95-2.23.24-1.1.09-2.62-.99-3.28-.85-.52-1.93-.25-2.68.31-.56.42-.95,1.1-1.3,1.69-.33.6-.61,1.22-.82,1.87-.22.67-.31,1.36-.29,2.06l.72-2.81Z"/><path class="cls-16" d="m392.59,216.36c-.14-.16-.34-.33-.41-.54-.05-.17-.04-.39-.06-.57-.03-.37-.03-.79.2-1.11.13-.18.35-.34.58-.3.22.04.41.36.53.54.26.42.28,1.09.16,1.56-.04.17-.07.28-.21.38-.12.09-.36.11-.43.21l-.36-.17Z"/><path class="cls-16" d="m395.25,221.49c-.16-.17-.54-.39-.48-.68.03-.16.19-.38.29-.5.28-.32.65-.22.86.1.2.31.23.7.06,1.03-.09.18-.45.45-.59.15l-.13-.12Z"/><path class="cls-30" d="m437.23,222.35c-3,1.86-6.04,4.12-8.4,6.78-.59.67-.84,1.95-1.13,2.81-.41,1.21-.5,2.42-1.3,3.45-1.01,1.3-1.93,2.67-2.88,4.02-1.24,1.75-1.85,3.79-2.81,5.69-.7,1.39-1.79,4.02-1.12,5.54.24.54.34.82.33,1.43-.01,1.21-.37,2.87.53,3.81,1.42,1.46,3.33,1.04,5.14.88,1.09-.1,2.17-.12,3.25-.32,1.04-.19,1.85-.61,2.81-1,1.39-.57,2.75-.98,4.01-1.82,1.05-.69,2.06-1.44,3.03-2.24,1.58-1.31,2.51-3.02,4.38-4.01,2.59-1.36,5.56-2.19,7.91-3.98,1.09-.83,2.11-1.87,2.59-3.17.53-1.43.65-3.04.78-4.55.33-3.97-.65-8.01-2.67-11.42-1.4-2.38-3.76-3.83-6.33-4.71-1.14-.39-2.42-.9-3.65-.61-1.63.39-3.23,1.55-4.48,3.42Z"/><path class="cls-16" d="m442.82,253.23c-.81.28-2.34.41-2.61,1.32-.13.46-.01.71.46.83.81.19,1.83-.18,2.41-.68.44-.38,1.11-.88.78-1.58-.39-.84-1.09-.25-1.58.11h.53Z"/><path class="cls-16" d="m447.61,209.04c.36-.32.97-1.15,1.53-1.02.34.08.72.7.81,1.02.15.52.05,1.04-.14,1.54-.21.56-.32.91-.74,1.26-2.34,1.97-2.81-2.69-1.73-2.8h.27Z"/></g></g><path class="cls-9" d="m652.93,134.7c-1.12-8.53-16.65-35.78-16.65-35.78,0,0-7.38-22.3-12.96-25.12l-.02-.02c-1.73-.87-4.56-.07-7.65,1.43l-5.41-8.38-6.93-1.35s-5.39-4.11-6.26-4.45c-.83-.32-5.1-.81-7.28-.09-6.5-9.3-11.68-14.82-11.68-14.82-13.36,4.89-22.86,13.01-29.2,20.27h0s-3.87-1.32-6.07.92c-2.2,2.24-1.73,6.11-1.73,6.11,0,0-9.82,5.81-9.22,8.42.6,2.61,9.88,5.26,9.88,5.26,0,0,0,.01.01.02l-.34.33.86,1.51c-2.67-1.72-5.08-3.04-6.79-3.46-1.67-.41-6.27.21-12.09,1.32.05-.64.09-1.34.12-2.09h0c3.61-1.07,8.9-7.39,8.9-7.39l-3.06-2.93,3.59,2.26.6-.67c-2.13-3.46-9.88-7.77-9.88-7.77l-.53-.07c.03.22.05.48.06.72-.03-.24-.05-.48-.08-.73h.01s.01,0,.02,0c1.62-.83,4.22-2.78,5.87-4.24.06-.05.11-.1.17-.15.12-.11.24-.22.35-.32.02-.02.04-.04.06-.06.61-.58,1-1.04.96-1.2-.13-.51-.89-2.66-2.49-4.47-.29-.34-.63-.67-.99-.99-.87-.74-2.88-2.08-5.02-3.44-.02-.01-.03-.02-.05-.03h0c-3.27-2.08-6.83-4.21-7.19-4.43l.07-1.05,3.62-8.91s-1.43-4.62-4.34-4.33h0s0,0,0,0v-.02l-1.18-1.56-3.99-6.35c-.16-2.44-.27-3.83-.27-3.83v.04c-.33-6.7-1.55-12.05-3.6-14.64-.51-.63-1.03-1.07-1.62-1.37-.93-.46-2-.76-3.22-.91l-.02-.02h-.02v.02c-8.76-1.2-23.99,4.52-34.04,9.07-.2.01-.33.02-.33.02l-.8.47s0,0,0,0c0,0-.02.01-.03.02l-.18.11c-.28.12-.53.24-.8.37h0s0,0,0,0c-1.77.81-3.35,1.58-4.57,2.22-4.05,2.09-6.39,4.99-6.39,4.99-1.16.29-2.27.63-3.34,1.01-.71.26-1.37.56-2.03.85-.34.15-.7.28-1.03.44-.71.34-1.37.73-2.03,1.11-.25.14-.51.27-.75.41-.77.47-1.49.98-2.2,1.49-.09.06-.19.12-.27.19-.08.06-.15.11-.21.15-.06.04-.11.08-.15.11-.04.02-.06.04-.06.04-7.4,5.71-10.81,13.44-10.81,16.69,0,1.29.23,2.63.61,4.19l.32,1.24c.27,1.01.59,2.11.93,3.31.95,3.27,2.09,7.4,3.12,12.92l.04.27.59,3.43v.04c1.96,12.41,1.73,23.01,2.17,24.04.46,1.05,2.34.93,6.13,1.52,1.87.3,3.54.74,4.76,1.12-5.28,1.83-10.06,4.83-13.27,9.61,0,0-12.73,5.65-23.64,11.51-1.33.7-2.66,1.5-4.05,2.34-.15.08-.25.15-.34.19-.13.08-.21.13-.21.13-9.78,6.01-20,14.35-21.62,16.65-1.85,2.66-9.71,30.6-12.12,58.69-.99,11.55-1.98,20.84-2.99,28.11v.02l-4.17,19.2s-.02.06-.02.06c-2.25,4.51-21.03,22.36-25.01,36.73,0,0,.17,1.14,1.2,2.89l4.91,7.9c-2.89,1.45-7.74,4.07-8.11,5.52-.53,2.08,8.72,11.14,8.72,11.14l1.53-1.77s-6.39-7.85-5.59-9.37c.62-1.18,4.38-4.03,6.01-5.24l2.16.23s0,0,.01,0c-2.79,3.2-2.59,14.37-2.59,14.37,0,0,.01,0,.01,0h0s-18.72,21.1-26.91,38.05c-.01.03-.04.06-.05.08,0,0,4.39,3.64,19.56,9.61,0,0,0,0,0,0-.3,3.11-.43,5.53-.2,6.17.78,2.19,7.48,6.47,16.56,7.27,9.08.8,61.09-1.1,83.64-.88,22.57.19,180.4-1.48,180.4-1.48,2.38-3.27,3.73-7.6,4.02-11.2.61-7.56-2.28-14.71-3.75-16.46-2.19-2.61-34.94-25.96-62.69-31.15-16.19-3.04-26.97-5.57-33.14-7.13.07-.22.11-.36.11-.36l-.02-.04-2.48-9.64s-13.59,1.07-25.48-1.5h-.02l-3.15-.8s.02,0,.02,0c.49-.09,17.79-3.35,30.51-11.56,3.68-2.25,6.84-4.82,8.82-7.7,0,0-1.36-13.87-2.51-28.23,0,0,0,0,0,0h39.51c.52-.59.96-1.21,1.37-1.84v.05s7.48,1.41,8.8,1.2c1.33-.19,7.08-.42,12.73-.29,5.67.13,12.62-.11,12.62-.11l2-1.14c.71.16,1.39.3,2.04.42.65.12,1.26.22,1.84.31,0,0,0,0,0,0,.53.08,1.02.14,1.5.19.07,0,.14.02.21.02.35.04.68.06,1,.08.21.02.43.03.63.04.05,0,.1,0,.15.01h.08s.07,0,.11,0c.57.02,1.1.03,1.58.02.09,0,.19,0,.28,0,.49-.02.94-.04,1.36-.09.12-.01.22-.03.33-.04.29-.04.55-.07.8-.12.12-.02.24-.04.35-.06.28-.06.54-.12.77-.18.1-.03.18-.06.27-.08.14-.04.27-.09.39-.13.08-.03.15-.06.22-.09.14-.06.25-.11.35-.16.05-.03.09-.05.13-.07.07-.04.12-.07.16-.09.03-.02.04-.03.06-.04.04-.02.06-.04.06-.04-.11-1.75-11.19-13.82-15.09-16.12-.32-.19-.59-.32-.8-.36-2.77-.59-32.76-1.39-32.93-1.39-.55-2.12-1.12-3.46-1.12-3.46h-4.07l-.13-.17c-.32-.44-1.24-1.73-2.51-3.39-1.35-1.79-3.08-4-4.8-6.03-2.55-2.99-5.12-5.56-6.53-5.79-3.46-.53-16.44,2.68-17.45,2.53-.99-.13-5.5-3.77-5.5-3.77,0,0,0,0,0,0,.72-2.4,1.55-4.89,2.45-7.39l10.06-24.17.95-.04,2.07-.13c.64-.04,1.39-.09,2.21-.16,0,0,0,0,0,0,.41-.03.84-.06,1.29-.1.21-.02.41-.03.62-.05.04,0,.09,0,.13-.01,5.98-.48,15.19-1.41,25.78-3.08.1-.02.21-.03.31-.05.88-.14,1.76-.28,2.66-.44.14-.02.29-.05.43-.07.89-.15,1.78-.3,2.68-.47.11-.02.22-.04.32-.06,2.83-.51,5.72-1.07,8.65-1.69.17-.04.33-.07.5-.1.75-.16,1.5-.33,2.25-.5.4-.09.8-.18,1.21-.27.68-.16,1.37-.32,2.05-.48.48-.11.96-.23,1.44-.35.65-.16,1.31-.32,1.96-.49.52-.13,1.03-.26,1.55-.4.63-.16,1.25-.33,1.88-.49.58-.16,1.15-.32,1.73-.48.57-.16,1.15-.32,1.72-.48.81-.23,1.61-.47,2.41-.72.67-.2,1.34-.41,2-.62.78-.24,1.56-.49,2.33-.75.47-.15.93-.31,1.39-.47.68-.23,1.36-.46,2.03-.7.48-.17.95-.34,1.43-.52.65-.24,1.31-.48,1.95-.73.47-.18.94-.36,1.41-.54.66-.26,1.31-.52,1.96-.79.44-.18.88-.36,1.31-.54.71-.3,1.41-.61,2.11-.92.36-.16.73-.32,1.08-.48,1.05-.48,2.08-.97,3.1-1.48,0,0,13.82-6.64,17.22-11.04.13-.19.25-.36.36-.53.25-.42.3-1.14.17-2.07Zm-174.59-38.94s.35.12.9.31c-.32-.05-.66-.09-1.01-.14.03-.06.08-.1.11-.16Z"/><g class="cls-72"><path class="cls-42" d="m610.24,66.82l-6.93-1.35s-5.39-4.11-6.26-4.45c-.82-.32-5.1-.8-7.27-.08,0,0,7.82,3.77,15.43,6.62,5.79,2.17,8.81,5.48,9.95,6.91l-4.91-7.65Zm-61.34-.44s-1.12-.38-2.51-.38c-1.18,0-2.55.27-3.56,1.31-2.19,2.23-1.73,6.11-1.73,6.11,0,0-9.82,5.79-9.23,8.41.61,2.61,9.88,5.27,9.88,5.27l.02.02-.34.32,5.18-.34,10.81-16.04c13.89-9.84,20.67-24.93,20.67-24.93-13.38,4.89-22.88,13-29.21,20.25Zm-19.51,8.03l3.58,2.25.61-.67c-1.35-2.21-4.99-4.74-7.46-6.3.74,2.87-2.57,15.02-2.57,15.02,3.6-1.05,8.89-7.38,8.89-7.38l-3.06-2.93Zm1.2-12.24c-.13-.51-.88-2.66-2.49-4.47-.3-.34-.63-.67-.99-.99-.86-.74-2.87-2.09-5.02-3.43-.02-.02-.04-.02-.06-.04-1.64-1.03-3.33-2.09-4.68-2.91-1.35-.82-2.32-1.41-2.51-1.52l-.08,1.75c11.51,5.42,15.83,11.61,15.83,11.61Zm-12.05-23.31s-1.43-4.64-4.34-4.34l.65,14.29.08-1.05,3.6-8.89Zm-18.25-33h-.02v.02c-8.74-1.2-23.98,4.53-34.03,9.06-.19.02-.34.04-.34.04l-.8.46-.02.02-.19.11c-.27.13-.53.25-.8.38-1.77.8-3.35,1.58-4.57,2.21-4.05,2.09-6.39,4.99-6.39,4.99-1.16.3-2.28.63-3.33,1.01-.72.25-1.37.57-2.04.86-.34.15-.7.27-1.03.42-.7.34-1.37.74-2.02,1.12-.25.13-.51.25-.76.4-.76.48-1.5.99-2.19,1.5-.08.06-.19.13-.27.19-.08.06-.15.11-.21.15-.06.04-.11.08-.15.11-.04.02-.06.04-.06.04-7.4,5.71-10.81,13.44-10.81,16.69,0,1.29.23,2.63.61,4.19l.32,1.24c.27,1.01.59,2.11.93,3.31.95,3.27,2.09,7.4,3.12,12.92l.04.27.59,3.43v.04c.72,4.64,1.16,9.06,1.43,12.79.04-1.14.46-11.44,1.79-24.76,1.41-14.12,11.86-28.11,11.86-28.11,0,0,5.84-6.41,23.73-15.4,17.87-9,26.85-9.12,26.85-9.12l.76-.15c-.61-.21-1.26-.34-1.96-.42l-.02-.02Zm-88.29,112.99c-1.33.7-2.65,1.5-4.05,2.34-.15.08-.25.15-.34.19-.13.08-.21.13-.21.13-9.78,6.01-20,14.35-21.62,16.65-1.85,2.66-9.71,30.6-12.12,58.69-.99,11.55-1.98,20.84-2.99,28.11v.02l-4.17,19.2s-.02.06-.02.06c-2.25,4.51-21.03,22.36-25.01,36.73,0,0,.17,1.14,1.2,2.89l-.02.04,13.99-.04-5.71-6.34,7.84-17.05,16.18-13.25,2.06-26,3.22-12.69s12.92-49.84,21.09-61.87c8.18-12.05,19.34-30.72,19.34-30.72l-2.09-.51c-2.19,1.12-4.43,2.28-6.6,3.43Zm-64.31,189.06c.32.32.51.51.51.51-1.83,2.15-5.12,6.07-8.85,10.89-5.69,7.4-12.43,16.9-16.52,25.37-.02.04-.04.06-.04.08l33.53-38.29-6.57.17-2.04,1.26Z"/><path class="cls-4" d="m532.97,76.66l-3.58-2.25,3.06,2.93s-5.29,6.32-8.89,7.38c0,0,3.31-12.16,2.57-15.02,2.47,1.56,6.11,4.09,7.46,6.3l-.61.67Z"/><path class="cls-4" d="m578.1,46.13s-6.79,15.09-20.67,24.93l-10.81,16.04-5.18.34.34-.32-.02-.02s-9.27-2.66-9.88-5.27c-.59-2.61,9.23-8.41,9.23-8.41,0,0-.46-3.88,1.73-6.11,1.01-1.03,2.38-1.31,3.56-1.31,1.39,0,2.51.38,2.51.38,6.32-7.25,15.83-15.36,29.21-20.25Z"/><path class="cls-4" d="m530.58,62.16s-4.32-6.2-15.83-11.61l.08-1.75c.19.11,1.16.7,2.51,1.52,1.35.82,3.03,1.88,4.68,2.91.02.02.04.02.06.04,2.15,1.35,4.15,2.7,5.02,3.43.36.32.7.65.99.99,1.6,1.81,2.36,3.96,2.49,4.47Z"/><path class="cls-4" d="m615.15,74.47c-1.14-1.43-4.15-4.74-9.95-6.91-7.61-2.84-15.43-6.62-15.43-6.62,2.17-.72,6.45-.23,7.27.08.86.34,6.26,4.45,6.26,4.45l6.93,1.35,4.91,7.65Z"/><path class="cls-4" d="m502.26,6.3l-.76.15s-8.98.13-26.85,9.12c-17.89,9-23.73,15.4-23.73,15.4,0,0-21.96,6.31-17.99,19.93,4.63,15.87,4.37,31.8,4.33,32.94-.27-3.73-.72-8.16-1.43-12.79v-.04l-.59-3.43-.04-.27c-1.03-5.52-2.17-9.65-3.12-12.92-.34-1.2-.65-2.3-.93-3.31l-.32-1.24c-.38-1.56-.61-2.91-.61-4.19,0-3.25,3.41-10.98,10.81-16.69,0,0,.02-.02.06-.04.04-.02.08-.06.15-.11.06-.04.13-.08.21-.15.08-.06.19-.13.27-.19.7-.51,1.43-1.01,2.19-1.5.25-.15.51-.27.76-.4.65-.38,1.33-.78,2.02-1.12.34-.15.7-.27,1.03-.42.67-.3,1.33-.61,2.04-.86,1.05-.38,2.17-.72,3.33-1.01,0,0,2.34-2.91,6.39-4.99,1.22-.63,2.8-1.41,4.57-2.21.27-.13.53-.25.8-.38l.19-.11.02-.02.8-.46s.15-.02.34-.04c10.05-4.53,25.29-10.26,34.03-9.06v-.02h.02l.02.02c.7.08,1.35.21,1.96.42Z"/><path class="cls-4" d="m420.67,115.92s-11.17,18.67-19.34,30.72c-8.18,12.03-21.09,61.87-21.09,61.87l-3.22,12.69-2.06,26-16.18,13.25-7.84,17.05,5.71,6.34-13.99.04.02-.04c-1.03-1.75-1.2-2.89-1.2-2.89,3.98-14.37,22.76-32.22,25.01-36.73,0,0,0-.02.02-.06l4.17-19.2v-.02c1.01-7.27,2-16.56,2.99-28.11,2.4-28.09,10.26-56.03,12.12-58.69,1.62-2.3,11.84-10.64,21.62-16.65,0,0,.08-.04.21-.13.08-.04.19-.11.34-.19,1.39-.84,2.72-1.64,4.05-2.34,2.17-1.16,4.4-2.32,6.6-3.43l2.09.51Z"/><path class="cls-4" d="m356.29,306.48l-33.53,38.29s.02-.04.04-.08c4.09-8.47,10.83-17.98,16.52-25.37,3.73-4.83,7.02-8.75,8.85-10.89,0,0-.19-.19-.51-.51l2.04-1.26,6.57-.17Z"/><path class="cls-4" d="m564.94,102.75s17.67,4.9,30.98,7.83c13.31,2.93,39.22,5.77,39.22,5.77,0,0-17.36-11.97-21.43-13.39-4.07-1.42-48.76-.2-48.76-.2Z"/><path class="cls-4" d="m539.29,203.29l8.33,6.28,18.5,3.01,5.43,8.41,4.94,1.33,32.35-1.33s-21.75-1.17-32.91-1.32l-1.14-3.53h-4.12s-9.77-13.95-13.92-15.38c-4.15-1.43-17.45,2.53-17.45,2.53Z"/><path class="cls-4" d="m431.87,112.95s10.55-12.35,19.46-13.13c0,0-11.93-2.44-19.46,13.13Z"/><path class="cls-4" d="m339.46,297.28l9.62-5.05-.37-1.03s-7.66,3.08-9.25,6.08Z"/><polygon class="cls-4" points="563.45 69.88 568.78 69.88 578.09 61.49 573.17 60.56 563.45 69.88"/></g></g><g><path class="cls-2" d="m908.01,228.26c.32,1.52-3.03,5.08-8.79,8.28-6.22,3.46-15.26,6.51-25.43,6.09-4.15-.17-8.24-.89-12.1-1.9-14.33-3.75-25.56-11.67-25.56-11.67l17.7.72s8.05-4.4,21.49-7.02c.04,0,.08,0,.13-.02.8-.15,1.64-.29,2.49-.44,15.02-2.49,29.4,2.76,30.07,5.96Z"/><path class="cls-59" d="m877.92,240.11s-6.47.34-16.23.63c-21.43.65-58.77,1.07-78.54-2.76,0,0,5.06-37.8,15.72-50.85,0,0,14.5-2,29.54,0,0,0,22.93-7.33,29.12-6.3.11,0,.21.02.29.04,4.11.97,13.04,23.83,17.49,41.89.23.93.44,1.83.65,2.74.38,1.71.72,3.35,1.01,4.91.7,3.86,1.05,7.23.93,9.69Z"/><path class="cls-3" d="m831.38,231.81s45.22,6.17,44.42-7.11l3.13,15.54s-7.2,1.73-15.52.93c0,0-12.39-.72-32.02-9.36Z"/><path class="cls-74" d="m899.23,236.55c-6.22,3.46-15.26,6.51-25.43,6.09-4.15-.17-8.24-.89-12.1-1.9-21.43.65-58.77,1.07-78.54-2.76,0,0,5.06-37.8,15.72-50.85,8.51,2.47,45.58,4.64,45.58,4.64l-16.04-4.64,16.84,2.53,9.88-4.59,2.4-4.24c.11,0,.21.02.29.04,4.11.97,13.04,23.83,17.49,41.89.04,0,.08,0,.13-.02l.53,2.76.91,4.89.11.02,22.23,6.13Z"/><path class="cls-45" d="m763.39,227.36s18.31-7.79,41.87-5.71c23.56,2.08,32.84,14.57,60.27,19.97l-102.14-14.26Z"/><path class="cls-12" d="m762.09,244.56s-12.38-3.69-9.8-10.51c2.4-6.33,38.86-18.17,68.94-6.19,19.7,7.85,40.98,15.62,58.82,14.6,0,0-57.93,3.77-117.96,2.1Z"/></g></g></g></g></g></svg>