<?xml version="1.0" encoding="UTF-8"?><svg xmlns="http://www.w3.org/2000/svg" xmlns:xlink="http://www.w3.org/1999/xlink" viewBox="0 0 1539.45 585.27"><defs><style>.cls-1{fill:#650f31;}.cls-1,.cls-2,.cls-3,.cls-4,.cls-5,.cls-6,.cls-7,.cls-8,.cls-9,.cls-10,.cls-11,.cls-12,.cls-13,.cls-14,.cls-15,.cls-16,.cls-17,.cls-18,.cls-19,.cls-20,.cls-21,.cls-22,.cls-23,.cls-24,.cls-25,.cls-26,.cls-27,.cls-28,.cls-29,.cls-30,.cls-31,.cls-32,.cls-33,.cls-34,.cls-35{fill-rule:evenodd;}.cls-2,.cls-14{fill:#ffb095;}.cls-2,.cls-27,.cls-34{opacity:.5;}.cls-3{opacity:.2;}.cls-3,.cls-36,.cls-29{fill:#1f0020;}.cls-4{fill:#430827;}.cls-5{fill:#3c0722;}.cls-6{fill:url(#_Áåçûìÿííûé_ãðàäèåíò_104);}.cls-7{fill:#5d537c;}.cls-8{fill:#430951;opacity:.35;}.cls-37{isolation:isolate;}.cls-9{fill:#33063b;}.cls-10{fill:#ff894d;}.cls-11{fill:#631d48;}.cls-12{fill:#4d0f31;}.cls-13{fill:#fb8b57;}.cls-15{fill:url(#_Áåçûìÿííûé_ãðàäèåíò_104-3);}.cls-16,.cls-27,.cls-34{fill:#ffe2d1;}.cls-17{fill:#3a0926;}.cls-17,.cls-28,.cls-33{opacity:.47;}.cls-18{fill:#360b33;opacity:.48;}.cls-19{fill:#bf5d6b;}.cls-20{fill:#32063b;}.cls-21{fill:#ff7033;}.cls-22{fill:url(#Dégradé_sans_nom_84);opacity:.3;}.cls-23,.cls-25{opacity:.76;}.cls-23,.cls-26{fill:#2b0020;}.cls-24{fill:#270020;}.cls-25{fill:#590029;}.cls-27{mix-blend-mode:soft-light;}.cls-28{fill:#441137;}.cls-38{fill:url(#_Áåçûìÿííûé_ãðàäèåíò_104-2);}.cls-30{fill:url(#_Áåçûìÿííûé_ãðàäèåíò_56);}.cls-31{fill:#b14f5e;}.cls-32{fill:url(#_Áåçûìÿííûé_ãðàäèåíò_128);}.cls-33{fill:#37002f;}.cls-35{fill:#aa4f79;}</style><linearGradient id="_Áåçûìÿííûé_ãðàäèåíò_56" x1="915.31" y1="110.15" x2="993.86" y2="110.15" gradientUnits="userSpaceOnUse"><stop offset=".02" stop-color="#661820"/><stop offset=".95" stop-color="#420037"/></linearGradient><radialGradient id="_Áåçûìÿííûé_ãðàäèåíò_104" cx="-10579.25" cy="-8201.94" fx="-10579.25" fy="-8201.94" r="29.18" gradientTransform="translate(-9747.54 20576.16) rotate(-180) scale(1 -2.5)" gradientUnits="userSpaceOnUse"><stop offset="0" stop-color="#a83345"/><stop offset="1" stop-color="#60254f"/></radialGradient><linearGradient id="_Áåçûìÿííûé_ãðàäèåíò_128" x1="257.41" y1="132.19" x2="257.41" y2="101.47" gradientUnits="userSpaceOnUse"><stop offset=".03" stop-color="#e22f45"/><stop offset="1" stop-color="#ffa981"/></linearGradient><radialGradient id="_Áåçûìÿííûé_ãðàäèåíò_104-2" cx="263.27" cy="297.11" fx="263.27" fy="297.11" r="8.65" gradientTransform="translate(0 -135.94)" xlink:href="#_Áåçûìÿííûé_ãðàäèåíò_104"/><radialGradient id="_Áåçûìÿííûé_ãðàäèåíò_104-3" cx="263.61" cy="276.24" fx="263.61" fy="276.24" r="12.46" gradientTransform="translate(0 -135.94)" xlink:href="#_Áåçûìÿííûé_ãðàäèåíò_104"/><radialGradient id="Dégradé_sans_nom_84" cx="211.07" cy="63.11" fx="211.07" fy="63.11" r="78.71" gradientTransform="translate(290.87 -151.09) rotate(90) scale(1 .49)" gradientUnits="userSpaceOnUse"><stop offset=".03" stop-color="#fff200"/><stop offset=".14" stop-color="#fff53e" stop-opacity=".75"/><stop offset=".27" stop-color="#fff882" stop-opacity=".49"/><stop offset=".39" stop-color="#fffbb8" stop-opacity=".28"/><stop offset=".49" stop-color="#fffdde" stop-opacity=".13"/><stop offset=".57" stop-color="#fffef6" stop-opacity=".03"/><stop offset=".62" stop-color="#fff" stop-opacity="0"/></radialGradient></defs><g class="cls-37"><g id="Calque_2"><g><g><polygon class="cls-5" points="67.8 187.46 106.83 586.29 1223.79 589.39 1238.43 183.59 67.8 187.46"/><polygon class="cls-26" points="1462.68 189.51 1422.63 589.39 1223.79 589.39 1232.15 183.43 1462.68 189.51"/><polygon class="cls-36" points="153.28 514.28 115.89 189.61 117.64 189.41 155.02 514.08 153.28 514.28"/><polygon class="cls-36" points="211.45 514.23 190.67 189.57 192.43 189.46 213.2 514.12 211.45 514.23"/><rect class="cls-36" x="259.22" y="189.51" width="1.76" height="324.66"/><rect class="cls-36" x="379.71" y="187.78" width="1.76" height="322.97"/><rect class="cls-36" x="483.82" y="186.39" width="1.76" height="320.78" transform="translate(-9.35 13.46) rotate(-1.58)"/><polygon class="cls-36" points="588.83 508.44 572.2 187.83 573.96 187.74 590.59 508.35 588.83 508.44"/><rect class="cls-36" x="664.99" y="186.45" width="1.76" height="317.02"/><rect class="cls-36" x="933.78" y="186.45" width="1.76" height="317.02"/><rect class="cls-36" x="1071.27" y="186.45" width="1.76" height="317.02"/><rect class="cls-36" x="716.23" y="185.09" width="1.76" height="321.61"/><polygon class="cls-36" points="835.32 505.14 827.01 185.12 828.77 185.07 837.08 505.09 835.32 505.14"/><polygon class="cls-36" points="1164.06 506.77 1140.52 185.16 1142.27 185.03 1165.81 506.63 1164.06 506.77"/><polygon class="cls-36" points="1151.58 322.8 1151.24 321.07 1229.44 305.93 1229.78 307.66 1151.58 322.8"/><rect class="cls-36" x="772.56" y="199.01" width="1.76" height="112.76" transform="translate(488.2 1018.33) rotate(-87.77)"/><rect class="cls-36" x="584.11" y="399.59" width="81.76" height="1.76"/><rect class="cls-36" x="934.66" y="244.33" width="137.49" height="1.76"/><rect class="cls-36" x="210.69" y="487.68" width="49.42" height="1.76"/><polygon class="cls-12" points="93.75 586.29 93.75 518.05 1217.43 503.47 1217.43 589.39 93.75 586.29"/><polygon class="cls-26" points="1217.43 503.47 1435.1 505.84 1431.98 589.39 1217.43 589.39 1217.43 503.47"/><polygon class="cls-11" points="93.75 518.05 101.81 515.02 1226.89 503.47 1196.09 503.47 448.61 513.55 93.75 518.05"/><polygon class="cls-4" points="1196.09 503.47 1217.43 510.76 1248.03 503.47 1196.09 503.47"/><polygon class="cls-12" points="86.69 567.49 76.15 586.2 1217.43 589.39 1217.43 560.9 86.69 567.49"/><polygon class="cls-26" points="1217.43 560.9 1443.58 566.87 1451.72 589.39 1217.43 589.39 1217.43 560.9"/><polygon class="cls-11" points="86.69 567.49 93.75 565.18 1217.43 560.9 86.69 567.49"/><polygon class="cls-12" points="40.35 189.51 31.82 162.33 1212.03 147.36 1212.83 184.91 40.35 189.51"/><polygon class="cls-26" points="1212.03 147.36 1508.19 147.36 1493.65 189.51 1212.83 184.91 1212.03 147.36"/><polygon class="cls-28" points="489.12 507.11 380.59 507.11 380.59 187.78 480.3 186.45 489.12 507.11"/><polygon class="cls-28" points="836.2 505.12 717.11 506.7 717.11 254.53 829.78 257.58 836.2 505.12"/><polygon class="cls-28" points="260.1 227.87 380.59 330.7 380.59 345.9 260.1 237.53 260.1 227.87"/><polygon class="cls-28" points="260.1 375.86 380.59 418.58 380.59 466.05 260.1 440.28 260.1 375.86"/><polygon class="cls-28" points="934.66 363.32 1072.15 368.56 1072.15 453.5 934.66 427.74 934.66 363.32"/><polygon class="cls-28" points="201.05 337.9 260.1 327.71 260.1 196.84 191.55 207.69 201.05 337.9"/><polygon class="cls-28" points="1231.53 213.12 1144.52 227.87 1151.41 321.93 1229.61 306.79 1231.53 213.12"/><path class="cls-24" d="m201.94,367.89s-9.24,15.33,2.22,18.6l-2.22-18.6Z"/><polygon class="cls-24" points="260.1 345.9 289.36 327.71 260.1 349.27 255.6 351.85 260.1 345.9"/><polygon class="cls-24" points="126.36 272.83 144.47 286.89 126.36 279.86 126.36 272.83"/><polygon class="cls-24" points="601.47 344.96 617.05 321.93 607.01 342.29 596.28 356.87 601.47 344.96"/><polygon class="cls-24" points="665.87 390.1 653.4 400.47 665.87 408.41 665.87 390.1"/><polygon class="cls-24" points="584.11 390.1 587.62 399.26 620.51 400.47 586.02 402.99 584.4 406.05 584.11 390.1"/><polygon class="cls-17" points="317.67 160.66 324.15 186.31 421.79 185.87 417.72 159.95 317.67 160.66"/><polygon class="cls-17" points="446.21 158.54 446.21 185.84 451.91 185.73 452.61 158.54 446.21 158.54"/><polygon class="cls-17" points="842.44 183.43 845.96 157.73 1196.61 147.61 1190.51 183.43 842.44 183.43"/><polygon class="cls-17" points="783.75 183.43 722 155.44 721.36 157.73 782.58 183.59 783.75 183.43"/><path class="cls-28" d="m525.99,509.24l49.17-281.36,1.01,19.48-47.92,261.88h-2.25Z"/><polygon class="cls-28" points="519.91 509.32 551.08 206.16 545.38 206.16 508.1 508.39 519.91 509.32"/><polygon class="cls-17" points="348.74 563.87 333.5 514.96 376.43 513.52 388.2 563.67 348.74 563.87"/><polygon class="cls-17" points="413.82 563.55 397.54 514.18 405.68 513.52 417.37 563.53 413.82 563.55"/><polygon class="cls-17" points="786.7 561.71 800.54 505.72 850.92 505.12 843.53 561.71 786.7 561.71"/><polygon class="cls-17" points="754.15 588.11 760.38 561.71 744.46 561.92 740.3 588.45 754.15 588.11"/><polygon class="cls-17" points="210.69 586.7 210.69 566.47 260.1 566.47 260.1 586.92 210.69 586.7"/><polygon class="cls-17" points="201.29 586.92 168.36 567.49 154.15 567.49 191.55 586.63 201.29 586.92"/><polygon class="cls-21" points="31.82 162.33 1212.83 155.44 1508.19 147.36 1212.03 147.36 31.82 162.33"/><polygon class="cls-36" points="143.6 186.46 139.45 162.49 141.18 162.18 145.33 186.16 143.6 186.46"/><rect class="cls-36" x="261.99" y="160.35" width="1.76" height="26.07"/><rect class="cls-36" x="347.16" y="159.95" width="1.76" height="26.72"/><rect class="cls-36" x="626.36" y="170.9" width="28.38" height="1.76" transform="translate(382.88 782.87) rotate(-82.15)"/><rect class="cls-36" x="601.43" y="510.76" width="1.76" height="51.86"/><rect class="cls-36" x="718.59" y="533.77" width="53.47" height="1.76" transform="translate(80.13 1166.21) rotate(-79.17)"/><polygon class="cls-29" points="1157.47 504.28 1146.04 245.22 1164.7 503.47 1157.47 504.28"/><polygon class="cls-29" points="375.36 186.61 380.59 377.19 382.29 186.45 375.36 186.61"/><polygon class="cls-23" points="69.25 208.09 1231.71 204.51 1232.11 185.09 67.8 187.46 69.25 208.09"/><polygon class="cls-29" points="717.11 257.58 794.63 256.1 717.11 250.34 717.11 257.58"/><polygon class="cls-12" points="41.26 302.86 48.19 327.71 1190.51 327.71 1190.51 302.86 41.26 302.86"/><polygon class="cls-26" points="1190.51 302.86 1229.61 302.86 1229.18 327.71 1190.51 327.71 1190.51 302.86"/><polygon class="cls-23" points="81.52 327.71 82.96 342.35 1228.76 348.09 1229.18 327.71 81.52 327.71"/><polygon class="cls-17" points="316.91 327.71 316.91 302.86 471.96 302.86 467.28 327.71 316.91 327.71"/><polygon class="cls-17" points="495.2 327.71 503.64 302.86 525.06 302.86 513.5 327.71 495.2 327.71"/><polygon class="cls-17" points="751.35 327.71 744.8 302.86 755.87 302.86 759.66 327.71 751.35 327.71"/><polygon class="cls-17" points="861.45 327.71 852.1 302.86 861.45 302.86 879.85 327.71 861.45 327.71"/><polygon class="cls-4" points="1177.37 302.86 1190.51 306.79 1203.34 302.86 1177.37 302.86"/></g><g><g><path class="cls-30" d="m922.87,157.2l-7.56-85.27s44.14-15.61,78.56-5.33l-3.17,90.6h-67.82Z"/><rect class="cls-36" x="933.13" y="67.65" width=".55" height="89.68" transform="translate(-5.79 69.94) rotate(-4.28)"/><polygon class="cls-29" points="974.19 63.3 970.39 73.45 967.21 63.3 974.19 63.3"/><polygon class="cls-29" points="938.4 157.2 932.88 105.47 935.64 157.2 938.4 157.2"/><path class="cls-33" d="m932.88,67.13l37.82,77.38-.31-54.69-13.71-26.3s-16.63,1.88-23.8,3.6Z"/><polygon class="cls-33" points="931.71 89.82 970.39 146.8 970.7 150.35 932.17 94.77 931.71 89.82"/><polygon class="cls-4" points="990.98 149.02 970.7 135.31 970.19 124.08 991.89 128.46 990.98 149.02"/><polygon class="cls-24" points="993.01 81.24 1006.24 65.11 1040.3 79.19 1020.45 148.14 991.31 145.38 991.7 131.03 1011.3 131.79 1019.87 93.79 1006.54 84.74 992.57 97.81 993.01 81.24"/><polygon class="cls-1" points="986.17 81.24 998.03 63.1 1028.56 76.18 1010.77 148.14 984.65 145.38 984.99 131.03 1002.57 131.79 1010.25 93.79 998.3 84.74 985.78 97.81 986.17 81.24"/><polygon class="cls-13" points="998.03 63.1 1006.24 65.11 1040.3 79.19 1028.56 76.18 998.03 63.1"/><polygon class="cls-29" points="1020.45 148.14 1010.77 148.14 1028.56 76.18 1040.3 79.19 1020.45 148.14"/><polygon class="cls-4" points="1022.43 73.55 1026.92 82.81 1032.43 77.17 1022.43 73.55"/><rect class="cls-36" x="970.11" y="63.14" width=".55" height="94.07"/><path class="cls-29" d="m918.48,107.71s45.51-2.92,74.02-2.09l-.55,15.79s-28.04-5.32-72.25,0l-1.21-13.7Z"/><polygon class="cls-29" points="1002.85 88.19 992.57 99.71 985.78 97.81 998.3 84.74 1002.85 88.19"/><polygon class="cls-25" points="985.78 97.81 991.89 125.61 992.57 99.71 985.78 97.81"/><polygon class="cls-25" points="984.65 145.38 990.69 157.2 991.31 145.38 984.65 145.38"/></g><g><path class="cls-20" d="m883.46,18.09s-43.72,1.94-67.28-1.39c0,0,30.84-6.37,67.28,1.39Z"/><path class="cls-6" d="m880.25,18.09s-31.22-4-61.46-1.41v7.23l-8.62,14.31,1.49,120.32h75.98l1.17-115.73-7.87-14.1-.69-10.62Z"/><path class="cls-31" d="m883.46,16.7v1.39s-36.45-6.81-67.28-1.39v-4.79s29.93-6.4,67.28,4.79Z"/><path class="cls-18" d="m818.79,23.91s27.77-2.4,45.7,2.35l-1.78,9.12,11.54,118.27-62.59,4.88h75.98l.79-117.36-7.49-12.47-.69-10.62s-36.62-5.13-61.46-1.41v7.23Z"/><path class="cls-31" d="m871.55,39.85l6.39-11.62,32.91,1.47s4.92,32.57,0,55.99c-4.92,23.42-27.75,40.12-27.75,40.12h-2.95s24.87-22.1,28.86-41.65c3.99-19.56-3.07-50.52-3.07-50.52l-27.26-1.45-4.42,9.31,2.83,12.05-4.06.98-1.47-14.68Z"/><polygon class="cls-7" points="873.02 54.53 888.57 54.96 889.37 53.79 877.08 53.55 873.02 54.53"/><path class="cls-9" d="m910.85,29.7l9.46.69s1.89,37.12-.84,55.29c-2.72,18.17-28.22,40.12-28.22,40.12h-8.15s24.64-20.93,27.75-40.12c3.11-19.19,0-55.99,0-55.99Z"/><polygon class="cls-20" points="891.25 32.75 888.43 41.17 889.37 53.79 877.08 53.55 874.25 41.5 878.68 32.19 891.25 32.75"/><polygon class="cls-31" points="880.15 125.81 880.15 136.35 882.75 136.35 883.1 125.81 880.15 125.81"/><polygon class="cls-20" points="891.25 125.81 892.29 137.13 882.75 136.35 883.1 125.81 891.25 125.81"/><polygon class="cls-20" points="892.29 137.13 889.88 137.87 880.15 136.35 882.75 136.35 892.29 137.13"/><polygon class="cls-14" points="846.09 34.31 821.27 35.38 827.34 23.44 848.34 23.44 846.09 34.31"/><polygon class="cls-27" points="819 35.38 823.44 23.44 820.54 23.78 813.86 36.19 819 35.38"/><path class="cls-20" d="m818.79,23.91s33.32-2.57,62.04,3.07l-.58-8.9s-37.95-4.76-61.46-1.41v7.23Z"/><polygon class="cls-2" points="827.34 42.99 827.34 79.72 815.75 79.06 813.86 42.99 827.34 42.99"/><polygon class="cls-27" points="886.83 56.24 882.75 56.24 883.81 122.34 885.52 120.62 886.83 56.24"/><polygon class="cls-14" points="834.8 10.33 834.8 14.56 825.6 15.33 825 10.69 834.8 10.33"/><g><polygon class="cls-35" points="846.09 106.5 818.65 82.86 834.8 94.68 846.09 106.5"/><polygon class="cls-35" points="850.04 56.24 821.27 53.79 834.8 53.36 850.04 56.24"/><polygon class="cls-35" points="846.09 94.68 843.5 101.06 844.79 95.86 846.09 94.68"/><polygon class="cls-35" points="859.55 116.09 859.55 124.21 858.26 117.27 859.55 116.09"/><polygon class="cls-35" points="843.99 63.75 827.34 71.26 838.11 65.45 843.99 63.75"/><polygon class="cls-35" points="855.75 138.74 867.25 119.28 859.95 133.45 855.75 138.74"/></g></g><path class="cls-8" d="m1006.24,65.11l-8.21-2.01-4.27,6.54.11-3.03c-6.34-1.89-13.01-2.9-19.67-3.3h0s-.01,0-.01,0c-1.17-.07-2.34-.12-3.51-.15h0s-.33-.01-.33-.01c-4.62-.12-9.21.05-13.65.39h0s-.06,0-.1,0c-7.55.6-14.67,1.73-20.8,2.98-1.07.2-2.05.41-2.9.61h0c-.97.22-1.9.43-2.8.64l-.3.02v.05c-3.61.86-6.69,1.69-9.06,2.39.68-18.3-.41-39.83-.41-39.83l-9.46-.69-29.94-1.34-.09-1.37h0l-.57-8.77c2.03-.07,3.2-.12,3.2-.12v-1.4c-25.06-7.51-46.74-7.1-58.32-6.01h-.14s0,.01,0,.01c-5.59.53-8.82,1.21-8.82,1.21v4.79c.84.12,1.72.23,2.61.34v6.88l-8.62,14.31,1.49,120.32h75.97l.21-20.99,2.03.32,2.41-.73-1.04-11.32s19.01-16.38,25.95-32.56l1.81,20.43.69,7.74h0l3.17,35.79h13.61v.02s.27-.02.27-.02h53.94l.58-11.12,19.49,2.06h9.68l19.85-68.95-34.06-14.09Zm-14.46,65.93l.11-2.58-.19-.04.11-3.17.08.35.27-10.37.55-15.69,10.14-11.37,7.39,5.61-7.61,37.66-10.86-.42Zm-82.76-46.88c-2.51,12.33-13.31,25.65-20.96,33.82l.64-63.19.68-1-.59-7.92.03-3.07-.3-.54-.08-1.1,2.79-8.32,14.72.78s7.06,30.96,3.07,50.52Zm-.64,9.64c1.03-2.6,1.89-5.3,2.48-8.11-.44,2.69-1.33,5.41-2.48,8.11Z"/></g></g><g><path class="cls-32" d="m245.81,131.1l-1.39-24.36s14.14-7.85,25.99-4.39l-2.61,29.84-21.99-1.09Z"/><path class="cls-19" d="m254.39,102.84s2.39-9.79,6.57-10.82l.58.53s-5.01,3.74-6.34,10.29h-.8Z"/><path class="cls-3" d="m244.42,106.74s2.03,18.52,4.12,20.86c2.09,2.34,14.41,1.53,17.02.96,2.61-.57,4.63-23.67,4.63-23.67l-2.39,27.3-21.99.3-1.39-25.76Z"/><rect class="cls-38" x="242.83" y="155.92" width="28.15" height="4.86"/><path class="cls-10" d="m270.98,155.92s-13.49-1.36-28.15,0c0,0,11.34,1.46,28.15,0Z"/><path class="cls-15" d="m240.67,132.06l1.18,13.38,28.91-.63,1.5-12.75s-6.22-1.62-13.11-1.62c-14.09,0-18.48,1.62-18.48,1.62Z"/><path class="cls-20" d="m241.85,145.45s18.99,1.69,28.91-.63c0,0-15.54-1.87-28.91.63Z"/><path class="cls-20" d="m252.76,145.01s5.12-1.1,8.2,0l-.89,10.91h-6.37l-.94-10.91Z"/><path class="cls-34" d="m260.57,130.73l-.21,12.25,6.6.31.83-11.11s-1.08-1.58-7.22-1.46Z"/><polygon class="cls-27" points="241.85 132.93 242.61 132.5 243.43 144.15 242.61 144.15 241.85 132.93"/><polygon class="cls-34" points="260.96 156.5 261.26 160.79 264.32 160.79 264.08 156.57 260.96 156.5"/><path class="cls-16" d="m263.76,106.74c-1.06-.69-1.86,4.75-1.24,6.29.62,1.54,1.17,3.34,1.69,3.36.52.02,1.99-8.05-.45-9.65Z"/><path class="cls-16" d="m261.54,101.57s1.27,2.42,2.17,2.53c.91.1,1.42-2.53,1.42-2.53,0,0-1.62-.21-3.59,0Z"/><path class="cls-16" d="m257.3,95.47c1.8,4.25,6.05-2.24,5.34-17.46s-1.68-29.63-1.68-29.63c0,0-5.59,42.52-3.66,47.09Z"/></g><path class="cls-22" d="m260.25,126.21c-23.98,0-43.41-19.04-43.41-42.52S236.27-6.25,260.25-6.25s43.41,66.45,43.41,89.94-19.44,42.52-43.41,42.52Z"/></g></g></svg>