<?xml version="1.0" encoding="UTF-8"?><svg xmlns="http://www.w3.org/2000/svg" xmlns:xlink="http://www.w3.org/1999/xlink" viewBox="0 0 692.64 414.22"><defs><style>.cls-1{fill:url(#_Áåçûìÿííûé_ãðàäèåíò_172);}.cls-1,.cls-2,.cls-3,.cls-4,.cls-5,.cls-6,.cls-7,.cls-8,.cls-9,.cls-10,.cls-11,.cls-12,.cls-13,.cls-14,.cls-15,.cls-16,.cls-17,.cls-18,.cls-19,.cls-20,.cls-21,.cls-22,.cls-23,.cls-24,.cls-25,.cls-26,.cls-27,.cls-28,.cls-29,.cls-30,.cls-31,.cls-32,.cls-33,.cls-34,.cls-35,.cls-36,.cls-37,.cls-38,.cls-39{mix-blend-mode:screen;}.cls-2{fill:url(#Dégradé_sans_nom_310);}.cls-2,.cls-3,.cls-40,.cls-41,.cls-42,.cls-43,.cls-44,.cls-45,.cls-5,.cls-6,.cls-7,.cls-8,.cls-46,.cls-47,.cls-9,.cls-10,.cls-48,.cls-49,.cls-50,.cls-13,.cls-15,.cls-51,.cls-17,.cls-18,.cls-52,.cls-53,.cls-54,.cls-55,.cls-56,.cls-21,.cls-57,.cls-58,.cls-23,.cls-59,.cls-24,.cls-60,.cls-61,.cls-62,.cls-63,.cls-64,.cls-65,.cls-66,.cls-67,.cls-68,.cls-30,.cls-69,.cls-70,.cls-31,.cls-71,.cls-72,.cls-33,.cls-73,.cls-74,.cls-35,.cls-36,.cls-37,.cls-38,.cls-39,.cls-75,.cls-76{fill-rule:evenodd;}.cls-2,.cls-3,.cls-4,.cls-5,.cls-6,.cls-7,.cls-8,.cls-9,.cls-10,.cls-11,.cls-12,.cls-13,.cls-15,.cls-17,.cls-18,.cls-19,.cls-55,.cls-21,.cls-22,.cls-23,.cls-59,.cls-24,.cls-25,.cls-27,.cls-28,.cls-30,.cls-71,.cls-35,.cls-36,.cls-37,.cls-38,.cls-39{opacity:.61;}.cls-3{fill:url(#Dégradé_sans_nom_311);}.cls-40{fill:url(#linear-gradient-2);}.cls-40,.cls-77,.cls-78,.cls-79,.cls-80,.cls-81,.cls-82,.cls-83,.cls-49,.cls-84,.cls-50,.cls-85,.cls-86,.cls-87,.cls-88,.cls-89,.cls-53,.cls-54,.cls-90,.cls-91,.cls-92,.cls-93,.cls-94,.cls-95,.cls-96,.cls-97,.cls-98,.cls-99,.cls-100,.cls-64,.cls-101,.cls-65,.cls-66,.cls-102,.cls-103,.cls-104,.cls-105,.cls-72,.cls-106,.cls-74,.cls-107,.cls-108,.cls-109,.cls-110,.cls-111,.cls-112,.cls-113,.cls-114,.cls-115,.cls-116,.cls-117,.cls-118,.cls-75,.cls-119,.cls-76,.cls-120{mix-blend-mode:multiply;}.cls-40,.cls-79,.cls-80,.cls-81,.cls-82,.cls-48,.cls-83,.cls-49,.cls-84,.cls-87,.cls-16,.cls-89,.cls-54,.cls-92,.cls-96,.cls-98,.cls-99,.cls-100,.cls-26,.cls-64,.cls-65,.cls-102,.cls-103,.cls-69,.cls-32,.cls-105,.cls-106,.cls-107,.cls-108,.cls-113,.cls-114,.cls-115,.cls-118,.cls-75,.cls-120{opacity:.5;}.cls-41{fill:url(#radial-gradient);}.cls-77{fill:url(#_Áåçûìÿííûé_ãðàäèåíò_166-2);}.cls-77,.cls-88,.cls-90,.cls-95,.cls-97,.cls-101,.cls-104,.cls-109,.cls-111,.cls-112,.cls-119{opacity:.8;}.cls-42{fill:url(#_Áåçûìÿííûé_ãðàäèåíò_158-2);}.cls-121{fill:url(#_Áåçûìÿííûé_ãðàäèåíò_176);}.cls-43{fill:url(#_Áåçûìÿííûé_ãðàäèåíò_171);}.cls-44{fill:url(#Dégradé_sans_nom_316);}.cls-44,.cls-46,.cls-51,.cls-52,.cls-58,.cls-31{opacity:.2;}.cls-122,.cls-47,.cls-48{fill:#fff;}.cls-123{fill:url(#_Áåçûìÿííûé_ãðàäèåíò_181);}.cls-45{fill:#512e18;}.cls-124{fill:#7a64c5;}.cls-4{fill:url(#Dégradé_sans_nom_314-5);}.cls-5{fill:url(#radial-gradient-3);}.cls-125{fill:url(#_Áåçûìÿííûé_ãðàäèåíò_180-3);}.cls-78{fill:#9a3356;}.cls-6{fill:url(#Dégradé_sans_nom_306);}.cls-79{fill:url(#_Áåçûìÿííûé_ãðàäèåíò_173-11);}.cls-126{fill:url(#Dégradé_sans_nom_2);}.cls-7{fill:url(#Dégradé_sans_nom_314-4);}.cls-127,.cls-128{fill:#ffffa4;}.cls-80{fill:url(#_Áåçûìÿííûé_ãðàäèåíò_165-3);}.cls-8{fill:url(#radial-gradient-2);}.cls-81{fill:url(#_Áåçûìÿííûé_ãðàäèåíò_165-8);}.cls-46{fill:url(#Dégradé_sans_nom_340);}.cls-9{fill:url(#Dégradé_sans_nom_311-2);}.cls-82{fill:url(#_Áåçûìÿííûé_ãðàäèåíò_173-19);}.cls-10{fill:url(#Dégradé_sans_nom_310-2);}.cls-48,.cls-129,.cls-128{mix-blend-mode:soft-light;}.cls-83{fill:url(#_Áåçûìÿííûé_ãðàäèåíò_173-21);}.cls-49{fill:url(#_Áåçûìÿííûé_ãðàäèåíò_159);}.cls-11{fill:url(#Dégradé_sans_nom_308-2);}.cls-130{fill:url(#_Áåçûìÿííûé_ãðàäèåíò_167);}.cls-84{fill:url(#_Áåçûìÿííûé_ãðàäèåíò_173);}.cls-12{fill:url(#Dégradé_sans_nom_312-2);}.cls-131{fill:url(#_Áåçûìÿííûé_ãðàäèåíò_193);}.cls-50{fill:url(#_Áåçûìÿííûé_ãðàäèåíò_157-5);}.cls-50,.cls-53,.cls-66,.cls-72,.cls-74,.cls-76{opacity:.72;}.cls-13{fill:url(#Dégradé_sans_nom_314-2);}.cls-132{clip-path:url(#clippath-2);}.cls-129,.cls-133{fill:#a4fff9;}.cls-134{isolation:isolate;}.cls-14{fill:url(#_Áåçûìÿííûé_ãðàäèåíò_172-3);}.cls-135{fill:#d74251;}.cls-85{fill:url(#_Áåçûìÿííûé_ãðàäèåíò_165-6);}.cls-15{fill:url(#Dégradé_sans_nom_314-6);}.cls-86{opacity:.49;}.cls-87{fill:url(#_Áåçûìÿííûé_ãðàäèåíò_165-9);}.cls-51{fill:url(#Dégradé_sans_nom_300);}.cls-16{fill:url(#_Áåçûìÿííûé_ãðàäèåíò_172-5);}.cls-136{fill:url(#_Áåçûìÿííûé_ãðàäèåíò_180);}.cls-17{fill:url(#Dégradé_sans_nom_329);}.cls-18{fill:url(#Dégradé_sans_nom_314-3);}.cls-52{fill:url(#Dégradé_sans_nom_343);}.cls-88{fill:url(#_Áåçûìÿííûé_ãðàäèåíò_173-7);}.cls-137{fill:#81a6ff;}.cls-138{fill:#fc526b;}.cls-139{fill:url(#_Áåçûìÿííûé_ãðàäèåíò_182-2);}.cls-89{fill:url(#_Áåçûìÿííûé_ãðàäèåíò_173-15);}.cls-19{fill:url(#Dégradé_sans_nom_312);}.cls-53{fill:url(#_Áåçûìÿííûé_ãðàäèåíò_157-4);}.cls-54{fill:url(#_Áåçûìÿííûé_ãðàäèåíò_161);}.cls-55{fill:url(#Dégradé_sans_nom_298);}.cls-90{fill:url(#_Áåçûìÿííûé_ãðàäèåíò_173-13);}.cls-91{opacity:.4;}.cls-91,.cls-110{fill:#401d5b;}.cls-92{fill:url(#_Áåçûìÿííûé_ãðàäèåíò_173-4);}.cls-140{fill:url(#_Áåçûìÿííûé_ãðàäèåíò_175-2);}.cls-141{fill:#450059;}.cls-20{fill:url(#_Áåçûìÿííûé_ãðàäèåíò_178-2);}.cls-93{fill:url(#_Áåçûìÿííûé_ãðàäèåíò_165-5);}.cls-142{clip-path:url(#clippath-1);}.cls-143{fill:#b4244c;}.cls-144{fill:#4d001f;}.cls-56{fill:#ac5c77;}.cls-21{fill:url(#radial-gradient-6);}.cls-145{fill:url(#_Áåçûìÿííûé_ãðàäèåíò_168);}.cls-57{fill:#eca4a5;}.cls-146{fill:#ff7f65;}.cls-94{fill:url(#_Áåçûìÿííûé_ãðàäèåíò_165-2);opacity:.3;}.cls-58{fill:url(#Dégradé_sans_nom_315);}.cls-147{fill:#d67e77;}.cls-95{fill:url(#_Áåçûìÿííûé_ãðàäèåíò_173-14);}.cls-148{fill:url(#_Áåçûìÿííûé_ãðàäèåíò_182);}.cls-149{fill:url(#_Áåçûìÿííûé_ãðàäèåíò_183);}.cls-22{fill:url(#Dégradé_sans_nom_314-8);}.cls-96{fill:url(#_Áåçûìÿííûé_ãðàäèåíò_173-16);}.cls-150{fill:url(#_Áåçûìÿííûé_ãðàäèåíò_175);}.cls-23{fill:url(#Dégradé_sans_nom_314);}.cls-59{fill:url(#Dégradé_sans_nom_297);}.cls-151{fill:url(#_Áåçûìÿííûé_ãðàäèåíò_175-3);}.cls-152{fill:url(#_Áåçûìÿííûé_ãðàäèåíò_169);}.cls-24{fill:url(#Dégradé_sans_nom_308);}.cls-153{fill:url(#_Áåçûìÿííûé_ãðàäèåíò_181-2);}.cls-97{fill:url(#_Áåçûìÿííûé_ãðàäèåíò_173-9);}.cls-98{fill:url(#_Áåçûìÿííûé_ãðàäèåíò_165-7);}.cls-154{fill:#bd526b;}.cls-99{fill:url(#_Áåçûìÿííûé_ãðàäèåíò_173-17);}.cls-25{fill:url(#Dégradé_sans_nom_309);}.cls-60{fill:#341018;}.cls-100{fill:url(#_Áåçûìÿííûé_ãðàäèåíò_173-3);}.cls-26{fill:url(#_Áåçûìÿííûé_ãðàäèåíò_172-4);}.cls-155{fill:#7c5970;}.cls-61{fill:url(#_Áåçûìÿííûé_ãðàäèåíò_164-3);}.cls-62{fill:url(#_Áåçûìÿííûé_ãðàäèåíò_434);}.cls-156{fill:#4f2d41;}.cls-27{fill:url(#Dégradé_sans_nom_314-7);}.cls-63{fill:url(#_Áåçûìÿííûé_ãðàäèåíò_170);}.cls-64{fill:url(#linear-gradient);}.cls-101{fill:url(#_Áåçûìÿííûé_ãðàäèåíò_173-8);}.cls-157{clip-path:url(#clippath);}.cls-28{fill:url(#Dégradé_sans_nom_304);}.cls-29{fill:url(#_Áåçûìÿííûé_ãðàäèåíò_172-2);}.cls-158{fill:url(#_Áåçûìÿííûé_ãðàäèåíò_508);mix-blend-mode:color-dodge;opacity:.23;}.cls-65{fill:url(#_Áåçûìÿííûé_ãðàäèåíò_173-23);}.cls-159{fill:none;}.cls-66{fill:url(#_Áåçûìÿííûé_ãðàäèåíò_157);}.cls-67{fill:url(#_Áåçûìÿííûé_ãðàäèåíò_164);}.cls-102{fill:url(#_Áåçûìÿííûé_ãðàäèåíò_173-5);}.cls-103{fill:url(#_Áåçûìÿííûé_ãðàäèåíò_179);}.cls-160{fill:url(#_Áåçûìÿííûé_ãðàäèåíò_176-2);}.cls-68{fill:url(#_Áåçûìÿííûé_ãðàäèåíò_158);}.cls-30{fill:url(#Dégradé_sans_nom_305);}.cls-104{fill:url(#_Áåçûìÿííûé_ãðàäèåíò_173-10);}.cls-69{fill:url(#Dégradé_sans_nom_334);}.cls-70{fill:url(#_Áåçûìÿííûé_ãðàäèåíò_164-2);}.cls-31{fill:url(#radial-gradient-7);}.cls-32{fill:url(#_Áåçûìÿííûé_ãðàäèåíò_172-6);}.cls-161{fill:url(#_Áåçûìÿííûé_ãðàäèåíò_174);}.cls-105{fill:url(#_Áåçûìÿííûé_ãðàäèåíò_165);}.cls-71{fill:url(#Dégradé_sans_nom_328);}.cls-72{fill:url(#_Áåçûìÿííûé_ãðàäèåíò_157-6);}.cls-33{fill:url(#Dégradé_sans_nom_313);}.cls-73{fill:url(#_Áåçûìÿííûé_ãðàäèåíò_162);}.cls-162{fill:url(#_Áåçûìÿííûé_ãðàäèåíò_204);}.cls-106{fill:#a240a6;}.cls-34{fill:url(#_Áåçûìÿííûé_ãðàäèåíò_178);}.cls-74{fill:url(#_Áåçûìÿííûé_ãðàäèåíò_157-3);}.cls-163{fill:url(#_Áåçûìÿííûé_ãðàäèåíò_180-2);}.cls-35{fill:url(#radial-gradient-5);}.cls-164{fill:url(#_Áåçûìÿííûé_ãðàäèåíò_184);}.cls-165{fill:url(#_Áåçûìÿííûé_ãðàäèåíò_186);}.cls-107{fill:url(#_Áåçûìÿííûé_ãðàäèåíò_166-4);}.cls-108{fill:url(#_Áåçûìÿííûé_ãðàäèåíò_173-20);}.cls-109{fill:url(#_Áåçûìÿííûé_ãðàäèåíò_166-3);}.cls-166{fill:#e9b3ff;}.cls-110{opacity:.7;}.cls-36{fill:url(#Dégradé_sans_nom_309-2);}.cls-111{fill:url(#_Áåçûìÿííûé_ãðàäèåíò_166);}.cls-167{fill:url(#_Áåçûìÿííûé_ãðàäèåíò_185);}.cls-112{fill:#5e2283;}.cls-113{fill:url(#_Áåçûìÿííûé_ãðàäèåíò_173-12);}.cls-37{fill:url(#radial-gradient-4);}.cls-38{fill:url(#linear-gradient-4);}.cls-114{fill:url(#_Áåçûìÿííûé_ãðàäèåíò_173-18);}.cls-115{fill:#5e40a6;}.cls-168{fill:#c371c5;}.cls-116{fill:url(#_Áåçûìÿííûé_ãðàäèåíò_165-4);}.cls-117{opacity:.24;}.cls-118{fill:url(#_Áåçûìÿííûé_ãðàäèåíò_173-22);}.cls-39{fill:url(#linear-gradient-3);}.cls-75{fill:url(#_Áåçûìÿííûé_ãðàäèåíò_160);}.cls-119{fill:url(#_Áåçûìÿííûé_ãðàäèåíò_173-6);}.cls-169{fill:url(#_Áåçûìÿííûé_ãðàäèåíò_180-4);}.cls-76{fill:url(#_Áåçûìÿííûé_ãðàäèåíò_157-2);}.cls-120{fill:url(#_Áåçûìÿííûé_ãðàäèåíò_173-2);}</style><clipPath id="clippath"><rect class="cls-159" x="-2382.61" y="511.48" width="1946" height="1094.63"/></clipPath><clipPath id="clippath-1"><rect class="cls-159" x="-2578.51" y="506.58" width="2556.04" height="1104.43"/></clipPath><clipPath id="clippath-2"><polygon class="cls-159" points="-303.72 711.7 -328.22 1479.39 -22.46 1611.56 -22.46 506.55 -303.72 711.7"/></clipPath><radialGradient id="_Áåçûìÿííûé_ãðàäèåíò_508" cx="-1951.53" cy="3928.04" fx="-1933.04" fy="4053.51" r="289.81" gradientTransform="translate(-4122.8 -1444.31) rotate(-90) scale(1.08 1)" gradientUnits="userSpaceOnUse"><stop offset="0" stop-color="#f48133"/><stop offset=".02" stop-color="#e87a30"/><stop offset=".13" stop-color="#b25e25"/><stop offset=".24" stop-color="#82451b"/><stop offset=".36" stop-color="#5a2f12"/><stop offset=".48" stop-color="#391e0c"/><stop offset=".6" stop-color="#201106"/><stop offset=".72" stop-color="#0e0702"/><stop offset=".85" stop-color="#030100"/><stop offset="1" stop-color="#000"/></radialGradient><linearGradient id="_Áåçûìÿííûé_ãðàäèåíò_186" x1="10481.52" y1="364.23" x2="10537.09" y2="364.23" gradientTransform="translate(-10310.85)" gradientUnits="userSpaceOnUse"><stop offset="0" stop-color="#743168"/><stop offset="1" stop-color="#4f1184"/></linearGradient><linearGradient id="_Áåçûìÿííûé_ãðàäèåíò_180" x1="10696.44" y1="347.42" x2="10696.44" y2="317.37" gradientTransform="translate(-10310.85)" gradientUnits="userSpaceOnUse"><stop offset="0" stop-color="#ff836d"/><stop offset="1" stop-color="#ff5468"/></linearGradient><linearGradient id="_Áåçûìÿííûé_ãðàäèåíò_185" x1="10668.02" y1="349.48" x2="10668.02" y2="209.51" gradientTransform="translate(-10310.85)" gradientUnits="userSpaceOnUse"><stop offset="0" stop-color="#7a3c82"/><stop offset="1" stop-color="#3b38a6"/></linearGradient><radialGradient id="_Áåçûìÿííûé_ãðàäèåíò_184" cx="10611.25" cy="326.07" fx="10611.25" fy="326.07" r="120.84" gradientTransform="translate(-10310.85)" gradientUnits="userSpaceOnUse"><stop offset="0" stop-color="#a94d8d"/><stop offset="1" stop-color="#3b38a6"/></radialGradient><linearGradient id="_Áåçûìÿííûé_ãðàäèåíò_176" x1="10620.09" y1="222.51" x2="10620.09" y2="191.68" gradientTransform="translate(-10310.85)" gradientUnits="userSpaceOnUse"><stop offset="0" stop-color="#684db1"/><stop offset="1" stop-color="#7c4fbf"/></linearGradient><linearGradient id="_Áåçûìÿííûé_ãðàäèåíò_173" x1="10537.71" y1="264.95" x2="10605.72" y2="264.95" gradientTransform="translate(-10310.85)" gradientUnits="userSpaceOnUse"><stop offset="0" stop-color="#fff"/><stop offset=".08" stop-color="#f5e5f0"/><stop offset=".25" stop-color="#e4b3d3"/><stop offset=".41" stop-color="#d589bc"/><stop offset=".57" stop-color="#c969a9"/><stop offset=".73" stop-color="#c1529c"/><stop offset=".87" stop-color="#bc4494"/><stop offset="1" stop-color="#bb4092"/></linearGradient><linearGradient id="_Áåçûìÿííûé_ãðàäèåíò_183" x1="10625.73" y1="204.72" x2="10625.73" y2="78.39" gradientTransform="translate(-10310.85)" gradientUnits="userSpaceOnUse"><stop offset="0" stop-color="#ffb084"/><stop offset="1" stop-color="#ff5468"/></linearGradient><linearGradient id="_Áåçûìÿííûé_ãðàäèåíò_165" x1="10627.72" y1="177" x2="10627.72" y2="89.36" gradientTransform="translate(-10310.85)" gradientUnits="userSpaceOnUse"><stop offset="0" stop-color="#fff"/><stop offset=".08" stop-color="#f3e5f0"/><stop offset=".25" stop-color="#deb3d3"/><stop offset=".41" stop-color="#cc89bc"/><stop offset=".57" stop-color="#be69a9"/><stop offset=".73" stop-color="#b4529c"/><stop offset=".87" stop-color="#ae4494"/><stop offset="1" stop-color="#ac4092"/></linearGradient><linearGradient id="_Áåçûìÿííûé_ãðàäèåíò_180-2" x1="10726.08" y1="2912.65" x2="10726.08" y2="2873.09" gradientTransform="translate(-10834.04 -474.36) rotate(-11.8)" xlink:href="#_Áåçûìÿííûé_ãðàäèåíò_180"/><linearGradient id="_Áåçûìÿííûé_ãðàäèåíò_193" x1="10633.9" y1="146.59" x2="10608.32" y2="62.92" gradientTransform="translate(-10310.85)" gradientUnits="userSpaceOnUse"><stop offset="0" stop-color="#65204a"/><stop offset=".48" stop-color="#4b164b"/><stop offset="1" stop-color="#110036"/></linearGradient><linearGradient id="_Áåçûìÿííûé_ãðàäèåíò_173-2" x1="10620.4" y1="181.82" x2="10620.4" y2="134.69" xlink:href="#_Áåçûìÿííûé_ãðàäèåíò_173"/><linearGradient id="_Áåçûìÿííûé_ãðàäèåíò_182" x1="10673.13" y1="141.55" x2="10673.13" y2="128.09" gradientTransform="translate(-10310.85)" gradientUnits="userSpaceOnUse"><stop offset="0" stop-color="#b3394a"/><stop offset="1" stop-color="#661b68"/></linearGradient><linearGradient id="_Áåçûìÿííûé_ãðàäèåíò_182-2" x1="10620.36" y1="143.41" x2="10620.36" y2="125.43" xlink:href="#_Áåçûìÿííûé_ãðàäèåíò_182"/><linearGradient id="_Áåçûìÿííûé_ãðàäèåíò_181" x1="10620.76" y1="178.14" x2="10620.76" y2="142.63" gradientTransform="translate(-10310.85)" gradientUnits="userSpaceOnUse"><stop offset="0" stop-color="#fff"/><stop offset=".18" stop-color="#ffe0ea"/><stop offset=".4" stop-color="#ffc0d4"/><stop offset=".62" stop-color="#ffa9c4"/><stop offset=".82" stop-color="#ff9bbb"/><stop offset="1" stop-color="#ff97b8"/></linearGradient><linearGradient id="_Áåçûìÿííûé_ãðàäèåíò_181-2" x1="10667.93" y1="173.77" x2="10667.93" y2="145.17" xlink:href="#_Áåçûìÿííûé_ãðàäèåíò_181"/><linearGradient id="_Áåçûìÿííûé_ãðàäèåíò_180-3" x1="10619.66" y1="160.38" x2="10619.66" y2="141.55" xlink:href="#_Áåçûìÿííûé_ãðàäèåíò_180"/><linearGradient id="_Áåçûìÿííûé_ãðàäèåíò_180-4" x1="10669.13" y1="157.63" x2="10669.13" y2="145.07" xlink:href="#_Áåçûìÿííûé_ãðàäèåíò_180"/><linearGradient id="Dégradé_sans_nom_2" x1="10626.33" y1="178.38" x2="10626.33" y2="170.44" gradientTransform="translate(-10310.85)" gradientUnits="userSpaceOnUse"><stop offset="0" stop-color="#ff4a09"/><stop offset="1" stop-color="#400068"/></linearGradient><linearGradient id="_Áåçûìÿííûé_ãðàäèåíò_204" x1="10667.75" y1="173.78" x2="10667.75" y2="168.07" gradientTransform="translate(-10310.85)" gradientUnits="userSpaceOnUse"><stop offset="0" stop-color="#ff4a09"/><stop offset="1" stop-color="#400068"/></linearGradient><linearGradient id="_Áåçûìÿííûé_ãðàäèåíò_178" x1="10644.93" y1="185.4" x2="10667.75" y2="185.4" gradientTransform="translate(-10310.85)" gradientUnits="userSpaceOnUse"><stop offset="0" stop-color="#720000"/><stop offset=".12" stop-color="#750401"/><stop offset=".26" stop-color="#7e1207"/><stop offset=".41" stop-color="#8e2910"/><stop offset=".56" stop-color="#a4491d"/><stop offset=".72" stop-color="#c0732d"/><stop offset=".88" stop-color="#e3a541"/><stop offset="1" stop-color="#ffce52"/></linearGradient><linearGradient id="_Áåçûìÿííûé_ãðàäèåíò_179" x1="10645.44" y1="185.45" x2="10645.44" y2="179.48" gradientTransform="translate(-10310.85)" gradientUnits="userSpaceOnUse"><stop offset="0" stop-color="#ac4092"/><stop offset=".13" stop-color="#ae4494"/><stop offset=".27" stop-color="#b4529c"/><stop offset=".43" stop-color="#be69a9"/><stop offset=".59" stop-color="#cc89bc"/><stop offset=".75" stop-color="#deb3d3"/><stop offset=".92" stop-color="#f3e5f0"/><stop offset="1" stop-color="#fff"/></linearGradient><linearGradient id="_Áåçûìÿííûé_ãðàäèåíò_165-2" x1="10654.49" y1="178.88" x2="10654.49" y2="174.5" xlink:href="#_Áåçûìÿííûé_ãðàäèåíò_165"/><linearGradient id="_Áåçûìÿííûé_ãðàäèåíò_165-3" x1="10566.94" y1="181.84" x2="10566.94" y2="155.26" xlink:href="#_Áåçûìÿííûé_ãðàäèåíò_165"/><linearGradient id="_Áåçûìÿííûé_ãðàäèåíò_165-4" x1="10576.3" y1="174.42" x2="10576.3" y2="161.72" xlink:href="#_Áåçûìÿííûé_ãðàäèåíò_165"/><linearGradient id="_Áåçûìÿííûé_ãðàäèåíò_173-3" x1="10668.74" y1="175.22" x2="10668.74" y2="136.82" xlink:href="#_Áåçûìÿííûé_ãðàäèåíò_173"/><linearGradient id="_Áåçûìÿííûé_ãðàäèåíò_165-5" x1="10620.55" y1="162.08" x2="10620.55" y2="149.85" xlink:href="#_Áåçûìÿííûé_ãðàäèåíò_165"/><linearGradient id="_Áåçûìÿííûé_ãðàäèåíò_165-6" x1="10669.02" y1="158.25" x2="10669.02" y2="151.82" xlink:href="#_Áåçûìÿííûé_ãðàäèåíò_165"/><linearGradient id="_Áåçûìÿííûé_ãðàäèåíò_178-2" x1="10589.26" y1="193.62" x2="10677.63" y2="193.62" xlink:href="#_Áåçûìÿííûé_ãðàäèåíò_178"/><linearGradient id="_Áåçûìÿííûé_ãðàäèåíò_176-2" x1="10682.88" y1="349.48" x2="10682.88" y2="300.56" xlink:href="#_Áåçûìÿííûé_ãðàäèåíò_176"/><linearGradient id="_Áåçûìÿííûé_ãðàäèåíò_175" x1="10523.27" y1="384.49" x2="10523.27" y2="348.3" gradientTransform="translate(-10310.85)" gradientUnits="userSpaceOnUse"><stop offset="0" stop-color="#864db1"/><stop offset="1" stop-color="#9f6bbf"/></linearGradient><linearGradient id="_Áåçûìÿííûé_ãðàäèåíò_175-2" x1="10572.89" y1="302.12" x2="10604.66" y2="302.12" xlink:href="#_Áåçûìÿííûé_ãðàäèåíò_175"/><linearGradient id="_Áåçûìÿííûé_ãðàäèåíò_175-3" x1="10639.99" y1="300.08" x2="10653.35" y2="300.08" xlink:href="#_Áåçûìÿííûé_ãðàäèåíò_175"/><linearGradient id="_Áåçûìÿííûé_ãðàäèåíò_174" x1="10628.72" y1="337.09" x2="10628.72" y2="209.41" gradientTransform="translate(-10310.85)" gradientUnits="userSpaceOnUse"><stop offset="0" stop-color="#77207a"/><stop offset="1" stop-color="#3b104c"/></linearGradient><linearGradient id="_Áåçûìÿííûé_ãðàäèåíò_173-4" x1="10607.38" y1="304.49" x2="10651.44" y2="304.49" xlink:href="#_Áåçûìÿííûé_ãðàäèåíò_173"/><linearGradient id="_Áåçûìÿííûé_ãðàäèåíò_173-5" x1="10590.78" y1="323.93" x2="10647.04" y2="323.93" xlink:href="#_Áåçûìÿííûé_ãðàäèåíò_173"/><linearGradient id="_Áåçûìÿííûé_ãðàäèåíò_173-6" x1="10649.14" y1="294.22" x2="10649.14" y2="222.35" xlink:href="#_Áåçûìÿííûé_ãðàäèåíò_173"/><linearGradient id="_Áåçûìÿííûé_ãðàäèåíò_173-7" x1="10670.47" y1="313.5" x2="10670.47" y2="295.43" xlink:href="#_Áåçûìÿííûé_ãðàäèåíò_173"/><linearGradient id="_Áåçûìÿííûé_ãðàäèåíò_166" x1="10677.86" y1="349.48" x2="10677.86" y2="300.56" gradientTransform="translate(-10310.85)" gradientUnits="userSpaceOnUse"><stop offset="0" stop-color="#bb4092"/><stop offset=".13" stop-color="#bc4494"/><stop offset=".27" stop-color="#c1529c"/><stop offset=".43" stop-color="#c969a9"/><stop offset=".59" stop-color="#d589bc"/><stop offset=".75" stop-color="#e4b3d3"/><stop offset=".92" stop-color="#f5e5f0"/><stop offset="1" stop-color="#fff"/></linearGradient><linearGradient id="_Áåçûìÿííûé_ãðàäèåíò_166-2" x1="10506.72" y1="369.93" x2="10555.54" y2="369.93" xlink:href="#_Áåçûìÿííûé_ãðàäèåíò_166"/><linearGradient id="_Áåçûìÿííûé_ãðàäèåíò_173-8" x1="10574.04" y1="370.67" x2="10636.43" y2="370.67" xlink:href="#_Áåçûìÿííûé_ãðàäèåíò_173"/><linearGradient id="_Áåçûìÿííûé_ãðàäèåíò_173-9" x1="10547.99" y1="374.74" x2="10547.99" y2="352.24" xlink:href="#_Áåçûìÿííûé_ãðàäèåíò_173"/><linearGradient id="_Áåçûìÿííûé_ãðàäèåíò_173-10" x1="10526" y1="373.42" x2="10526" y2="349.76" xlink:href="#_Áåçûìÿííûé_ãðàäèåíò_173"/><linearGradient id="_Áåçûìÿííûé_ãðàäèåíò_173-11" x1="10569.84" y1="314.91" x2="10603.64" y2="314.91" xlink:href="#_Áåçûìÿííûé_ãðàäèåíò_173"/><linearGradient id="_Áåçûìÿííûé_ãðàäèåíò_173-12" x1="10551.63" y1="273.25" x2="10551.63" y2="236.12" xlink:href="#_Áåçûìÿííûé_ãðàäèåíò_173"/><linearGradient id="_Áåçûìÿííûé_ãðàäèåíò_173-13" x1="10572.89" y1="298.78" x2="10604.66" y2="298.78" xlink:href="#_Áåçûìÿííûé_ãðàäèåíò_173"/><linearGradient id="_Áåçûìÿííûé_ãðàäèåíò_173-14" x1="10640.43" y1="297.21" x2="10649.31" y2="297.21" xlink:href="#_Áåçûìÿííûé_ãðàäèåíò_173"/><linearGradient id="_Áåçûìÿííûé_ãðàäèåíò_165-7" x1="10696.62" y1="345.29" x2="10696.62" y2="317.37" xlink:href="#_Áåçûìÿííûé_ãðàäèåíò_165"/><linearGradient id="_Áåçûìÿííûé_ãðàäèåíò_173-15" x1="10627.94" y1="105.32" x2="10627.94" y2="77.29" xlink:href="#_Áåçûìÿííûé_ãðàäèåíò_173"/><linearGradient id="_Áåçûìÿííûé_ãðàäèåíò_173-16" x1="10634.05" y1="76.82" x2="10634.05" y2="58.26" xlink:href="#_Áåçûìÿííûé_ãðàäèåíò_173"/><linearGradient id="_Áåçûìÿííûé_ãðàäèåíò_173-17" x1="10680.45" y1="123.14" x2="10680.45" y2="102.28" xlink:href="#_Áåçûìÿííûé_ãðàäèåíò_173"/><linearGradient id="_Áåçûìÿííûé_ãðàäèåíò_173-18" x1="10600.26" y1="115.94" x2="10600.26" y2="99.93" xlink:href="#_Áåçûìÿííûé_ãðàäèåíò_173"/><linearGradient id="_Áåçûìÿííûé_ãðàäèåíò_173-19" x1="10563.66" y1="87.59" x2="10563.66" y2="79.52" xlink:href="#_Áåçûìÿííûé_ãðàäèåíò_173"/><linearGradient id="_Áåçûìÿííûé_ãðàäèåíò_172" x1="10666.85" y1="113.3" x2="10666.85" y2="85.1" gradientTransform="translate(-10310.85)" gradientUnits="userSpaceOnUse"><stop offset="0" stop-color="#ffce52"/><stop offset=".12" stop-color="#e3a541"/><stop offset=".28" stop-color="#c0732d"/><stop offset=".44" stop-color="#a4491d"/><stop offset=".59" stop-color="#8e2910"/><stop offset=".74" stop-color="#7e1207"/><stop offset=".88" stop-color="#750401"/><stop offset="1" stop-color="#720000"/></linearGradient><linearGradient id="_Áåçûìÿííûé_ãðàäèåíò_172-2" x1="10675.42" y1="116.24" x2="10675.42" y2="89.36" xlink:href="#_Áåçûìÿííûé_ãðàäèåíò_172"/><linearGradient id="_Áåçûìÿííûé_ãðàäèåíò_172-3" x1="10657.15" y1="114.47" x2="10657.15" y2="91.3" xlink:href="#_Áåçûìÿííûé_ãðàäèåíò_172"/><linearGradient id="_Áåçûìÿííûé_ãðàäèåíò_172-4" x1="10610.1" y1="220.84" x2="10610.1" y2="213.93" xlink:href="#_Áåçûìÿííûé_ãðàäèåíò_172"/><linearGradient id="_Áåçûìÿííûé_ãðàäèåíò_173-20" x1="10623.59" y1="232.77" x2="10628.74" y2="232.77" xlink:href="#_Áåçûìÿííûé_ãðàäèåíò_173"/><linearGradient id="_Áåçûìÿííûé_ãðàäèåíò_172-5" x1="10635.72" y1="222.6" x2="10635.72" y2="213.43" xlink:href="#_Áåçûìÿííûé_ãðàäèåíò_172"/><linearGradient id="_Áåçûìÿííûé_ãðàäèåíò_173-21" x1="10623.85" y1="264.95" x2="10629.01" y2="264.95" xlink:href="#_Áåçûìÿííûé_ãðàäèåíò_173"/><linearGradient id="_Áåçûìÿííûé_ãðàäèåíò_173-22" x1="10626.7" y1="314.91" x2="10631.85" y2="314.91" xlink:href="#_Áåçûìÿííûé_ãðàäèåíò_173"/><linearGradient id="_Áåçûìÿííûé_ãðàäèåíò_166-3" x1="10483.84" y1="379.58" x2="10506.72" y2="379.58" xlink:href="#_Áåçûìÿííûé_ãðàäèåíò_166"/><radialGradient id="radial-gradient" cx="-3234.69" cy="14355.96" fx="-3234.69" fy="14355.96" r="87.84" gradientTransform="translate(-14267.28 2264.63) rotate(-110.38)" gradientUnits="userSpaceOnUse"><stop offset=".02" stop-color="#9d6e3e"/><stop offset=".99" stop-color="#791d36"/></radialGradient><linearGradient id="_Áåçûìÿííûé_ãðàäèåíò_173-23" x1="-3249.77" y1="14334.95" x2="-3108.78" y2="14334.95" gradientTransform="translate(-14267.28 2264.63) rotate(-110.38)" xlink:href="#_Áåçûìÿííûé_ãðàäèåíò_173"/><radialGradient id="_Áåçûìÿííûé_ãðàäèåíò_434" cx="-12961.07" cy="-783.53" fx="-12961.07" fy="-783.53" r="14.73" gradientTransform="translate(-10328.54 7824.99) rotate(138.36) scale(1 1.7)" gradientUnits="userSpaceOnUse"><stop offset="0" stop-color="#bbb8e3"/><stop offset="1" stop-color="#8ad2ff"/></radialGradient><radialGradient id="_Áåçûìÿííûé_ãðàäèåíò_171" cx="-12961.34" cy="-2439.86" fx="-12961.34" fy="-2439.86" r="8.26" gradientTransform="translate(-11275.22 6759.2) rotate(138.36) scale(1 1.11)" gradientUnits="userSpaceOnUse"><stop offset="0" stop-color="#6bffe3"/><stop offset="1" stop-color="#6375e3"/></radialGradient><radialGradient id="_Áåçûìÿííûé_ãðàäèåíò_170" cx="-12961.73" cy="-783.19" fx="-12961.73" fy="-783.19" r="5.58" gradientTransform="translate(-10328.54 7824.99) rotate(138.36) scale(1 1.7)" gradientUnits="userSpaceOnUse"><stop offset="0" stop-color="#e5d9e3"/><stop offset="1" stop-color="#b099b4"/></radialGradient><radialGradient id="_Áåçûìÿííûé_ãðàäèåíò_157" cx="-12962.88" cy="-767.73" fx="-12962.88" fy="-767.73" r="7.57" gradientTransform="translate(-10328.54 7824.99) rotate(138.36) scale(1 1.7)" gradientUnits="userSpaceOnUse"><stop offset="0" stop-color="#220831"/><stop offset="1" stop-color="#1f001e"/></radialGradient><radialGradient id="_Áåçûìÿííûé_ãðàäèåíò_157-2" cx="-12961.73" cy="-778.56" fx="-12961.73" fy="-778.56" r="6.77" xlink:href="#_Áåçûìÿííûé_ãðàäèåíò_157"/><radialGradient id="_Áåçûìÿííûé_ãðàäèåíò_157-3" cx="-12957.19" cy="-763.07" fx="-12957.19" fy="-763.07" r="3.55" xlink:href="#_Áåçûìÿííûé_ãðàäèåíò_157"/><linearGradient id="linear-gradient" x1="-12965.16" y1="-3066.28" x2="-12955.93" y2="-3066.28" gradientTransform="translate(-11450.68 6562.42) rotate(138.36)" gradientUnits="userSpaceOnUse"><stop offset="0" stop-color="#897200"/><stop offset="1" stop-color="#c95e6a"/></linearGradient><linearGradient id="linear-gradient-2" x1="-12963.04" y1="-3108.22" x2="-12956.22" y2="-3108.22" xlink:href="#linear-gradient"/><radialGradient id="radial-gradient-2" cx="-3241.22" cy="14359.86" fx="-3241.22" fy="14359.86" r="46.58" gradientTransform="translate(-14267.28 2264.63) rotate(-110.38)" gradientUnits="userSpaceOnUse"><stop offset="0" stop-color="#ff8000"/><stop offset=".5" stop-color="#773c00"/><stop offset=".85" stop-color="#211000"/><stop offset="1" stop-color="#000"/></radialGradient><radialGradient id="radial-gradient-3" cx="-3243.8" cy="14358.9" fx="-3243.8" fy="14358.9" r="19.43" xlink:href="#radial-gradient-2"/><radialGradient id="radial-gradient-4" cx="-3243.8" cy="14358.9" fx="-3243.8" fy="14358.9" r="11.36" gradientTransform="translate(-14267.28 2264.63) rotate(-110.38)" gradientUnits="userSpaceOnUse"><stop offset="0" stop-color="#ffefde"/><stop offset=".5" stop-color="#777068"/><stop offset=".85" stop-color="#211f1d"/><stop offset="1" stop-color="#000"/></radialGradient><radialGradient id="Dégradé_sans_nom_297" cx="-3079.86" cy="14299.78" fx="-3079.86" fy="14299.78" r="37.39" gradientTransform="translate(-14267.28 2264.63) rotate(-110.38)" gradientUnits="userSpaceOnUse"><stop offset="0" stop-color="#0068ff"/><stop offset=".5" stop-color="#003077" stop-opacity=".47"/><stop offset=".85" stop-color="#000d21" stop-opacity=".13"/><stop offset="1" stop-color="#000" stop-opacity="0"/></radialGradient><radialGradient id="Dégradé_sans_nom_298" cx="-3079.86" cy="14299.78" fx="-3079.86" fy="14299.78" r="15.98" gradientTransform="translate(-14267.28 2264.63) rotate(-110.38)" gradientUnits="userSpaceOnUse"><stop offset="0" stop-color="#0068ff"/><stop offset=".5" stop-color="#003077" stop-opacity=".47"/><stop offset=".85" stop-color="#000d21" stop-opacity=".13"/><stop offset="1" stop-color="#000" stop-opacity="0"/></radialGradient><radialGradient id="Dégradé_sans_nom_328" cx="-3081.52" cy="14299.78" fx="-3081.52" fy="14299.78" r="15.98" gradientTransform="translate(-14267.28 2264.63) rotate(-110.38)" gradientUnits="userSpaceOnUse"><stop offset="0" stop-color="#0cf"/><stop offset=".5" stop-color="#005f77" stop-opacity=".47"/><stop offset=".85" stop-color="#001b21" stop-opacity=".13"/><stop offset="1" stop-color="#000" stop-opacity="0"/></radialGradient><linearGradient id="linear-gradient-3" x1="-12941.53" y1="4772.91" x2="-12854.89" y2="4772.91" gradientTransform="translate(-13381.75 332.42) rotate(159.59) scale(1 -1)" gradientUnits="userSpaceOnUse"><stop offset="0" stop-color="#ff8000"/><stop offset=".5" stop-color="#773c00"/><stop offset=".85" stop-color="#211000"/><stop offset="1" stop-color="#000"/></linearGradient><linearGradient id="linear-gradient-4" x1="-12916.76" y1="4801.43" x2="-12889.97" y2="4743.99" gradientTransform="translate(-13381.75 332.42) rotate(159.59) scale(1 -1)" gradientUnits="userSpaceOnUse"><stop offset="0" stop-color="#000"/><stop offset=".15" stop-color="#211000"/><stop offset=".5" stop-color="#773c00"/><stop offset="1" stop-color="#ff8000"/></linearGradient><linearGradient id="_Áåçûìÿííûé_ãðàäèåíò_169" x1="10562.86" y1="247.83" x2="10600.83" y2="247.83" gradientTransform="translate(-10310.85)" gradientUnits="userSpaceOnUse"><stop offset="0" stop-color="#ff5468"/><stop offset="1" stop-color="#ffb084"/></linearGradient><linearGradient id="_Áåçûìÿííûé_ãðàäèåíò_168" x1="10562.55" y1="290.95" x2="10562.55" y2="238.14" gradientTransform="translate(-10310.85)" gradientUnits="userSpaceOnUse"><stop offset="0" stop-color="#7c4fbf"/><stop offset="1" stop-color="#684db1"/></linearGradient><linearGradient id="_Áåçûìÿííûé_ãðàäèåíò_172-6" x1="10568.64" y1="290.92" x2="10568.64" y2="247.66" xlink:href="#_Áåçûìÿííûé_ãðàäèåíò_172"/><linearGradient id="_Áåçûìÿííûé_ãðàäèåíò_167" x1="10569.84" y1="288.67" x2="10569.84" y2="266.49" gradientTransform="translate(-10310.85)" gradientUnits="userSpaceOnUse"><stop offset="0" stop-color="#65204a"/><stop offset="1" stop-color="#3b104c"/></linearGradient><linearGradient id="_Áåçûìÿííûé_ãðàäèåíò_166-4" x1="10560" y1="290.95" x2="10560" y2="252.98" xlink:href="#_Áåçûìÿííûé_ãðàäèåíò_166"/><linearGradient id="_Áåçûìÿííûé_ãðàäèåíò_165-8" x1="10582.26" y1="268.95" x2="10582.26" y2="226.7" xlink:href="#_Áåçûìÿííûé_ãðàäèåíò_165"/><linearGradient id="_Áåçûìÿííûé_ãðàäèåíò_165-9" x1="10574.02" y1="268.95" x2="10574.02" y2="232.94" xlink:href="#_Áåçûìÿííûé_ãðàäèåíò_165"/><radialGradient id="Dégradé_sans_nom_304" cx="-8559.27" cy="341.12" fx="-8559.27" fy="341.12" r="73.1" gradientTransform="translate(-13955.09) rotate(-180) scale(1.68 -1)" gradientUnits="userSpaceOnUse"><stop offset="0" stop-color="#ff8000"/><stop offset=".5" stop-color="#773c00" stop-opacity=".47"/><stop offset=".85" stop-color="#211000" stop-opacity=".13"/><stop offset="1" stop-color="#000" stop-opacity="0"/></radialGradient><radialGradient id="Dégradé_sans_nom_306" cx="-12874.99" cy="358.25" fx="-12874.99" fy="358.25" r="90.57" gradientTransform="translate(-12429.72) rotate(-180) scale(1 -1)" gradientUnits="userSpaceOnUse"><stop offset="0" stop-color="#ff8000"/><stop offset=".5" stop-color="#773c00" stop-opacity=".47"/><stop offset=".85" stop-color="#211000" stop-opacity=".13"/><stop offset="1" stop-color="#000" stop-opacity="0"/></radialGradient><linearGradient id="Dégradé_sans_nom_305" x1="8297.41" y1="352.14" x2="8530.9" y2="352.14" gradientTransform="translate(-7966.69)" gradientUnits="userSpaceOnUse"><stop offset="0" stop-color="#ff8000"/><stop offset=".5" stop-color="#773c00" stop-opacity=".47"/><stop offset=".85" stop-color="#211000" stop-opacity=".13"/><stop offset="1" stop-color="#000" stop-opacity="0"/></linearGradient><linearGradient id="Dégradé_sans_nom_329" x1="-12936.2" y1="355.85" x2="-12755.88" y2="355.85" gradientTransform="translate(-12429.72) rotate(-180) scale(1 -1)" gradientUnits="userSpaceOnUse"><stop offset="0" stop-color="#000" stop-opacity="0"/><stop offset=".15" stop-color="#211000" stop-opacity=".13"/><stop offset=".5" stop-color="#773c00" stop-opacity=".47"/><stop offset="1" stop-color="#ff8000"/></linearGradient><radialGradient id="_Áåçûìÿííûé_ãðàäèåíò_164" cx="-12870.04" cy="365.17" fx="-12870.04" fy="365.17" r="73.17" gradientTransform="translate(-12429.72) rotate(-180) scale(1 -1)" gradientUnits="userSpaceOnUse"><stop offset=".02" stop-color="#754a13"/><stop offset=".99" stop-color="#4f4013"/></radialGradient><radialGradient id="_Áåçûìÿííûé_ãðàäèåíò_164-2" cx="-12829.56" cy="364.99" fx="-12829.56" fy="364.99" r="44.04" xlink:href="#_Áåçûìÿííûé_ãðàäèåíò_164"/><radialGradient id="_Áåçûìÿííûé_ãðàäèåíò_164-3" cx="-12920.45" cy="361.61" fx="-12920.45" fy="361.61" r="39.03" xlink:href="#_Áåçûìÿííûé_ãðàäèåíò_164"/><linearGradient id="_Áåçûìÿííûé_ãðàäèåíò_162" x1="-12964.9" y1="358.75" x2="-12777.25" y2="358.75" gradientTransform="translate(-12429.72) rotate(-180) scale(1 -1)" gradientUnits="userSpaceOnUse"><stop offset="0" stop-color="#ffdbd3"/><stop offset="1" stop-color="#ffe2bd"/></linearGradient><linearGradient id="_Áåçûìÿííûé_ãðàäèåíò_161" x1="-12883.24" y1="386.21" x2="-12883.24" y2="346.94" gradientTransform="translate(-12429.72) rotate(-180) scale(1 -1)" gradientUnits="userSpaceOnUse"><stop offset="0" stop-color="#7c0037"/><stop offset="1" stop-color="#fff"/></linearGradient><linearGradient id="_Áåçûìÿííûé_ãðàäèåíò_160" x1="-12914.06" y1="364.24" x2="-12914.06" y2="335.89" gradientTransform="translate(-12429.72) rotate(-180) scale(1 -1)" gradientUnits="userSpaceOnUse"><stop offset="0" stop-color="#c25683"/><stop offset="1" stop-color="#ffdbc4"/></linearGradient><linearGradient id="_Áåçûìÿííûé_ãðàäèåíò_159" x1="-12875.5" y1="350.92" x2="-12797.52" y2="350.92" gradientTransform="translate(-12429.72) rotate(-180) scale(1 -1)" gradientUnits="userSpaceOnUse"><stop offset="0" stop-color="#c25683"/><stop offset="1" stop-color="#fff"/></linearGradient><radialGradient id="_Áåçûìÿííûé_ãðàäèåíò_157-4" cx="-12855.25" cy="381.11" fx="-12855.25" fy="381.11" r="23.25" gradientTransform="translate(-12429.72) rotate(-180) scale(1 -1)" xlink:href="#_Áåçûìÿííûé_ãðàäèåíò_157"/><linearGradient id="_Áåçûìÿííûé_ãðàäèåíò_158" x1="-12849.17" y1="389.3" x2="-12849.17" y2="370.68" gradientTransform="translate(-12429.72) rotate(-180) scale(1 -1)" gradientUnits="userSpaceOnUse"><stop offset=".02" stop-color="#b81f13"/><stop offset=".99" stop-color="#b31b36"/></linearGradient><linearGradient id="_Áåçûìÿííûé_ãðàäèåíò_158-2" x1="-12882.99" y1="400.05" x2="-12882.99" y2="376.3" xlink:href="#_Áåçûìÿííûé_ãðàäèåíò_158"/><radialGradient id="_Áåçûìÿííûé_ãðàäèåíò_157-5" cx="-12843.04" cy="376.93" fx="-12843.04" fy="376.93" r="5.1" gradientTransform="translate(-12429.72) rotate(-180) scale(1 -1)" xlink:href="#_Áåçûìÿííûé_ãðàäèåíò_157"/><radialGradient id="_Áåçûìÿííûé_ãðàäèåíò_157-6" cx="-12877.3" cy="382.24" fx="-12877.3" fy="382.24" r="4.46" gradientTransform="translate(-12429.72) rotate(-180) scale(1 -1)" xlink:href="#_Áåçûìÿííûé_ãðàäèåíò_157"/><radialGradient id="Dégradé_sans_nom_314" cx="-14806" cy="260.41" fx="-14806" fy="260.41" r="8.31" gradientTransform="translate(-14366.02) rotate(-180) scale(1 -1)" gradientUnits="userSpaceOnUse"><stop offset="0" stop-color="#ff7e00"/><stop offset=".13" stop-color="#ce6600" stop-opacity=".81"/><stop offset=".31" stop-color="#904700" stop-opacity=".57"/><stop offset=".48" stop-color="#5d2d00" stop-opacity=".37"/><stop offset=".64" stop-color="#341a00" stop-opacity=".21"/><stop offset=".78" stop-color="#170b00" stop-opacity=".09"/><stop offset=".91" stop-color="#060300" stop-opacity=".02"/><stop offset="1" stop-color="#000" stop-opacity="0"/></radialGradient><radialGradient id="Dégradé_sans_nom_314-2" cx="-14806" cy="260.41" fx="-14806" fy="260.41" r="3.88" xlink:href="#Dégradé_sans_nom_314"/><radialGradient id="Dégradé_sans_nom_308" cx="-14775.97" cy="328.73" fx="-14775.97" fy="328.73" r="3.12" gradientTransform="translate(-14366.02) rotate(-180) scale(1 -1)" gradientUnits="userSpaceOnUse"><stop offset="0" stop-color="#ff7e00"/><stop offset=".13" stop-color="#ce6600" stop-opacity=".81"/><stop offset=".31" stop-color="#904700" stop-opacity=".57"/><stop offset=".48" stop-color="#5d2d00" stop-opacity=".37"/><stop offset=".64" stop-color="#341a00" stop-opacity=".21"/><stop offset=".78" stop-color="#170b00" stop-opacity=".09"/><stop offset=".91" stop-color="#060300" stop-opacity=".02"/><stop offset="1" stop-color="#000" stop-opacity="0"/></radialGradient><radialGradient id="Dégradé_sans_nom_308-2" cx="-14775.97" cy="328.73" fx="-14775.97" fy="328.73" r="1.46" xlink:href="#Dégradé_sans_nom_308"/><radialGradient id="radial-gradient-5" cx="-14746.88" cy="309.92" fx="-14746.88" fy="309.92" r="6.02" gradientTransform="translate(-14366.02) rotate(-180) scale(1 -1)" gradientUnits="userSpaceOnUse"><stop offset="0" stop-color="#ff7e00"/><stop offset=".13" stop-color="#ce6600"/><stop offset=".31" stop-color="#904700"/><stop offset=".48" stop-color="#5d2d00"/><stop offset=".64" stop-color="#341a00"/><stop offset=".78" stop-color="#170b00"/><stop offset=".91" stop-color="#060300"/><stop offset="1" stop-color="#000"/></radialGradient><radialGradient id="radial-gradient-6" cx="-14746.88" fx="-14746.88" r="2.81" xlink:href="#radial-gradient-5"/><radialGradient id="Dégradé_sans_nom_311" cx="-14797.32" cy="319.97" fx="-14797.32" fy="319.97" r="6.01" gradientTransform="translate(-14366.02) rotate(-180) scale(1 -1)" gradientUnits="userSpaceOnUse"><stop offset="0" stop-color="#ff7e00"/><stop offset=".13" stop-color="#ce6600" stop-opacity=".81"/><stop offset=".31" stop-color="#904700" stop-opacity=".57"/><stop offset=".48" stop-color="#5d2d00" stop-opacity=".37"/><stop offset=".64" stop-color="#341a00" stop-opacity=".21"/><stop offset=".78" stop-color="#170b00" stop-opacity=".09"/><stop offset=".91" stop-color="#060300" stop-opacity=".02"/><stop offset="1" stop-color="#000" stop-opacity="0"/></radialGradient><radialGradient id="Dégradé_sans_nom_311-2" cx="-14797.32" fx="-14797.32" r="2.81" xlink:href="#Dégradé_sans_nom_311"/><radialGradient id="Dégradé_sans_nom_314-3" cx="-14792.77" cy="292.33" fx="-14792.77" fy="292.33" r="4.16" xlink:href="#Dégradé_sans_nom_314"/><radialGradient id="Dégradé_sans_nom_314-4" cx="-14792.77" cy="292.33" fx="-14792.77" fy="292.33" r="1.94" xlink:href="#Dégradé_sans_nom_314"/><radialGradient id="Dégradé_sans_nom_314-5" cx="-14762.4" cy="296.63" fx="-14762.4" fy="296.63" r="2.59" xlink:href="#Dégradé_sans_nom_314"/><radialGradient id="Dégradé_sans_nom_314-6" cx="-14762.4" cy="296.62" fx="-14762.4" fy="296.62" r="1.21" xlink:href="#Dégradé_sans_nom_314"/><radialGradient id="Dégradé_sans_nom_310" cx="-14790.51" cy="325.03" fx="-14790.51" fy="325.03" r="3.82" gradientTransform="translate(-14366.02) rotate(-180) scale(1 -1)" gradientUnits="userSpaceOnUse"><stop offset="0" stop-color="#ff7e00"/><stop offset=".13" stop-color="#ce6600" stop-opacity=".81"/><stop offset=".31" stop-color="#904700" stop-opacity=".57"/><stop offset=".48" stop-color="#5d2d00" stop-opacity=".37"/><stop offset=".64" stop-color="#341a00" stop-opacity=".21"/><stop offset=".78" stop-color="#170b00" stop-opacity=".09"/><stop offset=".91" stop-color="#060300" stop-opacity=".02"/><stop offset="1" stop-color="#000" stop-opacity="0"/></radialGradient><radialGradient id="Dégradé_sans_nom_310-2" cy="325.03" fy="325.03" r="1.78" xlink:href="#Dégradé_sans_nom_310"/><radialGradient id="Dégradé_sans_nom_309" cx="-14781.91" cy="327.6" fx="-14781.91" fy="327.6" r="2.59" gradientTransform="translate(-14366.02) rotate(-180) scale(1 -1)" gradientUnits="userSpaceOnUse"><stop offset="0" stop-color="#ff7e00"/><stop offset=".13" stop-color="#ce6600" stop-opacity=".81"/><stop offset=".31" stop-color="#904700" stop-opacity=".57"/><stop offset=".48" stop-color="#5d2d00" stop-opacity=".37"/><stop offset=".64" stop-color="#341a00" stop-opacity=".21"/><stop offset=".78" stop-color="#170b00" stop-opacity=".09"/><stop offset=".91" stop-color="#060300" stop-opacity=".02"/><stop offset="1" stop-color="#000" stop-opacity="0"/></radialGradient><radialGradient id="Dégradé_sans_nom_309-2" cx="-14781.91" cy="327.6" fx="-14781.91" fy="327.6" r="1.21" xlink:href="#Dégradé_sans_nom_309"/><radialGradient id="Dégradé_sans_nom_314-7" cx="-14747.74" cy="274.91" fx="-14747.74" fy="274.91" r="2.59" xlink:href="#Dégradé_sans_nom_314"/><radialGradient id="Dégradé_sans_nom_314-8" cx="-14747.74" cy="274.91" fx="-14747.74" fy="274.91" r="1.21" xlink:href="#Dégradé_sans_nom_314"/><radialGradient id="Dégradé_sans_nom_312" cx="-14791.52" cy="335.01" fx="-14791.52" fy="335.01" r="2.08" gradientTransform="translate(-14366.02) rotate(-180) scale(1 -1)" gradientUnits="userSpaceOnUse"><stop offset="0" stop-color="#ff7e00"/><stop offset=".13" stop-color="#ce6600" stop-opacity=".81"/><stop offset=".31" stop-color="#904700" stop-opacity=".57"/><stop offset=".48" stop-color="#5d2d00" stop-opacity=".37"/><stop offset=".64" stop-color="#341a00" stop-opacity=".21"/><stop offset=".78" stop-color="#170b00" stop-opacity=".09"/><stop offset=".91" stop-color="#060300" stop-opacity=".02"/><stop offset="1" stop-color="#000" stop-opacity="0"/></radialGradient><radialGradient id="Dégradé_sans_nom_312-2" cx="-14791.52" fx="-14791.52" r=".97" xlink:href="#Dégradé_sans_nom_312"/><radialGradient id="Dégradé_sans_nom_313" cx="10240.31" cy="-11896.56" fx="10240.31" fy="-11896.56" r="4.23" gradientTransform="translate(-15171.59 1673.29) rotate(44.38)" gradientUnits="userSpaceOnUse"><stop offset=".02" stop-color="#ff9024"/><stop offset=".33" stop-color="#fc8e23" stop-opacity=".99"/><stop offset=".46" stop-color="#f58a22" stop-opacity=".96"/><stop offset=".56" stop-color="#e98320" stop-opacity=".91"/><stop offset=".65" stop-color="#d7791e" stop-opacity=".84"/><stop offset=".72" stop-color="#bf6c1b" stop-opacity=".75"/><stop offset=".79" stop-color="#a35c17" stop-opacity=".64"/><stop offset=".85" stop-color="#804812" stop-opacity=".51"/><stop offset=".9" stop-color="#59320c" stop-opacity=".35"/><stop offset=".95" stop-color="#2d1906" stop-opacity=".18"/><stop offset="1" stop-color="#000" stop-opacity="0"/></radialGradient><radialGradient id="Dégradé_sans_nom_315" cx="10267.5" cy="-12074.56" fx="10267.5" fy="-12074.56" r="38.46" gradientTransform="translate(-15171.59 1673.29) rotate(44.38)" gradientUnits="userSpaceOnUse"><stop offset=".46" stop-color="#954f34"/><stop offset=".69" stop-color="#934e33" stop-opacity=".99"/><stop offset=".77" stop-color="#8c4a30" stop-opacity=".94"/><stop offset=".82" stop-color="#80442c" stop-opacity=".86"/><stop offset=".87" stop-color="#6f3b26" stop-opacity=".75"/><stop offset=".91" stop-color="#592f1f" stop-opacity=".6"/><stop offset=".94" stop-color="#3e2115" stop-opacity=".42"/><stop offset=".98" stop-color="#1e100a" stop-opacity=".21"/><stop offset="1" stop-color="#000" stop-opacity="0"/></radialGradient><radialGradient id="Dégradé_sans_nom_316" cx="10263.94" cy="-12051.89" fx="10263.94" fy="-12051.89" r="19.23" gradientTransform="translate(-15181.71 1666.14) rotate(44.38)" gradientUnits="userSpaceOnUse"><stop offset=".46" stop-color="#ff7934"/><stop offset=".66" stop-color="#fd7833" stop-opacity=".99"/><stop offset=".74" stop-color="#f67432" stop-opacity=".97"/><stop offset=".79" stop-color="#ea6f2f" stop-opacity=".92"/><stop offset=".83" stop-color="#d9672c" stop-opacity=".85"/><stop offset=".86" stop-color="#c35c27" stop-opacity=".77"/><stop offset=".9" stop-color="#a84f22" stop-opacity=".66"/><stop offset=".92" stop-color="#87401b" stop-opacity=".53"/><stop offset=".95" stop-color="#622e14" stop-opacity=".39"/><stop offset=".97" stop-color="#371a0b" stop-opacity=".22"/><stop offset="1" stop-color="#090401" stop-opacity=".04"/><stop offset="1" stop-color="#000" stop-opacity="0"/></radialGradient><radialGradient id="Dégradé_sans_nom_300" cx="10012.19" cy="-12027.22" fx="10012.19" fy="-12027.22" r="9.38" gradientTransform="translate(-15171.59 1673.29) rotate(44.38)" gradientUnits="userSpaceOnUse"><stop offset=".46" stop-color="#ff7934"/><stop offset=".66" stop-color="#fd7833" stop-opacity=".99"/><stop offset=".74" stop-color="#f67432" stop-opacity=".97"/><stop offset=".79" stop-color="#ea6f2f" stop-opacity=".92"/><stop offset=".83" stop-color="#d9672c" stop-opacity=".85"/><stop offset=".86" stop-color="#c35c27" stop-opacity=".77"/><stop offset=".9" stop-color="#a84f22" stop-opacity=".66"/><stop offset=".92" stop-color="#87401b" stop-opacity=".53"/><stop offset=".95" stop-color="#622e14" stop-opacity=".39"/><stop offset=".97" stop-color="#371a0b" stop-opacity=".22"/><stop offset="1" stop-color="#090401" stop-opacity=".04"/><stop offset="1" stop-color="#000" stop-opacity="0"/></radialGradient><radialGradient id="Dégradé_sans_nom_340" cx="-145.63" cy="10821.76" fx="-145.63" fy="10821.76" r="25.65" gradientTransform="translate(-9918.19 4035.33) rotate(-112.08)" gradientUnits="userSpaceOnUse"><stop offset=".29" stop-color="#349565"/><stop offset=".4" stop-color="#2e8459" stop-opacity=".89"/><stop offset=".62" stop-color="#1e583c" stop-opacity=".59"/><stop offset=".92" stop-color="#06120c" stop-opacity=".13"/><stop offset="1" stop-color="#000" stop-opacity="0"/></radialGradient><radialGradient id="Dégradé_sans_nom_343" cx="-110.06" cy="10747.83" fx="-110.06" fy="10747.83" r="12.83" gradientTransform="translate(-9912.63 4046.44) rotate(-112.08)" gradientUnits="userSpaceOnUse"><stop offset="0" stop-color="#34ff9a"/><stop offset="0" stop-color="#32f594" stop-opacity=".96"/><stop offset=".05" stop-color="#28c778" stop-opacity=".78"/><stop offset=".09" stop-color="#1f9c5e" stop-opacity=".61"/><stop offset=".14" stop-color="#187747" stop-opacity=".47"/><stop offset=".2" stop-color="#115634" stop-opacity=".34"/><stop offset=".25" stop-color="#0c3b23" stop-opacity=".23"/><stop offset=".32" stop-color="#072516" stop-opacity=".15"/><stop offset=".4" stop-color="#04140c" stop-opacity=".08"/><stop offset=".49" stop-color="#010805" stop-opacity=".03"/><stop offset=".63" stop-color="#000101" stop-opacity="0"/><stop offset="1" stop-color="#000" stop-opacity="0"/></radialGradient><radialGradient id="radial-gradient-7" cx="-315.9" cy="10853.34" fx="-315.9" fy="10853.34" r="6.25" gradientTransform="translate(-9918.19 4035.33) rotate(-112.08)" gradientUnits="userSpaceOnUse"><stop offset=".46" stop-color="#34ff9a"/><stop offset=".66" stop-color="#33fd98"/><stop offset=".74" stop-color="#32f694"/><stop offset=".79" stop-color="#2fea8d"/><stop offset=".83" stop-color="#2cd983"/><stop offset=".86" stop-color="#27c376"/><stop offset=".9" stop-color="#22a865"/><stop offset=".92" stop-color="#1b8752"/><stop offset=".95" stop-color="#14623b"/><stop offset=".97" stop-color="#0b3721"/><stop offset="1" stop-color="#010905"/><stop offset="1" stop-color="#000"/></radialGradient><radialGradient id="Dégradé_sans_nom_334" cx="-152.82" cy="10923.82" fx="-152.82" fy="10923.82" r="8.44" gradientTransform="translate(-9918.19 4035.33) rotate(-112.08)" gradientUnits="userSpaceOnUse"><stop offset=".26" stop-color="#34ff9a"/><stop offset=".29" stop-color="#2fe78b" stop-opacity=".91"/><stop offset=".37" stop-color="#24b26b" stop-opacity=".7"/><stop offset=".45" stop-color="#1a824e" stop-opacity=".51"/><stop offset=".53" stop-color="#125a36" stop-opacity=".35"/><stop offset=".62" stop-color="#0b3922" stop-opacity=".23"/><stop offset=".71" stop-color="#062013" stop-opacity=".13"/><stop offset=".8" stop-color="#020e08" stop-opacity=".06"/><stop offset=".89" stop-color="#000302" stop-opacity=".01"/><stop offset="1" stop-color="#000" stop-opacity="0"/></radialGradient></defs><g class="cls-134"><g id="Calque_2"><g class="cls-157"><g class="cls-142"><g><g class="cls-132"><g class="cls-117"><path class="cls-155" d="m323.61,542.64s-123.75,52.94-214.47,84.93c0,0-3.11-77.78-.86-126.56,0,0,143.98-76.75,216.76-105.8,0,0,3.9,89.5-1.42,147.44Z"/><path class="cls-156" d="m399.22,501.29s5.49-63.17,1.8-117.07c0,0-44.04,13.05-67.3,31.8,0,0-6.67,88.94-1.08,104.14,0,0,43.53-5.25,66.58-18.87Z"/></g></g><polygon class="cls-78" points=".72 495.89 -100.62 553.93 -99.37 233.36 -108.75 233.36 -120.84 565.51 -193.09 606.89 -206.58 606.89 -205.3 281.09 -214.68 281.09 -226.54 606.89 -326.34 606.89 -325.06 281.09 -334.44 281.09 -346.31 606.89 -398.95 606.89 -397.67 281.09 -407.05 281.09 -418.91 606.89 -1105.25 606.89 -1105.41 361.8 -1114.79 361.8 -1127.31 606.89 -1206.26 606.89 -1204.97 275.79 -1214.35 275.79 -1226.4 606.89 -1300.31 606.89 -1309.58 495.89 -1322.81 495.89 -1306.24 621 -181.8 621 -101.99 571.81 -100.69 571.96 -100.69 571.01 21.2 495.89 .72 495.89"/><g class="cls-86"><polygon class="cls-156" points="-105.08 1284.78 -105.08 1205.54 -173.15 1203.62 -174.18 1124.39 -211.5 1123.16 -211.5 1052.38 -245.15 1050.89 -245.15 980.69 -277.89 975.57 -281.23 906.28 -325.18 905.65 -325.18 829.27 -392.31 826.45 -394.43 749.64 -448.29 750.44 -654.45 748.04 -615.74 492.07 -615.74 473.38 -607.54 473.38 -613.61 402.64 -597.43 402.64 -605.4 323.78 -551.74 323.78 -561.08 242.78 -476.82 242.78 -479.85 158.01 -801.32 91.62 -983.76 109.06 -983.76 379.25 -955.26 380.92 -955.26 460.16 -887.18 462.07 -886.15 541.3 -848.84 542.53 -848.84 613.31 -815.19 614.8 -815.19 685.01 -793.33 686.3 -793.33 756.89 -754.14 758.31 -754.14 834.69 -670.28 834.11 -669.6 909.58 -618.5 918.5 -618.5 1518.41 -574.53 1518.41 -259.02 1574.07 164.06 1574.06 164.06 1303.87 -105.08 1284.78"/></g><ellipse class="cls-158" cx="-194.53" cy="658.08" rx="289.81" ry="312.23" transform="translate(-740.21 241.96) rotate(-69.14)"/></g></g></g><g><g><path class="cls-137" d="m187.05,363.7s10.02-5.67,13.27-9.51c3.25-3.83,8.17-11.21,8.17-11.21,0,0,5.2-.89,9.36,4.35l1.57-1.17,4.38,4.74,8.06-3.18,8.12,6.03,3.06-3.68-4.38,11.52-51.61,2.11Z"/><path class="cls-166" d="m274.22,176.69s-11.31,10.56-24.45,1.43c-13.14-9.12-12.32-30.86-7.02-34.72,5.29-3.85,13.34,0,13.34,0,0,0-7.81-18.65-7.66-28.03.15-9.38,10.66-19.84,10.66-19.84l-10.18,7.35s0-11.85,14.93-15.3l-32.79-1.19s20.89-26.8,41.72-1.23c0,0,42.11-42.8,89.52-27.29l-9.92,4.33s22.58,13.54,24.28,22.88c1.7,9.35-5.24,17.24-5.24,17.24,0,0,7.92,7.69,6.99,12.13-.93,4.45-7.71,15.41-7.71,15.41,0,0-2.92,25.86-2.4,31.83.52,5.97,1.7,13.35,1.06,17.09-.64,3.74-19.86,25.91-41.52,25.91,0,0,27.48,72.27,37.31,87.56l4.76.5-.45,6.17h4.78s1.23,7.69,1.23,7.69l16.53,4.34-1.72,6.47s5.02,2.79,6.9,5.52c1.88,2.72,3.95,9.34,3.95,9.34l-40.63-6.51-55.72-103.45-23.74-7.96-57.33,65.47s-13.63-16.31-8.54-43.26c21.62-16.8,45-31.41,73.85-45.78l4.04.42-18.82-14.56Z"/><path class="cls-110" d="m358.86,386.84s-10.81,2.91-35.86,4.64c-25.04,1.73-78.32,2.4-78.32,2.4,0,0-15.99-.19-40.8-4.97-24.82-4.79-70.41-14.93-70.41-14.93,0,0,47.79-8.8,106.5-7.12,58.71,1.68,118.88,19.99,118.88,19.99Z"/><path class="cls-91" d="m534.9,404.12s-7.75,1.65-25.79,3.08c-18.04,1.43-56.45,3.03-56.45,3.03,0,0-11.53.29-29.51-1.4-17.98-1.7-51.02-5.46-51.02-5.46,0,0,34.33-5.36,76.7-5.96,42.37-.6,86.07,6.72,86.07,6.72Z"/><path class="cls-141" d="m363.81,349.48s17.03-13.6,24.96-31.47l-3.18-2.31s-19.28,16.3-21.78,33.78Z"/><path class="cls-165" d="m217.58,382.49s-4.19-.71-11.8-1.19c-.96-.05-1.97-.11-3.04-.16-.36-.02-.73-.03-1.1-.05-1.78-.08-3.71-.14-5.77-.17-1.44-.03-2.95-.03-4.51-.03-6.45,0-20.23,1.64-20.65-.45-.42-2.08,3.01-11.75,14.19-15.89,7.21-2.67,12.08-5.89,15.57-8.88v-.02c6.23-5.35,8.09-10.03,11.1-9.66,2.14.26,4.33,1.44,6.29,2.9.09.06.19.12.28.2,1.47,1.12,2.81,2.37,3.88,3.47,1.63,1.69,2.65,3.04,2.65,3.04,6.02,13.52-7.09,26.88-7.09,26.88Z"/><path class="cls-136" d="m400.68,335.39l.57,2.29-1.75,1.49c-4.46-1.24-10.05-8.34-10.05-8.34-7.38-1.61-14.88.59-14.88.59,0,0,1.18,3.27,2.9,4.7,1.35,1.13,4.05,2.09,5.33,4.6.34.65.59,1.41.68,2.29.37,3.27-2.95,5.26-4.03,4.05-.53-.59-1.07-1.19-1.61-1.78h-.02c-3.41-3.78-6.88-7.6-7.94-8.79-.23-.23-.36-.37-.36-.37,1.22-6.12,11.47-14.12,15.91-17.32.67-.51,1.33-.99,2.02-1.43,0,0,6.22,2.88,8.51,5.33,2.31,2.45,5.69,10.91,5.69,10.91l-.98,1.77Z"/><path class="cls-167" d="m388.77,314.38v3.63s-1.32-.64-1.32-.64c0,0-18.06,13.3-23.64,32.11l-6.03-5.88-2.34-.29c-.7-.65-1.38-1.33-2.05-2.03-1.63-1.67-4.08-4.39-6.9-8.09t-.03-.03s-.03-.06-.05-.08c-5.24-6.88-11.75-17.15-16.59-30.45-9.55-26.25,0-93.12,0-93.12.03.06.05.12.06.19.2.6.85,2.67,1.89,5.75.02.06.03.11.05.17.02.02.02.05.03.08,5.57,16.78,21.36,62.98,31.5,78.53l3.97,1.21v5.13s2.2,0,2.2,0l5.58,7.78,13.66,6.03Z"/><path class="cls-164" d="m368.35,375.32c-.08.53-.22,1.04-.39,1.53-1.94,5.71-9.1,9.98-9.1,9.98-2.79.39-5.69.7-8.65.96-1.63.16-3.29.29-4.96.4h-.02c-36.98,2.53-82.05-2.59-82.05-2.59-5.72,5.43-18.5,8.26-18.5,8.26-14.68,0-32.19-6.62-38.9-9.41-.06-.02-.12-.05-.19-.08l-.12-.06c-1.61-.65-2.51-1.07-2.51-1.07,0-.05-.02-.08-.02-.12-.09-.68-.16-1.35-.22-2-1.21-16.85,11.67-28.93,15.4-32.05.5-.4.82-.67.95-.76.02-.02.03-.03.05-.03l4.11,3.67,8.96-2.34,7.78,4.11c8.82-9.98,17.04-24.82,17.04-24.82l-4.19-2.95c5.8-14.39,7.49-37.6,7.49-37.6l-3.66,2.57s-3.38-2.71-5.15-3.01c-1.77-.29-6.54,3.01-7.71,3.01s-3.21-4.48-3.21-4.48c0,0-9.13,4.11-16.91-6.6-7.78-10.73-8.76-37.57-7.6-40.29,1.18-2.74,17.83-15.09,38.39-25.95,20.56-10.87,35.5-21.94,35.5-21.94l37.85,13.04c.71,1.5,1.38,3.1,2,4.79.73,1.92,1.4,3.97,2,6.11.02.02.02.05.03.08,9.09,31.83,6.54,83.26,6.54,83.26l4.11,2.95-1.47,2.79c3.83,13.5,9.98,24.78,9.98,24.78l-5.77,1.75s.45.7,1.21,1.94t.03.03c4.93,7.81,22.76,36.57,21.86,42.14Z"/><path class="cls-115" d="m287.27,216.16s4.81,7.54,13.43,9.11c8.62,1.57,17.18-4.55,17.18-4.55,0,0,10.73,3.32,16.21,1.63l-16.21-12.94-11.05,2.45-19.55,4.31Z"/><path class="cls-121" d="m287.27,193.62s-6.47,14.22,0,22.54c6.48,8.32,16.37,4.99,26.65-4.6,0,0,10.58,12.47,20.17,10.79,0,0-3.82-15.85-6.27-17.63-2.45-1.78-6.01-.74-6.01-.74,0,0-7.66,6.11-11.89,4.84-4.23-1.28-17.41-15.56-17.41-15.56l-2.52-1.58-2.72,1.94Z"/><path class="cls-84" d="m259,300.08s29.36-21.55,35.87-45.05l-17.93-21.59-11.48,1.37s-13.03-5.63-23.71-4.95c0,0,3.33,2.25,5.09,8.91,0,0-6.56-6.95-19.98-5.39,0,0,10.28-1.17,17.33,5.58,7.05,6.76,16.12,49.4,16.12,49.4l-1.32,11.71Z"/><path class="cls-135" d="m293.37,193.77s12.42,14.66,18.29,15.63c5.88.98,10.14-5.42,10.14-5.42,0,0-17.66-2.71-28.44-10.21Z"/><path class="cls-149" d="m369.35,178.81c-.17,1.71-1.07,3.63-2.51,5.66,0,0-.02.02-.05.05-5.94,8.31-20.93,18.19-31.18,19.84-11.58,1.88-37.92-3.22-57.19-21.84-.05-.03-.06-.05-.06-.05-1.97-1.91-3.86-3.95-5.66-6.15-19.4-23.71-18.88-87.72,22.53-95.77,49.35-9.6,68.14,15.27,72.54,26.14,4.42,10.87-1.75,47.3-2.2,52.59-.43,5.29,4.64,10.87,3.78,19.53Z"/><path class="cls-105" d="m273.27,177s2.87-3.92.95-15.28c-1.92-11.36-2.8-34.47,8.26-42.3,11.06-7.83,24.97-10.58,42.1-6.36,17.14,4.21,28.99,5.78,35.89,4.5,6.9-1.27,7.81-3.43,7.81-3.43l-1.99-9.98-41.71-14.79h-34.27s-24.86,21.54-24.86,21.54l2.7,43.64,5.11,22.46Z"/><path class="cls-138" d="m349.48,171.46s.4,3.07,5.62,2.95c5.21-.12,7.87-6.1,7.87-6.1,0,0-6.15,5.24-13.49,3.15Z"/><path class="cls-163" d="m266.85,152.89s-12.14-12.84-21.83-5.4c-9.54,7.32-1.62,26.02,4.75,30.63,6.36,4.61,16.2,5.7,20.81,2.64,4.61-3.06,6.26-15.98-3.72-27.87Z"/><path class="cls-131" d="m369.04,128.09s4.31-6.42,5.63-12c1.32-5.58-5.23-13.81-5.23-13.81,0,0,4.35-8.52,3.47-16.6-.88-8.08-15.86-22.33-30.55-24.38l12.48-2.06s-40.26-10.48-82.25,26.73c0,0-18.12-17.77-37.11-1.32,0,0,17.63-3.53,34.66,2.94,0,0-13.51-1.57-19.39,12.14,0,0,9.06-8.32,18.46-9.79,0,0-17.77,12.93-19.24,23.35-1.47,10.43,11.49,35.22,11.49,35.22,0,0,6.62,3.3,10.93,13.56,0,0-3.33-11.22-1.56-20.53,1.76-9.31-3.23-25.61-3.23-25.61,0,0,23.65-16.45,52.58-4.26,0,0-6.46-17.04-27.61-19.54,0,0,27.42-2.79,49.06,13.17,0,0,3.08,3.72,1.62,9.16,0,0,5.58-8.23,6.76-15.42,0,0,.88,7.93-3.52,14.25,0,0,8.52-1.32,14.39-6.02l-4.7,8.96s7.58-3.38,10.43-8.67c0,0,3.44,9.25,2.45,20.52Z"/><path class="cls-120" d="m324.15,134.82s7.64,29.62,0,41.87c-7.64,12.25-29.82-.09-32.02-9.63-2.2-9.55,2.74-23.65,2.74-23.65,0,0,11.21-9.98,29.28-8.59Z"/><path class="cls-148" d="m355.53,141.55s2.84-11.94,13.51-13.46l-.86,10.02s-5.8-.86-12.65,3.44Z"/><path class="cls-138" d="m295.22,169.91s1.46,4.78,10.95,8.23c9.31,3.39,16.02-.31,17.32-3.73,0,0-13.67,7.41-28.27-4.5Z"/><path class="cls-139" d="m324.15,134.82s-2.15-7.86-6.46-9.23c-4.31-1.37-20.07,6.17-22.82,17.82,0,0,11.07-6.14,19.39-7.64,8.32-1.5,9.89-.95,9.89-.95Z"/><path class="cls-123" d="m320.92,176.46c-4.99,2.34-16.74,3.38-24.24-4.7-8.76-9.44-.64-24.53,12.83-28.35,13.46-3.82,17.43,7.2,17.28,15.72-.15,8.52-2.65,15.82-5.88,17.33Z"/><path class="cls-153" d="m360.87,145.17c-6.91.16-13.44,22.03-11.38,26.29,2.06,4.26,8.89,2.08,12.8-2.06,2.96-3.12,4.9-24.38-1.42-24.23Z"/><path class="cls-125" d="m324.59,148.7s-2.47-7.31-12.98-7.14c-10.52.16-17.95,10.62-18.57,18.83,0,0,9.96-8.75,31.55-11.69Z"/><path class="cls-169" d="m351.51,157.63s3.4-11.42,8.47-12.46c5.07-1.03,5.07,5.79,5.07,5.79,0,0-6.59-.05-13.54,6.66Z"/><path class="cls-144" d="m293.04,160.38s9.22-11.17,31.55-11.69l5.58,1.47s-20.66-1.47-37.13,10.22Z"/><path class="cls-144" d="m351.51,157.63s8.29-6.51,17.93-6.07l-4.8-1.17s-5.08-.57-13.13,7.24Z"/><path class="cls-126" d="m306.82,177.53s6.9-11.79,17.32-4.96c0,0-.06,2.79-3.89,4.51-5.88,2.64-13.43.45-13.43.45Z"/><path class="cls-162" d="m351.51,173.39s5.73-8.54,10.77-3.99c0,0-4.85,5.92-10.77,3.99Z"/><path class="cls-34" d="m334.09,182.49s.34,1.16,4.23,1.53c3.89.37,5.55,2.06,10.78,1.69,5.23-.37,7.8-4.92,7.8-4.92,0,0-3.82,6.54-10.21,8.52-6.39,1.98-7.15-.76-9.67-1.85-2.52-1.09-2.94-4.97-2.94-4.97Z"/><path class="cls-154" d="m335.6,185.46s4.91-.3,6.31,2.67c0,0-2.35.54-6.31-2.67Z"/><path class="cls-103" d="m336.19,179.48s-3.08,2.71-1.69,5.98c0,0-4.33-4.08,1.69-5.98Z"/><path class="cls-94" d="m337.07,178.88s7.39-5.46,13.15-4.19c0,0-6.57,0-13.15,4.19Z"/><path class="cls-80" d="m269.36,165.73s-10.28-10.48-19.09-10.48c-8.81,0-7.44,9.79-7.44,9.79,0,0-.73-14.08,15.57-4.66,0,0-3.82,7.6-2.84,13.53s7.29,7.93,7.29,7.93c0,0-5.39-4.06-5.04-8.96.34-4.9,4.01-9.05,4.01-9.05,0,0-1.96,4.15,0,8.02,1.96,3.87,6.81,3.48,7.54,1.76.73-1.71-4.06-2.99-3.82-5.63.24-2.64,3.82-2.25,3.82-2.25Z"/><path class="cls-116" d="m269.36,165.73s-4.5-.17-3.64,3.29c.85,3.46,3.45,3.61,2.66,4.88-.78,1.27-6.46.26-6.81-4-.34-4.26,2.25-8.19,2.25-8.19,0,0,4.65.98,5.53,4.01Z"/><path class="cls-100" d="m355.53,141.55s-9.55,24.57-7.83,29.37c1.71,4.8,14,8.92,18.54-7.09,0,0-1.07-1.77-.49-6.2.59-4.43,2.54-20.53,2.54-20.53,0,0-5.17-1.95-12.76,4.46Z"/><path class="cls-93" d="m293.04,162.08s17.59-12.36,33.33-8.08c0,0-.43-2.38-1.1-3.84-.68-1.47-22.7,2.23-32.23,10.22v1.7Z"/><path class="cls-85" d="m365.06,151.82v1.04s-7.48.61-13.76,5.4l.22-.62s6.13-4.79,13.54-5.81Z"/><path class="cls-20" d="m366.79,184.52c-5.94,8.31-20.93,18.19-31.18,19.84-11.58,1.88-37.92-3.22-57.19-21.84,1.19.93,20.7,15.19,45.08,18.38,24.45,3.22,42.28-15.27,43.29-16.38Z"/><path class="cls-143" d="m326.8,193.77s8.52,11.97,20.9,4.88c0,0-12.65,2.99-20.9-4.88Z"/><path class="cls-146" d="m328.79,196s2.03,5.74,5.8,6.75c3.77,1.01,8.2-2.17,8.2-2.17,0,0-7.94.81-14-4.58Z"/><path class="cls-160" d="m388.77,314.38v3.63s-1.32-.64-1.32-.64c0,0-18.06,13.3-23.64,32.11l-6.03-5.88-2.34-.29c-1.63-21.15,11.89-42.74,11.89-42.74h2.2s5.58,7.78,5.58,7.78l13.66,6.03Z"/><path class="cls-150" d="m223.24,351.97s-.45.17-1.22.59c-3.89,2.02-15.81,9.75-16.23,28.73-.05,1.02-.03,2.08.02,3.18v.02l-.19-.09-.12-.06-2.53-1.19-1.35-.65s0-.51.03-1.4c.2-5.44,1.94-25.18,16.22-32.2.4-.2.81-.39,1.22-.56.02-.02.03-.03.05-.03l4.11,3.67Z"/><path class="cls-140" d="m262.04,306.93v-6.37s25.82.3,31.77-3.74l-1.03,6.32s-10.52,5.97-30.74,3.79Z"/><path class="cls-151" d="m329.58,295.48l-.44,5.09,11.89,4.12,1.47-2.79s-2.94-3.97-12.93-6.42Z"/><path class="cls-161" d="m312.74,209.41l4.13,12.29s7.33,44.91,2.63,82.99l3.13,7.14-2.45,17.53.98,7.74-.58-7.99,2.42-17.77s-2.73-5.73-2.86-8.52c-.13-2.79,4.83-25.48-2.81-81.37l-3.25-12.03h-1.34Z"/><path class="cls-92" d="m296.53,295.48s13.73,12.36,26.48,15.85c12.74,3.49,17.59,1.73,17.59,1.73l-21.1-8.37-22.96-9.21Z"/><path class="cls-102" d="m279.94,313.5s14.6,11.65,26.89,14.78c12.28,3.13,29.37-3.26,29.37-3.26,0,0-15.67,10.8-28.69,9.18-13.02-1.62-27.56-20.71-27.56-20.71Z"/><path class="cls-119" d="m342.51,246.32l-3.75,47.9s.62-45.52-4.67-71.87l8.42,23.97Z"/><path class="cls-88" d="m367.33,295.43s-10.92,6.42-15.42,18.07c0,0,10.57-10.1,15.42-12.94v-5.13Z"/><path class="cls-111" d="m388.77,314.38v3.63s-1.32-.64-1.32-.64c0,0-18.06,13.3-23.64,32.11l-6.03-5.88-2.34-.29c-.7-.65-1.38-1.33-2.05-2.03-4.62-4.82-8.14-10.06-8.14-10.06l5.77-1.75-5.6-12.09,10.43,14.66c4.97-18.17,13.67-31.46,13.67-31.46l5.58,7.78c-6.08,9.53-9.4,26.02-9.4,26.02,9.4-11.54,23.05-19.98,23.05-19.98Z"/><path class="cls-115" d="m345.24,388.21c-36.98,2.53-82.05-2.59-82.05-2.59,7.19-6.45,25.12-23.21,25.12-23.21l33.5-11.8-9.07.1-22.76,10.23,35.6-18.65-33.54,1.77c-10.5-2.36-35.02-15.13-35.02-15.13,0,0,22.92,12.29,48.32,11.89,28.81-.44,39.92-9.6,39.92-9.6-17.38,7.15-18.46,25.27-18.46,25.27,2.08,23.18,17.79,31.52,18.44,31.73Z"/><path class="cls-77" d="m244.69,393.88c-14.68,0-32.19-6.62-38.9-9.41v.02l-.19-.09-.12-.06c-1.61-.65-2.51-1.07-2.51-1.07,0-.05-.02-.08-.02-.12l-1.35-.65s0-.51.03-1.4c-1.78-.08-3.71-.14-5.77-.17.26-5.89,1.24-15.97,4.59-25.26v-.02c6.23-5.35,8.09-10.03,11.1-9.66,2.14.26,4.33,1.44,6.29,2.9.4-.2.81-.39,1.22-.56.02-.02.03-.03.05-.03l4.11,3.67,8.96-2.34,7.78,4.11s-4.84,13.21-3.81,24.82c1.02,11.6,8.53,15.32,8.53,15.32Z"/><path class="cls-101" d="m279.94,387.15s3.97-2.14,7.33-6.67c7.6-10.26,30.61-20.42,30.61-20.42l7.71,4.18-5.87-10.03-31.4,8.21-25.12,23.21,16.75,1.53Z"/><path class="cls-97" d="m239.98,353.74s-5.14,11.81-3.95,21c0,0-4.55-12.11,1.1-22.51l2.85,1.51Z"/><path class="cls-104" d="m223.24,351.97s-15.42,6.61-16.15,21.45c0,0-.71-15.16,13.67-23.66l2.48,2.22Z"/><path class="cls-115" d="m244.69,393.88l18.5-8.26s-3.8,5.03-18.5,8.26Z"/><path class="cls-115" d="m367.97,376.86c-1.94,5.71-9.1,9.98-9.1,9.98-2.79.39-5.69.7-8.65.96,0,0,14.6-6.16,17.75-10.95Z"/><polygon class="cls-115" points="263.19 331.79 246.13 345.97 257.02 328.92 263.19 331.79"/><path class="cls-79" d="m262.04,300.56v6.37s-3.05,19.49-3.05,19.49c0,0,10.66,3.97,15.65,2.5,4.99-1.47,12.62-7.2,12.62-7.2v-2.99s2.72-2.31,2.72-2.31l2.8-13.29s-3.46,12.37-3.5,13.15c-.04.78-2.45,2.06-2.45,2.06l-.2,3.23s-9.13,6.76-12.48,7.35c-3.35.58-14.42-2.55-14.54-3.16-.12-.61,3-18.77,3-18.77l-.57-6.43Z"/><path class="cls-113" d="m245.86,238.14s-9.01,13.22-7,35.11c0,0-9.36-26.69,4.25-37.13l2.74,2.02Z"/><path class="cls-112" d="m276.33,200.9s2.73,8.75,24.32,10.22c21.59,1.47,29.48-2.14,29.48-2.14,0,0-.82-2.83-2.3-4.26,0,0-19.71-.94-37.85-13.04l-13.65,9.22Z"/><path class="cls-90" d="m293.82,296.82l-31.77,3.74s21.08,1.43,31.77-3.74Z"/><polygon class="cls-95" points="329.58 295.48 338.46 297.52 338.4 298.95 329.58 295.48"/><path class="cls-98" d="m400.68,335.39l.57,2.29-8.88-12.14-9.54-2.05-8.26,7.93s1.18,3.27,2.9,4.7c1.35,1.13,4.05,2.09,5.33,4.6-1.02,2.2-2.7,4.76-4.96,4.56h-.02c-3.41-3.78-6.88-7.6-7.94-8.79.42-.65,7.49-11.54,15.55-17.69.67-.51,1.33-.99,2.02-1.43,0,0,6.22,2.88,8.51,5.33,2.31,2.45,5.69,10.91,5.69,10.91l-.98,1.77Z"/><path class="cls-89" d="m292.57,92.15s12.6-19.83,27.61-13.67c9.56,3.92,21.44,26.84,21.44,26.84,0,0-22.13-16.45-49.06-13.17Z"/><path class="cls-96" d="m342.36,61.3s-28.45,2.4-50.8,15.52c0,0,26.56-23.6,63.28-17.58l-12.48,2.06Z"/><path class="cls-99" d="m369.45,102.28l-2.85,5.29s2.69,7.24,2.62,15.57c0,0,4.27-6.68,3.23-16.25l-3-4.61Z"/><path class="cls-114" d="m320.18,111.68s-22.91-11.9-40.54-11.75c-17.63.15-21,4.41-21,4.41l8.96,11.6s22.91-16.01,52.58-4.26Z"/><path class="cls-82" d="m235.48,84.66s19.58-2.5,34.66,2.94c0,0-17.72-16.01-34.66-2.94Z"/><path class="cls-1" d="m346.47,113.3s14.4-9.84,18.58-28.2c0,0,2.55,11.48-4.19,22.18,0,0-7.27,5.36-14.39,6.02Z"/><path class="cls-29" d="m356.17,116.24s12.33-9.25,16.81-26.88c0,0,.08,17.92-16.81,26.88Z"/><path class="cls-14" d="m343.24,114.47s1.47-14.76-.73-23.17c0,0,8.61,3.48,7.49,7.75-1.12,4.27-3.23,13.57-6.76,15.42Z"/><path class="cls-26" d="m287.27,216.16s4.57,3.92,9.9,3.38c5.34-.54,14.06-5.61,14.06-5.61,0,0-7.89,6.61-13.6,6.9-5.71.29-10.36-4.67-10.36-4.67Z"/><path class="cls-108" d="m315.45,226.7s2.18,1.9,2.43,5.24c.25,3.34-2.68,6.9-2.68,6.9,0,0-5.7-7.84.25-12.14Z"/><path class="cls-16" d="m315.67,213.43s8.36,7,18.04,7.41l.38,1.51s-6.63,2.57-18.42-8.92Z"/><path class="cls-124" d="m317.28,231.38c0,1.4-1.13,2.53-2.53,2.53-1.4,0-2.53-1.13-2.53-2.53,0-1.4,1.13-2.53,2.53-2.53s2.53,1.13,2.53,2.53Z"/><path class="cls-83" d="m315.72,258.88s2.18,1.9,2.43,5.24c.25,3.34-2.68,6.9-2.68,6.9,0,0-5.7-7.84.25-12.14Z"/><path class="cls-124" d="m317.54,263.56c0,1.4-1.13,2.53-2.53,2.53-1.4,0-2.53-1.13-2.53-2.53,0-1.4,1.13-2.53,2.53-2.53,1.4,0,2.53,1.13,2.53,2.53Z"/><path class="cls-118" d="m318.56,308.83s2.18,1.9,2.43,5.24c.25,3.34-2.68,6.9-2.68,6.9,0,0-5.7-7.84.25-12.14Z"/><path class="cls-168" d="m320.38,313.52c0,1.4-1.13,2.53-2.53,2.53s-2.53-1.13-2.53-2.53c0-1.4,1.13-2.53,2.53-2.53,1.4,0,2.53,1.13,2.53,2.53Z"/><polygon class="cls-141" points="321 339.58 320.68 333.33 324.3 339.02 321 339.58"/><path class="cls-109" d="m195.87,380.92l-11.44-3.24-11.44,3.68s2.55.24,7.6,0c5.05-.24,15.28-.44,15.28-.44Z"/><path class="cls-122" d="m308.21,168.55s-1.03,6.49,4.02,8.87c0,0,.16-6.17-4.02-8.87Z"/><path class="cls-122" d="m354.82,170.92s-2.67-1.07-2.67-3.45c0,0,1.88-.38,2.67,3.45Z"/><g><path class="cls-41" d="m235.64,193.74s58.7,70.27,82.53,101.48v.02c5.88,7.69,9.64,13.01,9.85,14.32l-.02.26-.21.03c-1.08-.32-5.34-4.51-11.57-11.09-26.38-27.88-87.72-98.66-87.72-98.66,0,0,2.72-4.95,7.15-6.36Z"/><path class="cls-65" d="m268.19,233.05c-1.8,2.07-3.77,4-5.86,5.78,6.11,6.94,10.94,12.42,17.33,19.62,1.34-.7,6.28-2.74,8.95-.42-6.81-8.39-13.82-16.95-20.42-24.99Z"/><path class="cls-62" d="m244.69,203.93l1.86-2.91s-13.84-13.97-22.81-28.86c0,0-10.51,2.57-15.66,12.58,0,0,15.89,12.08,27.38,27.4l2.08-1.86s2.12-5.42,7.15-6.36Z"/><path class="cls-43" d="m223.74,172.17s-10.67-8.4-16.38-3.32c-5.71,5.08.71,15.9.71,15.9,0,0,8.27-9.8,15.66-12.58Z"/><path class="cls-47" d="m217.76,169.49s-3.28-1.81-6.51-1.48l-.42,2.3s1.89.23,5.37,1.56l1.57-2.39Z"/><path class="cls-63" d="m246.55,201.03s-9.66,1.73-11.09,11.12l2.08-1.86s1.58-4.57,7.15-6.36l1.86-2.91Z"/><path class="cls-48" d="m207.21,183.07l2.43-2.16s-1.74-3.54-2.28-7.14l-2.3-.26s-.56,3.32,2.14,9.56Z"/><path class="cls-66" d="m223.74,172.17s5.69,14.6.3,26.87c0,0,3.62-11.66-1.29-26.46l.99-.41Z"/><path class="cls-76" d="m234.78,187.78s3.19,14.09.68,24.37c0,0,3.42-7.45.64-22.88l-1.33-1.49Z"/><path class="cls-74" d="m215.25,177.61s1.46,7.98-1.96,11.47c0,0,2.9-4.38.76-10.42l1.2-1.05Z"/><path class="cls-64" d="m252.23,213.71s28.19,34.49,36.87,55.36l2.63,2.96s-12.15-24.18-21.47-36.45l-18.03-21.86Z"/><path class="cls-40" d="m288.13,257.45s13.55,14.77,23.68,36.62l-2.51-2.72s-11.96-21.43-22.75-35.85l1.58,1.95Z"/><path class="cls-47" d="m318.17,295.24c5.87,7.69,9.63,13.01,9.84,14.32l-.02.26-.21.03c-1.08-.32-5.34-4.51-11.57-11.09l1.96-3.52Z"/><path class="cls-8" d="m306.03,259.17c24.12-8.96,50.93,3.33,59.89,27.45,8.96,24.12-3.33,50.93-27.45,59.89-24.12,8.96-50.93-3.33-59.89-27.45-8.96-24.12,3.33-50.93,27.45-59.89Z"/><path class="cls-5" d="m315.48,287.38c10.06-3.74,21.24,1.39,24.98,11.45,3.74,10.06-1.39,21.24-11.45,24.98-10.06,3.74-21.24-1.39-24.98-11.45-3.74-10.06,1.39-21.24,11.45-24.98Z"/><path class="cls-37" d="m318.29,294.95c5.88-2.18,12.41.81,14.6,6.69,2.18,5.88-.81,12.41-6.69,14.6-5.88,2.18-12.41-.81-14.6-6.69-2.18-5.88.81-12.41,6.69-14.6Z"/><path class="cls-59" d="m196.72,137.46c19.36-7.19,40.88,2.67,48.07,22.03,7.19,19.36-2.67,40.88-22.03,48.07-19.36,7.19-40.88-2.67-48.07-22.03-7.19-19.36,2.67-40.88,22.03-48.07Z"/><path class="cls-55" d="m204.17,157.52c8.27-3.07,17.47,1.14,20.54,9.41,3.07,8.27-1.14,17.47-9.41,20.54-8.27,3.07-17.47-1.14-20.54-9.41-3.07-8.27,1.14-17.47,9.41-20.54Z"/><path class="cls-71" d="m204.75,159.08c8.27-3.07,17.47,1.14,20.54,9.41,3.07,8.27-1.14,17.47-9.41,20.54-8.27,3.07-17.47-1.14-20.54-9.41-3.07-8.27,1.14-17.47,9.41-20.54Z"/><path class="cls-39" d="m326.27,310.03s9.19,3.01,23.97-9.47c14.77-12.48,13.04-26.92,38.41-29.55,25.38-2.63,20.88,21.11,15.8,29.86-5.08,8.75-16.93,10.82-23.19,18.47-6.26,7.65,3.15,5.95,4.7,7.5,1.55,1.55.06,5.29.06,5.29,0,0,1.31-4.22-2.26-4.6-3.57-.38-14.83,5.86-21.29.49-6.45-5.37-1.7-12.13,30.07-35.4,31.77-23.27-8.1-25.51-19.21-13.8-9.85,10.37-10.68,31.8-19.98,39.2-9.3,7.4-27.08-7.99-27.08-7.99Z"/><path class="cls-38" d="m326.27,310.03s9.14,3.83,25.2-4.84c16.06-8.67,15.7-27.42,32.29-32.35,16.59-4.93,21.6,4.75,20.36,13.65-1.25,8.91-31.54,21.92-33.54,30.94-2,9.02,15.21,6.74,16.5,12.41,1.3,5.66-2.86,11.69-2.86,11.69,0,0,3.07-9.01-.05-12.32-3.12-3.32-16.82-2.36-22.26-8.66-5.45-6.3,33.59-25.01,37.6-37.62,4.01-12.61-13.56-23-28.01-11.95-14.45,11.06-10.81,34.95-24.82,41.68-14.01,6.73-20.4-2.62-20.4-2.62Z"/></g><g><path class="cls-152" d="m289.69,253.68v.02c-.23.62-.5.99-.5.99-5.43-.39-11.6.74-13.95,2.31-2.36,1.57-7.53,11.85-9.8,11.94-5.67.25-10.67-2.45-10.67-2.45-.91-1.89-1.52-3.98-1.92-5.98-.98-4.74-.82-8.99-.82-8.99.68-.79,1.36-2.11,2.05-3.67,0,0,.02-.06.06-.17,1.07-2.48,2.11-5.6,3.09-8.34.03-.09.06-.17.09-.25,1.01-2.85,1.92-5.26,2.71-6.12l.02-.02c2.05-2.2,15.92-7.13,18.36-6.09,2.42,1.02,4.84,9.77,4.84,9.77,1.84,3.01,2.06,5.64,2.06,5.64,1.18,1.69,1.6,6.42,1.6,6.42h1.75c1.69,2,1.44,3.89,1.04,5.01Z"/><path class="cls-145" d="m264.76,268.95c-1.29,14.64-4.43,19.43-4.43,19.43l-3.66,2.57s-.02-.02-.03-.03c-.39-.29-3.46-2.7-5.12-2.98-1.77-.29-6.54,3.01-7.71,3.01s-3.21-4.48-3.21-4.48c-6.45-33.19,5.26-48.33,5.26-48.33,3.97,2.5,10.64,3.26,10.64,3.26,0,0-1.81,4.23-2.42,6.42-.6,2.2.7,18.67.7,18.67l9.98,2.47Z"/><path class="cls-32" d="m254.14,247.66s-2.24,9.82-3.21,19.27c-.96,9.45,5.7,23.99,5.7,23.99l3.69-2.54s4.38-10.73,4.43-19.43l-1.28-.04-8.7-2.43-.64-18.82Z"/><path class="cls-130" d="m254.77,266.49s-1.49,17.85,2.77,22.19c0,0,3.7-4.85,5.93-19.76l-8.7-2.43Z"/><path class="cls-107" d="m256.63,290.92c-.39-.29-3.46-2.7-5.12-2.98-1.77-.29-6.54,3.01-7.71,3.01,0,0-6.08-22.25,2.33-37.97,0,0,.76,24.36,10.5,37.94Z"/><path class="cls-81" d="m289.69,253.68c-2.03-4.56-17.16-1.21-17.16-1.21,0,0-9.69,7.63-9.69,10.71s2.6,5.75,2.6,5.75c-5.67.25-10.67-2.45-10.67-2.45-.91-1.89-1.52-3.98-1.92-5.98.54-5.81,1.19-12.29,1.22-12.67v-.02c2.25-5.18,4.39-13.19,5.97-14.88,2.05-2.2,15.92-7.13,18.36-6.09.4.17.82.56,1.21,1.1l.14.19c1.89,2.71,3.49,8.48,3.49,8.48,1.84,3.01,2.06,5.64,2.06,5.64,1.18,1.69,1.6,6.42,1.6,6.42h1.75c1.69,2,1.44,3.89,1.04,5.01Z"/><path class="cls-106" d="m286.9,248.67l-11.76-.85s10.15-.85,11.66,0l.09.85Z"/><path class="cls-106" d="m283.24,236.61s-9.41-2.29-15.64-2.87c0,0,8.96.54,11.16-.02,2.22-.57.85-5.78.85-5.78l.14.19c1.89,2.71,3.49,8.48,3.49,8.48Z"/><path class="cls-106" d="m285.3,242.25s-6.9-2.12-12.56-1.98c0,0,8.13.54,13.04,2.93l-.48-.95Z"/><path class="cls-87" d="m262.99,262.44c-1.55,3.98,2.45,6.5,2.45,6.5-5.67.25-10.67-2.45-10.67-2.45,0,0-1.52-10.57-.7-18.65,0,0,.02-.06.06-.17.26-.76,1.41-4.05,3.09-8.34.03-.09.06-.17.09-.25,1.74-4.4,2.62-5.94,2.71-6.12l.02-.02s2.93,6.82,5.94,12.56c3.01,5.72,6.54,6.98,6.54,6.98,0,0-7.98,5.98-9.54,9.97Z"/></g></g><g><ellipse class="cls-28" cx="449.3" cy="341.12" rx="123.02" ry="73.1"/><path class="cls-6" d="m429.46,340.25c14.1.58,55.15-23.32,73.99-23.4,18.84-.08,28.74,28.78,46.01,32.35,17.26,3.57,21.11,18.93,6.79,25.83-13.35,6.43-52.39,5.75-65.51,15.23-13.12,9.49-23.79,14.28-34.54,13.29-10.75-.99-9.84-12.31-18.43-14.25-8.58-1.94-5.05,10.46-32.01,6.37-26.95-4.09-78.05-35.42-79.82-52.18-1.77-16.76,1.15-36.46,27.65-29.03,26.49,7.42,44.83,24.52,75.88,25.8Z"/><path class="cls-30" d="m466.28,331.76c-14.1.58-55.15-23.32-73.99-23.4-18.84-.08-28.74,28.78-46.01,32.35-17.26,3.57-21.11,18.93-6.79,25.83,13.35,6.43,52.39,5.75,65.51,15.23,13.12,9.49,23.79,14.28,34.54,13.29,10.75-.99,9.84-12.31,18.43-14.25,8.58-1.94,11.77,22.16,38.72,18.07,26.96-4.09,50.67-21.72,58.04-36.87,14.46-29.72,13.91-63.47-12.58-56.05-26.49,7.42-44.83,24.52-75.88,25.8Z"/><path class="cls-17" d="m493.45,341.78c-30.4,2.05-62.49-16.09-84.71-14.87-22.22,1.22-32.8,2.4-46.95-.94-14.15-3.34-21.96-9.08-31.84-2.63-9.88,6.45,0,35.28,24.3,40.9,24.29,5.63,32.4,25.56,56.05,26.96,23.65,1.39,24.45-13.87,41.79-8.03,17.34,5.85,41.2,5.09,51.49-2.07,10.28-7.15-10.13-39.33-10.13-39.33Z"/><g><polygon class="cls-67" points="539.56 358.9 476.12 389.94 476.05 394.46 456.18 393.88 456.18 389.15 389.28 378.72 341.07 345.18 430.23 360.94 436.16 365.29 442.77 363.97 441.89 360.35 494.59 335.89 539.56 358.9"/><polygon class="cls-45" points="342.05 341.78 341.07 345.18 389.28 378.72 456.18 389.15 456.18 393.88 476.05 394.46 476.12 389.94 539.56 358.9 539.56 354.47 474.27 387.33 474 393.01 457.63 391.84 457.63 388.2 390.38 376.45 342.05 341.78"/><polygon class="cls-45" points="456.18 393.88 424.62 360.25 430.23 360.94 456.18 387.33 456.18 393.88"/><polygon class="cls-60" points="390.38 376.45 389.28 378.72 341.07 345.18 342.05 341.78 390.38 376.45"/><polygon class="cls-70" points="430.23 360.94 342.05 341.78 390.38 376.45 457.63 388.2 430.23 360.94"/><polygon class="cls-61" points="539.56 354.47 494.59 335.89 441.89 360.35 474.27 387.33 539.56 354.47"/><path class="cls-73" d="m347.53,328.35l1.42,14.92,44.48,30.74,61.48,11.47,2.73,2.72v3.64c4.44-3.13,15.6.15,15.6.15l-.3-5.77,62.24-33.56-.11-10.87-46.16-11.02c-16.4,9.62-54.45,13.99-55.54,16.18-1.09,2.19.66,7.53.66,7.53,0,0-6.12-6.22-9.4-7.97-3.28-1.75-18.59-5.03-34.24-8.97-15.4-3.87-41.99-11.77-42.82-12.02l13.44,10.61-13.45-7.78Z"/><polygon class="cls-57" points="395.62 358.75 347.55 325.52 358.78 334.7 347.53 328.35 348.95 343.28 393.42 374.01 395.62 358.75"/><path class="cls-54" d="m434.02,354.47l25.66,22.73s4.12,4.54,5.54,9.01c0,0,4.84-7.47,8.78-9.76l-40.64-29.51s-1.09,1.94.66,7.53Z"/><path class="cls-56" d="m393.42,374.01l61.48,11.47,2.73,2.72v3.64c4.44-3.13,15.6.15,15.6.15l-.3-5.77,62.24-33.56-.11-10.87c-9.28,9.26-55.85,30.93-61.06,34.67-5.2,3.75-8.78,9.76-8.78,9.76,0,0-4.96-8.37-9.04-9.76-4.08-1.4-60.56-17.7-60.56-17.7l-2.2,15.26Z"/><path class="cls-147" d="m444.63,348.23l1.08-.18c.2-.03,20.58-3.61,42.79-14.61l.15-.07,37.05,10.15-.86.53c-.35.22-35.23,21.47-48.59,25.29l-.2.06-31.41-21.15Zm44.1-13.94c-19.39,9.57-37.37,13.53-41.83,14.42l29.29,19.72c12.19-3.58,41.85-21.31,47.31-24.61l-34.77-9.53Z"/><path class="cls-75" d="m515.17,344.39v2.55s-33.26,17.3-33.26,17.3h-7.91s-20.49-12.91-20.49-12.91v-2.86s19.21-4.62,34.95-12.59l3.83.25,22.88,8.26Z"/><path class="cls-49" d="m445.78,368.9l-23.13-21.96-54.85-14.01,28.7,21.54s39.07,9.4,49.28,14.43Z"/><polygon class="cls-53" points="393.42 374.01 400.2 378.17 457.63 388.2 454.91 385.48 393.42 374.01"/><path class="cls-68" d="m421.38,373.18s4.11,4.58,7.8,14.18l-2.25,1.94-8.58-1.94s-3.65-12.49-8.63-16.67l11.66,2.5Z"/><path class="cls-42" d="m454.5,378.91s5.48,7.56,6.59,16.29l-2.7,4.84-6.59-4.45s-4.09-15.56-6.35-19.3l9.05,2.61Z"/><path class="cls-50" d="m409.71,370.68l.59,6.48,1.79,3.08-.9,1.89,5.73,1.04s-2.44-8.42-7.21-12.49Z"/><path class="cls-72" d="m445.44,376.3v7.41s2.16,2.71,2.16,2.71v1.38s2.11.36,2.11.36c0,0-2.11-8.17-4.27-11.87Z"/></g><path class="cls-122" d="m347.55,325.52c.83.24,27.42,8.14,42.82,12.02,15.66,3.94,30.96,7.22,34.24,8.97,3.28,1.75,9.4,7.97,9.4,7.97,0,0-.24-.73-.49-1.77-.03-.13-.06-.25-.09-.38-.09-.41-.18-.86-.25-1.31,0-.03-.01-.07-.02-.1-.21-1.35-.27-2.78.1-3.74.05-.14.09-.23.09-.23,1.09-2.19,39.14-6.56,55.54-16.18l46.16,11.02.11,10.87h0s4.39,1.82,4.39,1.82v4.43s-63.45,31.04-63.45,31.04l-.07,4.53-15.15-.44c.07.39.14.79.19,1.18l-2.7,4.84-6.59-4.45s-.9-3.42-2.09-7.44c0,0,0,.01,0,.01l-2.11-.36-19.49-3.04c.35.82.71,1.67,1.06,2.59l-2.25,1.94-8.58-1.94s-.52-1.76-1.42-4.19l-5.73-1.04-21.92-3.42-48.2-33.54.97-3.4,6.91,1.5h0s-1.42-14.93-1.42-14.93l11.25,6.34-11.23-9.18h0Zm0-1.53c-.56,0-1.08.3-1.35.82-.34.64-.18,1.44.39,1.9l.31.26c-.07.03-.13.07-.2.11-.48.31-.74.86-.69,1.43l1.22,12.84-4.85-1.05c-.11-.02-.22-.04-.33-.04-.67,0-1.28.44-1.47,1.11l-.97,3.4c-.18.63.06,1.3.6,1.68l48.2,33.54c.19.13.41.22.64.26l21.88,3.41,4.87.88c.69,1.91,1.08,3.25,1.09,3.27.16.53.59.94,1.13,1.06l8.58,1.94c.11.03.23.04.34.04.36,0,.72-.13,1-.37l2.25-1.94c.49-.42.66-1.11.43-1.71-.01-.03-.03-.07-.04-.11l16.78,2.62,1.17.2c1.03,3.54,1.79,6.44,1.8,6.47.09.36.32.67.62.88l6.59,4.45c.26.17.55.26.86.26.12,0,.24-.01.36-.04.42-.1.77-.37.98-.74l2.7-4.84c.06-.11.11-.23.14-.35l13.43.39s.03,0,.04,0c.39,0,.77-.15,1.06-.42.3-.28.47-.67.47-1.08l.05-3.59,62.6-30.63c.53-.26.86-.79.86-1.38v-4.43c0-.62-.37-1.18-.95-1.42l-3.45-1.43-.1-9.86c0-.7-.49-1.31-1.18-1.47l-46.16-11.02c-.12-.03-.24-.04-.36-.04-.27,0-.54.07-.78.21-10.29,6.04-29.55,10.02-42.3,12.66-11.13,2.3-13.17,2.82-13.87,4.22,0,0-.06.14-.12.31-.33.87-.44,1.97-.33,3.33-2-1.82-4.43-3.87-6.18-4.8-2.48-1.32-10.3-3.2-21.12-5.81-4.35-1.05-8.85-2.13-13.47-3.29-13.72-3.45-36.04-10.01-42.56-11.94l-.21-.06c-.14-.04-.29-.06-.43-.06h0Z"/><g><circle class="cls-122" cx="439.98" cy="260.41" r="2.06"/><path class="cls-23" d="m431.67,260.41c0,4.59,3.72,8.31,8.31,8.31,4.59,0,8.31-3.72,8.31-8.31,0-4.59-3.72-8.31-8.31-8.31-4.59,0-8.31,3.72-8.31,8.31Z"/><path class="cls-13" d="m436.1,260.41c0,2.14,1.74,3.88,3.88,3.88,2.14,0,3.88-1.74,3.88-3.88s-1.74-3.88-3.88-3.88c-2.14,0-3.88,1.74-3.88,3.88Z"/></g><g><path class="cls-47" d="m409.17,328.73c0,.43.35.78.78.78s.78-.35.78-.78c0-.43-.35-.78-.78-.78s-.78.35-.78.78Z"/><path class="cls-24" d="m406.82,328.73c0,1.72,1.4,3.12,3.12,3.12s3.12-1.4,3.12-3.12c0-1.72-1.4-3.12-3.12-3.12-1.72,0-3.12,1.4-3.12,3.12Z"/><circle class="cls-11" cx="409.95" cy="328.73" r="1.46"/></g><g><circle class="cls-122" cx="380.86" cy="309.92" r="1.49"/><path class="cls-35" d="m374.84,309.92c0,3.32,2.69,6.02,6.02,6.02s6.02-2.69,6.02-6.02-2.69-6.02-6.02-6.02c-3.32,0-6.02,2.69-6.02,6.02Z"/><path class="cls-21" d="m378.05,309.92c0,1.55,1.26,2.81,2.81,2.81,1.55,0,2.81-1.26,2.81-2.81,0-1.55-1.26-2.81-2.81-2.81-1.55,0-2.81,1.26-2.81,2.81Z"/></g><g><path class="cls-47" d="m429.81,319.97c0,.82.67,1.49,1.49,1.49s1.49-.67,1.49-1.49c0-.82-.67-1.49-1.49-1.49s-1.49.67-1.49,1.49Z"/><path class="cls-3" d="m425.29,319.97c0,3.32,2.69,6.01,6.01,6.01s6.01-2.69,6.01-6.01-2.69-6.01-6.01-6.01-6.01,2.69-6.01,6.01Z"/><path class="cls-9" d="m428.49,319.97c0,1.55,1.26,2.81,2.81,2.81s2.81-1.26,2.81-2.81-1.26-2.81-2.81-2.81-2.81,1.26-2.81,2.81Z"/></g><g><path class="cls-47" d="m425.71,292.33c0,.57.46,1.03,1.03,1.03s1.03-.46,1.03-1.03c0-.57-.46-1.03-1.03-1.03s-1.03.46-1.03,1.03Z"/><path class="cls-18" d="m422.59,292.33c0,2.29,1.86,4.15,4.15,4.15,2.29,0,4.16-1.86,4.16-4.15s-1.86-4.16-4.16-4.16-4.15,1.86-4.15,4.16Z"/><path class="cls-7" d="m424.81,292.33c0,1.07.87,1.94,1.94,1.94,1.07,0,1.94-.87,1.94-1.94s-.87-1.94-1.94-1.94c-1.07,0-1.94.87-1.94,1.94Z"/></g><g><path class="cls-47" d="m395.73,296.63c0,.36.29.64.64.64s.64-.29.64-.64c0-.36-.29-.64-.64-.64s-.64.29-.64.64Z"/><circle class="cls-4" cx="396.38" cy="296.63" r="2.59"/><path class="cls-15" d="m395.17,296.63c0,.67.54,1.21,1.21,1.21s1.21-.54,1.21-1.21c0-.67-.54-1.21-1.21-1.21s-1.21.54-1.21,1.21Z"/></g><g><path class="cls-47" d="m423.54,325.03c0,.52.42.95.95.95s.95-.42.95-.95c0-.52-.42-.95-.95-.95s-.95.42-.95.95Z"/><path class="cls-2" d="m420.67,325.03c0,2.11,1.71,3.82,3.82,3.82,2.11,0,3.82-1.71,3.82-3.82,0-2.11-1.71-3.82-3.82-3.82-2.11,0-3.82,1.71-3.82,3.82Z"/><path class="cls-10" d="m422.71,325.03c0,.98.8,1.78,1.78,1.78s1.78-.8,1.78-1.78c0-.98-.8-1.78-1.78-1.78s-1.78.8-1.78,1.78Z"/></g><g><path class="cls-47" d="m415.25,327.6c0,.36.29.64.64.64s.64-.29.64-.64c0-.36-.29-.64-.64-.64s-.64.29-.64.64Z"/><circle class="cls-25" cx="415.89" cy="327.6" r="2.59"/><path class="cls-36" d="m414.68,327.6c0,.67.54,1.21,1.21,1.21s1.21-.54,1.21-1.21c0-.67-.54-1.21-1.21-1.21s-1.21.54-1.21,1.21Z"/></g><g><path class="cls-47" d="m381.08,274.91c0,.36.29.64.64.64s.64-.29.64-.64c0-.36-.29-.64-.64-.64s-.64.29-.64.64Z"/><circle class="cls-27" cx="381.72" cy="274.91" r="2.59"/><circle class="cls-22" cx="381.72" cy="274.91" r="1.21"/></g><g><circle class="cls-122" cx="425.5" cy="335.01" r=".52"/><circle class="cls-19" cx="425.5" cy="335.01" r="2.08"/><circle class="cls-12" cx="425.5" cy="335.01" r=".97"/></g></g><g><g><path class="cls-127" d="m306.23,114.16c-.14.3-.01.65.28.79.3.14.65.01.79-.28s.01-.65-.28-.79c-.3-.14-.65-.01-.79.28Z"/><path class="cls-127" d="m656.47,309.32c-.14.3-.01.65.28.79.3.14.65.01.79-.28.14-.3.01-.65-.28-.79s-.65-.01-.79.28Z"/><path class="cls-127" d="m608.98,217.85c-.14.3-.01.65.28.79.3.14.65.01.79-.28.14-.3.01-.65-.28-.79-.3-.14-.65-.01-.79.28Z"/><path class="cls-127" d="m475.58,274.92c-.22.46-.02,1.01.44,1.22.46.22,1.01.02,1.22-.44s.02-1.01-.44-1.22-1.01-.02-1.22.44Z"/><path class="cls-127" d="m514.09,344.52c-.21.45-.02,1,.43,1.21.45.21,1,.02,1.21-.43s.02-1-.43-1.21c-.45-.21-1-.02-1.21.43Z"/><path class="cls-127" d="m692.7,96.67c-.14.3-.01.65.28.79s.65.01.79-.28c.14-.3.01-.65-.28-.79s-.65-.01-.79.28Z"/><path class="cls-127" d="m604.44,172.62c-.14.3-.01.65.28.79.3.14.65.01.79-.28.14-.3.01-.65-.28-.79s-.65-.01-.79.28Z"/><path class="cls-127" d="m583.83,192.18c-.14.3-.01.65.28.79s.65.01.79-.28c.14-.3.01-.65-.28-.79-.3-.14-.65-.01-.79.28Z"/><path class="cls-127" d="m550.48,217.18c-.21.45-.02,1,.43,1.21s1,.02,1.21-.43.02-1-.43-1.21c-.45-.21-1-.02-1.21.43Z"/><path class="cls-127" d="m573.44,145.05c-.14.3-.01.65.28.79s.65.01.79-.28c.14-.3.01-.65-.28-.79-.3-.14-.65-.01-.79.28Z"/><path class="cls-128" d="m486.09,387.06c-.25.52-.02,1.15.5,1.39.52.25,1.15.02,1.39-.5.25-.52.02-1.15-.5-1.39-.52-.25-1.15-.02-1.39.5Z"/><path class="cls-128" d="m411.86,323.22c-.38.8-.03,1.76.77,2.14.8.38,1.76.03,2.14-.77.38-.8.03-1.76-.77-2.14-.8-.38-1.76-.03-2.14.77Z"/><path class="cls-128" d="m634.1,367.37c-.38.8-.03,1.76.77,2.14.8.38,1.76.03,2.14-.77.38-.8.03-1.76-.77-2.14-.8-.38-1.76-.03-2.14.77Z"/><path class="cls-128" d="m290.53,147.8c-.25.52-.02,1.15.5,1.39s1.15.02,1.39-.5c.25-.52.02-1.15-.5-1.39-.52-.25-1.15-.02-1.39.5Z"/><path class="cls-128" d="m475.44,274.95c-.25.52-.02,1.15.5,1.39.52.25,1.15.02,1.39-.5.25-.52.02-1.15-.5-1.39-.52-.25-1.15-.02-1.39.5Z"/><path class="cls-128" d="m285.31,109.7c-.25.52-.02,1.15.5,1.39.52.25,1.15.02,1.39-.5.25-.52.02-1.15-.5-1.39-.52-.25-1.15-.02-1.39.5Z"/></g><g><path class="cls-33" d="m470.63,335.85c-1.63,1.67-4.31,1.7-5.98.06-1.67-1.63-1.7-4.31-.07-5.98,1.63-1.67,4.31-1.7,5.98-.07,1.67,1.63,1.7,4.31.06,5.98Z"/><path class="cls-58" d="m639.03,251.59c-14.86,15.18-39.21,15.45-54.39.59-15.18-14.86-15.45-39.21-.59-54.39,14.86-15.18,39.21-15.45,54.39-.59,15.18,14.86,15.45,39.21.59,54.39Z"/><path class="cls-44" d="m672.7,238.69c-7.46,7.63-19.7,7.76-27.33.3-7.63-7.46-7.76-19.7-.3-27.32,7.46-7.63,19.7-7.76,27.32-.3,7.63,7.46,7.76,19.7.3,27.32Z"/><path class="cls-51" d="m402.66,86.51c-3.62,3.7-9.56,3.76-13.26.14-3.7-3.62-3.76-9.56-.14-13.26,3.62-3.7,9.56-3.76,13.26-.14,3.7,3.62,3.77,9.56.14,13.26Z"/></g></g><g><g><path class="cls-133" d="m322.32,251.29c.16-.14.18-.39.04-.56s-.39-.18-.56-.04c-.16.14-.18.39-.04.56.14.16.39.18.56.04Z"/><path class="cls-133" d="m160.15,38.66c.16-.14.18-.39.04-.56-.14-.16-.39-.18-.56-.04-.16.14-.18.39-.04.56s.39.18.56.04Z"/><path class="cls-133" d="m164.82,107.24c.16-.14.18-.39.04-.56-.14-.16-.39-.18-.56-.04-.16.14-.18.39-.04.56.14.16.39.18.56.04Z"/><path class="cls-133" d="m261.6,107.88c.25-.22.28-.61.06-.87s-.61-.28-.87-.06c-.25.22-.28.61-.06.87.22.25.61.28.87.06Z"/><path class="cls-133" d="m256.58,55.06c.25-.22.28-.6.06-.86-.22-.25-.6-.28-.86-.06-.25.22-.28.6-.06.86.22.25.6.28.86.06Z"/><path class="cls-133" d="m117.78,32.85c.16-.14.18-.39.04-.56s-.39-.18-.56-.04c-.16.14-.18.39-.04.56.14.16.39.18.56.04Z"/><path class="cls-133" d="m155.54,136.11c.16-.14.18-.39.04-.56-.14-.16-.39-.18-.56-.04-.16.14-.18.39-.04.56.14.16.39.18.56.04Z"/><path class="cls-133" d="m384.63,238.01c.16-.14.18-.39.04-.56-.14-.16-.39-.18-.56-.04s-.18.39-.04.56c.14.16.39.18.56.04Z"/><path class="cls-133" d="m173.36,129.64c.16-.14.18-.39.04-.56-.14-.16-.39-.18-.56-.04-.16.14-.18.39-.04.56.14.16.39.18.56.04Z"/><path class="cls-133" d="m200.41,123.23c.25-.22.28-.6.06-.86-.22-.25-.6-.28-.86-.06-.25.22-.28.6-.06.86.22.25.6.28.86.06Z"/><path class="cls-129" d="m285.04,36.51c.29-.25.32-.69.07-.99-.25-.29-.69-.32-.98-.07-.29.25-.32.7-.07.99.25.29.7.32.99.07Z"/><path class="cls-129" d="m313.43,95.32c.45-.39.49-1.07.1-1.52-.39-.45-1.07-.49-1.52-.1-.45.39-.49,1.07-.1,1.52.39.45,1.07.49,1.52.1Z"/><path class="cls-129" d="m189.29,9.12c.45-.39.49-1.07.1-1.51s-1.07-.49-1.51-.1c-.45.39-.49,1.07-.1,1.51.39.45,1.07.49,1.51.1Z"/><path class="cls-129" d="m340.89,234.91c.29-.25.32-.69.07-.98-.25-.29-.69-.32-.99-.07-.29.25-.32.69-.07.98.25.29.69.32.99.07Z"/><path class="cls-129" d="m118.54,36.82c.45-.39.49-1.07.1-1.52-.39-.45-1.07-.49-1.52-.1-.45.39-.49,1.07-.1,1.52.39.45,1.07.49,1.52.1Z"/><path class="cls-129" d="m261.69,107.9c.29-.25.32-.69.07-.99-.25-.29-.7-.32-.99-.07-.29.25-.32.69-.07.98.25.29.69.32.98.07Z"/><path class="cls-129" d="m333.93,259.59c.29-.25.32-.69.07-.98-.25-.29-.69-.32-.98-.07-.29.25-.32.69-.07.98.25.29.69.32.99.07Z"/></g><g><path class="cls-46" d="m155.43,78.61c13.13-5.33,28.09,1,33.41,14.13,5.33,13.13-1,28.09-14.13,33.41-13.13,5.33-28.09-1-33.41-14.13-5.33-13.13,1-28.09,14.13-33.41Z"/><path class="cls-52" d="m131.41,77.52c6.6-2.68,14.11.5,16.79,7.1,2.68,6.6-.5,14.11-7.1,16.79-6.6,2.68-14.11-.5-16.79-7.1-2.68-6.6.5-14.11,7.1-16.79Z"/><path class="cls-31" d="m255.99,242.51c3.2-1.3,6.85.24,8.14,3.44,1.3,3.2-.24,6.85-3.44,8.14-3.2,1.3-6.85-.24-8.14-3.44-1.3-3.2.24-6.85,3.44-8.14Z"/><path class="cls-69" d="m259.18,62.85c4.32-1.75,9.25.33,11,4.65,1.75,4.32-.33,9.25-4.65,11-4.32,1.75-9.25-.33-11-4.65s.33-9.25,4.65-11Z"/></g></g></g></g></g></svg>