<?xml version="1.0" encoding="UTF-8"?><svg xmlns="http://www.w3.org/2000/svg" xmlns:xlink="http://www.w3.org/1999/xlink" viewBox="0 0 139.83 319.7"><defs><style>.cls-1{fill:url(#_Áåçûìÿííûé_ãðàäèåíò_197-2);}.cls-1,.cls-2,.cls-3,.cls-4,.cls-5,.cls-6,.cls-7,.cls-8,.cls-9,.cls-10{mix-blend-mode:multiply;}.cls-1,.cls-4,.cls-5,.cls-8,.cls-11{opacity:.5;}.cls-2{opacity:.47;}.cls-2,.cls-7{fill:#9e2e46;}.cls-12{fill:url(#_Áåçûìÿííûé_ãðàäèåíò_257);}.cls-13{fill:#bca79f;}.cls-13,.cls-14,.cls-15,.cls-16,.cls-17,.cls-11{mix-blend-mode:screen;}.cls-18{isolation:isolate;}.cls-19{fill:#e28959;}.cls-14{fill:url(#_Áåçûìÿííûé_ãðàäèåíò_198-2);}.cls-14,.cls-17{opacity:.35;}.cls-3{opacity:.24;}.cls-3,.cls-15,.cls-16{fill:#838ca3;}.cls-4{fill:#a192c8;}.cls-5{fill:url(#_Áåçûìÿííûé_ãðàäèåíò_197);}.cls-20{fill:#9a90b7;}.cls-6{fill:#a192a4;opacity:.79;}.cls-21{fill:#9f0000;}.cls-7{opacity:.81;}.cls-8{fill:#a1aec8;}.cls-9{fill:url(#New_swatch_2);}.cls-15{opacity:.51;}.cls-22{fill:#bb4c3c;}.cls-16{opacity:.71;}.cls-23{fill:#a9244c;}.cls-10{fill:#9c4f79;opacity:.7;}.cls-24{fill:#e50000;}.cls-17{fill:url(#_Áåçûìÿííûé_ãðàäèåíò_198);}.cls-11{fill:#5068d5;}</style><linearGradient id="_Áåçûìÿííûé_ãðàäèåíò_198" x1="81.35" y1="299.68" x2="81.35" y2="133.51" gradientTransform="translate(14.43 -6.64) rotate(.4)" gradientUnits="userSpaceOnUse"><stop offset="0" stop-color="#d3cfd8"/><stop offset="1" stop-color="#9c8ca3"/></linearGradient><linearGradient id="_Áåçûìÿííûé_ãðàäèåíò_198-2" x1="32.91" y1="296.18" x2="32.91" y2="133.49" xlink:href="#_Áåçûìÿííûé_ãðàäèåíò_198"/><linearGradient id="New_swatch_2" x1="55.9" y1="86.06" x2="56.66" y2="105.56" gradientTransform="translate(14.43 -6.64) rotate(.4)" gradientUnits="userSpaceOnUse"><stop offset="0" stop-color="#9c8ca3"/><stop offset="1" stop-color="#d3cfd8"/></linearGradient><linearGradient id="_Áåçûìÿííûé_ãðàäèåíò_197" x1="66.19" y1="296.36" x2="102.19" y2="296.36" gradientTransform="translate(14.43 -6.64) rotate(.4)" gradientUnits="userSpaceOnUse"><stop offset="0" stop-color="#9a2caf"/><stop offset="1" stop-color="#7a1c91"/></linearGradient><linearGradient id="_Áåçûìÿííûé_ãðàäèåíò_197-2" x1="70.04" y1="708.44" x2="97.02" y2="708.44" gradientTransform="translate(-72.89 -411.58) rotate(-2.94)" xlink:href="#_Áåçûìÿííûé_ãðàäèåíò_197"/><linearGradient id="_Áåçûìÿííûé_ãðàäèåíò_257" x1="30.85" y1="105.17" x2="78.29" y2="105.17" gradientTransform="translate(14.43 -6.64) rotate(.4)" gradientUnits="userSpaceOnUse"><stop offset="0" stop-color="#82223b"/><stop offset="1" stop-color="#98193b"/></linearGradient></defs><g class="cls-18"><g id="Calque_2"><g><path class="cls-17" d="m88.42,127.42c-21.92-3.27-21.16,203.1,11.48,160.33,33.57-43.98,2.92-158.18-11.48-160.33Z"/><path class="cls-20" d="m139.82,295.68c-.09-3.16-12.89-55.66-18.95-87.34-6.06-31.68-12.44-74.25-12.73-82.37-.28-8.12-1.44-9.74-6.7-12.9-5.66-3.41-15.26-9.29-17.38-15.51-2-5.88-.85-13.37,2.19-14.05,3.04-.68-.18-6.24-.18-6.24l-37.13,6.58c4.83.35,4.85,5.87,4.8,12.6-.05,7.78-13.85,15.38-17.32,17.48-5.91,3.57-5.93,6.28-6.48,21.39-.56,15.11-7.26,63.73-14.21,91.27C7.66,258.62.14,286.83.02,288.86c-.13,2.03.42,7.95,1.97,10.28,5.71,8.61,58.11,20.45,74.51,20.56,12.33.08,57.69-11.08,60.31-13.21,2.62-2.13,3.11-7.65,3.02-10.81Zm-97.24-8.2c-39.92-36.25-2.29-158.17,11.37-160.31,20.79-3.27,16.2,185.35-11.37,160.31Zm57.32.26c-32.64,42.77-33.41-163.59-11.48-160.33,14.4,2.15,45.05,116.34,11.48,160.33Z"/><path class="cls-14" d="m53.95,127.17c20.79-3.27,16.2,185.35-11.37,160.31-39.92-36.25-2.29-158.17,11.37-160.31Z"/><path class="cls-21" d="m42.67,285.75c17.62,16,25.56-58,23.15-109.4-.81-.22-1.6-.45-2.36-.73-10.01-3.68-24.15-5.41-31.55,4.39-8.86,37.35-11.62,85.43,10.76,105.74Z"/><path class="cls-21" d="m99.7,285.53c21.61-28.31,15.63-86.79,5.13-123.17-2.03-6.51-4.48-.44-9.57,7.36-3.68,5.64-12,8.1-20.08,7.85-3.9,55.02,3.38,135.66,24.52,107.96Z"/><path class="cls-24" d="m31.92,180c-1.92,5.82,34.07.23,34.07.23l-.16-8.55s-28.87-6.97-33.91,8.32Z"/><path class="cls-24" d="m75.06,179.36l.36-6.84s16.8-2.15,20.09-11.1c3.29-8.94,6.22-14,9,.06,2.78,14.06-2.04-.54-8.55,8.23-6.51,8.77-20.91,9.65-20.91,9.65Z"/><path class="cls-11" d="m103.28,166.77c-1.46-.97-6.82-3.26-8.01-.68-1.19,2.58-5.68,9.27-10.16,10.42-4.19,1.08-8.88,2.5-7.04,2.46,4.58-.77,13.25-3,17.9-9.27,2.77-3.74,5.24-3.23,6.94-2.51,0,0,1.84.54.38-.43Z"/><path class="cls-11" d="m56.32,178.49c-6.65-1.03-11.51.8-14.29,2.3-2.03,1.1-6.49,1.31-7.4,1.45,6.67,1.31,23.43-.87,29.28-1.7,2.39-.66-.95-1.02-7.6-2.05Z"/><path class="cls-11" d="m42.03,180.79c5.39-2.21,8.77-1.36,13.77-.31,5,1.06.02,1.11-7.9,1.84-7.92.73-10.09.19-5.88-1.54Z"/><path class="cls-9" d="m58.28,83.14s4.48,13.02,3.24,15.67c-1.24,2.64,15.9-2.68,15.9-2.68,0,0-2.36-12.62,3.15-15.75,5.51-3.12-22.29,2.75-22.29,2.75Z"/><path class="cls-5" d="m80.07,284.65c8.79,16.76,13.85,28.03,28.87-2.89,15.02-30.92-2.86,24.53-13.82,26.46-10.96,1.93-20.16-33.3-15.05-23.56Z"/><path class="cls-4" d="m32.19,129.65c1.66-10.21,5.16-.95,6.78,10.4,1.62,11.35-5.93,23.14-10.3,41.38-4.37,18.24-7.27,69.12-8.36,55.84-1.1-13.27,5.69-62.45,7.97-72.93,2.28-10.48,3.54-32.42,3.91-34.69Z"/><path class="cls-4" d="m75.43,123.54c.68-4.55,2.9,18.78.79,29.02-2.11,10.24-3.24,40.22-4.29,58.39-1.05,18.17,4.26,57.55,4.28,60.54.02,2.99-6.11-18.94-5.81-62.9.3-43.95,2.82-58.37,3.99-70.27,1.16-11.89,1.04-14.78,1.04-14.78Z"/><path class="cls-4" d="m102.25,119c-6,8.42-.85,20.6,2.81,33.75,3.66,13.16,9.08,29.6,10.15,51.78,1.07,22.17,2.75-13.01-1.38-35.71-4.13-22.7-5.43-49.12-7.25-51.29-1.83-2.17-4.32,1.47-4.32,1.47Z"/><path class="cls-13" d="m31.72,134.94c.91-7.36,5.78,8.84,3.85,19.24-1.93,10.4-9.29,31.08-8.29,20.62,1-10.46,4.44-39.87,4.44-39.87Z"/><path class="cls-16" d="m103.08,141.17c-1.17-10.24,4.94-18.91,5.72-10.53.78,8.38,5.55,35.15-.17,24.95-5.73-10.19-5.55-14.42-5.55-14.42Z"/><path class="cls-1" d="m56.98,283.85c-3.79,9.57-17.73,8.79-22.81,7.07-5.08-1.73,13.99,9.26,21.91,8.29,7.91-.98,2.82-20.19.9-15.35Z"/><path class="cls-6" d="m46.85,106.93s6.16,10.83,21.82,7.55c15.65-3.28,22.92-6.57,27.27-4.87l-6.49-4.92-10.6-2.66,4.58-14.21s1.02-3.98,2.33-4.35c1.31-.37-6.88-3.01-6.88-3.01l-28.6,3.72s15.25,2.64,20.37,2.79c5.12.15,1.74,2.72-.81,3.49-2.54.77-13.4-.67-16.58-2.38l5.2,14.93-11.16,3.43-.45.48Z"/><path class="cls-12" d="m52.24,85.61s.97.96,1.02,2.48c0,0,4.24,3.08,14.04,3.15,9.8.07,16.12-3.42,16.12-3.42l.52-1.75s4.52-.99,5.54-.2c1.01.79-1.75,7.58-1.75,7.58,0,0,3.51-.39,4.19.03.68.42-1.64,7.85-1.31,9.54.33,1.69-2.44,8.78-21.68,9.33-19.24.55-22.7-6.13-21.9-7.59.8-1.46-3.22-8.48-2.31-10.05.92-1.57,5.1-1.51,5.1-1.51,0,0-1.89-5.46-1.76-6.81.12-1.35,4.19-.76,4.19-.76Z"/><path class="cls-23" d="m52.24,85.61s1.16.95,1.02,2.48c0,0,12.41,7.02,30.15-.27l.52-1.75s3.74-.95,5.23-.36-.97,5.53-9.65,8.69c-8.68,3.16-24.61-.76-28.65-4.09-4.05-3.33-3.96-5.72,1.39-4.7Z"/><path class="cls-23" d="m49.82,93.18s12.56,16.81,37.9.26c0,0,3.12-.62,4.19.03,1.07.65-10.01,11.85-24.39,11.53-14.38-.32-32.3-11.54-17.7-11.82Z"/><path class="cls-15" d="m35.84,114.3c3.96-1.27,13.33-2.46,15-1.7,1.67.75-11.04,3.15-14.61,5.72-3.57,2.57-6.17,1.8-3.95-.65,2.23-2.44,2.16-2.92,3.56-3.37Z"/><path class="cls-3" d="m82.41,116.99c14.43-.72,23.74-.69,14.02-4.3-9.72-3.61-12.68-.29-19.14,2.07-6.46,2.35-5.28,2.75,5.12,2.23Z"/><path class="cls-20" d="m27.69,52.28c4.11-4.04,23.15-9.09,41.93-9.41,18.79-.32,33.66,1.85,36.5,7.13,2.01,3.74,2,11.24-3.08,20.06-5.27,9.13-9.62,12.75-18.76,13.72-8.85.94-30.68,1.96-39.94-.92-9.26-2.88-12.16-8.11-14.96-12.96-2.68-4.64-5.9-13.46-1.69-17.61Z"/><path class="cls-8" d="m34.39,55.57s56.34,11.08,68.64-.43c0,0-8.62,18.8-16.96,22.13-8.34,3.33-26.94,4.79-41.22-.28-14.28-5.07-10.47-21.42-10.47-21.42Z"/><path class="cls-3" d="m38.9,52.24s7.74,6.69,28.62,8.08c20.88,1.39,31.47-8.1,31.47-8.1,0,0-28.9,6.49-60.08.02Z"/><path class="cls-4" d="m92.37,44.08l-.55,4.45s12.05.32,10.1,4.48c-1.95,4.16-14.51,7.02-14.51,7.02,2.44-.16,4.68-.48,6.7-.92-6.23,2.09-9.94,2.65-16.81,11.56-6.18,8.03-10.2,10.18-6.8,9.64,3.4-.54,10.3-.72,16.79-3.65,5.81-2.62,13.82-17.79,15.44-20.95,2.67-1.79,3.91-3.87,3.39-5.73-1.15-4.09-13.75-5.92-13.75-5.92Z"/><path class="cls-4" d="m50.19,69.69c-4.21-5.57-3.94-11.18-8.25-12.57,1.95.19,3.29.28,3.29.28,0,0-13.23-3.57-11.24-5.73,1.99-2.16,8.33-2.06,8.33-2.06l-.92-3s-9.83,1.97-13.71,5.67c-1.84,1.76,2.03,3,6.6,3.82-.38,2.3-1.51,11.61,4.15,16.87,6.49,6.04,18.93,7.27,22.33,7.28,3.4,0-3.65-1.38-10.58-10.56Z"/><path class="cls-10" d="m50.06,58.58s21.53,2.85,31.22,1.91c9.68-.95-8.19,19.06-13.58,19.03-5.39-.04-13.82-8.22-17.64-20.93Z"/><path class="cls-22" d="m45.05,54.28c1,.73,15.5,2.49,27.28,1.77,11.78-.72,19-2.24,21.06-3.5,2.06-1.26,9.58-21.2,10.01-23.78.43-2.58-2.18-6.51-3.18-7.48C99.22,20.34,66.65.15,62.78,0c-3.87-.15-23.22,6.55-25.08,7.45-1.86.9-4.28,8.45-4.13,10.41.15,1.95,8.04,33.91,11.48,36.42Z"/><path class="cls-19" d="m38.76,13.99c2.24-3.01.57-5.91-1.61-6.09-2.18-.18-4.51,9.7-3.34,11.21s4.96-5.12,4.96-5.12Z"/><path class="cls-7" d="m73.82,53.69c.56-7.26,4.35-10.42,12.15-15.89,7.8-5.48,9.69-7.08,12.83-10.46,3.14-3.38,3.67,2.63,2.53,7.71-1.14,5.08-8.05,16.17-14.86,18.14-6.82,1.96-12.74,1.82-12.64.51Z"/><path class="cls-2" d="m33.8,19.11c6.01-7.78,26.07,3.84,35.3,13.84,9.22,10,3.23,23.1,3.23,23.1l-27.28-1.77-11.25-35.17Z"/></g></g></g></svg>