<?xml version="1.0" encoding="UTF-8"?><svg xmlns="http://www.w3.org/2000/svg" xmlns:xlink="http://www.w3.org/1999/xlink" viewBox="0 0 143.16 144.13"><defs><style>.cls-1{fill:url(#linear-gradient-4);}.cls-1,.cls-2,.cls-3,.cls-4,.cls-5,.cls-6,.cls-7,.cls-8,.cls-9,.cls-10,.cls-11,.cls-12{fill-rule:evenodd;}.cls-13{fill:url(#_Áåçûìÿííûé_ãðàäèåíò_197-2);}.cls-13,.cls-14,.cls-4,.cls-6,.cls-15,.cls-16,.cls-17,.cls-18,.cls-19,.cls-20,.cls-21,.cls-22,.cls-23{mix-blend-mode:multiply;}.cls-13,.cls-16,.cls-17,.cls-18,.cls-21,.cls-24{opacity:.5;}.cls-14{opacity:.47;}.cls-14,.cls-20{fill:#9e2e46;}.cls-25{fill:url(#_Áåçûìÿííûé_ãðàäèåíò_257);}.cls-26{fill:#bca79f;}.cls-26,.cls-27,.cls-28,.cls-29,.cls-30,.cls-31,.cls-32,.cls-24{mix-blend-mode:screen;}.cls-33{clip-path:url(#clippath-2);}.cls-34{isolation:isolate;}.cls-2{fill:url(#_Áåçûìÿííûé_ãðàäèåíò_177);mix-blend-mode:color;opacity:.8;}.cls-3{fill:url(#linear-gradient-2);}.cls-35{fill:#e28959;}.cls-4{fill:#be4a54;}.cls-4,.cls-23,.cls-31{opacity:.7;}.cls-5{fill:url(#linear-gradient);}.cls-27{fill:url(#_Áåçûìÿííûé_ãðàäèåíò_150);opacity:.1;}.cls-28{fill:url(#_Áåçûìÿííûé_ãðàäèåíò_198-2);}.cls-28,.cls-32{opacity:.35;}.cls-6{fill:#2d4519;opacity:.25;}.cls-7{fill:url(#_Áåçûìÿííûé_ãðàäèåíò_9);}.cls-8{fill:url(#linear-gradient-6);}.cls-36{clip-path:url(#clippath-1);}.cls-15{opacity:.24;}.cls-15,.cls-29,.cls-30{fill:#838ca3;}.cls-9{fill:url(#linear-gradient-5);}.cls-16{fill:#a192c8;}.cls-17{fill:url(#_Áåçûìÿííûé_ãðàäèåíò_197);}.cls-37{fill:#9a90b7;}.cls-19{fill:#a192a4;opacity:.79;}.cls-38{clip-path:url(#clippath);}.cls-39{fill:#9f0000;}.cls-40{fill:none;}.cls-41{clip-path:url(#clippath-3);}.cls-20{opacity:.81;}.cls-21{fill:#a1aec8;}.cls-22{fill:url(#New_swatch_2);}.cls-29{opacity:.51;}.cls-42{fill:#bb4c3c;}.cls-30{opacity:.71;}.cls-43{fill:#a9244c;}.cls-23{fill:#9c4f79;}.cls-10{fill:url(#linear-gradient-7);}.cls-11{fill:url(#linear-gradient-8);}.cls-12{fill:url(#linear-gradient-3);}.cls-44{fill:#e50000;}.cls-31{fill:url(#radial-gradient);}.cls-32{fill:url(#_Áåçûìÿííûé_ãðàäèåíò_198);}.cls-24{fill:#5068d5;}</style><clipPath id="clippath"><rect class="cls-40" x="-2927.7" y="41.28" width="1939.33" height="1090.87"/></clipPath><clipPath id="clippath-1"><rect class="cls-40" x="-3523.79" y="33.74" width="4096.11" height="1105.95" transform="translate(-2951.47 1173.43) rotate(180)"/></clipPath><linearGradient id="linear-gradient" x1="10239.69" y1="862.87" x2="10236.46" y2="-15" gradientTransform="translate(8762.39) rotate(-180) scale(1 -1)" gradientUnits="userSpaceOnUse"><stop offset="0" stop-color="#a1ffbf"/><stop offset=".15" stop-color="#7bbdc7"/><stop offset=".32" stop-color="#547ad0"/><stop offset=".39" stop-color="#4661d4"/><stop offset=".88" stop-color="#5c1c7b"/><stop offset=".99" stop-color="#620c66"/></linearGradient><linearGradient id="linear-gradient-2" x1="-13929.49" y1="1209.28" x2="-14088.36" y2="252.55" gradientTransform="translate(4219.34 -51.72) rotate(3.82) scale(.29 1) skewX(-.02)" gradientUnits="userSpaceOnUse"><stop offset="0" stop-color="#dbcfc1"/><stop offset=".11" stop-color="#c7bbae"/><stop offset=".39" stop-color="#9a8c81"/><stop offset=".64" stop-color="#796b61"/><stop offset=".85" stop-color="#65564d"/><stop offset=".99" stop-color="#5e4f46"/></linearGradient><radialGradient id="radial-gradient" cx="8899.03" cy="813.23" fx="8899.03" fy="813.23" r="894.2" gradientTransform="translate(-13991.28 1173.43) scale(1.52 -1)" gradientUnits="userSpaceOnUse"><stop offset=".01" stop-color="#7739d9"/><stop offset=".28" stop-color="#56299e"/><stop offset="1" stop-color="#000"/></radialGradient><linearGradient id="_Áåçûìÿííûé_ãðàäèåíò_150" x1="10238.89" y1="572.28" x2="10222.35" y2="886.59" gradientTransform="translate(-11713.86 1173.43) scale(1 -1)" gradientUnits="userSpaceOnUse"><stop offset=".24" stop-color="#56b195"/><stop offset=".39" stop-color="#55ad94"/><stop offset=".51" stop-color="#54a491"/><stop offset=".61" stop-color="#52948c"/><stop offset=".71" stop-color="#4f7d85"/><stop offset=".8" stop-color="#4b5f7c"/><stop offset=".89" stop-color="#463a71"/><stop offset=".97" stop-color="#411064"/><stop offset="1" stop-color="#3f0060"/></linearGradient><linearGradient id="linear-gradient-3" x1="8535.49" y1="-66.24" x2="8595.02" y2="150.23" gradientTransform="translate(8762.39) rotate(-180) scale(1 -1)" gradientUnits="userSpaceOnUse"><stop offset="0" stop-color="#0f3aa8"/><stop offset=".11" stop-color="#0c359a"/><stop offset=".51" stop-color="#052469"/><stop offset=".82" stop-color="#01194c"/><stop offset=".99" stop-color="#001641"/></linearGradient><linearGradient id="linear-gradient-4" x1="9257.71" y1="327.94" x2="9257.71" y2="9.46" gradientTransform="translate(8762.39) rotate(-180) scale(1 -1)" gradientUnits="userSpaceOnUse"><stop offset="0" stop-color="#001154"/><stop offset=".22" stop-color="#000f4d"/><stop offset=".52" stop-color="#000a3a"/><stop offset=".87" stop-color="#00031b"/><stop offset=".99" stop-color="#00000f"/></linearGradient><linearGradient id="linear-gradient-5" x1="8656.06" y1="-120.72" x2="8656.06" y2="-711.3" xlink:href="#linear-gradient-4"/><linearGradient id="linear-gradient-6" x1="8767.56" y1="-18.58" x2="8662.68" y2="1334.44" gradientTransform="translate(8762.39) rotate(-180) scale(1 -1)" gradientUnits="userSpaceOnUse"><stop offset="0" stop-color="#272d6e"/><stop offset=".06" stop-color="#26266b"/><stop offset=".15" stop-color="#261366"/><stop offset=".19" stop-color="#260863"/><stop offset=".99" stop-color="#000016"/></linearGradient><linearGradient id="linear-gradient-7" x1="8628.9" y1="27.27" x2="8770.55" y2="27.27" gradientTransform="translate(8762.39) rotate(-180) scale(1 -1)" gradientUnits="userSpaceOnUse"><stop offset="0" stop-color="#20255c"/><stop offset=".32" stop-color="#1a1e57"/><stop offset=".78" stop-color="#090b4c"/><stop offset="1" stop-color="#000045"/></linearGradient><linearGradient id="linear-gradient-8" x1="8667.11" y1="50.39" x2="8748.81" y2="50.39" xlink:href="#linear-gradient-7"/><clipPath id="clippath-2"><rect class="cls-40" x="675.32" y="99.31" width="1947.32" height="1095.37"/></clipPath><clipPath id="clippath-3"><rect class="cls-40" x="342.85" y="92.75" width="2463.31" height="1108.49"/></clipPath><linearGradient id="_Áåçûìÿííûé_ãðàäèåíò_9" x1="-20.64" y1="-68.45" x2="680.98" y2="457.77" gradientUnits="userSpaceOnUse"><stop offset="0" stop-color="#250400"/><stop offset="1" stop-color="#402200"/></linearGradient><linearGradient id="_Áåçûìÿííûé_ãðàäèåíò_177" x1="535.65" y1="797.33" x2="1153.58" y2="290.25" gradientUnits="userSpaceOnUse"><stop offset="0" stop-color="#fff"/><stop offset=".25" stop-color="#fcfcfd"/><stop offset=".39" stop-color="#f4f4f7"/><stop offset=".5" stop-color="#e7e6ed"/><stop offset=".59" stop-color="#d3d3de"/><stop offset=".68" stop-color="#bab9cb"/><stop offset=".76" stop-color="#9c9ab4"/><stop offset=".84" stop-color="#777499"/><stop offset=".91" stop-color="#4d4979"/><stop offset=".98" stop-color="#1e1a56"/><stop offset="1" stop-color="#0c0748"/></linearGradient><linearGradient id="_Áåçûìÿííûé_ãðàäèåíò_198" x1="22.2" y1="202.56" x2="22.2" y2="151.2" gradientTransform="translate(58.13 -87.43) rotate(.4)" gradientUnits="userSpaceOnUse"><stop offset="0" stop-color="#d3cfd8"/><stop offset="1" stop-color="#9c8ca3"/></linearGradient><linearGradient id="_Áåçûìÿííûé_ãðàäèåíò_198-2" x1="7.23" y1="201.48" x2="7.23" y2="151.2" xlink:href="#_Áåçûìÿííûé_ãðàäèåíò_198"/><linearGradient id="New_swatch_2" x1="14.33" y1="136.54" x2="14.57" y2="142.57" gradientTransform="translate(58.13 -87.43) rotate(.4)" gradientUnits="userSpaceOnUse"><stop offset="0" stop-color="#9c8ca3"/><stop offset="1" stop-color="#d3cfd8"/></linearGradient><linearGradient id="_Áåçûìÿííûé_ãðàäèåíò_197" x1="17.52" y1="201.54" x2="28.64" y2="201.54" gradientTransform="translate(58.13 -87.43) rotate(.4)" gradientUnits="userSpaceOnUse"><stop offset="0" stop-color="#9a2caf"/><stop offset="1" stop-color="#7a1c91"/></linearGradient><linearGradient id="_Áåçûìÿííûé_ãðàäèåíò_197-2" x1="446.54" y1="-59.61" x2="454.88" y2="-59.61" gradientTransform="translate(-382.61 197.33) rotate(-2.94)" xlink:href="#_Áåçûìÿííûé_ãðàäèåíò_197"/><linearGradient id="_Áåçûìÿííûé_ãðàäèåíò_257" x1="6.59" y1="142.45" x2="21.26" y2="142.45" gradientTransform="translate(58.13 -87.43) rotate(.4)" gradientUnits="userSpaceOnUse"><stop offset="0" stop-color="#82223b"/><stop offset="1" stop-color="#98193b"/></linearGradient></defs><g class="cls-34"><g id="layer1"><g class="cls-38"><g class="cls-36"><g><polygon class="cls-5" points="572.32 847.94 -3523.79 855.32 -3523.79 28.84 572.32 21.45 572.32 847.94"/><g class="cls-18"><polygon class="cls-3" points="41.38 805.82 100.06 -115.59 115.35 -127.41 76.3 796.68 41.38 805.82"/></g></g><rect class="cls-31" x="-3523.79" y="-18.81" width="4096.11" height="1211.05" transform="translate(-2951.47 1173.43) rotate(-180)"/><rect class="cls-27" x="-3523.79" y="-18.81" width="4096.11" height="1211.05" transform="translate(-2951.47 1173.43) rotate(180)"/><g><g><path class="cls-12" d="m-357.7,66.53c3.11,6.96,6.43,10.77,6.43,10.77,0,0,59.8,32.65,76.6,32.03,16.75-.61,60.99-31.25,60.99-31.25,0,0,36.41,39.12,70.66,65.37h.04c17.2,13.23,33.92,23.23,45.14,23.31,6.8.04,16.34-.2,27.32-.78,1.84-.08,3.73-.2,5.65-.29,4.67-.25,9.58-.57,14.54-.9,1.93-.12,3.85-.25,5.78-.41,9.67-.7,19.62-1.52,29.16-2.42,4.1-.41,8.15-.82,12.04-1.23,7.05-.78,13.64-1.56,19.58-2.42,1.88-.25,3.73-.53,5.45-.78.94-.16,1.88-.29,2.74-.49,4.87-.78,8.97-1.56,12.04-2.42h.08c3.2-.82,5.28-1.68,6.1-2.5.66-.65,1.27-1.43,1.93-2.29,5.78-7.82,9.95-21.67,9.95-21.67,0,0,.7,6.1,2.7,14.13,3.36,13.35,10.36,31.95,23.92,36.25,21.67,6.84,130.63-18.02,133.82-22.24,3.2-4.18,12.58-42.11,12.58-42.11l67.22-46.49s36.33,42.68,47.64,42.27c11.31-.41,71.89-1.39,80.45-10.28,4.42-4.59,19.13-16.88,32.15-27.57,12-9.91,22.65-18.43,22.65-18.43,0,0-2.62,33.92,5.57,63.78,4.18,15.11,11.1,29.16,22.53,37.27,24.04,17,52.63,21.22,67.46,22.24,6.27.45,10.04.29,10.04.29,0,0-25.52.94-25.19,14.99.29,14.05,88.11,5.32,88.07-3.2,0-3.6-.04-6.31-.04-8.27-.04-2.7-.08-3.97-.08-3.97l80.08-9.63,12.41-90.32,15.65-113.99-428.62-25.27-71.97.41-234.58,1.43-73.61.45h-3.97l-5.12.04-8.07.04-8.64.08-164.7.98-6.27.04-42.39.25h-1.31c-79.38,57.96-71.72,104.94-62.59,125.18Z"/><path class="cls-6" d="m20.78,10.86c-2.21-3.85-4.01-7.17-5.33-9.54,1.31,2.54,3.15,6.23,5.37,10.73,11.43,23.22,31.87,67.75,31.25,88.11-.82,27.44-14.91,53.21-15.61,54.48v.04l.08-.04,8.03-4.79,12.66-7.54s8.56-65.91,44.77-78.85c0,0-19.29,2.54-37.19.78-12.7-1.27-33.14-34.16-44.03-53.37Z"/></g><g><path class="cls-1" d="m-1092.69,157.04c42.14,24.09,108.43,22.53,108.43,22.53l16.8-25.52c-.14.7-.88,4.26.65,8.68.05.2.09.37.18.57.78,2.13,2.12,4.42,4.2,6.72.42.41.78.82,1.25,1.27,4.11,3.77,10.62,7.37,20.86,9.83.55.16,1.15.25,1.85.33,1.25.16,2.77.2,4.48.2h.09c16.71-.29,102.52,90.59,232.58,63.49l.09-.04h.09l5.26-1.68c22.43-7.09,40.39-12.9,49.85-16.06l3.79-1.23,3.14-1.02.28-.08c-117.75,50.55-66.01,120.38-66.01,120.38,0,0,132.52,29.94,152.37,22.16,19.11-7.45,47.13-47.64,49.25-50.75l.14-.16v.66c0,5.86,12.18,6.02,57.6,1.68,21.83-2.09,31.99-11.59,36.51-21.42,3.83-8.4,3.65-17.04,3.14-21.59,1.2,5.49,5.26,16.75,18.79,25.68,5.08,3.36,11.49,6.39,19.62,8.64,8.08,2.25,17.91,3.77,29.73,4.01,17.03.41,46.34-3.03,80.73-9.46,9.74-1.8,19.89-3.85,30.28-6.1,96.7-21.14,187.3-138.74,192.15-181.38,2.54-22.04,3.28-40.06,3.23-54.23-.05-4.92-.18-9.38-.37-13.35-.09-2.33-.23-4.55-.37-6.55v-.08c.23.37.51.78.78,1.19.83,1.15,1.89,2.33,3.09,3.48,1.8,1.72,4.02,3.4,6.74,4.92,3.28,1.88,7.25,3.52,12.09,4.92,8.86,2.58,20.63,4.18,36.23,4.18,37.34,0,71.32-32.93,82.44-69.22,1.11-3.6,1.98-7.21,2.59-10.85,2.82-16.02.92-32.11-7.39-45.88-1.75-2.99-3.83-5.82-6.19-8.56-4.89-5.53-10.99-10.49-18.56-14.71-8.4-4.67-18.51-8.4-30.6-10.9-115.63-24.09-435.42-33.42-484.81-31.87-35.64,1.11-59.68,30.39-70.3,46.57.18-5.41-4.89-11.47-25.48-14.71-42.14-6.59-77.09-6.23-96.34,1.56-2.95,1.19-5.4,3.36-7.39,6.23-.23.33-.46.61-.65.94-.23.29-.42.61-.6.94-2.86,4.92-4.8,11.26-6.05,17.82-3,15.81-2.22,32.77-2.22,32.77,0,0-16.89-4.1-43.34-9.05-19.62-3.69-44.5-7.91-71.64-11.26h-.05c-30.37-3.81-63.61-6.59-95.55-6.59-35.03,0-68.45,3.36-94.77,12.49-15.19,5.32-30.05,13.23-44.13,22.98h-.05l-.14.12c-42.79,29.61-78.56,75.86-96.75,115.26l-.09.2-.37.86c-14.91,32.85-17.4,60.79-1.2,70.04Z"/><path class="cls-9" d="m-24.78,133.39s123.27,63.98,250.73,13.69c0,0,55.97-158.43-79.18-144.13C11.42,17.19-24.78,133.39-24.78,133.39Z"/></g><g><path class="cls-8" d="m42.39,924.19c.2,43.38-.45,82.45-1.72,117.6-3.36,92.86-11.18,158.44-19.87,204.31-.61,3.15-1.19,6.23-1.8,9.18-.33,1.39-.61,2.79-.9,4.14-3.32,15.89-6.72,29.08-9.99,39.98-3.36,11.18-6.59,19.95-9.46,26.75-6.84,16.26-11.71,21.34-11.71,21.34l4.06-.12,16.88-.57,15.77-.53,26.5-.86,23.47-.78,44.77-1.47,16.1-.53,53.25-1.76c-1.35-.82-2.74-4.46-4.14-10.57v-.04c-3.28-14.38-6.55-42.39-9.79-79.63v-.08c-6.43-73.77-12.7-183.67-18.15-294.63v-.12c-1.31-27.2-2.58-54.44-3.81-81.23-7.54-165.69-12.78-314.17-13.44-323.88-.25-4.01-1.11-8.27-2.38-12.62-.74-2.46-1.6-4.92-2.54-7.37-1.88-4.96-4.1-9.83-6.31-14.21-1.11-2.17-2.21-4.26-3.24-6.23-1.47-2.7-2.87-5.12-4.06-7.09-.41-.66-.74-1.23-1.06-1.76-.16-.29-.33-.53-.49-.78-.2-.33-.37-.61-.53-.86-.12-.16-.2-.33-.29-.49-.41-.61-.7-1.11-.94-1.47-.12-.16-.2-.29-.29-.41-.12-.2-.16-.29-.16-.29l-2.54-41.53-3.24-53.25-.2-3.36-.74-12.12-4.87-79.83-2.99-49.19-3.52-139.96-3.6-145-.04-1.19-1.8-71.4-4.63-185.68-52.27-84.71-9.83-15.93-5.24-8.48-26.75-43.3-14.17-22.98s.94,28.47,2.58,74.75c2.46,68.36,6.39,175.48,10.9,286.93C-3.73-22.09-.33,57.01,3.07,126.76c3.07,63.98,6.19,120.1,9.01,159.5.53,7.54,1.06,15.16,1.6,22.86,1.72,23.8,3.4,48.25,5.08,73.2.66,10.04,1.31,20.19,2.01,30.39,1.11,17.12,2.21,34.45,3.28,51.86.08,1.27.16,2.58.25,3.85.33,5.53.7,11.06,1.02,16.63.66,10.85,1.31,21.71,1.93,32.65.33,5.78.7,11.55,1.02,17.37.25,4.55.49,9.09.78,13.68.16,3.52.37,7.09.57,10.61.45,7.91.86,15.81,1.27,23.72.29,5.12.57,10.2.82,15.32.45,8.68.9,17.41,1.35,26.09.57,12,1.15,23.96,1.72,35.92.33,7.29.66,14.58.98,21.87.08,2.42.2,4.83.33,7.25.2,4.92.41,9.75.61,14.62.08,2.17.16,4.34.25,6.55.04.74.08,1.52.12,2.25.12,3.07.25,6.14.37,9.18.16,4.75.37,9.46.53,14.17.12,2.58.2,5.12.29,7.66.12,3.44.25,6.88.37,10.28.08,1.72.12,3.4.2,5.12.12,3.4.2,6.8.33,10.2.08,1.68.12,3.4.16,5.08.12,3.36.25,6.76.33,10.12.08,1.68.12,3.36.16,5.04s.12,3.36.16,5.04c.08,3.07.2,6.19.29,9.26.12,5.24.29,10.45.41,15.65.94,36.37,1.56,71.4,1.72,104.45Z"/><path class="cls-10" d="m-8.15-422.24l1.11,36.17L1.8-99.22l6.92,225.7,1.88,60.99,31.7,117.48,44.4,164.87s31.87,53.17,46.78,60.87c-1.88-4.96-4.1-9.83-6.31-14.21-1.06-2.21-2.17-4.3-3.24-6.23-1.47-2.7-2.87-5.12-4.06-7.09-.41-.66-.74-1.23-1.06-1.76-.16-.29-.33-.53-.49-.78-.29-.49-.57-.94-.82-1.35-.41-.61-.7-1.11-.94-1.47-.12-.16-.2-.29-.29-.41-.12-.2-.16-.29-.16-.29l-2.54-41.53c-11.43-25.85-30.35-70.33-47.76-119.97-.04-.12-.08-.2-.08-.25v-.04h-.04v-.04c-.49-1.39-.98-2.83-1.47-4.22-1.43-4.22-2.91-8.44-4.3-12.66v-.04s-.04-.12-.08-.16c-7.17-21.5-13.93-43.71-19.54-65.46-4.34-16.88-8.03-33.55-10.69-49.48v-.04c-.74-4.3-1.39-8.6-1.93-12.82-.37-2.66-.74-5.28-1.02-7.91v-.04c-1.27-10.4-2.42-30.35-3.4-56.85-.98-25.4-1.8-56.77-2.46-91.47-.04-.08-.04-.2-.04-.29-.53-28.59-.98-59.43-1.35-90.97l-.12-10.57c-.12-10.49-.25-21.05-.33-31.58-1.15-124.77-.82-250.44,1.02-286.77.16-3.89.37-6.76.61-8.48,3.15-23.92,6.72-37.44,6.72-37.44L-1.19-476.1l-.04-.04-4.92,38.3-2.01,15.61Z"/><path class="cls-11" d="m13.58-112.74C27.8,26.45,70.17,135.66,80.46,135.01c10.29-.65,14.82-47.48,14.82-47.48v88.23l-14.82,37.76L23.35-19.63l-9.77-93.11Z"/><path class="cls-4" d="m-20.32-460.82s.94,28.47,2.58,74.75c2.46,68.36,6.39,175.48,10.9,286.93C-3.73-22.09-.33,57.01,3.07,126.76c3.07,63.98,6.19,120.1,9.01,159.5l-.9,22.9-2.79,72.62-1.31,33.47-.74,19.17s7.99,17.33,17.94,34c.33,5.53.7,11.06,1.02,16.63.66,10.85,1.31,21.71,1.93,32.65.33,5.78.7,11.55,1.02,17.37.25,4.55.49,9.09.78,13.68.16,3.52.37,7.09.57,10.61.45,7.91.86,15.81,1.27,23.72.29,5.12.57,10.2.82,15.32.45,8.68.9,17.41,1.35,26.09.57,12,1.15,23.96,1.72,35.92.33,7.29.66,14.58.98,21.87.08,2.42.2,4.83.33,7.25.2,4.92.41,9.75.61,14.62.08,2.17.16,4.34.25,6.55.04.74.08,1.52.12,2.25.12,3.07.25,6.14.37,9.18.16,4.75.37,9.46.53,14.17.12,2.58.2,5.12.29,7.66.12,3.44.25,6.88.37,10.28.08,1.72.12,3.4.2,5.12.12,3.4.2,6.8.33,10.2.08,1.68.12,3.4.16,5.08.12,3.36.25,6.76.33,10.12.08,1.68.12,3.36.16,5.04s.12,3.36.16,5.04c.08,3.07.2,6.19.29,9.26.12,5.24.29,10.45.41,15.65v222.05c-3.36,92.86-11.18,158.44-19.87,204.31-.61,3.15-1.19,6.23-1.8,9.18,4.06-4.42,7.82-8.03,10.53-10.57,1.23-1.15,2.29-2.09,3.03-2.7.9-.86,1.43-1.27,1.43-1.27.37-2.46,25.85-181.87,28.59-229.59,2.79-48.01,4.51-144.96,4.51-144.96h11.63l-15.11-45.92,1.43-26.75,9.63-3.48,8.64,14.38,1.19,2.05c-5.08-33.96-13.31-89.17-13.56-90.81v-.04c-.33-2.46,3.73-12,3.73-12,0,0,11.88,24.54,18.39,37.03,0,.04.04.04.04.08,1.93,3.69,3.4,6.27,3.93,6.92.08.08.12.04.12-.16,0-5.08-27.77-104.7-31.13-116.66l-.33-1.15-9.67-86.18-1.43-12.82-5.69-57.59-4.96-50.26v-.04c-.04-.53-.37-5.86-.82-13.97-.41-6.88-.86-15.73-1.31-25.4-1.35-28.26-2.46-63.37-.57-74.96.29-1.72.61-2.95,1.06-3.52,1.43-1.97,4.1-.25,7.21,3.32,4.75,5.49,10.57,15.28,14.71,22.77,2.42,4.3,4.22,7.82,5,9.3-1.06-2.42-4.83-10.98-9.3-21.96v-.04s-.04-.12-.08-.16c-1.31-3.19-2.66-6.55-4.06-10.04-8.72-22.12-17.98-48.46-15.48-55.42,4.22-11.76,26.09,27.77,28.96,32.93l-31.54-73.32-.33-.78c-.04-.2-3.48-34.45-8.36-86.39-2.46-26.54-5.28-57.71-8.27-91.34-3.65-41.94-7.45-87.74-10.9-133.08C.32-224.68-6.27-346.46,1.35-373.9l11.35-12.17,7.91-8.48c3.15-23.92,6.72-37.44,6.72-37.44L-1.19-476.1l-4.96,38.26-14.17-22.98Z"/></g></g></g></g></g><g id="Calque_2"><g class="cls-33"><g class="cls-41"><g><path class="cls-7" d="m292.02,207.43c-3.56,9.71-9.85,16.54-18.05,20.93-30.2,16.2-86.15-.68-125.52-28.3-50.1-35.13-67.23-108.69-52.54-135.96,14.64-27.22,124.99-93.72,144.36-78.64,6.98,5.41,13.37,13.12,19.12,22.49,33.27,53.57,46.98,160.8,32.64,199.48Z"/><path class="cls-2" d="m1364.6,1215.87l-1.46-2.49-1.22-2.1-70.84-124.45s-8.93-11.32-15.56-16.64c-4-3.17-22.25-7.37-36.49-10.34-.2,0-.39-.05-.59-.1-.15-.05-.34-.1-.59-.2-.34-.05-.68-.15-.98-.2-.15-.05-.34-.05-.49-.1-3.9-.98-7.71-1.76-11.07-2.24-1.12-.2-2.2-.34-3.22-.44-.05-.05-.15-.05-.2-.05s-.15-.05-.2-.05c-.05-.05-.1-.05-.15-.05l-9.85-8.54s-21.66-.2-34.3-4.88c-3.51-1.32-7.32-2.88-11.17-4.88-13.46-7.02-31.71-24.44-43.56-47.52-.24-.34-.44-.83-.63-1.22-4.68-9.27-8.29-19.37-10.15-30.05-.1-.54-.49-1.02-1.07-1.37-.88-.59-2.24-.93-3.71-1.41-.59-.24-1.07-.39-1.71-.63-11.03-4.24-32.88-9.03-66.01-17.81,1.76.05,3.02.15,3.76.15-.93-.1-2.78-.29-5.42-.54-40.39-10.63-65.27-15.42-139.43-43.86-27.56-10.54-67.71-14.29-90.94-23.86-23.12-9.61-33.52-30.78-42.59-36.39.15.05.24.05.29.05-.1-.05-.2-.1-.34-.1t-.1-.05s-.1-.1-.15-.1c-.1-.05-.2-.1-.34-.15l-.05-.05s-.1-.05-.2-.15c-3.17-1.9-6.2-3.85-9.12-5.85-.29-.1-.63-.29-.98-.59-23.22-15.32-39.95-30.34-51.91-44.54-1.22-1.32-2.29-2.63-3.32-4-2.39-3.02-4.49-5.95-6.44-8.88-2.78-4.1-5.12-8.2-7.17-12.15-.2-.44-.44-.83-.63-1.32-10.54-21.32-10.78-39.86-7.95-53.76.93-4.39,2.2-8.39,3.51-11.76t-.15-.1c.05-.15.15-.29.2-.44.24-.83.63-1.61.98-2.29,16.78,19.66,40.1,35.76,40.1,35.76l-5.32-49.66c14.83,13.17,32.59,20.98,47.42,25.42,17.51,5.46,30.98,6.34,30.98,6.34,0,0,2.63-40.25-12.98-74.49v-.05l.05-.05-.68-1.32c-.1-.24-.24-.49-.34-.73l-2.24-4.39s-.05-.15-.1-.2l-17.46-34.49c16.54,1.9,39.61,1.12,56.2-13.27,8.59-7.46,13.56-13.22,16.29-17.56,9.71-2.49,17.42-2.73,23.47-1.71,2.2,23.66,8.59,46.35,8.59,46.35,0,0,50.59-36.1,74.69-94.06,5.85-5.17,13.03-10.93,21.81-16.93-1.22,9.37-.1,15.27-.1,15.27,0,0,92.5-18.2,154.94-130.3,0,0-80.64,19.71-121.43,56.49-10.15,9.12-17.27,18.29-22.29,26.93l-20.98,1.76c.68-7.22.88-14.59.39-22.2,0,0-4.59,3.07-11.85,8.15-5.46,3.76-12.39,8.73-19.86,14.39-.63-1.07-1.42-2.1-2.39-3.12l12.1-22.64c1.95-3.27,3.9-6.88,5.81-10.83l-1.37-36.2s-30.88,35.56-42.44,57.03c-17.66-10.39-3.51-57.86,12.39-97.62,27.51,5.12,110.79-12.44,102.16-96.74l-7.37-8.49c21.9-13.22,43.71-30.69,63.37-53.42,85.52-98.79,27.71-203.78,27.71-203.78l-70.3,32.59c-22,.88-42.25,5.17-60.59,11.9l-83.13.98c1.12-8.24,1.61-16.59,1.27-25.12,0,0-157.77-3.56-189.77,27.32l-15.86.2c-.78-4.34-1.61-8.73-2.49-13.27,0,0-9.81,5.22-24.15,13.61l-62.45.68-93.76,1.07c.59-14.64.88-30.2.73-46.83l-60.1,4.63c-9.42-34.54-20.73-60.49-32.25-59.76-33.08,2-63.96,57.32-63.96,57.32-2.59,3.51-4.98,6.98-7.17,10.39l-66.84,5.17c-5.76-9.37-12.15-17.07-19.12-22.49-19.37-15.08-129.72,51.42-144.36,78.64-14.68,27.27,2.44,100.84,52.54,135.96,39.37,27.61,95.33,44.49,125.52,28.3,3.9,2.93,7.81,5.61,11.81,8-7.17,7.17-25.17,28.83-6.1,48.83,1.46,1.56,3.27,3.17,5.32,4.78,32.34,25.12,61.03,28.05,83.96,22.34-.05,2.2-.2,4.34-.39,6.54-9.03,4.98-15.42,10.39-18,16.15-95.03,212.95,113.43,212.95,113.43,212.95,0,0,7.22-5.85,17.66-16.64,8.05,13.95,14.59,26,19.32,34.83.83,1.41,1.56,2.78,2.2,4.05.15.2.2.34.29.49.34.63.68,1.27.98,1.85.2.29.34.59.49.88.39.73.78,1.41,1.17,2.1.83,1.51,1.51,2.78,2.1,3.76,2.05,3.51,5.71,11.03,10.1,20.29.78,1.71,1.61,3.46,2.44,5.22.44.93.83,1.8,1.27,2.73.78,1.66,1.56,3.32,2.29,5.03l-4.63,4.39s3.51,2.34,9.37,5.81c1.17,2.59,2.39,5.22,3.51,7.76.24.49.49.98.68,1.46,2.15,4.68,4.2,9.27,6.15,13.51.54,1.17,1.07,2.34,1.61,3.51,1.17,2.68,2.34,5.22,3.37,7.56l.05.05c.05.1.1.24.15.34.44.93.83,1.8,1.17,2.68.05.05.1.1.1.15.39.88.78,1.71,1.12,2.54v.05c.68,1.46,1.27,2.78,1.76,3.9.2.39.34.73.49,1.07.24.54.49,1.02.63,1.46.15.29.29.59.39.83.05.1.1.15.1.2.1.29.2.49.29.63.05.15.1.24.1.24l89.47,142.5c-7.07-5.12-13.56-10.24-19.03-15.17-27.66-25.22-39.37-37.52-58.84-51.08l-.05-.05c-10.93-7.61-24.39-15.61-44.39-26.59-45.22-24.69-96.89-84.35-121.57-114.84,5.27-2.29,9.03-4.24,10.64-5.42,9.12-6.63-30.34-71.57-44.69-79.23-14.34-7.66-73.13-21.51-155.23-3.95-20.44,4.34,25.47,85.71,70.93,102.99,24.15,9.17,56.49,4.83,82.89-2.2,27.76,27.81,135.72,136.65,143.77,152.99,2.49,5.03,4.2,8.54,5.37,11.03l2.83,5.71s101.18,49.71,111.52,55.27c4.73,2.54,9.95,6.05,14.1,9.07t.05.05c4.54,3.32,7.81,6,7.81,6,0,0,6.29,26.34-25.56,1.66-17.51-13.56,12.64,15.61,12.64,15.61,0,0,18.15-5.56,34.83.68,1.56.54,3.02,1.17,4.54,1.9,1.85,1.02,4.63,2.68,7.95,4.88.2.15.49.29.78.49.05.29.1.54.2.78v.05c.24,1.22.34,1.95.34,1.95,0,0,107.28,69.42,115.04,90.89,2.83,7.81-.15,17.07-5.32,25.86-.1.2-.2.39-.34.59-3.32,5.61-7.51,10.93-11.66,15.46-1.51,1.71-3.02,3.32-4.49,4.73-5.51,5.37-10.15,8.78-11.51,8.73-.98,0-9.07.39-20.98,1.07-.05,0-.2-.05-.29,0h-.29c-.24,0-.49.05-.73.1-5.71.29-12.29.63-19.27,1.02-.54.1-1.07.1-1.66.15h-.15c-9.61.54-20.05,1.17-30.25,1.71-1.32.1-2.59.15-3.9.24-32.49,1.9-62.88,3.71-62.88,3.71l-81.03,110.4-51.67,68.87h.05l11.56.34c.15-.24.29-.39.54-.63.34-.59.78-1.17,1.27-1.81.98-1.46,2.15-3.22,3.56-5.32.39-.49.68-1.02,1.12-1.61.73-1.07,1.56-2.24,2.39-3.51.39-.63.83-1.27,1.27-1.95,1.32-2,2.73-4.15,4.24-6.39,1.51-2.2,3.07-4.59,4.73-7.07,1.12-1.76,26.35-34.82,27.57-36.68,2.39-3.71,4.98-7.56,7.61-11.51,3.9-5.95,8-12.15,12.1-18.34,2.73-4.15,5.46-8.24,8.2-12.29,2.54-3.85,5.02-7.61,7.56-11.27.59-.98,1.17-1.9,1.81-2.78,2.39-3.61,4.78-7.12,7.07-10.44.49-.83,1.07-1.66,1.66-2.49,1.61-2.44,3.22-4.78,4.68-6.98,1.46-2.15,2.93-4.2,4.24-6.1,0-.05.05-.05.05-.05.88-1.32,1.71-2.49,2.54-3.61.34-.59.73-1.22,1.17-1.71,1.12-1.56,2.15-3.02,3.07-4.24.44-.59.88-1.17,1.27-1.71s.78-.98,1.07-1.37v-.05c.29-.39.59-.73.88-1.02.2-.34.44-.59.63-.73.24-.24.44-.39.54-.34.24-.05.54-.15.83-.24s.68-.15,1.02-.24c.68-.15,1.51-.39,2.39-.59,3.56-.83,8.24-1.51,11.81,0,.88.39,1.66.93,2.39,1.61.73.68,1.37,1.56,1.8,2.63,3.41,7.46-74.5,151.52-83.82,165.96l4.05.1s83.23-154.59,104.55-176.3c1.12-1.17,2.05-2,2.98-2.49.59-.39,1.12-.59,1.61-.68.63-.1,1.41-.29,2.24-.49.39-.1.78-.15,1.27-.24,1.32-.34,2.88-.68,4.49-.98,5.56-1.27,12.83-2.88,21.03-4.54,2.15-.39,4.29-.78,6.54-1.12.44-.15.83-.24,1.27-.29,3.12-.59,6.34-1.07,9.51-1.51,1.17-.2,2.34-.39,3.51-.54,3.85-.54,7.85-.98,11.81-1.32,2-.2,4-.29,6-.44,1.95-.1,3.95-.24,5.9-.24,2.59-.1,5.22-.1,7.76-.05.05,0,.05.05.1,0,3.27.1,6.39.24,9.51.59h.05c3.07.34,6.05.83,8.93,1.41h.05c1.46.29,2.83.68,4.2,1.07s2.68.83,4,1.32c.1.05.2.1.34.1.2.05.39.1.59.1,9.81,1.51,24.64-28.83,52.88-33.71,29.03-4.93,19.66,45.32,17.81,49.52-.15.24-.54.54-1.27.73-9.61,3.12-67.27,2.34-107.57,27.03-.39.24-.83.54-1.27.78l-.24.15c-2.44,1.56-4.93,3.37-7.46,5.27-1.22.93-2.44,1.9-3.66,2.88-.49.39-.98.78-1.41,1.17-.88.73-1.71,1.46-2.59,2.2-2.68,2.29-5.37,4.73-8.05,7.32-1.07,1.02-2.15,2.05-3.22,3.12-1.27,1.22-2.59,2.49-3.85,3.85l-1.46,1.46c-3.12,3.22-6.2,6.54-9.27,9.9-1.37,1.61-2.83,3.17-4.24,4.73-3.46,4.05-6.93,8.15-10.29,12.2-3.32,4.1-6.63,8.15-9.76,12.15-1.17,1.46-2.24,2.88-3.37,4.29-.59.78-1.12,1.51-1.76,2.29-16.88,22-52.64,71.22-52.64,71.22l70.59,2.39,11.71.44.05-.05c4.78-14.1,78.5-120.59,94.65-137.71.78-.83,1.41-1.46,2.05-2,.2-.2.39-.34.54-.49.34-.29.73-.59,1.02-.68.24-.15.49-.24.68-.29,1.02-.15,2.1-.34,3.17-.59,8.93-1.81,21.12-4.54,30.59,6.34,4,4.63-1.32,25.32-8.59,47.47-1.07,3.27-2.2,6.54-3.32,9.76-1.07,3.07-26.1,37.31-27.23,40.29-.93,2.59-1.85,5.12-2.78,7.66-.88,2.54-1.85,4.93-2.73,7.27-.88,2.39-1.66,4.59-2.49,6.78-.83,2.15-1.66,4.2-2.34,6.05-2.2,5.76-3.9,10.25-4.83,12.83l7.27.24s60.4-131.9,59.86-140.39c-.05-.54.2-1.07.54-1.61.15-.24.39-.49.68-.68.24-.24.54-.49.93-.73.68-.44,1.56-.83,2.59-1.27.98-.44,2.15-.78,3.32-1.22,1.27-.39,2.59-.73,4-1.12,1.37-.39,2.98-.73,4.49-1.07.78-.15,1.56-.34,2.39-.54,1.66-.34,3.27-.68,4.93-1.02,14.29-2.88,30.05-5.66,32.05-10.1.1-.34.24-.68.29-1.07.05-.39.1-.88.05-1.32-.05-.34-.1-.59-.1-.83-.05-.1-.05-.2-.05-.24-.15-.49-.29-.98-.54-1.51-3.37-8.2-18.98-18.39-18.98-18.39,0,0-.29.1-.78.1-.2-.15-.29-.15-.29-.15,0,0-.83.2-2.15.15-.24,0-.54-.05-.88-.1-.2.05-.39,0-.63-.05-1.85-.54-4.1-1.46-6.34-3.56-.34-.29-.63-.63-.98-.98-.54-.68-1.07-1.37-1.61-2.2-.29-.54-.54-1.02-.78-1.61-1.66-5.9,3.61-16.34,12.88-25.37,1.85-1.8,3.85-3.56,6-5.22,5.32-4.15,11.46-7.66,18.15-9.76,24.05-7.71,50.2-2.98,60.01,8.39.83.88,2.29,2.05,4.34,3.51.88.54,1.81,1.12,2.78,1.81,1.56.98,3.32,2.05,5.22,3.12,1.27.73,2.63,1.51,4.05,2.29,6.88,3.9,15.37,8.44,24.73,13.22,2.73,1.46,5.61,2.93,8.54,4.39,1.71.88,3.41,1.76,5.17,2.63,3.46,1.71,6.98,3.46,10.49,5.22,1.76.83,3.51,1.76,5.27,2.59,5.02,2.44,10.05,4.93,14.98,7.32,4.88,2.34,9.66,4.68,14.2,6.88,1.85.83,3.61,1.71,5.32,2.54,1.85.83,3.61,1.66,5.32,2.49,1.71.78,3.27,1.56,4.93,2.34,2.34,1.12,4.59,2.15,6.63,3.17,2.05.98,4,1.85,5.71,2.73,1.17.49,2.24.98,3.17,1.46,1.95.88,3.51,1.61,4.73,2.2.54.24,1.02.49,1.37.63.59.24.78.39.78.39l5.61,10.39,6.93,114.89,31.47,1.02v-.05s-.05-.24-.1-.68c0-.15-.05-.29-.05-.49-1.07-11.71-10.29-105.18-14.49-119.91-.1-.39-.2-.68-.29-.93-.05-.34-.15-.59-.24-.73-.1-.1-.19-.2-.29-.29-.15-.1-.24-.24-.34-.34-.93-.68-2.73-1.66-5.32-2.88-.73-.34-1.51-.68-2.39-1.07-1.66-.68-3.51-1.51-5.56-2.29-.63-.34-1.22-.54-1.9-.83-1.32-.54-2.68-1.12-4.1-1.66-1.12-.49-2.34-.98-3.66-1.46-14.68-5.9-34.49-13.66-53.86-22.34-.1,0-.05-.05-.1-.1t-.1-.05s-.1-.05-.2-.05c-.44-.2-.83-.39-1.22-.54-6.88-3.12-13.61-6.29-20.05-9.56-1.51-.78-3.07-1.56-4.63-2.39-.88-.49-1.85-1.02-2.73-1.41-1.22-.73-2.49-1.37-3.71-2.05-2.29-1.27-4.59-2.59-6.73-3.85-1.32-.83-2.63-1.66-3.9-2.44-.34-.2-.63-.34-.93-.59-1.56-.98-3.07-1.95-4.49-2.98-.98-.59-1.85-1.27-2.68-1.9-.83-.54-1.51-1.12-2.24-1.66-6.73-5.12-11.66-10.24-14.15-15.22-.2-.44-.44-.93-.59-1.46-.2-.34-.34-.73-.44-1.02-.05-.34-.2-.63-.29-.93-.15-.44-.15-.88-.24-1.22-.1-.54-.15-1.07-.2-1.61-.05-1.37.1-2.68.54-4l1.9-1.56c.49-.15,1.07-.34,1.71-.44.49-.1,1.02-.2,1.61-.24,5.81-.54,15.95.88,29.27,4.34,2.1.54,4.24,1.12,6.39,1.81,1.17.29,2.29.63,3.37,1.02,2.34.59,4.68,1.37,7.07,2.15,3.66,1.22,7.46,2.49,11.32,3.9,3.95,1.46,7.95,2.98,12.15,4.59,4.15,1.66,8.49,3.41,12.83,5.37,2.98,1.22,5.9,2.49,8.93,3.9,1.56.68,3.02,1.37,4.59,2.05,4.63,2.15,9.27,4.39,14.05,6.73,2.93,1.41,5.85,3.17,8.68,5.12,1.85,1.22,3.76,2.68,5.61,4.2.98.68,1.85,1.46,2.78,2.29,18.29,15.86,34.3,40.74,47.47,66.45l.73,1.41c1.27,2.59,2.59,5.17,3.76,7.76,7.22,14.83,13.32,29.61,18.44,42.83.29,1.22.68,2.44,1.12,3.71,5.81,19.03,14.1,45.71,16.83,52.74,4.39,11.32,162.8-1.12,162.8-1.12-.1-.15-.24-.29-.34-.54l3.41.15Zm-762.71-393.06c.39,3.61-57.91-17.71-89.57-47.13-2.49-2.34-4.88-4.73-7.02-7.17-35.96-41.03-129.91-141.53-129.91-141.53l-13.03-9.76c8.29-2.24,16-4.78,22.59-7.22,13.22,10.83,27.76,23.9,43.76,39.52,100.16,97.96,172.46,168.99,173.19,173.24v.05Zm3.17-171.77c3.81.15,7.42-.1,10.78-.73,15.61-3.02,33.27-15.27,47.66-28.54-1.46,10.88-1.9,24.54,1.37,38.05.2.93.44,1.8.73,2.68.34.98.68,1.9,1.07,2.93-10,19.42-17.9,27.42-24.15,27.86-.54,0-1.02.05-1.51,0-7.02-.93-20.59-18.49-35.95-42.25Zm-50.44-256.85c1.61-10.78,2.29-21.95,1.85-33.52v-.05c.15-.24.29-.49.44-.73,3.37-6.2,7.07-12.64,11.07-19.22,5.9,17.71,13.85,30.3,13.85,30.3,0,0,19.66,12.93,48.78,16.93,5.27.68,10.93,1.12,16.78,1.12,9.56,0,19.76-1.12,30.39-3.95,41.81-11.07,39.66-105.33,5.02-140.79.78.15,1.56.29,2.34.39,16.1,3.02,29.03,12.15,39.47,24.64-8.68,24.98-7.76,48.59-7.76,48.59,0,0,9.9,40.59,42.15,30.54,2.39,10.34,4.2,20.29,5.51,29.32-10.88,23.42-12.88,44.74,4.44,51.37,1.02.39,2.1.73,3.22,1.02-7.02,9.37-14.98,18.39-22.73,26.44-26.73,8.05-58.83,30.1-51.08,75.13l-2.83-1.27c-.2-1.02-.39-2.1-.59-3.12-2.88-14.2-7.46-28.34-14.78-35.12-12.29-11.37-54.49-25.76-77.42-33.03-8.49-2.63-14.34-4.34-15.07-4.54,2.34,4.34,4.68,8.44,7.02,12.44,1.37,2.49,2.78,4.88,4.2,7.22l32.05,67.42-19.12,7.07h-.05c-12.05.2-23.81,3.9-33.91,13.03l-10.29,9.71-6.1,5.81c-4.83-8.73-9.42-17.07-13.56-24.73-.05-.15-.05-.29-.1-.44-1.85-8.93.34-18.93,4.98-29.17,2.39-5.32,5.37-10.68,8.78-15.9,2.78-14.15,8.15-32.98,18.29-57.27-5.85,5.56-11.76,10.88-17.51,15.95-19.56,17.03-37.56,30-45.32,32.54-.05.05-.1.05-.15.05-.1.05-.15.1-.24.15-.15.05-.24.05-.39.05-1.02.29-2.15.15-3.41-.29-.2-.05-.39-.15-.63-.24-.1-.05-.2-.1-.29-.15-.29-.1-.59-.24-.88-.44-.24-.1-.44-.24-.68-.39,19.12-26.39,38.15-61.76,44.25-102.84ZM1199.08,13.95s-12.93-2.68-28.25-5.17c5.02-6.88,10.49-13.95,16.44-21.32,0,0-32.74-9.46-54.05-3.22-5.32,1.56-9.32,11.42-12.29,25.42-1.02,2.44-1.9,5.95-2.68,10.29-.15.83-.34,1.76-.49,2.68-.44,2.78-.88,5.85-1.22,9.12-.15,1.07-.29,2.2-.39,3.32-.24,2.24-.49,4.54-.68,6.93-.59,6.54-1.07,13.56-1.51,20.68-.05,1.41-.15,2.88-.24,4.29-.44,8.73-.78,17.47-.98,25.56-.15,3.46-.2,6.83-.29,10.05-.05,1.12-.05,2.2-.05,3.27-.05.15-.05.29,0,.44-.05.29-.05.59-.05.88-.05,2.73-.1,5.32-.15,7.66-.05,2.63-.1,4.98-.1,7.03-.05,5.02-.05,8.2-.05,8.68v.1c.24,5.42,106.84-25.81,87.03-116.69Zm-70.45,126.84l-36.2,39.17s48.44-1.9,36.2-39.17Zm-86.84,347.2s-.15.05-.24.1c-2.29.88-14.44,5.61-29.91,12-.68.29-1.41.59-2.1.88-6.78,2.83-14.15,6-21.51,9.22-1.17.49-2.34,1.02-3.46,1.51-6.34,2.83-12.64,5.71-18.54,8.59-1.12.49-2.19,1.02-3.27,1.56-13.56,6.63-24.69,12.98-28.98,17.51-.24.24-.44.44-.63.68-9.76,12.05,60.93,24.73,93.62-15.07.15-.2.29-.39.39-.54,5.9-6.88,10.54-15.86,13.17-27.51.68-2.83,1.22-5.81,1.61-8.98,0,0-.05,0-.15.05Zm-129.33,78.64c-8.29,6.98,1.46,13.27,1.46,13.27.73.29,1.46.54,2.2.73,21.61,7.27,43.76,3.51,56.3-4.34.05,0,.05-.05.1-.05,12.88-8.2-51.71-16.54-60.05-9.61Zm-102.69,49.13l26.25,73.08s12.54-44.83-26.25-73.08Zm-465.8,378.23c0,.59.05.88.1,1.07.2-.59.15-.93-.1-1.07Zm-42.54-612.06s-36.1,37.52-30.49,60.1c5.61,22.59,34.2,47.91,42.74,40.25,8.54-7.66,8.05-61.76-12.25-100.35Zm-76.89,38c-18.54,1.17-35.71,27.61-32.73,44.25,2.93,16.59,66.54,49.57,92.25,24.54,15.03-14.68-40.98-69.96-59.52-68.79Zm-117.72-142.45s26.98,30.34,56.1-14.44l-56.1,14.44Zm54.74-54.3c-23.03-27.17-79.03-21.71-79.03-21.71,0,0,19.03,44.54,53.76,52.44,34.69,7.9,25.27-30.73,25.27-30.73Z"/></g></g></g></g><g id="Calque_3"><g><path class="cls-32" d="m77.3,63.92c-6.78-1.01-6.54,62.77,3.55,49.55,10.37-13.59.9-48.89-3.55-49.55Z"/><path class="cls-37" d="m93.19,115.93c-.03-.98-3.98-17.2-5.86-26.99-1.87-9.79-3.85-22.95-3.93-25.46s-.44-3.01-2.07-3.99c-1.75-1.05-4.72-2.87-5.37-4.8-.62-1.82-.26-4.13.68-4.34.94-.21-.06-1.93-.06-1.93l-11.48,2.03c1.49.11,1.5,1.81,1.48,3.89-.02,2.4-4.28,4.75-5.35,5.4-1.83,1.1-1.83,1.94-2,6.61-.17,4.67-2.24,19.7-4.39,28.21-2.5,9.9-4.82,18.62-4.86,19.25-.04.63.13,2.46.61,3.18,1.77,2.66,17.96,6.32,23.03,6.36,3.81.03,17.83-3.43,18.64-4.08s.96-2.36.93-3.34Zm-30.06-2.53c-12.34-11.2-.71-48.89,3.51-49.55,6.43-1.01,5.01,57.29-3.51,49.55Zm17.72.08c-10.09,13.22-10.33-50.56-3.55-49.55,4.45.66,13.92,35.96,3.55,49.55Z"/><path class="cls-28" d="m66.65,63.84c6.43-1.01,5.01,57.29-3.51,49.55-12.34-11.2-.71-48.89,3.51-49.55Z"/><path class="cls-39" d="m63.16,112.86c5.45,4.95,7.9-17.93,7.16-33.81-.25-.07-.49-.14-.73-.23-3.09-1.14-7.47-1.67-9.75,1.36-2.74,11.55-3.59,26.4,3.32,32.68Z"/><path class="cls-39" d="m80.79,112.79c6.68-8.75,4.83-26.82,1.58-38.07-.63-2.01-1.39-.14-2.96,2.28-1.14,1.74-3.71,2.5-6.21,2.43-1.21,17.01,1.04,41.93,7.58,33.37Z"/><path class="cls-44" d="m59.84,80.17c-.59,1.8,10.53.07,10.53.07l-.05-2.64s-8.92-2.15-10.48,2.57Z"/><path class="cls-44" d="m73.17,79.97l.11-2.12s5.19-.67,6.21-3.43c1.02-2.76,1.92-4.33,2.78.02.86,4.35-.63-.17-2.64,2.54-2.01,2.71-6.46,2.98-6.46,2.98Z"/><path class="cls-24" d="m81.89,76.08c-.45-.3-2.11-1.01-2.48-.21-.37.8-1.76,2.87-3.14,3.22-1.3.33-2.75.77-2.18.76,1.41-.24,4.09-.93,5.53-2.87.86-1.16,1.62-1,2.15-.78,0,0,.57.17.12-.13Z"/><path class="cls-24" d="m67.38,79.71c-2.06-.32-3.56.25-4.42.71-.63.34-2,.4-2.29.45,2.06.41,7.24-.27,9.05-.53.74-.2-.29-.31-2.35-.63Z"/><path class="cls-24" d="m62.96,80.42c1.67-.68,2.71-.42,4.26-.09,1.55.33,0,.34-2.44.57-2.45.23-3.12.06-1.82-.47Z"/><path class="cls-22" d="m67.99,50.23s1.38,4.03,1,4.84c-.38.82,4.91-.83,4.91-.83,0,0-.73-3.9.97-4.87s-6.89.85-6.89.85Z"/><path class="cls-17" d="m74.72,112.52c2.72,5.18,4.28,8.66,8.92-.89,4.64-9.56-.88,7.58-4.27,8.18-3.39.6-6.23-10.29-4.65-7.28Z"/><path class="cls-16" d="m59.92,64.61c.51-3.16,1.59-.29,2.09,3.21.5,3.51-1.83,7.15-3.18,12.79-1.35,5.64-2.25,21.36-2.58,17.26-.34-4.1,1.76-19.3,2.46-22.54.7-3.24,1.1-10.02,1.21-10.72Z"/><path class="cls-16" d="m73.29,62.72c.21-1.41.9,5.8.25,8.97-.65,3.16-1,12.43-1.33,18.05-.33,5.62,1.32,17.79,1.32,18.71,0,.92-1.89-5.85-1.79-19.44.09-13.59.87-18.04,1.23-21.72.36-3.68.32-4.57.32-4.57Z"/><path class="cls-16" d="m81.58,61.32c-1.85,2.6-.26,6.37.87,10.43,1.13,4.07,2.81,9.15,3.14,16,.33,6.85.85-4.02-.43-11.04-1.28-7.02-1.68-15.18-2.24-15.85s-1.34.46-1.34.46Z"/><path class="cls-26" d="m59.77,66.24c.28-2.28,1.79,2.73,1.19,5.95-.6,3.21-2.87,9.61-2.56,6.37.31-3.23,1.37-12.32,1.37-12.32Z"/><path class="cls-30" d="m81.83,68.17c-.36-3.16,1.53-5.85,1.77-3.26.24,2.59,1.72,10.86-.05,7.71-1.77-3.15-1.71-4.46-1.71-4.46Z"/><path class="cls-13" d="m67.58,112.27c-1.17,2.96-5.48,2.72-7.05,2.18-1.57-.53,4.32,2.86,6.77,2.56s.87-6.24.28-4.74Z"/><path class="cls-19" d="m64.45,57.59s1.9,3.35,6.74,2.34c4.84-1.01,7.09-2.03,8.43-1.5l-2.01-1.52-3.28-.82,1.42-4.39s.32-1.23.72-1.34c.41-.12-2.13-.93-2.13-.93l-8.84,1.15s4.71.82,6.3.86c1.58.05.54.84-.25,1.08-.79.24-4.14-.21-5.12-.74l1.61,4.62-3.45,1.06-.14.15Z"/><path class="cls-25" d="m66.12,51s.3.3.32.77c0,0,1.31.95,4.34.97,3.03.02,4.98-1.06,4.98-1.06l.16-.54s1.4-.31,1.71-.06c.31.25-.54,2.34-.54,2.34,0,0,1.08-.12,1.29,0,.21.13-.51,2.43-.41,2.95.1.52-.75,2.71-6.7,2.88-5.95.17-7.02-1.9-6.77-2.35.25-.45-1-2.62-.71-3.11.28-.49,1.58-.47,1.58-.47,0,0-.58-1.69-.54-2.11.04-.42,1.29-.23,1.29-.23Z"/><path class="cls-43" d="m66.12,51s.36.29.32.77c0,0,3.84,2.17,9.32-.08l.16-.54s1.16-.29,1.61-.11-.3,1.71-2.98,2.68c-2.68.98-7.6-.23-8.86-1.26-1.25-1.03-1.22-1.77.43-1.45Z"/><path class="cls-43" d="m65.37,53.34s3.88,5.2,11.72.08c0,0,.96-.19,1.29,0,.33.2-3.09,3.66-7.54,3.56s-9.98-3.57-5.47-3.65Z"/><path class="cls-29" d="m61.05,59.87c1.23-.39,4.12-.76,4.64-.53.52.23-3.41.97-4.52,1.77-1.1.79-1.91.56-1.22-.2.69-.76.67-.9,1.1-1.04Z"/><path class="cls-15" d="m75.44,60.7c4.46-.22,7.34-.21,4.33-1.33-3.01-1.12-3.92-.09-5.92.64-2,.73-1.63.85,1.58.69Z"/><path class="cls-37" d="m58.53,40.7c1.27-1.25,7.15-2.81,12.96-2.91,5.81-.1,10.4.57,11.28,2.2.62,1.15.62,3.48-.95,6.2-1.63,2.82-2.97,3.94-5.8,4.24-2.74.29-9.48.61-12.34-.29-2.86-.89-3.76-2.51-4.62-4.01-.83-1.43-1.82-4.16-.52-5.44Z"/><path class="cls-21" d="m60.6,41.71s17.41,3.42,21.22-.13c0,0-2.66,5.81-5.24,6.84-2.58,1.03-8.33,1.48-12.74-.09-4.42-1.57-3.24-6.62-3.24-6.62Z"/><path class="cls-15" d="m61.99,40.68s2.39,2.07,8.84,2.5c6.45.43,9.73-2.5,9.73-2.5,0,0-8.93,2.01-18.57,0Z"/><path class="cls-16" d="m78.52,38.16l-.17,1.38s3.72.1,3.12,1.39c-.6,1.29-4.48,2.17-4.48,2.17.76-.05,1.45-.15,2.07-.28-1.93.65-3.07.82-5.2,3.57-1.91,2.48-3.15,3.15-2.1,2.98s3.18-.22,5.19-1.13c1.8-.81,4.27-5.5,4.77-6.47.83-.55,1.21-1.2,1.05-1.77-.36-1.26-4.25-1.83-4.25-1.83Z"/><path class="cls-16" d="m65.48,46.08c-1.3-1.72-1.22-3.45-2.55-3.88.6.06,1.02.09,1.02.09,0,0-4.09-1.1-3.47-1.77.61-.67,2.58-.64,2.58-.64l-.28-.93s-3.04.61-4.24,1.75c-.57.54.63.93,2.04,1.18-.12.71-.47,3.59,1.28,5.22,2.01,1.87,5.85,2.25,6.9,2.25,1.05,0-1.13-.43-3.27-3.27Z"/><path class="cls-23" d="m65.44,42.64s6.66.88,9.65.59c2.99-.29-2.53,5.89-4.2,5.88-1.67-.01-4.27-2.54-5.45-6.47Z"/><path class="cls-42" d="m63.9,41.31c.31.23,4.79.77,8.43.55s5.87-.69,6.51-1.08c.64-.39,2.96-6.55,3.09-7.35.13-.8-.67-2.01-.98-2.31-.31-.3-10.38-6.54-11.57-6.58-1.2-.05-7.18,2.02-7.75,2.3-.57.28-1.32,2.61-1.28,3.22s2.48,10.48,3.55,11.26Z"/><path class="cls-35" d="m61.95,28.86c.69-.93.18-1.83-.5-1.88-.67-.06-1.39,3-1.03,3.47s1.53-1.58,1.53-1.58Z"/><path class="cls-20" d="m72.79,41.13c.17-2.24,1.35-3.22,3.75-4.91,2.41-1.69,3-2.19,3.97-3.23.97-1.04,1.13.81.78,2.38-.35,1.57-2.49,5-4.59,5.61-2.11.61-3.94.56-3.91.16Z"/><path class="cls-14" d="m60.42,30.44c1.86-2.41,8.06,1.19,10.91,4.28,2.85,3.09,1,7.14,1,7.14l-8.43-.55-3.48-10.87Z"/></g></g></g></svg>