<?xml version="1.0" encoding="UTF-8"?><svg xmlns="http://www.w3.org/2000/svg" xmlns:xlink="http://www.w3.org/1999/xlink" viewBox="0 0 1231.71 34.68"><defs><style>.cls-1,.cls-2{fill:#fff;}.cls-2,.cls-3,.cls-4,.cls-5,.cls-6{fill-rule:evenodd;}.cls-7{isolation:isolate;}.cls-8{stroke:#fff;stroke-miterlimit:10;stroke-width:5px;}.cls-8,.cls-9{fill:none;}.cls-3{fill:url(#linear-gradient-2);}.cls-4{fill:#be4a54;mix-blend-mode:multiply;opacity:.7;}.cls-5{fill:url(#linear-gradient);}.cls-10{clip-path:url(#clippath-1);}.cls-11{clip-path:url(#clippath);}.cls-12,.cls-6{fill:#3f238e;}</style><clipPath id="clippath"><rect class="cls-9" x="-2127.06" y="426.29" width="1939.33" height="1090.87"/></clipPath><clipPath id="clippath-1"><rect class="cls-9" x="-2723.15" y="418.75" width="4096.11" height="1105.95" transform="translate(-1350.2 1943.44) rotate(180)"/></clipPath><linearGradient id="linear-gradient" x1="9568.2" y1="366.42" x2="9463.32" y2="1719.45" gradientTransform="translate(10363.67) rotate(-180) scale(1 -1)" gradientUnits="userSpaceOnUse"><stop offset="0" stop-color="#272d6e"/><stop offset=".06" stop-color="#26266b"/><stop offset=".15" stop-color="#261366"/><stop offset=".19" stop-color="#260863"/><stop offset=".99" stop-color="#000016"/></linearGradient><linearGradient id="linear-gradient-2" x1="9429.54" y1="412.28" x2="9571.19" y2="412.28" gradientTransform="translate(10363.67) rotate(-180) scale(1 -1)" gradientUnits="userSpaceOnUse"><stop offset="0" stop-color="#20255c"/><stop offset=".32" stop-color="#1a1e57"/><stop offset=".78" stop-color="#090b4c"/><stop offset="1" stop-color="#000045"/></linearGradient></defs><g class="cls-7"><g id="layer1"><g class="cls-11"><g class="cls-10"><g><path class="cls-5" d="m843.03,1309.2c.2,43.38-.45,82.45-1.72,117.6-3.36,92.86-11.18,158.44-19.87,204.31-.61,3.15-1.19,6.23-1.8,9.18-.33,1.39-.61,2.79-.9,4.14-3.32,15.89-6.72,29.08-9.99,39.98-3.36,11.18-6.59,19.95-9.46,26.75-6.84,16.26-11.71,21.34-11.71,21.34l4.06-.12,16.88-.57,15.77-.53,26.5-.86,23.47-.78,44.77-1.47,16.1-.53,53.25-1.76c-1.35-.82-2.74-4.46-4.14-10.57v-.04c-3.28-14.38-6.55-42.39-9.79-79.63v-.08c-6.43-73.77-12.7-183.67-18.15-294.63v-.12c-1.31-27.2-2.58-54.44-3.81-81.23-7.54-165.69-12.78-314.17-13.44-323.88-.25-4.01-1.11-8.27-2.38-12.62-.74-2.46-1.6-4.92-2.54-7.37-1.88-4.96-4.1-9.83-6.31-14.21-1.11-2.17-2.21-4.26-3.24-6.23-1.47-2.7-2.87-5.12-4.06-7.09-.41-.66-.74-1.23-1.06-1.76-.16-.29-.33-.53-.49-.78-.2-.33-.37-.61-.53-.86-.12-.16-.2-.33-.29-.49-.41-.61-.7-1.11-.94-1.47-.12-.16-.2-.29-.29-.41-.12-.2-.16-.29-.16-.29l-2.54-41.53-3.24-53.25-.2-3.36-.74-12.12-4.87-79.83-2.99-49.19-3.52-139.96-3.6-145-.04-1.19-1.8-71.4-4.63-185.68-52.27-84.71-9.83-15.93-5.24-8.48-26.75-43.3-14.17-22.98s.94,28.47,2.58,74.75c2.46,68.36,6.39,175.48,10.9,286.93,3.11,77.05,6.51,156.14,9.91,225.9,3.07,63.98,6.19,120.1,9.01,159.5.53,7.54,1.06,15.16,1.6,22.86,1.72,23.8,3.4,48.25,5.08,73.2.66,10.04,1.31,20.19,2.01,30.39,1.11,17.12,2.21,34.45,3.28,51.86.08,1.27.16,2.58.25,3.85.33,5.53.7,11.06,1.02,16.63.66,10.85,1.31,21.71,1.93,32.65.33,5.78.7,11.55,1.02,17.37.25,4.55.49,9.09.78,13.68.16,3.52.37,7.09.57,10.61.45,7.91.86,15.81,1.27,23.72.29,5.12.57,10.2.82,15.32.45,8.68.9,17.41,1.35,26.09.57,12,1.15,23.96,1.72,35.92.33,7.29.66,14.58.98,21.87.08,2.42.2,4.83.33,7.25.2,4.92.41,9.75.61,14.62.08,2.17.16,4.34.25,6.55.04.74.08,1.52.12,2.25.12,3.07.25,6.14.37,9.18.16,4.75.37,9.46.53,14.17.12,2.58.2,5.12.29,7.66.12,3.44.25,6.88.37,10.28.08,1.72.12,3.4.2,5.12.12,3.4.2,6.8.33,10.2.08,1.68.12,3.4.16,5.08.12,3.36.25,6.76.33,10.12.08,1.68.12,3.36.16,5.04s.12,3.36.16,5.04c.08,3.07.2,6.19.29,9.26.12,5.24.29,10.45.41,15.65.94,36.37,1.56,71.4,1.72,104.45Z"/><path class="cls-3" d="m792.48-37.23l1.11,36.17,8.85,286.85,6.92,225.7,1.88,60.99,31.7,117.48,44.4,164.87s31.87,53.17,46.78,60.87c-1.88-4.96-4.1-9.83-6.31-14.21-1.06-2.21-2.17-4.3-3.24-6.23-1.47-2.7-2.87-5.12-4.06-7.09-.41-.66-.74-1.23-1.06-1.76-.16-.29-.33-.53-.49-.78-.29-.49-.57-.94-.82-1.35-.41-.61-.7-1.11-.94-1.47-.12-.16-.2-.29-.29-.41-.12-.2-.16-.29-.16-.29l-2.54-41.53c-11.43-25.85-30.35-70.33-47.76-119.97-.04-.12-.08-.2-.08-.25v-.04h-.04v-.04c-.49-1.39-.98-2.83-1.47-4.22-1.43-4.22-2.91-8.44-4.3-12.66v-.04s-.04-.12-.08-.16c-7.17-21.5-13.93-43.71-19.54-65.46-4.34-16.88-8.03-33.55-10.69-49.48v-.04c-.74-4.3-1.39-8.6-1.93-12.82-.37-2.66-.74-5.28-1.02-7.91v-.04c-1.27-10.4-2.42-30.35-3.4-56.85-.98-25.4-1.8-56.77-2.46-91.47-.04-.08-.04-.2-.04-.29-.53-28.59-.98-59.43-1.35-90.97l-.12-10.57c-.12-10.49-.25-21.05-.33-31.58-1.15-124.77-.82-250.44,1.02-286.77.16-3.89.37-6.76.61-8.48,3.15-23.92,6.72-37.44,6.72-37.44l-28.51-44.12-.04-.04-4.92,38.3-2.01,15.61Z"/><path class="cls-4" d="m780.32-75.82s.94,28.47,2.58,74.75c2.46,68.36,6.39,175.48,10.9,286.93,3.11,77.05,6.51,156.14,9.91,225.9,3.07,63.98,6.19,120.1,9.01,159.5l-.9,22.9-2.79,72.62-1.31,33.47-.74,19.17s7.99,17.33,17.94,34c.33,5.53.7,11.06,1.02,16.63.66,10.85,1.31,21.71,1.93,32.65.33,5.78.7,11.55,1.02,17.37.25,4.55.49,9.09.78,13.68.16,3.52.37,7.09.57,10.61.45,7.91.86,15.81,1.27,23.72.29,5.12.57,10.2.82,15.32.45,8.68.9,17.41,1.35,26.09.57,12,1.15,23.96,1.72,35.92.33,7.29.66,14.58.98,21.87.08,2.42.2,4.83.33,7.25.2,4.92.41,9.75.61,14.62.08,2.17.16,4.34.25,6.55.04.74.08,1.52.12,2.25.12,3.07.25,6.14.37,9.18.16,4.75.37,9.46.53,14.17.12,2.58.2,5.12.29,7.66.12,3.44.25,6.88.37,10.28.08,1.72.12,3.4.2,5.12.12,3.4.2,6.8.33,10.2.08,1.68.12,3.4.16,5.08.12,3.36.25,6.76.33,10.12.08,1.68.12,3.36.16,5.04s.12,3.36.16,5.04c.08,3.07.2,6.19.29,9.26.12,5.24.29,10.45.41,15.65v222.05c-3.36,92.86-11.18,158.44-19.87,204.31-.61,3.15-1.19,6.23-1.8,9.18,4.06-4.42,7.82-8.03,10.53-10.57,1.23-1.15,2.29-2.09,3.03-2.7.9-.86,1.43-1.27,1.43-1.27.37-2.46,25.85-181.87,28.59-229.59,2.79-48.01,4.51-144.96,4.51-144.96h11.63l-15.11-45.92,1.43-26.75,9.63-3.48,8.64,14.38,1.19,2.05c-5.08-33.96-13.31-89.17-13.56-90.81v-.04c-.33-2.46,3.73-12,3.73-12,0,0,11.88,24.54,18.39,37.03,0,.04.04.04.04.08,1.93,3.69,3.4,6.27,3.93,6.92.08.08.12.04.12-.16,0-5.08-27.77-104.7-31.13-116.66l-.33-1.15-9.67-86.18-1.43-12.82-5.69-57.59-4.96-50.26v-.04c-.04-.53-.37-5.86-.82-13.97-.41-6.88-.86-15.73-1.31-25.4-1.35-28.26-2.46-63.37-.57-74.96.29-1.72.61-2.95,1.06-3.52,1.43-1.97,4.1-.25,7.21,3.32,4.75,5.49,10.57,15.28,14.71,22.77,2.42,4.3,4.22,7.82,5,9.3-1.06-2.42-4.83-10.98-9.3-21.96v-.04s-.04-.12-.08-.16c-1.31-3.19-2.66-6.55-4.06-10.04-8.72-22.12-17.98-48.46-15.48-55.42,4.22-11.76,26.09,27.77,28.96,32.93l-31.54-73.32-.33-.78c-.04-.2-3.48-34.45-8.36-86.39-2.46-26.54-5.28-57.71-8.27-91.34-3.65-41.94-7.45-87.74-10.9-133.08-9.54-125.42-16.14-247.2-8.52-274.64l11.35-12.17,7.91-8.48c3.15-23.92,6.72-37.44,6.72-37.44l-28.51-44.12-4.96,38.26-14.17-22.98Z"/></g></g></g></g><g id="Calque_3"><g><g><path class="cls-2" d="m1207.43,14.75v5.18h-558.56c-10.23,0-19.03,3.17-26.91,9.7l-6.1,5.05-6.1-5.05c-7.88-6.53-16.68-9.7-26.91-9.7H25.98v-5.18h556.87c10.23,0,19.03-3.17,26.91-9.7l6.1-5.05,6.1,5.05c7.88,6.53,16.68,9.7,26.91,9.7h558.56Z"/><g><g><line class="cls-8" x1="24.87" y1="17.34" x2="303.41" y2="17.34"/><g><polygon class="cls-1" points="44.1 30.15 28.92 17.34 44.1 4.53 0 17.34 44.1 30.15"/><polygon class="cls-1" points="37.86 26.43 4.85 17.34 26.6 17.34 37.86 26.43"/></g></g><g><line class="cls-8" x1="1206.83" y1="17.34" x2="928.29" y2="17.34"/><g><polygon class="cls-1" points="1187.6 4.53 1202.79 17.34 1187.6 30.15 1231.71 17.34 1187.6 4.53"/><polygon class="cls-1" points="1193.85 8.24 1226.85 17.34 1205.11 17.34 1193.85 8.24"/></g></g></g><path class="cls-6" d="m636.95,18.77c-4.71-.67-15.24-.15-21.12,6.48-.52.34-7.83-5.66-17.54-5.04,6.99,2.29,12.88,5.81,17.66,10.55,4.69-5.72,11.12-10.14,21-11.99Z"/></g><polygon class="cls-12" points="4.18 17.34 25.76 17.34 36.88 26.32 4.18 17.34"/><polygon class="cls-12" points="1227.64 17.34 1206.06 17.34 1194.94 8.36 1227.64 17.34"/></g></g></g></svg>