<?xml version="1.0" encoding="UTF-8"?><svg xmlns="http://www.w3.org/2000/svg" xmlns:xlink="http://www.w3.org/1999/xlink" viewBox="0 0 212.55 312.78"><defs><style>.cls-1{fill:url(#_Áåçûìÿííûé_ãðàäèåíò_432);}.cls-2{fill:url(#_Áåçûìÿííûé_ãðàäèåíò_212);}.cls-2,.cls-3,.cls-4,.cls-5{opacity:.5;}.cls-6{fill:url(#linear-gradient-2);}.cls-7,.cls-3,.cls-8,.cls-9,.cls-10{fill:#fff;}.cls-3,.cls-10,.cls-11{mix-blend-mode:soft-light;}.cls-12{fill:url(#_Áåçûìÿííûé_ãðàäèåíò_211-2);}.cls-13{fill:url(#_Áåçûìÿííûé_ãðàäèåíò_211-3);}.cls-14{fill:#ebc3d3;}.cls-15{isolation:isolate;}.cls-8{opacity:.32;}.cls-9{opacity:.1;}.cls-16{fill:#e47aff;opacity:.4;}.cls-16,.cls-17,.cls-18,.cls-19,.cls-4{mix-blend-mode:multiply;}.cls-20{fill:url(#linear-gradient-3);mix-blend-mode:screen;}.cls-17,.cls-18{opacity:.3;}.cls-17,.cls-4{fill:#9a376d;}.cls-18{fill:#9a3792;}.cls-21{fill:#f7a043;}.cls-19{fill:#46379a;}.cls-22{fill:#ffce78;}.cls-23{fill:url(#_Áåçûìÿííûé_ãðàäèåíò_423);}.cls-24{fill:url(#linear-gradient-5);}.cls-25{fill:#ffec81;}.cls-26{fill:url(#linear-gradient);}.cls-27{fill:#cf4602;}.cls-28{fill:#f7b768;}.cls-11{fill:#ffb192;opacity:.6;}.cls-29{fill:#f57422;}.cls-30{fill:url(#_Áåçûìÿííûé_ãðàäèåíò_211);}.cls-31{fill:url(#linear-gradient-4);}.cls-5{fill:url(#_Áåçûìÿííûé_ãðàäèåíò_212-2);}.cls-32{fill:#ffebd2;}</style><linearGradient id="_Áåçûìÿííûé_ãðàäèåíò_432" x1="88.81" y1="175.89" x2="88.81" y2="21.93" gradientTransform="translate(22.44 135.49) rotate(.92)" gradientUnits="userSpaceOnUse"><stop offset="0" stop-color="#e8e5ed"/><stop offset=".05" stop-color="#e5dde9"/><stop offset=".28" stop-color="#dabbdc"/><stop offset=".46" stop-color="#d3a6d4"/><stop offset=".59" stop-color="#d19fd1"/><stop offset=".64" stop-color="#be91c3"/><stop offset=".72" stop-color="#a47fb0"/><stop offset=".81" stop-color="#9272a2"/><stop offset=".9" stop-color="#876a9a"/><stop offset="1" stop-color="#846898"/></linearGradient><linearGradient id="_Áåçûìÿííûé_ãðàäèåíò_423" x1="46.62" y1="7.4" x2="129.75" y2="7.4" gradientTransform="translate(22.44 135.49) rotate(.92)" gradientUnits="userSpaceOnUse"><stop offset="0" stop-color="#9082a9"/><stop offset=".22" stop-color="#9385ab"/><stop offset=".42" stop-color="#9c90b2"/><stop offset=".6" stop-color="#ada2bf"/><stop offset=".79" stop-color="#c3bcd1"/><stop offset=".96" stop-color="#e1dde7"/><stop offset="1" stop-color="#e8e5ed"/></linearGradient><radialGradient id="_Áåçûìÿííûé_ãðàäèåíò_212" cx="88.74" cy="-2881" fx="88.74" fy="-2881" r="41.24" gradientTransform="translate(-60.05 5252.14) rotate(.92) scale(1 1.74)" gradientUnits="userSpaceOnUse"><stop offset="0" stop-color="#e8e5ed"/><stop offset=".14" stop-color="#e2dce3"/><stop offset=".42" stop-color="#dad1d4"/><stop offset=".66" stop-color="#d8cdd0"/><stop offset=".68" stop-color="#d4c5ce"/><stop offset=".75" stop-color="#c7abc8"/><stop offset=".83" stop-color="#be99c5"/><stop offset=".91" stop-color="#b88ec2"/><stop offset="1" stop-color="#b78bc2"/></radialGradient><radialGradient id="_Áåçûìÿííûé_ãðàäèåíò_212-2" cx="89.85" cy="22.84" fx="89.85" fy="22.84" r="14.37" gradientTransform="translate(22.44 135.49) rotate(.92)" xlink:href="#_Áåçûìÿííûé_ãðàäèåíò_212"/><linearGradient id="linear-gradient" x1="88.39" y1="160.2" x2="88.39" y2="61.7" gradientTransform="translate(22.44 135.49) rotate(.92)" gradientUnits="userSpaceOnUse"><stop offset="0" stop-color="#ffce7e"/><stop offset=".32" stop-color="#fc0"/><stop offset="1" stop-color="#f2b500"/></linearGradient><linearGradient id="linear-gradient-2" x1="85.5" y1="204.25" x2="135.12" y2="204.25" gradientUnits="userSpaceOnUse"><stop offset="0" stop-color="#ffd454"/><stop offset="1" stop-color="#ffcb52"/></linearGradient><linearGradient id="linear-gradient-3" x1="29.51" y1="-117" x2="52.52" y2="-117" gradientTransform="translate(49.71 341.68) rotate(2.46)" gradientUnits="userSpaceOnUse"><stop offset=".02" stop-color="#fec700"/><stop offset="1" stop-color="#000"/></linearGradient><linearGradient id="_Áåçûìÿííûé_ãðàäèåíò_211" x1="54.69" y1="35.79" x2="124.82" y2="35.79" gradientTransform="translate(22.44 135.49) rotate(.92)" gradientUnits="userSpaceOnUse"><stop offset="0" stop-color="#5b1833"/><stop offset="1" stop-color="#6d2948"/></linearGradient><linearGradient id="_Áåçûìÿííûé_ãðàäèåíò_211-2" x1="52.79" y1="27.52" x2="125.63" y2="27.52" xlink:href="#_Áåçûìÿííûé_ãðàäèåíò_211"/><linearGradient id="_Áåçûìÿííûé_ãðàäèåíò_211-3" x1="54" y1="48.74" x2="124.72" y2="48.74" xlink:href="#_Áåçûìÿííûé_ãðàäèåíò_211"/><linearGradient id="linear-gradient-4" x1="169.18" y1="3.17" x2="46.81" y2="125.54" gradientUnits="userSpaceOnUse"><stop offset=".03" stop-color="#ffd478"/><stop offset=".08" stop-color="#ffc765"/><stop offset=".18" stop-color="#ffb346"/><stop offset=".29" stop-color="#ffa12c"/><stop offset=".41" stop-color="#ff9418"/><stop offset=".54" stop-color="#ff8b0a"/><stop offset=".71" stop-color="#ff8502"/><stop offset="1" stop-color="#ff8400"/></linearGradient><linearGradient id="linear-gradient-5" x1="179.14" y1="-4.05" x2="30.18" y2="144.92" gradientUnits="userSpaceOnUse"><stop offset="0" stop-color="#f0a000"/><stop offset=".87" stop-color="#db4d00"/></linearGradient></defs><g class="cls-15"><g id="Calque_2"><g><g><path class="cls-1" d="m149.26,290.96c-.05.35-.11.68-.18.97-4.48,18.85-40.65,20.85-40.65,20.85,0,0-36.09-3.16-39.96-22.14-.35-1.73-.51-4.23-.49-7.33v-.1c.08-30.94,16.12-121.82,12.86-124.85l10.95,1.55c-1.46.23-2.31.36-2.31.36,4.8,5.13-17.74,105.35-12.08,122.91,5.64,17.58,55.09,17.46,61.69,5.81,6.59-11.66-8.56-121.26-7.07-128.6v-.08s8.94-.98,8.94-.98c-3.63,3.16,12.08,110.3,8.31,131.63Z"/><path class="cls-23" d="m69.91,128.17c-2.24,3.17.58,21.1,3.54,25.89,6.66,10.77,67.27,8.5,73.31,2.38,4.63-4.69,6.32-24.59,5.1-27.6-1.23-3.01-81.95-.67-81.95-.67Z"/><path class="cls-14" d="m69.91,128.17c-2.07,7.39,80.59,13.54,81.95.67,1.36-12.87-77.38-16.94-81.95-.67Z"/><path class="cls-19" d="m82.8,127.76c-1.42,5.06,55.11,7.5,56.04-1.32.93-8.82-52.91-9.84-56.04,1.32Z"/><path class="cls-17" d="m80.54,134.42c-8.35-2.17-4.75,10.71-.29,18.06,4.46,7.35,57.65,8.05,62.59-2.64,4.95-10.69.15-9.57-20.06-10.6-20.22-1.04-42.24-4.81-42.24-4.81Z"/><path class="cls-7" d="m115.59,132.4c-16.25,1.25,10.31,4.52,18.73,3.26,8.42-1.27,10.89-5.9,10.57-7.31-.32-1.41-7.85,1.48-16.12,2.86-8.27,1.37-13.18,1.2-13.18,1.2Z"/><path class="cls-7" d="m148.48,145.75c-2.68-.66-9.37,7.89-13.03,11.27-3.66,3.38,8.28,1.04,11.76-3.22,3.48-4.26,2.65-7.71,1.27-8.05Z"/><path class="cls-7" d="m71.95,126.24c-2.04,1.93.07,4.46,3.95,5.52,3.88,1.06,1.15-5.46-.31-5.94-1.46-.48-3.64.41-3.64.41Z"/><path class="cls-10" d="m89.47,160.26c-6.32-1.21-7.63-17.39-5.16-20.2,2.47-2.81,26.4,18.14,23.29,20.49-3.11,2.34-18.13-.29-18.13-.29Z"/><path class="cls-10" d="m71.07,133.43c-.93,2.02.45,13.02,2.19,17.65,1.74,4.62,4.77,5.23,5.97,5.58,1.21.34-3.79-11.3-5.34-17.02q-2.1-7.78-2.83-6.2Z"/><path class="cls-2" d="m139.08,288.98c-6.59,11.64-56.04,11.76-61.69-5.81-3.37-10.45,3.24-50.12,8.15-81.63,3.32-21.49,5.87-39.21,3.93-41.28,0,0,.85-.13,2.31-.36l19.05,2.7,21.18-2.3v.08c-.54,2.65,1.09,18.69,3.1,38.62,3.51,35.18,8.18,82.54,3.96,89.98Z"/><path class="cls-5" d="m132.01,160.3l-21.18,2.3-19.05-2.7c9.01-1.37,41.2-5.83,40.23.4Z"/><path class="cls-26" d="m139.08,288.98c-6.59,11.64-56.04,11.76-61.69-5.81-1.45-4.47-1.06-14.26.24-26.47v-.02c1.72-16.38,5.11-37.1,7.91-55.14,5.9,11.7,36.39,11.58,49.57-2.53.41,4.08.82,8.33,1.25,12.66l.02.04c.02.29.03.56.07.85,3.2,32.76,6.32,69.91,2.62,76.42Z"/><path class="cls-16" d="m81.19,226.73c-.87,22.76-.44,4.62,9.88-4.25,10.31-8.88,23.54,15.6,30.27,31.34,6.73,15.74-18.61,12.4-23.67,14.18-5.06,1.78-11.27-23.23-4.62-23.08,6.65.15,8.99,11.62,14.64,10.53,5.65-1.09-.12-18.58-6.69-22.4-6.56-3.82-10.97,3.5-12.19,16.53-1.22,13.03,5.19,32.01,12.6,36.28,7.41,4.27,31.71-15.23,35.45-17.24,3.74-2.01-12-37.06-9.53-47.53,2.47-10.47,5.79-6.07,7.25-9.46,1.45-3.39.54-12.63.54-12.63l-49.61,1.51-4.32,26.22Z"/><path class="cls-6" d="m85.54,201.54c-1.24-12.27,26.54-5.18,38.06-3.86,11.51,1.32,11.31-.71,11.51,1.32.2,2.03-11.78,13.93-26.97,14.97-15.19,1.04-22.39-10.3-22.6-12.44Z"/><path class="cls-7" d="m69.69,289.77c-1.02-2.68.7-24.17,2.7-27.55s-.47,16.82,7.78,27.72c8.25,10.89-8.77,4.32-10.48-.17Z"/><path class="cls-7" d="m137.82,299.77c-3.75-3.44,1.46-5.89,3.13-13.27,1.67-7.38-.54-24.38,1.82-25.89,2.36-1.52,7.27,21.65,4.61,30.42-2.66,8.77-8.64,9.59-9.56,8.75Z"/><path class="cls-7" d="m79.15,214.43c-1.43,1.28.25-17.78,1.68-19.04,1.43-1.27,6.62,11.62-1.68,19.04Z"/><path class="cls-4" d="m136.39,211.71c.02.29.03.56.07.85-.05-.58-.09-.9-.09-.9l.02.04Z"/><path class="cls-18" d="m139.08,288.98c-6.59,11.64-56.04,11.76-61.69-5.81-1.45-4.47-1.06-14.26.24-26.47-.06.85-3.76,25.6,4.72,31.37,8.62,5.88,41.1,11.47,54.29-.25,5.84-5.18.55-66.99-.19-75.26,3.2,32.76,6.32,69.91,2.62,76.42Z"/><path class="cls-4" d="m149.26,290.96c-.05.35-.11.68-.18.97-4.48,18.85-40.65,20.85-40.65,20.85,0,0-36.09-3.16-39.96-22.14-.35-1.73-.51-4.23-.49-7.33,1,12.68,15.45,24.37,40.5,26.12,24.41,1.72,36.09-7.41,40.78-18.48Z"/><path class="cls-7" d="m140.9,237.34c-1.83.82-.46,11.26,1.35,12.97,1.81,1.71,2.06-14.5-1.35-12.97Z"/><path class="cls-16" d="m110.04,216.96c-6.8,3.94,8.48,23.34,11.3,36.85,2.82,13.51,7.13,2.98,4.87-15.79-2.26-18.77,2.29-26.75,5.05-29.67,2.76-2.92-21.22,8.61-21.22,8.61Z"/><path class="cls-16" d="m95.14,211.46c-7.98-5.93-11.25,7.56-11.61,13.66-.36,6.1,5.02-10.09,13.81-5.16,8.79,4.93,10.98-2.55,11.55-4.32.56-1.77-7.53.44-13.74-4.18Z"/><path class="cls-3" d="m79.96,283.5c-3.12-11.61.92-23.49,4.59-23.37,3.68.12,8.23,23.12,18.2,28.26,9.96,5.15,25.19-15.68,30.85-15.4,5.66.28,4.07,10.78-.93,15.88-4.99,5.1-25.71,6.35-34.53,4.33-8.82-2.01-18.18-9.71-18.18-9.71Z"/><path class="cls-25" d="m86.69,204s7.32,7.72,18.65,8.78c11.33,1.06,26.74-9.16,26.74-9.16,0,0-15.77,13.17-27.19,12.88-11.42-.3-18.2-12.5-18.2-12.5Z"/><path class="cls-20" d="m86.73,283.41c-10.16-4.25,1.98-107.8,10.75-113.68,8.77-5.88,11.33,70.49,7.56,90.16-3.77,19.67-18.31,23.52-18.31,23.52Z"/><path class="cls-7" d="m126.79,186c-6.06,1.79-6.12,52.54.15,59.15,6.27,6.61,9.63-62.03-.15-59.15Z"/><path class="cls-7" d="m87.97,231.92c-3.34.89-3.99,14.17-.2,12.71,3.79-1.46,3.55-13.59.2-12.71Z"/><path class="cls-4" d="m81.12,165.08c2.98-3.79,11.17,17.98,28.92,20.55,17.76,2.57,25.69-7.73,28.07-13.14,2.38-5.41,2.84-13.17,2.84-13.17,0,0-31.63,5.47-60.12-.96l.29,6.72Z"/><path class="cls-7" d="m108.8,307.75c-8.19-.4,11.24-10.52,20.5-10.73,9.26-.21,9.18,12.19-20.5,10.73Z"/><path class="cls-30" d="m81.23,163.08c-5.1-.49-6.7,4.52-.87,10.38,5.82,5.86,29.3,9.94,46.52,8.04,17.22-1.9,24.42-17.13,16.99-16.54-7.43.59-58.72-1.5-62.63-1.88Z"/><path class="cls-12" d="m75.67,156.17c-3.37,3.36,3.08,14.27,35.01,15.88,31.93,1.61,36.86-11.04,37.01-12.62.16-1.58-2.16-2.14-2.16-2.14,0,0-6.41,4.38-33.07,4.4-26.66.02-36.79-5.52-36.79-5.52Z"/><path class="cls-4" d="m77.94,163.02s3.23,8.59,30.37,11.43c27.14,2.84,36.54-10.35,36.54-10.35,0,0-13.41,7.49-33.14,8.32-19.73.83-33.77-9.39-33.77-9.39Z"/><path class="cls-4" d="m75.67,156.17s17.12,8.69,37.33,10.63c20.21,1.94,33.75-10.36,33.75-10.36,0,0-13.86,2.6-39.15,4.11-25.29,1.5-31.93-4.38-31.93-4.38Z"/><path class="cls-11" d="m118.22,171.3c-5.9-.88,5.33-4.56,17.83-8.29,12.5-3.73,2.26,4.19-1.45,5.3-3.71,1.11-16.38,3-16.38,3Z"/><path class="cls-11" d="m108.24,179.31c-3.23-.8,14.15-5.38,26.3-6.81,12.15-1.43,3.59,7.64-4.67,8.51-8.25.88-20.36-1.38-21.63-1.7Z"/><path class="cls-4" d="m80.35,173.46s10.5,7.28,28.89,7.75c18.39.48,31.81-5.36,31.81-5.36,0,0-9.44,9.88-30.05,9.79-20.6-.09-30.66-12.19-30.66-12.19Z"/><path class="cls-13" d="m80.35,173.46c-10.66,2.34-3.2,15.19,27.62,22.44,30.81,7.25,39.34-12.13,38.41-15.53-.55-2-5.34-3.43-5.34-3.43l-.06,4.53s-8.24,10.8-30.83,8.78c-22.59-2.03-29.6-14.27-29.6-14.27l-.2-2.51Z"/><path class="cls-4" d="m75.76,178.37s12.55,16.14,37.93,17.8c25.38,1.66,31.48-11.06,31.48-11.06l-2.67,5.27.18,3.32s-14.78,13.24-29.12,10.73c-14.35-2.51-34.52-19.84-34.52-19.84l.08-1.02s-3.43-3.76-3.35-5.2Z"/></g><g><path class="cls-29" d="m130.41,110.45l-2.49,11.98-.22,1v.03l-.56,2.69-1.34,6.38s-.01.01-.03.01h-.01c-3.8.43-8.16.63-12.59.63-.46,0-.92,0-1.38-.01-.01.01-.03,0-.03,0-5.57-.04-11.15-.38-15.76-.93h-.01s-.07-.01-.1-.01l-3.83-5.97-.19-.29-1.1-1.73-3.93-6.13v-.03s-.31-.46-.31-.46l1.56-2.48,4.8-7.72h0s.08-.13.08-.13l1.74-2.79,5.67.53.82.07,7.55.7,3.31.31,1.31.13,2.28.21,4.51.42,1.04.1.74.07.19,5,.07,1.88,4.14-1.74,4.05-1.7Z"/><path class="cls-31" d="m16.91,55.2s3.17-23.27,22.38-31.2c19.21-7.93,26.61,5.29,25.38,18.15,0,0,17.63-26.97,47.77-38.25,30.14-11.28,51.82,3.53,51.11,23.09,0,0,11.63-3.53,18.86-1.06,7.23,2.47,3.53,9.87,3.53,9.87,0,0,10.22-2.12,17.27,1.76,7.05,3.88,1.76,16.57,1.76,16.57,0,0,7.4-2.47,7.58,10.05.18,12.51-21.33,32.26-39.83,32.26s-23.97-9.52-23.97-9.52c0,0-9.69,2.64-16.04.7-6.35-1.94-11.28-6.52-11.28-6.52,0,0-3.7,9.87-20.27,10.58-16.57.71-23.44-9.87-24.32-16.22,0,0-5.11,10.75-17.45,15.33-12.34,4.58-21.33.18-21.33.18,0,0,4.94,6.7-3.17,8.81-8.11,2.12-29.79-9.34-33.84-25.56-4.05-16.22,4.23-24.15,15.86-19.04Z"/><path class="cls-24" d="m34.88,99.79c8.11-2.12,3.17-8.81,3.17-8.81,0,0,8.99,4.41,21.33-.18,12.34-4.58,17.45-15.33,17.45-15.33.88,6.35,7.76,16.92,24.32,16.22,16.57-.7,20.27-10.58,20.27-10.58,0,0,4.94,4.58,11.28,6.52,6.35,1.94,16.04-.7,16.04-.7,0,0,5.46,9.52,23.97,9.52,10.23,0,21.37-6.04,29.27-13.55-7.13,3.98-15.29,6.21-20.54.33-9.29-10.39,15.63-25.29,27.59-28.54-1.98-1.22-4.06-.54-4.06-.54,0,0,1.87-4.54,1.89-9.01-7.37,9.78-19.4,21.55-34.67,21.7-21.8.22,3.71-22.67,16.36-31.4-1.6.17-2.61.37-2.61.37,0,0,2.12-4.25,0-7.38-2.62,6.05-7.92,13.34-17.98,21.59-27.88,22.88-10.75-9.95-2.17-23.61-1.38.33-2.24.58-2.24.58.03-.93,0-1.84-.07-2.74-3.33,6.85-10.65,14.29-25.93,19.82-34.62,12.54-71.5,22.06-70.65-5.02-1.46,1.93-2.23,3.1-2.23,3.1.37-3.82-.04-7.68-1.28-11,.95,12.62-1.16,26.95-12.82,35.43-18.62,13.54-28.86-6.03-32.65-15.97-.77,2.77-1.02,4.58-1.02,4.58-1.89-.83-3.68-1.28-5.35-1.44,3.86,3.38,8.77,10.02,14.87,22.33,10.84,21.88-2.63,19.19-16.05,12.95,8.18,7.72,19.22,12.14,24.51,10.76Z"/><path class="cls-27" d="m23.43,82.6s.53,23.71,24.68,21.77c24.15-1.94,20.97-14.98,20.97-14.98,0,0,8.81,13.87,23.97,14.16,15.16.29,28.73-12.22,28.73-12.22,0,0,8.81,8.27,21.68,5.63,0,0,32.78,7.94,44.95-9.69,12.16-17.63-92.71-26.61-92.71-26.61l-72.27,21.94Z"/><path class="cls-29" d="m26.42,82.58s6.17,19.86,24.5,19.16c18.33-.71,16.29-19.98,16.29-19.98,0,0,10.33,16.83,23.89,18.29,13.57,1.46,26.09-23.87,26.09-23.87l17.27-12.34s-14.81,23.48-4.41,29.1c10.4,5.62,24.32-6.89,24.32-6.89,0,0-7.58,10.05,10.22,10.93,17.8.88,15.16-20.45,15.16-20.45l-64.33-22.57-89.01,28.62Z"/><path class="cls-32" d="m156.41,83.64c.03.22.03.42,0,.61-.04.18-.11.33-.21.46-.08.1-.18.18-.31.25-.06.04-.11.07-.17.1-.08.03-.18.06-.26.08-.22.06-.49.08-.81.08-.79,0-1.87-.19-3.27-.6-2.06-.6-3.94-.86-5.67-.86-.38,0-.74.01-1.09.04-.31.01-.61.04-.91.08-.36.04-.72.1-1.07.18-.15.03-.32.06-.47.1-.31.07-.6.15-.89.24-.26.07-.52.17-.75.25-2.14.78-3.94,2.03-5.43,3.47-.1.1-.19.19-.29.28-.29.31-.57.61-.84.92l-.67.79h0c-.21.28-.42.56-.61.84-.11.14-.19.26-.29.4-.19.28-.38.56-.54.84l-.5.84c-.08.14-.15.26-.22.4-.5.89-.92,1.75-1.25,2.55-1,2.34-1.41,4.07-1.41,4.07,6.41-8.01,2.49.54-.14,5.84h0c-.91,1.81-1.64,3.23-1.77,3.48.26-.26.5-.5.75-.74.11-.13.24-.25.36-.35.13-.14.24-.25.35-.35,0,0,0-.01.01-.01h0c6.73-6.5,7.87-4.11,6.74,1.24,0,.01,0,.03-.01.04-.07.33-.14.67-.24,1.03-.07.31-.17.64-.25.97-.13.46-.25.92-.4,1.41-.18.61-.38,1.25-.6,1.89-.21.65-.43,1.31-.67,1.96-.24.67-.47,1.34-.72,2.01-.39,1-.78,2.02-1.16,3.01-.1.26-.21.53-.32.79l-.25.63h-.01c-.06.15-.13.32-.18.47-.29.72-.58,1.43-.88,2.12-.07.14-.13.28-.18.42-.03.1-.07.18-.11.28-.18.43-.36.85-.54,1.27-.17.42-.35.81-.52,1.18-.18.45-.36.85-.54,1.24-.07.15-.14.32-.21.47-.19.46-.39.88-.56,1.24-.1.22-.19.43-.28.63-.04.1-.1.19-.14.29h-.01c-.07.01-.13.01-.19.01t-.03.01h-.01c.04-.25.08-.5.13-.74s.08-.47.11-.71c.28-1.77.52-3.4.71-4.87.08-.56.15-1.07.22-1.59.1-.82.19-1.59.29-2.31,1.2-10.38.15-11.09-1.48-8.41-.63,1.03-1.34,2.58-2.05,4.25-.15.36-.31.75-.46,1.13-.01.04-.03.08-.06.13-.08.24-.18.47-.28.71-.08.24-.18.46-.26.7-.11.29-.22.57-.33.85-.06.17-.11.32-.17.49-.19.52-.39,1.02-.56,1.5h0c-.14.39-.28.75-.39,1.09-.11.31-.22.6-.31.88-.18.5-.32.92-.43,1.25-.01.03-.03.07-.04.1-.06.17-.1.31-.14.42l-.08.25c-.01-.25-.04-.5-.06-.74-.14-1.99-.29-3.79-.45-5.39v-.06s-.01-.07-.01-.11c-.1-1.02-.19-1.95-.29-2.81-.01-.07-.01-.13-.03-.19.01-.01.01-.03,0-.03-.07-.63-.14-1.2-.21-1.75-.07-.47-.13-.92-.18-1.34-.03-.25-.07-.49-.11-.71-.03-.22-.07-.45-.1-.65-.11-.64-.21-1.21-.32-1.71-.03-.17-.07-.33-.11-.49,0-.04,0-.07-.01-.1-1.28-5.54-2.53-2.13-3.36,1.63h0c-.33,1.55-.58,3.12-.75,4.19v.03c-.01.13-.03.24-.06.33-.01.14-.04.28-.06.39-.04.33-.07.53-.07.53-.57-1.94-1.11-3.55-1.6-4.87-.1-.26-.19-.5-.29-.74-.22-.58-.45-1.1-.65-1.56-.1-.24-.21-.45-.31-.65-3.12-6.27-4.19.85-4.57,6.09-.03.38-.06.75-.07,1.1h0c-.06.88-.08,1.66-.1,2.24,0,.13-.01.25-.01.35-.01.4-.01.67-.01.79v.07s-.01-.04-.03-.06c-.13-.26-.26-.52-.39-.77-.14-.28-.28-.54-.4-.79-.15-.31-.31-.6-.46-.89h-.01c-.1-.21-.21-.4-.31-.6-.26-.5-.52-.97-.77-1.42h0c-8.68-16.03-6.36-3.26-4.39,5.15.5,2.1.97,3.93,1.25,4.97.13.49.21.79.24.89v.04c-.28-.33-.57-.65-.86-.97-.58-.67-1.16-1.3-1.69-1.87-.36-.38-.7-.74-1.02-1.07-.49-.52-.95-.99-1.38-1.41-.84-.85-1.56-1.52-2.19-2.05-.13-.11-.24-.21-.36-.31-.11-.11-.22-.19-.33-.28-.13-.11-.25-.21-.38-.29-.24-.17-.46-.32-.65-.43-.14-.08-.25-.15-.38-.19-.08-.04-.17-.07-.24-.1-.15-.06-.29-.08-.4-.08-.1,0-.18.01-.25.06-.04.03-.08.06-.11.1-.01,0-.03.01-.04.04-.03.03-.04.06-.06.08-.03.04-.04.1-.06.15-.01.03-.01.06-.01.1-.1.52.1,1.39.45,2.45.19.57.43,1.21.71,1.88.33.82.72,1.69,1.11,2.53.04.07.07.14.1.21.36.75.72,1.5,1.09,2.2.15.31.29.6.45.88.53,1.03,1,1.95,1.35,2.59-.04,0-.07-.01-.1-.01-.21-.03-.42-.04-.61-.07h-.01c-.08-.08-.15-.15-.24-.22-2.01-1.77-3.84-3.41-5.5-4.92-.5-.46-1-.91-1.48-1.34-.01,0-.03-.01-.03-.01-.03-.04-.06-.07-.07-.08h-.01c-2.2-2.02-4.08-3.77-5.67-5.32-.28-.26-.54-.52-.81-.78-1.31-1.28-2.41-2.38-3.29-3.33-.18-.19-.35-.38-.52-.56-.08-.08-.15-.17-.24-.25-.11-.14-.24-.26-.35-.39-.61-.7-1.1-1.28-1.45-1.77-.04-.06-.07-.1-.11-.14-3.01-4.18,3.09-.99,7.24,1.43.22.13.45.26.65.39s.4.24.6.36c.7.4,1.27.75,1.64.99.1.07.18.11.25.17.13.08.21.14.25.15-.33-.49-.64-.95-.95-1.41-.45-.67-.86-1.31-1.24-1.91-.36-.6-.7-1.16-1-1.67-.4-.7-.74-1.32-1-1.89s-.49-1.07-.64-1.52h-.01c-2.26-6.11,4.86-2.16,4.86-2.16-1.03-1.67-2.03-3.22-3.01-4.64-1.07-1.59-2.12-3.02-3.12-4.33-.43-.57-.86-1.1-1.28-1.62-.84-1.03-1.66-1.96-2.44-2.8-.1-.13-.19-.24-.31-.35-.03-.01-.04-.04-.06-.06h-.01c-.22-.25-.45-.47-.67-.7s-.45-.43-.67-.64c-.18-.19-.36-.36-.54-.52-.06-.06-.13-.11-.19-.18-.29-.25-.58-.52-.86-.75-.35-.31-.7-.58-1.03-.82-.65-.5-1.3-.93-1.91-1.3-.15-.11-.31-.19-.46-.26-.15-.08-.32-.17-.49-.26-.28-.14-.54-.28-.81-.38-.19-.1-.38-.17-.56-.24-.1-.04-.18-.07-.26-.08-.11-.06-.22-.1-.33-.13-.15-.04-.29-.08-.43-.11-.26-.07-.5-.13-.74-.15-.74-.13-1.42-.15-2.05-.08-.22.01-.45.06-.65.1-.14.03-.28.06-.42.1h-.01s-.01.01-.01.01t-.03.01c-.17.04-.35.1-.52.17-.14.06-.26.11-.39.17-.03,0-.04.01-.06.01-.01.01-.03.03-.04.03-.11.04-.21.1-.32.17-.18.1-.35.21-.52.32-.15.11-.31.22-.45.33s-.28.22-.39.33c-.13.11-.24.22-.33.33-.08.08-.15.17-.22.25-.14.15-.25.31-.32.42-.04.04-.07.08-.08.11-.06.07-.08.13-.11.17-.01.03-.01.04-.03.06h-.01s0-16.59,0-16.59h.03l.77-.15h.01l6.27-1.16,6.81-1.27,15.43-2.87,10.56-1.96,12.76-2.37,4.67-.86,13.36-2.49h.01l3.19-.58s1.04.91,2.7,2.38c.17.14.32.28.5.45h.01c.29.26.6.54.92.84,1.13,1.02,2.41,2.19,3.79,3.47.36.33.74.68,1.11,1.04.5.47,1.02.96,1.53,1.46h.01c.54.53,1.1,1.07,1.64,1.6h.01c.11.13.22.24.33.35.29.28.57.56.86.85l.54.54c.93.93,1.84,1.87,2.69,2.79.36.38.71.75,1.06,1.13.38.42.75.84,1.1,1.24.36.4.71.81,1.03,1.2.15.18.29.36.43.53.19.25.39.49.58.72.26.33.5.67.72.97.15.19.29.39.42.58.07.1.14.19.19.29.26.42.5.81.7,1.17.04.1.08.18.13.25.08.17.17.33.22.49.07.17.13.32.17.46.06.17.08.32.11.47Z"/><path class="cls-28" d="m140.8,65.5c2.47-3.51,4.6-6.07,5.74-6.34,3.97-.93-21.55-12.03-21.55-12.03l-58.83,15.01,6.74,7.36-13.88,2.58v16.6s6.11-11.07,21.02,8.32c3.43.7,7.58,1.27,12.65,1.61,1.53.1,3,.12,4.41.09,1.5,2.59,2.93,5.37,4.16,8.31,0,0-.12-3.76-.18-8.6,7.21-.85,12.65-3.43,16.64-6.39.05,1.21.09,2.46.13,3.79,0,0,.46-1.96,1.17-4.82,4.99-4.11,7.38-8.59,8.02-9.95-.14,2.24-.34,4.84-.6,7.85,0,0,.54-.96,1.44-2.53.56,2.13,1.59,4.53,3.47,6.65,3.13-5.44,9.19-11.55,20.03-8.39,12.49,3.64-.97-10.17-10.59-19.13Z"/><path class="cls-22" d="m53.74,60.66c-.05.17,43.36-54.64,79.84-43.71,36.49,10.93,6.35,29.79,6.35,29.79,0,0,22.91-13.22,36.13-2.64,13.22,10.58-6.17,16.57-6.17,16.57,0,0,20.47.53,19.49,13.57-.98,13.04-21.78,5.99-21.78,5.99,0,0-10.58,13.22-26.09,10.58-15.51-2.64-14.28-17.63-14.28-17.63,0,0-8.11,19.73-34.55,17.98-26.44-1.76-28.38-9.87-28.38-9.87,0,0-2.11,12.16-11.46,11.63-9.34-.53-12.69-10.32-12.69-10.32,0,0-17.1,6.79-21.86-1.84-4.76-8.64,14.45-11.1,14.45-11.1,0,0-4.94-14.63,5.29-21.15,10.22-6.52,20.8-4.05,15.69,12.16Z"/><path class="cls-21" d="m122.22,64.19c4.5,4.74,3.64,10.22,1.32,14.83,2.63-3.23,3.71-5.84,3.71-5.84,0,0-.19,2.52.63,5.66,4.72-3.97,16.36-12.24,28.91-9.49,8.3,1.82,8.9,8.29,7.49,14.2,2.14-1.86,3.33-3.33,3.33-3.33,0,0,2.03.69,4.85,1.24-4.07-1.87-8.93-5.49-8.46-12.11.43-6.08,7.45-7.47,13.79-7.48-4.18-1.11-7.89-1.21-7.89-1.21,0,0,5.45-1.68,8.6-4.84-12.83,6.79-40.76,19.86-42.79,6.25-1.09-7.34,4.16-13.58,10.69-18.38-3.9,1.57-6.46,3.05-6.46,3.05,0,0,3.06-1.92,6.05-4.88-22.41,15.83-80.98,31.24-87.21,25.24-2.28-2.2-2.75-5.76-2.31-9.62-1.75,2.01-2.72,3.21-2.71,3.19,1.06-3.35,1.41-6.09,1.27-8.3-1.68,7.34-4.84,14.74-10.79,17-6.2,2.34-10.03-.31-12.35-3.72.35,2.39.89,4.01.89,4.01,0,0-1.08.14-2.65.46,4.39-.08,8.87.91,10.67,4.81,1.34,2.91.38,5.64-1.47,7.99.53-.19.85-.31.85-.31,0,0,.16.44.47,1.12,1.67-6.62,8.6-16.57,16.01-14.37,5.5,1.64,5.65,11.64,5.08,18.52,1.97-3.15,2.59-6.59,2.59-6.59,0,0,.29,1.19,2.13,2.76,2.18-13.25,46.24-29.89,55.77-19.85Z"/><path class="cls-28" d="m122.75,100.04s-2.24,6.18-4.44,11.51c.64,2.77,1.29,7.75,1.89,16.09,0,0,3.32-10.06,5.56-13.73.72-2.19,1.54-4.26,2.29-6-.48.46-.97.94-1.51,1.49,0,0,.8-1.53,1.79-3.52-12.12,16.62-5.58-5.85-5.58-5.85Z"/><path class="cls-28" d="m134.77,109.2c-.07.33-.14.67-.24,1.03-.07.31-.17.64-.25.97-.13.46-.25.92-.4,1.41-.18.61-.38,1.25-.6,1.89-.21.65-.43,1.31-.67,1.96-.24.67-.47,1.34-.72,2.01-.39,1-.78,2.02-1.16,3.01-.1.26-.21.53-.32.79l-.25.63c-.06.15-.13.32-.19.47-.29.72-.58,1.43-.88,2.12l-.17.42h-.01c-.03.1-.07.18-.11.28-.18.43-.36.85-.54,1.27-.17.42-.35.81-.52,1.18-.18.45-.36.85-.54,1.24-.07.15-.14.32-.21.47-.19.46-.39.88-.56,1.24-.1.22-.19.43-.28.63-.04.1-.1.19-.14.29h-.01c-.07.01-.13.01-.19.01t-.03.01c.04-.25.08-.5.11-.74.04-.24.08-.47.11-.71.28-1.77.52-3.4.71-4.87.08-.56.15-1.07.22-1.59.25-.35.5-.74.77-1.17v-.03c.19-.29.39-.6.57-.93h.01c2.09-3.62,4.55-8.95,6.49-13.3Z"/><path class="cls-28" d="m95.99,132.22s-.07-.01-.1-.01c-.21-.03-.42-.04-.61-.07h-.01c-.08-.08-.15-.15-.24-.22-2.01-1.77-3.84-3.41-5.5-4.92-.5-.46-1-.91-1.48-1.34-.01,0-.03-.01-.03-.01l-.08-.08c-2.2-2.02-4.08-3.77-5.67-5.32-.28-.26-.54-.52-.81-.78-1.31-1.28-2.41-2.38-3.29-3.33-.18-.19-.35-.38-.52-.56-.08-.08-.15-.17-.24-.25-.11-.14-.24-.26-.35-.39-.61-.7-1.1-1.28-1.45-1.77,2.7,3.24,7.21,7.7,13.94,11.53.74.42,1.5.84,2.3,1.24.24.13.47.24.72.35,0,0,0,.01.01.01l.5.25c.36.75.72,1.5,1.09,2.2.15.31.29.6.45.88.53,1.03,1,1.95,1.35,2.59Z"/><path class="cls-28" d="m114.2,117.4c-1.09-4.17-.84-19.23-.84-19.23,0,0-.88,6.32-2.2,12.66.81,1.62,1.75,4.13,2.86,7.82,0,0,.06-.5.18-1.26Z"/><path class="cls-28" d="m101.16,127.99l-10-25.34s4.89,12.56,5.42,17.85c.4,4.01-10.16-6.89-15.27-12.39.67,1.81,2.15,4.49,4.87,8.42,0,0-1.5-.96-3.41-2.08l8.42,7.47c-1.38-4.17-.21-5.43,9.97,6.06Z"/><path class="cls-28" d="m106.53,118.03c-1.28-4.06-2.22-11.67-2.22-11.67.11,4.3-.02,7.77-.27,10.58.72,1.32,1.5,2.81,2.37,4.54,0,0,.01-1.48.12-3.44Z"/><path class="cls-8" d="m143.2,8.88c3.62-2.36,6.42-4.09,7.49,1.04,1.07,5.13-9.99,17.44-13.48,16.33-3.49-1.11.02-13.48,5.99-17.38Z"/><path class="cls-8" d="m199.75,44.08c1.46-.95,2.59-1.65,3.02.42.43,2.07-4.03,7.03-5.44,6.59-1.41-.45,0-5.43,2.41-7.01Z"/><path class="cls-8" d="m174.22,28.72c2.51-1.58,4.45-2.74,5.08.53.63,3.27-7.12,11.37-9.47,10.73-2.36-.65.26-8.65,4.39-11.26Z"/><path class="cls-8" d="m142.76,3.13c1.95-.07,3.43-.08,2.65,2.15-.78,2.23-7.92,4.39-9.01,3.15-1.09-1.24,3.15-5.19,6.36-5.3Z"/><path class="cls-9" d="m85.55,26.34c-1.48,5.4-10.71,11.43-3.94,21.87,6.77,10.45-9.09-.3-6.77-10.45,2.31-10.14,12.26-17.08,10.71-11.43Z"/></g></g></g></g></svg>