<?xml version="1.0" encoding="UTF-8"?><svg xmlns="http://www.w3.org/2000/svg" xmlns:xlink="http://www.w3.org/1999/xlink" viewBox="0 0 1920 1080"><defs><style>.cls-1{fill:url(#_Áåçûìÿííûé_ãðàäèåíò_48-8);}.cls-1,.cls-2,.cls-3,.cls-4,.cls-5,.cls-6,.cls-7,.cls-8,.cls-9,.cls-10,.cls-11,.cls-12,.cls-13,.cls-14,.cls-15,.cls-16,.cls-17,.cls-18,.cls-19,.cls-20,.cls-21,.cls-22,.cls-23,.cls-24,.cls-25,.cls-26,.cls-27,.cls-28,.cls-29,.cls-30,.cls-31,.cls-32,.cls-33,.cls-34,.cls-35,.cls-36,.cls-37,.cls-38,.cls-39,.cls-40,.cls-41,.cls-42,.cls-43,.cls-44,.cls-45,.cls-46,.cls-47,.cls-48,.cls-49,.cls-50,.cls-51,.cls-52,.cls-53,.cls-54,.cls-55,.cls-56,.cls-57,.cls-58,.cls-59,.cls-60,.cls-61,.cls-62,.cls-63,.cls-64,.cls-65,.cls-66,.cls-67,.cls-68{fill-rule:evenodd;}.cls-2{fill:#8f343b;}.cls-69,.cls-22,.cls-23{fill:#2f1b3a;}.cls-3{fill:url(#_Áåçûìÿííûé_ãðàäèåíò_48-4);}.cls-4{fill:url(#_Áåçûìÿííûé_ãðàäèåíò_37);}.cls-70{fill:url(#_Áåçûìÿííûé_ãðàäèåíò_86);}.cls-5{fill:#8d3e2f;}.cls-6{fill:#b4493c;}.cls-7{fill:#e3d9d2;}.cls-71,.cls-72{fill:#ffffa4;}.cls-8{fill:#701235;}.cls-8,.cls-36,.cls-57{opacity:.76;}.cls-9{fill:#99392f;}.cls-10{fill:url(#_Áåçûìÿííûé_ãðàäèåíò_37-2);}.cls-11{fill:#a43938;}.cls-12,.cls-14{fill:#fff;}.cls-13{fill:#831e35;opacity:.56;}.cls-14,.cls-22{opacity:.5;}.cls-14,.cls-72{mix-blend-mode:soft-light;}.cls-15{fill:url(#_Áåçûìÿííûé_ãðàäèåíò_2-2);}.cls-16{fill:url(#_Áåçûìÿííûé_ãðàäèåíò_37-5);}.cls-73{isolation:isolate;}.cls-17{fill:#a84e4b;}.cls-17,.cls-19,.cls-24,.cls-26,.cls-31,.cls-34,.cls-37,.cls-61,.cls-64{opacity:.47;}.cls-18{fill:url(#_Áåçûìÿííûé_ãðàäèåíò_48-2);}.cls-19{fill:#933a37;}.cls-20{fill:#736178;}.cls-21{fill:url(#_Áåçûìÿííûé_ãðàäèåíò_76-2);}.cls-74{fill:#ad4a2f;}.cls-24{fill:#d1534f;}.cls-25{fill:#b13938;}.cls-26{fill:#ad4f47;}.cls-75,.cls-36,.cls-55,.cls-59{fill:#691e35;}.cls-27{fill:url(#_Áåçûìÿííûé_ãðàäèåíò_37-3);}.cls-28{fill:#fb8b36;}.cls-76{fill:#7b1d2f;}.cls-29{fill:#ff863c;}.cls-30{fill:#5a4560;}.cls-31{fill:#d1624f;}.cls-32{fill:#772438;}.cls-33{fill:url(#_Áåçûìÿííûé_ãðàäèåíò_48-3);}.cls-34{fill:#ffa24f;}.cls-35{opacity:.35;}.cls-35,.cls-56{fill:#690123;}.cls-37{fill:#ab3a40;}.cls-38{fill:url(#_Áåçûìÿííûé_ãðàäèåíò_93);}.cls-39{fill:url(#_Áåçûìÿííûé_ãðàäèåíò_59);}.cls-40{fill:#761a2f;}.cls-41{fill:#772247;}.cls-42{fill:url(#_Áåçûìÿííûé_ãðàäèåíò_37-6);}.cls-43{fill:url(#_Áåçûìÿííûé_ãðàäèåíò_48-7);}.cls-44{fill:#6d1d2f;}.cls-45{fill:url(#_Áåçûìÿííûé_ãðàäèåíò_48-5);}.cls-46{fill:url(#_Áåçûìÿííûé_ãðàäèåíò_48-6);}.cls-47{fill:#dd8c83;}.cls-48{fill:#b14438;}.cls-49{fill:#cf714a;}.cls-77{mix-blend-mode:multiply;opacity:.6;}.cls-50{fill:url(#_Áåçûìÿííûé_ãðàäèåíò_48);}.cls-51{fill:#9f3c3c;}.cls-52{fill:url(#_Áåçûìÿííûé_ãðàäèåíò_27);}.cls-53{fill:url(#_Áåçûìÿííûé_ãðàäèåíò_37-4);}.cls-78{fill:url(#_Áåçûìÿííûé_ãðàäèåíò_67);}.cls-54{fill:#ffbea1;}.cls-56{opacity:.55;}.cls-57{fill:#701e35;}.cls-58{fill:url(#_Áåçûìÿííûé_ãðàäèåíò_27-2);}.cls-59{opacity:.57;}.cls-79{fill:#7c1338;}.cls-60{fill:#9f443c;}.cls-80{fill:url(#_Áåçûìÿííûé_ãðàäèåíò_67-2);}.cls-61{fill:#d16b4f;}.cls-62{fill:#b35239;}.cls-63{fill:url(#_Áåçûìÿííûé_ãðàäèåíò_2);}.cls-64{fill:#9b2c3a;}.cls-65{fill:url(#_Áåçûìÿííûé_ãðàäèåíò_77);}.cls-66{fill:#ba5750;mix-blend-mode:color;opacity:.58;}.cls-67{fill:#bf5059;}.cls-68{fill:url(#_Áåçûìÿííûé_ãðàäèåíò_76);}</style><linearGradient id="_Áåçûìÿííûé_ãðàäèåíò_59" x1="-33.48" y1="1021.71" x2="2671.24" y2="1021.71" gradientUnits="userSpaceOnUse"><stop offset=".02" stop-color="#ff9a4c"/><stop offset=".95" stop-color="#e0612d"/></linearGradient><linearGradient id="_Áåçûìÿííûé_ãðàäèåíò_76" x1="1195.6" y1="853.07" x2="1411.31" y2="853.07" gradientUnits="userSpaceOnUse"><stop offset=".02" stop-color="#c0633b"/><stop offset=".95" stop-color="#9f3437"/></linearGradient><radialGradient id="_Áåçûìÿííûé_ãðàäèåíò_37" cx="1303.96" cy="790.66" fx="1303.96" fy="790.66" r="76.16" gradientUnits="userSpaceOnUse"><stop offset=".02" stop-color="#5a4153"/><stop offset=".95" stop-color="#3e2645"/></radialGradient><radialGradient id="_Áåçûìÿííûé_ãðàäèåíò_37-2" cx="1301.53" cy="929.67" fx="1301.53" fy="929.67" r="66.1" xlink:href="#_Áåçûìÿííûé_ãðàäèåíò_37"/><linearGradient id="_Áåçûìÿííûé_ãðàäèåíò_2" x1="1195.59" y1="896.5" x2="1232.66" y2="896.5" gradientUnits="userSpaceOnUse"><stop offset=".02" stop-color="#d25922"/><stop offset=".95" stop-color="#d44836"/></linearGradient><radialGradient id="_Áåçûìÿííûé_ãðàäèåíò_48" cx="299.14" cy="445.13" fx="299.14" fy="445.13" r="14.82" gradientUnits="userSpaceOnUse"><stop offset=".02" stop-color="#503653"/><stop offset=".95" stop-color="#3e2645"/></radialGradient><radialGradient id="_Áåçûìÿííûé_ãðàäèåíò_48-2" cx="235.62" cy="564.82" fx="235.62" fy="564.82" r="25.21" xlink:href="#_Áåçûìÿííûé_ãðàäèåíò_48"/><radialGradient id="_Áåçûìÿííûé_ãðàäèåíò_37-3" cx="281.93" cy="542.43" fx="281.93" fy="542.43" r="27.39" xlink:href="#_Áåçûìÿííûé_ãðàäèåíò_37"/><radialGradient id="_Áåçûìÿííûé_ãðàäèåíò_48-3" cx="314.77" cy="476.57" fx="314.77" fy="476.57" r="37.11" xlink:href="#_Áåçûìÿííûé_ãðàäèåíò_48"/><radialGradient id="_Áåçûìÿííûé_ãðàäèåíò_27" cx="333.87" cy="477.76" fx="333.87" fy="477.76" r="24.18" gradientUnits="userSpaceOnUse"><stop offset=".03" stop-color="#ffab90"/><stop offset="1" stop-color="#ffe395"/></radialGradient><radialGradient id="_Áåçûìÿííûé_ãðàäèåíò_48-4" cx="296.22" cy="513.65" fx="296.22" fy="513.65" r="16.21" xlink:href="#_Áåçûìÿííûé_ãðàäèåíò_48"/><radialGradient id="_Áåçûìÿííûé_ãðàäèåíò_48-5" cx="1042.9" cy="503.54" fx="1042.9" fy="503.54" r="12.43" xlink:href="#_Áåçûìÿííûé_ãðàäèåíò_48"/><radialGradient id="_Áåçûìÿííûé_ãðàäèåíò_48-6" cx="989.65" cy="603.89" fx="989.65" fy="603.89" r="21.13" xlink:href="#_Áåçûìÿííûé_ãðàäèåíò_48"/><radialGradient id="_Áåçûìÿííûé_ãðàäèåíò_37-4" cx="1028.47" cy="585.12" fx="1028.47" fy="585.12" r="22.97" xlink:href="#_Áåçûìÿííûé_ãðàäèåíò_37"/><radialGradient id="_Áåçûìÿííûé_ãðàäèåíò_48-7" cx="1056.01" cy="529.91" fx="1056.01" fy="529.91" r="31.11" xlink:href="#_Áåçûìÿííûé_ãðàäèåíò_48"/><radialGradient id="_Áåçûìÿííûé_ãðàäèåíò_27-2" cx="1072.02" cy="530.9" fx="1072.02" fy="530.9" r="20.27" xlink:href="#_Áåçûìÿííûé_ãðàäèåíò_27"/><radialGradient id="_Áåçûìÿííûé_ãðàäèåíò_48-8" cx="1040.46" cy="560.99" fx="1040.46" fy="560.99" r="13.59" xlink:href="#_Áåçûìÿííûé_ãðàäèåíò_48"/><linearGradient id="_Áåçûìÿííûé_ãðàäèåíò_77" x1="-631.48" y1="892.44" x2="-640.85" y2="619.27" gradientTransform="translate(5.98 -131.11) rotate(175.43) scale(1 -.95)" gradientUnits="userSpaceOnUse"><stop offset=".05" stop-color="#9f3437"/><stop offset=".98" stop-color="#c0633b"/></linearGradient><linearGradient id="_Áåçûìÿííûé_ãðàäèåíò_67" x1="-931.3" y1="629.14" x2="-931.3" y2="435.93" gradientTransform="translate(-234.28) rotate(-180) scale(1 -1)" gradientUnits="userSpaceOnUse"><stop offset=".03" stop-color="#d8a4a4"/><stop offset="1" stop-color="#ffe5d2"/></linearGradient><linearGradient id="_Áåçûìÿííûé_ãðàäèåíò_86" x1="-935.99" y1="604.22" x2="-935.99" y2="459.12" gradientTransform="translate(-234.28) rotate(-180) scale(1 -1)" gradientUnits="userSpaceOnUse"><stop offset=".03" stop-color="#9f254d"/><stop offset="1" stop-color="#ff463b"/></linearGradient><linearGradient id="_Áåçûìÿííûé_ãðàäèåíò_67-2" x1="-939.65" y1="569.01" x2="-939.65" y2="496.07" xlink:href="#_Áåçûìÿííûé_ãðàäèåíò_67"/><linearGradient id="_Áåçûìÿííûé_ãðàäèåíò_93" x1="-939.65" y1="545.77" x2="-939.65" y2="517.57" gradientTransform="translate(-234.28) rotate(-180) scale(1 -1)" gradientUnits="userSpaceOnUse"><stop offset=".03" stop-color="#a7385d"/><stop offset="1" stop-color="#e5423b"/></linearGradient><linearGradient id="_Áåçûìÿííûé_ãðàäèåíò_76-2" x1="1377.84" y1="819.66" x2="1681.04" y2="819.66" xlink:href="#_Áåçûìÿííûé_ãðàäèåíò_76"/><radialGradient id="_Áåçûìÿííûé_ãðàäèåíò_37-5" cx="1530.14" cy="731.94" fx="1530.14" fy="731.94" r="107.05" xlink:href="#_Áåçûìÿííûé_ãðàäèåíò_37"/><radialGradient id="_Áåçûìÿííûé_ãðàäèåíò_37-6" cx="1526.73" cy="927.33" fx="1526.73" fy="927.33" r="92.91" xlink:href="#_Áåçûìÿííûé_ãðàäèåíò_37"/><linearGradient id="_Áåçûìÿííûé_ãðàäèåíò_2-2" x1="1377.83" y1="880.7" x2="1429.93" y2="880.7" xlink:href="#_Áåçûìÿííûé_ãðàäèåíò_2"/></defs><g class="cls-73"><g id="layer1"><g><polygon class="cls-39" points="1936.68 976.66 1252.29 962.57 -33.48 993.55 -33.48 1080.84 1936.68 1080.84 1936.68 976.66"/><g><g><polygon class="cls-74" points="1936.68 987.77 1230.94 967.52 1230.92 968.2 1936.68 988.45 1936.68 987.77"/><polygon class="cls-74" points="1936.68 998.85 1137.64 965 1137.61 965.68 1936.68 999.53 1936.68 998.85"/><polygon class="cls-74" points="1936.68 1025.22 1001.2 968.29 1001.16 968.96 1936.68 1025.9 1936.68 1025.22"/><polygon class="cls-74" points="1936.68 1038.95 939.38 970.36 939.34 971.04 1936.68 1039.63 1936.68 1038.95"/><polygon class="cls-74" points="1936.68 1067.72 849.35 973.62 849.29 974.3 1936.68 1068.4 1936.68 1067.72"/><rect class="cls-74" x="1174.35" y="572.36" width=".68" height="913.48" transform="translate(19.14 2079.66) rotate(-83.5)"/><polygon class="cls-74" points="1323.56 1081.18 529.35 980.33 529.44 979.66 1323.64 1080.51 1323.56 1081.18"/><rect class="cls-74" x="849.99" y="656.48" width=".68" height="749.09" transform="translate(-284.64 1736.65) rotate(-82.36)"/><polygon class="cls-74" points="1034.39 1081.18 406.41 982.87 406.51 982.2 1034.5 1080.51 1034.39 1081.18"/><polygon class="cls-74" points="752.06 1081.18 254.35 987.63 254.47 986.97 752.19 1080.51 752.06 1081.18"/><rect class="cls-74" x="350.14" y="872.44" width=".68" height="325.43" transform="translate(-741.44 1080.88) rotate(-73.69)"/><rect class="cls-74" x="213.79" y="870.34" width=".67" height="331.6" transform="translate(-841.37 962.96) rotate(-74.36)"/><rect class="cls-74" x="52.44" y="959.63" width=".68" height="182.59" transform="translate(-957.39 756.34) rotate(-70.87)"/><rect class="cls-74" x="1115.11" y="1048.61" width="184.02" height=".68" transform="translate(-62.96 77.18) rotate(-3.57)"/><rect class="cls-74" x="1000.84" y="985.37" width="136.8" height=".68" transform="translate(-19.11 21.15) rotate(-1.12)"/><polygon class="cls-74" points="252.63 1006.87 99.24 1004.31 99.25 1003.63 252.64 1006.2 252.63 1006.87"/></g><polygon class="cls-61" points="373.79 1080.84 54.47 991.43 -33.48 993.55 -33.48 1021 139.03 1080.84 373.79 1080.84"/><polygon class="cls-61" points="609.06 1054.63 871.73 1055.37 1047.81 1080.84 761.17 1080.84 609.06 1054.63"/><polygon class="cls-31" points="1057.22 1016.18 1202.83 1003.97 1766.25 1052.17 1231.69 1036.03 1057.22 1016.18"/><polygon class="cls-34" points="1115.29 1054.63 1291.12 1043.28 711.57 976.13 529.39 979.99 1115.29 1054.63"/><polygon class="cls-24" points="1936.68 1025.56 1804.56 1017.52 1681.04 1021.71 1936.68 1039.29 1936.68 1025.56"/></g><polygon class="cls-9" points="1936.68 -1.86 -33.48 -1.05 -33.48 93.59 1243.79 204.6 1936.68 150.87 1936.68 -1.86"/><polygon class="cls-54" points="1243.79 204.6 1252.29 962.58 -33.48 993.55 -33.48 93.59 1243.79 204.6"/><polygon class="cls-47" points="1936.68 150.87 1243.79 204.6 1252.29 962.57 1936.68 976.66 1936.68 150.87"/><g><rect class="cls-76" x="626.88" y="-530.49" width="1.35" height="1328.92" transform="translate(430.62 744.71) rotate(-84.18)"/><rect class="cls-76" x="667.75" y="-596.09" width="1.35" height="1414.16" transform="translate(477.51 761.11) rotate(-83.06)"/><rect class="cls-76" x="734.84" y="-615.78" width="1.35" height="1419.97" transform="translate(543.49 810.43) rotate(-82.29)"/><rect class="cls-76" x="942.65" y="-530.92" width="1.35" height="1238.14" transform="translate(717.95 1008.39) rotate(-81.58)"/><rect class="cls-76" x="1185.43" y="-440.66" width="1.35" height="1049.21" transform="translate(911.12 1240.78) rotate(-80.68)"/><rect class="cls-76" x="1307.95" y="-386.83" width="1.35" height="936.45" transform="translate(998.1 1355.24) rotate(-79.86)"/><rect class="cls-76" x="1433.51" y="-364.72" width="1.35" height="884.47" transform="translate(1103.11 1475.12) rotate(-79.77)"/><polygon class="cls-76" points="1936.68 140.73 1205 -1.71 1204.74 -.38 1936.68 142.1 1936.68 140.73"/><polygon class="cls-76" points="1936.68 115.84 1427.61 -1.7 1427.3 -.39 1936.68 117.23 1936.68 115.84"/><polygon class="cls-76" points="1936.68 85.97 1601.79 -3.19 1601.44 -1.88 1936.68 87.37 1936.68 85.97"/><polygon class="cls-76" points="1936.68 42.61 1759.36 -2.44 1759.03 -1.13 1936.68 44 1936.68 42.61"/><rect class="cls-76" x="457.18" y="46.97" width="152.75" height="1.35" transform="translate(-1.91 62.9) rotate(-6.74)"/><rect class="cls-76" x="1105.25" y="138.77" width="147.29" height="1.35" transform="translate(-7.46 97.16) rotate(-4.7)"/><rect class="cls-76" x="1811.34" y="46.9" width="119.63" height="1.35" transform="translate(4.27 182.6) rotate(-5.59)"/></g><path class="cls-35" d="m1936.68-1.86L-33.48-1.05v300.77l188.63,16.03,2.88,221.87-28.16,3.88-7.81,7.08v16.27l-11.58,3.04-9.42-5.9,1.48-34.27h19.83l1.1-9.49-6.45-.62,6.45-50.08-6.56-2.83v-9.22l-28.35-12.05-9.55,3.2-5.11,1.71-9.07,3.04v7.94l5.04-1.25,7.54-1.87,10.26-2.55-34.02,8.45,6.62,53.53-5.55.22,2.9,11.8,26.29.06,1.21,9.34.6.3,5.39,29.24.25.09-.23.04,19.65,6.74h11.31v16.72l5.92,9.79,30.9,3.87,1.8,138.38-194.16-1.77v22.31l194.44.5,2.17,167.26,31.18-2.27v-164.91l726.31,1.86-.9,163.06h31.06l2.67-162.97,197.3.5,8.82,163.27L-33.48,993.55v6.62l1238.35-29.47,731.81,13.54V-1.86Zm-1015.13,598.39l-26.2,3.61-6.78,6.15v14.12l-10.05,2.64-8.18-5.12,1.28-29.75h17.22l.95-8.24-5.6-.54,5.6-43.48-5.7-2.46v-8l-24.62-10.46-8.29,2.78-4.44,1.49-7.87,2.64v6.9l4.01-.99-13.71,3.4,5.74,46.47-4.82.19,2.52,10.24,22.83.05,1.05,8.1.52.26,4.68,25.38.22.08-.2.03,17.06,5.85h9.82v14.51l5.14,8.5,27.52,3.44-.52,94.8-726.4-6.63v-423.41l728.43,61.89-1.19,215.57Zm32.17,152.89l5.99-365.32,171.21,14.55,19.06,352.56-196.25-1.79Z"/><g><polygon class="cls-60" points="1285 389.58 1295.71 721.19 1566.23 712.55 1566.35 373.17 1285 389.58"/><polygon class="cls-55" points="1566.35 373.17 1576.95 381.37 1571.65 712.35 1566.23 712.55 1566.35 373.17"/><polygon class="cls-29" points="1315.67 425.79 1320.23 688.48 1535.27 681.18 1535.27 413.45 1315.67 425.79"/><polygon class="cls-12" points="1339.93 688.48 1334.95 439.69 1535.27 428.52 1535.27 681.18 1339.93 688.48"/><polygon class="cls-13" points="1334.95 439.69 1315.67 425.79 1535.27 413.45 1535.27 428.52 1334.95 439.69"/><polygon class="cls-60" points="1410.01 423.41 1429.66 423.41 1426.35 685.65 1415.63 685.65 1410.01 423.41"/><polygon class="cls-29" points="1429.66 423.41 1435.11 434.11 1433.06 686.03 1426.35 685.65 1429.66 423.41"/><polygon class="cls-60" points="1319.63 504.13 1319.63 513.02 1535.27 508.57 1535.27 502.94 1319.63 504.13"/><polygon class="cls-60" points="1323.6 626.34 1535.27 622.24 1535.27 615.57 1323.6 620.95 1323.6 626.34"/><rect class="cls-79" x="1299.66" y="383.96" width="1.35" height="47.45" transform="translate(44.58 936.98) rotate(-40.26)"/><rect class="cls-79" x="1525.38" y="392.64" width="50.88" height="1.35" transform="translate(292.55 1381.49) rotate(-52.38)"/><rect class="cls-79" x="1550.08" y="674.83" width="1.35" height="44.07" transform="translate(-42.49 1290.2) rotate(-44.62)"/><rect class="cls-79" x="1287.53" y="704.16" width="40.88" height="1.35" transform="translate(-41.1 1327.41) rotate(-53.09)"/></g><g><polygon class="cls-2" points="1936.68 150.87 1243.79 204.6 -33.48 93.59 -33.48 171.6 1244.24 244.26 1936.68 207.71 1936.68 150.87"/><polygon class="cls-49" points="-33.48 162.92 1243.79 241.24 1243.79 204.6 -33.48 93.59 -33.48 162.92"/><polygon class="cls-26" points="847.71 216.95 833.36 168.93 815.96 167.42 824.74 215.54 847.71 216.95"/><polygon class="cls-26" points="793.95 213.66 759.55 162.51 752.47 161.9 788.33 213.93 793.95 213.66"/><polygon class="cls-26" points="911.81 175.75 900.13 220.17 905.97 220.53 920.63 176.51 911.81 175.75"/><polygon class="cls-8" points="982.65 181.9 268.17 119.81 268.17 181.41 982.65 225.23 982.65 181.9"/><polygon class="cls-2" points="1936.68 928.21 -33.48 928.21 -33.48 993.55 1252.29 962.57 1936.68 976.66 1936.68 928.21"/><polygon class="cls-49" points="-33.48 993.55 -33.48 937.09 1250.75 934.36 1252.29 962.58 -33.48 993.55"/><polygon class="cls-8" points="1243.79 241.24 1243.79 204.6 1019.79 185.13 1024.4 227.79 1243.79 241.24"/><polygon class="cls-40" points="220.14 115.63 216.02 180.63 194.31 184.55 194.31 928.21 226 936.54 226 987.3 268.17 987.3 268.17 119.81 220.14 115.63"/><polygon class="cls-49" points="225.64 115.63 231.24 987.17 268.17 987.3 268.17 119.81 225.64 115.63"/><polygon class="cls-40" points="1936.68 -1.28 1390.83 -2.54 225.64 115.63 226.04 178.83 1936.68 9.14 1936.68 -1.28"/><polygon class="cls-2" points="1936.68 4.1 226.04 178.83 268.17 181.41 1936.68 31.82 1936.68 4.1"/><polygon class="cls-40" points="423.27 158.69 225.64 349.07 225.64 406.51 509.41 149.89 423.27 158.69"/><polygon class="cls-62" points="509.41 149.89 558.23 155.41 268.17 406.51 225.64 406.51 509.41 149.89"/><polygon class="cls-51" points="1936.68 708.01 1248.98 721.2 1249.34 753.06 1936.68 747.11 1936.68 708.01"/><polygon class="cls-40" points="982.65 181.9 982.65 225.23 961.17 228.17 950.79 928.21 973.33 934.36 975.4 969.25 1001.18 968.62 1019.79 185.13 982.65 181.9"/><polygon class="cls-49" points="988.71 181.9 980.77 969.12 1007.16 968.48 1025.38 185.71 988.71 181.9"/><polygon class="cls-40" points="1936.68 71.09 988.71 181.9 988.27 225.57 1936.68 123.65 1936.68 71.09"/><polygon class="cls-2" points="1936.68 123.65 988.27 225.57 1024.4 227.79 1936.68 136.59 1936.68 123.65"/><polygon class="cls-40" points="985.29 374.06 1133.39 209.98 1204.87 202.29 986.78 434.07 985.29 374.06"/><polygon class="cls-62" points="986.78 434.07 1019.6 434.07 1243.79 204.6 1204.87 202.29 986.78 434.07"/><polygon class="cls-49" points="969.23 754.28 969.23 712.97 268.17 692.47 268.17 740.41 969.23 754.28"/><polygon class="cls-49" points="213.85 692.22 213.85 740.41 -33.48 740.41 -33.48 686.07 213.85 692.22"/><polygon class="cls-40" points="969.23 754.28 954.69 758.08 268.17 746.16 268.17 740.41 969.23 754.28"/><polygon class="cls-40" points="213.85 740.41 194.31 745.19 -33.48 746.16 -33.48 740.41 213.85 740.41"/><polygon class="cls-49" points="1013.04 716.12 1262.67 721.44 1263.05 753.3 1012.2 752.12 1013.04 716.12"/><polygon class="cls-40" points="1263.05 753.3 1012.15 754.28 1012.2 752.12 1263.05 753.3"/><polygon class="cls-17" points="321.09 319.38 397.78 294.31 406.46 286.79 325.32 315.43 321.09 319.38"/><polygon class="cls-17" points="410.15 239.65 452.19 247.21 467.05 234.34 424.18 227.79 410.15 239.65"/><polygon class="cls-8" points="321.09 319.38 367.52 320.5 558.23 155.41 509.41 149.89 321.09 319.38"/><polygon class="cls-8" points="268.17 308.1 225.64 349.07 226.04 178.83 268.17 181.41 268.17 308.1"/><polygon class="cls-17" points="268.17 441.38 228.2 469.32 228.2 496.71 268.17 477.75 268.17 441.38"/><polygon class="cls-26" points="228.7 592.39 268.17 601.12 268.17 607.98 228.2 596.13 228.7 592.39"/><polygon class="cls-17" points="228.2 619.19 268.17 631.36 268.17 647.89 229.33 633.54 228.2 619.19"/><polygon class="cls-17" points="296.22 740.41 320.26 694 373.79 695.56 361.95 741.74 296.22 740.41"/><polygon class="cls-26" points="451.57 744.04 499.75 699.24 506.65 699.45 456.08 744.04 451.57 744.04"/><polygon class="cls-17" points="473.35 744.04 529.39 700.11 585.24 701.74 551.94 746.02 473.35 744.04"/><polygon class="cls-17" points="849.32 750.95 849.32 709.47 922.6 711.61 927.21 752.12 849.32 750.95"/><polygon class="cls-17" points="819.68 708.6 826.08 751.22 822.88 751.22 813.78 708.6 819.68 708.6"/><polygon class="cls-8" points="1021.95 333.23 985.29 374.06 988.27 225.57 1024.4 227.79 1021.95 333.23"/><polygon class="cls-26" points="1018.32 489.24 985.29 506.21 984.38 529.84 1017.75 513.58 1018.32 489.24"/><polygon class="cls-26" points="1013.59 692.47 984.49 599.84 984.38 611.24 1013.59 697.85 1013.59 692.47"/><polygon class="cls-26" points="983.43 668.13 1013.04 716.12 1013.04 734.71 983.43 690.68 983.43 668.13"/><polygon class="cls-26" points="230.14 816.62 268.17 772.02 268.17 806.35 230.26 835.24 230.14 816.62"/><polygon class="cls-26" points="296.22 985.61 328.57 936.32 335 935.53 301.48 985.61 296.22 985.61"/><polygon class="cls-26" points="163.13 988.81 126.22 935.53 78.56 936.86 135.95 989.47 163.13 988.81"/><polygon class="cls-26" points="50.37 936.92 58.57 989.47 54.47 991.43 46.78 938.1 50.37 936.92"/><polygon class="cls-26" points="1.12 165.04 15.01 97.81 77.31 103.22 77.31 168.93 1.12 165.04"/><polygon class="cls-26" points="94.19 170.75 124.76 107.34 130.83 107.34 99.6 171.08 94.19 170.75"/><polygon class="cls-26" points="119.87 172.32 165.78 110.91 169.78 111.26 124.42 172.6 119.87 172.32"/><polygon class="cls-17" points="31.95 687.7 65.23 740.41 90.19 740.41 46.82 688.07 31.95 687.7"/><polygon class="cls-8" points="962.61 712.78 962.61 754.15 969.23 754.28 969.23 712.97 962.61 712.78"/><polygon class="cls-8" points="203.23 691.95 194.31 740.41 213.85 740.41 213.85 692.22 203.23 691.95"/><polygon class="cls-17" points="1156.39 294.06 1072.02 343.49 1054.62 361.98 1128.72 322.38 1156.39 294.06"/><polygon class="cls-5" points="229.26 679.4 245.33 667.4 228.2 686.07 229.26 679.4"/><polygon class="cls-5" points="139.03 713.24 110.33 716.53 126.56 716.53 139.03 713.24"/><polygon class="cls-5" points="263.5 523.83 245.33 513.5 252.07 519.99 263.5 523.83"/><polygon class="cls-5" points="390.8 696.06 403.46 700.11 410.15 696.62 390.8 696.06"/><polygon class="cls-40" points="1013.04 584.8 1003.07 613.04 1009.9 601.56 1013.04 584.8"/><polygon class="cls-5" points="63.69 970.7 71.89 982.53 84.71 982.53 63.69 970.7"/><polygon class="cls-8" points="1113.44 338.02 1072.02 343.49 1204.87 202.29 1243.79 204.6 1113.44 338.02"/><polygon class="cls-8" points="-33.48 93.59 -33.48 162.92 216.17 178.23 220.14 115.63 -33.48 93.59"/></g><g><polygon class="cls-41" points="1936.68 446.43 1920.5 447.18 1919.75 615.36 1936.68 615.15 1936.68 446.43"/><polygon class="cls-55" points="1936.68 449.01 1809.84 454.54 1934.96 454.54 1936.68 454.5 1936.68 449.01"/><path class="cls-11" d="m1864.96,576.42l-14.87.23,2.74,17.17s24.26,3.73,31.17,21.53h6.66l-3.24-39.29-22.47.35Z"/><path class="cls-55" d="m1866.5,576.4l1.84,16.46s17.91,6.49,22.32,22.5h29.83v-39.81l-54,.85Z"/><path class="cls-36" d="m1852.83,593.83l15.51-.98s16.94,5.89,22.32,22.5h-6.66s-3.62-18.54-31.17-21.53Z"/><polygon class="cls-55" points="1850.3 577.99 1866.78 578.83 1866.5 576.4 1850.09 576.66 1850.3 577.99"/><polygon class="cls-55" points="1854.42 444.06 1920.5 447.18 1920.26 561.11 1861.47 561.69 1854.42 444.06"/><polygon class="cls-28" points="1936.68 558.69 1816.78 562.16 1936.68 559.59 1936.68 558.69"/><polygon class="cls-11" points="1849.34 561.57 1838.03 444.06 1854.42 444.06 1861.47 561.69 1849.34 561.57"/><polygon class="cls-55" points="1839.51 457.6 1855.23 457.6 1854.98 452.82 1838.99 452.82 1839.51 457.6"/><polygon class="cls-48" points="1936.68 435.98 1808.09 442.8 1809.84 454.54 1936.68 449.01 1936.68 435.98"/><polygon class="cls-48" points="1936.68 559.67 1910.21 560.25 1874.54 561.03 1816.78 562.16 1820.91 576.78 1936.68 575.54 1936.68 559.67"/><polygon class="cls-37" points="1924.12 575.55 1890.6 575.55 1874.54 561.03 1910.21 560.25 1924.12 575.55"/><polygon class="cls-37" points="1892.76 451.15 1880.24 439.25 1866.55 439.99 1879.65 451.73 1892.76 451.15"/><path class="cls-11" d="m1936.68,453.93l-78.48,3.67,1.84,25.4h11.53s11.73-14.29,65.11-23.22v-5.85Z"/><path class="cls-75" d="m1936.68,459.14c-46.04,8.67-65.11,23.85-65.11,23.85h9.08s19.58-12.37,56.03-20.8v-3.05Z"/></g><g><g><path class="cls-68" d="m1223.75,968.4s-55.34-140.68-10.83-217.62c0,0,112.35-34.04,192.29,7.88,0,0,24.99,101.28-26.18,209.74h-155.28Z"/><path class="cls-79" d="m1229.93,968.08c-19.62-87.55-19.48-142.99-15.91-174.08,3.87-33.77,12.55-47.01,12.64-47.14l.85.57c-.09.13-8.65,13.24-12.49,46.82-3.54,31.01-3.65,86.29,15.91,173.6l-1,.22Z"/><polygon class="cls-79" points="1305.05 968.41 1302.84 737.75 1303.87 737.74 1306.07 968.4 1305.05 968.41"/><path class="cls-79" d="m1374.25,968.12l-.98-.3c39.92-132.58,14.89-215.74,14.64-216.57l.98-.3c.26.83,25.39,84.26-14.63,217.17Z"/><path class="cls-79" d="m1347.24,968.08l-1-.22c28.03-124.97,6.23-225.32,6.01-226.32l1-.22c.22,1,22.07,101.58-6.01,226.76Z"/><path class="cls-64" d="m1304.24,878.58s20.63-73.5,23.72-140.14l8.36.72s-6.15,93.48-30.76,159.2l-1.32-19.78Z"/><polygon class="cls-64" points="1360.7 859.54 1394.22 867.51 1394.22 864.67 1361.12 857.56 1360.7 859.54"/><polygon class="cls-64" points="1361.12 843.36 1396.39 833.34 1396.51 813.29 1360.7 821.72 1361.12 843.36"/><path class="cls-64" d="m1355.42,756.48s-20.61,97.91-50.4,154.92l1.41,44.42s43.62-63.21,53.69-153.45l-4.7-45.89Z"/><path class="cls-59" d="m1197.05,802.24s111.34-23.78,173.37-2.55c0,0,3.02,98.03-37.86,134.79l-119.91-2.76s73.26,11.81,123.67,15.43c0,0-16.04,13.87-61.81,14.42-38.9.47-55.27-5.75-55.27-5.75l4.51,12.58h155.28s47.36-85.43,26.18-209.74c0,0-20.7,22.49-31.44,25.68-10.74,3.19-113.16-3.17-176.71,17.9Z"/><path class="cls-64" d="m1270.93,739.8s-18.86,115.28,8.11,228.6h24.69s-6.75-154.94-5.06-230.66c0,0-21.21,1.18-27.74,2.06Z"/><path class="cls-79" d="m1263.86,968.07c-17.54-89.66-16.6-146.77-12.73-178.9,4.21-34.88,12.71-48.74,12.8-48.87l.87.54c-.09.13-8.49,13.87-12.66,48.59-3.85,32.04-4.76,89.01,12.73,178.45l-1,.2Z"/><path class="cls-4" d="m1198.83,790.47s109.6-29.02,211.1,0l.93,13.28s-69.13-33.08-213.81-1.51l1.78-11.77Z"/><polygon class="cls-10" points="1208.57 919.77 1394.49 929.35 1390.91 939.57 1212.65 931.72 1208.57 919.77"/><path class="cls-23" d="m1305.56,782.51c0,1.01-.82,1.82-1.82,1.82s-1.82-.82-1.82-1.82.82-1.82,1.82-1.82,1.82.82,1.82,1.82Z"/><path class="cls-23" d="m1305.56,930.84c0,1.01-.82,1.82-1.82,1.82s-1.82-.82-1.82-1.82.82-1.82,1.82-1.82,1.82.82,1.82,1.82Z"/><path class="cls-23" d="m1253.43,786.16c0,1.01-.82,1.82-1.82,1.82s-1.82-.82-1.82-1.82.82-1.82,1.82-1.82,1.82.82,1.82,1.82Z"/><circle class="cls-69" cx="1251.6" cy="929.01" r="1.82"/><path class="cls-23" d="m1359.23,786.16c0,1.01-.82,1.82-1.82,1.82s-1.82-.82-1.82-1.82.82-1.82,1.82-1.82,1.82.82,1.82,1.82Z"/><path class="cls-23" d="m1359.23,932.66c0,1.01-.82,1.82-1.82,1.82s-1.82-.82-1.82-1.82.82-1.82,1.82-1.82,1.82.82,1.82,1.82Z"/><path class="cls-23" d="m1197.05,802.24s119.85-28.55,213.81,1.51c0,0-79.79-35.63-213.81-1.51Z"/><path class="cls-23" d="m1212.65,931.72s106.25,8.95,178.26,7.85c0,0-89.13-3.93-178.26-7.85Z"/><polygon class="cls-64" points="1213.94 862.53 1250.87 871.99 1250.23 862.53 1213.94 856.15 1213.94 862.53"/><polygon class="cls-64" points="1217.43 896.03 1253.43 898.37 1255.6 915.8 1219.39 909.84 1217.43 896.03"/><path class="cls-55" d="m1304.24,809s5.48,6.66.21,13.36l-.21-13.36Z"/><path class="cls-55" d="m1270.93,739.8s-7.08,2.55-13.48,18.85c0,0,2.44-14.32,4.78-17.82l8.7-1.03Z"/><polygon class="cls-55" points="1212.72 822.36 1221.54 834.29 1212.65 825.22 1212.72 822.36"/><polygon class="cls-55" points="1311.7 903.8 1334.4 885.69 1323.05 898.37 1311.7 903.8"/><polygon class="cls-55" points="1260.28 945.84 1264.52 949.23 1261.65 952.76 1260.28 945.84"/><polygon class="cls-55" points="1356.83 766.85 1359.23 769.39 1357.77 774.48 1356.83 766.85"/><polygon class="cls-25" points="1310.54 754.28 1330.42 751.1 1318.65 754.28 1310.54 754.28"/><polygon class="cls-55" points="1312.92 887.5 1323.05 890.48 1316.32 888.99 1312.92 887.5"/><polygon class="cls-14" points="1264.52 779.76 1265.88 789.78 1288.86 787.99 1289.87 778.01 1264.52 779.76"/><polygon class="cls-14" points="1272.19 923.05 1273.32 934.48 1291.12 935.18 1289.69 923.95 1272.19 923.05"/><polygon class="cls-14" points="1269.41 934.22 1264.36 922.65 1259.55 922.4 1266.79 934.1 1269.41 934.22"/><path class="cls-55" d="m1360.12,802.37s1.01,79.86-4.67,117.4c0,0,12.04-56.46,4.67-117.4Z"/><path class="cls-55" d="m1250.87,796.3s-6.33,12.7-1.59,32.02c0,0,.12-20.5,1.59-32.02Z"/><path class="cls-59" d="m1267.84,887.5c.37.63.65,1.25.88,1.87l-.88-1.87Z"/><path class="cls-59" d="m1268.82,889.58h-.02c-.03-.07-.05-.14-.08-.21l.1.21Z"/><g><path class="cls-36" d="m1217.23,905.73s11.66,16.92,20.45,15.47c6.23-1.03,2.11-28.82-8.57-36.24l-11.88,20.77Z"/><path class="cls-55" d="m1233.64,895.5c.57,6.45-1.49,11.9-4.59,12.17-3.11.27-6.09-4.73-6.65-11.18-.57-6.45,1.49-11.9,4.59-12.17,3.11-.27,6.09,4.73,6.66,11.18Z"/><path class="cls-63" d="m1229.18,906.18l-31.34,6.29c-.14-.52-.28-1.04-.41-1.54-4.26-16.99.21-30.41.21-30.41l29.34,4.71c1.26,1.05,2.26,2.13,3.04,3.22h.01c.31.41.58.83.81,1.23.41.7.72,1.39.98,2.08l.11.24h-.02c2.67,7.47-2.74,14.17-2.74,14.17Z"/><path class="cls-59" d="m1230.04,888.46c.31.41.58.83.81,1.23l-25.29-.97-.57-1.05,25.04.79h.01Z"/><path class="cls-59" d="m1229.18,906.18l-31.34,6.29c-.14-.52-.28-1.04-.41-1.54l9.29-13.18,25.19-5.74c2.67,7.47-2.74,14.17-2.74,14.17Z"/><path class="cls-28" d="m1197.64,880.53s-14.85,12.48.2,31.94c0,0,20.74-18.45-.2-31.94Z"/><polygon class="cls-55" points="1206.25 899.69 1202.83 896.75 1207 896.5 1219.09 896.75 1206.25 899.69"/></g></g><path class="cls-66" d="m1399.81,911.12c-9.14,36.27-20.77,57.29-20.77,57.29h-155.28s-1.81-4.6-4.49-12.52l-.03-.05c-1.46-4.3-3.16-9.57-4.98-15.66-1.84-6.06-3.79-12.93-5.71-20.39-.73-2.92-1.46-5.92-2.19-9.01l-8.52,1.7s0-.03-.03-.03c-5.06-6.55-6.73-12.28-6.73-17.04,0-9.36,6.52-14.85,6.55-14.88l2.7.43c-2.81-16.96-4.73-35.03-4.73-52.96,0-8.68.46-17.31,1.46-25.78.46-3.95,1.03-7.9,1.76-11.77,2.68-14.25,7.19-27.72,14.09-39.68,0,0,.03,0,.08-.03,3.19-.54,93.26-15.69,192.22,7.9,0,0,.73,2.98,1.68,8.44.97,5.46,2.14,13.42,3.03,23.37v.05c.38,4,.68,8.36.92,13.01l.03.22h-.03c1.41,27.53,0,65.45-11.04,107.38Z"/><path class="cls-35" d="m1399.81,911.12c-9.14,36.27-20.77,57.29-20.77,57.29h-155.28s-1.81-4.6-4.49-12.52l-.03-.05c-1.46-4.3-3.16-9.57-4.98-15.66-1.84-6.06-3.79-12.93-5.71-20.39-.73-2.92-1.46-5.92-2.19-9.01l-8.52,1.7s0-.03-.03-.03c-5.06-6.55-6.73-12.28-6.73-17.04,0-9.36,6.52-14.85,6.55-14.88l2.7.43c-2.81-16.96-4.73-35.03-4.73-52.96,0-8.68.46-17.31,1.46-25.78.46-3.95,1.03-7.9,1.76-11.77,2.68-14.25,7.19-27.72,14.09-39.68,0,0,.03,0,.08-.03,3.19-.54,93.26-15.69,192.22,7.9,0,0,.73,2.98,1.68,8.44.97,5.46,2.14,13.42,3.03,23.37v.05c.38,4,.68,8.36.92,13.01l.03.22h-.03c1.41,27.53,0,65.45-11.04,107.38Z"/></g><polygon class="cls-56" points="1936.68 990.01 1442.92 992.77 1936.68 1004.41 1936.68 990.01"/><g><polygon class="cls-44" points="1524.78 667.1 1507.51 174.42 1546.13 181.45 1546.13 667.1 1524.78 667.1"/><polygon class="cls-6" points="1507.51 174.42 1474.25 178 1495.83 667.1 1524.78 667.1 1507.51 174.42"/><polygon class="cls-6" points="1936.68 321.17 1521.02 345.95 1524.78 398.66 1936.68 387.02 1936.68 321.17"/><polygon class="cls-44" points="1936.68 384.39 1524.78 398.66 1546.13 400.71 1936.68 388.36 1936.68 384.39"/><polygon class="cls-6" points="1526.82 488 1526.82 523.87 1671.18 394.52 1622.35 395.75 1526.82 488"/><polygon class="cls-44" points="1671.18 394.52 1698.7 395.88 1546.13 523.87 1526.82 523.87 1671.18 394.52"/><polygon class="cls-57" points="1475.32 202.29 1508.69 208.18 1507.51 174.42 1474.25 178 1475.32 202.29"/><polygon class="cls-57" points="1533.13 345.23 1540.02 398.13 1524.78 398.66 1521.02 345.95 1533.13 345.23"/><polygon class="cls-19" points="1936.68 321.17 1897.06 323.53 1912.66 385.22 1936.68 384.39 1936.68 321.17"/><polygon class="cls-19" points="1876.23 324.77 1869.7 386.71 1862.62 386.95 1873.03 324.77 1876.23 324.77"/><polygon class="cls-19" points="1480.73 324.77 1511.19 279.4 1511.44 286.6 1480.73 328.87 1480.73 324.77"/><polygon class="cls-19" points="1482.36 361.7 1513.66 349.89 1514.67 378.71 1483.68 391.67 1482.36 361.7"/><polygon class="cls-19" points="1548.83 466.74 1572.02 483.37 1575.44 480.31 1551.81 463.87 1548.83 466.74"/><polygon class="cls-19" points="1564.47 451.64 1585.61 471.2 1602.61 455.96 1575.44 441.05 1564.47 451.64"/><polygon class="cls-19" points="1521.27 567.11 1502.95 666.85 1504.31 666.85 1521.52 574.26 1521.27 567.11"/><polygon class="cls-19" points="1522.26 595.27 1507.51 666.99 1510.46 666.68 1523.16 620.95 1522.26 595.27"/><polygon class="cls-44" points="1620.23 382.6 1647.98 386.95 1628.63 384.77 1620.23 382.6"/><polygon class="cls-44" points="1516.24 423.41 1511.44 426.57 1516.94 443.49 1516.24 423.41"/><polygon class="cls-44" points="1646.86 416.31 1627.82 422.41 1644.42 418.5 1646.86 416.31"/><polygon class="cls-44" points="1477.78 257.83 1486.04 251.23 1477.78 260.33 1477.78 257.83"/><polygon class="cls-44" points="1502.95 591.36 1496.8 597.12 1501.15 594.24 1502.95 591.36"/><polygon class="cls-44" points="1726.39 333.71 1695.78 355.86 1734.36 333.23 1726.39 333.71"/></g><g><polygon class="cls-30" points="342.27 449.61 342.27 441.38 314.77 433.15 313.11 443.14 342.27 449.61"/><polygon class="cls-50" points="314.77 433.15 281.93 445.63 281.93 457.1 316.35 449.22 314.77 433.15"/><polygon class="cls-18" points="228.2 529.95 229.33 599.68 238.85 585.62 243.04 538.46 228.2 529.95"/><polygon class="cls-30" points="243.04 538.46 275.95 542.05 275.95 585.1 238.85 585.62 243.04 538.46"/><polygon class="cls-20" points="228.2 529.95 266.9 534.72 275.95 542.05 243.04 538.46 228.2 529.95"/><polygon class="cls-23" points="229.33 599.68 269.09 595.24 275.95 585.1 238.85 585.62 229.33 599.68"/><polygon class="cls-27" points="252.64 567.79 252.64 556.09 289.36 562.04 300.28 555.93 298.41 517.07 311.21 517.07 306.21 559.99 289.05 567.79 252.64 567.79"/><polygon class="cls-30" points="311.21 517.07 320.26 519.75 311.83 560.68 289.05 567.79 306.21 559.99 311.21 517.07"/><polygon class="cls-23" points="306.21 559.99 311.81 560.81 289.05 567.79 306.21 559.99"/><polygon class="cls-20" points="252.64 556.09 275.95 558.9 289.36 562.04 252.64 556.09"/><polygon class="cls-22" points="252.64 567.79 238.37 573.86 238.01 564.82 252.64 556.09 252.64 567.79"/><polygon class="cls-23" points="275.6 520.44 312.17 520.44 350.63 520.36 317.62 519.54 275.6 520.44"/><polygon class="cls-22" points="309.8 534.08 318.77 530.09 320.26 519.75 310.94 520.36 309.8 534.08"/><polygon class="cls-33" points="281.8 510 274.32 458.11 313.11 443.14 355.22 452.48 347.7 506.91 319.66 506.91 281.8 510"/><polygon class="cls-30" points="313.11 443.14 313.11 507.45 347.29 509.83 355.22 452.48 313.11 443.14"/><polygon class="cls-52" points="316.35 449.22 315.03 505.06 346.29 506.29 352.7 455.45 316.35 449.22"/><polygon class="cls-67" points="311.25 448.58 277.25 460.62 283.02 506.91 312.14 505.06 311.25 448.58"/><polygon class="cls-3" points="274.32 510.61 275.6 520.44 317.62 519.54 318.12 506.86 274.32 510.61"/><polygon class="cls-30" points="318.12 506.86 353.99 508.15 350.63 520.36 317.62 519.54 318.12 506.86"/><polygon class="cls-14" points="240.23 531.49 249.03 539.19 263.44 540.51 252.64 533.4 240.23 531.49"/><polygon class="cls-14" points="330.94 519.87 332.34 507.37 343.98 507.79 343.39 520.18 330.94 519.87"/><polygon class="cls-14" points="328.95 519.99 327.07 507.18 325.32 507 327.66 519.99 328.95 519.99"/><polygon class="cls-14" points="325.84 436.47 327.69 446.37 336.43 448.31 335.63 439.4 325.84 436.47"/></g><g><polygon class="cls-30" points="1079.06 507.3 1079.06 500.4 1056.01 493.51 1054.62 501.88 1079.06 507.3"/><polygon class="cls-45" points="1056.01 493.51 1028.47 503.97 1028.47 513.58 1057.33 506.98 1056.01 493.51"/><polygon class="cls-46" points="983.43 574.66 984.38 633.12 992.35 621.33 995.87 581.79 983.43 574.66"/><polygon class="cls-30" points="995.87 581.79 1023.46 584.8 1023.46 620.89 992.35 621.33 995.87 581.79"/><polygon class="cls-20" points="983.43 574.66 1015.88 578.66 1023.46 584.8 995.87 581.79 983.43 574.66"/><polygon class="cls-23" points="984.38 633.12 1017.71 629.39 1023.46 620.89 992.35 621.33 984.38 633.12"/><polygon class="cls-53" points="1003.92 606.38 1003.92 596.57 1034.71 601.56 1043.86 596.44 1042.29 563.86 1053.03 563.86 1048.83 599.84 1034.45 606.38 1003.92 606.38"/><polygon class="cls-30" points="1053.03 563.86 1060.61 566.1 1053.54 600.42 1034.45 606.38 1048.83 599.84 1053.03 563.86"/><polygon class="cls-23" points="1048.83 599.84 1053.53 600.53 1034.45 606.38 1048.83 599.84"/><polygon class="cls-20" points="1003.92 596.57 1023.46 598.93 1034.71 601.56 1003.92 596.57"/><polygon class="cls-22" points="1003.92 606.38 991.96 611.47 991.66 603.89 1003.92 596.57 1003.92 606.38"/><polygon class="cls-23" points="1023.17 566.69 1053.83 566.69 1086.07 566.62 1058.4 565.93 1023.17 566.69"/><polygon class="cls-22" points="1051.84 578.12 1059.36 574.78 1060.61 566.1 1052.8 566.62 1051.84 578.12"/><polygon class="cls-43" points="1028.37 557.94 1022.1 514.43 1054.62 501.88 1089.92 509.71 1083.61 555.34 1060.11 555.34 1028.37 557.94"/><polygon class="cls-30" points="1054.62 501.88 1054.62 555.79 1083.27 557.79 1089.92 509.71 1054.62 501.88"/><polygon class="cls-58" points="1057.33 506.98 1056.23 553.79 1082.44 554.83 1087.81 512.2 1057.33 506.98"/><polygon class="cls-67" points="1053.06 506.44 1024.55 516.53 1029.39 555.34 1053.8 553.79 1053.06 506.44"/><polygon class="cls-1" points="1022.1 558.45 1023.17 566.69 1058.4 565.93 1058.82 555.3 1022.1 558.45"/><polygon class="cls-30" points="1058.82 555.3 1088.89 556.38 1086.07 566.62 1058.4 565.93 1058.82 555.3"/><polygon class="cls-14" points="993.52 575.95 1000.89 582.4 1012.97 583.51 1003.92 577.55 993.52 575.95"/><polygon class="cls-14" points="1069.56 566.21 1070.74 555.72 1080.49 556.08 1080.01 566.47 1069.56 566.21"/><polygon class="cls-14" points="1067.89 566.31 1066.32 555.57 1064.85 555.42 1066.82 566.31 1067.89 566.31"/><polygon class="cls-14" points="1065.29 496.28 1066.84 504.59 1074.16 506.21 1073.5 498.74 1065.29 496.28"/></g><g><path class="cls-35" d="m652.03,407.83c32.73-8.35,89.27-5.4,116.49,86.19,18.66,62.78-10.24,158.21-83.83,168.9-68.2,9.91-98.94-74.14-101.35-122.01-2.4-47.87,22.14-121.21,68.68-133.08Z"/><path class="cls-55" d="m698.15,660.89s-15.13,3.77-31.46-1.39c-29.22-9.22-66.25-45.35-72.11-115.66-6.4-76.85,25.71-122.46,60.31-136.31,8.75-3.5,26.45-4.27,26.45-4.27l16.81,257.63Z"/><path class="cls-65" d="m670.44,405.25c32.73-8.35,89.27-5.4,116.49,86.19,18.66,62.78-10.24,158.21-83.83,168.9-68.2,9.91-98.94-74.14-101.35-122.01-2.4-47.87,22.14-121.21,68.68-133.08Z"/><ellipse class="cls-78" cx="697.02" cy="532.54" rx="70.89" ry="96.6"/><ellipse class="cls-70" cx="701.71" cy="531.67" rx="53.24" ry="72.55"/><ellipse class="cls-80" cx="705.38" cy="532.54" rx="26.76" ry="36.47"/><path class="cls-38" d="m695.03,531.67c0,7.79,4.63,14.1,10.35,14.1s10.35-6.31,10.35-14.1-4.63-14.1-10.35-14.1-10.35,6.31-10.35,14.1Z"/><rect class="cls-79" x="646.07" y="539.7" width="209.7" height="1.35" transform="translate(145.32 1239.76) rotate(-84.85)"/><rect class="cls-79" x="569.51" y="531.52" width="258.48" height="1.35" transform="translate(121.28 1194.03) rotate(-86.19)"/><rect class="cls-79" x="640.81" y="430.11" width="1.35" height="216.38" transform="translate(-33.39 42.5) rotate(-3.7)"/><path class="cls-55" d="m643.35,640.35l2.24-38.63,7.48,46.76s-5.63-3.89-9.72-8.13Z"/><polygon class="cls-55" points="707.51 408.75 698.75 450.78 700.86 501.14 707.51 408.75"/><polygon class="cls-55" points="746.1 594.86 754.95 604.22 745.37 603.18 746.1 594.86"/><polygon class="cls-55" points="727.68 606.37 707.51 582.35 722.03 601.72 727.68 606.37"/><polygon class="cls-55" points="683.02 501.03 664.34 513.83 673.68 505.12 683.02 501.03"/><path class="cls-55" d="m759.26,446.1s-5.56,5.53-1.5,16.97l1.5-16.97Z"/><polygon class="cls-55" points="673.68 496.07 653.07 469.89 666.22 489.23 673.68 496.07"/><polygon class="cls-55" points="640.15 517.57 646.36 560.81 645.96 604.05 640.15 517.57"/><polygon class="cls-32" points="772.54 535.73 736.15 517.57 752.04 527.71 772.54 535.73"/><polygon class="cls-64" points="673.68 441.3 653.07 413.04 645.96 418.4 669.26 443.63 673.68 441.3"/><path class="cls-64" d="m602.65,513.83l23.47,10.02s-.3,27.67,4.12,41.19l-27.59-14.38s-2.3-21.88,0-36.82Z"/><polygon class="cls-64" points="782.97 479.29 757.16 469.89 757.76 463.06 777.52 465.62 782.97 479.29"/><path class="cls-64" d="m762.68,569.01h25.47s-5.08,24.08-20.24,48.2l-13.57-27.84,8.34-20.36Z"/></g><g class="cls-77"><path class="cls-7" d="m585.29,379.9c.71,6.25,2.64,9.62,7.09,8.14,2.86-.95,4.54-5.02,4.02-9.99-.52-5.03-3.65-9.19-6.76-8.54-3.23.68-4.87,7.52-4.35,10.38Z"/><path class="cls-7" d="m692.86,450.59c.39-7,4.8-10.83,8.54-11.49,3.17-.56,6.04.89,8.75,3.72,2.67,2.78,4.78,7.7,3.43,12.98-.44,1.74-1.74,5.55-2.65,6.76-1.39,1.84-4.17.61-5.74.18-2.87-.8-3.92-2.4-5.91-5.44-1.8-2.74-6.57-.55-6.43-6.71Z"/><path class="cls-7" d="m591.34,407.02c2.44-7.07,6.9,1,3.99,5.03-1.95,2.7-4.21-.05-4.49-3.48l.5-1.54Z"/><path class="cls-7" d="m50.46,633.74c2.44-7.07,6.9,1,3.99,5.03-1.95,2.7-4.21-.05-4.49-3.48l.5-1.55Z"/><path class="cls-7" d="m597.96,380.18c1.63-4.71,4.6.67,2.66,3.35-1.3,1.8-2.81-.03-2.99-2.32l.33-1.03Z"/><path class="cls-7" d="m342.78,605.26c1.36,9.95,5.05,15.32,13.55,12.98,5.47-1.51,8.68-7.99,7.69-15.91-.99-8.02-6.97-14.65-12.93-13.6-6.17,1.08-9.31,11.98-8.31,16.54Z"/><path class="cls-7" d="m354.35,648.47c4.67-11.26,13.19,1.59,7.63,8.01-3.73,4.3-8.05-.08-8.58-5.55l.95-2.46Z"/><path class="cls-7" d="m367.01,605.71c3.11-7.51,8.79,1.06,5.09,5.34-2.49,2.87-5.37-.05-5.72-3.7l.64-1.64Z"/><path class="cls-7" d="m1134.88,589.83c-3.87,8.59,3.23,18.65,6.03,8.27,1.5-5.55-1.4-12.33-4.69-8.27h-1.34Z"/><path class="cls-7" d="m1146.61,614.66c-.51-1.66-1-1.22-1.55-.16-.92,1.76-.31,2.15.34,3.49,1.44,2.99,2.71,2.9,4.69.82,1.58-1.67,4.25-6.29,1.38-8.59-1.22-.98-3.79.46-4.53,1.97l-.33,2.48Z"/><path class="cls-7" d="m1140.24,617.97c-.29-4.24,3.54,1.23,1.86,3.53-1.42,1.95-2.31-2.11-1.86-3.8v.28Z"/><path class="cls-7" d="m1147.95,603.35c1.07,2.8,3.25-1.13,2.48-2.98-.93-2.2-2.28,1.38-2.65,2.43l.17.55Z"/><path class="cls-7" d="m1107.08,653.55c.64-3.49,3.25-.25,3.57,1.98.45,3.14-1.2,7.22-3.22,7.54-3.1.49-3.92-7.45-1.18-9.24l.84-.28Z"/><path class="cls-7" d="m1136.06,659.89c-1.84,4.42,4.41,5.36,4.36.34-.04-3.97-3.65-3.97-4.36-.62v.28Z"/><path class="cls-7" d="m1110.09,573.28c-1.26-2.69.42-6.78,2.38-6.31,2.53.61,2.59,6.38,1.73,9.24-1.88,6.29-7.1,2-4.95-4.03l.84,1.1Z"/><path class="cls-7" d="m1147.28,559.76c-2.23,8.71,6.4,5.63,6.88-1.37.57-8.45-6.24-6.23-6.88,1.37Z"/><path class="cls-7" d="m712.91,433.72c-3.54,7.95,5.72,11.81,6.47,1.82-1.85-3.89-5.26-4.8-7.47-.99l1-.83Z"/><path class="cls-7" d="m630.52,495.09c7.75-16.35,22.77-22.76,33.44-10.74,2.8,3.16,6.79,8.84,3.46,13.98-2.9,4.47-16.79.07-20.69.07-5.6,0-11.38.35-16.21-3.31Z"/><path class="cls-7" d="m637.54,521.44c.64,7.32,8.47,4.77,7.31-1.27-.76-4.01-5.04-5.04-5.81-1.21l-1.51,2.48Z"/><path class="cls-7" d="m48.96,667.05c.64,7.32,8.47,4.77,7.31-1.27-.76-4.01-5.04-5.04-5.81-1.21l-1.51,2.48Z"/><path class="cls-7" d="m737.54,523.92c1.31-11.69,9.02,6.23,1.59,4.82-.13-.93-.35-1.52-.59-2.34l-1-2.48Z"/><path class="cls-7" d="m318.92,654.27c1.31-11.69,9.02,6.23,1.59,4.82-.13-.93-.35-1.52-.59-2.34l-1.01-2.48Z"/><path class="cls-7" d="m719.34,453.71c-1.01,7.87,5.07,6.28,5.05-.04-.01-5.24-4.17-7.07-5.05-1.61v1.66Z"/><path class="cls-7" d="m1157.6,527.36c.49-1.28,1.15-2.11,1.98-2.5,3.13,6.83-3.84,11.42-1.98,3.33v-.83Z"/><path class="cls-7" d="m64.57,836.49c-3.68,8.39,3.06,18.21,5.73,8.07,1.43-5.42-1.33-12.03-4.46-8.07h-1.27Z"/><path class="cls-7" d="m75.7,860.72c-.49-1.62-.95-1.19-1.47-.16-.87,1.72-.29,2.1.32,3.41,1.37,2.92,2.58,2.83,4.45.8,1.51-1.63,4.04-6.14,1.31-8.39-1.16-.95-3.6.45-4.3,1.92l-.32,2.42Z"/><path class="cls-7" d="m69.66,863.95c-.27-4.13,3.36,1.2,1.77,3.44-1.35,1.9-2.2-2.06-1.77-3.71v.27Z"/><path class="cls-7" d="m76.97,849.68c1.02,2.73,3.09-1.11,2.35-2.91-.88-2.15-2.17,1.35-2.51,2.37l.16.54Z"/><path class="cls-7" d="m63.01,858.26c.61-3.41,3.09-.25,3.39,1.93.42,3.06-1.14,7.05-3.06,7.36-2.95.48-3.73-7.28-1.12-9.02l.8-.27Z"/><path class="cls-7" d="m100.97,834.74c-1.74,4.31,4.19,5.23,4.14.34-.04-3.87-3.46-3.87-4.14-.6v.27Z"/><path class="cls-7" d="m41.02,820.34c-1.2-2.63.4-6.62,2.26-6.16,2.41.59,2.46,6.23,1.65,9.01-1.78,6.14-6.74,1.95-4.7-3.93l.8,1.08Z"/><path class="cls-7" d="m76.34,807.14c-2.12,8.5,6.08,5.5,6.53-1.33.54-8.24-5.93-6.08-6.53,1.33Z"/><path class="cls-7" d="m86.14,775.52c.47-1.25,1.09-2.06,1.88-2.44,2.97,6.66-3.65,11.15-1.88,3.25v-.81Z"/><path class="cls-7" d="m651.28,437.31c-11.02,15.28,12.71,10.72,2.01,2.21l-2.01-2.21Z"/><path class="cls-7" d="m604.38,478.41c-2.71,4.57-1.68,14.05,3.16,10.63,3.69-2.61,2.86-13.26-1.66-9.8l-1.51-.83Z"/><path class="cls-7" d="m626.49,503.24c.88-5.04,4.75-5.11,4.56-.02-.16,4.28-2.74,3.82-3.56.85l-1-.83Z"/><path class="cls-7" d="m760.04,449.58c1.14-1.1,2.05-2.55,2.72-4.36-1.82-2.59-1.91-.58-2.72,1.88v2.48Z"/><path class="cls-7" d="m1339.87,274.26c.39-7,4.8-10.83,8.54-11.49,3.17-.56,6.04.89,8.75,3.72,2.67,2.78,4.78,7.7,3.43,12.98-.44,1.74-1.74,5.55-2.65,6.76-1.39,1.84-4.17.61-5.74.18-2.87-.8-3.92-2.39-5.91-5.44-1.8-2.74-6.57-.55-6.43-6.71Z"/><path class="cls-7" d="m1359.92,257.39c-3.54,7.95,5.72,11.81,6.47,1.82-1.85-3.89-5.26-4.8-7.47-.99l1-.83Z"/><path class="cls-7" d="m1277.53,318.76c7.75-16.35,22.77-22.76,33.44-10.74,2.8,3.16,6.79,8.84,3.46,13.98-2.9,4.47-16.79.07-20.69.07-5.6,0-11.38.35-16.21-3.31Z"/><path class="cls-7" d="m1284.55,345.11c.64,7.32,8.47,4.77,7.31-1.27-.77-4.01-5.04-5.04-5.81-1.21l-1.51,2.48Z"/><path class="cls-7" d="m1384.54,347.59c1.31-11.69,9.02,6.23,1.59,4.82-.13-.93-.35-1.52-.59-2.34l-1.01-2.48Z"/><path class="cls-7" d="m1366.35,277.38c-1.01,7.87,5.06,6.28,5.05-.04-.01-5.24-4.17-7.07-5.05-1.61v1.66Z"/><path class="cls-7" d="m1298.28,260.98c-11.02,15.28,12.71,10.72,2.01,2.21l-2.01-2.21Z"/><path class="cls-7" d="m1273.49,326.9c.88-5.04,4.75-5.11,4.56-.02-.16,4.28-2.74,3.82-3.56.85l-1.01-.83Z"/><path class="cls-7" d="m1407.05,273.24c1.14-1.1,2.05-2.55,2.72-4.36-1.82-2.59-1.91-.58-2.72,1.88v2.48Z"/><path class="cls-7" d="m865.81,261.43c1.98,12.07,7.37,18.58,19.78,15.73,7.99-1.83,12.66-9.69,11.23-19.29-1.45-9.72-10.18-17.76-18.88-16.49-9.01,1.31-13.59,14.53-12.14,20.05Z"/><path class="cls-7" d="m886.51,294.52c.39-7,4.8-10.83,8.54-11.49,3.17-.56,6.04.89,8.75,3.72,2.67,2.78,4.78,7.7,3.43,12.98-.44,1.74-1.74,5.55-2.65,6.76-1.39,1.84-4.17.61-5.74.18-2.87-.8-3.92-2.4-5.91-5.44-1.8-2.74-6.57-.55-6.43-6.71Z"/><path class="cls-7" d="m871.69,296.45c2.44-7.07,6.9,1,3.99,5.03-1.95,2.7-4.21-.05-4.49-3.48l.5-1.55Z"/><path class="cls-7" d="m878.31,269.61c1.63-4.71,4.6.67,2.66,3.35-1.3,1.8-2.81-.03-2.99-2.32l.33-1.03Z"/><path class="cls-7" d="m906.56,277.65c-3.54,7.95,5.72,11.81,6.47,1.82-1.85-3.89-5.26-4.8-7.47-.99l1-.83Z"/><path class="cls-7" d="m859.12,305.06c7.75-16.35,22.77-22.76,33.44-10.74,2.8,3.16,6.79,8.84,3.46,13.98-2.9,4.47-16.79.07-20.69.07-5.6,0-11.38.35-16.21-3.31Z"/><path class="cls-7" d="m866.14,331.41c.64,7.33,8.47,4.77,7.31-1.27-.76-4.01-5.04-5.04-5.81-1.21l-1.51,2.48Z"/><path class="cls-7" d="m931.19,367.85c1.31-11.69,9.02,6.23,1.59,4.82-.13-.93-.35-1.52-.59-2.34l-1.01-2.48Z"/><path class="cls-7" d="m912.99,297.64c-1.01,7.87,5.06,6.28,5.05-.04-.01-5.24-4.17-7.07-5.05-1.61v1.65Z"/><path class="cls-7" d="m879.88,247.28c-11.02,15.28,12.71,10.72,2.01,2.21l-2.01-2.21Z"/><path class="cls-7" d="m832.98,288.38c-2.71,4.57-1.68,14.05,3.16,10.63,3.69-2.61,2.86-13.26-1.66-9.8l-1.51-.83Z"/><path class="cls-7" d="m856.84,333.08c.88-5.04,4.75-5.11,4.56-.02-.16,4.28-2.74,3.82-3.55.85l-1.01-.83Z"/><path class="cls-7" d="m919.39,373.91c1.14-1.1,2.05-2.55,2.72-4.36-1.82-2.59-1.91-.58-2.72,1.88v2.48Z"/><path class="cls-7" d="m1025.87,890.24c.36-6.52,4.46-10.08,7.95-10.69,2.95-.52,5.62.83,8.15,3.46,2.48,2.59,4.45,7.17,3.19,12.08-.41,1.62-1.62,5.17-2.46,6.29-1.29,1.71-3.88.57-5.34.16-2.67-.74-3.64-2.23-5.5-5.06-1.67-2.55-6.11-.51-5.98-6.24Z"/><path class="cls-7" d="m1044.53,874.55c-3.29,7.4,5.32,10.99,6.02,1.69-1.72-3.62-4.89-4.46-6.95-.92l.94-.77Z"/><path class="cls-7" d="m350.3,852.25c7.21-15.21,21.19-21.18,31.11-9.99,2.61,2.94,6.32,8.23,3.22,13.01-2.7,4.16-15.63.07-19.25.07-5.21,0-10.59.32-15.08-3.08Z"/><path class="cls-7" d="m356.83,876.77c.59,6.82,7.88,4.44,6.81-1.18-.71-3.73-4.69-4.69-5.4-1.13l-1.4,2.31Z"/><path class="cls-7" d="m395.94,788.79c1.22-10.88,8.39,5.79,1.48,4.49-.12-.86-.32-1.41-.55-2.18l-.94-2.31Z"/><path class="cls-7" d="m1050.51,893.15c-.94,7.32,4.71,5.84,4.7-.04-.01-4.87-3.88-6.58-4.7-1.5v1.54Z"/><path class="cls-7" d="m369.61,798.49c-10.25,14.22,11.83,9.97,1.87,2.05l-1.87-2.05Z"/><path class="cls-7" d="m325.97,836.73c-2.52,4.25-1.56,13.07,2.94,9.89,3.44-2.43,2.66-12.34-1.54-9.12l-1.4-.77Z"/><path class="cls-7" d="m346.54,859.83c.82-4.69,4.42-4.76,4.24-.02-.15,3.99-2.55,3.55-3.31.79l-.93-.77Z"/><path class="cls-7" d="m1088.39,889.3c1.07-1.02,1.91-2.37,2.54-4.06-1.69-2.41-1.78-.54-2.54,1.75v2.31Z"/></g><g><path class="cls-71" d="m1714.63,724.46c0,.43-.35.78-.78.78s-.78-.35-.78-.78.35-.78.78-.78.78.35.78.78Z"/><path class="cls-71" d="m1187.33,760.3c0,.43-.35.78-.78.78s-.78-.35-.78-.78.35-.78.78-.78.78.35.78.78Z"/><path class="cls-71" d="m1229.72,449.34c0,.43-.35.78-.78.78s-.78-.35-.78-.78.35-.78.78-.78.78.35.78.78Z"/><path class="cls-71" d="m1363.13,641.67c0,.43-.35.78-.78.78s-.78-.35-.78-.78.35-.78.78-.78.78.35.78.78Z"/><path class="cls-71" d="m1422.31,820.9c0,.66-.54,1.2-1.2,1.2s-1.2-.54-1.2-1.2.54-1.2,1.2-1.2,1.2.54,1.2,1.2Z"/><path class="cls-71" d="m1333.2,871.28c0,.66-.54,1.2-1.2,1.2s-1.2-.54-1.2-1.2.54-1.2,1.2-1.2,1.2.54,1.2,1.2Z"/><path class="cls-71" d="m1274.01,552.78c0,.43-.35.78-.78.78s-.78-.35-.78-.78.35-.78.78-.78.78.35.78.78Z"/><path class="cls-71" d="m1123.52,704.88c0,.43-.35.78-.78.78s-.78-.35-.78-.78.35-.78.78-.78.78.35.78.78Z"/><path class="cls-71" d="m1142.07,425.76c0,.43-.35.78-.78.78s-.78-.35-.78-.78.35-.78.78-.78.78.35.78.78Z"/><path class="cls-71" d="m1331.43,450.12c0,.43-.35.78-.78.78s-.78-.35-.78-.78.35-.78.78-.78.78.35.78.78Z"/><path class="cls-71" d="m1240.74,616c0,.43-.35.78-.78.78s-.78-.35-.78-.78.35-.78.78-.78.78.35.78.78Z"/><path class="cls-71" d="m1776.03,834.39c0,.43-.35.78-.78.78s-.78-.35-.78-.78.35-.78.78-.78.78.35.78.78Z"/><path class="cls-71" d="m1254.32,650.9c0,.43-.35.78-.78.78s-.78-.35-.78-.78.35-.78.78-.78.78.35.78.78Z"/><path class="cls-71" d="m1278.94,467.28c0,.43-.35.78-.78.78s-.78-.35-.78-.78.35-.78.78-.78.78.35.78.78Z"/><path class="cls-71" d="m1481.61,659.18c0,.66-.54,1.2-1.2,1.2s-1.2-.54-1.2-1.2.54-1.2,1.2-1.2,1.2.54,1.2,1.2Z"/><path class="cls-71" d="m1246.36,590.35c0,.43-.35.78-.78.78s-.78-.35-.78-.78.35-.78.78-.78.78.35.78.78Z"/><path class="cls-71" d="m1279.72,587.62c0,.43-.35.78-.78.78s-.78-.35-.78-.78.35-.78.78-.78.78.35.78.78Z"/><path class="cls-71" d="m1293.21,600.55c0,.43-.35.78-.78.78s-.78-.35-.78-.78.35-.78.78-.78.78.35.78.78Z"/><path class="cls-72" d="m1219.36,546.05c0,.76-.62,1.38-1.38,1.38s-1.38-.62-1.38-1.38.62-1.38,1.38-1.38,1.38.62,1.38,1.38Z"/><path class="cls-72" d="m1346.78,948.76c0,.76-.62,1.38-1.38,1.38s-1.38-.62-1.38-1.38.62-1.38,1.38-1.38,1.38.62,1.38,1.38Z"/><path class="cls-72" d="m1210.99,387.01c0,.76-.62,1.38-1.38,1.38s-1.38-.62-1.38-1.38.62-1.38,1.38-1.38,1.38.62,1.38,1.38Z"/><path class="cls-72" d="m1471.2,914.65c0,1.17-.95,2.12-2.12,2.12s-2.12-.95-2.12-2.12.95-2.12,2.12-2.12,2.12.95,2.12,2.12Z"/><path class="cls-72" d="m1181.37,842.09c0,1.17-.95,2.12-2.12,2.12s-2.12-.95-2.12-2.12.95-2.12,2.12-2.12,2.12.95,2.12,2.12Z"/><path class="cls-72" d="m1129.57,529.42c0,.76-.62,1.38-1.38,1.38s-1.38-.62-1.38-1.38.62-1.38,1.38-1.38,1.38.62,1.38,1.38Z"/><path class="cls-72" d="m1288.33,495.84c0,.76-.62,1.38-1.38,1.38s-1.38-.62-1.38-1.38.62-1.38,1.38-1.38,1.38.62,1.38,1.38Z"/><path class="cls-72" d="m1714.45,773.4c0,.76-.62,1.38-1.38,1.38s-1.38-.62-1.38-1.38.62-1.38,1.38-1.38,1.38.62,1.38,1.38Z"/><path class="cls-72" d="m1263.12,355.26c0,.76-.62,1.38-1.38,1.38s-1.38-.62-1.38-1.38.62-1.38,1.38-1.38,1.38.62,1.38,1.38Z"/><path class="cls-72" d="m1262.37,573.04c0,.76-.62,1.38-1.38,1.38s-1.38-.62-1.38-1.38.62-1.38,1.38-1.38,1.38.62,1.38,1.38Z"/><circle class="cls-72" cx="1168.86" cy="385.63" r="1.38"/><path class="cls-72" d="m1130.31,701.06c0,1.17-.95,2.12-2.12,2.12s-2.12-.95-2.12-2.12.95-2.12,2.12-2.12,2.12.95,2.12,2.12Z"/><circle class="cls-72" cx="1111.21" cy="603.41" r="1.38"/><path class="cls-72" d="m1422.5,821.08c0,.76-.62,1.38-1.38,1.38s-1.38-.62-1.38-1.38.62-1.38,1.38-1.38,1.38.62,1.38,1.38Z"/><path class="cls-72" d="m1742.09,730.91c0,.76-.62,1.38-1.38,1.38s-1.38-.62-1.38-1.38.62-1.38,1.38-1.38,1.38.62,1.38,1.38Z"/></g><g><g><path class="cls-21" d="m1417.4,981.77s-77.78-197.74-15.22-305.89c0,0,157.92-47.85,270.27,11.07,0,0,35.13,142.36-36.79,294.81h-218.26Z"/><path class="cls-79" d="m1426.1,981.32c-27.58-123.05-27.39-200.98-22.37-244.69,5.45-47.47,17.64-66.07,17.76-66.25l1.2.8c-.12.18-12.16,18.61-17.55,65.82-4.98,43.58-5.13,121.29,22.37,244.01l-1.41.31Z"/><polygon class="cls-79" points="1531.68 981.77 1528.58 657.56 1530.02 657.55 1533.12 981.76 1531.68 981.77"/><path class="cls-79" d="m1628.95,981.37l-1.38-.42c56.11-186.35,20.93-303.25,20.57-304.41l1.37-.43c.37,1.16,35.68,118.44-20.57,305.25Z"/><path class="cls-79" d="m1590.98,981.32l-1.41-.31c39.4-175.65,8.76-316.7,8.44-318.11l1.41-.31c.32,1.41,31.02,142.77-8.44,318.74Z"/><path class="cls-64" d="m1530.55,855.52s29-103.31,33.35-196.98l11.74,1.02s-8.65,131.39-43.24,223.77l-1.85-27.81Z"/><polygon class="cls-64" points="1609.9 828.75 1657.02 839.95 1657.02 835.97 1610.49 825.97 1609.9 828.75"/><polygon class="cls-64" points="1610.49 806.01 1660.07 791.92 1660.24 763.75 1609.9 775.6 1610.49 806.01"/><path class="cls-64" d="m1602.47,683.89s-28.97,137.62-70.84,217.75l1.98,62.44s61.31-88.84,75.47-215.69l-6.61-64.51Z"/><path class="cls-59" d="m1379.88,748.21s156.5-33.43,243.69-3.58c0,0,4.24,137.79-53.21,189.46l-168.55-3.89s102.98,16.61,173.83,21.69c0,0-22.55,19.5-86.88,20.27-54.68.66-77.68-8.08-77.68-8.08l6.34,17.68h218.26s66.57-120.08,36.79-294.81c0,0-29.1,31.62-44.19,36.09-15.09,4.48-159.06-4.46-248.39,25.16Z"/><path class="cls-64" d="m1483.72,660.46s-26.51,162.04,11.4,321.31h34.71s-9.48-217.78-7.12-324.21c0,0-29.81,1.66-39,2.9Z"/><path class="cls-79" d="m1473.78,981.3c-24.65-126.02-23.33-206.3-17.89-251.46,5.91-49.03,17.87-68.5,17.99-68.7l1.22.76c-.12.19-11.94,19.5-17.8,68.29-5.41,45.04-6.69,125.11,17.89,250.83l-1.41.28Z"/><path class="cls-16" d="m1382.38,731.67s154.05-40.8,296.72,0l1.3,18.67s-97.17-46.5-300.53-2.13l2.5-16.54Z"/><polygon class="cls-42" points="1396.07 913.41 1657.39 926.88 1652.37 941.25 1401.81 930.21 1396.07 913.41"/><path class="cls-23" d="m1532.4,720.49c0,1.42-1.15,2.56-2.56,2.56s-2.56-1.15-2.56-2.56,1.15-2.56,2.56-2.56,2.56,1.15,2.56,2.56Z"/><path class="cls-23" d="m1532.4,928.96c0,1.42-1.15,2.56-2.56,2.56s-2.56-1.15-2.56-2.56,1.15-2.56,2.56-2.56,2.56,1.15,2.56,2.56Z"/><path class="cls-23" d="m1459.12,725.61c0,1.42-1.15,2.56-2.56,2.56s-2.56-1.15-2.56-2.56,1.15-2.56,2.56-2.56,2.56,1.15,2.56,2.56Z"/><circle class="cls-69" cx="1456.56" cy="926.4" r="2.56"/><path class="cls-23" d="m1607.84,725.61c0,1.42-1.15,2.56-2.56,2.56s-2.56-1.15-2.56-2.56,1.15-2.56,2.56-2.56,2.56,1.15,2.56,2.56Z"/><path class="cls-23" d="m1607.84,931.53c0,1.42-1.15,2.56-2.56,2.56s-2.56-1.15-2.56-2.56,1.15-2.56,2.56-2.56,2.56,1.15,2.56,2.56Z"/><path class="cls-23" d="m1379.88,748.21s168.46-40.14,300.53,2.13c0,0-112.15-50.08-300.53-2.13Z"/><path class="cls-23" d="m1401.81,930.21s149.35,12.58,250.56,11.04c0,0-125.28-5.52-250.56-11.04Z"/><polygon class="cls-64" points="1403.62 832.96 1455.53 846.25 1454.63 832.96 1403.62 823.99 1403.62 832.96"/><polygon class="cls-64" points="1408.52 880.04 1459.12 883.33 1462.18 907.83 1411.28 899.45 1408.52 880.04"/><path class="cls-55" d="m1530.55,757.71s7.7,9.36.3,18.78l-.3-18.78Z"/><path class="cls-55" d="m1483.72,660.46s-9.95,3.59-18.95,26.5c0,0,3.43-20.13,6.72-25.05l12.23-1.45Z"/><polygon class="cls-55" points="1401.91 776.49 1414.31 793.26 1401.81 780.52 1401.91 776.49"/><polygon class="cls-55" points="1541.03 890.96 1572.93 865.51 1556.98 883.33 1541.03 890.96"/><polygon class="cls-55" points="1468.75 950.05 1474.71 954.81 1470.68 959.78 1468.75 950.05"/><polygon class="cls-55" points="1604.46 698.46 1607.84 702.04 1605.78 709.2 1604.46 698.46"/><polygon class="cls-25" points="1539.39 680.8 1567.34 676.34 1550.8 680.8 1539.39 680.8"/><polygon class="cls-55" points="1542.75 868.05 1556.98 872.24 1547.53 870.14 1542.75 868.05"/><polygon class="cls-14" points="1474.71 716.61 1476.63 730.7 1508.92 728.18 1510.34 714.16 1474.71 716.61"/><polygon class="cls-14" points="1485.5 918.02 1487.08 934.09 1512.1 935.07 1510.09 919.29 1485.5 918.02"/><polygon class="cls-14" points="1481.59 933.72 1474.49 917.45 1467.73 917.1 1477.9 933.56 1481.59 933.72"/><path class="cls-55" d="m1609.08,748.4s1.41,112.26-6.57,165.01c0,0,16.93-79.36,6.57-165.01Z"/><path class="cls-55" d="m1455.53,739.87s-8.89,17.85-2.24,45.01c0,0,.16-28.82,2.24-45.01Z"/><path class="cls-59" d="m1479.38,868.06c.52.88.91,1.75,1.24,2.62l-1.24-2.62Z"/><path class="cls-59" d="m1480.76,870.98h-.03c-.04-.09-.07-.2-.11-.3l.14.3Z"/><g><path class="cls-36" d="m1408.25,893.67s16.39,23.78,28.75,21.74c8.76-1.45,2.97-40.5-12.05-50.93l-16.7,29.19Z"/><path class="cls-55" d="m1431.3,879.3c.8,9.06-2.09,16.72-6.46,17.11-4.37.39-8.55-6.65-9.35-15.71-.8-9.06,2.09-16.72,6.46-17.11,4.37-.39,8.55,6.65,9.35,15.71Z"/><path class="cls-15" d="m1425.04,894.31l-44.06,8.85c-.2-.73-.39-1.46-.57-2.17-5.99-23.88.3-42.74.3-42.74l41.24,6.62c1.77,1.48,3.17,2.99,4.28,4.53h.02c.43.57.81,1.16,1.14,1.73.58.98,1.01,1.95,1.38,2.92l.16.33h-.03c3.76,10.5-3.85,19.92-3.85,19.92Z"/><path class="cls-59" d="m1426.25,869.4c.43.57.81,1.16,1.14,1.73l-35.55-1.36-.81-1.48,35.19,1.1h.02Z"/><path class="cls-59" d="m1425.04,894.31l-44.06,8.85c-.2-.73-.39-1.46-.57-2.17l13.06-18.52,35.41-8.07c3.76,10.5-3.85,19.91-3.85,19.91Z"/><path class="cls-28" d="m1380.71,858.25s-20.88,17.54.28,44.89c0,0,29.16-25.93-.28-44.89Z"/><polygon class="cls-55" points="1392.82 885.19 1388 881.05 1393.87 880.7 1410.86 881.05 1392.82 885.19"/></g></g><path class="cls-66" d="m1664.87,901.26c-12.85,50.98-29.2,80.52-29.2,80.52h-218.26s-2.55-6.46-6.31-17.6l-.04-.08c-2.05-6.04-4.45-13.46-7-22.01-2.58-8.52-5.32-18.17-8.02-28.67-1.03-4.11-2.05-8.33-3.08-12.66l-11.98,2.39s0-.04-.04-.04c-7.11-9.2-9.47-17.26-9.47-23.95,0-13.15,9.16-20.87,9.2-20.91l3.8.61c-3.95-23.84-6.65-49.23-6.65-74.44,0-12.2.65-24.33,2.05-36.23.65-5.55,1.44-11.1,2.47-16.54,3.76-20.03,10.11-38.97,19.81-55.77,0,0,.04,0,.11-.04,4.49-.76,131.08-22.05,270.19,11.1,0,0,1.03,4.18,2.36,11.86,1.37,7.68,3,18.86,4.26,32.85v.08c.53,5.63.95,11.75,1.29,18.29l.04.3h-.04c1.98,38.7,0,92-15.51,150.93Z"/><path class="cls-35" d="m1664.87,901.26c-12.85,50.98-29.2,80.52-29.2,80.52h-218.26s-2.55-6.46-6.31-17.6l-.04-.08c-2.05-6.04-4.45-13.46-7-22.01-2.58-8.52-5.32-18.17-8.02-28.67-1.03-4.11-2.05-8.33-3.08-12.66l-11.98,2.39s0-.04-.04-.04c-7.11-9.2-9.47-17.26-9.47-23.95,0-13.15,9.16-20.87,9.2-20.91l3.8.61c-3.95-23.84-6.65-49.23-6.65-74.44,0-12.2.65-24.33,2.05-36.23.65-5.55,1.44-11.1,2.47-16.54,3.76-20.03,10.11-38.97,19.81-55.77,0,0,.04,0,.11-.04,4.49-.76,131.08-22.05,270.19,11.1,0,0,1.03,4.18,2.36,11.86,1.37,7.68,3,18.86,4.26,32.85v.08c.53,5.63.95,11.75,1.29,18.29l.04.3h-.04c1.98,38.7,0,92-15.51,150.93Z"/></g></g></g></g></svg>