<?xml version="1.0" encoding="UTF-8"?><svg xmlns="http://www.w3.org/2000/svg" xmlns:xlink="http://www.w3.org/1999/xlink" viewBox="0 0 652.16 459.77"><defs><style>.cls-1{fill:url(#_Áåçûìÿííûé_ãðàäèåíò_2-2);}.cls-1,.cls-2,.cls-3,.cls-4,.cls-5,.cls-6,.cls-7,.cls-8,.cls-9,.cls-10,.cls-11{fill-rule:evenodd;}.cls-12{isolation:isolate;}.cls-13{fill:#931a38;}.cls-2{fill:#b13938;}.cls-3,.cls-14{fill:#fb8b36;}.cls-4{fill:#852438;}.cls-15{fill:#7c2a38;}.cls-5{fill:#c84738;}.cls-6{fill:url(#_Áåçûìÿííûé_ãðàäèåíò_2-3);}.cls-7{opacity:.76;}.cls-7,.cls-9{fill:#691e35;}.cls-8{fill:#ab3a40;}.cls-8,.cls-10{opacity:.47;}.cls-16{fill:#ba6664;mix-blend-mode:color;opacity:.66;}.cls-10{fill:#932637;}.cls-11{fill:url(#_Áåçûìÿííûé_ãðàäèåíò_2);}</style><linearGradient id="_Áåçûìÿííûé_ãðàäèåíò_2" x1="72.58" y1="458.06" x2="1210.57" y2="458.06" gradientUnits="userSpaceOnUse"><stop offset=".02" stop-color="#d25922"/><stop offset=".95" stop-color="#d44836"/></linearGradient><linearGradient id="_Áåçûìÿííûé_ãðàäèåíò_2-2" x1="28.38" y1="55.17" x2="1205.98" y2="55.17" xlink:href="#_Áåçûìÿííûé_ãðàäèåíò_2"/><linearGradient id="_Áåçûìÿííûé_ãðàäèåíò_2-3" x1="37.8" y1="198.12" x2="1183.72" y2="198.12" xlink:href="#_Áåçûìÿííûé_ãðàäèåíò_2"/></defs><g class="cls-12"><g id="layer1"><g><polygon class="cls-2" points="657.2 68.7 64.25 70.66 103.17 468.33 657.2 469.87 657.2 68.7"/><rect class="cls-15" x="130.84" y="71.64" width="1.75" height="325.86" transform="translate(-25.97 16.61) rotate(-6.57)"/><polygon class="cls-15" points="207.49 396.49 186.78 72.76 188.53 72.65 209.24 396.38 207.49 396.49"/><rect class="cls-15" x="255.13" y="72.71" width="1.75" height="323.73"/><rect class="cls-15" x="375.26" y="70.98" width="1.75" height="322.04"/><rect class="cls-15" x="479.08" y="69.59" width="1.76" height="319.86" transform="translate(-6.13 13.29) rotate(-1.58)"/><polygon class="cls-15" points="583.78 390.71 567.2 71.03 568.96 70.94 585.53 390.62 583.78 390.71"/><rect class="cls-15" x="579.08" y="282.17" width="78.12" height="1.75"/><rect class="cls-15" x="206.73" y="370.01" width="49.27" height="1.76"/><polygon class="cls-5" points="657.2 392.93 90.13 400.29 90.13 468.33 657.2 469.9 657.2 392.93"/><polygon class="cls-14" points="657.2 391.53 98.17 397.27 90.13 400.29 443.97 395.81 657.2 392.93 657.2 391.53"/><polygon class="cls-11" points="657.2 446.25 83.09 449.59 72.58 468.25 657.2 469.88 657.2 446.25"/><polygon class="cls-3" points="657.2 445.13 90.13 447.29 83.09 449.59 657.2 446.25 657.2 445.13"/><polygon class="cls-1" points="657.2 37.63 28.38 45.61 36.89 72.71 657.2 70.27 657.2 37.63"/><polygon class="cls-10" points="484.36 389.39 376.14 389.39 376.14 70.98 475.56 69.65 484.36 389.39"/><polygon class="cls-10" points="256 110.96 376.14 213.49 376.14 228.64 256 120.58 256 110.96"/><polygon class="cls-10" points="256 258.52 376.14 301.11 376.14 348.44 256 322.75 256 258.52"/><polygon class="cls-10" points="197.12 220.66 256 210.51 256 80.01 187.65 90.83 197.12 220.66"/><path class="cls-4" d="m198.01,250.57s-9.22,15.28,2.21,18.55l-2.21-18.55Z"/><polygon class="cls-4" points="256 228.64 285.18 210.51 256 232 251.52 234.57 256 228.64"/><polygon class="cls-4" points="122.65 155.79 140.7 169.8 122.65 162.79 122.65 155.79"/><polygon class="cls-4" points="596.39 227.7 611.92 204.74 601.91 225.05 591.21 239.58 596.39 227.7"/><polygon class="cls-4" points="657.2 275.54 648.17 283.05 657.2 288.81 657.2 275.54"/><polygon class="cls-4" points="579.08 272.72 582.58 281.84 615.37 283.05 580.98 285.56 579.37 288.62 579.08 272.72"/><polygon class="cls-8" points="313.4 43.94 319.87 69.51 417.22 69.07 413.17 43.23 313.4 43.94"/><polygon class="cls-8" points="441.57 41.82 441.57 69.04 447.26 68.94 447.96 41.82 441.57 41.82"/><path class="cls-10" d="m521.13,391.51l49.03-280.55,1.01,19.43-47.79,261.12h-2.25Z"/><polygon class="cls-10" points="515.06 391.59 546.14 89.31 540.46 89.31 503.29 390.66 515.06 391.59"/><polygon class="cls-8" points="344.38 445.98 329.19 397.22 372 395.78 383.73 445.79 344.38 445.98"/><polygon class="cls-8" points="409.28 445.66 393.04 396.43 401.16 395.78 412.82 445.64 409.28 445.66"/><polygon class="cls-8" points="206.73 468.75 206.73 448.58 256 448.58 256 468.97 206.73 468.75"/><polygon class="cls-8" points="197.36 468.97 164.52 449.59 150.36 449.59 187.65 468.68 197.36 468.97"/><polygon class="cls-3" points="657.2 37.63 28.38 45.61 657.2 41.93 657.2 37.63"/><polygon class="cls-13" points="139.84 69.66 135.7 45.76 137.42 45.46 141.57 69.36 139.84 69.66"/><rect class="cls-13" x="257.89" y="43.62" width="1.75" height="26"/><rect class="cls-13" x="342.81" y="43.23" width="1.75" height="26.64"/><rect class="cls-13" x="621.2" y="54.15" width="28.3" height="1.76" transform="translate(494.08 676.92) rotate(-82.15)"/><rect class="cls-13" x="596.35" y="393.02" width="1.75" height="51.71"/><polygon class="cls-9" points="370.93 69.82 376.14 259.84 377.84 69.65 370.93 69.82"/><polygon class="cls-7" points="657.2 69.45 64.25 70.66 65.7 91.23 657.2 89.41 657.2 69.45"/><polygon class="cls-6" points="657.2 185.72 37.8 185.72 44.7 210.51 657.2 210.51 657.2 185.72"/><polygon class="cls-7" points="657.2 210.51 77.94 210.51 79.37 225.1 657.2 227.99 657.2 210.51"/><polygon class="cls-8" points="312.64 210.51 312.64 185.72 467.25 185.72 462.59 210.51 312.64 210.51"/><polygon class="cls-8" points="490.42 210.51 498.84 185.72 520.2 185.72 508.67 210.51 490.42 210.51"/><polygon class="cls-16" points="90.13 447.29 83.09 449.59 72.58 468.25 657.2 469.88 657.2 41.93 28.38 45.61 36.89 72.71 64.25 70.66 75.52 185.72 37.8 185.72 44.7 210.51 77.94 210.51 98.17 397.27 90.13 400.29 90.13 447.29"/></g></g></g></svg>